ISO-10303-21;
HEADER;
FILE_DESCRIPTION((''),'2;1');
FILE_NAME('BANJIEJIAN-1','2024-04-08T18:57:59',('005'),(''),
'CREO PARAMETRIC BY PTC INC, 2020053','CREO PARAMETRIC BY PTC INC, 2020053','');
FILE_SCHEMA(('CONFIG_CONTROL_DESIGN'));
ENDSEC;
DATA;
#2=CARTESIAN_POINT('',(-2.E1,0.E0,0.E0));
#3=DIRECTION('',(0.E0,0.E0,-1.E0));
#4=DIRECTION('',(0.E0,-1.E0,0.E0));
#5=AXIS2_PLACEMENT_3D('',#2,#3,#4);
#7=CARTESIAN_POINT('',(-2.E1,0.E0,0.E0));
#8=DIRECTION('',(0.E0,0.E0,-1.E0));
#9=DIRECTION('',(0.E0,1.E0,0.E0));
#10=AXIS2_PLACEMENT_3D('',#7,#8,#9);
#12=CARTESIAN_POINT('',(0.E0,0.E0,0.E0));
#13=DIRECTION('',(0.E0,0.E0,-1.E0));
#14=DIRECTION('',(0.E0,-1.E0,0.E0));
#15=AXIS2_PLACEMENT_3D('',#12,#13,#14);
#17=CARTESIAN_POINT('',(0.E0,0.E0,0.E0));
#18=DIRECTION('',(0.E0,0.E0,-1.E0));
#19=DIRECTION('',(0.E0,1.E0,0.E0));
#20=AXIS2_PLACEMENT_3D('',#17,#18,#19);
#22=DIRECTION('',(-1.E0,0.E0,0.E0));
#23=VECTOR('',#22,5.437694101251E0);
#24=CARTESIAN_POINT('',(-9.E0,7.5E0,0.E0));
#25=LINE('',#24,#23);
#26=DIRECTION('',(-8.944271909999E-1,-4.472135955E-1,0.E0));
#27=VECTOR('',#26,6.079526825623E0);
#28=CARTESIAN_POINT('',(-9.670820393250E0,1.306048783713E1,0.E0));
#29=LINE('',#28,#27);
#30=DIRECTION('',(0.E0,-1.E0,0.E0));
#31=VECTOR('',#30,2.718847050625E0);
#32=CARTESIAN_POINT('',(-7.5E0,1.171884705063E1,0.E0));
#33=LINE('',#32,#31);
#34=DIRECTION('',(1.E0,0.E0,0.E0));
#35=VECTOR('',#34,5.437694101251E0);
#36=CARTESIAN_POINT('',(-1.443769410125E1,-7.5E0,0.E0));
#37=LINE('',#36,#35);
#38=DIRECTION('',(0.E0,-1.E0,0.E0));
#39=VECTOR('',#38,2.718847050625E0);
#40=CARTESIAN_POINT('',(-7.5E0,-9.E0,0.E0));
#41=LINE('',#40,#39);
#42=DIRECTION('',(8.944271909999E-1,-4.472135955E-1,0.E0));
#43=VECTOR('',#42,6.079526825623E0);
#44=CARTESIAN_POINT('',(-1.510851449450E1,-1.034164078650E1,0.E0));
#45=LINE('',#44,#43);
#46=CARTESIAN_POINT('',(6.E0,1.6E1,0.E0));
#47=DIRECTION('',(0.E0,0.E0,-1.E0));
#48=DIRECTION('',(0.E0,1.E0,0.E0));
#49=AXIS2_PLACEMENT_3D('',#46,#47,#48);
#51=DIRECTION('',(-1.E0,0.E0,0.E0));
#52=VECTOR('',#51,1.314589803375E1);
#53=CARTESIAN_POINT('',(6.E0,1.75E1,0.E0));
#54=LINE('',#53,#52);
#55=CARTESIAN_POINT('',(-7.145898033750E0,1.6E1,0.E0));
#56=DIRECTION('',(0.E0,0.E0,-1.E0));
#57=DIRECTION('',(-4.472135955E-1,8.944271909999E-1,0.E0));
#58=AXIS2_PLACEMENT_3D('',#55,#56,#57);
#60=DIRECTION('',(8.944271909999E-1,4.472135955E-1,0.E0));
#61=VECTOR('',#60,2.107952682562E1);
#62=CARTESIAN_POINT('',(-2.667082039325E1,7.914589803375E0,0.E0));
#63=LINE('',#62,#61);
#64=CARTESIAN_POINT('',(-2.6E1,6.572949016875E0,0.E0));
#65=DIRECTION('',(0.E0,0.E0,-1.E0));
#66=DIRECTION('',(-1.E0,0.E0,0.E0));
#67=AXIS2_PLACEMENT_3D('',#64,#65,#66);
#69=DIRECTION('',(0.E0,-1.E0,0.E0));
#70=VECTOR('',#69,1.314589803375E1);
#71=CARTESIAN_POINT('',(-2.75E1,6.572949016875E0,0.E0));
#72=LINE('',#71,#70);
#73=CARTESIAN_POINT('',(-2.6E1,-6.572949016875E0,0.E0));
#74=DIRECTION('',(0.E0,0.E0,-1.E0));
#75=DIRECTION('',(-4.472135955E-1,-8.944271909999E-1,0.E0));
#76=AXIS2_PLACEMENT_3D('',#73,#74,#75);
#78=DIRECTION('',(-8.944271909999E-1,4.472135955E-1,0.E0));
#79=VECTOR('',#78,2.107952682562E1);
#80=CARTESIAN_POINT('',(-7.816718427E0,-1.734164078650E1,0.E0));
#81=LINE('',#80,#79);
#82=CARTESIAN_POINT('',(-7.145898033750E0,-1.6E1,0.E0));
#83=DIRECTION('',(0.E0,0.E0,-1.E0));
#84=DIRECTION('',(0.E0,-1.E0,0.E0));
#85=AXIS2_PLACEMENT_3D('',#82,#83,#84);
#87=DIRECTION('',(1.E0,0.E0,0.E0));
#88=VECTOR('',#87,1.314589803375E1);
#89=CARTESIAN_POINT('',(-7.145898033750E0,-1.75E1,0.E0));
#90=LINE('',#89,#88);
#91=CARTESIAN_POINT('',(6.E0,-1.6E1,0.E0));
#92=DIRECTION('',(0.E0,0.E0,-1.E0));
#93=DIRECTION('',(1.E0,0.E0,0.E0));
#94=AXIS2_PLACEMENT_3D('',#91,#92,#93);
#96=DIRECTION('',(0.E0,1.E0,0.E0));
#97=VECTOR('',#96,3.2E1);
#98=CARTESIAN_POINT('',(7.5E0,-1.6E1,0.E0));
#99=LINE('',#98,#97);
#100=DIRECTION('',(0.E0,0.E0,1.E0));
#101=VECTOR('',#100,3.E0);
#102=CARTESIAN_POINT('',(-2.E1,-1.5E0,0.E0));
#103=LINE('',#102,#101);
#104=DIRECTION('',(0.E0,0.E0,1.E0));
#105=VECTOR('',#104,3.E0);
#106=CARTESIAN_POINT('',(-2.E1,1.5E0,0.E0));
#107=LINE('',#106,#105);
#108=CARTESIAN_POINT('',(-2.E1,0.E0,3.E0));
#109=DIRECTION('',(0.E0,0.E0,-1.E0));
#110=DIRECTION('',(0.E0,-1.E0,0.E0));
#111=AXIS2_PLACEMENT_3D('',#108,#109,#110);
#113=CARTESIAN_POINT('',(-2.E1,0.E0,3.E0));
#114=DIRECTION('',(0.E0,0.E0,-1.E0));
#115=DIRECTION('',(0.E0,1.E0,0.E0));
#116=AXIS2_PLACEMENT_3D('',#113,#114,#115);
#118=CARTESIAN_POINT('',(0.E0,0.E0,3.E0));
#119=DIRECTION('',(0.E0,0.E0,-1.E0));
#120=DIRECTION('',(0.E0,-1.E0,0.E0));
#121=AXIS2_PLACEMENT_3D('',#118,#119,#120);
#123=CARTESIAN_POINT('',(0.E0,0.E0,3.E0));
#124=DIRECTION('',(0.E0,0.E0,-1.E0));
#125=DIRECTION('',(0.E0,1.E0,0.E0));
#126=AXIS2_PLACEMENT_3D('',#123,#124,#125);
#128=DIRECTION('',(-8.944271909999E-1,-4.472135955E-1,0.E0));
#129=VECTOR('',#128,6.079526825623E0);
#130=CARTESIAN_POINT('',(-9.670820393250E0,1.306048783713E1,3.E0));
#131=LINE('',#130,#129);
#132=DIRECTION('',(-1.E0,0.E0,0.E0));
#133=VECTOR('',#132,5.437694101251E0);
#134=CARTESIAN_POINT('',(-9.E0,7.5E0,3.E0));
#135=LINE('',#134,#133);
#136=DIRECTION('',(0.E0,-1.E0,0.E0));
#137=VECTOR('',#136,2.718847050625E0);
#138=CARTESIAN_POINT('',(-7.5E0,1.171884705063E1,3.E0));
#139=LINE('',#138,#137);
#140=DIRECTION('',(0.E0,-1.E0,0.E0));
#141=VECTOR('',#140,2.718847050625E0);
#142=CARTESIAN_POINT('',(-7.5E0,-9.E0,3.E0));
#143=LINE('',#142,#141);
#144=DIRECTION('',(1.E0,0.E0,0.E0));
#145=VECTOR('',#144,5.437694101251E0);
#146=CARTESIAN_POINT('',(-1.443769410125E1,-7.5E0,3.E0));
#147=LINE('',#146,#145);
#148=DIRECTION('',(8.944271909999E-1,-4.472135955E-1,0.E0));
#149=VECTOR('',#148,6.079526825623E0);
#150=CARTESIAN_POINT('',(-1.510851449450E1,-1.034164078650E1,3.E0));
#151=LINE('',#150,#149);
#152=CARTESIAN_POINT('',(6.E0,1.6E1,3.E0));
#153=DIRECTION('',(0.E0,0.E0,1.E0));
#154=DIRECTION('',(1.E0,0.E0,0.E0));
#155=AXIS2_PLACEMENT_3D('',#152,#153,#154);
#157=DIRECTION('',(0.E0,1.E0,0.E0));
#158=VECTOR('',#157,3.2E1);
#159=CARTESIAN_POINT('',(7.5E0,-1.6E1,3.E0));
#160=LINE('',#159,#158);
#161=CARTESIAN_POINT('',(6.E0,-1.6E1,3.E0));
#162=DIRECTION('',(0.E0,0.E0,1.E0));
#163=DIRECTION('',(0.E0,-1.E0,0.E0));
#164=AXIS2_PLACEMENT_3D('',#161,#162,#163);
#166=DIRECTION('',(1.E0,0.E0,0.E0));
#167=VECTOR('',#166,1.314589803375E1);
#168=CARTESIAN_POINT('',(-7.145898033750E0,-1.75E1,3.E0));
#169=LINE('',#168,#167);
#170=CARTESIAN_POINT('',(-7.145898033750E0,-1.6E1,3.E0));
#171=DIRECTION('',(0.E0,0.E0,1.E0));
#172=DIRECTION('',(-4.472135955E-1,-8.944271909999E-1,0.E0));
#173=AXIS2_PLACEMENT_3D('',#170,#171,#172);
#175=DIRECTION('',(-8.944271909999E-1,4.472135955E-1,0.E0));
#176=VECTOR('',#175,2.107952682562E1);
#177=CARTESIAN_POINT('',(-7.816718427E0,-1.734164078650E1,3.E0));
#178=LINE('',#177,#176);
#179=CARTESIAN_POINT('',(-2.6E1,-6.572949016875E0,3.E0));
#180=DIRECTION('',(0.E0,0.E0,1.E0));
#181=DIRECTION('',(-1.E0,0.E0,0.E0));
#182=AXIS2_PLACEMENT_3D('',#179,#180,#181);
#184=DIRECTION('',(0.E0,-1.E0,0.E0));
#185=VECTOR('',#184,1.314589803375E1);
#186=CARTESIAN_POINT('',(-2.75E1,6.572949016875E0,3.E0));
#187=LINE('',#186,#185);
#188=CARTESIAN_POINT('',(-2.6E1,6.572949016875E0,3.E0));
#189=DIRECTION('',(0.E0,0.E0,1.E0));
#190=DIRECTION('',(-4.472135955E-1,8.944271909999E-1,0.E0));
#191=AXIS2_PLACEMENT_3D('',#188,#189,#190);
#193=DIRECTION('',(8.944271909999E-1,4.472135955E-1,0.E0));
#194=VECTOR('',#193,2.107952682562E1);
#195=CARTESIAN_POINT('',(-2.667082039325E1,7.914589803375E0,3.E0));
#196=LINE('',#195,#194);
#197=CARTESIAN_POINT('',(-7.145898033750E0,1.6E1,3.E0));
#198=DIRECTION('',(0.E0,0.E0,1.E0));
#199=DIRECTION('',(0.E0,1.E0,0.E0));
#200=AXIS2_PLACEMENT_3D('',#197,#198,#199);
#202=DIRECTION('',(-1.E0,0.E0,0.E0));
#203=VECTOR('',#202,1.314589803375E1);
#204=CARTESIAN_POINT('',(6.E0,1.75E1,3.E0));
#205=LINE('',#204,#203);
#206=DIRECTION('',(0.E0,0.E0,1.E0));
#207=VECTOR('',#206,3.E0);
#208=CARTESIAN_POINT('',(0.E0,-1.5E0,0.E0));
#209=LINE('',#208,#207);
#210=DIRECTION('',(0.E0,0.E0,1.E0));
#211=VECTOR('',#210,3.E0);
#212=CARTESIAN_POINT('',(0.E0,1.5E0,0.E0));
#213=LINE('',#212,#211);
#214=DIRECTION('',(0.E0,0.E0,-1.E0));
#215=VECTOR('',#214,3.E0);
#216=CARTESIAN_POINT('',(-1.510851449450E1,1.034164078650E1,3.E0));
#217=LINE('',#216,#215);
#218=DIRECTION('',(0.E0,0.E0,1.E0));
#219=VECTOR('',#218,3.E0);
#220=CARTESIAN_POINT('',(-9.670820393250E0,1.306048783713E1,0.E0));
#221=LINE('',#220,#219);
#222=CARTESIAN_POINT('',(-1.443769410125E1,9.E0,3.E0));
#223=DIRECTION('',(0.E0,0.E0,-1.E0));
#224=DIRECTION('',(0.E0,-1.E0,0.E0));
#225=AXIS2_PLACEMENT_3D('',#222,#223,#224);
#227=CARTESIAN_POINT('',(-1.443769410125E1,9.E0,0.E0));
#228=DIRECTION('',(0.E0,0.E0,1.E0));
#229=DIRECTION('',(-4.472135955E-1,8.944271909999E-1,0.E0));
#230=AXIS2_PLACEMENT_3D('',#227,#228,#229);
#232=DIRECTION('',(0.E0,0.E0,1.E0));
#233=VECTOR('',#232,3.E0);
#234=CARTESIAN_POINT('',(-9.E0,7.5E0,0.E0));
#235=LINE('',#234,#233);
#236=DIRECTION('',(0.E0,0.E0,-1.E0));
#237=VECTOR('',#236,3.E0);
#238=CARTESIAN_POINT('',(-1.443769410125E1,7.5E0,3.E0));
#239=LINE('',#238,#237);
#240=CARTESIAN_POINT('',(-9.E0,9.E0,0.E0));
#241=DIRECTION('',(0.E0,0.E0,1.E0));
#242=DIRECTION('',(0.E0,-1.E0,0.E0));
#243=AXIS2_PLACEMENT_3D('',#240,#241,#242);
#245=CARTESIAN_POINT('',(-9.E0,9.E0,3.E0));
#246=DIRECTION('',(0.E0,0.E0,-1.E0));
#247=DIRECTION('',(1.E0,0.E0,0.E0));
#248=AXIS2_PLACEMENT_3D('',#245,#246,#247);
#250=DIRECTION('',(0.E0,0.E0,1.E0));
#251=VECTOR('',#250,3.E0);
#252=CARTESIAN_POINT('',(-7.5E0,9.E0,0.E0));
#253=LINE('',#252,#251);
#254=DIRECTION('',(0.E0,0.E0,1.E0));
#255=VECTOR('',#254,3.E0);
#256=CARTESIAN_POINT('',(-7.5E0,1.171884705063E1,0.E0));
#257=LINE('',#256,#255);
#258=CARTESIAN_POINT('',(-9.E0,1.171884705063E1,0.E0));
#259=DIRECTION('',(0.E0,0.E0,1.E0));
#260=DIRECTION('',(1.E0,0.E0,0.E0));
#261=AXIS2_PLACEMENT_3D('',#258,#259,#260);
#263=CARTESIAN_POINT('',(-9.E0,1.171884705063E1,3.E0));
#264=DIRECTION('',(0.E0,0.E0,-1.E0));
#265=DIRECTION('',(-4.472135955E-1,8.944271909999E-1,0.E0));
#266=AXIS2_PLACEMENT_3D('',#263,#264,#265);
#268=DIRECTION('',(0.E0,0.E0,1.E0));
#269=VECTOR('',#268,3.E0);
#270=CARTESIAN_POINT('',(-7.5E0,-9.E0,0.E0));
#271=LINE('',#270,#269);
#272=DIRECTION('',(0.E0,0.E0,-1.E0));
#273=VECTOR('',#272,3.E0);
#274=CARTESIAN_POINT('',(-7.5E0,-1.171884705063E1,3.E0));
#275=LINE('',#274,#273);
#276=CARTESIAN_POINT('',(-9.E0,-9.E0,0.E0));
#277=DIRECTION('',(0.E0,0.E0,1.E0));
#278=DIRECTION('',(1.E0,0.E0,0.E0));
#279=AXIS2_PLACEMENT_3D('',#276,#277,#278);
#281=CARTESIAN_POINT('',(-9.E0,-9.E0,3.E0));
#282=DIRECTION('',(0.E0,0.E0,-1.E0));
#283=DIRECTION('',(0.E0,1.E0,0.E0));
#284=AXIS2_PLACEMENT_3D('',#281,#282,#283);
#286=DIRECTION('',(0.E0,0.E0,1.E0));
#287=VECTOR('',#286,3.E0);
#288=CARTESIAN_POINT('',(-9.E0,-7.5E0,0.E0));
#289=LINE('',#288,#287);
#290=DIRECTION('',(0.E0,0.E0,1.E0));
#291=VECTOR('',#290,3.E0);
#292=CARTESIAN_POINT('',(-1.443769410125E1,-7.5E0,0.E0));
#293=LINE('',#292,#291);
#294=CARTESIAN_POINT('',(-1.443769410125E1,-9.E0,0.E0));
#295=DIRECTION('',(0.E0,0.E0,1.E0));
#296=DIRECTION('',(0.E0,1.E0,0.E0));
#297=AXIS2_PLACEMENT_3D('',#294,#295,#296);
#299=CARTESIAN_POINT('',(-1.443769410125E1,-9.E0,3.E0));
#300=DIRECTION('',(0.E0,0.E0,-1.E0));
#301=DIRECTION('',(-4.472135955E-1,-8.944271909999E-1,0.E0));
#302=AXIS2_PLACEMENT_3D('',#299,#300,#301);
#304=DIRECTION('',(0.E0,0.E0,-1.E0));
#305=VECTOR('',#304,3.E0);
#306=CARTESIAN_POINT('',(-9.670820393250E0,-1.306048783713E1,3.E0));
#307=LINE('',#306,#305);
#308=DIRECTION('',(0.E0,0.E0,1.E0));
#309=VECTOR('',#308,3.E0);
#310=CARTESIAN_POINT('',(-1.510851449450E1,-1.034164078650E1,0.E0));
#311=LINE('',#310,#309);
#312=CARTESIAN_POINT('',(-9.E0,-1.171884705063E1,3.E0));
#313=DIRECTION('',(0.E0,0.E0,-1.E0));
#314=DIRECTION('',(1.E0,0.E0,0.E0));
#315=AXIS2_PLACEMENT_3D('',#312,#313,#314);
#317=CARTESIAN_POINT('',(-9.E0,-1.171884705063E1,0.E0));
#318=DIRECTION('',(0.E0,0.E0,1.E0));
#319=DIRECTION('',(-4.472135955E-1,-8.944271909999E-1,0.E0));
#320=AXIS2_PLACEMENT_3D('',#317,#318,#319);
#322=DIRECTION('',(0.E0,0.E0,-1.E0));
#323=VECTOR('',#322,3.E0);
#324=CARTESIAN_POINT('',(7.5E0,1.6E1,3.E0));
#325=LINE('',#324,#323);
#326=DIRECTION('',(0.E0,0.E0,-1.E0));
#327=VECTOR('',#326,3.E0);
#328=CARTESIAN_POINT('',(7.5E0,-1.6E1,3.E0));
#329=LINE('',#328,#327);
#330=DIRECTION('',(0.E0,0.E0,-1.E0));
#331=VECTOR('',#330,3.E0);
#332=CARTESIAN_POINT('',(6.E0,-1.75E1,3.E0));
#333=LINE('',#332,#331);
#334=DIRECTION('',(0.E0,0.E0,-1.E0));
#335=VECTOR('',#334,3.E0);
#336=CARTESIAN_POINT('',(-7.145898033750E0,-1.75E1,3.E0));
#337=LINE('',#336,#335);
#338=DIRECTION('',(0.E0,0.E0,-1.E0));
#339=VECTOR('',#338,3.E0);
#340=CARTESIAN_POINT('',(-7.816718427E0,-1.734164078650E1,3.E0));
#341=LINE('',#340,#339);
#342=DIRECTION('',(0.E0,0.E0,1.E0));
#343=VECTOR('',#342,3.E0);
#344=CARTESIAN_POINT('',(-2.667082039325E1,-7.914589803375E0,0.E0));
#345=LINE('',#344,#343);
#346=DIRECTION('',(0.E0,0.E0,-1.E0));
#347=VECTOR('',#346,3.E0);
#348=CARTESIAN_POINT('',(-2.75E1,6.572949016875E0,3.E0));
#349=LINE('',#348,#347);
#350=DIRECTION('',(0.E0,0.E0,1.E0));
#351=VECTOR('',#350,3.E0);
#352=CARTESIAN_POINT('',(-2.75E1,-6.572949016875E0,0.E0));
#353=LINE('',#352,#351);
#354=DIRECTION('',(0.E0,0.E0,-1.E0));
#355=VECTOR('',#354,3.E0);
#356=CARTESIAN_POINT('',(-2.667082039325E1,7.914589803375E0,3.E0));
#357=LINE('',#356,#355);
#358=DIRECTION('',(0.E0,0.E0,1.E0));
#359=VECTOR('',#358,3.E0);
#360=CARTESIAN_POINT('',(-7.816718427E0,1.734164078650E1,0.E0));
#361=LINE('',#360,#359);
#362=DIRECTION('',(0.E0,0.E0,-1.E0));
#363=VECTOR('',#362,3.E0);
#364=CARTESIAN_POINT('',(6.E0,1.75E1,3.E0));
#365=LINE('',#364,#363);
#366=DIRECTION('',(0.E0,0.E0,1.E0));
#367=VECTOR('',#366,3.E0);
#368=CARTESIAN_POINT('',(-7.145898033750E0,1.75E1,0.E0));
#369=LINE('',#368,#367);
#370=CARTESIAN_POINT('',(-2.E1,-1.5E0,0.E0));
#371=CARTESIAN_POINT('',(-2.E1,1.5E0,0.E0));
#372=VERTEX_POINT('',#370);
#373=VERTEX_POINT('',#371);
#374=CARTESIAN_POINT('',(-2.E1,-1.5E0,3.E0));
#375=CARTESIAN_POINT('',(-2.E1,1.5E0,3.E0));
#376=VERTEX_POINT('',#374);
#377=VERTEX_POINT('',#375);
#378=CARTESIAN_POINT('',(-9.E0,7.5E0,0.E0));
#379=CARTESIAN_POINT('',(-9.E0,7.5E0,3.E0));
#380=VERTEX_POINT('',#378);
#381=VERTEX_POINT('',#379);
#382=CARTESIAN_POINT('',(-7.5E0,9.E0,0.E0));
#383=CARTESIAN_POINT('',(-7.5E0,9.E0,3.E0));
#384=VERTEX_POINT('',#382);
#385=VERTEX_POINT('',#383);
#386=CARTESIAN_POINT('',(-7.5E0,-9.E0,0.E0));
#387=CARTESIAN_POINT('',(-7.5E0,-9.E0,3.E0));
#388=VERTEX_POINT('',#386);
#389=VERTEX_POINT('',#387);
#390=CARTESIAN_POINT('',(-9.E0,-7.5E0,0.E0));
#391=CARTESIAN_POINT('',(-9.E0,-7.5E0,3.E0));
#392=VERTEX_POINT('',#390);
#393=VERTEX_POINT('',#391);
#394=CARTESIAN_POINT('',(-1.443769410125E1,7.5E0,3.E0));
#395=CARTESIAN_POINT('',(-1.443769410125E1,7.5E0,0.E0));
#396=VERTEX_POINT('',#394);
#397=VERTEX_POINT('',#395);
#398=CARTESIAN_POINT('',(-1.510851449450E1,1.034164078650E1,3.E0));
#399=CARTESIAN_POINT('',(-1.510851449450E1,1.034164078650E1,0.E0));
#400=VERTEX_POINT('',#398);
#401=VERTEX_POINT('',#399);
#402=CARTESIAN_POINT('',(-7.5E0,1.171884705063E1,0.E0));
#403=CARTESIAN_POINT('',(-7.5E0,1.171884705063E1,3.E0));
#404=VERTEX_POINT('',#402);
#405=VERTEX_POINT('',#403);
#406=CARTESIAN_POINT('',(-9.670820393250E0,1.306048783713E1,0.E0));
#407=CARTESIAN_POINT('',(-9.670820393250E0,1.306048783713E1,3.E0));
#408=VERTEX_POINT('',#406);
#409=VERTEX_POINT('',#407);
#410=CARTESIAN_POINT('',(-7.5E0,-1.171884705063E1,3.E0));
#411=CARTESIAN_POINT('',(-7.5E0,-1.171884705063E1,0.E0));
#412=VERTEX_POINT('',#410);
#413=VERTEX_POINT('',#411);
#414=CARTESIAN_POINT('',(-9.670820393250E0,-1.306048783713E1,3.E0));
#415=CARTESIAN_POINT('',(-9.670820393250E0,-1.306048783713E1,0.E0));
#416=VERTEX_POINT('',#414);
#417=VERTEX_POINT('',#415);
#418=CARTESIAN_POINT('',(-1.443769410125E1,-7.5E0,0.E0));
#419=CARTESIAN_POINT('',(-1.443769410125E1,-7.5E0,3.E0));
#420=VERTEX_POINT('',#418);
#421=VERTEX_POINT('',#419);
#422=CARTESIAN_POINT('',(-1.510851449450E1,-1.034164078650E1,0.E0));
#423=CARTESIAN_POINT('',(-1.510851449450E1,-1.034164078650E1,3.E0));
#424=VERTEX_POINT('',#422);
#425=VERTEX_POINT('',#423);
#426=CARTESIAN_POINT('',(6.E0,1.75E1,0.E0));
#427=CARTESIAN_POINT('',(7.5E0,1.6E1,0.E0));
#428=VERTEX_POINT('',#426);
#429=VERTEX_POINT('',#427);
#430=CARTESIAN_POINT('',(7.5E0,1.6E1,3.E0));
#431=VERTEX_POINT('',#430);
#432=CARTESIAN_POINT('',(6.E0,1.75E1,3.E0));
#433=VERTEX_POINT('',#432);
#434=CARTESIAN_POINT('',(7.5E0,-1.6E1,0.E0));
#435=CARTESIAN_POINT('',(6.E0,-1.75E1,0.E0));
#436=VERTEX_POINT('',#434);
#437=VERTEX_POINT('',#435);
#438=CARTESIAN_POINT('',(6.E0,-1.75E1,3.E0));
#439=VERTEX_POINT('',#438);
#440=CARTESIAN_POINT('',(7.5E0,-1.6E1,3.E0));
#441=VERTEX_POINT('',#440);
#442=CARTESIAN_POINT('',(-2.75E1,6.572949016875E0,0.E0));
#443=CARTESIAN_POINT('',(-2.667082039325E1,7.914589803375E0,0.E0));
#444=VERTEX_POINT('',#442);
#445=VERTEX_POINT('',#443);
#446=CARTESIAN_POINT('',(-2.667082039325E1,7.914589803375E0,3.E0));
#447=VERTEX_POINT('',#446);
#448=CARTESIAN_POINT('',(-2.75E1,6.572949016875E0,3.E0));
#449=VERTEX_POINT('',#448);
#450=CARTESIAN_POINT('',(-7.145898033750E0,1.75E1,3.E0));
#451=CARTESIAN_POINT('',(-7.816718427E0,1.734164078650E1,3.E0));
#452=VERTEX_POINT('',#450);
#453=VERTEX_POINT('',#451);
#454=CARTESIAN_POINT('',(-7.816718427E0,1.734164078650E1,0.E0));
#455=VERTEX_POINT('',#454);
#456=CARTESIAN_POINT('',(-7.145898033750E0,1.75E1,0.E0));
#457=VERTEX_POINT('',#456);
#458=CARTESIAN_POINT('',(-7.145898033750E0,-1.75E1,0.E0));
#459=CARTESIAN_POINT('',(-7.816718427E0,-1.734164078650E1,0.E0));
#460=VERTEX_POINT('',#458);
#461=VERTEX_POINT('',#459);
#462=CARTESIAN_POINT('',(-7.816718427E0,-1.734164078650E1,3.E0));
#463=VERTEX_POINT('',#462);
#464=CARTESIAN_POINT('',(-7.145898033750E0,-1.75E1,3.E0));
#465=VERTEX_POINT('',#464);
#466=CARTESIAN_POINT('',(-2.75E1,-6.572949016875E0,3.E0));
#467=CARTESIAN_POINT('',(-2.667082039325E1,-7.914589803375E0,3.E0));
#468=VERTEX_POINT('',#466);
#469=VERTEX_POINT('',#467);
#470=CARTESIAN_POINT('',(-2.667082039325E1,-7.914589803375E0,0.E0));
#471=VERTEX_POINT('',#470);
#472=CARTESIAN_POINT('',(-2.75E1,-6.572949016875E0,0.E0));
#473=VERTEX_POINT('',#472);
#474=CARTESIAN_POINT('',(0.E0,-1.5E0,0.E0));
#475=CARTESIAN_POINT('',(0.E0,1.5E0,0.E0));
#476=VERTEX_POINT('',#474);
#477=VERTEX_POINT('',#475);
#478=CARTESIAN_POINT('',(0.E0,-1.5E0,3.E0));
#479=CARTESIAN_POINT('',(0.E0,1.5E0,3.E0));
#480=VERTEX_POINT('',#478);
#481=VERTEX_POINT('',#479);
#482=CARTESIAN_POINT('',(0.E0,0.E0,0.E0));
#483=DIRECTION('',(0.E0,0.E0,1.E0));
#484=DIRECTION('',(0.E0,1.E0,0.E0));
#485=AXIS2_PLACEMENT_3D('',#482,#483,#484);
#486=PLANE('',#485);
#488=ORIENTED_EDGE('',*,*,#487,.F.);
#490=ORIENTED_EDGE('',*,*,#489,.T.);
#492=ORIENTED_EDGE('',*,*,#491,.F.);
#494=ORIENTED_EDGE('',*,*,#493,.F.);
#496=ORIENTED_EDGE('',*,*,#495,.F.);
#498=ORIENTED_EDGE('',*,*,#497,.T.);
#500=ORIENTED_EDGE('',*,*,#499,.F.);
#502=ORIENTED_EDGE('',*,*,#501,.F.);
#504=ORIENTED_EDGE('',*,*,#503,.F.);
#506=ORIENTED_EDGE('',*,*,#505,.T.);
#508=ORIENTED_EDGE('',*,*,#507,.F.);
#510=ORIENTED_EDGE('',*,*,#509,.T.);
#511=EDGE_LOOP('',(#488,#490,#492,#494,#496,#498,#500,#502,#504,#506,#508,
#510));
#512=FACE_OUTER_BOUND('',#511,.F.);
#514=ORIENTED_EDGE('',*,*,#513,.T.);
#516=ORIENTED_EDGE('',*,*,#515,.T.);
#517=EDGE_LOOP('',(#514,#516));
#518=FACE_BOUND('',#517,.F.);
#520=ORIENTED_EDGE('',*,*,#519,.T.);
#522=ORIENTED_EDGE('',*,*,#521,.F.);
#524=ORIENTED_EDGE('',*,*,#523,.F.);
#526=ORIENTED_EDGE('',*,*,#525,.F.);
#528=ORIENTED_EDGE('',*,*,#527,.T.);
#530=ORIENTED_EDGE('',*,*,#529,.F.);
#531=EDGE_LOOP('',(#520,#522,#524,#526,#528,#530));
#532=FACE_BOUND('',#531,.F.);
#534=ORIENTED_EDGE('',*,*,#533,.T.);
#536=ORIENTED_EDGE('',*,*,#535,.F.);
#538=ORIENTED_EDGE('',*,*,#537,.T.);
#540=ORIENTED_EDGE('',*,*,#539,.F.);
#542=ORIENTED_EDGE('',*,*,#541,.F.);
#544=ORIENTED_EDGE('',*,*,#543,.F.);
#545=EDGE_LOOP('',(#534,#536,#538,#540,#542,#544));
#546=FACE_BOUND('',#545,.F.);
#548=ORIENTED_EDGE('',*,*,#547,.T.);
#550=ORIENTED_EDGE('',*,*,#549,.T.);
#551=EDGE_LOOP('',(#548,#550));
#552=FACE_BOUND('',#551,.F.);
#553=ADVANCED_FACE('',(#512,#518,#532,#546,#552),#486,.F.);
#554=CARTESIAN_POINT('',(-2.E1,0.E0,0.E0));
#555=DIRECTION('',(0.E0,0.E0,-1.E0));
#556=DIRECTION('',(0.E0,-1.E0,0.E0));
#557=AXIS2_PLACEMENT_3D('',#554,#555,#556);
#558=CYLINDRICAL_SURFACE('',#557,1.5E0);
#559=ORIENTED_EDGE('',*,*,#547,.F.);
#561=ORIENTED_EDGE('',*,*,#560,.T.);
#563=ORIENTED_EDGE('',*,*,#562,.T.);
#565=ORIENTED_EDGE('',*,*,#564,.F.);
#566=EDGE_LOOP('',(#559,#561,#563,#565));
#567=FACE_OUTER_BOUND('',#566,.F.);
#568=ADVANCED_FACE('',(#567),#558,.F.);
#569=CARTESIAN_POINT('',(-2.E1,0.E0,0.E0));
#570=DIRECTION('',(0.E0,0.E0,-1.E0));
#571=DIRECTION('',(0.E0,-1.E0,0.E0));
#572=AXIS2_PLACEMENT_3D('',#569,#570,#571);
#573=CYLINDRICAL_SURFACE('',#572,1.5E0);
#574=ORIENTED_EDGE('',*,*,#549,.F.);
#575=ORIENTED_EDGE('',*,*,#564,.T.);
#577=ORIENTED_EDGE('',*,*,#576,.T.);
#578=ORIENTED_EDGE('',*,*,#560,.F.);
#579=EDGE_LOOP('',(#574,#575,#577,#578));
#580=FACE_OUTER_BOUND('',#579,.F.);
#581=ADVANCED_FACE('',(#580),#573,.F.);
#582=CARTESIAN_POINT('',(0.E0,0.E0,3.E0));
#583=DIRECTION('',(0.E0,0.E0,1.E0));
#584=DIRECTION('',(0.E0,1.E0,0.E0));
#585=AXIS2_PLACEMENT_3D('',#582,#583,#584);
#586=PLANE('',#585);
#588=ORIENTED_EDGE('',*,*,#587,.F.);
#590=ORIENTED_EDGE('',*,*,#589,.F.);
#592=ORIENTED_EDGE('',*,*,#591,.F.);
#594=ORIENTED_EDGE('',*,*,#593,.F.);
#596=ORIENTED_EDGE('',*,*,#595,.F.);
#598=ORIENTED_EDGE('',*,*,#597,.T.);
#600=ORIENTED_EDGE('',*,*,#599,.F.);
#602=ORIENTED_EDGE('',*,*,#601,.F.);
#604=ORIENTED_EDGE('',*,*,#603,.F.);
#606=ORIENTED_EDGE('',*,*,#605,.T.);
#608=ORIENTED_EDGE('',*,*,#607,.F.);
#610=ORIENTED_EDGE('',*,*,#609,.F.);
#611=EDGE_LOOP('',(#588,#590,#592,#594,#596,#598,#600,#602,#604,#606,#608,
#610));
#612=FACE_OUTER_BOUND('',#611,.F.);
#614=ORIENTED_EDGE('',*,*,#613,.F.);
#616=ORIENTED_EDGE('',*,*,#615,.F.);
#617=EDGE_LOOP('',(#614,#616));
#618=FACE_BOUND('',#617,.F.);
#620=ORIENTED_EDGE('',*,*,#619,.T.);
#622=ORIENTED_EDGE('',*,*,#621,.F.);
#624=ORIENTED_EDGE('',*,*,#623,.F.);
#626=ORIENTED_EDGE('',*,*,#625,.F.);
#628=ORIENTED_EDGE('',*,*,#627,.F.);
#630=ORIENTED_EDGE('',*,*,#629,.F.);
#631=EDGE_LOOP('',(#620,#622,#624,#626,#628,#630));
#632=FACE_BOUND('',#631,.F.);
#634=ORIENTED_EDGE('',*,*,#633,.F.);
#636=ORIENTED_EDGE('',*,*,#635,.F.);
#638=ORIENTED_EDGE('',*,*,#637,.F.);
#640=ORIENTED_EDGE('',*,*,#639,.F.);
#642=ORIENTED_EDGE('',*,*,#641,.T.);
#644=ORIENTED_EDGE('',*,*,#643,.F.);
#645=EDGE_LOOP('',(#634,#636,#638,#640,#642,#644));
#646=FACE_BOUND('',#645,.F.);
#647=ORIENTED_EDGE('',*,*,#562,.F.);
#648=ORIENTED_EDGE('',*,*,#576,.F.);
#649=EDGE_LOOP('',(#647,#648));
#650=FACE_BOUND('',#649,.F.);
#651=ADVANCED_FACE('',(#612,#618,#632,#646,#650),#586,.T.);
#652=CARTESIAN_POINT('',(0.E0,0.E0,0.E0));
#653=DIRECTION('',(0.E0,0.E0,-1.E0));
#654=DIRECTION('',(0.E0,-1.E0,0.E0));
#655=AXIS2_PLACEMENT_3D('',#652,#653,#654);
#656=CYLINDRICAL_SURFACE('',#655,1.5E0);
#657=ORIENTED_EDGE('',*,*,#513,.F.);
#659=ORIENTED_EDGE('',*,*,#658,.T.);
#660=ORIENTED_EDGE('',*,*,#613,.T.);
#662=ORIENTED_EDGE('',*,*,#661,.F.);
#663=EDGE_LOOP('',(#657,#659,#660,#662));
#664=FACE_OUTER_BOUND('',#663,.F.);
#665=ADVANCED_FACE('',(#664),#656,.F.);
#666=CARTESIAN_POINT('',(0.E0,0.E0,0.E0));
#667=DIRECTION('',(0.E0,0.E0,-1.E0));
#668=DIRECTION('',(0.E0,-1.E0,0.E0));
#669=AXIS2_PLACEMENT_3D('',#666,#667,#668);
#670=CYLINDRICAL_SURFACE('',#669,1.5E0);
#671=ORIENTED_EDGE('',*,*,#515,.F.);
#672=ORIENTED_EDGE('',*,*,#661,.T.);
#673=ORIENTED_EDGE('',*,*,#615,.T.);
#674=ORIENTED_EDGE('',*,*,#658,.F.);
#675=EDGE_LOOP('',(#671,#672,#673,#674));
#676=FACE_OUTER_BOUND('',#675,.F.);
#677=ADVANCED_FACE('',(#676),#670,.F.);
#678=CARTESIAN_POINT('',(-7.5E0,1.414589803375E1,0.E0));
#679=DIRECTION('',(4.472135955E-1,-8.944271909999E-1,0.E0));
#680=DIRECTION('',(-8.944271909999E-1,-4.472135955E-1,0.E0));
#681=AXIS2_PLACEMENT_3D('',#678,#679,#680);
#682=PLANE('',#681);
#684=ORIENTED_EDGE('',*,*,#683,.F.);
#685=ORIENTED_EDGE('',*,*,#619,.F.);
#687=ORIENTED_EDGE('',*,*,#686,.F.);
#688=ORIENTED_EDGE('',*,*,#523,.T.);
#689=EDGE_LOOP('',(#684,#685,#687,#688));
#690=FACE_OUTER_BOUND('',#689,.F.);
#691=ADVANCED_FACE('',(#690),#682,.T.);
#692=CARTESIAN_POINT('',(-1.443769410125E1,9.E0,6.9108E0));
#693=DIRECTION('',(0.E0,0.E0,-1.E0));
#694=DIRECTION('',(0.E0,-1.E0,0.E0));
#695=AXIS2_PLACEMENT_3D('',#692,#693,#694);
#696=CYLINDRICAL_SURFACE('',#695,1.5E0);
#698=ORIENTED_EDGE('',*,*,#697,.F.);
#699=ORIENTED_EDGE('',*,*,#621,.T.);
#700=ORIENTED_EDGE('',*,*,#683,.T.);
#701=ORIENTED_EDGE('',*,*,#521,.T.);
#702=EDGE_LOOP('',(#698,#699,#700,#701));
#703=FACE_OUTER_BOUND('',#702,.F.);
#704=ADVANCED_FACE('',(#703),#696,.F.);
#705=CARTESIAN_POINT('',(-7.5E0,7.5E0,0.E0));
#706=DIRECTION('',(0.E0,1.E0,0.E0));
#707=DIRECTION('',(-1.E0,0.E0,0.E0));
#708=AXIS2_PLACEMENT_3D('',#705,#706,#707);
#709=PLANE('',#708);
#711=ORIENTED_EDGE('',*,*,#710,.T.);
#712=ORIENTED_EDGE('',*,*,#623,.T.);
#713=ORIENTED_EDGE('',*,*,#697,.T.);
#714=ORIENTED_EDGE('',*,*,#519,.F.);
#715=EDGE_LOOP('',(#711,#712,#713,#714));
#716=FACE_OUTER_BOUND('',#715,.F.);
#717=ADVANCED_FACE('',(#716),#709,.T.);
#718=CARTESIAN_POINT('',(-9.E0,9.E0,-3.9108E0));
#719=DIRECTION('',(0.E0,0.E0,1.E0));
#720=DIRECTION('',(0.E0,-1.E0,0.E0));
#721=AXIS2_PLACEMENT_3D('',#718,#719,#720);
#722=CYLINDRICAL_SURFACE('',#721,1.5E0);
#723=ORIENTED_EDGE('',*,*,#710,.F.);
#724=ORIENTED_EDGE('',*,*,#529,.T.);
#726=ORIENTED_EDGE('',*,*,#725,.T.);
#727=ORIENTED_EDGE('',*,*,#625,.T.);
#728=EDGE_LOOP('',(#723,#724,#726,#727));
#729=FACE_OUTER_BOUND('',#728,.F.);
#730=ADVANCED_FACE('',(#729),#722,.F.);
#731=CARTESIAN_POINT('',(-7.5E0,1.75E1,0.E0));
#732=DIRECTION('',(-1.E0,0.E0,0.E0));
#733=DIRECTION('',(0.E0,-1.E0,0.E0));
#734=AXIS2_PLACEMENT_3D('',#731,#732,#733);
#735=PLANE('',#734);
#736=ORIENTED_EDGE('',*,*,#725,.F.);
#737=ORIENTED_EDGE('',*,*,#527,.F.);
#739=ORIENTED_EDGE('',*,*,#738,.T.);
#740=ORIENTED_EDGE('',*,*,#627,.T.);
#741=EDGE_LOOP('',(#736,#737,#739,#740));
#742=FACE_OUTER_BOUND('',#741,.F.);
#743=ADVANCED_FACE('',(#742),#735,.T.);
#744=CARTESIAN_POINT('',(-9.E0,1.171884705063E1,-3.9108E0));
#745=DIRECTION('',(0.E0,0.E0,1.E0));
#746=DIRECTION('',(1.E0,0.E0,0.E0));
#747=AXIS2_PLACEMENT_3D('',#744,#745,#746);
#748=CYLINDRICAL_SURFACE('',#747,1.5E0);
#749=ORIENTED_EDGE('',*,*,#738,.F.);
#750=ORIENTED_EDGE('',*,*,#525,.T.);
#751=ORIENTED_EDGE('',*,*,#686,.T.);
#752=ORIENTED_EDGE('',*,*,#629,.T.);
#753=EDGE_LOOP('',(#749,#750,#751,#752));
#754=FACE_OUTER_BOUND('',#753,.F.);
#755=ADVANCED_FACE('',(#754),#748,.F.);
#756=CARTESIAN_POINT('',(-7.5E0,-7.5E0,0.E0));
#757=DIRECTION('',(-1.E0,0.E0,0.E0));
#758=DIRECTION('',(0.E0,-1.E0,0.E0));
#759=AXIS2_PLACEMENT_3D('',#756,#757,#758);
#760=PLANE('',#759);
#762=ORIENTED_EDGE('',*,*,#761,.T.);
#763=ORIENTED_EDGE('',*,*,#633,.T.);
#765=ORIENTED_EDGE('',*,*,#764,.T.);
#766=ORIENTED_EDGE('',*,*,#537,.F.);
#767=EDGE_LOOP('',(#762,#763,#765,#766));
#768=FACE_OUTER_BOUND('',#767,.F.);
#769=ADVANCED_FACE('',(#768),#760,.T.);
#770=CARTESIAN_POINT('',(-9.E0,-9.E0,-3.9108E0));
#771=DIRECTION('',(0.E0,0.E0,1.E0));
#772=DIRECTION('',(1.E0,0.E0,0.E0));
#773=AXIS2_PLACEMENT_3D('',#770,#771,#772);
#774=CYLINDRICAL_SURFACE('',#773,1.5E0);
#775=ORIENTED_EDGE('',*,*,#761,.F.);
#776=ORIENTED_EDGE('',*,*,#535,.T.);
#778=ORIENTED_EDGE('',*,*,#777,.T.);
#779=ORIENTED_EDGE('',*,*,#635,.T.);
#780=EDGE_LOOP('',(#775,#776,#778,#779));
#781=FACE_OUTER_BOUND('',#780,.F.);
#782=ADVANCED_FACE('',(#781),#774,.F.);
#783=CARTESIAN_POINT('',(-2.75E1,-7.5E0,0.E0));
#784=DIRECTION('',(0.E0,-1.E0,0.E0));
#785=DIRECTION('',(1.E0,0.E0,0.E0));
#786=AXIS2_PLACEMENT_3D('',#783,#784,#785);
#787=PLANE('',#786);
#788=ORIENTED_EDGE('',*,*,#777,.F.);
#789=ORIENTED_EDGE('',*,*,#533,.F.);
#791=ORIENTED_EDGE('',*,*,#790,.T.);
#792=ORIENTED_EDGE('',*,*,#637,.T.);
#793=EDGE_LOOP('',(#788,#789,#791,#792));
#794=FACE_OUTER_BOUND('',#793,.F.);
#795=ADVANCED_FACE('',(#794),#787,.T.);
#796=CARTESIAN_POINT('',(-1.443769410125E1,-9.E0,-3.9108E0));
#797=DIRECTION('',(0.E0,0.E0,1.E0));
#798=DIRECTION('',(0.E0,1.E0,0.E0));
#799=AXIS2_PLACEMENT_3D('',#796,#797,#798);
#800=CYLINDRICAL_SURFACE('',#799,1.5E0);
#801=ORIENTED_EDGE('',*,*,#790,.F.);
#802=ORIENTED_EDGE('',*,*,#543,.T.);
#804=ORIENTED_EDGE('',*,*,#803,.T.);
#805=ORIENTED_EDGE('',*,*,#639,.T.);
#806=EDGE_LOOP('',(#801,#802,#804,#805));
#807=FACE_OUTER_BOUND('',#806,.F.);
#808=ADVANCED_FACE('',(#807),#800,.F.);
#809=CARTESIAN_POINT('',(-2.079179606750E1,-7.5E0,0.E0));
#810=DIRECTION('',(4.472135955E-1,8.944271909999E-1,0.E0));
#811=DIRECTION('',(8.944271909999E-1,-4.472135955E-1,0.E0));
#812=AXIS2_PLACEMENT_3D('',#809,#810,#811);
#813=PLANE('',#812);
#815=ORIENTED_EDGE('',*,*,#814,.F.);
#816=ORIENTED_EDGE('',*,*,#641,.F.);
#817=ORIENTED_EDGE('',*,*,#803,.F.);
#818=ORIENTED_EDGE('',*,*,#541,.T.);
#819=EDGE_LOOP('',(#815,#816,#817,#818));
#820=FACE_OUTER_BOUND('',#819,.F.);
#821=ADVANCED_FACE('',(#820),#813,.T.);
#822=CARTESIAN_POINT('',(-9.E0,-1.171884705063E1,6.9108E0));
#823=DIRECTION('',(0.E0,0.E0,-1.E0));
#824=DIRECTION('',(1.E0,0.E0,0.E0));
#825=AXIS2_PLACEMENT_3D('',#822,#823,#824);
#826=CYLINDRICAL_SURFACE('',#825,1.5E0);
#827=ORIENTED_EDGE('',*,*,#764,.F.);
#828=ORIENTED_EDGE('',*,*,#643,.T.);
#829=ORIENTED_EDGE('',*,*,#814,.T.);
#830=ORIENTED_EDGE('',*,*,#539,.T.);
#831=EDGE_LOOP('',(#827,#828,#829,#830));
#832=FACE_OUTER_BOUND('',#831,.F.);
#833=ADVANCED_FACE('',(#832),#826,.F.);
#834=CARTESIAN_POINT('',(6.E0,1.6E1,6.9108E0));
#835=DIRECTION('',(0.E0,0.E0,-1.E0));
#836=DIRECTION('',(0.E0,1.E0,0.E0));
#837=AXIS2_PLACEMENT_3D('',#834,#835,#836);
#838=CYLINDRICAL_SURFACE('',#837,1.5E0);
#839=ORIENTED_EDGE('',*,*,#487,.T.);
#841=ORIENTED_EDGE('',*,*,#840,.F.);
#842=ORIENTED_EDGE('',*,*,#587,.T.);
#844=ORIENTED_EDGE('',*,*,#843,.T.);
#845=EDGE_LOOP('',(#839,#841,#842,#844));
#846=FACE_OUTER_BOUND('',#845,.F.);
#847=ADVANCED_FACE('',(#846),#838,.T.);
#848=CARTESIAN_POINT('',(7.5E0,-1.75E1,0.E0));
#849=DIRECTION('',(1.E0,0.E0,0.E0));
#850=DIRECTION('',(0.E0,1.E0,0.E0));
#851=AXIS2_PLACEMENT_3D('',#848,#849,#850);
#852=PLANE('',#851);
#853=ORIENTED_EDGE('',*,*,#840,.T.);
#854=ORIENTED_EDGE('',*,*,#509,.F.);
#856=ORIENTED_EDGE('',*,*,#855,.F.);
#857=ORIENTED_EDGE('',*,*,#589,.T.);
#858=EDGE_LOOP('',(#853,#854,#856,#857));
#859=FACE_OUTER_BOUND('',#858,.F.);
#860=ADVANCED_FACE('',(#859),#852,.T.);
#861=CARTESIAN_POINT('',(6.E0,-1.6E1,6.9108E0));
#862=DIRECTION('',(0.E0,0.E0,-1.E0));
#863=DIRECTION('',(1.E0,0.E0,0.E0));
#864=AXIS2_PLACEMENT_3D('',#861,#862,#863);
#865=CYLINDRICAL_SURFACE('',#864,1.5E0);
#866=ORIENTED_EDGE('',*,*,#507,.T.);
#868=ORIENTED_EDGE('',*,*,#867,.F.);
#869=ORIENTED_EDGE('',*,*,#591,.T.);
#870=ORIENTED_EDGE('',*,*,#855,.T.);
#871=EDGE_LOOP('',(#866,#868,#869,#870));
#872=FACE_OUTER_BOUND('',#871,.F.);
#873=ADVANCED_FACE('',(#872),#865,.T.);
#874=CARTESIAN_POINT('',(-7.5E0,-1.75E1,0.E0));
#875=DIRECTION('',(0.E0,-1.E0,0.E0));
#876=DIRECTION('',(1.E0,0.E0,0.E0));
#877=AXIS2_PLACEMENT_3D('',#874,#875,#876);
#878=PLANE('',#877);
#879=ORIENTED_EDGE('',*,*,#867,.T.);
#880=ORIENTED_EDGE('',*,*,#505,.F.);
#882=ORIENTED_EDGE('',*,*,#881,.F.);
#883=ORIENTED_EDGE('',*,*,#593,.T.);
#884=EDGE_LOOP('',(#879,#880,#882,#883));
#885=FACE_OUTER_BOUND('',#884,.F.);
#886=ADVANCED_FACE('',(#885),#878,.T.);
#887=CARTESIAN_POINT('',(-7.145898033750E0,-1.6E1,6.9108E0));
#888=DIRECTION('',(0.E0,0.E0,-1.E0));
#889=DIRECTION('',(0.E0,-1.E0,0.E0));
#890=AXIS2_PLACEMENT_3D('',#887,#888,#889);
#891=CYLINDRICAL_SURFACE('',#890,1.5E0);
#892=ORIENTED_EDGE('',*,*,#503,.T.);
#894=ORIENTED_EDGE('',*,*,#893,.F.);
#895=ORIENTED_EDGE('',*,*,#595,.T.);
#896=ORIENTED_EDGE('',*,*,#881,.T.);
#897=EDGE_LOOP('',(#892,#894,#895,#896));
#898=FACE_OUTER_BOUND('',#897,.F.);
#899=ADVANCED_FACE('',(#898),#891,.T.);
#900=CARTESIAN_POINT('',(-7.5E0,-1.75E1,0.E0));
#901=DIRECTION('',(-4.472135955E-1,-8.944271909999E-1,0.E0));
#902=DIRECTION('',(-8.944271909999E-1,4.472135955E-1,0.E0));
#903=AXIS2_PLACEMENT_3D('',#900,#901,#902);
#904=PLANE('',#903);
#905=ORIENTED_EDGE('',*,*,#893,.T.);
#906=ORIENTED_EDGE('',*,*,#501,.T.);
#908=ORIENTED_EDGE('',*,*,#907,.T.);
#909=ORIENTED_EDGE('',*,*,#597,.F.);
#910=EDGE_LOOP('',(#905,#906,#908,#909));
#911=FACE_OUTER_BOUND('',#910,.F.);
#912=ADVANCED_FACE('',(#911),#904,.T.);
#913=CARTESIAN_POINT('',(-2.6E1,-6.572949016875E0,-3.9108E0));
#914=DIRECTION('',(0.E0,0.E0,1.E0));
#915=DIRECTION('',(-1.E0,0.E0,0.E0));
#916=AXIS2_PLACEMENT_3D('',#913,#914,#915);
#917=CYLINDRICAL_SURFACE('',#916,1.5E0);
#918=ORIENTED_EDGE('',*,*,#599,.T.);
#919=ORIENTED_EDGE('',*,*,#907,.F.);
#920=ORIENTED_EDGE('',*,*,#499,.T.);
#922=ORIENTED_EDGE('',*,*,#921,.T.);
#923=EDGE_LOOP('',(#918,#919,#920,#922));
#924=FACE_OUTER_BOUND('',#923,.F.);
#925=ADVANCED_FACE('',(#924),#917,.T.);
#926=CARTESIAN_POINT('',(-2.75E1,7.5E0,0.E0));
#927=DIRECTION('',(-1.E0,0.E0,0.E0));
#928=DIRECTION('',(0.E0,-1.E0,0.E0));
#929=AXIS2_PLACEMENT_3D('',#926,#927,#928);
#930=PLANE('',#929);
#932=ORIENTED_EDGE('',*,*,#931,.F.);
#933=ORIENTED_EDGE('',*,*,#601,.T.);
#934=ORIENTED_EDGE('',*,*,#921,.F.);
#935=ORIENTED_EDGE('',*,*,#497,.F.);
#936=EDGE_LOOP('',(#932,#933,#934,#935));
#937=FACE_OUTER_BOUND('',#936,.F.);
#938=ADVANCED_FACE('',(#937),#930,.T.);
#939=CARTESIAN_POINT('',(-2.6E1,6.572949016875E0,6.9108E0));
#940=DIRECTION('',(0.E0,0.E0,-1.E0));
#941=DIRECTION('',(-1.E0,0.E0,0.E0));
#942=AXIS2_PLACEMENT_3D('',#939,#940,#941);
#943=CYLINDRICAL_SURFACE('',#942,1.5E0);
#944=ORIENTED_EDGE('',*,*,#495,.T.);
#946=ORIENTED_EDGE('',*,*,#945,.F.);
#947=ORIENTED_EDGE('',*,*,#603,.T.);
#948=ORIENTED_EDGE('',*,*,#931,.T.);
#949=EDGE_LOOP('',(#944,#946,#947,#948));
#950=FACE_OUTER_BOUND('',#949,.F.);
#951=ADVANCED_FACE('',(#950),#943,.T.);
#952=CARTESIAN_POINT('',(-2.75E1,7.5E0,0.E0));
#953=DIRECTION('',(-4.472135955E-1,8.944271909999E-1,0.E0));
#954=DIRECTION('',(8.944271909999E-1,4.472135955E-1,0.E0));
#955=AXIS2_PLACEMENT_3D('',#952,#953,#954);
#956=PLANE('',#955);
#957=ORIENTED_EDGE('',*,*,#945,.T.);
#958=ORIENTED_EDGE('',*,*,#493,.T.);
#960=ORIENTED_EDGE('',*,*,#959,.T.);
#961=ORIENTED_EDGE('',*,*,#605,.F.);
#962=EDGE_LOOP('',(#957,#958,#960,#961));
#963=FACE_OUTER_BOUND('',#962,.F.);
#964=ADVANCED_FACE('',(#963),#956,.T.);
#965=CARTESIAN_POINT('',(-7.145898033750E0,1.6E1,-3.9108E0));
#966=DIRECTION('',(0.E0,0.E0,1.E0));
#967=DIRECTION('',(0.E0,1.E0,0.E0));
#968=AXIS2_PLACEMENT_3D('',#965,#966,#967);
#969=CYLINDRICAL_SURFACE('',#968,1.5E0);
#970=ORIENTED_EDGE('',*,*,#607,.T.);
#971=ORIENTED_EDGE('',*,*,#959,.F.);
#972=ORIENTED_EDGE('',*,*,#491,.T.);
#974=ORIENTED_EDGE('',*,*,#973,.T.);
#975=EDGE_LOOP('',(#970,#971,#972,#974));
#976=FACE_OUTER_BOUND('',#975,.F.);
#977=ADVANCED_FACE('',(#976),#969,.T.);
#978=CARTESIAN_POINT('',(7.5E0,1.75E1,0.E0));
#979=DIRECTION('',(0.E0,1.E0,0.E0));
#980=DIRECTION('',(-1.E0,0.E0,0.E0));
#981=AXIS2_PLACEMENT_3D('',#978,#979,#980);
#982=PLANE('',#981);
#983=ORIENTED_EDGE('',*,*,#843,.F.);
#984=ORIENTED_EDGE('',*,*,#609,.T.);
#985=ORIENTED_EDGE('',*,*,#973,.F.);
#986=ORIENTED_EDGE('',*,*,#489,.F.);
#987=EDGE_LOOP('',(#983,#984,#985,#986));
#988=FACE_OUTER_BOUND('',#987,.F.);
#989=ADVANCED_FACE('',(#988),#982,.T.);
#993=DIMENSIONAL_EXPONENTS(0.E0,0.E0,0.E0,0.E0,0.E0,0.E0,0.E0);
#995=PLANE_ANGLE_MEASURE_WITH_UNIT(PLANE_ANGLE_MEASURE(1.745329251994E-2),#994);
#996=(CONVERSION_BASED_UNIT('DEGREE',#995)NAMED_UNIT(*)PLANE_ANGLE_UNIT());
#998=UNCERTAINTY_MEASURE_WITH_UNIT(LENGTH_MEASURE(5.444504426248E-3),#992,
'closure',
'Maximum model space distance between geometric entities at asserted connectivities');
#999=(GEOMETRIC_REPRESENTATION_CONTEXT(3)GLOBAL_UNCERTAINTY_ASSIGNED_CONTEXT((
#998))GLOBAL_UNIT_ASSIGNED_CONTEXT((#992,#996,#997))REPRESENTATION_CONTEXT
('ID1','3'));
#1001=APPLICATION_CONTEXT(
'CONFIGURATION CONTROLLED 3D DESIGNS OF MECHANICAL PARTS AND ASSEMBLIES');
#1002=APPLICATION_PROTOCOL_DEFINITION('international standard',
'config_control_design',1994,#1001);
#1003=DESIGN_CONTEXT('',#1001,'design');
#1004=MECHANICAL_CONTEXT('',#1001,'mechanical');
#1005=PRODUCT('BANJIEJIAN-1','BANJIEJIAN-1','NOT SPECIFIED',(#1004));
#1006=PRODUCT_DEFINITION_FORMATION_WITH_SPECIFIED_SOURCE('5','LAST_VERSION',
#1005,.MADE.);
#1010=PRODUCT_CATEGORY('part','');
#1011=PRODUCT_RELATED_PRODUCT_CATEGORY('detail','',(#1005));
#1012=PRODUCT_CATEGORY_RELATIONSHIP('','',#1010,#1011);
#1013=SECURITY_CLASSIFICATION_LEVEL('unclassified');
#1014=SECURITY_CLASSIFICATION('','',#1013);
#1015=CC_DESIGN_SECURITY_CLASSIFICATION(#1014,(#1006));
#1016=APPROVAL_STATUS('approved');
#1017=APPROVAL(#1016,'');
#1018=CC_DESIGN_APPROVAL(#1017,(#1014,#1006,#1007));
#1019=CALENDAR_DATE(124,8,4);
#1020=COORDINATED_UNIVERSAL_TIME_OFFSET(8,0,.AHEAD.);
#1021=LOCAL_TIME(18,57,5.9E1,#1020);
#1022=DATE_AND_TIME(#1019,#1021);
#1023=APPROVAL_DATE_TIME(#1022,#1017);
#1024=DATE_TIME_ROLE('creation_date');
#1025=CC_DESIGN_DATE_AND_TIME_ASSIGNMENT(#1022,#1024,(#1007));
#1026=DATE_TIME_ROLE('classification_date');
#1027=CC_DESIGN_DATE_AND_TIME_ASSIGNMENT(#1022,#1026,(#1014));
#1028=PERSON('UNSPECIFIED','UNSPECIFIED',$,$,$,$);
#1029=ORGANIZATION('UNSPECIFIED','UNSPECIFIED','UNSPECIFIED');
#1030=PERSON_AND_ORGANIZATION(#1028,#1029);
#1031=APPROVAL_ROLE('approver');
#1032=APPROVAL_PERSON_ORGANIZATION(#1030,#1017,#1031);
#1033=PERSON_AND_ORGANIZATION_ROLE('creator');
#1034=CC_DESIGN_PERSON_AND_ORGANIZATION_ASSIGNMENT(#1030,#1033,(#1006,#1007));
#1035=PERSON_AND_ORGANIZATION_ROLE('design_supplier');
#1036=CC_DESIGN_PERSON_AND_ORGANIZATION_ASSIGNMENT(#1030,#1035,(#1006));
#1037=PERSON_AND_ORGANIZATION_ROLE('classification_officer');
#1038=CC_DESIGN_PERSON_AND_ORGANIZATION_ASSIGNMENT(#1030,#1037,(#1014));
#1039=PERSON_AND_ORGANIZATION_ROLE('design_owner');
#1040=CC_DESIGN_PERSON_AND_ORGANIZATION_ASSIGNMENT(#1030,#1039,(#1005));
#6=CIRCLE('',#5,1.5E0);
#11=CIRCLE('',#10,1.5E0);
#16=CIRCLE('',#15,1.5E0);
#21=CIRCLE('',#20,1.5E0);
#50=CIRCLE('',#49,1.5E0);
#59=CIRCLE('',#58,1.5E0);
#68=CIRCLE('',#67,1.5E0);
#77=CIRCLE('',#76,1.5E0);
#86=CIRCLE('',#85,1.5E0);
#95=CIRCLE('',#94,1.5E0);
#112=CIRCLE('',#111,1.5E0);
#117=CIRCLE('',#116,1.5E0);
#122=CIRCLE('',#121,1.5E0);
#127=CIRCLE('',#126,1.5E0);
#156=CIRCLE('',#155,1.5E0);
#165=CIRCLE('',#164,1.5E0);
#174=CIRCLE('',#173,1.5E0);
#183=CIRCLE('',#182,1.5E0);
#192=CIRCLE('',#191,1.5E0);
#201=CIRCLE('',#200,1.5E0);
#226=CIRCLE('',#225,1.5E0);
#231=CIRCLE('',#230,1.5E0);
#244=CIRCLE('',#243,1.5E0);
#249=CIRCLE('',#248,1.5E0);
#262=CIRCLE('',#261,1.5E0);
#267=CIRCLE('',#266,1.5E0);
#280=CIRCLE('',#279,1.5E0);
#285=CIRCLE('',#284,1.5E0);
#298=CIRCLE('',#297,1.5E0);
#303=CIRCLE('',#302,1.5E0);
#316=CIRCLE('',#315,1.5E0);
#321=CIRCLE('',#320,1.5E0);
#487=EDGE_CURVE('',#428,#429,#50,.T.);
#489=EDGE_CURVE('',#428,#457,#54,.T.);
#491=EDGE_CURVE('',#455,#457,#59,.T.);
#493=EDGE_CURVE('',#445,#455,#63,.T.);
#495=EDGE_CURVE('',#444,#445,#68,.T.);
#497=EDGE_CURVE('',#444,#473,#72,.T.);
#499=EDGE_CURVE('',#471,#473,#77,.T.);
#501=EDGE_CURVE('',#461,#471,#81,.T.);
#503=EDGE_CURVE('',#460,#461,#86,.T.);
#505=EDGE_CURVE('',#460,#437,#90,.T.);
#507=EDGE_CURVE('',#436,#437,#95,.T.);
#509=EDGE_CURVE('',#436,#429,#99,.T.);
#513=EDGE_CURVE('',#476,#477,#16,.T.);
#515=EDGE_CURVE('',#477,#476,#21,.T.);
#519=EDGE_CURVE('',#380,#397,#25,.T.);
#521=EDGE_CURVE('',#401,#397,#231,.T.);
#523=EDGE_CURVE('',#408,#401,#29,.T.);
#525=EDGE_CURVE('',#404,#408,#262,.T.);
#527=EDGE_CURVE('',#404,#384,#33,.T.);
#529=EDGE_CURVE('',#380,#384,#244,.T.);
#533=EDGE_CURVE('',#420,#392,#37,.T.);
#535=EDGE_CURVE('',#388,#392,#280,.T.);
#537=EDGE_CURVE('',#388,#413,#41,.T.);
#539=EDGE_CURVE('',#417,#413,#321,.T.);
#541=EDGE_CURVE('',#424,#417,#45,.T.);
#543=EDGE_CURVE('',#420,#424,#298,.T.);
#547=EDGE_CURVE('',#372,#373,#6,.T.);
#549=EDGE_CURVE('',#373,#372,#11,.T.);
#560=EDGE_CURVE('',#372,#376,#103,.T.);
#562=EDGE_CURVE('',#376,#377,#112,.T.);
#564=EDGE_CURVE('',#373,#377,#107,.T.);
#576=EDGE_CURVE('',#377,#376,#117,.T.);
#587=EDGE_CURVE('',#431,#433,#156,.T.);
#589=EDGE_CURVE('',#441,#431,#160,.T.);
#591=EDGE_CURVE('',#439,#441,#165,.T.);
#593=EDGE_CURVE('',#465,#439,#169,.T.);
#595=EDGE_CURVE('',#463,#465,#174,.T.);
#597=EDGE_CURVE('',#463,#469,#178,.T.);
#599=EDGE_CURVE('',#468,#469,#183,.T.);
#601=EDGE_CURVE('',#449,#468,#187,.T.);
#603=EDGE_CURVE('',#447,#449,#192,.T.);
#605=EDGE_CURVE('',#447,#453,#196,.T.);
#607=EDGE_CURVE('',#452,#453,#201,.T.);
#609=EDGE_CURVE('',#433,#452,#205,.T.);
#613=EDGE_CURVE('',#480,#481,#122,.T.);
#615=EDGE_CURVE('',#481,#480,#127,.T.);
#619=EDGE_CURVE('',#409,#400,#131,.T.);
#621=EDGE_CURVE('',#396,#400,#226,.T.);
#623=EDGE_CURVE('',#381,#396,#135,.T.);
#625=EDGE_CURVE('',#385,#381,#249,.T.);
#627=EDGE_CURVE('',#405,#385,#139,.T.);
#629=EDGE_CURVE('',#409,#405,#267,.T.);
#633=EDGE_CURVE('',#389,#412,#143,.T.);
#635=EDGE_CURVE('',#393,#389,#285,.T.);
#637=EDGE_CURVE('',#421,#393,#147,.T.);
#639=EDGE_CURVE('',#425,#421,#303,.T.);
#641=EDGE_CURVE('',#425,#416,#151,.T.);
#643=EDGE_CURVE('',#412,#416,#316,.T.);
#658=EDGE_CURVE('',#476,#480,#209,.T.);
#661=EDGE_CURVE('',#477,#481,#213,.T.);
#683=EDGE_CURVE('',#400,#401,#217,.T.);
#686=EDGE_CURVE('',#408,#409,#221,.T.);
#697=EDGE_CURVE('',#396,#397,#239,.T.);
#710=EDGE_CURVE('',#380,#381,#235,.T.);
#725=EDGE_CURVE('',#384,#385,#253,.T.);
#738=EDGE_CURVE('',#404,#405,#257,.T.);
#761=EDGE_CURVE('',#388,#389,#271,.T.);
#764=EDGE_CURVE('',#412,#413,#275,.T.);
#777=EDGE_CURVE('',#392,#393,#289,.T.);
#790=EDGE_CURVE('',#420,#421,#293,.T.);
#803=EDGE_CURVE('',#424,#425,#311,.T.);
#814=EDGE_CURVE('',#416,#417,#307,.T.);
#840=EDGE_CURVE('',#431,#429,#325,.T.);
#843=EDGE_CURVE('',#433,#428,#365,.T.);
#855=EDGE_CURVE('',#441,#436,#329,.T.);
#867=EDGE_CURVE('',#439,#437,#333,.T.);
#881=EDGE_CURVE('',#465,#460,#337,.T.);
#893=EDGE_CURVE('',#463,#461,#341,.T.);
#907=EDGE_CURVE('',#471,#469,#345,.T.);
#921=EDGE_CURVE('',#473,#468,#353,.T.);
#931=EDGE_CURVE('',#449,#444,#349,.T.);
#945=EDGE_CURVE('',#447,#445,#357,.T.);
#959=EDGE_CURVE('',#455,#453,#361,.T.);
#973=EDGE_CURVE('',#457,#452,#369,.T.);
#990=CLOSED_SHELL('',(#553,#568,#581,#651,#665,#677,#691,#704,#717,#730,#743,
#755,#769,#782,#795,#808,#821,#833,#847,#860,#873,#886,#899,#912,#925,#938,#951,
#964,#977,#989));
#991=MANIFOLD_SOLID_BREP('',#990);
#992=(LENGTH_UNIT()NAMED_UNIT(*)SI_UNIT(.MILLI.,.METRE.));
#994=(NAMED_UNIT(*)PLANE_ANGLE_UNIT()SI_UNIT($,.RADIAN.));
#997=(NAMED_UNIT(*)SI_UNIT($,.STERADIAN.)SOLID_ANGLE_UNIT());
#1000=ADVANCED_BREP_SHAPE_REPRESENTATION('',(#991),#999);
#1007=PRODUCT_DEFINITION('design','',#1006,#1003);
#1008=PRODUCT_DEFINITION_SHAPE('','SHAPE FOR BANJIEJIAN-1.',#1007);
#1009=SHAPE_DEFINITION_REPRESENTATION(#1008,#1000);
ENDSEC;
END-ISO-10303-21;
