ISO-10303-21;
HEADER;
FILE_DESCRIPTION((''),'2;1');
FILE_NAME('BANJIEJIAN-2','2024-04-08T20:46:20',('005'),(''),
'CREO PARAMETRIC BY PTC INC, 2020053','CREO PARAMETRIC BY PTC INC, 2020053','');
FILE_SCHEMA(('CONFIG_CONTROL_DESIGN'));
ENDSEC;
DATA;
#2=CARTESIAN_POINT('',(8.5E0,2.45E1,-1.5E0));
#3=DIRECTION('',(0.E0,0.E0,-1.E0));
#4=DIRECTION('',(0.E0,1.E0,0.E0));
#5=AXIS2_PLACEMENT_3D('',#2,#3,#4);
#7=DIRECTION('',(-1.E0,0.E0,0.E0));
#8=VECTOR('',#7,1.797382841096E1);
#9=CARTESIAN_POINT('',(8.5E0,2.6E1,-1.5E0));
#10=LINE('',#9,#8);
#11=CARTESIAN_POINT('',(-9.473828410963E0,2.45E1,-1.5E0));
#12=DIRECTION('',(0.E0,0.E0,-1.E0));
#13=DIRECTION('',(-6.246950475544E-1,7.808688094430E-1,0.E0));
#14=AXIS2_PLACEMENT_3D('',#11,#12,#13);
#16=DIRECTION('',(-7.808688094430E-1,-6.246950475544E-1,0.E0));
#17=VECTOR('',#16,2.436538808946E1);
#18=CARTESIAN_POINT('',(-1.041087098229E1,2.567130321416E1,-1.5E0));
#19=LINE('',#18,#17);
#20=CARTESIAN_POINT('',(-2.85E1,9.279062728770E0,-1.5E0));
#21=DIRECTION('',(0.E0,0.E0,-1.E0));
#22=DIRECTION('',(-1.E0,0.E0,0.E0));
#23=AXIS2_PLACEMENT_3D('',#20,#21,#22);
#25=DIRECTION('',(0.E0,-1.E0,0.E0));
#26=VECTOR('',#25,1.855812545754E1);
#27=CARTESIAN_POINT('',(-3.E1,9.279062728770E0,-1.5E0));
#28=LINE('',#27,#26);
#29=CARTESIAN_POINT('',(-2.85E1,-9.279062728770E0,-1.5E0));
#30=DIRECTION('',(0.E0,0.E0,-1.E0));
#31=DIRECTION('',(-6.246950475544E-1,-7.808688094430E-1,0.E0));
#32=AXIS2_PLACEMENT_3D('',#29,#30,#31);
#34=DIRECTION('',(7.808688094430E-1,-6.246950475544E-1,0.E0));
#35=VECTOR('',#34,2.436538808946E1);
#36=CARTESIAN_POINT('',(-2.943704257133E1,-1.045036594293E1,-1.5E0));
#37=LINE('',#36,#35);
#38=CARTESIAN_POINT('',(-9.473828410963E0,-2.45E1,-1.5E0));
#39=DIRECTION('',(0.E0,0.E0,-1.E0));
#40=DIRECTION('',(0.E0,-1.E0,0.E0));
#41=AXIS2_PLACEMENT_3D('',#38,#39,#40);
#43=DIRECTION('',(1.E0,0.E0,0.E0));
#44=VECTOR('',#43,1.797382841096E1);
#45=CARTESIAN_POINT('',(-9.473828410963E0,-2.6E1,-1.5E0));
#46=LINE('',#45,#44);
#47=CARTESIAN_POINT('',(8.5E0,-2.45E1,-1.5E0));
#48=DIRECTION('',(0.E0,0.E0,-1.E0));
#49=DIRECTION('',(1.E0,0.E0,0.E0));
#50=AXIS2_PLACEMENT_3D('',#47,#48,#49);
#52=DIRECTION('',(0.E0,1.E0,0.E0));
#53=VECTOR('',#52,4.9E1);
#54=CARTESIAN_POINT('',(1.E1,-2.45E1,-1.5E0));
#55=LINE('',#54,#53);
#56=DIRECTION('',(-1.E0,0.E0,0.E0));
#57=VECTOR('',#56,9.421485232888E0);
#58=CARTESIAN_POINT('',(-1.15E1,1.E1,-1.5E0));
#59=LINE('',#58,#57);
#60=DIRECTION('',(7.808688094430E-1,6.246950475544E-1,0.E0));
#61=VECTOR('',#60,1.206538808946E1);
#62=CARTESIAN_POINT('',(-2.185852780422E1,1.267130321416E1,-1.5E0));
#63=LINE('',#62,#61);
#64=DIRECTION('',(0.E0,-1.E0,0.E0));
#65=VECTOR('',#64,7.537188186310E0);
#66=CARTESIAN_POINT('',(-1.E1,1.903718818631E1,-1.5E0));
#67=LINE('',#66,#65);
#68=DIRECTION('',(1.E0,0.E0,0.E0));
#69=VECTOR('',#68,9.421485232888E0);
#70=CARTESIAN_POINT('',(-2.092148523289E1,-1.E1,-1.5E0));
#71=LINE('',#70,#69);
#72=DIRECTION('',(0.E0,-1.E0,0.E0));
#73=VECTOR('',#72,7.537188186310E0);
#74=CARTESIAN_POINT('',(-1.E1,-1.15E1,-1.5E0));
#75=LINE('',#74,#73);
#76=DIRECTION('',(-7.808688094430E-1,6.246950475544E-1,0.E0));
#77=VECTOR('',#76,1.206538808946E1);
#78=CARTESIAN_POINT('',(-1.243704257133E1,-2.020849140047E1,-1.5E0));
#79=LINE('',#78,#77);
#80=CARTESIAN_POINT('',(-2.E1,0.E0,-1.5E0));
#81=DIRECTION('',(0.E0,0.E0,1.E0));
#82=DIRECTION('',(0.E0,1.E0,0.E0));
#83=AXIS2_PLACEMENT_3D('',#80,#81,#82);
#85=CARTESIAN_POINT('',(-2.E1,0.E0,-1.5E0));
#86=DIRECTION('',(0.E0,0.E0,1.E0));
#87=DIRECTION('',(0.E0,-1.E0,0.E0));
#88=AXIS2_PLACEMENT_3D('',#85,#86,#87);
#90=CARTESIAN_POINT('',(0.E0,-2.15E1,-1.5E0));
#91=DIRECTION('',(0.E0,0.E0,1.E0));
#92=DIRECTION('',(0.E0,1.E0,0.E0));
#93=AXIS2_PLACEMENT_3D('',#90,#91,#92);
#95=CARTESIAN_POINT('',(0.E0,-2.15E1,-1.5E0));
#96=DIRECTION('',(0.E0,0.E0,1.E0));
#97=DIRECTION('',(0.E0,-1.E0,0.E0));
#98=AXIS2_PLACEMENT_3D('',#95,#96,#97);
#100=CARTESIAN_POINT('',(0.E0,2.15E1,-1.5E0));
#101=DIRECTION('',(0.E0,0.E0,1.E0));
#102=DIRECTION('',(0.E0,1.E0,0.E0));
#103=AXIS2_PLACEMENT_3D('',#100,#101,#102);
#105=CARTESIAN_POINT('',(0.E0,2.15E1,-1.5E0));
#106=DIRECTION('',(0.E0,0.E0,1.E0));
#107=DIRECTION('',(0.E0,-1.E0,0.E0));
#108=AXIS2_PLACEMENT_3D('',#105,#106,#107);
#110=DIRECTION('',(0.E0,1.E0,0.E0));
#111=VECTOR('',#110,1.E1);
#112=CARTESIAN_POINT('',(5.E0,-5.E0,-1.5E0));
#113=LINE('',#112,#111);
#114=CARTESIAN_POINT('',(0.E0,-5.E0,-1.5E0));
#115=DIRECTION('',(0.E0,0.E0,-1.E0));
#116=DIRECTION('',(1.E0,0.E0,0.E0));
#117=AXIS2_PLACEMENT_3D('',#114,#115,#116);
#119=DIRECTION('',(0.E0,-1.E0,0.E0));
#120=VECTOR('',#119,1.E1);
#121=CARTESIAN_POINT('',(-5.E0,5.E0,-1.5E0));
#122=LINE('',#121,#120);
#123=CARTESIAN_POINT('',(0.E0,5.E0,-1.5E0));
#124=DIRECTION('',(0.E0,0.E0,-1.E0));
#125=DIRECTION('',(-1.E0,0.E0,0.E0));
#126=AXIS2_PLACEMENT_3D('',#123,#124,#125);
#128=DIRECTION('',(0.E0,0.E0,-1.E0));
#129=VECTOR('',#128,3.E0);
#130=CARTESIAN_POINT('',(1.E1,2.45E1,1.5E0));
#131=LINE('',#130,#129);
#132=DIRECTION('',(0.E0,0.E0,-1.E0));
#133=VECTOR('',#132,3.E0);
#134=CARTESIAN_POINT('',(1.E1,-2.45E1,1.5E0));
#135=LINE('',#134,#133);
#136=DIRECTION('',(0.E0,0.E0,-1.E0));
#137=VECTOR('',#136,3.E0);
#138=CARTESIAN_POINT('',(8.5E0,-2.6E1,1.5E0));
#139=LINE('',#138,#137);
#140=DIRECTION('',(0.E0,0.E0,-1.E0));
#141=VECTOR('',#140,3.E0);
#142=CARTESIAN_POINT('',(-9.473828410963E0,-2.6E1,1.5E0));
#143=LINE('',#142,#141);
#144=DIRECTION('',(0.E0,0.E0,-1.E0));
#145=VECTOR('',#144,3.E0);
#146=CARTESIAN_POINT('',(-1.041087098229E1,-2.567130321416E1,1.5E0));
#147=LINE('',#146,#145);
#148=DIRECTION('',(0.E0,0.E0,1.E0));
#149=VECTOR('',#148,3.E0);
#150=CARTESIAN_POINT('',(-2.943704257133E1,-1.045036594293E1,-1.5E0));
#151=LINE('',#150,#149);
#152=CARTESIAN_POINT('',(8.5E0,2.45E1,1.5E0));
#153=DIRECTION('',(0.E0,0.E0,1.E0));
#154=DIRECTION('',(1.E0,0.E0,0.E0));
#155=AXIS2_PLACEMENT_3D('',#152,#153,#154);
#157=DIRECTION('',(0.E0,1.E0,0.E0));
#158=VECTOR('',#157,4.9E1);
#159=CARTESIAN_POINT('',(1.E1,-2.45E1,1.5E0));
#160=LINE('',#159,#158);
#161=CARTESIAN_POINT('',(8.5E0,-2.45E1,1.5E0));
#162=DIRECTION('',(0.E0,0.E0,1.E0));
#163=DIRECTION('',(0.E0,-1.E0,0.E0));
#164=AXIS2_PLACEMENT_3D('',#161,#162,#163);
#166=DIRECTION('',(1.E0,0.E0,0.E0));
#167=VECTOR('',#166,1.797382841096E1);
#168=CARTESIAN_POINT('',(-9.473828410963E0,-2.6E1,1.5E0));
#169=LINE('',#168,#167);
#170=CARTESIAN_POINT('',(-9.473828410963E0,-2.45E1,1.5E0));
#171=DIRECTION('',(0.E0,0.E0,1.E0));
#172=DIRECTION('',(-6.246950475544E-1,-7.808688094430E-1,0.E0));
#173=AXIS2_PLACEMENT_3D('',#170,#171,#172);
#175=DIRECTION('',(7.808688094430E-1,-6.246950475544E-1,0.E0));
#176=VECTOR('',#175,2.436538808946E1);
#177=CARTESIAN_POINT('',(-2.943704257133E1,-1.045036594293E1,1.5E0));
#178=LINE('',#177,#176);
#179=CARTESIAN_POINT('',(-2.85E1,-9.279062728770E0,1.5E0));
#180=DIRECTION('',(0.E0,0.E0,1.E0));
#181=DIRECTION('',(-1.E0,0.E0,0.E0));
#182=AXIS2_PLACEMENT_3D('',#179,#180,#181);
#184=DIRECTION('',(0.E0,-1.E0,0.E0));
#185=VECTOR('',#184,1.855812545754E1);
#186=CARTESIAN_POINT('',(-3.E1,9.279062728770E0,1.5E0));
#187=LINE('',#186,#185);
#188=CARTESIAN_POINT('',(-2.85E1,9.279062728770E0,1.5E0));
#189=DIRECTION('',(0.E0,0.E0,1.E0));
#190=DIRECTION('',(-6.246950475544E-1,7.808688094430E-1,0.E0));
#191=AXIS2_PLACEMENT_3D('',#188,#189,#190);
#193=DIRECTION('',(-7.808688094430E-1,-6.246950475544E-1,0.E0));
#194=VECTOR('',#193,2.436538808946E1);
#195=CARTESIAN_POINT('',(-1.041087098229E1,2.567130321416E1,1.5E0));
#196=LINE('',#195,#194);
#197=CARTESIAN_POINT('',(-9.473828410963E0,2.45E1,1.5E0));
#198=DIRECTION('',(0.E0,0.E0,1.E0));
#199=DIRECTION('',(0.E0,1.E0,0.E0));
#200=AXIS2_PLACEMENT_3D('',#197,#198,#199);
#202=DIRECTION('',(-1.E0,0.E0,0.E0));
#203=VECTOR('',#202,1.797382841096E1);
#204=CARTESIAN_POINT('',(8.5E0,2.6E1,1.5E0));
#205=LINE('',#204,#203);
#206=DIRECTION('',(7.808688094430E-1,6.246950475544E-1,0.E0));
#207=VECTOR('',#206,1.206538808946E1);
#208=CARTESIAN_POINT('',(-2.185852780422E1,1.267130321416E1,1.5E0));
#209=LINE('',#208,#207);
#210=DIRECTION('',(-1.E0,0.E0,0.E0));
#211=VECTOR('',#210,9.421485232888E0);
#212=CARTESIAN_POINT('',(-1.15E1,1.E1,1.5E0));
#213=LINE('',#212,#211);
#214=DIRECTION('',(0.E0,-1.E0,0.E0));
#215=VECTOR('',#214,7.537188186310E0);
#216=CARTESIAN_POINT('',(-1.E1,1.903718818631E1,1.5E0));
#217=LINE('',#216,#215);
#218=DIRECTION('',(0.E0,-1.E0,0.E0));
#219=VECTOR('',#218,7.537188186310E0);
#220=CARTESIAN_POINT('',(-1.E1,-1.15E1,1.5E0));
#221=LINE('',#220,#219);
#222=DIRECTION('',(1.E0,0.E0,0.E0));
#223=VECTOR('',#222,9.421485232888E0);
#224=CARTESIAN_POINT('',(-2.092148523289E1,-1.E1,1.5E0));
#225=LINE('',#224,#223);
#226=DIRECTION('',(-7.808688094430E-1,6.246950475544E-1,0.E0));
#227=VECTOR('',#226,1.206538808946E1);
#228=CARTESIAN_POINT('',(-1.243704257133E1,-2.020849140047E1,1.5E0));
#229=LINE('',#228,#227);
#230=CARTESIAN_POINT('',(-2.E1,0.E0,1.5E0));
#231=DIRECTION('',(0.E0,0.E0,1.E0));
#232=DIRECTION('',(0.E0,1.E0,0.E0));
#233=AXIS2_PLACEMENT_3D('',#230,#231,#232);
#235=CARTESIAN_POINT('',(-2.E1,0.E0,1.5E0));
#236=DIRECTION('',(0.E0,0.E0,1.E0));
#237=DIRECTION('',(0.E0,-1.E0,0.E0));
#238=AXIS2_PLACEMENT_3D('',#235,#236,#237);
#240=CARTESIAN_POINT('',(0.E0,-2.15E1,1.5E0));
#241=DIRECTION('',(0.E0,0.E0,1.E0));
#242=DIRECTION('',(0.E0,1.E0,0.E0));
#243=AXIS2_PLACEMENT_3D('',#240,#241,#242);
#245=CARTESIAN_POINT('',(0.E0,-2.15E1,1.5E0));
#246=DIRECTION('',(0.E0,0.E0,1.E0));
#247=DIRECTION('',(0.E0,-1.E0,0.E0));
#248=AXIS2_PLACEMENT_3D('',#245,#246,#247);
#250=CARTESIAN_POINT('',(0.E0,2.15E1,1.5E0));
#251=DIRECTION('',(0.E0,0.E0,1.E0));
#252=DIRECTION('',(0.E0,1.E0,0.E0));
#253=AXIS2_PLACEMENT_3D('',#250,#251,#252);
#255=CARTESIAN_POINT('',(0.E0,2.15E1,1.5E0));
#256=DIRECTION('',(0.E0,0.E0,1.E0));
#257=DIRECTION('',(0.E0,-1.E0,0.E0));
#258=AXIS2_PLACEMENT_3D('',#255,#256,#257);
#260=CARTESIAN_POINT('',(0.E0,-5.E0,1.5E0));
#261=DIRECTION('',(0.E0,0.E0,1.E0));
#262=DIRECTION('',(-1.E0,0.E0,0.E0));
#263=AXIS2_PLACEMENT_3D('',#260,#261,#262);
#265=DIRECTION('',(0.E0,1.E0,0.E0));
#266=VECTOR('',#265,1.E1);
#267=CARTESIAN_POINT('',(5.E0,-5.E0,1.5E0));
#268=LINE('',#267,#266);
#269=CARTESIAN_POINT('',(0.E0,5.E0,1.5E0));
#270=DIRECTION('',(0.E0,0.E0,1.E0));
#271=DIRECTION('',(1.E0,0.E0,0.E0));
#272=AXIS2_PLACEMENT_3D('',#269,#270,#271);
#274=DIRECTION('',(0.E0,-1.E0,0.E0));
#275=VECTOR('',#274,1.E1);
#276=CARTESIAN_POINT('',(-5.E0,5.E0,1.5E0));
#277=LINE('',#276,#275);
#278=DIRECTION('',(0.E0,0.E0,-1.E0));
#279=VECTOR('',#278,3.E0);
#280=CARTESIAN_POINT('',(-3.E1,9.279062728770E0,1.5E0));
#281=LINE('',#280,#279);
#282=DIRECTION('',(0.E0,0.E0,1.E0));
#283=VECTOR('',#282,3.E0);
#284=CARTESIAN_POINT('',(-3.E1,-9.279062728770E0,-1.5E0));
#285=LINE('',#284,#283);
#286=DIRECTION('',(0.E0,0.E0,-1.E0));
#287=VECTOR('',#286,3.E0);
#288=CARTESIAN_POINT('',(-2.943704257133E1,1.045036594293E1,1.5E0));
#289=LINE('',#288,#287);
#290=DIRECTION('',(0.E0,0.E0,1.E0));
#291=VECTOR('',#290,3.E0);
#292=CARTESIAN_POINT('',(-1.041087098229E1,2.567130321416E1,-1.5E0));
#293=LINE('',#292,#291);
#294=DIRECTION('',(0.E0,0.E0,-1.E0));
#295=VECTOR('',#294,3.E0);
#296=CARTESIAN_POINT('',(8.5E0,2.6E1,1.5E0));
#297=LINE('',#296,#295);
#298=DIRECTION('',(0.E0,0.E0,1.E0));
#299=VECTOR('',#298,3.E0);
#300=CARTESIAN_POINT('',(-9.473828410963E0,2.6E1,-1.5E0));
#301=LINE('',#300,#299);
#302=DIRECTION('',(0.E0,0.E0,-1.E0));
#303=VECTOR('',#302,3.E0);
#304=CARTESIAN_POINT('',(-2.185852780422E1,1.267130321416E1,1.5E0));
#305=LINE('',#304,#303);
#306=DIRECTION('',(0.E0,0.E0,1.E0));
#307=VECTOR('',#306,3.E0);
#308=CARTESIAN_POINT('',(-1.243704257133E1,2.020849140047E1,-1.5E0));
#309=LINE('',#308,#307);
#310=CARTESIAN_POINT('',(-2.092148523289E1,1.15E1,1.5E0));
#311=DIRECTION('',(0.E0,0.E0,-1.E0));
#312=DIRECTION('',(0.E0,-1.E0,0.E0));
#313=AXIS2_PLACEMENT_3D('',#310,#311,#312);
#315=CARTESIAN_POINT('',(-2.092148523289E1,1.15E1,-1.5E0));
#316=DIRECTION('',(0.E0,0.E0,1.E0));
#317=DIRECTION('',(-6.246950475544E-1,7.808688094430E-1,0.E0));
#318=AXIS2_PLACEMENT_3D('',#315,#316,#317);
#320=DIRECTION('',(0.E0,0.E0,1.E0));
#321=VECTOR('',#320,3.E0);
#322=CARTESIAN_POINT('',(-1.15E1,1.E1,-1.5E0));
#323=LINE('',#322,#321);
#324=DIRECTION('',(0.E0,0.E0,-1.E0));
#325=VECTOR('',#324,3.E0);
#326=CARTESIAN_POINT('',(-2.092148523289E1,1.E1,1.5E0));
#327=LINE('',#326,#325);
#328=CARTESIAN_POINT('',(-1.15E1,1.15E1,-1.5E0));
#329=DIRECTION('',(0.E0,0.E0,1.E0));
#330=DIRECTION('',(0.E0,-1.E0,0.E0));
#331=AXIS2_PLACEMENT_3D('',#328,#329,#330);
#333=CARTESIAN_POINT('',(-1.15E1,1.15E1,1.5E0));
#334=DIRECTION('',(0.E0,0.E0,-1.E0));
#335=DIRECTION('',(1.E0,0.E0,0.E0));
#336=AXIS2_PLACEMENT_3D('',#333,#334,#335);
#338=DIRECTION('',(0.E0,0.E0,1.E0));
#339=VECTOR('',#338,3.E0);
#340=CARTESIAN_POINT('',(-1.E1,1.15E1,-1.5E0));
#341=LINE('',#340,#339);
#342=DIRECTION('',(0.E0,0.E0,1.E0));
#343=VECTOR('',#342,3.E0);
#344=CARTESIAN_POINT('',(-1.E1,1.903718818631E1,-1.5E0));
#345=LINE('',#344,#343);
#346=CARTESIAN_POINT('',(-1.15E1,1.903718818631E1,-1.5E0));
#347=DIRECTION('',(0.E0,0.E0,1.E0));
#348=DIRECTION('',(1.E0,0.E0,0.E0));
#349=AXIS2_PLACEMENT_3D('',#346,#347,#348);
#351=CARTESIAN_POINT('',(-1.15E1,1.903718818631E1,1.5E0));
#352=DIRECTION('',(0.E0,0.E0,-1.E0));
#353=DIRECTION('',(-6.246950475544E-1,7.808688094430E-1,0.E0));
#354=AXIS2_PLACEMENT_3D('',#351,#352,#353);
#356=DIRECTION('',(0.E0,0.E0,1.E0));
#357=VECTOR('',#356,3.E0);
#358=CARTESIAN_POINT('',(-1.E1,-1.15E1,-1.5E0));
#359=LINE('',#358,#357);
#360=DIRECTION('',(0.E0,0.E0,-1.E0));
#361=VECTOR('',#360,3.E0);
#362=CARTESIAN_POINT('',(-1.E1,-1.903718818631E1,1.5E0));
#363=LINE('',#362,#361);
#364=CARTESIAN_POINT('',(-1.15E1,-1.15E1,-1.5E0));
#365=DIRECTION('',(0.E0,0.E0,1.E0));
#366=DIRECTION('',(1.E0,0.E0,0.E0));
#367=AXIS2_PLACEMENT_3D('',#364,#365,#366);
#369=CARTESIAN_POINT('',(-1.15E1,-1.15E1,1.5E0));
#370=DIRECTION('',(0.E0,0.E0,-1.E0));
#371=DIRECTION('',(0.E0,1.E0,0.E0));
#372=AXIS2_PLACEMENT_3D('',#369,#370,#371);
#374=DIRECTION('',(0.E0,0.E0,1.E0));
#375=VECTOR('',#374,3.E0);
#376=CARTESIAN_POINT('',(-1.15E1,-1.E1,-1.5E0));
#377=LINE('',#376,#375);
#378=DIRECTION('',(0.E0,0.E0,1.E0));
#379=VECTOR('',#378,3.E0);
#380=CARTESIAN_POINT('',(-2.092148523289E1,-1.E1,-1.5E0));
#381=LINE('',#380,#379);
#382=CARTESIAN_POINT('',(-2.092148523289E1,-1.15E1,-1.5E0));
#383=DIRECTION('',(0.E0,0.E0,1.E0));
#384=DIRECTION('',(0.E0,1.E0,0.E0));
#385=AXIS2_PLACEMENT_3D('',#382,#383,#384);
#387=CARTESIAN_POINT('',(-2.092148523289E1,-1.15E1,1.5E0));
#388=DIRECTION('',(0.E0,0.E0,-1.E0));
#389=DIRECTION('',(-6.246950475544E-1,-7.808688094430E-1,0.E0));
#390=AXIS2_PLACEMENT_3D('',#387,#388,#389);
#392=DIRECTION('',(0.E0,0.E0,-1.E0));
#393=VECTOR('',#392,3.E0);
#394=CARTESIAN_POINT('',(-1.243704257133E1,-2.020849140047E1,1.5E0));
#395=LINE('',#394,#393);
#396=DIRECTION('',(0.E0,0.E0,1.E0));
#397=VECTOR('',#396,3.E0);
#398=CARTESIAN_POINT('',(-2.185852780422E1,-1.267130321416E1,-1.5E0));
#399=LINE('',#398,#397);
#400=CARTESIAN_POINT('',(-1.15E1,-1.903718818631E1,1.5E0));
#401=DIRECTION('',(0.E0,0.E0,-1.E0));
#402=DIRECTION('',(1.E0,0.E0,0.E0));
#403=AXIS2_PLACEMENT_3D('',#400,#401,#402);
#405=CARTESIAN_POINT('',(-1.15E1,-1.903718818631E1,-1.5E0));
#406=DIRECTION('',(0.E0,0.E0,1.E0));
#407=DIRECTION('',(-6.246950475544E-1,-7.808688094430E-1,0.E0));
#408=AXIS2_PLACEMENT_3D('',#405,#406,#407);
#410=DIRECTION('',(0.E0,0.E0,-1.E0));
#411=VECTOR('',#410,3.E0);
#412=CARTESIAN_POINT('',(-2.E1,1.5E0,1.5E0));
#413=LINE('',#412,#411);
#414=DIRECTION('',(0.E0,0.E0,-1.E0));
#415=VECTOR('',#414,3.E0);
#416=CARTESIAN_POINT('',(-2.E1,-1.5E0,1.5E0));
#417=LINE('',#416,#415);
#418=DIRECTION('',(0.E0,0.E0,-1.E0));
#419=VECTOR('',#418,3.E0);
#420=CARTESIAN_POINT('',(0.E0,-2.E1,1.5E0));
#421=LINE('',#420,#419);
#422=DIRECTION('',(0.E0,0.E0,-1.E0));
#423=VECTOR('',#422,3.E0);
#424=CARTESIAN_POINT('',(0.E0,-2.3E1,1.5E0));
#425=LINE('',#424,#423);
#426=DIRECTION('',(0.E0,0.E0,-1.E0));
#427=VECTOR('',#426,3.E0);
#428=CARTESIAN_POINT('',(0.E0,2.3E1,1.5E0));
#429=LINE('',#428,#427);
#430=DIRECTION('',(0.E0,0.E0,-1.E0));
#431=VECTOR('',#430,3.E0);
#432=CARTESIAN_POINT('',(0.E0,2.E1,1.5E0));
#433=LINE('',#432,#431);
#434=DIRECTION('',(0.E0,0.E0,-1.E0));
#435=VECTOR('',#434,3.E0);
#436=CARTESIAN_POINT('',(-5.E0,-5.E0,1.5E0));
#437=LINE('',#436,#435);
#438=DIRECTION('',(0.E0,0.E0,-1.E0));
#439=VECTOR('',#438,3.E0);
#440=CARTESIAN_POINT('',(-5.E0,5.E0,1.5E0));
#441=LINE('',#440,#439);
#442=DIRECTION('',(0.E0,0.E0,-1.E0));
#443=VECTOR('',#442,3.E0);
#444=CARTESIAN_POINT('',(5.E0,5.E0,1.5E0));
#445=LINE('',#444,#443);
#446=DIRECTION('',(0.E0,0.E0,-1.E0));
#447=VECTOR('',#446,3.E0);
#448=CARTESIAN_POINT('',(5.E0,-5.E0,1.5E0));
#449=LINE('',#448,#447);
#450=CARTESIAN_POINT('',(-1.15E1,1.E1,-1.5E0));
#451=CARTESIAN_POINT('',(-1.15E1,1.E1,1.5E0));
#452=VERTEX_POINT('',#450);
#453=VERTEX_POINT('',#451);
#454=CARTESIAN_POINT('',(-1.E1,1.15E1,-1.5E0));
#455=CARTESIAN_POINT('',(-1.E1,1.15E1,1.5E0));
#456=VERTEX_POINT('',#454);
#457=VERTEX_POINT('',#455);
#458=CARTESIAN_POINT('',(-1.E1,-1.15E1,-1.5E0));
#459=CARTESIAN_POINT('',(-1.E1,-1.15E1,1.5E0));
#460=VERTEX_POINT('',#458);
#461=VERTEX_POINT('',#459);
#462=CARTESIAN_POINT('',(-1.15E1,-1.E1,-1.5E0));
#463=CARTESIAN_POINT('',(-1.15E1,-1.E1,1.5E0));
#464=VERTEX_POINT('',#462);
#465=VERTEX_POINT('',#463);
#466=CARTESIAN_POINT('',(-2.092148523289E1,1.E1,1.5E0));
#467=CARTESIAN_POINT('',(-2.092148523289E1,1.E1,-1.5E0));
#468=VERTEX_POINT('',#466);
#469=VERTEX_POINT('',#467);
#470=CARTESIAN_POINT('',(-2.185852780422E1,1.267130321416E1,1.5E0));
#471=CARTESIAN_POINT('',(-2.185852780422E1,1.267130321416E1,-1.5E0));
#472=VERTEX_POINT('',#470);
#473=VERTEX_POINT('',#471);
#474=CARTESIAN_POINT('',(-1.E1,1.903718818631E1,-1.5E0));
#475=CARTESIAN_POINT('',(-1.E1,1.903718818631E1,1.5E0));
#476=VERTEX_POINT('',#474);
#477=VERTEX_POINT('',#475);
#478=CARTESIAN_POINT('',(-1.243704257133E1,2.020849140047E1,-1.5E0));
#479=CARTESIAN_POINT('',(-1.243704257133E1,2.020849140047E1,1.5E0));
#480=VERTEX_POINT('',#478);
#481=VERTEX_POINT('',#479);
#482=CARTESIAN_POINT('',(-1.E1,-1.903718818631E1,1.5E0));
#483=CARTESIAN_POINT('',(-1.E1,-1.903718818631E1,-1.5E0));
#484=VERTEX_POINT('',#482);
#485=VERTEX_POINT('',#483);
#486=CARTESIAN_POINT('',(-1.243704257133E1,-2.020849140047E1,1.5E0));
#487=CARTESIAN_POINT('',(-1.243704257133E1,-2.020849140047E1,-1.5E0));
#488=VERTEX_POINT('',#486);
#489=VERTEX_POINT('',#487);
#490=CARTESIAN_POINT('',(-2.092148523289E1,-1.E1,-1.5E0));
#491=CARTESIAN_POINT('',(-2.092148523289E1,-1.E1,1.5E0));
#492=VERTEX_POINT('',#490);
#493=VERTEX_POINT('',#491);
#494=CARTESIAN_POINT('',(-2.185852780422E1,-1.267130321416E1,-1.5E0));
#495=CARTESIAN_POINT('',(-2.185852780422E1,-1.267130321416E1,1.5E0));
#496=VERTEX_POINT('',#494);
#497=VERTEX_POINT('',#495);
#498=CARTESIAN_POINT('',(8.5E0,2.6E1,-1.5E0));
#499=CARTESIAN_POINT('',(1.E1,2.45E1,-1.5E0));
#500=VERTEX_POINT('',#498);
#501=VERTEX_POINT('',#499);
#502=CARTESIAN_POINT('',(1.E1,2.45E1,1.5E0));
#503=VERTEX_POINT('',#502);
#504=CARTESIAN_POINT('',(8.5E0,2.6E1,1.5E0));
#505=VERTEX_POINT('',#504);
#506=CARTESIAN_POINT('',(1.E1,-2.45E1,-1.5E0));
#507=CARTESIAN_POINT('',(8.5E0,-2.6E1,-1.5E0));
#508=VERTEX_POINT('',#506);
#509=VERTEX_POINT('',#507);
#510=CARTESIAN_POINT('',(8.5E0,-2.6E1,1.5E0));
#511=VERTEX_POINT('',#510);
#512=CARTESIAN_POINT('',(1.E1,-2.45E1,1.5E0));
#513=VERTEX_POINT('',#512);
#514=CARTESIAN_POINT('',(-3.E1,9.279062728770E0,-1.5E0));
#515=CARTESIAN_POINT('',(-2.943704257133E1,1.045036594293E1,-1.5E0));
#516=VERTEX_POINT('',#514);
#517=VERTEX_POINT('',#515);
#518=CARTESIAN_POINT('',(-2.943704257133E1,1.045036594293E1,1.5E0));
#519=VERTEX_POINT('',#518);
#520=CARTESIAN_POINT('',(-3.E1,9.279062728770E0,1.5E0));
#521=VERTEX_POINT('',#520);
#522=CARTESIAN_POINT('',(-9.473828410963E0,2.6E1,1.5E0));
#523=CARTESIAN_POINT('',(-1.041087098229E1,2.567130321416E1,1.5E0));
#524=VERTEX_POINT('',#522);
#525=VERTEX_POINT('',#523);
#526=CARTESIAN_POINT('',(-1.041087098229E1,2.567130321416E1,-1.5E0));
#527=VERTEX_POINT('',#526);
#528=CARTESIAN_POINT('',(-9.473828410963E0,2.6E1,-1.5E0));
#529=VERTEX_POINT('',#528);
#530=CARTESIAN_POINT('',(-9.473828410963E0,-2.6E1,-1.5E0));
#531=CARTESIAN_POINT('',(-1.041087098229E1,-2.567130321416E1,-1.5E0));
#532=VERTEX_POINT('',#530);
#533=VERTEX_POINT('',#531);
#534=CARTESIAN_POINT('',(-1.041087098229E1,-2.567130321416E1,1.5E0));
#535=VERTEX_POINT('',#534);
#536=CARTESIAN_POINT('',(-9.473828410963E0,-2.6E1,1.5E0));
#537=VERTEX_POINT('',#536);
#538=CARTESIAN_POINT('',(-3.E1,-9.279062728770E0,1.5E0));
#539=CARTESIAN_POINT('',(-2.943704257133E1,-1.045036594293E1,1.5E0));
#540=VERTEX_POINT('',#538);
#541=VERTEX_POINT('',#539);
#542=CARTESIAN_POINT('',(-2.943704257133E1,-1.045036594293E1,-1.5E0));
#543=VERTEX_POINT('',#542);
#544=CARTESIAN_POINT('',(-3.E1,-9.279062728770E0,-1.5E0));
#545=VERTEX_POINT('',#544);
#546=CARTESIAN_POINT('',(-2.E1,1.5E0,-1.5E0));
#547=CARTESIAN_POINT('',(-2.E1,-1.5E0,-1.5E0));
#548=VERTEX_POINT('',#546);
#549=VERTEX_POINT('',#547);
#550=CARTESIAN_POINT('',(0.E0,-2.E1,-1.5E0));
#551=CARTESIAN_POINT('',(0.E0,-2.3E1,-1.5E0));
#552=VERTEX_POINT('',#550);
#553=VERTEX_POINT('',#551);
#554=CARTESIAN_POINT('',(0.E0,2.3E1,-1.5E0));
#555=CARTESIAN_POINT('',(0.E0,2.E1,-1.5E0));
#556=VERTEX_POINT('',#554);
#557=VERTEX_POINT('',#555);
#558=CARTESIAN_POINT('',(-2.E1,1.5E0,1.5E0));
#559=CARTESIAN_POINT('',(-2.E1,-1.5E0,1.5E0));
#560=VERTEX_POINT('',#558);
#561=VERTEX_POINT('',#559);
#562=CARTESIAN_POINT('',(0.E0,-2.E1,1.5E0));
#563=CARTESIAN_POINT('',(0.E0,-2.3E1,1.5E0));
#564=VERTEX_POINT('',#562);
#565=VERTEX_POINT('',#563);
#566=CARTESIAN_POINT('',(0.E0,2.3E1,1.5E0));
#567=CARTESIAN_POINT('',(0.E0,2.E1,1.5E0));
#568=VERTEX_POINT('',#566);
#569=VERTEX_POINT('',#567);
#570=CARTESIAN_POINT('',(-5.E0,-5.E0,1.5E0));
#571=CARTESIAN_POINT('',(-5.E0,-5.E0,-1.5E0));
#572=VERTEX_POINT('',#570);
#573=VERTEX_POINT('',#571);
#574=CARTESIAN_POINT('',(5.E0,5.E0,1.5E0));
#575=CARTESIAN_POINT('',(5.E0,5.E0,-1.5E0));
#576=VERTEX_POINT('',#574);
#577=VERTEX_POINT('',#575);
#578=CARTESIAN_POINT('',(5.E0,-5.E0,-1.5E0));
#579=VERTEX_POINT('',#578);
#580=CARTESIAN_POINT('',(-5.E0,5.E0,-1.5E0));
#581=VERTEX_POINT('',#580);
#582=CARTESIAN_POINT('',(5.E0,-5.E0,1.5E0));
#583=VERTEX_POINT('',#582);
#584=CARTESIAN_POINT('',(-5.E0,5.E0,1.5E0));
#585=VERTEX_POINT('',#584);
#586=CARTESIAN_POINT('',(0.E0,0.E0,-1.5E0));
#587=DIRECTION('',(0.E0,0.E0,1.E0));
#588=DIRECTION('',(0.E0,1.E0,0.E0));
#589=AXIS2_PLACEMENT_3D('',#586,#587,#588);
#590=PLANE('',#589);
#592=ORIENTED_EDGE('',*,*,#591,.F.);
#594=ORIENTED_EDGE('',*,*,#593,.T.);
#596=ORIENTED_EDGE('',*,*,#595,.F.);
#598=ORIENTED_EDGE('',*,*,#597,.T.);
#600=ORIENTED_EDGE('',*,*,#599,.F.);
#602=ORIENTED_EDGE('',*,*,#601,.T.);
#604=ORIENTED_EDGE('',*,*,#603,.F.);
#606=ORIENTED_EDGE('',*,*,#605,.T.);
#608=ORIENTED_EDGE('',*,*,#607,.F.);
#610=ORIENTED_EDGE('',*,*,#609,.T.);
#612=ORIENTED_EDGE('',*,*,#611,.F.);
#614=ORIENTED_EDGE('',*,*,#613,.T.);
#615=EDGE_LOOP('',(#592,#594,#596,#598,#600,#602,#604,#606,#608,#610,#612,
#614));
#616=FACE_OUTER_BOUND('',#615,.F.);
#618=ORIENTED_EDGE('',*,*,#617,.T.);
#620=ORIENTED_EDGE('',*,*,#619,.F.);
#622=ORIENTED_EDGE('',*,*,#621,.T.);
#624=ORIENTED_EDGE('',*,*,#623,.F.);
#626=ORIENTED_EDGE('',*,*,#625,.T.);
#628=ORIENTED_EDGE('',*,*,#627,.F.);
#629=EDGE_LOOP('',(#618,#620,#622,#624,#626,#628));
#630=FACE_BOUND('',#629,.F.);
#632=ORIENTED_EDGE('',*,*,#631,.T.);
#634=ORIENTED_EDGE('',*,*,#633,.F.);
#636=ORIENTED_EDGE('',*,*,#635,.T.);
#638=ORIENTED_EDGE('',*,*,#637,.F.);
#640=ORIENTED_EDGE('',*,*,#639,.T.);
#642=ORIENTED_EDGE('',*,*,#641,.F.);
#643=EDGE_LOOP('',(#632,#634,#636,#638,#640,#642));
#644=FACE_BOUND('',#643,.F.);
#646=ORIENTED_EDGE('',*,*,#645,.F.);
#648=ORIENTED_EDGE('',*,*,#647,.F.);
#649=EDGE_LOOP('',(#646,#648));
#650=FACE_BOUND('',#649,.F.);
#652=ORIENTED_EDGE('',*,*,#651,.F.);
#654=ORIENTED_EDGE('',*,*,#653,.F.);
#655=EDGE_LOOP('',(#652,#654));
#656=FACE_BOUND('',#655,.F.);
#658=ORIENTED_EDGE('',*,*,#657,.F.);
#660=ORIENTED_EDGE('',*,*,#659,.F.);
#661=EDGE_LOOP('',(#658,#660));
#662=FACE_BOUND('',#661,.F.);
#664=ORIENTED_EDGE('',*,*,#663,.F.);
#666=ORIENTED_EDGE('',*,*,#665,.T.);
#668=ORIENTED_EDGE('',*,*,#667,.F.);
#670=ORIENTED_EDGE('',*,*,#669,.T.);
#671=EDGE_LOOP('',(#664,#666,#668,#670));
#672=FACE_BOUND('',#671,.F.);
#673=ADVANCED_FACE('',(#616,#630,#644,#650,#656,#662,#672),#590,.F.);
#674=CARTESIAN_POINT('',(8.5E0,2.45E1,5.4108E0));
#675=DIRECTION('',(0.E0,0.E0,-1.E0));
#676=DIRECTION('',(0.E0,1.E0,0.E0));
#677=AXIS2_PLACEMENT_3D('',#674,#675,#676);
#678=CYLINDRICAL_SURFACE('',#677,1.5E0);
#679=ORIENTED_EDGE('',*,*,#591,.T.);
#681=ORIENTED_EDGE('',*,*,#680,.F.);
#683=ORIENTED_EDGE('',*,*,#682,.T.);
#685=ORIENTED_EDGE('',*,*,#684,.T.);
#686=EDGE_LOOP('',(#679,#681,#683,#685));
#687=FACE_OUTER_BOUND('',#686,.F.);
#688=ADVANCED_FACE('',(#687),#678,.T.);
#689=CARTESIAN_POINT('',(1.E1,-2.6E1,-1.5E0));
#690=DIRECTION('',(1.E0,0.E0,0.E0));
#691=DIRECTION('',(0.E0,1.E0,0.E0));
#692=AXIS2_PLACEMENT_3D('',#689,#690,#691);
#693=PLANE('',#692);
#694=ORIENTED_EDGE('',*,*,#680,.T.);
#695=ORIENTED_EDGE('',*,*,#613,.F.);
#697=ORIENTED_EDGE('',*,*,#696,.F.);
#699=ORIENTED_EDGE('',*,*,#698,.T.);
#700=EDGE_LOOP('',(#694,#695,#697,#699));
#701=FACE_OUTER_BOUND('',#700,.F.);
#702=ADVANCED_FACE('',(#701),#693,.T.);
#703=CARTESIAN_POINT('',(8.5E0,-2.45E1,5.4108E0));
#704=DIRECTION('',(0.E0,0.E0,-1.E0));
#705=DIRECTION('',(1.E0,0.E0,0.E0));
#706=AXIS2_PLACEMENT_3D('',#703,#704,#705);
#707=CYLINDRICAL_SURFACE('',#706,1.5E0);
#708=ORIENTED_EDGE('',*,*,#611,.T.);
#710=ORIENTED_EDGE('',*,*,#709,.F.);
#712=ORIENTED_EDGE('',*,*,#711,.T.);
#713=ORIENTED_EDGE('',*,*,#696,.T.);
#714=EDGE_LOOP('',(#708,#710,#712,#713));
#715=FACE_OUTER_BOUND('',#714,.F.);
#716=ADVANCED_FACE('',(#715),#707,.T.);
#717=CARTESIAN_POINT('',(-1.E1,-2.6E1,-1.5E0));
#718=DIRECTION('',(0.E0,-1.E0,0.E0));
#719=DIRECTION('',(1.E0,0.E0,0.E0));
#720=AXIS2_PLACEMENT_3D('',#717,#718,#719);
#721=PLANE('',#720);
#722=ORIENTED_EDGE('',*,*,#709,.T.);
#723=ORIENTED_EDGE('',*,*,#609,.F.);
#725=ORIENTED_EDGE('',*,*,#724,.F.);
#727=ORIENTED_EDGE('',*,*,#726,.T.);
#728=EDGE_LOOP('',(#722,#723,#725,#727));
#729=FACE_OUTER_BOUND('',#728,.F.);
#730=ADVANCED_FACE('',(#729),#721,.T.);
#731=CARTESIAN_POINT('',(-9.473828410963E0,-2.45E1,5.4108E0));
#732=DIRECTION('',(0.E0,0.E0,-1.E0));
#733=DIRECTION('',(0.E0,-1.E0,0.E0));
#734=AXIS2_PLACEMENT_3D('',#731,#732,#733);
#735=CYLINDRICAL_SURFACE('',#734,1.5E0);
#736=ORIENTED_EDGE('',*,*,#607,.T.);
#738=ORIENTED_EDGE('',*,*,#737,.F.);
#740=ORIENTED_EDGE('',*,*,#739,.T.);
#741=ORIENTED_EDGE('',*,*,#724,.T.);
#742=EDGE_LOOP('',(#736,#738,#740,#741));
#743=FACE_OUTER_BOUND('',#742,.F.);
#744=ADVANCED_FACE('',(#743),#735,.T.);
#745=CARTESIAN_POINT('',(-3.E1,-1.E1,1.5E0));
#746=DIRECTION('',(-6.246950475544E-1,-7.808688094430E-1,0.E0));
#747=DIRECTION('',(7.808688094430E-1,-6.246950475544E-1,0.E0));
#748=AXIS2_PLACEMENT_3D('',#745,#746,#747);
#749=PLANE('',#748);
#750=ORIENTED_EDGE('',*,*,#737,.T.);
#751=ORIENTED_EDGE('',*,*,#605,.F.);
#753=ORIENTED_EDGE('',*,*,#752,.T.);
#755=ORIENTED_EDGE('',*,*,#754,.T.);
#756=EDGE_LOOP('',(#750,#751,#753,#755));
#757=FACE_OUTER_BOUND('',#756,.F.);
#758=ADVANCED_FACE('',(#757),#749,.T.);
#759=CARTESIAN_POINT('',(-2.85E1,-9.279062728770E0,-5.4108E0));
#760=DIRECTION('',(0.E0,0.E0,1.E0));
#761=DIRECTION('',(-1.E0,0.E0,0.E0));
#762=AXIS2_PLACEMENT_3D('',#759,#760,#761);
#763=CYLINDRICAL_SURFACE('',#762,1.5E0);
#765=ORIENTED_EDGE('',*,*,#764,.T.);
#766=ORIENTED_EDGE('',*,*,#752,.F.);
#767=ORIENTED_EDGE('',*,*,#603,.T.);
#769=ORIENTED_EDGE('',*,*,#768,.T.);
#770=EDGE_LOOP('',(#765,#766,#767,#769));
#771=FACE_OUTER_BOUND('',#770,.F.);
#772=ADVANCED_FACE('',(#771),#763,.T.);
#773=CARTESIAN_POINT('',(0.E0,0.E0,1.5E0));
#774=DIRECTION('',(0.E0,0.E0,1.E0));
#775=DIRECTION('',(0.E0,1.E0,0.E0));
#776=AXIS2_PLACEMENT_3D('',#773,#774,#775);
#777=PLANE('',#776);
#778=ORIENTED_EDGE('',*,*,#682,.F.);
#779=ORIENTED_EDGE('',*,*,#698,.F.);
#780=ORIENTED_EDGE('',*,*,#711,.F.);
#781=ORIENTED_EDGE('',*,*,#726,.F.);
#782=ORIENTED_EDGE('',*,*,#739,.F.);
#783=ORIENTED_EDGE('',*,*,#754,.F.);
#784=ORIENTED_EDGE('',*,*,#764,.F.);
#786=ORIENTED_EDGE('',*,*,#785,.F.);
#788=ORIENTED_EDGE('',*,*,#787,.F.);
#790=ORIENTED_EDGE('',*,*,#789,.F.);
#792=ORIENTED_EDGE('',*,*,#791,.F.);
#794=ORIENTED_EDGE('',*,*,#793,.F.);
#795=EDGE_LOOP('',(#778,#779,#780,#781,#782,#783,#784,#786,#788,#790,#792,
#794));
#796=FACE_OUTER_BOUND('',#795,.F.);
#798=ORIENTED_EDGE('',*,*,#797,.F.);
#800=ORIENTED_EDGE('',*,*,#799,.F.);
#802=ORIENTED_EDGE('',*,*,#801,.F.);
#804=ORIENTED_EDGE('',*,*,#803,.F.);
#806=ORIENTED_EDGE('',*,*,#805,.F.);
#808=ORIENTED_EDGE('',*,*,#807,.F.);
#809=EDGE_LOOP('',(#798,#800,#802,#804,#806,#808));
#810=FACE_BOUND('',#809,.F.);
#812=ORIENTED_EDGE('',*,*,#811,.F.);
#814=ORIENTED_EDGE('',*,*,#813,.F.);
#816=ORIENTED_EDGE('',*,*,#815,.F.);
#818=ORIENTED_EDGE('',*,*,#817,.F.);
#820=ORIENTED_EDGE('',*,*,#819,.F.);
#822=ORIENTED_EDGE('',*,*,#821,.F.);
#823=EDGE_LOOP('',(#812,#814,#816,#818,#820,#822));
#824=FACE_BOUND('',#823,.F.);
#826=ORIENTED_EDGE('',*,*,#825,.T.);
#828=ORIENTED_EDGE('',*,*,#827,.T.);
#829=EDGE_LOOP('',(#826,#828));
#830=FACE_BOUND('',#829,.F.);
#832=ORIENTED_EDGE('',*,*,#831,.T.);
#834=ORIENTED_EDGE('',*,*,#833,.T.);
#835=EDGE_LOOP('',(#832,#834));
#836=FACE_BOUND('',#835,.F.);
#838=ORIENTED_EDGE('',*,*,#837,.T.);
#840=ORIENTED_EDGE('',*,*,#839,.T.);
#841=EDGE_LOOP('',(#838,#840));
#842=FACE_BOUND('',#841,.F.);
#844=ORIENTED_EDGE('',*,*,#843,.T.);
#846=ORIENTED_EDGE('',*,*,#845,.T.);
#848=ORIENTED_EDGE('',*,*,#847,.T.);
#850=ORIENTED_EDGE('',*,*,#849,.T.);
#851=EDGE_LOOP('',(#844,#846,#848,#850));
#852=FACE_BOUND('',#851,.F.);
#853=ADVANCED_FACE('',(#796,#810,#824,#830,#836,#842,#852),#777,.T.);
#854=CARTESIAN_POINT('',(-3.E1,1.E1,-1.5E0));
#855=DIRECTION('',(-1.E0,0.E0,0.E0));
#856=DIRECTION('',(0.E0,-1.E0,0.E0));
#857=AXIS2_PLACEMENT_3D('',#854,#855,#856);
#858=PLANE('',#857);
#860=ORIENTED_EDGE('',*,*,#859,.F.);
#861=ORIENTED_EDGE('',*,*,#785,.T.);
#862=ORIENTED_EDGE('',*,*,#768,.F.);
#863=ORIENTED_EDGE('',*,*,#601,.F.);
#864=EDGE_LOOP('',(#860,#861,#862,#863));
#865=FACE_OUTER_BOUND('',#864,.F.);
#866=ADVANCED_FACE('',(#865),#858,.T.);
#867=CARTESIAN_POINT('',(-2.85E1,9.279062728770E0,5.4108E0));
#868=DIRECTION('',(0.E0,0.E0,-1.E0));
#869=DIRECTION('',(-1.E0,0.E0,0.E0));
#870=AXIS2_PLACEMENT_3D('',#867,#868,#869);
#871=CYLINDRICAL_SURFACE('',#870,1.5E0);
#872=ORIENTED_EDGE('',*,*,#599,.T.);
#874=ORIENTED_EDGE('',*,*,#873,.F.);
#875=ORIENTED_EDGE('',*,*,#787,.T.);
#876=ORIENTED_EDGE('',*,*,#859,.T.);
#877=EDGE_LOOP('',(#872,#874,#875,#876));
#878=FACE_OUTER_BOUND('',#877,.F.);
#879=ADVANCED_FACE('',(#878),#871,.T.);
#880=CARTESIAN_POINT('',(-1.E1,2.6E1,1.5E0));
#881=DIRECTION('',(-6.246950475544E-1,7.808688094430E-1,0.E0));
#882=DIRECTION('',(-7.808688094430E-1,-6.246950475544E-1,0.E0));
#883=AXIS2_PLACEMENT_3D('',#880,#881,#882);
#884=PLANE('',#883);
#885=ORIENTED_EDGE('',*,*,#873,.T.);
#886=ORIENTED_EDGE('',*,*,#597,.F.);
#888=ORIENTED_EDGE('',*,*,#887,.T.);
#889=ORIENTED_EDGE('',*,*,#789,.T.);
#890=EDGE_LOOP('',(#885,#886,#888,#889));
#891=FACE_OUTER_BOUND('',#890,.F.);
#892=ADVANCED_FACE('',(#891),#884,.T.);
#893=CARTESIAN_POINT('',(-9.473828410963E0,2.45E1,-5.4108E0));
#894=DIRECTION('',(0.E0,0.E0,1.E0));
#895=DIRECTION('',(0.E0,1.E0,0.E0));
#896=AXIS2_PLACEMENT_3D('',#893,#894,#895);
#897=CYLINDRICAL_SURFACE('',#896,1.5E0);
#898=ORIENTED_EDGE('',*,*,#791,.T.);
#899=ORIENTED_EDGE('',*,*,#887,.F.);
#900=ORIENTED_EDGE('',*,*,#595,.T.);
#902=ORIENTED_EDGE('',*,*,#901,.T.);
#903=EDGE_LOOP('',(#898,#899,#900,#902));
#904=FACE_OUTER_BOUND('',#903,.F.);
#905=ADVANCED_FACE('',(#904),#897,.T.);
#906=CARTESIAN_POINT('',(1.E1,2.6E1,-1.5E0));
#907=DIRECTION('',(0.E0,1.E0,0.E0));
#908=DIRECTION('',(-1.E0,0.E0,0.E0));
#909=AXIS2_PLACEMENT_3D('',#906,#907,#908);
#910=PLANE('',#909);
#911=ORIENTED_EDGE('',*,*,#684,.F.);
#912=ORIENTED_EDGE('',*,*,#793,.T.);
#913=ORIENTED_EDGE('',*,*,#901,.F.);
#914=ORIENTED_EDGE('',*,*,#593,.F.);
#915=EDGE_LOOP('',(#911,#912,#913,#914));
#916=FACE_OUTER_BOUND('',#915,.F.);
#917=ADVANCED_FACE('',(#916),#910,.T.);
#918=CARTESIAN_POINT('',(-2.519765682193E1,1.E1,1.5E0));
#919=DIRECTION('',(6.246950475544E-1,-7.808688094430E-1,0.E0));
#920=DIRECTION('',(7.808688094430E-1,6.246950475544E-1,0.E0));
#921=AXIS2_PLACEMENT_3D('',#918,#919,#920);
#922=PLANE('',#921);
#924=ORIENTED_EDGE('',*,*,#923,.F.);
#925=ORIENTED_EDGE('',*,*,#797,.T.);
#927=ORIENTED_EDGE('',*,*,#926,.F.);
#928=ORIENTED_EDGE('',*,*,#621,.F.);
#929=EDGE_LOOP('',(#924,#925,#927,#928));
#930=FACE_OUTER_BOUND('',#929,.F.);
#931=ADVANCED_FACE('',(#930),#922,.T.);
#932=CARTESIAN_POINT('',(-2.092148523289E1,1.15E1,5.4108E0));
#933=DIRECTION('',(0.E0,0.E0,-1.E0));
#934=DIRECTION('',(0.E0,-1.E0,0.E0));
#935=AXIS2_PLACEMENT_3D('',#932,#933,#934);
#936=CYLINDRICAL_SURFACE('',#935,1.5E0);
#938=ORIENTED_EDGE('',*,*,#937,.F.);
#939=ORIENTED_EDGE('',*,*,#799,.T.);
#940=ORIENTED_EDGE('',*,*,#923,.T.);
#941=ORIENTED_EDGE('',*,*,#619,.T.);
#942=EDGE_LOOP('',(#938,#939,#940,#941));
#943=FACE_OUTER_BOUND('',#942,.F.);
#944=ADVANCED_FACE('',(#943),#936,.F.);
#945=CARTESIAN_POINT('',(-1.E1,1.E1,-1.5E0));
#946=DIRECTION('',(0.E0,1.E0,0.E0));
#947=DIRECTION('',(-1.E0,0.E0,0.E0));
#948=AXIS2_PLACEMENT_3D('',#945,#946,#947);
#949=PLANE('',#948);
#951=ORIENTED_EDGE('',*,*,#950,.T.);
#952=ORIENTED_EDGE('',*,*,#801,.T.);
#953=ORIENTED_EDGE('',*,*,#937,.T.);
#954=ORIENTED_EDGE('',*,*,#617,.F.);
#955=EDGE_LOOP('',(#951,#952,#953,#954));
#956=FACE_OUTER_BOUND('',#955,.F.);
#957=ADVANCED_FACE('',(#956),#949,.T.);
#958=CARTESIAN_POINT('',(-1.15E1,1.15E1,-5.4108E0));
#959=DIRECTION('',(0.E0,0.E0,1.E0));
#960=DIRECTION('',(0.E0,-1.E0,0.E0));
#961=AXIS2_PLACEMENT_3D('',#958,#959,#960);
#962=CYLINDRICAL_SURFACE('',#961,1.5E0);
#963=ORIENTED_EDGE('',*,*,#950,.F.);
#964=ORIENTED_EDGE('',*,*,#627,.T.);
#966=ORIENTED_EDGE('',*,*,#965,.T.);
#967=ORIENTED_EDGE('',*,*,#803,.T.);
#968=EDGE_LOOP('',(#963,#964,#966,#967));
#969=FACE_OUTER_BOUND('',#968,.F.);
#970=ADVANCED_FACE('',(#969),#962,.F.);
#971=CARTESIAN_POINT('',(-1.E1,2.6E1,-1.5E0));
#972=DIRECTION('',(-1.E0,0.E0,0.E0));
#973=DIRECTION('',(0.E0,-1.E0,0.E0));
#974=AXIS2_PLACEMENT_3D('',#971,#972,#973);
#975=PLANE('',#974);
#976=ORIENTED_EDGE('',*,*,#965,.F.);
#977=ORIENTED_EDGE('',*,*,#625,.F.);
#979=ORIENTED_EDGE('',*,*,#978,.T.);
#980=ORIENTED_EDGE('',*,*,#805,.T.);
#981=EDGE_LOOP('',(#976,#977,#979,#980));
#982=FACE_OUTER_BOUND('',#981,.F.);
#983=ADVANCED_FACE('',(#982),#975,.T.);
#984=CARTESIAN_POINT('',(-1.15E1,1.903718818631E1,-5.4108E0));
#985=DIRECTION('',(0.E0,0.E0,1.E0));
#986=DIRECTION('',(1.E0,0.E0,0.E0));
#987=AXIS2_PLACEMENT_3D('',#984,#985,#986);
#988=CYLINDRICAL_SURFACE('',#987,1.5E0);
#989=ORIENTED_EDGE('',*,*,#978,.F.);
#990=ORIENTED_EDGE('',*,*,#623,.T.);
#991=ORIENTED_EDGE('',*,*,#926,.T.);
#992=ORIENTED_EDGE('',*,*,#807,.T.);
#993=EDGE_LOOP('',(#989,#990,#991,#992));
#994=FACE_OUTER_BOUND('',#993,.F.);
#995=ADVANCED_FACE('',(#994),#988,.F.);
#996=CARTESIAN_POINT('',(-1.E1,-1.E1,-1.5E0));
#997=DIRECTION('',(-1.E0,0.E0,0.E0));
#998=DIRECTION('',(0.E0,-1.E0,0.E0));
#999=AXIS2_PLACEMENT_3D('',#996,#997,#998);
#1000=PLANE('',#999);
#1002=ORIENTED_EDGE('',*,*,#1001,.T.);
#1003=ORIENTED_EDGE('',*,*,#811,.T.);
#1005=ORIENTED_EDGE('',*,*,#1004,.T.);
#1006=ORIENTED_EDGE('',*,*,#635,.F.);
#1007=EDGE_LOOP('',(#1002,#1003,#1005,#1006));
#1008=FACE_OUTER_BOUND('',#1007,.F.);
#1009=ADVANCED_FACE('',(#1008),#1000,.T.);
#1010=CARTESIAN_POINT('',(-1.15E1,-1.15E1,-5.4108E0));
#1011=DIRECTION('',(0.E0,0.E0,1.E0));
#1012=DIRECTION('',(1.E0,0.E0,0.E0));
#1013=AXIS2_PLACEMENT_3D('',#1010,#1011,#1012);
#1014=CYLINDRICAL_SURFACE('',#1013,1.5E0);
#1015=ORIENTED_EDGE('',*,*,#1001,.F.);
#1016=ORIENTED_EDGE('',*,*,#633,.T.);
#1018=ORIENTED_EDGE('',*,*,#1017,.T.);
#1019=ORIENTED_EDGE('',*,*,#813,.T.);
#1020=EDGE_LOOP('',(#1015,#1016,#1018,#1019));
#1021=FACE_OUTER_BOUND('',#1020,.F.);
#1022=ADVANCED_FACE('',(#1021),#1014,.F.);
#1023=CARTESIAN_POINT('',(-3.E1,-1.E1,-1.5E0));
#1024=DIRECTION('',(0.E0,-1.E0,0.E0));
#1025=DIRECTION('',(1.E0,0.E0,0.E0));
#1026=AXIS2_PLACEMENT_3D('',#1023,#1024,#1025);
#1027=PLANE('',#1026);
#1028=ORIENTED_EDGE('',*,*,#1017,.F.);
#1029=ORIENTED_EDGE('',*,*,#631,.F.);
#1031=ORIENTED_EDGE('',*,*,#1030,.T.);
#1032=ORIENTED_EDGE('',*,*,#815,.T.);
#1033=EDGE_LOOP('',(#1028,#1029,#1031,#1032));
#1034=FACE_OUTER_BOUND('',#1033,.F.);
#1035=ADVANCED_FACE('',(#1034),#1027,.T.);
#1036=CARTESIAN_POINT('',(-2.092148523289E1,-1.15E1,-5.4108E0));
#1037=DIRECTION('',(0.E0,0.E0,1.E0));
#1038=DIRECTION('',(0.E0,1.E0,0.E0));
#1039=AXIS2_PLACEMENT_3D('',#1036,#1037,#1038);
#1040=CYLINDRICAL_SURFACE('',#1039,1.5E0);
#1041=ORIENTED_EDGE('',*,*,#1030,.F.);
#1042=ORIENTED_EDGE('',*,*,#641,.T.);
#1044=ORIENTED_EDGE('',*,*,#1043,.T.);
#1045=ORIENTED_EDGE('',*,*,#817,.T.);
#1046=EDGE_LOOP('',(#1041,#1042,#1044,#1045));
#1047=FACE_OUTER_BOUND('',#1046,.F.);
#1048=ADVANCED_FACE('',(#1047),#1040,.F.);
#1049=CARTESIAN_POINT('',(-1.E1,-2.215812545754E1,1.5E0));
#1050=DIRECTION('',(6.246950475544E-1,7.808688094430E-1,0.E0));
#1051=DIRECTION('',(-7.808688094430E-1,6.246950475544E-1,0.E0));
#1052=AXIS2_PLACEMENT_3D('',#1049,#1050,#1051);
#1053=PLANE('',#1052);
#1055=ORIENTED_EDGE('',*,*,#1054,.F.);
#1056=ORIENTED_EDGE('',*,*,#819,.T.);
#1057=ORIENTED_EDGE('',*,*,#1043,.F.);
#1058=ORIENTED_EDGE('',*,*,#639,.F.);
#1059=EDGE_LOOP('',(#1055,#1056,#1057,#1058));
#1060=FACE_OUTER_BOUND('',#1059,.F.);
#1061=ADVANCED_FACE('',(#1060),#1053,.T.);
#1062=CARTESIAN_POINT('',(-1.15E1,-1.903718818631E1,5.4108E0));
#1063=DIRECTION('',(0.E0,0.E0,-1.E0));
#1064=DIRECTION('',(1.E0,0.E0,0.E0));
#1065=AXIS2_PLACEMENT_3D('',#1062,#1063,#1064);
#1066=CYLINDRICAL_SURFACE('',#1065,1.5E0);
#1067=ORIENTED_EDGE('',*,*,#1004,.F.);
#1068=ORIENTED_EDGE('',*,*,#821,.T.);
#1069=ORIENTED_EDGE('',*,*,#1054,.T.);
#1070=ORIENTED_EDGE('',*,*,#637,.T.);
#1071=EDGE_LOOP('',(#1067,#1068,#1069,#1070));
#1072=FACE_OUTER_BOUND('',#1071,.F.);
#1073=ADVANCED_FACE('',(#1072),#1066,.F.);
#1074=CARTESIAN_POINT('',(-2.E1,0.E0,1.5E0));
#1075=DIRECTION('',(0.E0,0.E0,1.E0));
#1076=DIRECTION('',(0.E0,1.E0,0.E0));
#1077=AXIS2_PLACEMENT_3D('',#1074,#1075,#1076);
#1078=CYLINDRICAL_SURFACE('',#1077,1.5E0);
#1079=ORIENTED_EDGE('',*,*,#645,.T.);
#1081=ORIENTED_EDGE('',*,*,#1080,.F.);
#1082=ORIENTED_EDGE('',*,*,#825,.F.);
#1084=ORIENTED_EDGE('',*,*,#1083,.T.);
#1085=EDGE_LOOP('',(#1079,#1081,#1082,#1084));
#1086=FACE_OUTER_BOUND('',#1085,.F.);
#1087=ADVANCED_FACE('',(#1086),#1078,.F.);
#1088=CARTESIAN_POINT('',(-2.E1,0.E0,1.5E0));
#1089=DIRECTION('',(0.E0,0.E0,1.E0));
#1090=DIRECTION('',(0.E0,1.E0,0.E0));
#1091=AXIS2_PLACEMENT_3D('',#1088,#1089,#1090);
#1092=CYLINDRICAL_SURFACE('',#1091,1.5E0);
#1093=ORIENTED_EDGE('',*,*,#647,.T.);
#1094=ORIENTED_EDGE('',*,*,#1083,.F.);
#1095=ORIENTED_EDGE('',*,*,#827,.F.);
#1096=ORIENTED_EDGE('',*,*,#1080,.T.);
#1097=EDGE_LOOP('',(#1093,#1094,#1095,#1096));
#1098=FACE_OUTER_BOUND('',#1097,.F.);
#1099=ADVANCED_FACE('',(#1098),#1092,.F.);
#1100=CARTESIAN_POINT('',(0.E0,-2.15E1,1.5E0));
#1101=DIRECTION('',(0.E0,0.E0,1.E0));
#1102=DIRECTION('',(0.E0,1.E0,0.E0));
#1103=AXIS2_PLACEMENT_3D('',#1100,#1101,#1102);
#1104=CYLINDRICAL_SURFACE('',#1103,1.5E0);
#1105=ORIENTED_EDGE('',*,*,#651,.T.);
#1107=ORIENTED_EDGE('',*,*,#1106,.F.);
#1108=ORIENTED_EDGE('',*,*,#831,.F.);
#1110=ORIENTED_EDGE('',*,*,#1109,.T.);
#1111=EDGE_LOOP('',(#1105,#1107,#1108,#1110));
#1112=FACE_OUTER_BOUND('',#1111,.F.);
#1113=ADVANCED_FACE('',(#1112),#1104,.F.);
#1114=CARTESIAN_POINT('',(0.E0,-2.15E1,1.5E0));
#1115=DIRECTION('',(0.E0,0.E0,1.E0));
#1116=DIRECTION('',(0.E0,1.E0,0.E0));
#1117=AXIS2_PLACEMENT_3D('',#1114,#1115,#1116);
#1118=CYLINDRICAL_SURFACE('',#1117,1.5E0);
#1119=ORIENTED_EDGE('',*,*,#653,.T.);
#1120=ORIENTED_EDGE('',*,*,#1109,.F.);
#1121=ORIENTED_EDGE('',*,*,#833,.F.);
#1122=ORIENTED_EDGE('',*,*,#1106,.T.);
#1123=EDGE_LOOP('',(#1119,#1120,#1121,#1122));
#1124=FACE_OUTER_BOUND('',#1123,.F.);
#1125=ADVANCED_FACE('',(#1124),#1118,.F.);
#1126=CARTESIAN_POINT('',(0.E0,2.15E1,1.5E0));
#1127=DIRECTION('',(0.E0,0.E0,1.E0));
#1128=DIRECTION('',(0.E0,1.E0,0.E0));
#1129=AXIS2_PLACEMENT_3D('',#1126,#1127,#1128);
#1130=CYLINDRICAL_SURFACE('',#1129,1.5E0);
#1131=ORIENTED_EDGE('',*,*,#657,.T.);
#1133=ORIENTED_EDGE('',*,*,#1132,.F.);
#1134=ORIENTED_EDGE('',*,*,#837,.F.);
#1136=ORIENTED_EDGE('',*,*,#1135,.T.);
#1137=EDGE_LOOP('',(#1131,#1133,#1134,#1136));
#1138=FACE_OUTER_BOUND('',#1137,.F.);
#1139=ADVANCED_FACE('',(#1138),#1130,.F.);
#1140=CARTESIAN_POINT('',(0.E0,2.15E1,1.5E0));
#1141=DIRECTION('',(0.E0,0.E0,1.E0));
#1142=DIRECTION('',(0.E0,1.E0,0.E0));
#1143=AXIS2_PLACEMENT_3D('',#1140,#1141,#1142);
#1144=CYLINDRICAL_SURFACE('',#1143,1.5E0);
#1145=ORIENTED_EDGE('',*,*,#659,.T.);
#1146=ORIENTED_EDGE('',*,*,#1135,.F.);
#1147=ORIENTED_EDGE('',*,*,#839,.F.);
#1148=ORIENTED_EDGE('',*,*,#1132,.T.);
#1149=EDGE_LOOP('',(#1145,#1146,#1147,#1148));
#1150=FACE_OUTER_BOUND('',#1149,.F.);
#1151=ADVANCED_FACE('',(#1150),#1144,.F.);
#1152=CARTESIAN_POINT('',(0.E0,-5.E0,7.8156E0));
#1153=DIRECTION('',(0.E0,0.E0,-1.E0));
#1154=DIRECTION('',(0.E0,-1.E0,0.E0));
#1155=AXIS2_PLACEMENT_3D('',#1152,#1153,#1154);
#1156=CYLINDRICAL_SURFACE('',#1155,5.E0);
#1158=ORIENTED_EDGE('',*,*,#1157,.T.);
#1159=ORIENTED_EDGE('',*,*,#665,.F.);
#1161=ORIENTED_EDGE('',*,*,#1160,.F.);
#1162=ORIENTED_EDGE('',*,*,#843,.F.);
#1163=EDGE_LOOP('',(#1158,#1159,#1161,#1162));
#1164=FACE_OUTER_BOUND('',#1163,.F.);
#1165=ADVANCED_FACE('',(#1164),#1156,.F.);
#1166=CARTESIAN_POINT('',(-5.E0,1.E1,1.5E0));
#1167=DIRECTION('',(-1.E0,0.E0,0.E0));
#1168=DIRECTION('',(0.E0,-1.E0,0.E0));
#1169=AXIS2_PLACEMENT_3D('',#1166,#1167,#1168);
#1170=PLANE('',#1169);
#1171=ORIENTED_EDGE('',*,*,#1157,.F.);
#1172=ORIENTED_EDGE('',*,*,#849,.F.);
#1174=ORIENTED_EDGE('',*,*,#1173,.T.);
#1175=ORIENTED_EDGE('',*,*,#667,.T.);
#1176=EDGE_LOOP('',(#1171,#1172,#1174,#1175));
#1177=FACE_OUTER_BOUND('',#1176,.F.);
#1178=ADVANCED_FACE('',(#1177),#1170,.F.);
#1179=CARTESIAN_POINT('',(0.E0,5.E0,7.8156E0));
#1180=DIRECTION('',(0.E0,0.E0,-1.E0));
#1181=DIRECTION('',(0.E0,1.E0,0.E0));
#1182=AXIS2_PLACEMENT_3D('',#1179,#1180,#1181);
#1183=CYLINDRICAL_SURFACE('',#1182,5.E0);
#1185=ORIENTED_EDGE('',*,*,#1184,.T.);
#1186=ORIENTED_EDGE('',*,*,#669,.F.);
#1187=ORIENTED_EDGE('',*,*,#1173,.F.);
#1188=ORIENTED_EDGE('',*,*,#847,.F.);
#1189=EDGE_LOOP('',(#1185,#1186,#1187,#1188));
#1190=FACE_OUTER_BOUND('',#1189,.F.);
#1191=ADVANCED_FACE('',(#1190),#1183,.F.);
#1192=CARTESIAN_POINT('',(5.E0,-1.E1,1.5E0));
#1193=DIRECTION('',(1.E0,0.E0,0.E0));
#1194=DIRECTION('',(0.E0,1.E0,0.E0));
#1195=AXIS2_PLACEMENT_3D('',#1192,#1193,#1194);
#1196=PLANE('',#1195);
#1197=ORIENTED_EDGE('',*,*,#1184,.F.);
#1198=ORIENTED_EDGE('',*,*,#845,.F.);
#1199=ORIENTED_EDGE('',*,*,#1160,.T.);
#1200=ORIENTED_EDGE('',*,*,#663,.T.);
#1201=EDGE_LOOP('',(#1197,#1198,#1199,#1200));
#1202=FACE_OUTER_BOUND('',#1201,.F.);
#1203=ADVANCED_FACE('',(#1202),#1196,.F.);
#1207=DIMENSIONAL_EXPONENTS(0.E0,0.E0,0.E0,0.E0,0.E0,0.E0,0.E0);
#1209=PLANE_ANGLE_MEASURE_WITH_UNIT(PLANE_ANGLE_MEASURE(1.745329251994E-2),
#1208);
#1210=(CONVERSION_BASED_UNIT('DEGREE',#1209)NAMED_UNIT(*)PLANE_ANGLE_UNIT());
#1212=UNCERTAINTY_MEASURE_WITH_UNIT(LENGTH_MEASURE(7.216247903954E-3),#1206,
'closure',
'Maximum model space distance between geometric entities at asserted connectivities');
#1213=(GEOMETRIC_REPRESENTATION_CONTEXT(3)GLOBAL_UNCERTAINTY_ASSIGNED_CONTEXT((
#1212))GLOBAL_UNIT_ASSIGNED_CONTEXT((#1206,#1210,#1211))REPRESENTATION_CONTEXT(
'ID1','3'));
#1215=APPLICATION_CONTEXT(
'CONFIGURATION CONTROLLED 3D DESIGNS OF MECHANICAL PARTS AND ASSEMBLIES');
#1216=APPLICATION_PROTOCOL_DEFINITION('international standard',
'config_control_design',1994,#1215);
#1217=DESIGN_CONTEXT('',#1215,'design');
#1218=MECHANICAL_CONTEXT('',#1215,'mechanical');
#1219=PRODUCT('BANJIEJIAN-2','BANJIEJIAN-2','NOT SPECIFIED',(#1218));
#1220=PRODUCT_DEFINITION_FORMATION_WITH_SPECIFIED_SOURCE('9','LAST_VERSION',
#1219,.MADE.);
#1224=PRODUCT_CATEGORY('part','');
#1225=PRODUCT_RELATED_PRODUCT_CATEGORY('detail','',(#1219));
#1226=PRODUCT_CATEGORY_RELATIONSHIP('','',#1224,#1225);
#1227=SECURITY_CLASSIFICATION_LEVEL('unclassified');
#1228=SECURITY_CLASSIFICATION('','',#1227);
#1229=CC_DESIGN_SECURITY_CLASSIFICATION(#1228,(#1220));
#1230=APPROVAL_STATUS('approved');
#1231=APPROVAL(#1230,'');
#1232=CC_DESIGN_APPROVAL(#1231,(#1228,#1220,#1221));
#1233=CALENDAR_DATE(124,8,4);
#1234=COORDINATED_UNIVERSAL_TIME_OFFSET(8,0,.AHEAD.);
#1235=LOCAL_TIME(20,46,2.E1,#1234);
#1236=DATE_AND_TIME(#1233,#1235);
#1237=APPROVAL_DATE_TIME(#1236,#1231);
#1238=DATE_TIME_ROLE('creation_date');
#1239=CC_DESIGN_DATE_AND_TIME_ASSIGNMENT(#1236,#1238,(#1221));
#1240=DATE_TIME_ROLE('classification_date');
#1241=CC_DESIGN_DATE_AND_TIME_ASSIGNMENT(#1236,#1240,(#1228));
#1242=PERSON('UNSPECIFIED','UNSPECIFIED',$,$,$,$);
#1243=ORGANIZATION('UNSPECIFIED','UNSPECIFIED','UNSPECIFIED');
#1244=PERSON_AND_ORGANIZATION(#1242,#1243);
#1245=APPROVAL_ROLE('approver');
#1246=APPROVAL_PERSON_ORGANIZATION(#1244,#1231,#1245);
#1247=PERSON_AND_ORGANIZATION_ROLE('creator');
#1248=CC_DESIGN_PERSON_AND_ORGANIZATION_ASSIGNMENT(#1244,#1247,(#1220,#1221));
#1249=PERSON_AND_ORGANIZATION_ROLE('design_supplier');
#1250=CC_DESIGN_PERSON_AND_ORGANIZATION_ASSIGNMENT(#1244,#1249,(#1220));
#1251=PERSON_AND_ORGANIZATION_ROLE('classification_officer');
#1252=CC_DESIGN_PERSON_AND_ORGANIZATION_ASSIGNMENT(#1244,#1251,(#1228));
#1253=PERSON_AND_ORGANIZATION_ROLE('design_owner');
#1254=CC_DESIGN_PERSON_AND_ORGANIZATION_ASSIGNMENT(#1244,#1253,(#1219));
#6=CIRCLE('',#5,1.5E0);
#15=CIRCLE('',#14,1.5E0);
#24=CIRCLE('',#23,1.5E0);
#33=CIRCLE('',#32,1.5E0);
#42=CIRCLE('',#41,1.5E0);
#51=CIRCLE('',#50,1.5E0);
#84=CIRCLE('',#83,1.5E0);
#89=CIRCLE('',#88,1.5E0);
#94=CIRCLE('',#93,1.5E0);
#99=CIRCLE('',#98,1.5E0);
#104=CIRCLE('',#103,1.5E0);
#109=CIRCLE('',#108,1.5E0);
#118=CIRCLE('',#117,5.E0);
#127=CIRCLE('',#126,5.E0);
#156=CIRCLE('',#155,1.5E0);
#165=CIRCLE('',#164,1.5E0);
#174=CIRCLE('',#173,1.5E0);
#183=CIRCLE('',#182,1.5E0);
#192=CIRCLE('',#191,1.5E0);
#201=CIRCLE('',#200,1.5E0);
#234=CIRCLE('',#233,1.5E0);
#239=CIRCLE('',#238,1.5E0);
#244=CIRCLE('',#243,1.5E0);
#249=CIRCLE('',#248,1.5E0);
#254=CIRCLE('',#253,1.5E0);
#259=CIRCLE('',#258,1.5E0);
#264=CIRCLE('',#263,5.E0);
#273=CIRCLE('',#272,5.E0);
#314=CIRCLE('',#313,1.5E0);
#319=CIRCLE('',#318,1.5E0);
#332=CIRCLE('',#331,1.5E0);
#337=CIRCLE('',#336,1.5E0);
#350=CIRCLE('',#349,1.5E0);
#355=CIRCLE('',#354,1.5E0);
#368=CIRCLE('',#367,1.5E0);
#373=CIRCLE('',#372,1.5E0);
#386=CIRCLE('',#385,1.5E0);
#391=CIRCLE('',#390,1.5E0);
#404=CIRCLE('',#403,1.5E0);
#409=CIRCLE('',#408,1.5E0);
#591=EDGE_CURVE('',#500,#501,#6,.T.);
#593=EDGE_CURVE('',#500,#529,#10,.T.);
#595=EDGE_CURVE('',#527,#529,#15,.T.);
#597=EDGE_CURVE('',#527,#517,#19,.T.);
#599=EDGE_CURVE('',#516,#517,#24,.T.);
#601=EDGE_CURVE('',#516,#545,#28,.T.);
#603=EDGE_CURVE('',#543,#545,#33,.T.);
#605=EDGE_CURVE('',#543,#533,#37,.T.);
#607=EDGE_CURVE('',#532,#533,#42,.T.);
#609=EDGE_CURVE('',#532,#509,#46,.T.);
#611=EDGE_CURVE('',#508,#509,#51,.T.);
#613=EDGE_CURVE('',#508,#501,#55,.T.);
#617=EDGE_CURVE('',#452,#469,#59,.T.);
#619=EDGE_CURVE('',#473,#469,#319,.T.);
#621=EDGE_CURVE('',#473,#480,#63,.T.);
#623=EDGE_CURVE('',#476,#480,#350,.T.);
#625=EDGE_CURVE('',#476,#456,#67,.T.);
#627=EDGE_CURVE('',#452,#456,#332,.T.);
#631=EDGE_CURVE('',#492,#464,#71,.T.);
#633=EDGE_CURVE('',#460,#464,#368,.T.);
#635=EDGE_CURVE('',#460,#485,#75,.T.);
#637=EDGE_CURVE('',#489,#485,#409,.T.);
#639=EDGE_CURVE('',#489,#496,#79,.T.);
#641=EDGE_CURVE('',#492,#496,#386,.T.);
#645=EDGE_CURVE('',#548,#549,#84,.T.);
#647=EDGE_CURVE('',#549,#548,#89,.T.);
#651=EDGE_CURVE('',#552,#553,#94,.T.);
#653=EDGE_CURVE('',#553,#552,#99,.T.);
#657=EDGE_CURVE('',#556,#557,#104,.T.);
#659=EDGE_CURVE('',#557,#556,#109,.T.);
#663=EDGE_CURVE('',#579,#577,#113,.T.);
#665=EDGE_CURVE('',#579,#573,#118,.T.);
#667=EDGE_CURVE('',#581,#573,#122,.T.);
#669=EDGE_CURVE('',#581,#577,#127,.T.);
#680=EDGE_CURVE('',#503,#501,#131,.T.);
#682=EDGE_CURVE('',#503,#505,#156,.T.);
#684=EDGE_CURVE('',#505,#500,#297,.T.);
#696=EDGE_CURVE('',#513,#508,#135,.T.);
#698=EDGE_CURVE('',#513,#503,#160,.T.);
#709=EDGE_CURVE('',#511,#509,#139,.T.);
#711=EDGE_CURVE('',#511,#513,#165,.T.);
#724=EDGE_CURVE('',#537,#532,#143,.T.);
#726=EDGE_CURVE('',#537,#511,#169,.T.);
#737=EDGE_CURVE('',#535,#533,#147,.T.);
#739=EDGE_CURVE('',#535,#537,#174,.T.);
#752=EDGE_CURVE('',#543,#541,#151,.T.);
#754=EDGE_CURVE('',#541,#535,#178,.T.);
#764=EDGE_CURVE('',#540,#541,#183,.T.);
#768=EDGE_CURVE('',#545,#540,#285,.T.);
#785=EDGE_CURVE('',#521,#540,#187,.T.);
#787=EDGE_CURVE('',#519,#521,#192,.T.);
#789=EDGE_CURVE('',#525,#519,#196,.T.);
#791=EDGE_CURVE('',#524,#525,#201,.T.);
#793=EDGE_CURVE('',#505,#524,#205,.T.);
#797=EDGE_CURVE('',#472,#481,#209,.T.);
#799=EDGE_CURVE('',#468,#472,#314,.T.);
#801=EDGE_CURVE('',#453,#468,#213,.T.);
#803=EDGE_CURVE('',#457,#453,#337,.T.);
#805=EDGE_CURVE('',#477,#457,#217,.T.);
#807=EDGE_CURVE('',#481,#477,#355,.T.);
#811=EDGE_CURVE('',#461,#484,#221,.T.);
#813=EDGE_CURVE('',#465,#461,#373,.T.);
#815=EDGE_CURVE('',#493,#465,#225,.T.);
#817=EDGE_CURVE('',#497,#493,#391,.T.);
#819=EDGE_CURVE('',#488,#497,#229,.T.);
#821=EDGE_CURVE('',#484,#488,#404,.T.);
#825=EDGE_CURVE('',#560,#561,#234,.T.);
#827=EDGE_CURVE('',#561,#560,#239,.T.);
#831=EDGE_CURVE('',#564,#565,#244,.T.);
#833=EDGE_CURVE('',#565,#564,#249,.T.);
#837=EDGE_CURVE('',#568,#569,#254,.T.);
#839=EDGE_CURVE('',#569,#568,#259,.T.);
#843=EDGE_CURVE('',#572,#583,#264,.T.);
#845=EDGE_CURVE('',#583,#576,#268,.T.);
#847=EDGE_CURVE('',#576,#585,#273,.T.);
#849=EDGE_CURVE('',#585,#572,#277,.T.);
#859=EDGE_CURVE('',#521,#516,#281,.T.);
#873=EDGE_CURVE('',#519,#517,#289,.T.);
#887=EDGE_CURVE('',#527,#525,#293,.T.);
#901=EDGE_CURVE('',#529,#524,#301,.T.);
#923=EDGE_CURVE('',#472,#473,#305,.T.);
#926=EDGE_CURVE('',#480,#481,#309,.T.);
#937=EDGE_CURVE('',#468,#469,#327,.T.);
#950=EDGE_CURVE('',#452,#453,#323,.T.);
#965=EDGE_CURVE('',#456,#457,#341,.T.);
#978=EDGE_CURVE('',#476,#477,#345,.T.);
#1001=EDGE_CURVE('',#460,#461,#359,.T.);
#1004=EDGE_CURVE('',#484,#485,#363,.T.);
#1017=EDGE_CURVE('',#464,#465,#377,.T.);
#1030=EDGE_CURVE('',#492,#493,#381,.T.);
#1043=EDGE_CURVE('',#496,#497,#399,.T.);
#1054=EDGE_CURVE('',#488,#489,#395,.T.);
#1080=EDGE_CURVE('',#561,#549,#417,.T.);
#1083=EDGE_CURVE('',#560,#548,#413,.T.);
#1106=EDGE_CURVE('',#565,#553,#425,.T.);
#1109=EDGE_CURVE('',#564,#552,#421,.T.);
#1132=EDGE_CURVE('',#569,#557,#433,.T.);
#1135=EDGE_CURVE('',#568,#556,#429,.T.);
#1157=EDGE_CURVE('',#572,#573,#437,.T.);
#1160=EDGE_CURVE('',#583,#579,#449,.T.);
#1173=EDGE_CURVE('',#585,#581,#441,.T.);
#1184=EDGE_CURVE('',#576,#577,#445,.T.);
#1204=CLOSED_SHELL('',(#673,#688,#702,#716,#730,#744,#758,#772,#853,#866,#879,
#892,#905,#917,#931,#944,#957,#970,#983,#995,#1009,#1022,#1035,#1048,#1061,
#1073,#1087,#1099,#1113,#1125,#1139,#1151,#1165,#1178,#1191,#1203));
#1205=MANIFOLD_SOLID_BREP('',#1204);
#1206=(LENGTH_UNIT()NAMED_UNIT(*)SI_UNIT(.MILLI.,.METRE.));
#1208=(NAMED_UNIT(*)PLANE_ANGLE_UNIT()SI_UNIT($,.RADIAN.));
#1211=(NAMED_UNIT(*)SI_UNIT($,.STERADIAN.)SOLID_ANGLE_UNIT());
#1214=ADVANCED_BREP_SHAPE_REPRESENTATION('',(#1205),#1213);
#1221=PRODUCT_DEFINITION('design','',#1220,#1217);
#1222=PRODUCT_DEFINITION_SHAPE('','SHAPE FOR BANJIEJIAN-2.',#1221);
#1223=SHAPE_DEFINITION_REPRESENTATION(#1222,#1214);
ENDSEC;
END-ISO-10303-21;
