ISO-10303-21;
HEADER;
FILE_DESCRIPTION((''),'2;1');
FILE_NAME('DINGGAI','2024-04-09T10:59:29',('005'),(''),
'CREO PARAMETRIC BY PTC INC, 2020053','CREO PARAMETRIC BY PTC INC, 2020053','');
FILE_SCHEMA(('CONFIG_CONTROL_DESIGN'));
ENDSEC;
DATA;
#2=CARTESIAN_POINT('',(2.425E1,1.25E1,0.E0));
#3=DIRECTION('',(0.E0,0.E0,1.E0));
#4=DIRECTION('',(1.E0,0.E0,0.E0));
#5=AXIS2_PLACEMENT_3D('',#2,#3,#4);
#7=CARTESIAN_POINT('',(2.425E1,1.25E1,0.E0));
#8=DIRECTION('',(0.E0,0.E0,1.E0));
#9=DIRECTION('',(-1.E0,0.E0,0.E0));
#10=AXIS2_PLACEMENT_3D('',#7,#8,#9);
#12=CARTESIAN_POINT('',(2.425E1,-1.25E1,0.E0));
#13=DIRECTION('',(0.E0,0.E0,1.E0));
#14=DIRECTION('',(1.E0,0.E0,0.E0));
#15=AXIS2_PLACEMENT_3D('',#12,#13,#14);
#17=CARTESIAN_POINT('',(2.425E1,-1.25E1,0.E0));
#18=DIRECTION('',(0.E0,0.E0,1.E0));
#19=DIRECTION('',(-1.E0,0.E0,0.E0));
#20=AXIS2_PLACEMENT_3D('',#17,#18,#19);
#22=CARTESIAN_POINT('',(3.05E1,3.E0,0.E0));
#23=DIRECTION('',(0.E0,0.E0,-1.E0));
#24=DIRECTION('',(1.E0,0.E0,0.E0));
#25=AXIS2_PLACEMENT_3D('',#22,#23,#24);
#27=DIRECTION('',(0.E0,-1.E0,0.E0));
#28=VECTOR('',#27,1.122157287525E1);
#29=CARTESIAN_POINT('',(3.15E1,1.422157287525E1,0.E0));
#30=LINE('',#29,#28);
#31=CARTESIAN_POINT('',(3.05E1,1.422157287525E1,0.E0));
#32=DIRECTION('',(0.E0,0.E0,-1.E0));
#33=DIRECTION('',(3.333333333332E-1,9.428090415821E-1,0.E0));
#34=AXIS2_PLACEMENT_3D('',#31,#32,#33);
#36=CARTESIAN_POINT('',(3.15E1,1.705E1,0.E0));
#37=DIRECTION('',(0.E0,0.E0,1.E0));
#38=DIRECTION('',(0.E0,1.E0,0.E0));
#39=AXIS2_PLACEMENT_3D('',#36,#37,#38);
#41=CARTESIAN_POINT('',(3.15E1,2.005E1,0.E0));
#42=DIRECTION('',(0.E0,0.E0,-1.E0));
#43=DIRECTION('',(1.E0,0.E0,0.E0));
#44=AXIS2_PLACEMENT_3D('',#41,#42,#43);
#46=DIRECTION('',(0.E0,1.E0,0.E0));
#47=VECTOR('',#46,2.295E1);
#48=CARTESIAN_POINT('',(3.25E1,2.005E1,0.E0));
#49=LINE('',#48,#47);
#50=CARTESIAN_POINT('',(3.05E1,4.3E1,0.E0));
#51=DIRECTION('',(0.E0,0.E0,-1.E0));
#52=DIRECTION('',(0.E0,1.E0,0.E0));
#53=AXIS2_PLACEMENT_3D('',#50,#51,#52);
#55=DIRECTION('',(-1.E0,0.E0,0.E0));
#56=VECTOR('',#55,6.1E1);
#57=CARTESIAN_POINT('',(3.05E1,4.5E1,0.E0));
#58=LINE('',#57,#56);
#59=CARTESIAN_POINT('',(-3.05E1,4.3E1,0.E0));
#60=DIRECTION('',(0.E0,0.E0,-1.E0));
#61=DIRECTION('',(-1.E0,0.E0,0.E0));
#62=AXIS2_PLACEMENT_3D('',#59,#60,#61);
#64=DIRECTION('',(0.E0,-1.E0,0.E0));
#65=VECTOR('',#64,8.6E1);
#66=CARTESIAN_POINT('',(-3.25E1,4.3E1,0.E0));
#67=LINE('',#66,#65);
#68=CARTESIAN_POINT('',(-3.05E1,-4.3E1,0.E0));
#69=DIRECTION('',(0.E0,0.E0,-1.E0));
#70=DIRECTION('',(0.E0,-1.E0,0.E0));
#71=AXIS2_PLACEMENT_3D('',#68,#69,#70);
#73=DIRECTION('',(1.E0,0.E0,0.E0));
#74=VECTOR('',#73,6.1E1);
#75=CARTESIAN_POINT('',(-3.05E1,-4.5E1,0.E0));
#76=LINE('',#75,#74);
#77=CARTESIAN_POINT('',(3.05E1,-4.3E1,0.E0));
#78=DIRECTION('',(0.E0,0.E0,-1.E0));
#79=DIRECTION('',(1.E0,0.E0,0.E0));
#80=AXIS2_PLACEMENT_3D('',#77,#78,#79);
#82=DIRECTION('',(0.E0,1.E0,0.E0));
#83=VECTOR('',#82,2.295E1);
#84=CARTESIAN_POINT('',(3.25E1,-4.3E1,0.E0));
#85=LINE('',#84,#83);
#86=CARTESIAN_POINT('',(3.15E1,-2.005E1,0.E0));
#87=DIRECTION('',(0.E0,0.E0,-1.E0));
#88=DIRECTION('',(0.E0,1.E0,0.E0));
#89=AXIS2_PLACEMENT_3D('',#86,#87,#88);
#91=CARTESIAN_POINT('',(3.15E1,-1.705E1,0.E0));
#92=DIRECTION('',(0.E0,0.E0,1.E0));
#93=DIRECTION('',(-3.333333333334E-1,9.428090415820E-1,0.E0));
#94=AXIS2_PLACEMENT_3D('',#91,#92,#93);
#96=CARTESIAN_POINT('',(3.05E1,-1.422157287525E1,0.E0));
#97=DIRECTION('',(0.E0,0.E0,-1.E0));
#98=DIRECTION('',(1.E0,0.E0,0.E0));
#99=AXIS2_PLACEMENT_3D('',#96,#97,#98);
#101=DIRECTION('',(0.E0,-1.E0,0.E0));
#102=VECTOR('',#101,1.122157287525E1);
#103=CARTESIAN_POINT('',(3.15E1,-3.E0,0.E0));
#104=LINE('',#103,#102);
#105=CARTESIAN_POINT('',(3.05E1,-3.E0,0.E0));
#106=DIRECTION('',(0.E0,0.E0,-1.E0));
#107=DIRECTION('',(0.E0,1.E0,0.E0));
#108=AXIS2_PLACEMENT_3D('',#105,#106,#107);
#110=DIRECTION('',(-1.E0,0.E0,0.E0));
#111=VECTOR('',#110,1.E1);
#112=CARTESIAN_POINT('',(3.05E1,-2.E0,0.E0));
#113=LINE('',#112,#111);
#114=CARTESIAN_POINT('',(2.05E1,0.E0,0.E0));
#115=DIRECTION('',(0.E0,0.E0,-1.E0));
#116=DIRECTION('',(0.E0,-1.E0,0.E0));
#117=AXIS2_PLACEMENT_3D('',#114,#115,#116);
#119=DIRECTION('',(1.E0,0.E0,0.E0));
#120=VECTOR('',#119,1.E1);
#121=CARTESIAN_POINT('',(2.05E1,2.E0,0.E0));
#122=LINE('',#121,#120);
#123=CARTESIAN_POINT('',(2.475E0,0.E0,0.E0));
#124=DIRECTION('',(0.E0,0.E0,-1.E0));
#125=DIRECTION('',(1.E0,0.E0,0.E0));
#126=AXIS2_PLACEMENT_3D('',#123,#124,#125);
#128=CARTESIAN_POINT('',(2.475E0,0.E0,0.E0));
#129=DIRECTION('',(0.E0,0.E0,-1.E0));
#130=DIRECTION('',(-1.E0,0.E0,0.E0));
#131=AXIS2_PLACEMENT_3D('',#128,#129,#130);
#133=CARTESIAN_POINT('',(-2.65E1,0.E0,0.E0));
#134=DIRECTION('',(0.E0,0.E0,-1.E0));
#135=DIRECTION('',(1.E0,0.E0,0.E0));
#136=AXIS2_PLACEMENT_3D('',#133,#134,#135);
#138=CARTESIAN_POINT('',(-2.65E1,0.E0,0.E0));
#139=DIRECTION('',(0.E0,0.E0,-1.E0));
#140=DIRECTION('',(-1.E0,0.E0,0.E0));
#141=AXIS2_PLACEMENT_3D('',#138,#139,#140);
#143=CARTESIAN_POINT('',(-1.25E1,-1.1E1,0.E0));
#144=DIRECTION('',(0.E0,0.E0,-1.E0));
#145=DIRECTION('',(1.E0,0.E0,0.E0));
#146=AXIS2_PLACEMENT_3D('',#143,#144,#145);
#148=CARTESIAN_POINT('',(-1.25E1,-1.1E1,0.E0));
#149=DIRECTION('',(0.E0,0.E0,-1.E0));
#150=DIRECTION('',(-1.E0,0.E0,0.E0));
#151=AXIS2_PLACEMENT_3D('',#148,#149,#150);
#153=CARTESIAN_POINT('',(-1.25E1,-3.E0,0.E0));
#154=DIRECTION('',(0.E0,0.E0,-1.E0));
#155=DIRECTION('',(1.E0,0.E0,0.E0));
#156=AXIS2_PLACEMENT_3D('',#153,#154,#155);
#158=CARTESIAN_POINT('',(-1.25E1,-3.E0,0.E0));
#159=DIRECTION('',(0.E0,0.E0,-1.E0));
#160=DIRECTION('',(-1.E0,0.E0,0.E0));
#161=AXIS2_PLACEMENT_3D('',#158,#159,#160);
#163=CARTESIAN_POINT('',(2.425E1,1.25E1,1.5E0));
#164=DIRECTION('',(0.E0,0.E0,-1.E0));
#165=DIRECTION('',(-1.E0,0.E0,0.E0));
#166=AXIS2_PLACEMENT_3D('',#163,#164,#165);
#168=DIRECTION('',(6.289084848039E-9,-5.837360024685E-8,-1.E0));
#169=VECTOR('',#168,1.499999990566E0);
#170=CARTESIAN_POINT('',(2.574999999057E1,1.250000008756E1,1.499999990566E0));
#171=LINE('',#170,#169);
#172=DIRECTION('',(7.071067811865E-1,6.879394931211E-8,-7.071067811866E-1));
#173=VECTOR('',#172,2.121320321324E0);
#174=CARTESIAN_POINT('',(2.125000002516E1,1.249999976651E1,2.999999974844E0));
#175=LINE('',#174,#173);
#176=CARTESIAN_POINT('',(3.05E1,1.422157287525E1,3.E0));
#177=DIRECTION('',(0.E0,0.E0,1.E0));
#178=DIRECTION('',(1.E0,0.E0,0.E0));
#179=AXIS2_PLACEMENT_3D('',#176,#177,#178);
#181=DIRECTION('',(0.E0,-1.E0,0.E0));
#182=VECTOR('',#181,2.844314575051E1);
#183=CARTESIAN_POINT('',(3.15E1,1.422157287525E1,3.E0));
#184=LINE('',#183,#182);
#185=CARTESIAN_POINT('',(3.05E1,-1.422157287525E1,3.E0));
#186=DIRECTION('',(0.E0,0.E0,1.E0));
#187=DIRECTION('',(3.333333333333E-1,-9.428090415821E-1,0.E0));
#188=AXIS2_PLACEMENT_3D('',#185,#186,#187);
#190=CARTESIAN_POINT('',(3.15E1,-1.705E1,3.E0));
#191=DIRECTION('',(0.E0,0.E0,1.E0));
#192=DIRECTION('',(-3.333333333333E-1,9.428090415821E-1,0.E0));
#193=AXIS2_PLACEMENT_3D('',#190,#191,#192);
#195=CARTESIAN_POINT('',(3.15E1,-2.005E1,3.E0));
#196=DIRECTION('',(0.E0,0.E0,1.E0));
#197=DIRECTION('',(1.E0,0.E0,0.E0));
#198=AXIS2_PLACEMENT_3D('',#195,#196,#197);
#200=DIRECTION('',(0.E0,1.E0,0.E0));
#201=VECTOR('',#200,2.295E1);
#202=CARTESIAN_POINT('',(3.25E1,-4.3E1,3.E0));
#203=LINE('',#202,#201);
#204=CARTESIAN_POINT('',(3.05E1,-4.3E1,3.E0));
#205=DIRECTION('',(0.E0,0.E0,1.E0));
#206=DIRECTION('',(0.E0,-1.E0,0.E0));
#207=AXIS2_PLACEMENT_3D('',#204,#205,#206);
#209=DIRECTION('',(1.E0,0.E0,0.E0));
#210=VECTOR('',#209,6.1E1);
#211=CARTESIAN_POINT('',(-3.05E1,-4.5E1,3.E0));
#212=LINE('',#211,#210);
#213=CARTESIAN_POINT('',(-3.05E1,-4.3E1,3.E0));
#214=DIRECTION('',(0.E0,0.E0,1.E0));
#215=DIRECTION('',(-1.E0,0.E0,0.E0));
#216=AXIS2_PLACEMENT_3D('',#213,#214,#215);
#218=DIRECTION('',(0.E0,-1.E0,0.E0));
#219=VECTOR('',#218,8.6E1);
#220=CARTESIAN_POINT('',(-3.25E1,4.3E1,3.E0));
#221=LINE('',#220,#219);
#222=CARTESIAN_POINT('',(-3.05E1,4.3E1,3.E0));
#223=DIRECTION('',(0.E0,0.E0,1.E0));
#224=DIRECTION('',(0.E0,1.E0,0.E0));
#225=AXIS2_PLACEMENT_3D('',#222,#223,#224);
#227=DIRECTION('',(-1.E0,0.E0,0.E0));
#228=VECTOR('',#227,6.1E1);
#229=CARTESIAN_POINT('',(3.05E1,4.5E1,3.E0));
#230=LINE('',#229,#228);
#231=CARTESIAN_POINT('',(3.05E1,4.3E1,3.E0));
#232=DIRECTION('',(0.E0,0.E0,1.E0));
#233=DIRECTION('',(1.E0,0.E0,0.E0));
#234=AXIS2_PLACEMENT_3D('',#231,#232,#233);
#236=DIRECTION('',(0.E0,1.E0,0.E0));
#237=VECTOR('',#236,2.295E1);
#238=CARTESIAN_POINT('',(3.25E1,2.005E1,3.E0));
#239=LINE('',#238,#237);
#240=CARTESIAN_POINT('',(3.15E1,2.005E1,3.E0));
#241=DIRECTION('',(0.E0,0.E0,1.E0));
#242=DIRECTION('',(0.E0,-1.E0,0.E0));
#243=AXIS2_PLACEMENT_3D('',#240,#241,#242);
#245=CARTESIAN_POINT('',(3.15E1,1.705E1,3.E0));
#246=DIRECTION('',(0.E0,0.E0,1.E0));
#247=DIRECTION('',(0.E0,1.E0,0.E0));
#248=AXIS2_PLACEMENT_3D('',#245,#246,#247);
#250=CARTESIAN_POINT('',(-2.65E1,0.E0,3.E0));
#251=DIRECTION('',(0.E0,0.E0,-1.E0));
#252=DIRECTION('',(1.E0,0.E0,0.E0));
#253=AXIS2_PLACEMENT_3D('',#250,#251,#252);
#255=CARTESIAN_POINT('',(-2.65E1,0.E0,3.E0));
#256=DIRECTION('',(0.E0,0.E0,-1.E0));
#257=DIRECTION('',(-1.E0,0.E0,0.E0));
#258=AXIS2_PLACEMENT_3D('',#255,#256,#257);
#260=CARTESIAN_POINT('',(2.425E1,1.25E1,3.E0));
#261=DIRECTION('',(0.E0,0.E0,-1.E0));
#262=DIRECTION('',(-1.E0,0.E0,0.E0));
#263=AXIS2_PLACEMENT_3D('',#260,#261,#262);
#265=CARTESIAN_POINT('',(2.425E1,1.25E1,3.E0));
#266=DIRECTION('',(0.E0,0.E0,-1.E0));
#267=DIRECTION('',(1.E0,0.E0,0.E0));
#268=AXIS2_PLACEMENT_3D('',#265,#266,#267);
#270=CARTESIAN_POINT('',(2.425E1,-1.25E1,3.E0));
#271=DIRECTION('',(0.E0,0.E0,-1.E0));
#272=DIRECTION('',(1.E0,0.E0,0.E0));
#273=AXIS2_PLACEMENT_3D('',#270,#271,#272);
#275=CARTESIAN_POINT('',(2.425E1,-1.25E1,3.E0));
#276=DIRECTION('',(0.E0,0.E0,-1.E0));
#277=DIRECTION('',(-1.E0,0.E0,0.E0));
#278=AXIS2_PLACEMENT_3D('',#275,#276,#277);
#280=CARTESIAN_POINT('',(2.475E0,0.E0,3.E0));
#281=DIRECTION('',(0.E0,0.E0,-1.E0));
#282=DIRECTION('',(1.E0,0.E0,0.E0));
#283=AXIS2_PLACEMENT_3D('',#280,#281,#282);
#285=CARTESIAN_POINT('',(2.475E0,0.E0,3.E0));
#286=DIRECTION('',(0.E0,0.E0,-1.E0));
#287=DIRECTION('',(-1.E0,0.E0,0.E0));
#288=AXIS2_PLACEMENT_3D('',#285,#286,#287);
#290=CARTESIAN_POINT('',(-1.25E1,-1.1E1,3.E0));
#291=DIRECTION('',(0.E0,0.E0,-1.E0));
#292=DIRECTION('',(1.E0,0.E0,0.E0));
#293=AXIS2_PLACEMENT_3D('',#290,#291,#292);
#295=CARTESIAN_POINT('',(-1.25E1,-1.1E1,3.E0));
#296=DIRECTION('',(0.E0,0.E0,-1.E0));
#297=DIRECTION('',(-1.E0,0.E0,0.E0));
#298=AXIS2_PLACEMENT_3D('',#295,#296,#297);
#300=CARTESIAN_POINT('',(-1.25E1,-3.E0,3.E0));
#301=DIRECTION('',(0.E0,0.E0,-1.E0));
#302=DIRECTION('',(-1.E0,0.E0,0.E0));
#303=AXIS2_PLACEMENT_3D('',#300,#301,#302);
#305=CARTESIAN_POINT('',(-1.25E1,-3.E0,3.E0));
#306=DIRECTION('',(0.E0,0.E0,-1.E0));
#307=DIRECTION('',(1.E0,0.E0,0.E0));
#308=AXIS2_PLACEMENT_3D('',#305,#306,#307);
#310=DIRECTION('',(0.E0,0.E0,1.E0));
#311=VECTOR('',#310,3.E0);
#312=CARTESIAN_POINT('',(3.083333333333E1,1.516438191684E1,0.E0));
#313=LINE('',#312,#311);
#314=DIRECTION('',(0.E0,0.E0,1.E0));
#315=VECTOR('',#314,3.E0);
#316=CARTESIAN_POINT('',(3.15E1,1.905E1,0.E0));
#317=LINE('',#316,#315);
#318=DIRECTION('',(0.E0,0.E0,-1.E0));
#319=VECTOR('',#318,3.E0);
#320=CARTESIAN_POINT('',(3.25E1,-4.3E1,3.E0));
#321=LINE('',#320,#319);
#322=DIRECTION('',(0.E0,0.E0,1.E0));
#323=VECTOR('',#322,3.E0);
#324=CARTESIAN_POINT('',(3.25E1,-2.005E1,0.E0));
#325=LINE('',#324,#323);
#326=DIRECTION('',(0.E0,0.E0,-1.E0));
#327=VECTOR('',#326,3.E0);
#328=CARTESIAN_POINT('',(3.25E1,2.005E1,3.E0));
#329=LINE('',#328,#327);
#330=DIRECTION('',(0.E0,0.E0,-1.E0));
#331=VECTOR('',#330,3.E0);
#332=CARTESIAN_POINT('',(3.25E1,4.3E1,3.E0));
#333=LINE('',#332,#331);
#334=DIRECTION('',(0.E0,0.E0,-1.E0));
#335=VECTOR('',#334,3.E0);
#336=CARTESIAN_POINT('',(-3.05E1,-4.5E1,3.E0));
#337=LINE('',#336,#335);
#338=DIRECTION('',(0.E0,0.E0,-1.E0));
#339=VECTOR('',#338,3.E0);
#340=CARTESIAN_POINT('',(3.05E1,-4.5E1,3.E0));
#341=LINE('',#340,#339);
#342=DIRECTION('',(0.E0,0.E0,-1.E0));
#343=VECTOR('',#342,3.E0);
#344=CARTESIAN_POINT('',(-3.25E1,4.3E1,3.E0));
#345=LINE('',#344,#343);
#346=DIRECTION('',(0.E0,0.E0,-1.E0));
#347=VECTOR('',#346,3.E0);
#348=CARTESIAN_POINT('',(-3.25E1,-4.3E1,3.E0));
#349=LINE('',#348,#347);
#350=DIRECTION('',(0.E0,0.E0,-1.E0));
#351=VECTOR('',#350,3.E0);
#352=CARTESIAN_POINT('',(-3.05E1,4.5E1,3.E0));
#353=LINE('',#352,#351);
#354=DIRECTION('',(0.E0,0.E0,-1.E0));
#355=VECTOR('',#354,3.E0);
#356=CARTESIAN_POINT('',(3.05E1,4.5E1,3.E0));
#357=LINE('',#356,#355);
#358=DIRECTION('',(0.E0,0.E0,1.E0));
#359=VECTOR('',#358,3.E0);
#360=CARTESIAN_POINT('',(3.15E1,-1.905E1,0.E0));
#361=LINE('',#360,#359);
#362=DIRECTION('',(-1.184237892934E-14,0.E0,-1.E0));
#363=VECTOR('',#362,3.E0);
#364=CARTESIAN_POINT('',(3.083333333333E1,-1.516438191684E1,3.E0));
#365=LINE('',#364,#363);
#366=DIRECTION('',(0.E0,0.E0,-1.E0));
#367=VECTOR('',#366,1.E0);
#368=CARTESIAN_POINT('',(3.15E1,3.E0,1.E0));
#369=LINE('',#368,#367);
#370=DIRECTION('',(0.E0,0.E0,1.E0));
#371=VECTOR('',#370,1.E0);
#372=CARTESIAN_POINT('',(3.15E1,-3.E0,0.E0));
#373=LINE('',#372,#371);
#374=DIRECTION('',(0.E0,0.E0,-1.E0));
#375=VECTOR('',#374,3.E0);
#376=CARTESIAN_POINT('',(3.15E1,-1.422157287525E1,3.E0));
#377=LINE('',#376,#375);
#378=DIRECTION('',(0.E0,0.E0,1.E0));
#379=VECTOR('',#378,3.E0);
#380=CARTESIAN_POINT('',(3.15E1,1.422157287525E1,0.E0));
#381=LINE('',#380,#379);
#382=CARTESIAN_POINT('',(3.05E1,3.E0,1.E0));
#383=DIRECTION('',(0.E0,0.E0,1.E0));
#384=DIRECTION('',(0.E0,-1.E0,0.E0));
#385=AXIS2_PLACEMENT_3D('',#382,#383,#384);
#387=DIRECTION('',(0.E0,0.E0,-1.E0));
#388=VECTOR('',#387,1.E0);
#389=CARTESIAN_POINT('',(3.05E1,2.E0,1.E0));
#390=LINE('',#389,#388);
#391=DIRECTION('',(0.E0,0.E0,1.E0));
#392=VECTOR('',#391,1.E0);
#393=CARTESIAN_POINT('',(2.05E1,2.E0,0.E0));
#394=LINE('',#393,#392);
#395=DIRECTION('',(-1.E0,0.E0,0.E0));
#396=VECTOR('',#395,1.E1);
#397=CARTESIAN_POINT('',(3.05E1,-2.E0,1.E0));
#398=LINE('',#397,#396);
#399=DIRECTION('',(0.E0,1.E0,0.E0));
#400=VECTOR('',#399,6.E0);
#401=CARTESIAN_POINT('',(3.15E1,-3.E0,1.E0));
#402=LINE('',#401,#400);
#403=DIRECTION('',(1.E0,0.E0,0.E0));
#404=VECTOR('',#403,1.E1);
#405=CARTESIAN_POINT('',(2.05E1,2.E0,1.E0));
#406=LINE('',#405,#404);
#407=CARTESIAN_POINT('',(2.05E1,0.E0,1.E0));
#408=DIRECTION('',(0.E0,0.E0,1.E0));
#409=DIRECTION('',(0.E0,1.E0,0.E0));
#410=AXIS2_PLACEMENT_3D('',#407,#408,#409);
#412=DIRECTION('',(0.E0,0.E0,1.E0));
#413=VECTOR('',#412,1.E0);
#414=CARTESIAN_POINT('',(3.05E1,-2.E0,0.E0));
#415=LINE('',#414,#413);
#416=DIRECTION('',(0.E0,0.E0,1.E0));
#417=VECTOR('',#416,1.E0);
#418=CARTESIAN_POINT('',(2.05E1,-2.E0,0.E0));
#419=LINE('',#418,#417);
#420=CARTESIAN_POINT('',(3.05E1,-3.E0,1.E0));
#421=DIRECTION('',(0.E0,0.E0,1.E0));
#422=DIRECTION('',(1.E0,0.E0,0.E0));
#423=AXIS2_PLACEMENT_3D('',#420,#421,#422);
#425=DIRECTION('',(0.E0,0.E0,1.E0));
#426=VECTOR('',#425,3.E0);
#427=CARTESIAN_POINT('',(-2.25E1,0.E0,0.E0));
#428=LINE('',#427,#426);
#429=DIRECTION('',(0.E0,0.E0,1.E0));
#430=VECTOR('',#429,3.E0);
#431=CARTESIAN_POINT('',(-3.05E1,0.E0,0.E0));
#432=LINE('',#431,#430);
#433=DIRECTION('',(-7.071067811865E-1,-6.879394679996E-8,-7.071067811866E-1));
#434=VECTOR('',#433,2.121320321324E0);
#435=CARTESIAN_POINT('',(2.724999997484E1,1.250000023349E1,2.999999974844E0));
#436=LINE('',#435,#434);
#437=CARTESIAN_POINT('',(2.425E1,1.25E1,1.5E0));
#438=DIRECTION('',(0.E0,0.E0,-1.E0));
#439=DIRECTION('',(1.E0,0.E0,0.E0));
#440=AXIS2_PLACEMENT_3D('',#437,#438,#439);
#442=DIRECTION('',(-6.289084848039E-9,5.837359906262E-8,-1.E0));
#443=VECTOR('',#442,1.499999990566E0);
#444=CARTESIAN_POINT('',(2.275000000943E1,1.249999991244E1,1.499999990566E0));
#445=LINE('',#444,#443);
#446=DIRECTION('',(-7.071067811865E-1,-6.879394763735E-8,-7.071067811866E-1));
#447=VECTOR('',#446,2.121320321324E0);
#448=CARTESIAN_POINT('',(2.724999997484E1,-1.249999976651E1,2.999999974844E0));
#449=LINE('',#448,#447);
#450=DIRECTION('',(7.071067811865E-1,6.879394763735E-8,-7.071067811866E-1));
#451=VECTOR('',#450,2.121320321324E0);
#452=CARTESIAN_POINT('',(2.125000002516E1,-1.250000023349E1,2.999999974844E0));
#453=LINE('',#452,#451);
#454=CARTESIAN_POINT('',(2.425E1,-1.25E1,1.5E0));
#455=DIRECTION('',(0.E0,0.E0,-1.E0));
#456=DIRECTION('',(-1.E0,0.E0,0.E0));
#457=AXIS2_PLACEMENT_3D('',#454,#455,#456);
#459=DIRECTION('',(6.289084848039E-9,-5.837360024685E-8,-1.E0));
#460=VECTOR('',#459,1.499999990566E0);
#461=CARTESIAN_POINT('',(2.574999999057E1,-1.249999991244E1,1.499999990566E0));
#462=LINE('',#461,#460);
#463=CARTESIAN_POINT('',(2.425E1,-1.25E1,1.5E0));
#464=DIRECTION('',(0.E0,0.E0,-1.E0));
#465=DIRECTION('',(1.E0,0.E0,0.E0));
#466=AXIS2_PLACEMENT_3D('',#463,#464,#465);
#468=DIRECTION('',(-6.289084848039E-9,5.837359906262E-8,-1.E0));
#469=VECTOR('',#468,1.499999990566E0);
#470=CARTESIAN_POINT('',(2.275000000943E1,-1.250000008756E1,1.499999990566E0));
#471=LINE('',#470,#469);
#472=DIRECTION('',(-7.071067811865E-1,6.879394763860E-8,-7.071067811866E-1));
#473=VECTOR('',#472,2.121320321324E0);
#474=CARTESIAN_POINT('',(5.474999974844E0,-2.334943984519E-7,2.999999974844E0));
#475=LINE('',#474,#473);
#476=DIRECTION('',(7.071067811865E-1,-6.879394757729E-8,-7.071067811866E-1));
#477=VECTOR('',#476,2.121320321324E0);
#478=CARTESIAN_POINT('',(-5.249999748437E-1,2.334943984337E-7,
2.999999974844E0));
#479=LINE('',#478,#477);
#480=CARTESIAN_POINT('',(2.475E0,0.E0,1.5E0));
#481=DIRECTION('',(0.E0,0.E0,-1.E0));
#482=DIRECTION('',(-1.E0,0.E0,0.E0));
#483=AXIS2_PLACEMENT_3D('',#480,#481,#482);
#485=DIRECTION('',(6.289083441756E-9,5.837360012551E-8,1.E0));
#486=VECTOR('',#485,1.499999990566E0);
#487=CARTESIAN_POINT('',(9.75E-1,0.E0,0.E0));
#488=LINE('',#487,#486);
#489=CARTESIAN_POINT('',(2.475E0,0.E0,1.5E0));
#490=DIRECTION('',(0.E0,0.E0,-1.E0));
#491=DIRECTION('',(1.E0,0.E0,0.E0));
#492=AXIS2_PLACEMENT_3D('',#489,#490,#491);
#494=DIRECTION('',(-6.289084255920E-9,-5.837360005090E-8,1.E0));
#495=VECTOR('',#494,1.499999990566E0);
#496=CARTESIAN_POINT('',(3.975E0,0.E0,0.E0));
#497=LINE('',#496,#495);
#498=DIRECTION('',(-7.071067811865E-1,6.879394763735E-8,-7.071067811866E-1));
#499=VECTOR('',#498,2.121320321324E0);
#500=CARTESIAN_POINT('',(-9.500000025156E0,-1.100000023349E1,2.999999974844E0));
#501=LINE('',#500,#499);
#502=DIRECTION('',(7.071067811865E-1,-6.879394847473E-8,-7.071067811866E-1));
#503=VECTOR('',#502,2.121320321324E0);
#504=CARTESIAN_POINT('',(-1.549999997484E1,-1.099999976651E1,2.999999974844E0));
#505=LINE('',#504,#503);
#506=CARTESIAN_POINT('',(-1.25E1,-1.1E1,1.5E0));
#507=DIRECTION('',(0.E0,0.E0,-1.E0));
#508=DIRECTION('',(-1.E0,0.E0,0.E0));
#509=AXIS2_PLACEMENT_3D('',#506,#507,#508);
#511=DIRECTION('',(6.289082479563E-9,5.837360143109E-8,1.E0));
#512=VECTOR('',#511,1.499999990566E0);
#513=CARTESIAN_POINT('',(-1.4E1,-1.1E1,0.E0));
#514=LINE('',#513,#512);
#515=CARTESIAN_POINT('',(-1.25E1,-1.1E1,1.5E0));
#516=DIRECTION('',(0.E0,0.E0,-1.E0));
#517=DIRECTION('',(1.E0,0.E0,0.E0));
#518=AXIS2_PLACEMENT_3D('',#515,#516,#517);
#520=DIRECTION('',(-6.289084848039E-9,-5.837359906262E-8,1.E0));
#521=VECTOR('',#520,1.499999990566E0);
#522=CARTESIAN_POINT('',(-1.1E1,-1.1E1,0.E0));
#523=LINE('',#522,#521);
#524=DIRECTION('',(7.071067811865E-1,-6.879394763735E-8,-7.071067811866E-1));
#525=VECTOR('',#524,2.121320321324E0);
#526=CARTESIAN_POINT('',(-1.549999997484E1,-2.999999766506E0,2.999999974844E0));
#527=LINE('',#526,#525);
#528=DIRECTION('',(-7.071067811865E-1,6.879394742800E-8,-7.071067811866E-1));
#529=VECTOR('',#528,2.121320321324E0);
#530=CARTESIAN_POINT('',(-9.500000025156E0,-3.000000233494E0,2.999999974844E0));
#531=LINE('',#530,#529);
#532=CARTESIAN_POINT('',(-1.25E1,-3.E0,1.5E0));
#533=DIRECTION('',(0.E0,0.E0,-1.E0));
#534=DIRECTION('',(1.E0,0.E0,0.E0));
#535=AXIS2_PLACEMENT_3D('',#532,#533,#534);
#537=DIRECTION('',(-6.289084848039E-9,-5.837360024685E-8,1.E0));
#538=VECTOR('',#537,1.499999990566E0);
#539=CARTESIAN_POINT('',(-1.1E1,-3.E0,0.E0));
#540=LINE('',#539,#538);
#541=CARTESIAN_POINT('',(-1.25E1,-3.E0,1.5E0));
#542=DIRECTION('',(0.E0,0.E0,-1.E0));
#543=DIRECTION('',(-1.E0,0.E0,0.E0));
#544=AXIS2_PLACEMENT_3D('',#541,#542,#543);
#546=DIRECTION('',(6.289082479563E-9,5.837360024685E-8,1.E0));
#547=VECTOR('',#546,1.499999990566E0);
#548=CARTESIAN_POINT('',(-1.4E1,-3.E0,0.E0));
#549=LINE('',#548,#547);
#550=CARTESIAN_POINT('',(2.575E1,1.25E1,0.E0));
#551=CARTESIAN_POINT('',(2.275E1,1.25E1,0.E0));
#552=VERTEX_POINT('',#550);
#553=VERTEX_POINT('',#551);
#554=CARTESIAN_POINT('',(2.575E1,-1.25E1,0.E0));
#555=CARTESIAN_POINT('',(2.275E1,-1.25E1,0.E0));
#556=VERTEX_POINT('',#554);
#557=VERTEX_POINT('',#555);
#558=CARTESIAN_POINT('',(-3.25E1,4.3E1,0.E0));
#559=CARTESIAN_POINT('',(-3.05E1,4.5E1,0.E0));
#560=VERTEX_POINT('',#558);
#561=VERTEX_POINT('',#559);
#562=CARTESIAN_POINT('',(-3.05E1,4.5E1,3.E0));
#563=VERTEX_POINT('',#562);
#564=CARTESIAN_POINT('',(-3.25E1,4.3E1,3.E0));
#565=VERTEX_POINT('',#564);
#566=CARTESIAN_POINT('',(-3.05E1,-4.5E1,0.E0));
#567=CARTESIAN_POINT('',(-3.25E1,-4.3E1,0.E0));
#568=VERTEX_POINT('',#566);
#569=VERTEX_POINT('',#567);
#570=CARTESIAN_POINT('',(-3.25E1,-4.3E1,3.E0));
#571=VERTEX_POINT('',#570);
#572=CARTESIAN_POINT('',(-3.05E1,-4.5E1,3.E0));
#573=VERTEX_POINT('',#572);
#574=CARTESIAN_POINT('',(3.25E1,-4.3E1,0.E0));
#575=CARTESIAN_POINT('',(3.05E1,-4.5E1,0.E0));
#576=VERTEX_POINT('',#574);
#577=VERTEX_POINT('',#575);
#578=CARTESIAN_POINT('',(3.05E1,-4.5E1,3.E0));
#579=VERTEX_POINT('',#578);
#580=CARTESIAN_POINT('',(3.25E1,-4.3E1,3.E0));
#581=VERTEX_POINT('',#580);
#582=CARTESIAN_POINT('',(3.05E1,4.5E1,0.E0));
#583=CARTESIAN_POINT('',(3.25E1,4.3E1,0.E0));
#584=VERTEX_POINT('',#582);
#585=VERTEX_POINT('',#583);
#586=CARTESIAN_POINT('',(3.25E1,4.3E1,3.E0));
#587=VERTEX_POINT('',#586);
#588=CARTESIAN_POINT('',(3.05E1,4.5E1,3.E0));
#589=VERTEX_POINT('',#588);
#590=CARTESIAN_POINT('',(3.25E1,-2.005E1,0.E0));
#591=VERTEX_POINT('',#590);
#592=CARTESIAN_POINT('',(3.25E1,2.005E1,0.E0));
#593=VERTEX_POINT('',#592);
#594=CARTESIAN_POINT('',(3.25E1,-2.005E1,3.E0));
#595=VERTEX_POINT('',#594);
#596=CARTESIAN_POINT('',(3.25E1,2.005E1,3.E0));
#597=VERTEX_POINT('',#596);
#598=CARTESIAN_POINT('',(3.15E1,1.422157287525E1,3.E0));
#599=CARTESIAN_POINT('',(3.083333333333E1,1.516438191684E1,3.E0));
#600=VERTEX_POINT('',#598);
#601=VERTEX_POINT('',#599);
#602=CARTESIAN_POINT('',(3.083333333333E1,1.516438191684E1,0.E0));
#603=VERTEX_POINT('',#602);
#604=CARTESIAN_POINT('',(3.15E1,1.422157287525E1,0.E0));
#605=VERTEX_POINT('',#604);
#606=CARTESIAN_POINT('',(3.15E1,1.905E1,3.E0));
#607=VERTEX_POINT('',#606);
#608=CARTESIAN_POINT('',(3.15E1,-1.422157287525E1,3.E0));
#609=VERTEX_POINT('',#608);
#610=CARTESIAN_POINT('',(3.15E1,1.905E1,0.E0));
#611=VERTEX_POINT('',#610);
#612=CARTESIAN_POINT('',(3.15E1,-1.422157287525E1,0.E0));
#613=CARTESIAN_POINT('',(3.083333333333E1,-1.516438191684E1,0.E0));
#614=VERTEX_POINT('',#612);
#615=VERTEX_POINT('',#613);
#616=CARTESIAN_POINT('',(3.083333333333E1,-1.516438191684E1,3.E0));
#617=VERTEX_POINT('',#616);
#618=CARTESIAN_POINT('',(3.15E1,-1.905E1,0.E0));
#619=VERTEX_POINT('',#618);
#620=CARTESIAN_POINT('',(3.15E1,-1.905E1,3.E0));
#621=VERTEX_POINT('',#620);
#622=CARTESIAN_POINT('',(2.05E1,2.E0,1.E0));
#623=CARTESIAN_POINT('',(2.05E1,-2.E0,1.E0));
#624=VERTEX_POINT('',#622);
#625=VERTEX_POINT('',#623);
#626=CARTESIAN_POINT('',(2.05E1,2.E0,0.E0));
#627=VERTEX_POINT('',#626);
#628=CARTESIAN_POINT('',(2.05E1,-2.E0,0.E0));
#629=VERTEX_POINT('',#628);
#630=CARTESIAN_POINT('',(3.15E1,3.E0,0.E0));
#631=CARTESIAN_POINT('',(3.05E1,2.E0,0.E0));
#632=VERTEX_POINT('',#630);
#633=VERTEX_POINT('',#631);
#634=CARTESIAN_POINT('',(3.05E1,2.E0,1.E0));
#635=VERTEX_POINT('',#634);
#636=CARTESIAN_POINT('',(3.15E1,3.E0,1.E0));
#637=VERTEX_POINT('',#636);
#638=CARTESIAN_POINT('',(3.05E1,-2.E0,0.E0));
#639=CARTESIAN_POINT('',(3.05E1,-2.E0,1.E0));
#640=VERTEX_POINT('',#638);
#641=VERTEX_POINT('',#639);
#642=CARTESIAN_POINT('',(3.15E1,-3.E0,0.E0));
#643=VERTEX_POINT('',#642);
#644=CARTESIAN_POINT('',(3.15E1,-3.E0,1.E0));
#645=VERTEX_POINT('',#644);
#646=CARTESIAN_POINT('',(3.975E0,0.E0,0.E0));
#647=CARTESIAN_POINT('',(9.75E-1,0.E0,0.E0));
#648=VERTEX_POINT('',#646);
#649=VERTEX_POINT('',#647);
#650=CARTESIAN_POINT('',(-2.25E1,0.E0,0.E0));
#651=CARTESIAN_POINT('',(-3.05E1,0.E0,0.E0));
#652=VERTEX_POINT('',#650);
#653=VERTEX_POINT('',#651);
#654=CARTESIAN_POINT('',(-2.25E1,0.E0,3.E0));
#655=CARTESIAN_POINT('',(-3.05E1,0.E0,3.E0));
#656=VERTEX_POINT('',#654);
#657=VERTEX_POINT('',#655);
#658=CARTESIAN_POINT('',(-1.1E1,-1.1E1,0.E0));
#659=CARTESIAN_POINT('',(-1.4E1,-1.1E1,0.E0));
#660=VERTEX_POINT('',#658);
#661=VERTEX_POINT('',#659);
#662=CARTESIAN_POINT('',(-1.1E1,-3.E0,0.E0));
#663=CARTESIAN_POINT('',(-1.4E1,-3.E0,0.E0));
#664=VERTEX_POINT('',#662);
#665=VERTEX_POINT('',#663);
#666=CARTESIAN_POINT('',(2.125E1,1.25E1,3.E0));
#667=CARTESIAN_POINT('',(2.725E1,1.25E1,3.E0));
#668=VERTEX_POINT('',#666);
#669=VERTEX_POINT('',#667);
#670=CARTESIAN_POINT('',(2.275E1,1.25E1,1.5E0));
#671=CARTESIAN_POINT('',(2.575E1,1.25E1,1.5E0));
#672=VERTEX_POINT('',#670);
#673=VERTEX_POINT('',#671);
#674=CARTESIAN_POINT('',(2.725E1,-1.25E1,3.E0));
#675=CARTESIAN_POINT('',(2.125E1,-1.25E1,3.E0));
#676=VERTEX_POINT('',#674);
#677=VERTEX_POINT('',#675);
#678=CARTESIAN_POINT('',(2.575E1,-1.25E1,1.5E0));
#679=CARTESIAN_POINT('',(2.275E1,-1.25E1,1.5E0));
#680=VERTEX_POINT('',#678);
#681=VERTEX_POINT('',#679);
#682=CARTESIAN_POINT('',(5.475E0,0.E0,3.E0));
#683=CARTESIAN_POINT('',(-5.25E-1,0.E0,3.E0));
#684=VERTEX_POINT('',#682);
#685=VERTEX_POINT('',#683);
#686=CARTESIAN_POINT('',(3.975E0,0.E0,1.5E0));
#687=CARTESIAN_POINT('',(9.75E-1,0.E0,1.5E0));
#688=VERTEX_POINT('',#686);
#689=VERTEX_POINT('',#687);
#690=CARTESIAN_POINT('',(-9.5E0,-1.1E1,3.E0));
#691=CARTESIAN_POINT('',(-1.55E1,-1.1E1,3.E0));
#692=VERTEX_POINT('',#690);
#693=VERTEX_POINT('',#691);
#694=CARTESIAN_POINT('',(-1.1E1,-1.1E1,1.5E0));
#695=CARTESIAN_POINT('',(-1.4E1,-1.1E1,1.5E0));
#696=VERTEX_POINT('',#694);
#697=VERTEX_POINT('',#695);
#698=CARTESIAN_POINT('',(-1.55E1,-3.E0,3.E0));
#699=CARTESIAN_POINT('',(-9.5E0,-3.E0,3.E0));
#700=VERTEX_POINT('',#698);
#701=VERTEX_POINT('',#699);
#702=CARTESIAN_POINT('',(-1.4E1,-3.E0,1.5E0));
#703=CARTESIAN_POINT('',(-1.1E1,-3.E0,1.5E0));
#704=VERTEX_POINT('',#702);
#705=VERTEX_POINT('',#703);
#706=CARTESIAN_POINT('',(0.E0,0.E0,0.E0));
#707=DIRECTION('',(0.E0,0.E0,1.E0));
#708=DIRECTION('',(1.E0,0.E0,0.E0));
#709=AXIS2_PLACEMENT_3D('',#706,#707,#708);
#710=PLANE('',#709);
#712=ORIENTED_EDGE('',*,*,#711,.F.);
#714=ORIENTED_EDGE('',*,*,#713,.F.);
#716=ORIENTED_EDGE('',*,*,#715,.F.);
#718=ORIENTED_EDGE('',*,*,#717,.F.);
#720=ORIENTED_EDGE('',*,*,#719,.F.);
#722=ORIENTED_EDGE('',*,*,#721,.T.);
#724=ORIENTED_EDGE('',*,*,#723,.F.);
#726=ORIENTED_EDGE('',*,*,#725,.T.);
#728=ORIENTED_EDGE('',*,*,#727,.F.);
#730=ORIENTED_EDGE('',*,*,#729,.T.);
#732=ORIENTED_EDGE('',*,*,#731,.F.);
#734=ORIENTED_EDGE('',*,*,#733,.T.);
#736=ORIENTED_EDGE('',*,*,#735,.F.);
#738=ORIENTED_EDGE('',*,*,#737,.T.);
#740=ORIENTED_EDGE('',*,*,#739,.F.);
#742=ORIENTED_EDGE('',*,*,#741,.F.);
#744=ORIENTED_EDGE('',*,*,#743,.F.);
#746=ORIENTED_EDGE('',*,*,#745,.F.);
#748=ORIENTED_EDGE('',*,*,#747,.F.);
#750=ORIENTED_EDGE('',*,*,#749,.T.);
#752=ORIENTED_EDGE('',*,*,#751,.T.);
#754=ORIENTED_EDGE('',*,*,#753,.T.);
#755=EDGE_LOOP('',(#712,#714,#716,#718,#720,#722,#724,#726,#728,#730,#732,#734,
#736,#738,#740,#742,#744,#746,#748,#750,#752,#754));
#756=FACE_OUTER_BOUND('',#755,.F.);
#758=ORIENTED_EDGE('',*,*,#757,.F.);
#760=ORIENTED_EDGE('',*,*,#759,.F.);
#761=EDGE_LOOP('',(#758,#760));
#762=FACE_BOUND('',#761,.F.);
#764=ORIENTED_EDGE('',*,*,#763,.F.);
#766=ORIENTED_EDGE('',*,*,#765,.F.);
#767=EDGE_LOOP('',(#764,#766));
#768=FACE_BOUND('',#767,.F.);
#770=ORIENTED_EDGE('',*,*,#769,.T.);
#772=ORIENTED_EDGE('',*,*,#771,.T.);
#773=EDGE_LOOP('',(#770,#772));
#774=FACE_BOUND('',#773,.F.);
#776=ORIENTED_EDGE('',*,*,#775,.T.);
#778=ORIENTED_EDGE('',*,*,#777,.T.);
#779=EDGE_LOOP('',(#776,#778));
#780=FACE_BOUND('',#779,.F.);
#782=ORIENTED_EDGE('',*,*,#781,.T.);
#784=ORIENTED_EDGE('',*,*,#783,.T.);
#785=EDGE_LOOP('',(#782,#784));
#786=FACE_BOUND('',#785,.F.);
#788=ORIENTED_EDGE('',*,*,#787,.T.);
#790=ORIENTED_EDGE('',*,*,#789,.T.);
#791=EDGE_LOOP('',(#788,#790));
#792=FACE_BOUND('',#791,.F.);
#793=ADVANCED_FACE('',(#756,#762,#768,#774,#780,#786,#792),#710,.F.);
#794=CARTESIAN_POINT('',(2.425E1,1.25E1,3.E0));
#795=DIRECTION('',(0.E0,0.E0,1.E0));
#796=DIRECTION('',(1.E0,0.E0,0.E0));
#797=AXIS2_PLACEMENT_3D('',#794,#795,#796);
#798=CYLINDRICAL_SURFACE('',#797,1.5E0);
#800=ORIENTED_EDGE('',*,*,#799,.T.);
#802=ORIENTED_EDGE('',*,*,#801,.T.);
#803=ORIENTED_EDGE('',*,*,#763,.T.);
#805=ORIENTED_EDGE('',*,*,#804,.F.);
#806=EDGE_LOOP('',(#800,#802,#803,#805));
#807=FACE_OUTER_BOUND('',#806,.F.);
#808=ADVANCED_FACE('',(#807),#798,.F.);
#809=CARTESIAN_POINT('',(2.425E1,1.25E1,2.249999985383E0));
#810=DIRECTION('',(0.E0,0.E0,1.E0));
#811=DIRECTION('',(0.E0,-1.E0,0.E0));
#812=AXIS2_PLACEMENT_3D('',#809,#810,#811);
#813=CONICAL_SURFACE('',#812,2.249999985383E0,4.5E1);
#815=ORIENTED_EDGE('',*,*,#814,.T.);
#817=ORIENTED_EDGE('',*,*,#816,.T.);
#818=ORIENTED_EDGE('',*,*,#799,.F.);
#820=ORIENTED_EDGE('',*,*,#819,.F.);
#821=EDGE_LOOP('',(#815,#817,#818,#820));
#822=FACE_OUTER_BOUND('',#821,.F.);
#823=ADVANCED_FACE('',(#822),#813,.F.);
#824=CARTESIAN_POINT('',(0.E0,0.E0,3.E0));
#825=DIRECTION('',(0.E0,0.E0,1.E0));
#826=DIRECTION('',(1.E0,0.E0,0.E0));
#827=AXIS2_PLACEMENT_3D('',#824,#825,#826);
#828=PLANE('',#827);
#830=ORIENTED_EDGE('',*,*,#829,.F.);
#832=ORIENTED_EDGE('',*,*,#831,.T.);
#834=ORIENTED_EDGE('',*,*,#833,.F.);
#836=ORIENTED_EDGE('',*,*,#835,.T.);
#838=ORIENTED_EDGE('',*,*,#837,.F.);
#840=ORIENTED_EDGE('',*,*,#839,.F.);
#842=ORIENTED_EDGE('',*,*,#841,.F.);
#844=ORIENTED_EDGE('',*,*,#843,.F.);
#846=ORIENTED_EDGE('',*,*,#845,.F.);
#848=ORIENTED_EDGE('',*,*,#847,.F.);
#850=ORIENTED_EDGE('',*,*,#849,.F.);
#852=ORIENTED_EDGE('',*,*,#851,.F.);
#854=ORIENTED_EDGE('',*,*,#853,.F.);
#856=ORIENTED_EDGE('',*,*,#855,.F.);
#858=ORIENTED_EDGE('',*,*,#857,.F.);
#860=ORIENTED_EDGE('',*,*,#859,.T.);
#861=EDGE_LOOP('',(#830,#832,#834,#836,#838,#840,#842,#844,#846,#848,#850,#852,
#854,#856,#858,#860));
#862=FACE_OUTER_BOUND('',#861,.F.);
#864=ORIENTED_EDGE('',*,*,#863,.F.);
#866=ORIENTED_EDGE('',*,*,#865,.F.);
#867=EDGE_LOOP('',(#864,#866));
#868=FACE_BOUND('',#867,.F.);
#869=ORIENTED_EDGE('',*,*,#814,.F.);
#871=ORIENTED_EDGE('',*,*,#870,.F.);
#872=EDGE_LOOP('',(#869,#871));
#873=FACE_BOUND('',#872,.F.);
#875=ORIENTED_EDGE('',*,*,#874,.F.);
#877=ORIENTED_EDGE('',*,*,#876,.F.);
#878=EDGE_LOOP('',(#875,#877));
#879=FACE_BOUND('',#878,.F.);
#881=ORIENTED_EDGE('',*,*,#880,.F.);
#883=ORIENTED_EDGE('',*,*,#882,.F.);
#884=EDGE_LOOP('',(#881,#883));
#885=FACE_BOUND('',#884,.F.);
#887=ORIENTED_EDGE('',*,*,#886,.F.);
#889=ORIENTED_EDGE('',*,*,#888,.F.);
#890=EDGE_LOOP('',(#887,#889));
#891=FACE_BOUND('',#890,.F.);
#893=ORIENTED_EDGE('',*,*,#892,.F.);
#895=ORIENTED_EDGE('',*,*,#894,.F.);
#896=EDGE_LOOP('',(#893,#895));
#897=FACE_BOUND('',#896,.F.);
#898=ADVANCED_FACE('',(#862,#868,#873,#879,#885,#891,#897),#828,.T.);
#899=CARTESIAN_POINT('',(3.05E1,1.422157287525E1,-3.9108E0));
#900=DIRECTION('',(0.E0,0.E0,1.E0));
#901=DIRECTION('',(1.E0,0.E0,0.E0));
#902=AXIS2_PLACEMENT_3D('',#899,#900,#901);
#903=CYLINDRICAL_SURFACE('',#902,1.E0);
#904=ORIENTED_EDGE('',*,*,#829,.T.);
#906=ORIENTED_EDGE('',*,*,#905,.F.);
#907=ORIENTED_EDGE('',*,*,#715,.T.);
#909=ORIENTED_EDGE('',*,*,#908,.T.);
#910=EDGE_LOOP('',(#904,#906,#907,#909));
#911=FACE_OUTER_BOUND('',#910,.F.);
#912=ADVANCED_FACE('',(#911),#903,.T.);
#913=CARTESIAN_POINT('',(3.15E1,1.705E1,3.E0));
#914=DIRECTION('',(0.E0,0.E0,1.E0));
#915=DIRECTION('',(1.E0,0.E0,0.E0));
#916=AXIS2_PLACEMENT_3D('',#913,#914,#915);
#917=CYLINDRICAL_SURFACE('',#916,2.E0);
#918=ORIENTED_EDGE('',*,*,#905,.T.);
#919=ORIENTED_EDGE('',*,*,#859,.F.);
#921=ORIENTED_EDGE('',*,*,#920,.F.);
#922=ORIENTED_EDGE('',*,*,#717,.T.);
#923=EDGE_LOOP('',(#918,#919,#921,#922));
#924=FACE_OUTER_BOUND('',#923,.F.);
#925=ADVANCED_FACE('',(#924),#917,.F.);
#926=CARTESIAN_POINT('',(3.15E1,2.005E1,6.9108E0));
#927=DIRECTION('',(0.E0,0.E0,-1.E0));
#928=DIRECTION('',(1.E0,0.E0,0.E0));
#929=AXIS2_PLACEMENT_3D('',#926,#927,#928);
#930=CYLINDRICAL_SURFACE('',#929,1.E0);
#931=ORIENTED_EDGE('',*,*,#920,.T.);
#932=ORIENTED_EDGE('',*,*,#857,.T.);
#934=ORIENTED_EDGE('',*,*,#933,.T.);
#935=ORIENTED_EDGE('',*,*,#719,.T.);
#936=EDGE_LOOP('',(#931,#932,#934,#935));
#937=FACE_OUTER_BOUND('',#936,.F.);
#938=ADVANCED_FACE('',(#937),#930,.T.);
#939=CARTESIAN_POINT('',(3.25E1,-4.5E1,0.E0));
#940=DIRECTION('',(1.E0,0.E0,0.E0));
#941=DIRECTION('',(0.E0,1.E0,0.E0));
#942=AXIS2_PLACEMENT_3D('',#939,#940,#941);
#943=PLANE('',#942);
#944=ORIENTED_EDGE('',*,*,#737,.F.);
#946=ORIENTED_EDGE('',*,*,#945,.F.);
#947=ORIENTED_EDGE('',*,*,#839,.T.);
#949=ORIENTED_EDGE('',*,*,#948,.F.);
#950=EDGE_LOOP('',(#944,#946,#947,#949));
#951=FACE_OUTER_BOUND('',#950,.F.);
#952=ADVANCED_FACE('',(#951),#943,.T.);
#953=CARTESIAN_POINT('',(3.25E1,-4.5E1,0.E0));
#954=DIRECTION('',(1.E0,0.E0,0.E0));
#955=DIRECTION('',(0.E0,1.E0,0.E0));
#956=AXIS2_PLACEMENT_3D('',#953,#954,#955);
#957=PLANE('',#956);
#958=ORIENTED_EDGE('',*,*,#721,.F.);
#959=ORIENTED_EDGE('',*,*,#933,.F.);
#960=ORIENTED_EDGE('',*,*,#855,.T.);
#962=ORIENTED_EDGE('',*,*,#961,.T.);
#963=EDGE_LOOP('',(#958,#959,#960,#962));
#964=FACE_OUTER_BOUND('',#963,.F.);
#965=ADVANCED_FACE('',(#964),#957,.T.);
#966=CARTESIAN_POINT('',(3.05E1,-4.3E1,6.9108E0));
#967=DIRECTION('',(0.E0,0.E0,-1.E0));
#968=DIRECTION('',(1.E0,0.E0,0.E0));
#969=AXIS2_PLACEMENT_3D('',#966,#967,#968);
#970=CYLINDRICAL_SURFACE('',#969,2.E0);
#971=ORIENTED_EDGE('',*,*,#735,.T.);
#973=ORIENTED_EDGE('',*,*,#972,.F.);
#974=ORIENTED_EDGE('',*,*,#841,.T.);
#975=ORIENTED_EDGE('',*,*,#945,.T.);
#976=EDGE_LOOP('',(#971,#973,#974,#975));
#977=FACE_OUTER_BOUND('',#976,.F.);
#978=ADVANCED_FACE('',(#977),#970,.T.);
#979=CARTESIAN_POINT('',(-3.25E1,-4.5E1,0.E0));
#980=DIRECTION('',(0.E0,-1.E0,0.E0));
#981=DIRECTION('',(1.E0,0.E0,0.E0));
#982=AXIS2_PLACEMENT_3D('',#979,#980,#981);
#983=PLANE('',#982);
#985=ORIENTED_EDGE('',*,*,#984,.F.);
#986=ORIENTED_EDGE('',*,*,#843,.T.);
#987=ORIENTED_EDGE('',*,*,#972,.T.);
#988=ORIENTED_EDGE('',*,*,#733,.F.);
#989=EDGE_LOOP('',(#985,#986,#987,#988));
#990=FACE_OUTER_BOUND('',#989,.F.);
#991=ADVANCED_FACE('',(#990),#983,.T.);
#992=CARTESIAN_POINT('',(-3.05E1,-4.3E1,6.9108E0));
#993=DIRECTION('',(0.E0,0.E0,-1.E0));
#994=DIRECTION('',(0.E0,-1.E0,0.E0));
#995=AXIS2_PLACEMENT_3D('',#992,#993,#994);
#996=CYLINDRICAL_SURFACE('',#995,2.E0);
#997=ORIENTED_EDGE('',*,*,#731,.T.);
#999=ORIENTED_EDGE('',*,*,#998,.F.);
#1000=ORIENTED_EDGE('',*,*,#845,.T.);
#1001=ORIENTED_EDGE('',*,*,#984,.T.);
#1002=EDGE_LOOP('',(#997,#999,#1000,#1001));
#1003=FACE_OUTER_BOUND('',#1002,.F.);
#1004=ADVANCED_FACE('',(#1003),#996,.T.);
#1005=CARTESIAN_POINT('',(-3.25E1,4.5E1,0.E0));
#1006=DIRECTION('',(-1.E0,0.E0,0.E0));
#1007=DIRECTION('',(0.E0,-1.E0,0.E0));
#1008=AXIS2_PLACEMENT_3D('',#1005,#1006,#1007);
#1009=PLANE('',#1008);
#1011=ORIENTED_EDGE('',*,*,#1010,.F.);
#1012=ORIENTED_EDGE('',*,*,#847,.T.);
#1013=ORIENTED_EDGE('',*,*,#998,.T.);
#1014=ORIENTED_EDGE('',*,*,#729,.F.);
#1015=EDGE_LOOP('',(#1011,#1012,#1013,#1014));
#1016=FACE_OUTER_BOUND('',#1015,.F.);
#1017=ADVANCED_FACE('',(#1016),#1009,.T.);
#1018=CARTESIAN_POINT('',(-3.05E1,4.3E1,6.9108E0));
#1019=DIRECTION('',(0.E0,0.E0,-1.E0));
#1020=DIRECTION('',(-1.E0,0.E0,0.E0));
#1021=AXIS2_PLACEMENT_3D('',#1018,#1019,#1020);
#1022=CYLINDRICAL_SURFACE('',#1021,2.E0);
#1023=ORIENTED_EDGE('',*,*,#727,.T.);
#1025=ORIENTED_EDGE('',*,*,#1024,.F.);
#1026=ORIENTED_EDGE('',*,*,#849,.T.);
#1027=ORIENTED_EDGE('',*,*,#1010,.T.);
#1028=EDGE_LOOP('',(#1023,#1025,#1026,#1027));
#1029=FACE_OUTER_BOUND('',#1028,.F.);
#1030=ADVANCED_FACE('',(#1029),#1022,.T.);
#1031=CARTESIAN_POINT('',(3.25E1,4.5E1,0.E0));
#1032=DIRECTION('',(0.E0,1.E0,0.E0));
#1033=DIRECTION('',(-1.E0,0.E0,0.E0));
#1034=AXIS2_PLACEMENT_3D('',#1031,#1032,#1033);
#1035=PLANE('',#1034);
#1036=ORIENTED_EDGE('',*,*,#1024,.T.);
#1037=ORIENTED_EDGE('',*,*,#725,.F.);
#1039=ORIENTED_EDGE('',*,*,#1038,.F.);
#1040=ORIENTED_EDGE('',*,*,#851,.T.);
#1041=EDGE_LOOP('',(#1036,#1037,#1039,#1040));
#1042=FACE_OUTER_BOUND('',#1041,.F.);
#1043=ADVANCED_FACE('',(#1042),#1035,.T.);
#1044=CARTESIAN_POINT('',(3.05E1,4.3E1,6.9108E0));
#1045=DIRECTION('',(0.E0,0.E0,-1.E0));
#1046=DIRECTION('',(0.E0,1.E0,0.E0));
#1047=AXIS2_PLACEMENT_3D('',#1044,#1045,#1046);
#1048=CYLINDRICAL_SURFACE('',#1047,2.E0);
#1049=ORIENTED_EDGE('',*,*,#723,.T.);
#1050=ORIENTED_EDGE('',*,*,#961,.F.);
#1051=ORIENTED_EDGE('',*,*,#853,.T.);
#1052=ORIENTED_EDGE('',*,*,#1038,.T.);
#1053=EDGE_LOOP('',(#1049,#1050,#1051,#1052));
#1054=FACE_OUTER_BOUND('',#1053,.F.);
#1055=ADVANCED_FACE('',(#1054),#1048,.T.);
#1056=CARTESIAN_POINT('',(3.15E1,-2.005E1,-3.9108E0));
#1057=DIRECTION('',(0.E0,0.E0,1.E0));
#1058=DIRECTION('',(1.E0,0.E0,0.E0));
#1059=AXIS2_PLACEMENT_3D('',#1056,#1057,#1058);
#1060=CYLINDRICAL_SURFACE('',#1059,1.E0);
#1062=ORIENTED_EDGE('',*,*,#1061,.F.);
#1063=ORIENTED_EDGE('',*,*,#739,.T.);
#1064=ORIENTED_EDGE('',*,*,#948,.T.);
#1065=ORIENTED_EDGE('',*,*,#837,.T.);
#1066=EDGE_LOOP('',(#1062,#1063,#1064,#1065));
#1067=FACE_OUTER_BOUND('',#1066,.F.);
#1068=ADVANCED_FACE('',(#1067),#1060,.T.);
#1069=CARTESIAN_POINT('',(3.15E1,-1.705E1,3.E0));
#1070=DIRECTION('',(0.E0,0.E0,1.E0));
#1071=DIRECTION('',(1.E0,0.E0,0.E0));
#1072=AXIS2_PLACEMENT_3D('',#1069,#1070,#1071);
#1073=CYLINDRICAL_SURFACE('',#1072,2.E0);
#1075=ORIENTED_EDGE('',*,*,#1074,.T.);
#1076=ORIENTED_EDGE('',*,*,#741,.T.);
#1077=ORIENTED_EDGE('',*,*,#1061,.T.);
#1078=ORIENTED_EDGE('',*,*,#835,.F.);
#1079=EDGE_LOOP('',(#1075,#1076,#1077,#1078));
#1080=FACE_OUTER_BOUND('',#1079,.F.);
#1081=ADVANCED_FACE('',(#1080),#1073,.F.);
#1082=CARTESIAN_POINT('',(3.05E1,-1.422157287525E1,6.9108E0));
#1083=DIRECTION('',(0.E0,0.E0,-1.E0));
#1084=DIRECTION('',(1.E0,0.E0,0.E0));
#1085=AXIS2_PLACEMENT_3D('',#1082,#1083,#1084);
#1086=CYLINDRICAL_SURFACE('',#1085,1.E0);
#1087=ORIENTED_EDGE('',*,*,#743,.T.);
#1088=ORIENTED_EDGE('',*,*,#1074,.F.);
#1089=ORIENTED_EDGE('',*,*,#833,.T.);
#1091=ORIENTED_EDGE('',*,*,#1090,.T.);
#1092=EDGE_LOOP('',(#1087,#1088,#1089,#1091));
#1093=FACE_OUTER_BOUND('',#1092,.F.);
#1094=ADVANCED_FACE('',(#1093),#1086,.T.);
#1095=CARTESIAN_POINT('',(3.15E1,1.905E1,3.E0));
#1096=DIRECTION('',(-1.E0,0.E0,0.E0));
#1097=DIRECTION('',(0.E0,-1.E0,0.E0));
#1098=AXIS2_PLACEMENT_3D('',#1095,#1096,#1097);
#1099=PLANE('',#1098);
#1101=ORIENTED_EDGE('',*,*,#1100,.F.);
#1103=ORIENTED_EDGE('',*,*,#1102,.F.);
#1105=ORIENTED_EDGE('',*,*,#1104,.F.);
#1106=ORIENTED_EDGE('',*,*,#745,.T.);
#1107=ORIENTED_EDGE('',*,*,#1090,.F.);
#1108=ORIENTED_EDGE('',*,*,#831,.F.);
#1109=ORIENTED_EDGE('',*,*,#908,.F.);
#1110=ORIENTED_EDGE('',*,*,#713,.T.);
#1111=EDGE_LOOP('',(#1101,#1103,#1105,#1106,#1107,#1108,#1109,#1110));
#1112=FACE_OUTER_BOUND('',#1111,.F.);
#1113=ADVANCED_FACE('',(#1112),#1099,.F.);
#1114=CARTESIAN_POINT('',(3.05E1,3.E0,6.9108E0));
#1115=DIRECTION('',(0.E0,0.E0,-1.E0));
#1116=DIRECTION('',(1.E0,0.E0,0.E0));
#1117=AXIS2_PLACEMENT_3D('',#1114,#1115,#1116);
#1118=CYLINDRICAL_SURFACE('',#1117,1.E0);
#1119=ORIENTED_EDGE('',*,*,#711,.T.);
#1121=ORIENTED_EDGE('',*,*,#1120,.F.);
#1123=ORIENTED_EDGE('',*,*,#1122,.T.);
#1124=ORIENTED_EDGE('',*,*,#1100,.T.);
#1125=EDGE_LOOP('',(#1119,#1121,#1123,#1124));
#1126=FACE_OUTER_BOUND('',#1125,.F.);
#1127=ADVANCED_FACE('',(#1126),#1118,.T.);
#1128=CARTESIAN_POINT('',(1.85E1,2.E0,0.E0));
#1129=DIRECTION('',(0.E0,1.E0,0.E0));
#1130=DIRECTION('',(1.E0,0.E0,0.E0));
#1131=AXIS2_PLACEMENT_3D('',#1128,#1129,#1130);
#1132=PLANE('',#1131);
#1133=ORIENTED_EDGE('',*,*,#1120,.T.);
#1134=ORIENTED_EDGE('',*,*,#753,.F.);
#1136=ORIENTED_EDGE('',*,*,#1135,.T.);
#1138=ORIENTED_EDGE('',*,*,#1137,.T.);
#1139=EDGE_LOOP('',(#1133,#1134,#1136,#1138));
#1140=FACE_OUTER_BOUND('',#1139,.F.);
#1141=ADVANCED_FACE('',(#1140),#1132,.F.);
#1142=CARTESIAN_POINT('',(2.05E1,0.E0,-3.9108E0));
#1143=DIRECTION('',(0.E0,0.E0,1.E0));
#1144=DIRECTION('',(0.E0,1.E0,0.E0));
#1145=AXIS2_PLACEMENT_3D('',#1142,#1143,#1144);
#1146=CYLINDRICAL_SURFACE('',#1145,2.E0);
#1148=ORIENTED_EDGE('',*,*,#1147,.F.);
#1149=ORIENTED_EDGE('',*,*,#1135,.F.);
#1150=ORIENTED_EDGE('',*,*,#751,.F.);
#1152=ORIENTED_EDGE('',*,*,#1151,.T.);
#1153=EDGE_LOOP('',(#1148,#1149,#1150,#1152));
#1154=FACE_OUTER_BOUND('',#1153,.F.);
#1155=ADVANCED_FACE('',(#1154),#1146,.F.);
#1156=CARTESIAN_POINT('',(0.E0,0.E0,1.E0));
#1157=DIRECTION('',(0.E0,0.E0,-1.E0));
#1158=DIRECTION('',(1.E0,0.E0,0.E0));
#1159=AXIS2_PLACEMENT_3D('',#1156,#1157,#1158);
#1160=PLANE('',#1159);
#1162=ORIENTED_EDGE('',*,*,#1161,.F.);
#1164=ORIENTED_EDGE('',*,*,#1163,.F.);
#1165=ORIENTED_EDGE('',*,*,#1102,.T.);
#1166=ORIENTED_EDGE('',*,*,#1122,.F.);
#1167=ORIENTED_EDGE('',*,*,#1137,.F.);
#1168=ORIENTED_EDGE('',*,*,#1147,.T.);
#1169=EDGE_LOOP('',(#1162,#1164,#1165,#1166,#1167,#1168));
#1170=FACE_OUTER_BOUND('',#1169,.F.);
#1171=ADVANCED_FACE('',(#1170),#1160,.T.);
#1172=CARTESIAN_POINT('',(3.15E1,-2.E0,0.E0));
#1173=DIRECTION('',(0.E0,-1.E0,0.E0));
#1174=DIRECTION('',(-1.E0,0.E0,0.E0));
#1175=AXIS2_PLACEMENT_3D('',#1172,#1173,#1174);
#1176=PLANE('',#1175);
#1178=ORIENTED_EDGE('',*,*,#1177,.T.);
#1179=ORIENTED_EDGE('',*,*,#1161,.T.);
#1180=ORIENTED_EDGE('',*,*,#1151,.F.);
#1181=ORIENTED_EDGE('',*,*,#749,.F.);
#1182=EDGE_LOOP('',(#1178,#1179,#1180,#1181));
#1183=FACE_OUTER_BOUND('',#1182,.F.);
#1184=ADVANCED_FACE('',(#1183),#1176,.F.);
#1185=CARTESIAN_POINT('',(3.05E1,-3.E0,-3.9108E0));
#1186=DIRECTION('',(0.E0,0.E0,1.E0));
#1187=DIRECTION('',(1.E0,0.E0,0.E0));
#1188=AXIS2_PLACEMENT_3D('',#1185,#1186,#1187);
#1189=CYLINDRICAL_SURFACE('',#1188,1.E0);
#1190=ORIENTED_EDGE('',*,*,#1177,.F.);
#1191=ORIENTED_EDGE('',*,*,#747,.T.);
#1192=ORIENTED_EDGE('',*,*,#1104,.T.);
#1193=ORIENTED_EDGE('',*,*,#1163,.T.);
#1194=EDGE_LOOP('',(#1190,#1191,#1192,#1193));
#1195=FACE_OUTER_BOUND('',#1194,.F.);
#1196=ADVANCED_FACE('',(#1195),#1189,.T.);
#1197=CARTESIAN_POINT('',(-2.65E1,0.E0,0.E0));
#1198=DIRECTION('',(0.E0,0.E0,-1.E0));
#1199=DIRECTION('',(1.E0,0.E0,0.E0));
#1200=AXIS2_PLACEMENT_3D('',#1197,#1198,#1199);
#1201=CYLINDRICAL_SURFACE('',#1200,4.E0);
#1202=ORIENTED_EDGE('',*,*,#775,.F.);
#1204=ORIENTED_EDGE('',*,*,#1203,.T.);
#1205=ORIENTED_EDGE('',*,*,#863,.T.);
#1207=ORIENTED_EDGE('',*,*,#1206,.F.);
#1208=EDGE_LOOP('',(#1202,#1204,#1205,#1207));
#1209=FACE_OUTER_BOUND('',#1208,.F.);
#1210=ADVANCED_FACE('',(#1209),#1201,.F.);
#1211=CARTESIAN_POINT('',(-2.65E1,0.E0,0.E0));
#1212=DIRECTION('',(0.E0,0.E0,-1.E0));
#1213=DIRECTION('',(1.E0,0.E0,0.E0));
#1214=AXIS2_PLACEMENT_3D('',#1211,#1212,#1213);
#1215=CYLINDRICAL_SURFACE('',#1214,4.E0);
#1216=ORIENTED_EDGE('',*,*,#777,.F.);
#1217=ORIENTED_EDGE('',*,*,#1206,.T.);
#1218=ORIENTED_EDGE('',*,*,#865,.T.);
#1219=ORIENTED_EDGE('',*,*,#1203,.F.);
#1220=EDGE_LOOP('',(#1216,#1217,#1218,#1219));
#1221=FACE_OUTER_BOUND('',#1220,.F.);
#1222=ADVANCED_FACE('',(#1221),#1215,.F.);
#1223=CARTESIAN_POINT('',(2.425E1,1.25E1,2.249999985383E0));
#1224=DIRECTION('',(0.E0,0.E0,1.E0));
#1225=DIRECTION('',(0.E0,-1.E0,0.E0));
#1226=AXIS2_PLACEMENT_3D('',#1223,#1224,#1225);
#1227=CONICAL_SURFACE('',#1226,2.249999985383E0,4.5E1);
#1228=ORIENTED_EDGE('',*,*,#870,.T.);
#1229=ORIENTED_EDGE('',*,*,#819,.T.);
#1231=ORIENTED_EDGE('',*,*,#1230,.F.);
#1232=ORIENTED_EDGE('',*,*,#816,.F.);
#1233=EDGE_LOOP('',(#1228,#1229,#1231,#1232));
#1234=FACE_OUTER_BOUND('',#1233,.F.);
#1235=ADVANCED_FACE('',(#1234),#1227,.F.);
#1236=CARTESIAN_POINT('',(2.425E1,1.25E1,3.E0));
#1237=DIRECTION('',(0.E0,0.E0,1.E0));
#1238=DIRECTION('',(1.E0,0.E0,0.E0));
#1239=AXIS2_PLACEMENT_3D('',#1236,#1237,#1238);
#1240=CYLINDRICAL_SURFACE('',#1239,1.5E0);
#1241=ORIENTED_EDGE('',*,*,#1230,.T.);
#1242=ORIENTED_EDGE('',*,*,#804,.T.);
#1243=ORIENTED_EDGE('',*,*,#765,.T.);
#1244=ORIENTED_EDGE('',*,*,#801,.F.);
#1245=EDGE_LOOP('',(#1241,#1242,#1243,#1244));
#1246=FACE_OUTER_BOUND('',#1245,.F.);
#1247=ADVANCED_FACE('',(#1246),#1240,.F.);
#1248=CARTESIAN_POINT('',(2.425E1,-1.25E1,2.249999985383E0));
#1249=DIRECTION('',(0.E0,0.E0,1.E0));
#1250=DIRECTION('',(0.E0,-1.E0,0.E0));
#1251=AXIS2_PLACEMENT_3D('',#1248,#1249,#1250);
#1252=CONICAL_SURFACE('',#1251,2.249999985383E0,4.5E1);
#1253=ORIENTED_EDGE('',*,*,#874,.T.);
#1255=ORIENTED_EDGE('',*,*,#1254,.T.);
#1257=ORIENTED_EDGE('',*,*,#1256,.F.);
#1259=ORIENTED_EDGE('',*,*,#1258,.F.);
#1260=EDGE_LOOP('',(#1253,#1255,#1257,#1259));
#1261=FACE_OUTER_BOUND('',#1260,.F.);
#1262=ADVANCED_FACE('',(#1261),#1252,.F.);
#1263=CARTESIAN_POINT('',(2.425E1,-1.25E1,2.249999985383E0));
#1264=DIRECTION('',(0.E0,0.E0,1.E0));
#1265=DIRECTION('',(0.E0,-1.E0,0.E0));
#1266=AXIS2_PLACEMENT_3D('',#1263,#1264,#1265);
#1267=CONICAL_SURFACE('',#1266,2.249999985383E0,4.5E1);
#1268=ORIENTED_EDGE('',*,*,#876,.T.);
#1269=ORIENTED_EDGE('',*,*,#1258,.T.);
#1271=ORIENTED_EDGE('',*,*,#1270,.F.);
#1272=ORIENTED_EDGE('',*,*,#1254,.F.);
#1273=EDGE_LOOP('',(#1268,#1269,#1271,#1272));
#1274=FACE_OUTER_BOUND('',#1273,.F.);
#1275=ADVANCED_FACE('',(#1274),#1267,.F.);
#1276=CARTESIAN_POINT('',(2.425E1,-1.25E1,3.E0));
#1277=DIRECTION('',(0.E0,0.E0,1.E0));
#1278=DIRECTION('',(1.E0,0.E0,0.E0));
#1279=AXIS2_PLACEMENT_3D('',#1276,#1277,#1278);
#1280=CYLINDRICAL_SURFACE('',#1279,1.5E0);
#1281=ORIENTED_EDGE('',*,*,#1270,.T.);
#1283=ORIENTED_EDGE('',*,*,#1282,.T.);
#1284=ORIENTED_EDGE('',*,*,#757,.T.);
#1286=ORIENTED_EDGE('',*,*,#1285,.F.);
#1287=EDGE_LOOP('',(#1281,#1283,#1284,#1286));
#1288=FACE_OUTER_BOUND('',#1287,.F.);
#1289=ADVANCED_FACE('',(#1288),#1280,.F.);
#1290=CARTESIAN_POINT('',(2.425E1,-1.25E1,3.E0));
#1291=DIRECTION('',(0.E0,0.E0,1.E0));
#1292=DIRECTION('',(1.E0,0.E0,0.E0));
#1293=AXIS2_PLACEMENT_3D('',#1290,#1291,#1292);
#1294=CYLINDRICAL_SURFACE('',#1293,1.5E0);
#1295=ORIENTED_EDGE('',*,*,#1256,.T.);
#1296=ORIENTED_EDGE('',*,*,#1285,.T.);
#1297=ORIENTED_EDGE('',*,*,#759,.T.);
#1298=ORIENTED_EDGE('',*,*,#1282,.F.);
#1299=EDGE_LOOP('',(#1295,#1296,#1297,#1298));
#1300=FACE_OUTER_BOUND('',#1299,.F.);
#1301=ADVANCED_FACE('',(#1300),#1294,.F.);
#1302=CARTESIAN_POINT('',(2.475E0,0.E0,2.249999985383E0));
#1303=DIRECTION('',(0.E0,0.E0,1.E0));
#1304=DIRECTION('',(0.E0,-1.E0,0.E0));
#1305=AXIS2_PLACEMENT_3D('',#1302,#1303,#1304);
#1306=CONICAL_SURFACE('',#1305,2.249999985383E0,4.5E1);
#1307=ORIENTED_EDGE('',*,*,#880,.T.);
#1309=ORIENTED_EDGE('',*,*,#1308,.T.);
#1311=ORIENTED_EDGE('',*,*,#1310,.F.);
#1313=ORIENTED_EDGE('',*,*,#1312,.F.);
#1314=EDGE_LOOP('',(#1307,#1309,#1311,#1313));
#1315=FACE_OUTER_BOUND('',#1314,.F.);
#1316=ADVANCED_FACE('',(#1315),#1306,.F.);
#1317=CARTESIAN_POINT('',(2.475E0,0.E0,2.249999985383E0));
#1318=DIRECTION('',(0.E0,0.E0,1.E0));
#1319=DIRECTION('',(0.E0,-1.E0,0.E0));
#1320=AXIS2_PLACEMENT_3D('',#1317,#1318,#1319);
#1321=CONICAL_SURFACE('',#1320,2.249999985383E0,4.5E1);
#1322=ORIENTED_EDGE('',*,*,#882,.T.);
#1323=ORIENTED_EDGE('',*,*,#1312,.T.);
#1325=ORIENTED_EDGE('',*,*,#1324,.F.);
#1326=ORIENTED_EDGE('',*,*,#1308,.F.);
#1327=EDGE_LOOP('',(#1322,#1323,#1325,#1326));
#1328=FACE_OUTER_BOUND('',#1327,.F.);
#1329=ADVANCED_FACE('',(#1328),#1321,.F.);
#1330=CARTESIAN_POINT('',(2.475E0,0.E0,0.E0));
#1331=DIRECTION('',(0.E0,0.E0,-1.E0));
#1332=DIRECTION('',(1.E0,0.E0,0.E0));
#1333=AXIS2_PLACEMENT_3D('',#1330,#1331,#1332);
#1334=CYLINDRICAL_SURFACE('',#1333,1.5E0);
#1335=ORIENTED_EDGE('',*,*,#1324,.T.);
#1337=ORIENTED_EDGE('',*,*,#1336,.F.);
#1338=ORIENTED_EDGE('',*,*,#771,.F.);
#1340=ORIENTED_EDGE('',*,*,#1339,.T.);
#1341=EDGE_LOOP('',(#1335,#1337,#1338,#1340));
#1342=FACE_OUTER_BOUND('',#1341,.F.);
#1343=ADVANCED_FACE('',(#1342),#1334,.F.);
#1344=CARTESIAN_POINT('',(2.475E0,0.E0,0.E0));
#1345=DIRECTION('',(0.E0,0.E0,-1.E0));
#1346=DIRECTION('',(1.E0,0.E0,0.E0));
#1347=AXIS2_PLACEMENT_3D('',#1344,#1345,#1346);
#1348=CYLINDRICAL_SURFACE('',#1347,1.5E0);
#1349=ORIENTED_EDGE('',*,*,#1310,.T.);
#1350=ORIENTED_EDGE('',*,*,#1339,.F.);
#1351=ORIENTED_EDGE('',*,*,#769,.F.);
#1352=ORIENTED_EDGE('',*,*,#1336,.T.);
#1353=EDGE_LOOP('',(#1349,#1350,#1351,#1352));
#1354=FACE_OUTER_BOUND('',#1353,.F.);
#1355=ADVANCED_FACE('',(#1354),#1348,.F.);
#1356=CARTESIAN_POINT('',(-1.25E1,-1.1E1,2.249999985383E0));
#1357=DIRECTION('',(0.E0,0.E0,1.E0));
#1358=DIRECTION('',(0.E0,-1.E0,0.E0));
#1359=AXIS2_PLACEMENT_3D('',#1356,#1357,#1358);
#1360=CONICAL_SURFACE('',#1359,2.249999985383E0,4.5E1);
#1361=ORIENTED_EDGE('',*,*,#886,.T.);
#1363=ORIENTED_EDGE('',*,*,#1362,.T.);
#1365=ORIENTED_EDGE('',*,*,#1364,.F.);
#1367=ORIENTED_EDGE('',*,*,#1366,.F.);
#1368=EDGE_LOOP('',(#1361,#1363,#1365,#1367));
#1369=FACE_OUTER_BOUND('',#1368,.F.);
#1370=ADVANCED_FACE('',(#1369),#1360,.F.);
#1371=CARTESIAN_POINT('',(-1.25E1,-1.1E1,2.249999985383E0));
#1372=DIRECTION('',(0.E0,0.E0,1.E0));
#1373=DIRECTION('',(0.E0,-1.E0,0.E0));
#1374=AXIS2_PLACEMENT_3D('',#1371,#1372,#1373);
#1375=CONICAL_SURFACE('',#1374,2.249999985383E0,4.5E1);
#1376=ORIENTED_EDGE('',*,*,#888,.T.);
#1377=ORIENTED_EDGE('',*,*,#1366,.T.);
#1379=ORIENTED_EDGE('',*,*,#1378,.F.);
#1380=ORIENTED_EDGE('',*,*,#1362,.F.);
#1381=EDGE_LOOP('',(#1376,#1377,#1379,#1380));
#1382=FACE_OUTER_BOUND('',#1381,.F.);
#1383=ADVANCED_FACE('',(#1382),#1375,.F.);
#1384=CARTESIAN_POINT('',(-1.25E1,-1.1E1,0.E0));
#1385=DIRECTION('',(0.E0,0.E0,-1.E0));
#1386=DIRECTION('',(1.E0,0.E0,0.E0));
#1387=AXIS2_PLACEMENT_3D('',#1384,#1385,#1386);
#1388=CYLINDRICAL_SURFACE('',#1387,1.5E0);
#1389=ORIENTED_EDGE('',*,*,#1378,.T.);
#1391=ORIENTED_EDGE('',*,*,#1390,.F.);
#1392=ORIENTED_EDGE('',*,*,#783,.F.);
#1394=ORIENTED_EDGE('',*,*,#1393,.T.);
#1395=EDGE_LOOP('',(#1389,#1391,#1392,#1394));
#1396=FACE_OUTER_BOUND('',#1395,.F.);
#1397=ADVANCED_FACE('',(#1396),#1388,.F.);
#1398=CARTESIAN_POINT('',(-1.25E1,-1.1E1,0.E0));
#1399=DIRECTION('',(0.E0,0.E0,-1.E0));
#1400=DIRECTION('',(1.E0,0.E0,0.E0));
#1401=AXIS2_PLACEMENT_3D('',#1398,#1399,#1400);
#1402=CYLINDRICAL_SURFACE('',#1401,1.5E0);
#1403=ORIENTED_EDGE('',*,*,#1364,.T.);
#1404=ORIENTED_EDGE('',*,*,#1393,.F.);
#1405=ORIENTED_EDGE('',*,*,#781,.F.);
#1406=ORIENTED_EDGE('',*,*,#1390,.T.);
#1407=EDGE_LOOP('',(#1403,#1404,#1405,#1406));
#1408=FACE_OUTER_BOUND('',#1407,.F.);
#1409=ADVANCED_FACE('',(#1408),#1402,.F.);
#1410=CARTESIAN_POINT('',(-1.25E1,-3.E0,2.249999985383E0));
#1411=DIRECTION('',(0.E0,0.E0,1.E0));
#1412=DIRECTION('',(0.E0,-1.E0,0.E0));
#1413=AXIS2_PLACEMENT_3D('',#1410,#1411,#1412);
#1414=CONICAL_SURFACE('',#1413,2.249999985383E0,4.5E1);
#1415=ORIENTED_EDGE('',*,*,#892,.T.);
#1417=ORIENTED_EDGE('',*,*,#1416,.T.);
#1419=ORIENTED_EDGE('',*,*,#1418,.F.);
#1421=ORIENTED_EDGE('',*,*,#1420,.F.);
#1422=EDGE_LOOP('',(#1415,#1417,#1419,#1421));
#1423=FACE_OUTER_BOUND('',#1422,.F.);
#1424=ADVANCED_FACE('',(#1423),#1414,.F.);
#1425=CARTESIAN_POINT('',(-1.25E1,-3.E0,2.249999985383E0));
#1426=DIRECTION('',(0.E0,0.E0,1.E0));
#1427=DIRECTION('',(0.E0,-1.E0,0.E0));
#1428=AXIS2_PLACEMENT_3D('',#1425,#1426,#1427);
#1429=CONICAL_SURFACE('',#1428,2.249999985383E0,4.5E1);
#1430=ORIENTED_EDGE('',*,*,#894,.T.);
#1431=ORIENTED_EDGE('',*,*,#1420,.T.);
#1433=ORIENTED_EDGE('',*,*,#1432,.F.);
#1434=ORIENTED_EDGE('',*,*,#1416,.F.);
#1435=EDGE_LOOP('',(#1430,#1431,#1433,#1434));
#1436=FACE_OUTER_BOUND('',#1435,.F.);
#1437=ADVANCED_FACE('',(#1436),#1429,.F.);
#1438=CARTESIAN_POINT('',(-1.25E1,-3.E0,0.E0));
#1439=DIRECTION('',(0.E0,0.E0,-1.E0));
#1440=DIRECTION('',(1.E0,0.E0,0.E0));
#1441=AXIS2_PLACEMENT_3D('',#1438,#1439,#1440);
#1442=CYLINDRICAL_SURFACE('',#1441,1.5E0);
#1443=ORIENTED_EDGE('',*,*,#1432,.T.);
#1445=ORIENTED_EDGE('',*,*,#1444,.F.);
#1446=ORIENTED_EDGE('',*,*,#787,.F.);
#1448=ORIENTED_EDGE('',*,*,#1447,.T.);
#1449=EDGE_LOOP('',(#1443,#1445,#1446,#1448));
#1450=FACE_OUTER_BOUND('',#1449,.F.);
#1451=ADVANCED_FACE('',(#1450),#1442,.F.);
#1452=CARTESIAN_POINT('',(-1.25E1,-3.E0,0.E0));
#1453=DIRECTION('',(0.E0,0.E0,-1.E0));
#1454=DIRECTION('',(1.E0,0.E0,0.E0));
#1455=AXIS2_PLACEMENT_3D('',#1452,#1453,#1454);
#1456=CYLINDRICAL_SURFACE('',#1455,1.5E0);
#1457=ORIENTED_EDGE('',*,*,#1418,.T.);
#1458=ORIENTED_EDGE('',*,*,#1447,.F.);
#1459=ORIENTED_EDGE('',*,*,#789,.F.);
#1460=ORIENTED_EDGE('',*,*,#1444,.T.);
#1461=EDGE_LOOP('',(#1457,#1458,#1459,#1460));
#1462=FACE_OUTER_BOUND('',#1461,.F.);
#1463=ADVANCED_FACE('',(#1462),#1456,.F.);
#1467=DIMENSIONAL_EXPONENTS(0.E0,0.E0,0.E0,0.E0,0.E0,0.E0,0.E0);
#1469=PLANE_ANGLE_MEASURE_WITH_UNIT(PLANE_ANGLE_MEASURE(1.745329251994E-2),
#1468);
#1470=(CONVERSION_BASED_UNIT('DEGREE',#1469)NAMED_UNIT(*)PLANE_ANGLE_UNIT());
#1472=UNCERTAINTY_MEASURE_WITH_UNIT(LENGTH_MEASURE(1.221149334187E-2),#1466,
'closure',
'Maximum model space distance between geometric entities at asserted connectivities');
#1473=(GEOMETRIC_REPRESENTATION_CONTEXT(3)GLOBAL_UNCERTAINTY_ASSIGNED_CONTEXT((
#1472))GLOBAL_UNIT_ASSIGNED_CONTEXT((#1466,#1470,#1471))REPRESENTATION_CONTEXT(
'ID1','3'));
#1475=APPLICATION_CONTEXT(
'CONFIGURATION CONTROLLED 3D DESIGNS OF MECHANICAL PARTS AND ASSEMBLIES');
#1476=APPLICATION_PROTOCOL_DEFINITION('international standard',
'config_control_design',1994,#1475);
#1477=DESIGN_CONTEXT('',#1475,'design');
#1478=MECHANICAL_CONTEXT('',#1475,'mechanical');
#1479=PRODUCT('DINGGAI','DINGGAI','NOT SPECIFIED',(#1478));
#1480=PRODUCT_DEFINITION_FORMATION_WITH_SPECIFIED_SOURCE('11','LAST_VERSION',
#1479,.MADE.);
#1484=PRODUCT_CATEGORY('part','');
#1485=PRODUCT_RELATED_PRODUCT_CATEGORY('detail','',(#1479));
#1486=PRODUCT_CATEGORY_RELATIONSHIP('','',#1484,#1485);
#1487=SECURITY_CLASSIFICATION_LEVEL('unclassified');
#1488=SECURITY_CLASSIFICATION('','',#1487);
#1489=CC_DESIGN_SECURITY_CLASSIFICATION(#1488,(#1480));
#1490=APPROVAL_STATUS('approved');
#1491=APPROVAL(#1490,'');
#1492=CC_DESIGN_APPROVAL(#1491,(#1488,#1480,#1481));
#1493=CALENDAR_DATE(124,9,4);
#1494=COORDINATED_UNIVERSAL_TIME_OFFSET(8,0,.AHEAD.);
#1495=LOCAL_TIME(10,59,2.9E1,#1494);
#1496=DATE_AND_TIME(#1493,#1495);
#1497=APPROVAL_DATE_TIME(#1496,#1491);
#1498=DATE_TIME_ROLE('creation_date');
#1499=CC_DESIGN_DATE_AND_TIME_ASSIGNMENT(#1496,#1498,(#1481));
#1500=DATE_TIME_ROLE('classification_date');
#1501=CC_DESIGN_DATE_AND_TIME_ASSIGNMENT(#1496,#1500,(#1488));
#1502=PERSON('UNSPECIFIED','UNSPECIFIED',$,$,$,$);
#1503=ORGANIZATION('UNSPECIFIED','UNSPECIFIED','UNSPECIFIED');
#1504=PERSON_AND_ORGANIZATION(#1502,#1503);
#1505=APPROVAL_ROLE('approver');
#1506=APPROVAL_PERSON_ORGANIZATION(#1504,#1491,#1505);
#1507=PERSON_AND_ORGANIZATION_ROLE('creator');
#1508=CC_DESIGN_PERSON_AND_ORGANIZATION_ASSIGNMENT(#1504,#1507,(#1480,#1481));
#1509=PERSON_AND_ORGANIZATION_ROLE('design_supplier');
#1510=CC_DESIGN_PERSON_AND_ORGANIZATION_ASSIGNMENT(#1504,#1509,(#1480));
#1511=PERSON_AND_ORGANIZATION_ROLE('classification_officer');
#1512=CC_DESIGN_PERSON_AND_ORGANIZATION_ASSIGNMENT(#1504,#1511,(#1488));
#1513=PERSON_AND_ORGANIZATION_ROLE('design_owner');
#1514=CC_DESIGN_PERSON_AND_ORGANIZATION_ASSIGNMENT(#1504,#1513,(#1479));
#6=CIRCLE('',#5,1.5E0);
#11=CIRCLE('',#10,1.5E0);
#16=CIRCLE('',#15,1.5E0);
#21=CIRCLE('',#20,1.5E0);
#26=CIRCLE('',#25,1.E0);
#35=CIRCLE('',#34,1.E0);
#40=CIRCLE('',#39,2.E0);
#45=CIRCLE('',#44,1.E0);
#54=CIRCLE('',#53,2.E0);
#63=CIRCLE('',#62,2.E0);
#72=CIRCLE('',#71,2.E0);
#81=CIRCLE('',#80,2.E0);
#90=CIRCLE('',#89,1.E0);
#95=CIRCLE('',#94,2.E0);
#100=CIRCLE('',#99,1.E0);
#109=CIRCLE('',#108,1.E0);
#118=CIRCLE('',#117,2.E0);
#127=CIRCLE('',#126,1.5E0);
#132=CIRCLE('',#131,1.5E0);
#137=CIRCLE('',#136,4.E0);
#142=CIRCLE('',#141,4.E0);
#147=CIRCLE('',#146,1.5E0);
#152=CIRCLE('',#151,1.5E0);
#157=CIRCLE('',#156,1.5E0);
#162=CIRCLE('',#161,1.5E0);
#167=CIRCLE('',#166,1.5E0);
#180=CIRCLE('',#179,1.E0);
#189=CIRCLE('',#188,1.E0);
#194=CIRCLE('',#193,2.E0);
#199=CIRCLE('',#198,1.E0);
#208=CIRCLE('',#207,2.E0);
#217=CIRCLE('',#216,2.E0);
#226=CIRCLE('',#225,2.E0);
#235=CIRCLE('',#234,2.E0);
#244=CIRCLE('',#243,1.E0);
#249=CIRCLE('',#248,2.E0);
#254=CIRCLE('',#253,4.E0);
#259=CIRCLE('',#258,4.E0);
#264=CIRCLE('',#263,3.E0);
#269=CIRCLE('',#268,3.E0);
#274=CIRCLE('',#273,3.E0);
#279=CIRCLE('',#278,3.E0);
#284=CIRCLE('',#283,3.E0);
#289=CIRCLE('',#288,3.E0);
#294=CIRCLE('',#293,3.E0);
#299=CIRCLE('',#298,3.E0);
#304=CIRCLE('',#303,3.E0);
#309=CIRCLE('',#308,3.E0);
#386=CIRCLE('',#385,1.E0);
#411=CIRCLE('',#410,2.E0);
#424=CIRCLE('',#423,1.E0);
#441=CIRCLE('',#440,1.5E0);
#458=CIRCLE('',#457,1.5E0);
#467=CIRCLE('',#466,1.5E0);
#484=CIRCLE('',#483,1.5E0);
#493=CIRCLE('',#492,1.5E0);
#510=CIRCLE('',#509,1.5E0);
#519=CIRCLE('',#518,1.5E0);
#536=CIRCLE('',#535,1.5E0);
#545=CIRCLE('',#544,1.5E0);
#711=EDGE_CURVE('',#632,#633,#26,.T.);
#713=EDGE_CURVE('',#605,#632,#30,.T.);
#715=EDGE_CURVE('',#603,#605,#35,.T.);
#717=EDGE_CURVE('',#611,#603,#40,.T.);
#719=EDGE_CURVE('',#593,#611,#45,.T.);
#721=EDGE_CURVE('',#593,#585,#49,.T.);
#723=EDGE_CURVE('',#584,#585,#54,.T.);
#725=EDGE_CURVE('',#584,#561,#58,.T.);
#727=EDGE_CURVE('',#560,#561,#63,.T.);
#729=EDGE_CURVE('',#560,#569,#67,.T.);
#731=EDGE_CURVE('',#568,#569,#72,.T.);
#733=EDGE_CURVE('',#568,#577,#76,.T.);
#735=EDGE_CURVE('',#576,#577,#81,.T.);
#737=EDGE_CURVE('',#576,#591,#85,.T.);
#739=EDGE_CURVE('',#619,#591,#90,.T.);
#741=EDGE_CURVE('',#615,#619,#95,.T.);
#743=EDGE_CURVE('',#614,#615,#100,.T.);
#745=EDGE_CURVE('',#643,#614,#104,.T.);
#747=EDGE_CURVE('',#640,#643,#109,.T.);
#749=EDGE_CURVE('',#640,#629,#113,.T.);
#751=EDGE_CURVE('',#629,#627,#118,.T.);
#753=EDGE_CURVE('',#627,#633,#122,.T.);
#757=EDGE_CURVE('',#556,#557,#16,.T.);
#759=EDGE_CURVE('',#557,#556,#21,.T.);
#763=EDGE_CURVE('',#552,#553,#6,.T.);
#765=EDGE_CURVE('',#553,#552,#11,.T.);
#769=EDGE_CURVE('',#648,#649,#127,.T.);
#771=EDGE_CURVE('',#649,#648,#132,.T.);
#775=EDGE_CURVE('',#652,#653,#137,.T.);
#777=EDGE_CURVE('',#653,#652,#142,.T.);
#781=EDGE_CURVE('',#660,#661,#147,.T.);
#783=EDGE_CURVE('',#661,#660,#152,.T.);
#787=EDGE_CURVE('',#664,#665,#157,.T.);
#789=EDGE_CURVE('',#665,#664,#162,.T.);
#799=EDGE_CURVE('',#672,#673,#167,.T.);
#801=EDGE_CURVE('',#673,#552,#171,.T.);
#804=EDGE_CURVE('',#672,#553,#445,.T.);
#814=EDGE_CURVE('',#668,#669,#264,.T.);
#816=EDGE_CURVE('',#669,#673,#436,.T.);
#819=EDGE_CURVE('',#668,#672,#175,.T.);
#829=EDGE_CURVE('',#600,#601,#180,.T.);
#831=EDGE_CURVE('',#600,#609,#184,.T.);
#833=EDGE_CURVE('',#617,#609,#189,.T.);
#835=EDGE_CURVE('',#617,#621,#194,.T.);
#837=EDGE_CURVE('',#595,#621,#199,.T.);
#839=EDGE_CURVE('',#581,#595,#203,.T.);
#841=EDGE_CURVE('',#579,#581,#208,.T.);
#843=EDGE_CURVE('',#573,#579,#212,.T.);
#845=EDGE_CURVE('',#571,#573,#217,.T.);
#847=EDGE_CURVE('',#565,#571,#221,.T.);
#849=EDGE_CURVE('',#563,#565,#226,.T.);
#851=EDGE_CURVE('',#589,#563,#230,.T.);
#853=EDGE_CURVE('',#587,#589,#235,.T.);
#855=EDGE_CURVE('',#597,#587,#239,.T.);
#857=EDGE_CURVE('',#607,#597,#244,.T.);
#859=EDGE_CURVE('',#607,#601,#249,.T.);
#863=EDGE_CURVE('',#656,#657,#254,.T.);
#865=EDGE_CURVE('',#657,#656,#259,.T.);
#870=EDGE_CURVE('',#669,#668,#269,.T.);
#874=EDGE_CURVE('',#676,#677,#274,.T.);
#876=EDGE_CURVE('',#677,#676,#279,.T.);
#880=EDGE_CURVE('',#684,#685,#284,.T.);
#882=EDGE_CURVE('',#685,#684,#289,.T.);
#886=EDGE_CURVE('',#692,#693,#294,.T.);
#888=EDGE_CURVE('',#693,#692,#299,.T.);
#892=EDGE_CURVE('',#700,#701,#304,.T.);
#894=EDGE_CURVE('',#701,#700,#309,.T.);
#905=EDGE_CURVE('',#603,#601,#313,.T.);
#908=EDGE_CURVE('',#605,#600,#381,.T.);
#920=EDGE_CURVE('',#611,#607,#317,.T.);
#933=EDGE_CURVE('',#597,#593,#329,.T.);
#945=EDGE_CURVE('',#581,#576,#321,.T.);
#948=EDGE_CURVE('',#591,#595,#325,.T.);
#961=EDGE_CURVE('',#587,#585,#333,.T.);
#972=EDGE_CURVE('',#579,#577,#341,.T.);
#984=EDGE_CURVE('',#573,#568,#337,.T.);
#998=EDGE_CURVE('',#571,#569,#349,.T.);
#1010=EDGE_CURVE('',#565,#560,#345,.T.);
#1024=EDGE_CURVE('',#563,#561,#353,.T.);
#1038=EDGE_CURVE('',#589,#584,#357,.T.);
#1061=EDGE_CURVE('',#619,#621,#361,.T.);
#1074=EDGE_CURVE('',#617,#615,#365,.T.);
#1090=EDGE_CURVE('',#609,#614,#377,.T.);
#1100=EDGE_CURVE('',#637,#632,#369,.T.);
#1102=EDGE_CURVE('',#645,#637,#402,.T.);
#1104=EDGE_CURVE('',#643,#645,#373,.T.);
#1120=EDGE_CURVE('',#635,#633,#390,.T.);
#1122=EDGE_CURVE('',#635,#637,#386,.T.);
#1135=EDGE_CURVE('',#627,#624,#394,.T.);
#1137=EDGE_CURVE('',#624,#635,#406,.T.);
#1147=EDGE_CURVE('',#624,#625,#411,.T.);
#1151=EDGE_CURVE('',#629,#625,#419,.T.);
#1161=EDGE_CURVE('',#641,#625,#398,.T.);
#1163=EDGE_CURVE('',#645,#641,#424,.T.);
#1177=EDGE_CURVE('',#640,#641,#415,.T.);
#1203=EDGE_CURVE('',#652,#656,#428,.T.);
#1206=EDGE_CURVE('',#653,#657,#432,.T.);
#1230=EDGE_CURVE('',#673,#672,#441,.T.);
#1254=EDGE_CURVE('',#677,#681,#453,.T.);
#1256=EDGE_CURVE('',#680,#681,#467,.T.);
#1258=EDGE_CURVE('',#676,#680,#449,.T.);
#1270=EDGE_CURVE('',#681,#680,#458,.T.);
#1282=EDGE_CURVE('',#680,#556,#462,.T.);
#1285=EDGE_CURVE('',#681,#557,#471,.T.);
#1308=EDGE_CURVE('',#685,#689,#479,.T.);
#1310=EDGE_CURVE('',#688,#689,#493,.T.);
#1312=EDGE_CURVE('',#684,#688,#475,.T.);
#1324=EDGE_CURVE('',#689,#688,#484,.T.);
#1336=EDGE_CURVE('',#648,#688,#497,.T.);
#1339=EDGE_CURVE('',#649,#689,#488,.T.);
#1362=EDGE_CURVE('',#693,#697,#505,.T.);
#1364=EDGE_CURVE('',#696,#697,#519,.T.);
#1366=EDGE_CURVE('',#692,#696,#501,.T.);
#1378=EDGE_CURVE('',#697,#696,#510,.T.);
#1390=EDGE_CURVE('',#660,#696,#523,.T.);
#1393=EDGE_CURVE('',#661,#697,#514,.T.);
#1416=EDGE_CURVE('',#701,#705,#531,.T.);
#1418=EDGE_CURVE('',#704,#705,#545,.T.);
#1420=EDGE_CURVE('',#700,#704,#527,.T.);
#1432=EDGE_CURVE('',#705,#704,#536,.T.);
#1444=EDGE_CURVE('',#665,#704,#549,.T.);
#1447=EDGE_CURVE('',#664,#705,#540,.T.);
#1464=CLOSED_SHELL('',(#793,#808,#823,#898,#912,#925,#938,#952,#965,#978,#991,
#1004,#1017,#1030,#1043,#1055,#1068,#1081,#1094,#1113,#1127,#1141,#1155,#1171,
#1184,#1196,#1210,#1222,#1235,#1247,#1262,#1275,#1289,#1301,#1316,#1329,#1343,
#1355,#1370,#1383,#1397,#1409,#1424,#1437,#1451,#1463));
#1465=MANIFOLD_SOLID_BREP('',#1464);
#1466=(LENGTH_UNIT()NAMED_UNIT(*)SI_UNIT(.MILLI.,.METRE.));
#1468=(NAMED_UNIT(*)PLANE_ANGLE_UNIT()SI_UNIT($,.RADIAN.));
#1471=(NAMED_UNIT(*)SI_UNIT($,.STERADIAN.)SOLID_ANGLE_UNIT());
#1474=ADVANCED_BREP_SHAPE_REPRESENTATION('',(#1465),#1473);
#1481=PRODUCT_DEFINITION('design','',#1480,#1477);
#1482=PRODUCT_DEFINITION_SHAPE('','SHAPE FOR DINGGAI.',#1481);
#1483=SHAPE_DEFINITION_REPRESENTATION(#1482,#1474);
ENDSEC;
END-ISO-10303-21;
