ISO-10303-21;
HEADER;
FILE_DESCRIPTION((''),'2;1');
FILE_NAME('LIANGAN1','2024-04-11T09:01:28',('005'),(''),
'CREO PARAMETRIC BY PTC INC, 2020053','CREO PARAMETRIC BY PTC INC, 2020053','');
FILE_SCHEMA(('CONFIG_CONTROL_DESIGN'));
ENDSEC;
DATA;
#2=CARTESIAN_POINT('',(-3.E0,0.E0,0.E0));
#3=DIRECTION('',(-1.E0,0.E0,0.E0));
#4=DIRECTION('',(0.E0,0.E0,-1.E0));
#5=AXIS2_PLACEMENT_3D('',#2,#3,#4);
#7=CARTESIAN_POINT('',(-3.E0,0.E0,0.E0));
#8=DIRECTION('',(-1.E0,0.E0,0.E0));
#9=DIRECTION('',(0.E0,0.E0,1.E0));
#10=AXIS2_PLACEMENT_3D('',#7,#8,#9);
#12=CARTESIAN_POINT('',(-3.E0,1.6E2,0.E0));
#13=DIRECTION('',(-1.E0,0.E0,0.E0));
#14=DIRECTION('',(0.E0,0.E0,-1.E0));
#15=AXIS2_PLACEMENT_3D('',#12,#13,#14);
#17=CARTESIAN_POINT('',(-3.E0,1.6E2,0.E0));
#18=DIRECTION('',(-1.E0,0.E0,0.E0));
#19=DIRECTION('',(0.E0,0.E0,1.E0));
#20=AXIS2_PLACEMENT_3D('',#17,#18,#19);
#22=CARTESIAN_POINT('',(-3.E0,-8.75E0,0.E0));
#23=DIRECTION('',(-1.E0,0.E0,0.E0));
#24=DIRECTION('',(0.E0,0.E0,1.E0));
#25=AXIS2_PLACEMENT_3D('',#22,#23,#24);
#27=CARTESIAN_POINT('',(-3.E0,-8.75E0,0.E0));
#28=DIRECTION('',(-1.E0,0.E0,0.E0));
#29=DIRECTION('',(0.E0,0.E0,-1.E0));
#30=AXIS2_PLACEMENT_3D('',#27,#28,#29);
#32=CARTESIAN_POINT('',(-3.E0,4.375E0,-7.577722283114E0));
#33=DIRECTION('',(-1.E0,0.E0,0.E0));
#34=DIRECTION('',(0.E0,0.E0,1.E0));
#35=AXIS2_PLACEMENT_3D('',#32,#33,#34);
#37=CARTESIAN_POINT('',(-3.E0,4.375E0,-7.577722283114E0));
#38=DIRECTION('',(-1.E0,0.E0,0.E0));
#39=DIRECTION('',(0.E0,0.E0,-1.E0));
#40=AXIS2_PLACEMENT_3D('',#37,#38,#39);
#42=CARTESIAN_POINT('',(-3.E0,4.375E0,7.577722283114E0));
#43=DIRECTION('',(-1.E0,0.E0,0.E0));
#44=DIRECTION('',(0.E0,0.E0,1.E0));
#45=AXIS2_PLACEMENT_3D('',#42,#43,#44);
#47=CARTESIAN_POINT('',(-3.E0,4.375E0,7.577722283114E0));
#48=DIRECTION('',(-1.E0,0.E0,0.E0));
#49=DIRECTION('',(0.E0,0.E0,-1.E0));
#50=AXIS2_PLACEMENT_3D('',#47,#48,#49);
#52=DIRECTION('',(0.E0,-1.E0,0.E0));
#53=VECTOR('',#52,1.437211794039E2);
#54=CARTESIAN_POINT('',(-3.E0,1.6E2,1.2E1));
#55=LINE('',#54,#53);
#56=CARTESIAN_POINT('',(-3.E0,0.E0,0.E0));
#57=DIRECTION('',(1.E0,0.E0,0.E0));
#58=DIRECTION('',(0.E0,5.613386412448E-1,8.275862068966E-1));
#59=AXIS2_PLACEMENT_3D('',#56,#57,#58);
#61=DIRECTION('',(0.E0,1.E0,0.E0));
#62=VECTOR('',#61,1.437211794039E2);
#63=CARTESIAN_POINT('',(-3.E0,1.627882059610E1,-1.2E1));
#64=LINE('',#63,#62);
#65=CARTESIAN_POINT('',(-3.E0,1.6E2,0.E0));
#66=DIRECTION('',(1.E0,0.E0,0.E0));
#67=DIRECTION('',(0.E0,0.E0,-1.E0));
#68=AXIS2_PLACEMENT_3D('',#65,#66,#67);
#70=CARTESIAN_POINT('',(-3.E0,3.E1,0.E0));
#71=DIRECTION('',(1.E0,0.E0,0.E0));
#72=DIRECTION('',(0.E0,0.E0,1.E0));
#73=AXIS2_PLACEMENT_3D('',#70,#71,#72);
#75=DIRECTION('',(0.E0,-1.E0,0.E0));
#76=VECTOR('',#75,1.4E1);
#77=CARTESIAN_POINT('',(-3.E0,4.4E1,3.E0));
#78=LINE('',#77,#76);
#79=CARTESIAN_POINT('',(-3.E0,4.4E1,0.E0));
#80=DIRECTION('',(1.E0,0.E0,0.E0));
#81=DIRECTION('',(0.E0,0.E0,-1.E0));
#82=AXIS2_PLACEMENT_3D('',#79,#80,#81);
#84=DIRECTION('',(0.E0,1.E0,0.E0));
#85=VECTOR('',#84,1.4E1);
#86=CARTESIAN_POINT('',(-3.E0,3.E1,-3.E0));
#87=LINE('',#86,#85);
#88=CARTESIAN_POINT('',(-3.E0,6.E1,0.E0));
#89=DIRECTION('',(1.E0,0.E0,0.E0));
#90=DIRECTION('',(0.E0,0.E0,1.E0));
#91=AXIS2_PLACEMENT_3D('',#88,#89,#90);
#93=DIRECTION('',(0.E0,-1.E0,0.E0));
#94=VECTOR('',#93,1.4E1);
#95=CARTESIAN_POINT('',(-3.E0,7.4E1,3.E0));
#96=LINE('',#95,#94);
#97=CARTESIAN_POINT('',(-3.E0,7.4E1,0.E0));
#98=DIRECTION('',(1.E0,0.E0,0.E0));
#99=DIRECTION('',(0.E0,0.E0,-1.E0));
#100=AXIS2_PLACEMENT_3D('',#97,#98,#99);
#102=DIRECTION('',(0.E0,1.E0,0.E0));
#103=VECTOR('',#102,1.4E1);
#104=CARTESIAN_POINT('',(-3.E0,6.E1,-3.E0));
#105=LINE('',#104,#103);
#106=CARTESIAN_POINT('',(-3.E0,9.E1,0.E0));
#107=DIRECTION('',(1.E0,0.E0,0.E0));
#108=DIRECTION('',(0.E0,0.E0,1.E0));
#109=AXIS2_PLACEMENT_3D('',#106,#107,#108);
#111=DIRECTION('',(0.E0,-1.E0,0.E0));
#112=VECTOR('',#111,1.4E1);
#113=CARTESIAN_POINT('',(-3.E0,1.04E2,3.E0));
#114=LINE('',#113,#112);
#115=CARTESIAN_POINT('',(-3.E0,1.04E2,0.E0));
#116=DIRECTION('',(1.E0,0.E0,0.E0));
#117=DIRECTION('',(0.E0,0.E0,-1.E0));
#118=AXIS2_PLACEMENT_3D('',#115,#116,#117);
#120=DIRECTION('',(0.E0,1.E0,0.E0));
#121=VECTOR('',#120,1.4E1);
#122=CARTESIAN_POINT('',(-3.E0,9.E1,-3.E0));
#123=LINE('',#122,#121);
#124=CARTESIAN_POINT('',(-3.E0,1.2E2,0.E0));
#125=DIRECTION('',(1.E0,0.E0,0.E0));
#126=DIRECTION('',(0.E0,0.E0,1.E0));
#127=AXIS2_PLACEMENT_3D('',#124,#125,#126);
#129=DIRECTION('',(0.E0,-1.E0,0.E0));
#130=VECTOR('',#129,1.4E1);
#131=CARTESIAN_POINT('',(-3.E0,1.34E2,3.E0));
#132=LINE('',#131,#130);
#133=CARTESIAN_POINT('',(-3.E0,1.34E2,0.E0));
#134=DIRECTION('',(1.E0,0.E0,0.E0));
#135=DIRECTION('',(0.E0,0.E0,-1.E0));
#136=AXIS2_PLACEMENT_3D('',#133,#134,#135);
#138=DIRECTION('',(0.E0,1.E0,0.E0));
#139=VECTOR('',#138,1.4E1);
#140=CARTESIAN_POINT('',(-3.E0,1.2E2,-3.E0));
#141=LINE('',#140,#139);
#142=DIRECTION('',(1.E0,0.E0,0.E0));
#143=VECTOR('',#142,6.E0);
#144=CARTESIAN_POINT('',(-3.E0,0.E0,-2.5E0));
#145=LINE('',#144,#143);
#146=DIRECTION('',(1.E0,0.E0,0.E0));
#147=VECTOR('',#146,6.E0);
#148=CARTESIAN_POINT('',(-3.E0,0.E0,2.5E0));
#149=LINE('',#148,#147);
#150=CARTESIAN_POINT('',(3.E0,1.6E2,0.E0));
#151=DIRECTION('',(-1.E0,0.E0,0.E0));
#152=DIRECTION('',(0.E0,0.E0,-1.E0));
#153=AXIS2_PLACEMENT_3D('',#150,#151,#152);
#155=CARTESIAN_POINT('',(3.E0,1.6E2,0.E0));
#156=DIRECTION('',(-1.E0,0.E0,0.E0));
#157=DIRECTION('',(0.E0,0.E0,1.E0));
#158=AXIS2_PLACEMENT_3D('',#155,#156,#157);
#160=CARTESIAN_POINT('',(3.E0,0.E0,0.E0));
#161=DIRECTION('',(-1.E0,0.E0,0.E0));
#162=DIRECTION('',(0.E0,0.E0,-1.E0));
#163=AXIS2_PLACEMENT_3D('',#160,#161,#162);
#165=CARTESIAN_POINT('',(3.E0,0.E0,0.E0));
#166=DIRECTION('',(-1.E0,0.E0,0.E0));
#167=DIRECTION('',(0.E0,0.E0,1.E0));
#168=AXIS2_PLACEMENT_3D('',#165,#166,#167);
#170=CARTESIAN_POINT('',(3.E0,0.E0,0.E0));
#171=DIRECTION('',(1.E0,0.E0,0.E0));
#172=DIRECTION('',(0.E0,5.613386412448E-1,8.275862068966E-1));
#173=AXIS2_PLACEMENT_3D('',#170,#171,#172);
#175=DIRECTION('',(0.E0,-1.E0,0.E0));
#176=VECTOR('',#175,1.437211794039E2);
#177=CARTESIAN_POINT('',(3.E0,1.6E2,1.2E1));
#178=LINE('',#177,#176);
#179=CARTESIAN_POINT('',(3.E0,1.6E2,0.E0));
#180=DIRECTION('',(1.E0,0.E0,0.E0));
#181=DIRECTION('',(0.E0,0.E0,-1.E0));
#182=AXIS2_PLACEMENT_3D('',#179,#180,#181);
#184=DIRECTION('',(0.E0,1.E0,0.E0));
#185=VECTOR('',#184,1.437211794039E2);
#186=CARTESIAN_POINT('',(3.E0,1.627882059610E1,-1.2E1));
#187=LINE('',#186,#185);
#188=CARTESIAN_POINT('',(3.E0,3.E1,0.E0));
#189=DIRECTION('',(1.E0,0.E0,0.E0));
#190=DIRECTION('',(0.E0,0.E0,1.E0));
#191=AXIS2_PLACEMENT_3D('',#188,#189,#190);
#193=DIRECTION('',(0.E0,1.E0,0.E0));
#194=VECTOR('',#193,1.4E1);
#195=CARTESIAN_POINT('',(3.E0,3.E1,-3.E0));
#196=LINE('',#195,#194);
#197=CARTESIAN_POINT('',(3.E0,4.4E1,0.E0));
#198=DIRECTION('',(1.E0,0.E0,0.E0));
#199=DIRECTION('',(0.E0,0.E0,-1.E0));
#200=AXIS2_PLACEMENT_3D('',#197,#198,#199);
#202=DIRECTION('',(0.E0,-1.E0,0.E0));
#203=VECTOR('',#202,1.4E1);
#204=CARTESIAN_POINT('',(3.E0,4.4E1,3.E0));
#205=LINE('',#204,#203);
#206=CARTESIAN_POINT('',(3.E0,6.E1,0.E0));
#207=DIRECTION('',(1.E0,0.E0,0.E0));
#208=DIRECTION('',(0.E0,0.E0,1.E0));
#209=AXIS2_PLACEMENT_3D('',#206,#207,#208);
#211=DIRECTION('',(0.E0,1.E0,0.E0));
#212=VECTOR('',#211,1.4E1);
#213=CARTESIAN_POINT('',(3.E0,6.E1,-3.E0));
#214=LINE('',#213,#212);
#215=CARTESIAN_POINT('',(3.E0,7.4E1,0.E0));
#216=DIRECTION('',(1.E0,0.E0,0.E0));
#217=DIRECTION('',(0.E0,0.E0,-1.E0));
#218=AXIS2_PLACEMENT_3D('',#215,#216,#217);
#220=DIRECTION('',(0.E0,-1.E0,0.E0));
#221=VECTOR('',#220,1.4E1);
#222=CARTESIAN_POINT('',(3.E0,7.4E1,3.E0));
#223=LINE('',#222,#221);
#224=CARTESIAN_POINT('',(3.E0,9.E1,0.E0));
#225=DIRECTION('',(1.E0,0.E0,0.E0));
#226=DIRECTION('',(0.E0,0.E0,1.E0));
#227=AXIS2_PLACEMENT_3D('',#224,#225,#226);
#229=DIRECTION('',(0.E0,1.E0,0.E0));
#230=VECTOR('',#229,1.4E1);
#231=CARTESIAN_POINT('',(3.E0,9.E1,-3.E0));
#232=LINE('',#231,#230);
#233=CARTESIAN_POINT('',(3.E0,1.04E2,0.E0));
#234=DIRECTION('',(1.E0,0.E0,0.E0));
#235=DIRECTION('',(0.E0,0.E0,-1.E0));
#236=AXIS2_PLACEMENT_3D('',#233,#234,#235);
#238=DIRECTION('',(0.E0,-1.E0,0.E0));
#239=VECTOR('',#238,1.4E1);
#240=CARTESIAN_POINT('',(3.E0,1.04E2,3.E0));
#241=LINE('',#240,#239);
#242=CARTESIAN_POINT('',(3.E0,1.2E2,0.E0));
#243=DIRECTION('',(1.E0,0.E0,0.E0));
#244=DIRECTION('',(0.E0,0.E0,1.E0));
#245=AXIS2_PLACEMENT_3D('',#242,#243,#244);
#247=DIRECTION('',(0.E0,1.E0,0.E0));
#248=VECTOR('',#247,1.4E1);
#249=CARTESIAN_POINT('',(3.E0,1.2E2,-3.E0));
#250=LINE('',#249,#248);
#251=CARTESIAN_POINT('',(3.E0,1.34E2,0.E0));
#252=DIRECTION('',(1.E0,0.E0,0.E0));
#253=DIRECTION('',(0.E0,0.E0,-1.E0));
#254=AXIS2_PLACEMENT_3D('',#251,#252,#253);
#256=DIRECTION('',(0.E0,-1.E0,0.E0));
#257=VECTOR('',#256,1.4E1);
#258=CARTESIAN_POINT('',(3.E0,1.34E2,3.E0));
#259=LINE('',#258,#257);
#260=CARTESIAN_POINT('',(3.E0,-8.75E0,0.E0));
#261=DIRECTION('',(-1.E0,0.E0,0.E0));
#262=DIRECTION('',(0.E0,0.E0,-1.E0));
#263=AXIS2_PLACEMENT_3D('',#260,#261,#262);
#265=CARTESIAN_POINT('',(3.E0,-8.75E0,0.E0));
#266=DIRECTION('',(-1.E0,0.E0,0.E0));
#267=DIRECTION('',(0.E0,0.E0,1.E0));
#268=AXIS2_PLACEMENT_3D('',#265,#266,#267);
#270=CARTESIAN_POINT('',(3.E0,4.375E0,-7.577722283114E0));
#271=DIRECTION('',(-1.E0,0.E0,0.E0));
#272=DIRECTION('',(0.E0,0.E0,-1.E0));
#273=AXIS2_PLACEMENT_3D('',#270,#271,#272);
#275=CARTESIAN_POINT('',(3.E0,4.375E0,-7.577722283114E0));
#276=DIRECTION('',(-1.E0,0.E0,0.E0));
#277=DIRECTION('',(0.E0,0.E0,1.E0));
#278=AXIS2_PLACEMENT_3D('',#275,#276,#277);
#280=CARTESIAN_POINT('',(3.E0,4.375E0,7.577722283114E0));
#281=DIRECTION('',(-1.E0,0.E0,0.E0));
#282=DIRECTION('',(0.E0,0.E0,-1.E0));
#283=AXIS2_PLACEMENT_3D('',#280,#281,#282);
#285=CARTESIAN_POINT('',(3.E0,4.375E0,7.577722283114E0));
#286=DIRECTION('',(-1.E0,0.E0,0.E0));
#287=DIRECTION('',(0.E0,0.E0,1.E0));
#288=AXIS2_PLACEMENT_3D('',#285,#286,#287);
#290=DIRECTION('',(1.E0,0.E0,0.E0));
#291=VECTOR('',#290,6.E0);
#292=CARTESIAN_POINT('',(-3.E0,1.6E2,-6.5E0));
#293=LINE('',#292,#291);
#294=DIRECTION('',(1.E0,0.E0,0.E0));
#295=VECTOR('',#294,6.E0);
#296=CARTESIAN_POINT('',(-3.E0,1.6E2,6.5E0));
#297=LINE('',#296,#295);
#298=DIRECTION('',(1.E0,0.E0,0.E0));
#299=VECTOR('',#298,6.E0);
#300=CARTESIAN_POINT('',(-3.E0,9.542756901162E0,1.406896551724E1));
#301=LINE('',#300,#299);
#302=DIRECTION('',(1.E0,0.E0,0.E0));
#303=VECTOR('',#302,6.E0);
#304=CARTESIAN_POINT('',(-3.E0,9.542756901162E0,-1.406896551724E1));
#305=LINE('',#304,#303);
#306=CARTESIAN_POINT('',(-3.E0,1.627882059610E1,2.4E1));
#307=DIRECTION('',(1.E0,0.E0,0.E0));
#308=DIRECTION('',(0.E0,-5.613386412448E-1,-8.275862068966E-1));
#309=AXIS2_PLACEMENT_3D('',#306,#307,#308);
#311=CARTESIAN_POINT('',(3.E0,1.627882059610E1,2.4E1));
#312=DIRECTION('',(-1.E0,0.E0,0.E0));
#313=DIRECTION('',(0.E0,0.E0,-1.E0));
#314=AXIS2_PLACEMENT_3D('',#311,#312,#313);
#316=DIRECTION('',(1.E0,0.E0,0.E0));
#317=VECTOR('',#316,6.E0);
#318=CARTESIAN_POINT('',(-3.E0,1.627882059610E1,1.2E1));
#319=LINE('',#318,#317);
#320=DIRECTION('',(1.E0,0.E0,0.E0));
#321=VECTOR('',#320,6.E0);
#322=CARTESIAN_POINT('',(-3.E0,1.6E2,1.2E1));
#323=LINE('',#322,#321);
#324=DIRECTION('',(1.E0,0.E0,0.E0));
#325=VECTOR('',#324,6.E0);
#326=CARTESIAN_POINT('',(-3.E0,1.6E2,-1.2E1));
#327=LINE('',#326,#325);
#328=DIRECTION('',(1.E0,0.E0,0.E0));
#329=VECTOR('',#328,6.E0);
#330=CARTESIAN_POINT('',(-3.E0,1.627882059610E1,-1.2E1));
#331=LINE('',#330,#329);
#332=CARTESIAN_POINT('',(-3.E0,1.627882059610E1,-2.4E1));
#333=DIRECTION('',(1.E0,0.E0,0.E0));
#334=DIRECTION('',(0.E0,0.E0,1.E0));
#335=AXIS2_PLACEMENT_3D('',#332,#333,#334);
#337=CARTESIAN_POINT('',(3.E0,1.627882059610E1,-2.4E1));
#338=DIRECTION('',(-1.E0,0.E0,0.E0));
#339=DIRECTION('',(0.E0,-5.613386412448E-1,8.275862068966E-1));
#340=AXIS2_PLACEMENT_3D('',#337,#338,#339);
#342=DIRECTION('',(-1.E0,0.E0,0.E0));
#343=VECTOR('',#342,6.E0);
#344=CARTESIAN_POINT('',(3.E0,3.E1,3.E0));
#345=LINE('',#344,#343);
#346=DIRECTION('',(-1.E0,0.E0,0.E0));
#347=VECTOR('',#346,6.E0);
#348=CARTESIAN_POINT('',(3.E0,3.E1,-3.E0));
#349=LINE('',#348,#347);
#350=DIRECTION('',(-1.E0,0.E0,0.E0));
#351=VECTOR('',#350,6.E0);
#352=CARTESIAN_POINT('',(3.E0,4.4E1,-3.E0));
#353=LINE('',#352,#351);
#354=DIRECTION('',(-1.E0,0.E0,0.E0));
#355=VECTOR('',#354,6.E0);
#356=CARTESIAN_POINT('',(3.E0,4.4E1,3.E0));
#357=LINE('',#356,#355);
#358=DIRECTION('',(-1.E0,0.E0,0.E0));
#359=VECTOR('',#358,6.E0);
#360=CARTESIAN_POINT('',(3.E0,6.E1,3.E0));
#361=LINE('',#360,#359);
#362=DIRECTION('',(-1.E0,0.E0,0.E0));
#363=VECTOR('',#362,6.E0);
#364=CARTESIAN_POINT('',(3.E0,6.E1,-3.E0));
#365=LINE('',#364,#363);
#366=DIRECTION('',(-1.E0,0.E0,0.E0));
#367=VECTOR('',#366,6.E0);
#368=CARTESIAN_POINT('',(3.E0,7.4E1,-3.E0));
#369=LINE('',#368,#367);
#370=DIRECTION('',(-1.E0,0.E0,0.E0));
#371=VECTOR('',#370,6.E0);
#372=CARTESIAN_POINT('',(3.E0,7.4E1,3.E0));
#373=LINE('',#372,#371);
#374=DIRECTION('',(-1.E0,0.E0,0.E0));
#375=VECTOR('',#374,6.E0);
#376=CARTESIAN_POINT('',(3.E0,9.E1,3.E0));
#377=LINE('',#376,#375);
#378=DIRECTION('',(-1.E0,0.E0,0.E0));
#379=VECTOR('',#378,6.E0);
#380=CARTESIAN_POINT('',(3.E0,9.E1,-3.E0));
#381=LINE('',#380,#379);
#382=DIRECTION('',(-1.E0,0.E0,0.E0));
#383=VECTOR('',#382,6.E0);
#384=CARTESIAN_POINT('',(3.E0,1.04E2,-3.E0));
#385=LINE('',#384,#383);
#386=DIRECTION('',(-1.E0,0.E0,0.E0));
#387=VECTOR('',#386,6.E0);
#388=CARTESIAN_POINT('',(3.E0,1.04E2,3.E0));
#389=LINE('',#388,#387);
#390=DIRECTION('',(-1.E0,0.E0,0.E0));
#391=VECTOR('',#390,6.E0);
#392=CARTESIAN_POINT('',(3.E0,1.2E2,3.E0));
#393=LINE('',#392,#391);
#394=DIRECTION('',(-1.E0,0.E0,0.E0));
#395=VECTOR('',#394,6.E0);
#396=CARTESIAN_POINT('',(3.E0,1.2E2,-3.E0));
#397=LINE('',#396,#395);
#398=DIRECTION('',(-1.E0,0.E0,0.E0));
#399=VECTOR('',#398,6.E0);
#400=CARTESIAN_POINT('',(3.E0,1.34E2,-3.E0));
#401=LINE('',#400,#399);
#402=DIRECTION('',(-1.E0,0.E0,0.E0));
#403=VECTOR('',#402,6.E0);
#404=CARTESIAN_POINT('',(3.E0,1.34E2,3.E0));
#405=LINE('',#404,#403);
#406=DIRECTION('',(-7.071067811865E-1,1.624656817355E-8,7.071067811865E-1));
#407=VECTOR('',#406,2.121320339489E0);
#408=CARTESIAN_POINT('',(2.999999995394E0,-8.750000055143E0,-2.999999995394E0));
#409=LINE('',#408,#407);
#410=DIRECTION('',(-7.071067811865E-1,-1.624656901094E-8,-7.071067811865E-1));
#411=VECTOR('',#410,2.121320339489E0);
#412=CARTESIAN_POINT('',(2.999999995394E0,-8.749999944857E0,2.999999995394E0));
#413=LINE('',#412,#411);
#414=CARTESIAN_POINT('',(1.5E0,-8.75E0,0.E0));
#415=DIRECTION('',(-1.E0,0.E0,0.E0));
#416=DIRECTION('',(0.E0,0.E0,1.E0));
#417=AXIS2_PLACEMENT_3D('',#414,#415,#416);
#419=DIRECTION('',(1.E0,4.595223561455E-9,-3.837993628086E-10));
#420=VECTOR('',#419,4.499999998273E0);
#421=CARTESIAN_POINT('',(-3.E0,-8.75E0,1.5E0));
#422=LINE('',#421,#420);
#423=CARTESIAN_POINT('',(1.5E0,-8.75E0,0.E0));
#424=DIRECTION('',(-1.E0,0.E0,0.E0));
#425=DIRECTION('',(0.E0,0.E0,-1.E0));
#426=AXIS2_PLACEMENT_3D('',#423,#424,#425);
#428=DIRECTION('',(1.E0,-4.595223561455E-9,3.837993628086E-10));
#429=VECTOR('',#428,4.499999998273E0);
#430=CARTESIAN_POINT('',(-3.E0,-8.75E0,-1.5E0));
#431=LINE('',#430,#429);
#432=DIRECTION('',(-7.071067811865E-1,1.624656817355E-8,7.071067811865E-1));
#433=VECTOR('',#432,2.121320339489E0);
#434=CARTESIAN_POINT('',(2.999999995394E0,4.374999944857E0,-1.057772227851E1));
#435=LINE('',#434,#433);
#436=DIRECTION('',(-7.071067811865E-1,-1.624656859224E-8,-7.071067811865E-1));
#437=VECTOR('',#436,2.121320339489E0);
#438=CARTESIAN_POINT('',(2.999999995394E0,4.375000055143E0,-4.577722287719E0));
#439=LINE('',#438,#437);
#440=CARTESIAN_POINT('',(1.5E0,4.375E0,-7.577722283114E0));
#441=DIRECTION('',(-1.E0,0.E0,0.E0));
#442=DIRECTION('',(0.E0,0.E0,1.E0));
#443=AXIS2_PLACEMENT_3D('',#440,#441,#442);
#445=DIRECTION('',(1.E0,4.595223166709E-9,-3.837996588681E-10));
#446=VECTOR('',#445,4.499999998273E0);
#447=CARTESIAN_POINT('',(-3.E0,4.375E0,-6.077722283114E0));
#448=LINE('',#447,#446);
#449=CARTESIAN_POINT('',(1.5E0,4.375E0,-7.577722283114E0));
#450=DIRECTION('',(-1.E0,0.E0,0.E0));
#451=DIRECTION('',(0.E0,0.E0,-1.E0));
#452=AXIS2_PLACEMENT_3D('',#449,#450,#451);
#454=DIRECTION('',(1.E0,-4.595223561455E-9,3.837992641222E-10));
#455=VECTOR('',#454,4.499999998273E0);
#456=CARTESIAN_POINT('',(-3.E0,4.375E0,-9.077722283114E0));
#457=LINE('',#456,#455);
#458=DIRECTION('',(-7.071067811865E-1,1.624656859224E-8,7.071067811865E-1));
#459=VECTOR('',#458,2.121320339489E0);
#460=CARTESIAN_POINT('',(2.999999995394E0,4.374999944857E0,4.577722287719E0));
#461=LINE('',#460,#459);
#462=DIRECTION('',(-7.071067811865E-1,-1.624656817355E-8,-7.071067811865E-1));
#463=VECTOR('',#462,2.121320339489E0);
#464=CARTESIAN_POINT('',(2.999999995394E0,4.375000055143E0,1.057772227851E1));
#465=LINE('',#464,#463);
#466=CARTESIAN_POINT('',(1.5E0,4.375E0,7.577722283114E0));
#467=DIRECTION('',(-1.E0,0.E0,0.E0));
#468=DIRECTION('',(0.E0,0.E0,1.E0));
#469=AXIS2_PLACEMENT_3D('',#466,#467,#468);
#471=DIRECTION('',(1.E0,4.595223364082E-9,-3.837992641222E-10));
#472=VECTOR('',#471,4.499999998273E0);
#473=CARTESIAN_POINT('',(-3.E0,4.375E0,9.077722283114E0));
#474=LINE('',#473,#472);
#475=CARTESIAN_POINT('',(1.5E0,4.375E0,7.577722283114E0));
#476=DIRECTION('',(-1.E0,0.E0,0.E0));
#477=DIRECTION('',(0.E0,0.E0,-1.E0));
#478=AXIS2_PLACEMENT_3D('',#475,#476,#477);
#480=DIRECTION('',(1.E0,-4.595223561455E-9,3.837994614951E-10));
#481=VECTOR('',#480,4.499999998273E0);
#482=CARTESIAN_POINT('',(-3.E0,4.375E0,6.077722283114E0));
#483=LINE('',#482,#481);
#484=CARTESIAN_POINT('',(-3.E0,0.E0,-2.5E0));
#485=CARTESIAN_POINT('',(-3.E0,0.E0,2.5E0));
#486=VERTEX_POINT('',#484);
#487=VERTEX_POINT('',#485);
#488=CARTESIAN_POINT('',(-3.E0,1.6E2,-6.5E0));
#489=CARTESIAN_POINT('',(-3.E0,1.6E2,6.5E0));
#490=VERTEX_POINT('',#488);
#491=VERTEX_POINT('',#489);
#492=CARTESIAN_POINT('',(-3.E0,1.6E2,-1.2E1));
#493=CARTESIAN_POINT('',(-3.E0,1.6E2,1.2E1));
#494=VERTEX_POINT('',#492);
#495=VERTEX_POINT('',#493);
#496=CARTESIAN_POINT('',(3.E0,0.E0,-2.5E0));
#497=CARTESIAN_POINT('',(3.E0,0.E0,2.5E0));
#498=VERTEX_POINT('',#496);
#499=VERTEX_POINT('',#497);
#500=CARTESIAN_POINT('',(3.E0,1.6E2,-6.5E0));
#501=CARTESIAN_POINT('',(3.E0,1.6E2,6.5E0));
#502=VERTEX_POINT('',#500);
#503=VERTEX_POINT('',#501);
#504=CARTESIAN_POINT('',(3.E0,1.6E2,-1.2E1));
#505=CARTESIAN_POINT('',(3.E0,1.6E2,1.2E1));
#506=VERTEX_POINT('',#504);
#507=VERTEX_POINT('',#505);
#508=CARTESIAN_POINT('',(-3.E0,9.542756901162E0,1.406896551724E1));
#509=CARTESIAN_POINT('',(-3.E0,9.542756901162E0,-1.406896551724E1));
#510=VERTEX_POINT('',#508);
#511=VERTEX_POINT('',#509);
#512=CARTESIAN_POINT('',(3.E0,9.542756901162E0,1.406896551724E1));
#513=VERTEX_POINT('',#512);
#514=CARTESIAN_POINT('',(-3.E0,1.627882059610E1,1.2E1));
#515=CARTESIAN_POINT('',(3.E0,1.627882059610E1,1.2E1));
#516=VERTEX_POINT('',#514);
#517=VERTEX_POINT('',#515);
#518=CARTESIAN_POINT('',(-3.E0,1.627882059610E1,-1.2E1));
#519=CARTESIAN_POINT('',(3.E0,1.627882059610E1,-1.2E1));
#520=VERTEX_POINT('',#518);
#521=VERTEX_POINT('',#519);
#522=CARTESIAN_POINT('',(3.E0,9.542756901162E0,-1.406896551724E1));
#523=VERTEX_POINT('',#522);
#524=CARTESIAN_POINT('',(-3.E0,-8.75E0,1.5E0));
#525=CARTESIAN_POINT('',(-3.E0,-8.75E0,-1.5E0));
#526=VERTEX_POINT('',#524);
#527=VERTEX_POINT('',#525);
#528=CARTESIAN_POINT('',(-3.E0,4.375E0,-6.077722283114E0));
#529=CARTESIAN_POINT('',(-3.E0,4.375E0,-9.077722283114E0));
#530=VERTEX_POINT('',#528);
#531=VERTEX_POINT('',#529);
#532=CARTESIAN_POINT('',(-3.E0,4.375E0,9.077722283114E0));
#533=CARTESIAN_POINT('',(-3.E0,4.375E0,6.077722283114E0));
#534=VERTEX_POINT('',#532);
#535=VERTEX_POINT('',#533);
#536=CARTESIAN_POINT('',(-3.E0,3.E1,3.E0));
#537=CARTESIAN_POINT('',(-3.E0,3.E1,-3.E0));
#538=VERTEX_POINT('',#536);
#539=VERTEX_POINT('',#537);
#540=CARTESIAN_POINT('',(-3.E0,4.4E1,-3.E0));
#541=VERTEX_POINT('',#540);
#542=CARTESIAN_POINT('',(-3.E0,4.4E1,3.E0));
#543=VERTEX_POINT('',#542);
#544=CARTESIAN_POINT('',(3.E0,3.E1,3.E0));
#545=CARTESIAN_POINT('',(3.E0,3.E1,-3.E0));
#546=VERTEX_POINT('',#544);
#547=VERTEX_POINT('',#545);
#548=CARTESIAN_POINT('',(3.E0,4.4E1,-3.E0));
#549=VERTEX_POINT('',#548);
#550=CARTESIAN_POINT('',(3.E0,4.4E1,3.E0));
#551=VERTEX_POINT('',#550);
#552=CARTESIAN_POINT('',(-3.E0,6.E1,3.E0));
#553=CARTESIAN_POINT('',(-3.E0,6.E1,-3.E0));
#554=VERTEX_POINT('',#552);
#555=VERTEX_POINT('',#553);
#556=CARTESIAN_POINT('',(-3.E0,7.4E1,-3.E0));
#557=VERTEX_POINT('',#556);
#558=CARTESIAN_POINT('',(-3.E0,7.4E1,3.E0));
#559=VERTEX_POINT('',#558);
#560=CARTESIAN_POINT('',(3.E0,6.E1,3.E0));
#561=CARTESIAN_POINT('',(3.E0,6.E1,-3.E0));
#562=VERTEX_POINT('',#560);
#563=VERTEX_POINT('',#561);
#564=CARTESIAN_POINT('',(3.E0,7.4E1,-3.E0));
#565=VERTEX_POINT('',#564);
#566=CARTESIAN_POINT('',(3.E0,7.4E1,3.E0));
#567=VERTEX_POINT('',#566);
#568=CARTESIAN_POINT('',(-3.E0,9.E1,3.E0));
#569=CARTESIAN_POINT('',(-3.E0,9.E1,-3.E0));
#570=VERTEX_POINT('',#568);
#571=VERTEX_POINT('',#569);
#572=CARTESIAN_POINT('',(-3.E0,1.04E2,-3.E0));
#573=VERTEX_POINT('',#572);
#574=CARTESIAN_POINT('',(-3.E0,1.04E2,3.E0));
#575=VERTEX_POINT('',#574);
#576=CARTESIAN_POINT('',(3.E0,9.E1,3.E0));
#577=CARTESIAN_POINT('',(3.E0,9.E1,-3.E0));
#578=VERTEX_POINT('',#576);
#579=VERTEX_POINT('',#577);
#580=CARTESIAN_POINT('',(3.E0,1.04E2,-3.E0));
#581=VERTEX_POINT('',#580);
#582=CARTESIAN_POINT('',(3.E0,1.04E2,3.E0));
#583=VERTEX_POINT('',#582);
#584=CARTESIAN_POINT('',(-3.E0,1.2E2,3.E0));
#585=CARTESIAN_POINT('',(-3.E0,1.2E2,-3.E0));
#586=VERTEX_POINT('',#584);
#587=VERTEX_POINT('',#585);
#588=CARTESIAN_POINT('',(-3.E0,1.34E2,-3.E0));
#589=VERTEX_POINT('',#588);
#590=CARTESIAN_POINT('',(-3.E0,1.34E2,3.E0));
#591=VERTEX_POINT('',#590);
#592=CARTESIAN_POINT('',(3.E0,1.2E2,3.E0));
#593=CARTESIAN_POINT('',(3.E0,1.2E2,-3.E0));
#594=VERTEX_POINT('',#592);
#595=VERTEX_POINT('',#593);
#596=CARTESIAN_POINT('',(3.E0,1.34E2,-3.E0));
#597=VERTEX_POINT('',#596);
#598=CARTESIAN_POINT('',(3.E0,1.34E2,3.E0));
#599=VERTEX_POINT('',#598);
#600=CARTESIAN_POINT('',(3.E0,-8.75E0,-3.E0));
#601=CARTESIAN_POINT('',(3.E0,-8.75E0,3.E0));
#602=VERTEX_POINT('',#600);
#603=VERTEX_POINT('',#601);
#604=CARTESIAN_POINT('',(1.5E0,-8.75E0,-1.5E0));
#605=CARTESIAN_POINT('',(1.5E0,-8.75E0,1.5E0));
#606=VERTEX_POINT('',#604);
#607=VERTEX_POINT('',#605);
#608=CARTESIAN_POINT('',(3.E0,4.375E0,-1.057772228311E1));
#609=CARTESIAN_POINT('',(3.E0,4.375E0,-4.577722283114E0));
#610=VERTEX_POINT('',#608);
#611=VERTEX_POINT('',#609);
#612=CARTESIAN_POINT('',(1.5E0,4.375E0,-9.077722283114E0));
#613=CARTESIAN_POINT('',(1.5E0,4.375E0,-6.077722283114E0));
#614=VERTEX_POINT('',#612);
#615=VERTEX_POINT('',#613);
#616=CARTESIAN_POINT('',(3.E0,4.375E0,4.577722283114E0));
#617=CARTESIAN_POINT('',(3.E0,4.375E0,1.057772228311E1));
#618=VERTEX_POINT('',#616);
#619=VERTEX_POINT('',#617);
#620=CARTESIAN_POINT('',(1.5E0,4.375E0,6.077722283114E0));
#621=CARTESIAN_POINT('',(1.5E0,4.375E0,9.077722283114E0));
#622=VERTEX_POINT('',#620);
#623=VERTEX_POINT('',#621);
#624=CARTESIAN_POINT('',(-3.E0,0.E0,0.E0));
#625=DIRECTION('',(1.E0,0.E0,0.E0));
#626=DIRECTION('',(0.E0,0.E0,-1.E0));
#627=AXIS2_PLACEMENT_3D('',#624,#625,#626);
#628=PLANE('',#627);
#630=ORIENTED_EDGE('',*,*,#629,.T.);
#632=ORIENTED_EDGE('',*,*,#631,.F.);
#634=ORIENTED_EDGE('',*,*,#633,.T.);
#636=ORIENTED_EDGE('',*,*,#635,.F.);
#638=ORIENTED_EDGE('',*,*,#637,.T.);
#640=ORIENTED_EDGE('',*,*,#639,.T.);
#641=EDGE_LOOP('',(#630,#632,#634,#636,#638,#640));
#642=FACE_OUTER_BOUND('',#641,.F.);
#644=ORIENTED_EDGE('',*,*,#643,.T.);
#646=ORIENTED_EDGE('',*,*,#645,.T.);
#647=EDGE_LOOP('',(#644,#646));
#648=FACE_BOUND('',#647,.F.);
#650=ORIENTED_EDGE('',*,*,#649,.T.);
#652=ORIENTED_EDGE('',*,*,#651,.T.);
#653=EDGE_LOOP('',(#650,#652));
#654=FACE_BOUND('',#653,.F.);
#656=ORIENTED_EDGE('',*,*,#655,.T.);
#658=ORIENTED_EDGE('',*,*,#657,.T.);
#659=EDGE_LOOP('',(#656,#658));
#660=FACE_BOUND('',#659,.F.);
#662=ORIENTED_EDGE('',*,*,#661,.T.);
#664=ORIENTED_EDGE('',*,*,#663,.T.);
#665=EDGE_LOOP('',(#662,#664));
#666=FACE_BOUND('',#665,.F.);
#668=ORIENTED_EDGE('',*,*,#667,.T.);
#670=ORIENTED_EDGE('',*,*,#669,.T.);
#671=EDGE_LOOP('',(#668,#670));
#672=FACE_BOUND('',#671,.F.);
#674=ORIENTED_EDGE('',*,*,#673,.F.);
#676=ORIENTED_EDGE('',*,*,#675,.F.);
#678=ORIENTED_EDGE('',*,*,#677,.F.);
#680=ORIENTED_EDGE('',*,*,#679,.F.);
#681=EDGE_LOOP('',(#674,#676,#678,#680));
#682=FACE_BOUND('',#681,.F.);
#684=ORIENTED_EDGE('',*,*,#683,.F.);
#686=ORIENTED_EDGE('',*,*,#685,.F.);
#688=ORIENTED_EDGE('',*,*,#687,.F.);
#690=ORIENTED_EDGE('',*,*,#689,.F.);
#691=EDGE_LOOP('',(#684,#686,#688,#690));
#692=FACE_BOUND('',#691,.F.);
#694=ORIENTED_EDGE('',*,*,#693,.F.);
#696=ORIENTED_EDGE('',*,*,#695,.F.);
#698=ORIENTED_EDGE('',*,*,#697,.F.);
#700=ORIENTED_EDGE('',*,*,#699,.F.);
#701=EDGE_LOOP('',(#694,#696,#698,#700));
#702=FACE_BOUND('',#701,.F.);
#704=ORIENTED_EDGE('',*,*,#703,.F.);
#706=ORIENTED_EDGE('',*,*,#705,.F.);
#708=ORIENTED_EDGE('',*,*,#707,.F.);
#710=ORIENTED_EDGE('',*,*,#709,.F.);
#711=EDGE_LOOP('',(#704,#706,#708,#710));
#712=FACE_BOUND('',#711,.F.);
#713=ADVANCED_FACE('',(#642,#648,#654,#660,#666,#672,#682,#692,#702,#712),#628,
.F.);
#714=CARTESIAN_POINT('',(-3.E0,0.E0,0.E0));
#715=DIRECTION('',(1.E0,0.E0,0.E0));
#716=DIRECTION('',(0.E0,0.E0,-1.E0));
#717=AXIS2_PLACEMENT_3D('',#714,#715,#716);
#718=CYLINDRICAL_SURFACE('',#717,2.5E0);
#719=ORIENTED_EDGE('',*,*,#667,.F.);
#721=ORIENTED_EDGE('',*,*,#720,.T.);
#723=ORIENTED_EDGE('',*,*,#722,.T.);
#725=ORIENTED_EDGE('',*,*,#724,.F.);
#726=EDGE_LOOP('',(#719,#721,#723,#725));
#727=FACE_OUTER_BOUND('',#726,.F.);
#728=ADVANCED_FACE('',(#727),#718,.F.);
#729=CARTESIAN_POINT('',(-3.E0,0.E0,0.E0));
#730=DIRECTION('',(1.E0,0.E0,0.E0));
#731=DIRECTION('',(0.E0,0.E0,-1.E0));
#732=AXIS2_PLACEMENT_3D('',#729,#730,#731);
#733=CYLINDRICAL_SURFACE('',#732,2.5E0);
#734=ORIENTED_EDGE('',*,*,#669,.F.);
#735=ORIENTED_EDGE('',*,*,#724,.T.);
#737=ORIENTED_EDGE('',*,*,#736,.T.);
#738=ORIENTED_EDGE('',*,*,#720,.F.);
#739=EDGE_LOOP('',(#734,#735,#737,#738));
#740=FACE_OUTER_BOUND('',#739,.F.);
#741=ADVANCED_FACE('',(#740),#733,.F.);
#742=CARTESIAN_POINT('',(3.E0,0.E0,0.E0));
#743=DIRECTION('',(1.E0,0.E0,0.E0));
#744=DIRECTION('',(0.E0,0.E0,-1.E0));
#745=AXIS2_PLACEMENT_3D('',#742,#743,#744);
#746=PLANE('',#745);
#748=ORIENTED_EDGE('',*,*,#747,.F.);
#750=ORIENTED_EDGE('',*,*,#749,.F.);
#752=ORIENTED_EDGE('',*,*,#751,.F.);
#754=ORIENTED_EDGE('',*,*,#753,.F.);
#756=ORIENTED_EDGE('',*,*,#755,.F.);
#758=ORIENTED_EDGE('',*,*,#757,.F.);
#759=EDGE_LOOP('',(#748,#750,#752,#754,#756,#758));
#760=FACE_OUTER_BOUND('',#759,.F.);
#761=ORIENTED_EDGE('',*,*,#722,.F.);
#762=ORIENTED_EDGE('',*,*,#736,.F.);
#763=EDGE_LOOP('',(#761,#762));
#764=FACE_BOUND('',#763,.F.);
#766=ORIENTED_EDGE('',*,*,#765,.F.);
#768=ORIENTED_EDGE('',*,*,#767,.F.);
#769=EDGE_LOOP('',(#766,#768));
#770=FACE_BOUND('',#769,.F.);
#772=ORIENTED_EDGE('',*,*,#771,.T.);
#774=ORIENTED_EDGE('',*,*,#773,.T.);
#776=ORIENTED_EDGE('',*,*,#775,.T.);
#778=ORIENTED_EDGE('',*,*,#777,.T.);
#779=EDGE_LOOP('',(#772,#774,#776,#778));
#780=FACE_BOUND('',#779,.F.);
#782=ORIENTED_EDGE('',*,*,#781,.T.);
#784=ORIENTED_EDGE('',*,*,#783,.T.);
#786=ORIENTED_EDGE('',*,*,#785,.T.);
#788=ORIENTED_EDGE('',*,*,#787,.T.);
#789=EDGE_LOOP('',(#782,#784,#786,#788));
#790=FACE_BOUND('',#789,.F.);
#792=ORIENTED_EDGE('',*,*,#791,.T.);
#794=ORIENTED_EDGE('',*,*,#793,.T.);
#796=ORIENTED_EDGE('',*,*,#795,.T.);
#798=ORIENTED_EDGE('',*,*,#797,.T.);
#799=EDGE_LOOP('',(#792,#794,#796,#798));
#800=FACE_BOUND('',#799,.F.);
#802=ORIENTED_EDGE('',*,*,#801,.T.);
#804=ORIENTED_EDGE('',*,*,#803,.T.);
#806=ORIENTED_EDGE('',*,*,#805,.T.);
#808=ORIENTED_EDGE('',*,*,#807,.T.);
#809=EDGE_LOOP('',(#802,#804,#806,#808));
#810=FACE_BOUND('',#809,.F.);
#812=ORIENTED_EDGE('',*,*,#811,.F.);
#814=ORIENTED_EDGE('',*,*,#813,.F.);
#815=EDGE_LOOP('',(#812,#814));
#816=FACE_BOUND('',#815,.F.);
#818=ORIENTED_EDGE('',*,*,#817,.F.);
#820=ORIENTED_EDGE('',*,*,#819,.F.);
#821=EDGE_LOOP('',(#818,#820));
#822=FACE_BOUND('',#821,.F.);
#824=ORIENTED_EDGE('',*,*,#823,.F.);
#826=ORIENTED_EDGE('',*,*,#825,.F.);
#827=EDGE_LOOP('',(#824,#826));
#828=FACE_BOUND('',#827,.F.);
#829=ADVANCED_FACE('',(#760,#764,#770,#780,#790,#800,#810,#816,#822,#828),#746,
.T.);
#830=CARTESIAN_POINT('',(-3.E0,1.6E2,0.E0));
#831=DIRECTION('',(1.E0,0.E0,0.E0));
#832=DIRECTION('',(0.E0,0.E0,-1.E0));
#833=AXIS2_PLACEMENT_3D('',#830,#831,#832);
#834=CYLINDRICAL_SURFACE('',#833,6.5E0);
#835=ORIENTED_EDGE('',*,*,#643,.F.);
#837=ORIENTED_EDGE('',*,*,#836,.T.);
#838=ORIENTED_EDGE('',*,*,#765,.T.);
#840=ORIENTED_EDGE('',*,*,#839,.F.);
#841=EDGE_LOOP('',(#835,#837,#838,#840));
#842=FACE_OUTER_BOUND('',#841,.F.);
#843=ADVANCED_FACE('',(#842),#834,.F.);
#844=CARTESIAN_POINT('',(-3.E0,1.6E2,0.E0));
#845=DIRECTION('',(1.E0,0.E0,0.E0));
#846=DIRECTION('',(0.E0,0.E0,-1.E0));
#847=AXIS2_PLACEMENT_3D('',#844,#845,#846);
#848=CYLINDRICAL_SURFACE('',#847,6.5E0);
#849=ORIENTED_EDGE('',*,*,#645,.F.);
#850=ORIENTED_EDGE('',*,*,#839,.T.);
#851=ORIENTED_EDGE('',*,*,#767,.T.);
#852=ORIENTED_EDGE('',*,*,#836,.F.);
#853=EDGE_LOOP('',(#849,#850,#851,#852));
#854=FACE_OUTER_BOUND('',#853,.F.);
#855=ADVANCED_FACE('',(#854),#848,.F.);
#856=CARTESIAN_POINT('',(-3.E0,0.E0,0.E0));
#857=DIRECTION('',(1.E0,0.E0,0.E0));
#858=DIRECTION('',(0.E0,0.E0,-1.E0));
#859=AXIS2_PLACEMENT_3D('',#856,#857,#858);
#860=CYLINDRICAL_SURFACE('',#859,1.7E1);
#861=ORIENTED_EDGE('',*,*,#633,.F.);
#863=ORIENTED_EDGE('',*,*,#862,.T.);
#864=ORIENTED_EDGE('',*,*,#747,.T.);
#866=ORIENTED_EDGE('',*,*,#865,.F.);
#867=EDGE_LOOP('',(#861,#863,#864,#866));
#868=FACE_OUTER_BOUND('',#867,.F.);
#869=ADVANCED_FACE('',(#868),#860,.T.);
#870=CARTESIAN_POINT('',(-1.8036E1,1.627882059610E1,2.4E1));
#871=DIRECTION('',(1.E0,0.E0,0.E0));
#872=DIRECTION('',(0.E0,-5.613386412448E-1,-8.275862068966E-1));
#873=AXIS2_PLACEMENT_3D('',#870,#871,#872);
#874=CYLINDRICAL_SURFACE('',#873,1.2E1);
#875=ORIENTED_EDGE('',*,*,#862,.F.);
#876=ORIENTED_EDGE('',*,*,#631,.T.);
#878=ORIENTED_EDGE('',*,*,#877,.T.);
#879=ORIENTED_EDGE('',*,*,#749,.T.);
#880=EDGE_LOOP('',(#875,#876,#878,#879));
#881=FACE_OUTER_BOUND('',#880,.F.);
#882=ADVANCED_FACE('',(#881),#874,.F.);
#883=CARTESIAN_POINT('',(-3.E0,1.6E2,1.2E1));
#884=DIRECTION('',(0.E0,0.E0,1.E0));
#885=DIRECTION('',(0.E0,-1.E0,0.E0));
#886=AXIS2_PLACEMENT_3D('',#883,#884,#885);
#887=PLANE('',#886);
#888=ORIENTED_EDGE('',*,*,#877,.F.);
#889=ORIENTED_EDGE('',*,*,#629,.F.);
#891=ORIENTED_EDGE('',*,*,#890,.T.);
#892=ORIENTED_EDGE('',*,*,#751,.T.);
#893=EDGE_LOOP('',(#888,#889,#891,#892));
#894=FACE_OUTER_BOUND('',#893,.F.);
#895=ADVANCED_FACE('',(#894),#887,.T.);
#896=CARTESIAN_POINT('',(-3.E0,1.6E2,0.E0));
#897=DIRECTION('',(1.E0,0.E0,0.E0));
#898=DIRECTION('',(0.E0,0.E0,-1.E0));
#899=AXIS2_PLACEMENT_3D('',#896,#897,#898);
#900=CYLINDRICAL_SURFACE('',#899,1.2E1);
#901=ORIENTED_EDGE('',*,*,#639,.F.);
#903=ORIENTED_EDGE('',*,*,#902,.T.);
#904=ORIENTED_EDGE('',*,*,#753,.T.);
#905=ORIENTED_EDGE('',*,*,#890,.F.);
#906=EDGE_LOOP('',(#901,#903,#904,#905));
#907=FACE_OUTER_BOUND('',#906,.F.);
#908=ADVANCED_FACE('',(#907),#900,.T.);
#909=CARTESIAN_POINT('',(-3.E0,1.204159457879E1,-1.2E1));
#910=DIRECTION('',(0.E0,0.E0,-1.E0));
#911=DIRECTION('',(0.E0,1.E0,0.E0));
#912=AXIS2_PLACEMENT_3D('',#909,#910,#911);
#913=PLANE('',#912);
#915=ORIENTED_EDGE('',*,*,#914,.T.);
#916=ORIENTED_EDGE('',*,*,#755,.T.);
#917=ORIENTED_EDGE('',*,*,#902,.F.);
#918=ORIENTED_EDGE('',*,*,#637,.F.);
#919=EDGE_LOOP('',(#915,#916,#917,#918));
#920=FACE_OUTER_BOUND('',#919,.F.);
#921=ADVANCED_FACE('',(#920),#913,.T.);
#922=CARTESIAN_POINT('',(-1.8036E1,1.627882059610E1,-2.4E1));
#923=DIRECTION('',(1.E0,0.E0,0.E0));
#924=DIRECTION('',(0.E0,0.E0,1.E0));
#925=AXIS2_PLACEMENT_3D('',#922,#923,#924);
#926=CYLINDRICAL_SURFACE('',#925,1.2E1);
#927=ORIENTED_EDGE('',*,*,#914,.F.);
#928=ORIENTED_EDGE('',*,*,#635,.T.);
#929=ORIENTED_EDGE('',*,*,#865,.T.);
#930=ORIENTED_EDGE('',*,*,#757,.T.);
#931=EDGE_LOOP('',(#927,#928,#929,#930));
#932=FACE_OUTER_BOUND('',#931,.F.);
#933=ADVANCED_FACE('',(#932),#926,.F.);
#934=CARTESIAN_POINT('',(3.E0,3.E1,0.E0));
#935=DIRECTION('',(1.E0,0.E0,0.E0));
#936=DIRECTION('',(0.E0,1.E0,0.E0));
#937=AXIS2_PLACEMENT_3D('',#934,#935,#936);
#938=CYLINDRICAL_SURFACE('',#937,3.E0);
#939=ORIENTED_EDGE('',*,*,#673,.T.);
#941=ORIENTED_EDGE('',*,*,#940,.F.);
#942=ORIENTED_EDGE('',*,*,#771,.F.);
#944=ORIENTED_EDGE('',*,*,#943,.T.);
#945=EDGE_LOOP('',(#939,#941,#942,#944));
#946=FACE_OUTER_BOUND('',#945,.F.);
#947=ADVANCED_FACE('',(#946),#938,.F.);
#948=CARTESIAN_POINT('',(3.E0,3.E1,-3.E0));
#949=DIRECTION('',(0.E0,0.E0,-1.E0));
#950=DIRECTION('',(0.E0,1.E0,0.E0));
#951=AXIS2_PLACEMENT_3D('',#948,#949,#950);
#952=PLANE('',#951);
#953=ORIENTED_EDGE('',*,*,#679,.T.);
#955=ORIENTED_EDGE('',*,*,#954,.F.);
#956=ORIENTED_EDGE('',*,*,#773,.F.);
#957=ORIENTED_EDGE('',*,*,#940,.T.);
#958=EDGE_LOOP('',(#953,#955,#956,#957));
#959=FACE_OUTER_BOUND('',#958,.F.);
#960=ADVANCED_FACE('',(#959),#952,.F.);
#961=CARTESIAN_POINT('',(3.E0,4.4E1,0.E0));
#962=DIRECTION('',(1.E0,0.E0,0.E0));
#963=DIRECTION('',(0.E0,1.E0,0.E0));
#964=AXIS2_PLACEMENT_3D('',#961,#962,#963);
#965=CYLINDRICAL_SURFACE('',#964,3.E0);
#966=ORIENTED_EDGE('',*,*,#677,.T.);
#968=ORIENTED_EDGE('',*,*,#967,.F.);
#969=ORIENTED_EDGE('',*,*,#775,.F.);
#970=ORIENTED_EDGE('',*,*,#954,.T.);
#971=EDGE_LOOP('',(#966,#968,#969,#970));
#972=FACE_OUTER_BOUND('',#971,.F.);
#973=ADVANCED_FACE('',(#972),#965,.F.);
#974=CARTESIAN_POINT('',(3.E0,4.4E1,3.E0));
#975=DIRECTION('',(0.E0,0.E0,1.E0));
#976=DIRECTION('',(0.E0,-1.E0,0.E0));
#977=AXIS2_PLACEMENT_3D('',#974,#975,#976);
#978=PLANE('',#977);
#979=ORIENTED_EDGE('',*,*,#675,.T.);
#980=ORIENTED_EDGE('',*,*,#943,.F.);
#981=ORIENTED_EDGE('',*,*,#777,.F.);
#982=ORIENTED_EDGE('',*,*,#967,.T.);
#983=EDGE_LOOP('',(#979,#980,#981,#982));
#984=FACE_OUTER_BOUND('',#983,.F.);
#985=ADVANCED_FACE('',(#984),#978,.F.);
#986=CARTESIAN_POINT('',(3.E0,6.E1,0.E0));
#987=DIRECTION('',(1.E0,0.E0,0.E0));
#988=DIRECTION('',(0.E0,1.E0,0.E0));
#989=AXIS2_PLACEMENT_3D('',#986,#987,#988);
#990=CYLINDRICAL_SURFACE('',#989,3.E0);
#991=ORIENTED_EDGE('',*,*,#683,.T.);
#993=ORIENTED_EDGE('',*,*,#992,.F.);
#994=ORIENTED_EDGE('',*,*,#781,.F.);
#996=ORIENTED_EDGE('',*,*,#995,.T.);
#997=EDGE_LOOP('',(#991,#993,#994,#996));
#998=FACE_OUTER_BOUND('',#997,.F.);
#999=ADVANCED_FACE('',(#998),#990,.F.);
#1000=CARTESIAN_POINT('',(3.E0,6.E1,-3.E0));
#1001=DIRECTION('',(0.E0,0.E0,-1.E0));
#1002=DIRECTION('',(0.E0,1.E0,0.E0));
#1003=AXIS2_PLACEMENT_3D('',#1000,#1001,#1002);
#1004=PLANE('',#1003);
#1005=ORIENTED_EDGE('',*,*,#689,.T.);
#1007=ORIENTED_EDGE('',*,*,#1006,.F.);
#1008=ORIENTED_EDGE('',*,*,#783,.F.);
#1009=ORIENTED_EDGE('',*,*,#992,.T.);
#1010=EDGE_LOOP('',(#1005,#1007,#1008,#1009));
#1011=FACE_OUTER_BOUND('',#1010,.F.);
#1012=ADVANCED_FACE('',(#1011),#1004,.F.);
#1013=CARTESIAN_POINT('',(3.E0,7.4E1,0.E0));
#1014=DIRECTION('',(1.E0,0.E0,0.E0));
#1015=DIRECTION('',(0.E0,1.E0,0.E0));
#1016=AXIS2_PLACEMENT_3D('',#1013,#1014,#1015);
#1017=CYLINDRICAL_SURFACE('',#1016,3.E0);
#1018=ORIENTED_EDGE('',*,*,#687,.T.);
#1020=ORIENTED_EDGE('',*,*,#1019,.F.);
#1021=ORIENTED_EDGE('',*,*,#785,.F.);
#1022=ORIENTED_EDGE('',*,*,#1006,.T.);
#1023=EDGE_LOOP('',(#1018,#1020,#1021,#1022));
#1024=FACE_OUTER_BOUND('',#1023,.F.);
#1025=ADVANCED_FACE('',(#1024),#1017,.F.);
#1026=CARTESIAN_POINT('',(3.E0,7.4E1,3.E0));
#1027=DIRECTION('',(0.E0,0.E0,1.E0));
#1028=DIRECTION('',(0.E0,-1.E0,0.E0));
#1029=AXIS2_PLACEMENT_3D('',#1026,#1027,#1028);
#1030=PLANE('',#1029);
#1031=ORIENTED_EDGE('',*,*,#685,.T.);
#1032=ORIENTED_EDGE('',*,*,#995,.F.);
#1033=ORIENTED_EDGE('',*,*,#787,.F.);
#1034=ORIENTED_EDGE('',*,*,#1019,.T.);
#1035=EDGE_LOOP('',(#1031,#1032,#1033,#1034));
#1036=FACE_OUTER_BOUND('',#1035,.F.);
#1037=ADVANCED_FACE('',(#1036),#1030,.F.);
#1038=CARTESIAN_POINT('',(3.E0,9.E1,0.E0));
#1039=DIRECTION('',(1.E0,0.E0,0.E0));
#1040=DIRECTION('',(0.E0,1.E0,0.E0));
#1041=AXIS2_PLACEMENT_3D('',#1038,#1039,#1040);
#1042=CYLINDRICAL_SURFACE('',#1041,3.E0);
#1043=ORIENTED_EDGE('',*,*,#693,.T.);
#1045=ORIENTED_EDGE('',*,*,#1044,.F.);
#1046=ORIENTED_EDGE('',*,*,#791,.F.);
#1048=ORIENTED_EDGE('',*,*,#1047,.T.);
#1049=EDGE_LOOP('',(#1043,#1045,#1046,#1048));
#1050=FACE_OUTER_BOUND('',#1049,.F.);
#1051=ADVANCED_FACE('',(#1050),#1042,.F.);
#1052=CARTESIAN_POINT('',(3.E0,9.E1,-3.E0));
#1053=DIRECTION('',(0.E0,0.E0,-1.E0));
#1054=DIRECTION('',(0.E0,1.E0,0.E0));
#1055=AXIS2_PLACEMENT_3D('',#1052,#1053,#1054);
#1056=PLANE('',#1055);
#1057=ORIENTED_EDGE('',*,*,#699,.T.);
#1059=ORIENTED_EDGE('',*,*,#1058,.F.);
#1060=ORIENTED_EDGE('',*,*,#793,.F.);
#1061=ORIENTED_EDGE('',*,*,#1044,.T.);
#1062=EDGE_LOOP('',(#1057,#1059,#1060,#1061));
#1063=FACE_OUTER_BOUND('',#1062,.F.);
#1064=ADVANCED_FACE('',(#1063),#1056,.F.);
#1065=CARTESIAN_POINT('',(3.E0,1.04E2,0.E0));
#1066=DIRECTION('',(1.E0,0.E0,0.E0));
#1067=DIRECTION('',(0.E0,1.E0,0.E0));
#1068=AXIS2_PLACEMENT_3D('',#1065,#1066,#1067);
#1069=CYLINDRICAL_SURFACE('',#1068,3.E0);
#1070=ORIENTED_EDGE('',*,*,#697,.T.);
#1072=ORIENTED_EDGE('',*,*,#1071,.F.);
#1073=ORIENTED_EDGE('',*,*,#795,.F.);
#1074=ORIENTED_EDGE('',*,*,#1058,.T.);
#1075=EDGE_LOOP('',(#1070,#1072,#1073,#1074));
#1076=FACE_OUTER_BOUND('',#1075,.F.);
#1077=ADVANCED_FACE('',(#1076),#1069,.F.);
#1078=CARTESIAN_POINT('',(3.E0,1.04E2,3.E0));
#1079=DIRECTION('',(0.E0,0.E0,1.E0));
#1080=DIRECTION('',(0.E0,-1.E0,0.E0));
#1081=AXIS2_PLACEMENT_3D('',#1078,#1079,#1080);
#1082=PLANE('',#1081);
#1083=ORIENTED_EDGE('',*,*,#695,.T.);
#1084=ORIENTED_EDGE('',*,*,#1047,.F.);
#1085=ORIENTED_EDGE('',*,*,#797,.F.);
#1086=ORIENTED_EDGE('',*,*,#1071,.T.);
#1087=EDGE_LOOP('',(#1083,#1084,#1085,#1086));
#1088=FACE_OUTER_BOUND('',#1087,.F.);
#1089=ADVANCED_FACE('',(#1088),#1082,.F.);
#1090=CARTESIAN_POINT('',(3.E0,1.2E2,0.E0));
#1091=DIRECTION('',(1.E0,0.E0,0.E0));
#1092=DIRECTION('',(0.E0,1.E0,0.E0));
#1093=AXIS2_PLACEMENT_3D('',#1090,#1091,#1092);
#1094=CYLINDRICAL_SURFACE('',#1093,3.E0);
#1095=ORIENTED_EDGE('',*,*,#703,.T.);
#1097=ORIENTED_EDGE('',*,*,#1096,.F.);
#1098=ORIENTED_EDGE('',*,*,#801,.F.);
#1100=ORIENTED_EDGE('',*,*,#1099,.T.);
#1101=EDGE_LOOP('',(#1095,#1097,#1098,#1100));
#1102=FACE_OUTER_BOUND('',#1101,.F.);
#1103=ADVANCED_FACE('',(#1102),#1094,.F.);
#1104=CARTESIAN_POINT('',(3.E0,1.2E2,-3.E0));
#1105=DIRECTION('',(0.E0,0.E0,-1.E0));
#1106=DIRECTION('',(0.E0,1.E0,0.E0));
#1107=AXIS2_PLACEMENT_3D('',#1104,#1105,#1106);
#1108=PLANE('',#1107);
#1109=ORIENTED_EDGE('',*,*,#709,.T.);
#1111=ORIENTED_EDGE('',*,*,#1110,.F.);
#1112=ORIENTED_EDGE('',*,*,#803,.F.);
#1113=ORIENTED_EDGE('',*,*,#1096,.T.);
#1114=EDGE_LOOP('',(#1109,#1111,#1112,#1113));
#1115=FACE_OUTER_BOUND('',#1114,.F.);
#1116=ADVANCED_FACE('',(#1115),#1108,.F.);
#1117=CARTESIAN_POINT('',(3.E0,1.34E2,0.E0));
#1118=DIRECTION('',(1.E0,0.E0,0.E0));
#1119=DIRECTION('',(0.E0,1.E0,0.E0));
#1120=AXIS2_PLACEMENT_3D('',#1117,#1118,#1119);
#1121=CYLINDRICAL_SURFACE('',#1120,3.E0);
#1122=ORIENTED_EDGE('',*,*,#707,.T.);
#1124=ORIENTED_EDGE('',*,*,#1123,.F.);
#1125=ORIENTED_EDGE('',*,*,#805,.F.);
#1126=ORIENTED_EDGE('',*,*,#1110,.T.);
#1127=EDGE_LOOP('',(#1122,#1124,#1125,#1126));
#1128=FACE_OUTER_BOUND('',#1127,.F.);
#1129=ADVANCED_FACE('',(#1128),#1121,.F.);
#1130=CARTESIAN_POINT('',(3.E0,1.34E2,3.E0));
#1131=DIRECTION('',(0.E0,0.E0,1.E0));
#1132=DIRECTION('',(0.E0,-1.E0,0.E0));
#1133=AXIS2_PLACEMENT_3D('',#1130,#1131,#1132);
#1134=PLANE('',#1133);
#1135=ORIENTED_EDGE('',*,*,#705,.T.);
#1136=ORIENTED_EDGE('',*,*,#1099,.F.);
#1137=ORIENTED_EDGE('',*,*,#807,.F.);
#1138=ORIENTED_EDGE('',*,*,#1123,.T.);
#1139=EDGE_LOOP('',(#1135,#1136,#1137,#1138));
#1140=FACE_OUTER_BOUND('',#1139,.F.);
#1141=ADVANCED_FACE('',(#1140),#1134,.F.);
#1142=CARTESIAN_POINT('',(2.249999997301E0,-8.75E0,0.E0));
#1143=DIRECTION('',(1.E0,0.E0,0.E0));
#1144=DIRECTION('',(0.E0,0.E0,-1.E0));
#1145=AXIS2_PLACEMENT_3D('',#1142,#1143,#1144);
#1146=CONICAL_SURFACE('',#1145,2.249999997301E0,4.5E1);
#1147=ORIENTED_EDGE('',*,*,#811,.T.);
#1149=ORIENTED_EDGE('',*,*,#1148,.T.);
#1151=ORIENTED_EDGE('',*,*,#1150,.F.);
#1153=ORIENTED_EDGE('',*,*,#1152,.F.);
#1154=EDGE_LOOP('',(#1147,#1149,#1151,#1153));
#1155=FACE_OUTER_BOUND('',#1154,.F.);
#1156=ADVANCED_FACE('',(#1155),#1146,.F.);
#1157=CARTESIAN_POINT('',(2.249999997301E0,-8.75E0,0.E0));
#1158=DIRECTION('',(1.E0,0.E0,0.E0));
#1159=DIRECTION('',(0.E0,0.E0,-1.E0));
#1160=AXIS2_PLACEMENT_3D('',#1157,#1158,#1159);
#1161=CONICAL_SURFACE('',#1160,2.249999997301E0,4.5E1);
#1162=ORIENTED_EDGE('',*,*,#813,.T.);
#1163=ORIENTED_EDGE('',*,*,#1152,.T.);
#1165=ORIENTED_EDGE('',*,*,#1164,.F.);
#1166=ORIENTED_EDGE('',*,*,#1148,.F.);
#1167=EDGE_LOOP('',(#1162,#1163,#1165,#1166));
#1168=FACE_OUTER_BOUND('',#1167,.F.);
#1169=ADVANCED_FACE('',(#1168),#1161,.F.);
#1170=CARTESIAN_POINT('',(-3.E0,-8.75E0,0.E0));
#1171=DIRECTION('',(-1.E0,0.E0,0.E0));
#1172=DIRECTION('',(0.E0,0.E0,1.E0));
#1173=AXIS2_PLACEMENT_3D('',#1170,#1171,#1172);
#1174=CYLINDRICAL_SURFACE('',#1173,1.5E0);
#1175=ORIENTED_EDGE('',*,*,#1164,.T.);
#1177=ORIENTED_EDGE('',*,*,#1176,.F.);
#1178=ORIENTED_EDGE('',*,*,#649,.F.);
#1180=ORIENTED_EDGE('',*,*,#1179,.T.);
#1181=EDGE_LOOP('',(#1175,#1177,#1178,#1180));
#1182=FACE_OUTER_BOUND('',#1181,.F.);
#1183=ADVANCED_FACE('',(#1182),#1174,.F.);
#1184=CARTESIAN_POINT('',(-3.E0,-8.75E0,0.E0));
#1185=DIRECTION('',(-1.E0,0.E0,0.E0));
#1186=DIRECTION('',(0.E0,0.E0,1.E0));
#1187=AXIS2_PLACEMENT_3D('',#1184,#1185,#1186);
#1188=CYLINDRICAL_SURFACE('',#1187,1.5E0);
#1189=ORIENTED_EDGE('',*,*,#1150,.T.);
#1190=ORIENTED_EDGE('',*,*,#1179,.F.);
#1191=ORIENTED_EDGE('',*,*,#651,.F.);
#1192=ORIENTED_EDGE('',*,*,#1176,.T.);
#1193=EDGE_LOOP('',(#1189,#1190,#1191,#1192));
#1194=FACE_OUTER_BOUND('',#1193,.F.);
#1195=ADVANCED_FACE('',(#1194),#1188,.F.);
#1196=CARTESIAN_POINT('',(2.249999997301E0,4.375E0,-7.577722283114E0));
#1197=DIRECTION('',(1.E0,0.E0,0.E0));
#1198=DIRECTION('',(0.E0,0.E0,-1.E0));
#1199=AXIS2_PLACEMENT_3D('',#1196,#1197,#1198);
#1200=CONICAL_SURFACE('',#1199,2.249999997301E0,4.5E1);
#1201=ORIENTED_EDGE('',*,*,#817,.T.);
#1203=ORIENTED_EDGE('',*,*,#1202,.T.);
#1205=ORIENTED_EDGE('',*,*,#1204,.F.);
#1207=ORIENTED_EDGE('',*,*,#1206,.F.);
#1208=EDGE_LOOP('',(#1201,#1203,#1205,#1207));
#1209=FACE_OUTER_BOUND('',#1208,.F.);
#1210=ADVANCED_FACE('',(#1209),#1200,.F.);
#1211=CARTESIAN_POINT('',(2.249999997301E0,4.375E0,-7.577722283114E0));
#1212=DIRECTION('',(1.E0,0.E0,0.E0));
#1213=DIRECTION('',(0.E0,0.E0,-1.E0));
#1214=AXIS2_PLACEMENT_3D('',#1211,#1212,#1213);
#1215=CONICAL_SURFACE('',#1214,2.249999997301E0,4.5E1);
#1216=ORIENTED_EDGE('',*,*,#819,.T.);
#1217=ORIENTED_EDGE('',*,*,#1206,.T.);
#1219=ORIENTED_EDGE('',*,*,#1218,.F.);
#1220=ORIENTED_EDGE('',*,*,#1202,.F.);
#1221=EDGE_LOOP('',(#1216,#1217,#1219,#1220));
#1222=FACE_OUTER_BOUND('',#1221,.F.);
#1223=ADVANCED_FACE('',(#1222),#1215,.F.);
#1224=CARTESIAN_POINT('',(-3.E0,4.375E0,-7.577722283114E0));
#1225=DIRECTION('',(-1.E0,0.E0,0.E0));
#1226=DIRECTION('',(0.E0,0.E0,1.E0));
#1227=AXIS2_PLACEMENT_3D('',#1224,#1225,#1226);
#1228=CYLINDRICAL_SURFACE('',#1227,1.5E0);
#1229=ORIENTED_EDGE('',*,*,#1218,.T.);
#1231=ORIENTED_EDGE('',*,*,#1230,.F.);
#1232=ORIENTED_EDGE('',*,*,#655,.F.);
#1234=ORIENTED_EDGE('',*,*,#1233,.T.);
#1235=EDGE_LOOP('',(#1229,#1231,#1232,#1234));
#1236=FACE_OUTER_BOUND('',#1235,.F.);
#1237=ADVANCED_FACE('',(#1236),#1228,.F.);
#1238=CARTESIAN_POINT('',(-3.E0,4.375E0,-7.577722283114E0));
#1239=DIRECTION('',(-1.E0,0.E0,0.E0));
#1240=DIRECTION('',(0.E0,0.E0,1.E0));
#1241=AXIS2_PLACEMENT_3D('',#1238,#1239,#1240);
#1242=CYLINDRICAL_SURFACE('',#1241,1.5E0);
#1243=ORIENTED_EDGE('',*,*,#1204,.T.);
#1244=ORIENTED_EDGE('',*,*,#1233,.F.);
#1245=ORIENTED_EDGE('',*,*,#657,.F.);
#1246=ORIENTED_EDGE('',*,*,#1230,.T.);
#1247=EDGE_LOOP('',(#1243,#1244,#1245,#1246));
#1248=FACE_OUTER_BOUND('',#1247,.F.);
#1249=ADVANCED_FACE('',(#1248),#1242,.F.);
#1250=CARTESIAN_POINT('',(2.249999997301E0,4.375E0,7.577722283114E0));
#1251=DIRECTION('',(1.E0,0.E0,0.E0));
#1252=DIRECTION('',(0.E0,0.E0,-1.E0));
#1253=AXIS2_PLACEMENT_3D('',#1250,#1251,#1252);
#1254=CONICAL_SURFACE('',#1253,2.249999997301E0,4.5E1);
#1255=ORIENTED_EDGE('',*,*,#823,.T.);
#1257=ORIENTED_EDGE('',*,*,#1256,.T.);
#1259=ORIENTED_EDGE('',*,*,#1258,.F.);
#1261=ORIENTED_EDGE('',*,*,#1260,.F.);
#1262=EDGE_LOOP('',(#1255,#1257,#1259,#1261));
#1263=FACE_OUTER_BOUND('',#1262,.F.);
#1264=ADVANCED_FACE('',(#1263),#1254,.F.);
#1265=CARTESIAN_POINT('',(2.249999997301E0,4.375E0,7.577722283114E0));
#1266=DIRECTION('',(1.E0,0.E0,0.E0));
#1267=DIRECTION('',(0.E0,0.E0,-1.E0));
#1268=AXIS2_PLACEMENT_3D('',#1265,#1266,#1267);
#1269=CONICAL_SURFACE('',#1268,2.249999997301E0,4.5E1);
#1270=ORIENTED_EDGE('',*,*,#825,.T.);
#1271=ORIENTED_EDGE('',*,*,#1260,.T.);
#1273=ORIENTED_EDGE('',*,*,#1272,.F.);
#1274=ORIENTED_EDGE('',*,*,#1256,.F.);
#1275=EDGE_LOOP('',(#1270,#1271,#1273,#1274));
#1276=FACE_OUTER_BOUND('',#1275,.F.);
#1277=ADVANCED_FACE('',(#1276),#1269,.F.);
#1278=CARTESIAN_POINT('',(-3.E0,4.375E0,7.577722283114E0));
#1279=DIRECTION('',(-1.E0,0.E0,0.E0));
#1280=DIRECTION('',(0.E0,0.E0,1.E0));
#1281=AXIS2_PLACEMENT_3D('',#1278,#1279,#1280);
#1282=CYLINDRICAL_SURFACE('',#1281,1.5E0);
#1283=ORIENTED_EDGE('',*,*,#1272,.T.);
#1285=ORIENTED_EDGE('',*,*,#1284,.F.);
#1286=ORIENTED_EDGE('',*,*,#661,.F.);
#1288=ORIENTED_EDGE('',*,*,#1287,.T.);
#1289=EDGE_LOOP('',(#1283,#1285,#1286,#1288));
#1290=FACE_OUTER_BOUND('',#1289,.F.);
#1291=ADVANCED_FACE('',(#1290),#1282,.F.);
#1292=CARTESIAN_POINT('',(-3.E0,4.375E0,7.577722283114E0));
#1293=DIRECTION('',(-1.E0,0.E0,0.E0));
#1294=DIRECTION('',(0.E0,0.E0,1.E0));
#1295=AXIS2_PLACEMENT_3D('',#1292,#1293,#1294);
#1296=CYLINDRICAL_SURFACE('',#1295,1.5E0);
#1297=ORIENTED_EDGE('',*,*,#1258,.T.);
#1298=ORIENTED_EDGE('',*,*,#1287,.F.);
#1299=ORIENTED_EDGE('',*,*,#663,.F.);
#1300=ORIENTED_EDGE('',*,*,#1284,.T.);
#1301=EDGE_LOOP('',(#1297,#1298,#1299,#1300));
#1302=FACE_OUTER_BOUND('',#1301,.F.);
#1303=ADVANCED_FACE('',(#1302),#1296,.F.);
#1307=DIMENSIONAL_EXPONENTS(0.E0,0.E0,0.E0,0.E0,0.E0,0.E0,0.E0);
#1309=PLANE_ANGLE_MEASURE_WITH_UNIT(PLANE_ANGLE_MEASURE(1.745329251994E-2),
#1308);
#1310=(CONVERSION_BASED_UNIT('DEGREE',#1309)NAMED_UNIT(*)PLANE_ANGLE_UNIT());
#1312=UNCERTAINTY_MEASURE_WITH_UNIT(LENGTH_MEASURE(9.906E-3),#1306,'closure',
'Maximum model space distance between geometric entities at asserted connectivities');
#1313=(GEOMETRIC_REPRESENTATION_CONTEXT(3)GLOBAL_UNCERTAINTY_ASSIGNED_CONTEXT((
#1312))GLOBAL_UNIT_ASSIGNED_CONTEXT((#1306,#1310,#1311))REPRESENTATION_CONTEXT(
'ID1','3'));
#1315=APPLICATION_CONTEXT(
'CONFIGURATION CONTROLLED 3D DESIGNS OF MECHANICAL PARTS AND ASSEMBLIES');
#1316=APPLICATION_PROTOCOL_DEFINITION('international standard',
'config_control_design',1994,#1315);
#1317=DESIGN_CONTEXT('',#1315,'design');
#1318=MECHANICAL_CONTEXT('',#1315,'mechanical');
#1319=PRODUCT('LIANGAN1','LIANGAN1','NOT SPECIFIED',(#1318));
#1320=PRODUCT_DEFINITION_FORMATION_WITH_SPECIFIED_SOURCE('6','LAST_VERSION',
#1319,.MADE.);
#1324=PRODUCT_CATEGORY('part','');
#1325=PRODUCT_RELATED_PRODUCT_CATEGORY('detail','',(#1319));
#1326=PRODUCT_CATEGORY_RELATIONSHIP('','',#1324,#1325);
#1327=SECURITY_CLASSIFICATION_LEVEL('unclassified');
#1328=SECURITY_CLASSIFICATION('','',#1327);
#1329=CC_DESIGN_SECURITY_CLASSIFICATION(#1328,(#1320));
#1330=APPROVAL_STATUS('approved');
#1331=APPROVAL(#1330,'');
#1332=CC_DESIGN_APPROVAL(#1331,(#1328,#1320,#1321));
#1333=CALENDAR_DATE(124,11,4);
#1334=COORDINATED_UNIVERSAL_TIME_OFFSET(8,0,.AHEAD.);
#1335=LOCAL_TIME(9,1,2.8E1,#1334);
#1336=DATE_AND_TIME(#1333,#1335);
#1337=APPROVAL_DATE_TIME(#1336,#1331);
#1338=DATE_TIME_ROLE('creation_date');
#1339=CC_DESIGN_DATE_AND_TIME_ASSIGNMENT(#1336,#1338,(#1321));
#1340=DATE_TIME_ROLE('classification_date');
#1341=CC_DESIGN_DATE_AND_TIME_ASSIGNMENT(#1336,#1340,(#1328));
#1342=PERSON('UNSPECIFIED','UNSPECIFIED',$,$,$,$);
#1343=ORGANIZATION('UNSPECIFIED','UNSPECIFIED','UNSPECIFIED');
#1344=PERSON_AND_ORGANIZATION(#1342,#1343);
#1345=APPROVAL_ROLE('approver');
#1346=APPROVAL_PERSON_ORGANIZATION(#1344,#1331,#1345);
#1347=PERSON_AND_ORGANIZATION_ROLE('creator');
#1348=CC_DESIGN_PERSON_AND_ORGANIZATION_ASSIGNMENT(#1344,#1347,(#1320,#1321));
#1349=PERSON_AND_ORGANIZATION_ROLE('design_supplier');
#1350=CC_DESIGN_PERSON_AND_ORGANIZATION_ASSIGNMENT(#1344,#1349,(#1320));
#1351=PERSON_AND_ORGANIZATION_ROLE('classification_officer');
#1352=CC_DESIGN_PERSON_AND_ORGANIZATION_ASSIGNMENT(#1344,#1351,(#1328));
#1353=PERSON_AND_ORGANIZATION_ROLE('design_owner');
#1354=CC_DESIGN_PERSON_AND_ORGANIZATION_ASSIGNMENT(#1344,#1353,(#1319));
#6=CIRCLE('',#5,2.5E0);
#11=CIRCLE('',#10,2.5E0);
#16=CIRCLE('',#15,6.5E0);
#21=CIRCLE('',#20,6.5E0);
#26=CIRCLE('',#25,1.5E0);
#31=CIRCLE('',#30,1.5E0);
#36=CIRCLE('',#35,1.5E0);
#41=CIRCLE('',#40,1.5E0);
#46=CIRCLE('',#45,1.5E0);
#51=CIRCLE('',#50,1.5E0);
#60=CIRCLE('',#59,1.7E1);
#69=CIRCLE('',#68,1.2E1);
#74=CIRCLE('',#73,3.E0);
#83=CIRCLE('',#82,3.E0);
#92=CIRCLE('',#91,3.E0);
#101=CIRCLE('',#100,3.E0);
#110=CIRCLE('',#109,3.E0);
#119=CIRCLE('',#118,3.E0);
#128=CIRCLE('',#127,3.E0);
#137=CIRCLE('',#136,3.E0);
#154=CIRCLE('',#153,6.5E0);
#159=CIRCLE('',#158,6.5E0);
#164=CIRCLE('',#163,2.5E0);
#169=CIRCLE('',#168,2.5E0);
#174=CIRCLE('',#173,1.7E1);
#183=CIRCLE('',#182,1.2E1);
#192=CIRCLE('',#191,3.E0);
#201=CIRCLE('',#200,3.E0);
#210=CIRCLE('',#209,3.E0);
#219=CIRCLE('',#218,3.E0);
#228=CIRCLE('',#227,3.E0);
#237=CIRCLE('',#236,3.E0);
#246=CIRCLE('',#245,3.E0);
#255=CIRCLE('',#254,3.E0);
#264=CIRCLE('',#263,3.E0);
#269=CIRCLE('',#268,3.E0);
#274=CIRCLE('',#273,3.E0);
#279=CIRCLE('',#278,3.E0);
#284=CIRCLE('',#283,3.E0);
#289=CIRCLE('',#288,3.E0);
#310=CIRCLE('',#309,1.2E1);
#315=CIRCLE('',#314,1.2E1);
#336=CIRCLE('',#335,1.2E1);
#341=CIRCLE('',#340,1.2E1);
#418=CIRCLE('',#417,1.5E0);
#427=CIRCLE('',#426,1.5E0);
#444=CIRCLE('',#443,1.5E0);
#453=CIRCLE('',#452,1.5E0);
#470=CIRCLE('',#469,1.5E0);
#479=CIRCLE('',#478,1.5E0);
#629=EDGE_CURVE('',#495,#516,#55,.T.);
#631=EDGE_CURVE('',#510,#516,#310,.T.);
#633=EDGE_CURVE('',#510,#511,#60,.T.);
#635=EDGE_CURVE('',#520,#511,#336,.T.);
#637=EDGE_CURVE('',#520,#494,#64,.T.);
#639=EDGE_CURVE('',#494,#495,#69,.T.);
#643=EDGE_CURVE('',#490,#491,#16,.T.);
#645=EDGE_CURVE('',#491,#490,#21,.T.);
#649=EDGE_CURVE('',#526,#527,#26,.T.);
#651=EDGE_CURVE('',#527,#526,#31,.T.);
#655=EDGE_CURVE('',#530,#531,#36,.T.);
#657=EDGE_CURVE('',#531,#530,#41,.T.);
#661=EDGE_CURVE('',#534,#535,#46,.T.);
#663=EDGE_CURVE('',#535,#534,#51,.T.);
#667=EDGE_CURVE('',#486,#487,#6,.T.);
#669=EDGE_CURVE('',#487,#486,#11,.T.);
#673=EDGE_CURVE('',#538,#539,#74,.T.);
#675=EDGE_CURVE('',#543,#538,#78,.T.);
#677=EDGE_CURVE('',#541,#543,#83,.T.);
#679=EDGE_CURVE('',#539,#541,#87,.T.);
#683=EDGE_CURVE('',#554,#555,#92,.T.);
#685=EDGE_CURVE('',#559,#554,#96,.T.);
#687=EDGE_CURVE('',#557,#559,#101,.T.);
#689=EDGE_CURVE('',#555,#557,#105,.T.);
#693=EDGE_CURVE('',#570,#571,#110,.T.);
#695=EDGE_CURVE('',#575,#570,#114,.T.);
#697=EDGE_CURVE('',#573,#575,#119,.T.);
#699=EDGE_CURVE('',#571,#573,#123,.T.);
#703=EDGE_CURVE('',#586,#587,#128,.T.);
#705=EDGE_CURVE('',#591,#586,#132,.T.);
#707=EDGE_CURVE('',#589,#591,#137,.T.);
#709=EDGE_CURVE('',#587,#589,#141,.T.);
#720=EDGE_CURVE('',#486,#498,#145,.T.);
#722=EDGE_CURVE('',#498,#499,#164,.T.);
#724=EDGE_CURVE('',#487,#499,#149,.T.);
#736=EDGE_CURVE('',#499,#498,#169,.T.);
#747=EDGE_CURVE('',#513,#523,#174,.T.);
#749=EDGE_CURVE('',#517,#513,#315,.T.);
#751=EDGE_CURVE('',#507,#517,#178,.T.);
#753=EDGE_CURVE('',#506,#507,#183,.T.);
#755=EDGE_CURVE('',#521,#506,#187,.T.);
#757=EDGE_CURVE('',#523,#521,#341,.T.);
#765=EDGE_CURVE('',#502,#503,#154,.T.);
#767=EDGE_CURVE('',#503,#502,#159,.T.);
#771=EDGE_CURVE('',#546,#547,#192,.T.);
#773=EDGE_CURVE('',#547,#549,#196,.T.);
#775=EDGE_CURVE('',#549,#551,#201,.T.);
#777=EDGE_CURVE('',#551,#546,#205,.T.);
#781=EDGE_CURVE('',#562,#563,#210,.T.);
#783=EDGE_CURVE('',#563,#565,#214,.T.);
#785=EDGE_CURVE('',#565,#567,#219,.T.);
#787=EDGE_CURVE('',#567,#562,#223,.T.);
#791=EDGE_CURVE('',#578,#579,#228,.T.);
#793=EDGE_CURVE('',#579,#581,#232,.T.);
#795=EDGE_CURVE('',#581,#583,#237,.T.);
#797=EDGE_CURVE('',#583,#578,#241,.T.);
#801=EDGE_CURVE('',#594,#595,#246,.T.);
#803=EDGE_CURVE('',#595,#597,#250,.T.);
#805=EDGE_CURVE('',#597,#599,#255,.T.);
#807=EDGE_CURVE('',#599,#594,#259,.T.);
#811=EDGE_CURVE('',#602,#603,#264,.T.);
#813=EDGE_CURVE('',#603,#602,#269,.T.);
#817=EDGE_CURVE('',#610,#611,#274,.T.);
#819=EDGE_CURVE('',#611,#610,#279,.T.);
#823=EDGE_CURVE('',#618,#619,#284,.T.);
#825=EDGE_CURVE('',#619,#618,#289,.T.);
#836=EDGE_CURVE('',#490,#502,#293,.T.);
#839=EDGE_CURVE('',#491,#503,#297,.T.);
#862=EDGE_CURVE('',#510,#513,#301,.T.);
#865=EDGE_CURVE('',#511,#523,#305,.T.);
#877=EDGE_CURVE('',#516,#517,#319,.T.);
#890=EDGE_CURVE('',#495,#507,#323,.T.);
#902=EDGE_CURVE('',#494,#506,#327,.T.);
#914=EDGE_CURVE('',#520,#521,#331,.T.);
#940=EDGE_CURVE('',#547,#539,#349,.T.);
#943=EDGE_CURVE('',#546,#538,#345,.T.);
#954=EDGE_CURVE('',#549,#541,#353,.T.);
#967=EDGE_CURVE('',#551,#543,#357,.T.);
#992=EDGE_CURVE('',#563,#555,#365,.T.);
#995=EDGE_CURVE('',#562,#554,#361,.T.);
#1006=EDGE_CURVE('',#565,#557,#369,.T.);
#1019=EDGE_CURVE('',#567,#559,#373,.T.);
#1044=EDGE_CURVE('',#579,#571,#381,.T.);
#1047=EDGE_CURVE('',#578,#570,#377,.T.);
#1058=EDGE_CURVE('',#581,#573,#385,.T.);
#1071=EDGE_CURVE('',#583,#575,#389,.T.);
#1096=EDGE_CURVE('',#595,#587,#397,.T.);
#1099=EDGE_CURVE('',#594,#586,#393,.T.);
#1110=EDGE_CURVE('',#597,#589,#401,.T.);
#1123=EDGE_CURVE('',#599,#591,#405,.T.);
#1148=EDGE_CURVE('',#603,#607,#413,.T.);
#1150=EDGE_CURVE('',#606,#607,#427,.T.);
#1152=EDGE_CURVE('',#602,#606,#409,.T.);
#1164=EDGE_CURVE('',#607,#606,#418,.T.);
#1176=EDGE_CURVE('',#527,#606,#431,.T.);
#1179=EDGE_CURVE('',#526,#607,#422,.T.);
#1202=EDGE_CURVE('',#611,#615,#439,.T.);
#1204=EDGE_CURVE('',#614,#615,#453,.T.);
#1206=EDGE_CURVE('',#610,#614,#435,.T.);
#1218=EDGE_CURVE('',#615,#614,#444,.T.);
#1230=EDGE_CURVE('',#531,#614,#457,.T.);
#1233=EDGE_CURVE('',#530,#615,#448,.T.);
#1256=EDGE_CURVE('',#619,#623,#465,.T.);
#1258=EDGE_CURVE('',#622,#623,#479,.T.);
#1260=EDGE_CURVE('',#618,#622,#461,.T.);
#1272=EDGE_CURVE('',#623,#622,#470,.T.);
#1284=EDGE_CURVE('',#535,#622,#483,.T.);
#1287=EDGE_CURVE('',#534,#623,#474,.T.);
#1304=CLOSED_SHELL('',(#713,#728,#741,#829,#843,#855,#869,#882,#895,#908,#921,
#933,#947,#960,#973,#985,#999,#1012,#1025,#1037,#1051,#1064,#1077,#1089,#1103,
#1116,#1129,#1141,#1156,#1169,#1183,#1195,#1210,#1223,#1237,#1249,#1264,#1277,
#1291,#1303));
#1305=MANIFOLD_SOLID_BREP('',#1304);
#1306=(LENGTH_UNIT()NAMED_UNIT(*)SI_UNIT(.MILLI.,.METRE.));
#1308=(NAMED_UNIT(*)PLANE_ANGLE_UNIT()SI_UNIT($,.RADIAN.));
#1311=(NAMED_UNIT(*)SI_UNIT($,.STERADIAN.)SOLID_ANGLE_UNIT());
#1314=ADVANCED_BREP_SHAPE_REPRESENTATION('',(#1305),#1313);
#1321=PRODUCT_DEFINITION('design','',#1320,#1317);
#1322=PRODUCT_DEFINITION_SHAPE('','SHAPE FOR LIANGAN1.',#1321);
#1323=SHAPE_DEFINITION_REPRESENTATION(#1322,#1314);
ENDSEC;
END-ISO-10303-21;
