ISO-10303-21;
HEADER;
FILE_DESCRIPTION((''),'2;1');
FILE_NAME('LIANGAN2','2024-04-08T09:44:35',('005'),(''),
'CREO PARAMETRIC BY PTC INC, 2020053','CREO PARAMETRIC BY PTC INC, 2020053','');
FILE_SCHEMA(('CONFIG_CONTROL_DESIGN'));
ENDSEC;
DATA;
#2=CARTESIAN_POINT('',(-3.E0,0.E0,0.E0));
#3=DIRECTION('',(1.E0,0.E0,0.E0));
#4=DIRECTION('',(0.E0,8.275862068966E-1,-5.613386412448E-1));
#5=AXIS2_PLACEMENT_3D('',#2,#3,#4);
#7=DIRECTION('',(0.E0,0.E0,-1.E0));
#8=VECTOR('',#7,1.437211794039E2);
#9=CARTESIAN_POINT('',(-3.E0,-1.2E1,-1.627882059610E1));
#10=LINE('',#9,#8);
#11=CARTESIAN_POINT('',(-3.E0,0.E0,-1.6E2));
#12=DIRECTION('',(1.E0,0.E0,0.E0));
#13=DIRECTION('',(0.E0,-1.E0,0.E0));
#14=AXIS2_PLACEMENT_3D('',#11,#12,#13);
#16=DIRECTION('',(0.E0,0.E0,1.E0));
#17=VECTOR('',#16,1.437211794039E2);
#18=CARTESIAN_POINT('',(-3.E0,1.2E1,-1.6E2));
#19=LINE('',#18,#17);
#20=CARTESIAN_POINT('',(-3.E0,0.E0,-1.6E2));
#21=DIRECTION('',(-1.E0,0.E0,0.E0));
#22=DIRECTION('',(0.E0,-1.E0,0.E0));
#23=AXIS2_PLACEMENT_3D('',#20,#21,#22);
#25=CARTESIAN_POINT('',(-3.E0,0.E0,-1.6E2));
#26=DIRECTION('',(-1.E0,0.E0,0.E0));
#27=DIRECTION('',(0.E0,1.E0,0.E0));
#28=AXIS2_PLACEMENT_3D('',#25,#26,#27);
#30=CARTESIAN_POINT('',(-3.E0,3.994562646538E0,-6.347713703601E0));
#31=DIRECTION('',(-1.E0,0.E0,0.E0));
#32=DIRECTION('',(0.E0,-5.326083528717E-1,8.463618271468E-1));
#33=AXIS2_PLACEMENT_3D('',#30,#31,#32);
#35=CARTESIAN_POINT('',(-3.E0,-3.994562646538E0,-6.347713703601E0));
#36=DIRECTION('',(-1.E0,0.E0,0.E0));
#37=DIRECTION('',(0.E0,-5.E-1,8.660254037844E-1));
#38=AXIS2_PLACEMENT_3D('',#35,#36,#37);
#40=DIRECTION('',(0.E0,8.660254037844E-1,5.E-1));
#41=VECTOR('',#40,2.116750419289E0);
#42=CARTESIAN_POINT('',(-3.E0,-6.327722283114E0,-6.540063509461E0));
#43=LINE('',#42,#41);
#44=CARTESIAN_POINT('',(-3.E0,-7.577722283114E0,-4.375E0));
#45=DIRECTION('',(1.E0,0.E0,0.E0));
#46=DIRECTION('',(0.E0,-5.E-1,8.660254037844E-1));
#47=AXIS2_PLACEMENT_3D('',#44,#45,#46);
#49=DIRECTION('',(0.E0,-8.660254037844E-1,-5.E-1));
#50=VECTOR('',#49,2.116750419289E0);
#51=CARTESIAN_POINT('',(-3.E0,-6.994562646538E0,-1.151561280894E0));
#52=LINE('',#51,#50);
#53=CARTESIAN_POINT('',(-3.E0,-7.494562646538E0,-2.855358771099E-1));
#54=DIRECTION('',(-1.E0,0.E0,0.E0));
#55=DIRECTION('',(0.E0,9.992750195384E-1,3.807145028132E-2));
#56=AXIS2_PLACEMENT_3D('',#53,#54,#55);
#58=CARTESIAN_POINT('',(-3.E0,-3.5E0,6.633249580711E0));
#59=DIRECTION('',(-1.E0,0.E0,0.E0));
#60=DIRECTION('',(0.E0,1.E0,0.E0));
#61=AXIS2_PLACEMENT_3D('',#58,#59,#60);
#63=DIRECTION('',(0.E0,0.E0,-1.E0));
#64=VECTOR('',#63,2.116750419289E0);
#65=CARTESIAN_POINT('',(-3.E0,-2.5E0,8.75E0));
#66=LINE('',#65,#64);
#67=CARTESIAN_POINT('',(-3.E0,0.E0,8.75E0));
#68=DIRECTION('',(1.E0,0.E0,0.E0));
#69=DIRECTION('',(0.E0,1.E0,0.E0));
#70=AXIS2_PLACEMENT_3D('',#67,#68,#69);
#72=DIRECTION('',(0.E0,0.E0,1.E0));
#73=VECTOR('',#72,2.116750419289E0);
#74=CARTESIAN_POINT('',(-3.E0,2.5E0,6.633249580711E0));
#75=LINE('',#74,#73);
#76=CARTESIAN_POINT('',(-3.E0,3.5E0,6.633249580711E0));
#77=DIRECTION('',(-1.E0,0.E0,0.E0));
#78=DIRECTION('',(0.E0,-4.666666666667E-1,-8.844332774281E-1));
#79=AXIS2_PLACEMENT_3D('',#76,#77,#78);
#81=CARTESIAN_POINT('',(-3.E0,7.494562646538E0,-2.855358771099E-1));
#82=DIRECTION('',(-1.E0,0.E0,0.E0));
#83=DIRECTION('',(0.E0,-5.E-1,-8.660254037844E-1));
#84=AXIS2_PLACEMENT_3D('',#81,#82,#83);
#86=DIRECTION('',(0.E0,-8.660254037844E-1,5.E-1));
#87=VECTOR('',#86,2.116750419289E0);
#88=CARTESIAN_POINT('',(-3.E0,8.827722283114E0,-2.209936490539E0));
#89=LINE('',#88,#87);
#90=CARTESIAN_POINT('',(-3.E0,7.577722283114E0,-4.375E0));
#91=DIRECTION('',(1.E0,0.E0,0.E0));
#92=DIRECTION('',(0.E0,-5.E-1,-8.660254037844E-1));
#93=AXIS2_PLACEMENT_3D('',#90,#91,#92);
#95=DIRECTION('',(0.E0,8.660254037844E-1,-5.E-1));
#96=VECTOR('',#95,2.116750419289E0);
#97=CARTESIAN_POINT('',(-3.E0,4.494562646538E0,-5.481688299816E0));
#98=LINE('',#97,#96);
#99=CARTESIAN_POINT('',(-3.E0,0.E0,-4.4E1));
#100=DIRECTION('',(-1.E0,0.E0,0.E0));
#101=DIRECTION('',(0.E0,1.E0,0.E0));
#102=AXIS2_PLACEMENT_3D('',#99,#100,#101);
#104=DIRECTION('',(0.E0,0.E0,1.E0));
#105=VECTOR('',#104,1.4E1);
#106=CARTESIAN_POINT('',(-3.E0,-3.E0,-4.4E1));
#107=LINE('',#106,#105);
#108=CARTESIAN_POINT('',(-3.E0,0.E0,-3.E1));
#109=DIRECTION('',(-1.E0,0.E0,0.E0));
#110=DIRECTION('',(0.E0,-1.E0,0.E0));
#111=AXIS2_PLACEMENT_3D('',#108,#109,#110);
#113=DIRECTION('',(0.E0,0.E0,-1.E0));
#114=VECTOR('',#113,1.4E1);
#115=CARTESIAN_POINT('',(-3.E0,3.E0,-3.E1));
#116=LINE('',#115,#114);
#117=CARTESIAN_POINT('',(-3.E0,0.E0,-7.4E1));
#118=DIRECTION('',(-1.E0,0.E0,0.E0));
#119=DIRECTION('',(0.E0,1.E0,0.E0));
#120=AXIS2_PLACEMENT_3D('',#117,#118,#119);
#122=DIRECTION('',(0.E0,0.E0,1.E0));
#123=VECTOR('',#122,1.4E1);
#124=CARTESIAN_POINT('',(-3.E0,-3.E0,-7.4E1));
#125=LINE('',#124,#123);
#126=CARTESIAN_POINT('',(-3.E0,0.E0,-6.E1));
#127=DIRECTION('',(-1.E0,0.E0,0.E0));
#128=DIRECTION('',(0.E0,-1.E0,0.E0));
#129=AXIS2_PLACEMENT_3D('',#126,#127,#128);
#131=DIRECTION('',(0.E0,0.E0,-1.E0));
#132=VECTOR('',#131,1.4E1);
#133=CARTESIAN_POINT('',(-3.E0,3.E0,-6.E1));
#134=LINE('',#133,#132);
#135=CARTESIAN_POINT('',(-3.E0,0.E0,-1.04E2));
#136=DIRECTION('',(-1.E0,0.E0,0.E0));
#137=DIRECTION('',(0.E0,1.E0,0.E0));
#138=AXIS2_PLACEMENT_3D('',#135,#136,#137);
#140=DIRECTION('',(0.E0,0.E0,1.E0));
#141=VECTOR('',#140,1.4E1);
#142=CARTESIAN_POINT('',(-3.E0,-3.E0,-1.04E2));
#143=LINE('',#142,#141);
#144=CARTESIAN_POINT('',(-3.E0,0.E0,-9.E1));
#145=DIRECTION('',(-1.E0,0.E0,0.E0));
#146=DIRECTION('',(0.E0,-1.E0,0.E0));
#147=AXIS2_PLACEMENT_3D('',#144,#145,#146);
#149=DIRECTION('',(0.E0,0.E0,-1.E0));
#150=VECTOR('',#149,1.4E1);
#151=CARTESIAN_POINT('',(-3.E0,3.E0,-9.E1));
#152=LINE('',#151,#150);
#153=CARTESIAN_POINT('',(-3.E0,0.E0,-1.34E2));
#154=DIRECTION('',(-1.E0,0.E0,0.E0));
#155=DIRECTION('',(0.E0,1.E0,0.E0));
#156=AXIS2_PLACEMENT_3D('',#153,#154,#155);
#158=DIRECTION('',(0.E0,0.E0,1.E0));
#159=VECTOR('',#158,1.4E1);
#160=CARTESIAN_POINT('',(-3.E0,-3.E0,-1.34E2));
#161=LINE('',#160,#159);
#162=CARTESIAN_POINT('',(-3.E0,0.E0,-1.2E2));
#163=DIRECTION('',(-1.E0,0.E0,0.E0));
#164=DIRECTION('',(0.E0,-1.E0,0.E0));
#165=AXIS2_PLACEMENT_3D('',#162,#163,#164);
#167=DIRECTION('',(0.E0,0.E0,-1.E0));
#168=VECTOR('',#167,1.4E1);
#169=CARTESIAN_POINT('',(-3.E0,3.E0,-1.2E2));
#170=LINE('',#169,#168);
#171=DIRECTION('',(1.E0,0.E0,0.E0));
#172=VECTOR('',#171,6.E0);
#173=CARTESIAN_POINT('',(-3.E0,1.406896551724E1,-9.542756901162E0));
#174=LINE('',#173,#172);
#175=DIRECTION('',(1.E0,0.E0,0.E0));
#176=VECTOR('',#175,6.E0);
#177=CARTESIAN_POINT('',(-3.E0,-1.406896551724E1,-9.542756901162E0));
#178=LINE('',#177,#176);
#179=CARTESIAN_POINT('',(-3.E0,2.4E1,-1.627882059610E1));
#180=DIRECTION('',(1.E0,0.E0,0.E0));
#181=DIRECTION('',(0.E0,-8.275862068966E-1,5.613386412448E-1));
#182=AXIS2_PLACEMENT_3D('',#179,#180,#181);
#184=CARTESIAN_POINT('',(3.E0,2.4E1,-1.627882059610E1));
#185=DIRECTION('',(-1.E0,0.E0,0.E0));
#186=DIRECTION('',(0.E0,-1.E0,0.E0));
#187=AXIS2_PLACEMENT_3D('',#184,#185,#186);
#189=DIRECTION('',(1.E0,0.E0,0.E0));
#190=VECTOR('',#189,6.E0);
#191=CARTESIAN_POINT('',(-3.E0,1.2E1,-1.627882059610E1));
#192=LINE('',#191,#190);
#193=DIRECTION('',(1.E0,0.E0,0.E0));
#194=VECTOR('',#193,6.E0);
#195=CARTESIAN_POINT('',(-3.E0,1.2E1,-1.6E2));
#196=LINE('',#195,#194);
#197=DIRECTION('',(1.E0,0.E0,0.E0));
#198=VECTOR('',#197,6.E0);
#199=CARTESIAN_POINT('',(-3.E0,-1.2E1,-1.6E2));
#200=LINE('',#199,#198);
#201=DIRECTION('',(1.E0,0.E0,0.E0));
#202=VECTOR('',#201,6.E0);
#203=CARTESIAN_POINT('',(-3.E0,-1.2E1,-1.627882059610E1));
#204=LINE('',#203,#202);
#205=CARTESIAN_POINT('',(-3.E0,-2.4E1,-1.627882059610E1));
#206=DIRECTION('',(1.E0,0.E0,0.E0));
#207=DIRECTION('',(0.E0,1.E0,0.E0));
#208=AXIS2_PLACEMENT_3D('',#205,#206,#207);
#210=CARTESIAN_POINT('',(3.E0,-2.4E1,-1.627882059610E1));
#211=DIRECTION('',(-1.E0,0.E0,0.E0));
#212=DIRECTION('',(0.E0,8.275862068966E-1,5.613386412448E-1));
#213=AXIS2_PLACEMENT_3D('',#210,#211,#212);
#215=DIRECTION('',(0.E0,0.E0,-1.E0));
#216=VECTOR('',#215,1.437211794039E2);
#217=CARTESIAN_POINT('',(3.E0,-1.2E1,-1.627882059610E1));
#218=LINE('',#217,#216);
#219=CARTESIAN_POINT('',(3.E0,0.E0,0.E0));
#220=DIRECTION('',(1.E0,0.E0,0.E0));
#221=DIRECTION('',(0.E0,8.275862068966E-1,-5.613386412448E-1));
#222=AXIS2_PLACEMENT_3D('',#219,#220,#221);
#224=DIRECTION('',(0.E0,0.E0,1.E0));
#225=VECTOR('',#224,1.437211794039E2);
#226=CARTESIAN_POINT('',(3.E0,1.2E1,-1.6E2));
#227=LINE('',#226,#225);
#228=CARTESIAN_POINT('',(3.E0,0.E0,-1.6E2));
#229=DIRECTION('',(1.E0,0.E0,0.E0));
#230=DIRECTION('',(0.E0,-1.E0,0.E0));
#231=AXIS2_PLACEMENT_3D('',#228,#229,#230);
#233=CARTESIAN_POINT('',(3.E0,0.E0,-1.6E2));
#234=DIRECTION('',(-1.E0,0.E0,0.E0));
#235=DIRECTION('',(0.E0,-1.E0,0.E0));
#236=AXIS2_PLACEMENT_3D('',#233,#234,#235);
#238=CARTESIAN_POINT('',(3.E0,0.E0,-1.6E2));
#239=DIRECTION('',(-1.E0,0.E0,0.E0));
#240=DIRECTION('',(0.E0,1.E0,0.E0));
#241=AXIS2_PLACEMENT_3D('',#238,#239,#240);
#243=CARTESIAN_POINT('',(3.E0,3.994562646538E0,-6.347713703601E0));
#244=DIRECTION('',(1.E0,0.E0,0.E0));
#245=DIRECTION('',(0.E0,5.E-1,8.660254037844E-1));
#246=AXIS2_PLACEMENT_3D('',#243,#244,#245);
#248=DIRECTION('',(0.E0,8.660254037844E-1,-5.E-1));
#249=VECTOR('',#248,2.116750419289E0);
#250=CARTESIAN_POINT('',(3.E0,4.494562646538E0,-5.481688299816E0));
#251=LINE('',#250,#249);
#252=CARTESIAN_POINT('',(3.E0,7.577722283114E0,-4.375E0));
#253=DIRECTION('',(1.E0,0.E0,0.E0));
#254=DIRECTION('',(0.E0,-5.E-1,-8.660254037844E-1));
#255=AXIS2_PLACEMENT_3D('',#252,#253,#254);
#257=DIRECTION('',(0.E0,-8.660254037844E-1,5.E-1));
#258=VECTOR('',#257,2.116750419289E0);
#259=CARTESIAN_POINT('',(3.E0,8.827722283114E0,-2.209936490539E0));
#260=LINE('',#259,#258);
#261=CARTESIAN_POINT('',(3.E0,7.494562646538E0,-2.855358771099E-1));
#262=DIRECTION('',(1.E0,0.E0,0.E0));
#263=DIRECTION('',(0.E0,-9.992750195384E-1,3.807145028132E-2));
#264=AXIS2_PLACEMENT_3D('',#261,#262,#263);
#266=CARTESIAN_POINT('',(3.E0,3.5E0,6.633249580711E0));
#267=DIRECTION('',(1.E0,0.E0,0.E0));
#268=DIRECTION('',(0.E0,-1.E0,0.E0));
#269=AXIS2_PLACEMENT_3D('',#266,#267,#268);
#271=DIRECTION('',(0.E0,0.E0,1.E0));
#272=VECTOR('',#271,2.116750419289E0);
#273=CARTESIAN_POINT('',(3.E0,2.5E0,6.633249580711E0));
#274=LINE('',#273,#272);
#275=CARTESIAN_POINT('',(3.E0,0.E0,8.75E0));
#276=DIRECTION('',(1.E0,0.E0,0.E0));
#277=DIRECTION('',(0.E0,1.E0,0.E0));
#278=AXIS2_PLACEMENT_3D('',#275,#276,#277);
#280=DIRECTION('',(0.E0,0.E0,-1.E0));
#281=VECTOR('',#280,2.116750419289E0);
#282=CARTESIAN_POINT('',(3.E0,-2.5E0,8.75E0));
#283=LINE('',#282,#281);
#284=CARTESIAN_POINT('',(3.E0,-3.5E0,6.633249580711E0));
#285=DIRECTION('',(1.E0,0.E0,0.E0));
#286=DIRECTION('',(0.E0,4.666666666667E-1,-8.844332774281E-1));
#287=AXIS2_PLACEMENT_3D('',#284,#285,#286);
#289=CARTESIAN_POINT('',(3.E0,-7.494562646538E0,-2.855358771099E-1));
#290=DIRECTION('',(1.E0,0.E0,0.E0));
#291=DIRECTION('',(0.E0,5.E-1,-8.660254037844E-1));
#292=AXIS2_PLACEMENT_3D('',#289,#290,#291);
#294=DIRECTION('',(0.E0,-8.660254037844E-1,-5.E-1));
#295=VECTOR('',#294,2.116750419289E0);
#296=CARTESIAN_POINT('',(3.E0,-6.994562646538E0,-1.151561280894E0));
#297=LINE('',#296,#295);
#298=CARTESIAN_POINT('',(3.E0,-7.577722283114E0,-4.375E0));
#299=DIRECTION('',(1.E0,0.E0,0.E0));
#300=DIRECTION('',(0.E0,-5.E-1,8.660254037844E-1));
#301=AXIS2_PLACEMENT_3D('',#298,#299,#300);
#303=DIRECTION('',(0.E0,8.660254037844E-1,5.E-1));
#304=VECTOR('',#303,2.116750419289E0);
#305=CARTESIAN_POINT('',(3.E0,-6.327722283114E0,-6.540063509461E0));
#306=LINE('',#305,#304);
#307=CARTESIAN_POINT('',(3.E0,-3.994562646538E0,-6.347713703601E0));
#308=DIRECTION('',(1.E0,0.E0,0.E0));
#309=DIRECTION('',(0.E0,5.326083528717E-1,8.463618271468E-1));
#310=AXIS2_PLACEMENT_3D('',#307,#308,#309);
#312=CARTESIAN_POINT('',(3.E0,0.E0,-4.4E1));
#313=DIRECTION('',(-1.E0,0.E0,0.E0));
#314=DIRECTION('',(0.E0,1.E0,0.E0));
#315=AXIS2_PLACEMENT_3D('',#312,#313,#314);
#317=DIRECTION('',(0.E0,0.E0,-1.E0));
#318=VECTOR('',#317,1.4E1);
#319=CARTESIAN_POINT('',(3.E0,3.E0,-3.E1));
#320=LINE('',#319,#318);
#321=CARTESIAN_POINT('',(3.E0,0.E0,-3.E1));
#322=DIRECTION('',(-1.E0,0.E0,0.E0));
#323=DIRECTION('',(0.E0,-1.E0,0.E0));
#324=AXIS2_PLACEMENT_3D('',#321,#322,#323);
#326=DIRECTION('',(0.E0,0.E0,1.E0));
#327=VECTOR('',#326,1.4E1);
#328=CARTESIAN_POINT('',(3.E0,-3.E0,-4.4E1));
#329=LINE('',#328,#327);
#330=CARTESIAN_POINT('',(3.E0,0.E0,-7.4E1));
#331=DIRECTION('',(-1.E0,0.E0,0.E0));
#332=DIRECTION('',(0.E0,1.E0,0.E0));
#333=AXIS2_PLACEMENT_3D('',#330,#331,#332);
#335=DIRECTION('',(0.E0,0.E0,-1.E0));
#336=VECTOR('',#335,1.4E1);
#337=CARTESIAN_POINT('',(3.E0,3.E0,-6.E1));
#338=LINE('',#337,#336);
#339=CARTESIAN_POINT('',(3.E0,0.E0,-6.E1));
#340=DIRECTION('',(-1.E0,0.E0,0.E0));
#341=DIRECTION('',(0.E0,-1.E0,0.E0));
#342=AXIS2_PLACEMENT_3D('',#339,#340,#341);
#344=DIRECTION('',(0.E0,0.E0,1.E0));
#345=VECTOR('',#344,1.4E1);
#346=CARTESIAN_POINT('',(3.E0,-3.E0,-7.4E1));
#347=LINE('',#346,#345);
#348=CARTESIAN_POINT('',(3.E0,0.E0,-1.04E2));
#349=DIRECTION('',(-1.E0,0.E0,0.E0));
#350=DIRECTION('',(0.E0,1.E0,0.E0));
#351=AXIS2_PLACEMENT_3D('',#348,#349,#350);
#353=DIRECTION('',(0.E0,0.E0,-1.E0));
#354=VECTOR('',#353,1.4E1);
#355=CARTESIAN_POINT('',(3.E0,3.E0,-9.E1));
#356=LINE('',#355,#354);
#357=CARTESIAN_POINT('',(3.E0,0.E0,-9.E1));
#358=DIRECTION('',(-1.E0,0.E0,0.E0));
#359=DIRECTION('',(0.E0,-1.E0,0.E0));
#360=AXIS2_PLACEMENT_3D('',#357,#358,#359);
#362=DIRECTION('',(0.E0,0.E0,1.E0));
#363=VECTOR('',#362,1.4E1);
#364=CARTESIAN_POINT('',(3.E0,-3.E0,-1.04E2));
#365=LINE('',#364,#363);
#366=CARTESIAN_POINT('',(3.E0,0.E0,-1.34E2));
#367=DIRECTION('',(-1.E0,0.E0,0.E0));
#368=DIRECTION('',(0.E0,1.E0,0.E0));
#369=AXIS2_PLACEMENT_3D('',#366,#367,#368);
#371=DIRECTION('',(0.E0,0.E0,-1.E0));
#372=VECTOR('',#371,1.4E1);
#373=CARTESIAN_POINT('',(3.E0,3.E0,-1.2E2));
#374=LINE('',#373,#372);
#375=CARTESIAN_POINT('',(3.E0,0.E0,-1.2E2));
#376=DIRECTION('',(-1.E0,0.E0,0.E0));
#377=DIRECTION('',(0.E0,-1.E0,0.E0));
#378=AXIS2_PLACEMENT_3D('',#375,#376,#377);
#380=DIRECTION('',(0.E0,0.E0,1.E0));
#381=VECTOR('',#380,1.4E1);
#382=CARTESIAN_POINT('',(3.E0,-3.E0,-1.34E2));
#383=LINE('',#382,#381);
#384=DIRECTION('',(1.E0,0.E0,0.E0));
#385=VECTOR('',#384,6.E0);
#386=CARTESIAN_POINT('',(-3.E0,-6.5E0,-1.6E2));
#387=LINE('',#386,#385);
#388=DIRECTION('',(1.E0,0.E0,0.E0));
#389=VECTOR('',#388,6.E0);
#390=CARTESIAN_POINT('',(-3.E0,6.5E0,-1.6E2));
#391=LINE('',#390,#389);
#392=DIRECTION('',(-1.E0,0.E0,0.E0));
#393=VECTOR('',#392,6.E0);
#394=CARTESIAN_POINT('',(3.E0,4.494562646538E0,-5.481688299816E0));
#395=LINE('',#394,#393);
#396=DIRECTION('',(-1.E0,0.E0,0.E0));
#397=VECTOR('',#396,6.E0);
#398=CARTESIAN_POINT('',(3.E0,6.327722283114E0,-6.540063509461E0));
#399=LINE('',#398,#397);
#400=DIRECTION('',(1.E0,0.E0,0.E0));
#401=VECTOR('',#400,6.E0);
#402=CARTESIAN_POINT('',(-3.E0,6.994562646538E0,-1.151561280894E0));
#403=LINE('',#402,#401);
#404=DIRECTION('',(-1.E0,0.E0,0.E0));
#405=VECTOR('',#404,6.E0);
#406=CARTESIAN_POINT('',(3.E0,8.827722283114E0,-2.209936490539E0));
#407=LINE('',#406,#405);
#408=DIRECTION('',(-1.E0,0.E0,0.E0));
#409=VECTOR('',#408,6.E0);
#410=CARTESIAN_POINT('',(3.E0,-6.495287627E0,-2.474644268285E-1));
#411=LINE('',#410,#409);
#412=CARTESIAN_POINT('',(3.E0,0.E0,0.E0));
#413=DIRECTION('',(-1.E0,0.E0,0.E0));
#414=DIRECTION('',(0.E0,-9.992750195384E-1,-3.807145028132E-2));
#415=AXIS2_PLACEMENT_3D('',#412,#413,#414);
#417=DIRECTION('',(1.E0,0.E0,0.E0));
#418=VECTOR('',#417,6.E0);
#419=CARTESIAN_POINT('',(-3.E0,-3.033333333333E0,5.748816303283E0));
#420=LINE('',#419,#418);
#421=CARTESIAN_POINT('',(-3.E0,0.E0,0.E0));
#422=DIRECTION('',(1.E0,0.E0,0.E0));
#423=DIRECTION('',(0.E0,-4.666666666667E-1,8.844332774281E-1));
#424=AXIS2_PLACEMENT_3D('',#421,#422,#423);
#426=DIRECTION('',(-1.E0,0.E0,0.E0));
#427=VECTOR('',#426,6.E0);
#428=CARTESIAN_POINT('',(3.E0,3.461954293666E0,-5.501351876454E0));
#429=LINE('',#428,#427);
#430=CARTESIAN_POINT('',(3.E0,0.E0,0.E0));
#431=DIRECTION('',(-1.E0,0.E0,0.E0));
#432=DIRECTION('',(0.E0,5.326083528717E-1,-8.463618271468E-1));
#433=AXIS2_PLACEMENT_3D('',#430,#431,#432);
#435=DIRECTION('',(1.E0,0.E0,0.E0));
#436=VECTOR('',#435,6.E0);
#437=CARTESIAN_POINT('',(-3.E0,-3.461954293666E0,-5.501351876454E0));
#438=LINE('',#437,#436);
#439=CARTESIAN_POINT('',(-3.E0,0.E0,0.E0));
#440=DIRECTION('',(1.E0,0.E0,0.E0));
#441=DIRECTION('',(0.E0,-5.326083528717E-1,-8.463618271468E-1));
#442=AXIS2_PLACEMENT_3D('',#439,#440,#441);
#444=DIRECTION('',(1.E0,0.E0,0.E0));
#445=VECTOR('',#444,6.E0);
#446=CARTESIAN_POINT('',(-3.E0,6.495287627E0,-2.474644268286E-1));
#447=LINE('',#446,#445);
#448=CARTESIAN_POINT('',(-3.E0,0.E0,0.E0));
#449=DIRECTION('',(1.E0,0.E0,0.E0));
#450=DIRECTION('',(0.E0,9.992750195384E-1,-3.807145028132E-2));
#451=AXIS2_PLACEMENT_3D('',#448,#449,#450);
#453=DIRECTION('',(-1.E0,0.E0,0.E0));
#454=VECTOR('',#453,6.E0);
#455=CARTESIAN_POINT('',(3.E0,3.033333333333E0,5.748816303283E0));
#456=LINE('',#455,#454);
#457=CARTESIAN_POINT('',(3.E0,0.E0,0.E0));
#458=DIRECTION('',(-1.E0,0.E0,0.E0));
#459=DIRECTION('',(0.E0,4.666666666667E-1,8.844332774281E-1));
#460=AXIS2_PLACEMENT_3D('',#457,#458,#459);
#462=DIRECTION('',(-1.E0,0.E0,0.E0));
#463=VECTOR('',#462,6.E0);
#464=CARTESIAN_POINT('',(3.E0,-6.994562646538E0,-1.151561280894E0));
#465=LINE('',#464,#463);
#466=DIRECTION('',(-1.E0,0.E0,0.E0));
#467=VECTOR('',#466,6.E0);
#468=CARTESIAN_POINT('',(3.E0,-8.827722283114E0,-2.209936490539E0));
#469=LINE('',#468,#467);
#470=DIRECTION('',(1.E0,0.E0,0.E0));
#471=VECTOR('',#470,6.E0);
#472=CARTESIAN_POINT('',(-3.E0,-4.494562646538E0,-5.481688299816E0));
#473=LINE('',#472,#471);
#474=DIRECTION('',(-1.E0,0.E0,0.E0));
#475=VECTOR('',#474,6.E0);
#476=CARTESIAN_POINT('',(3.E0,-6.327722283114E0,-6.540063509461E0));
#477=LINE('',#476,#475);
#478=DIRECTION('',(1.E0,0.E0,0.E0));
#479=VECTOR('',#478,6.E0);
#480=CARTESIAN_POINT('',(-3.E0,-2.5E0,6.633249580711E0));
#481=LINE('',#480,#479);
#482=DIRECTION('',(-1.E0,0.E0,0.E0));
#483=VECTOR('',#482,6.E0);
#484=CARTESIAN_POINT('',(3.E0,-2.5E0,8.75E0));
#485=LINE('',#484,#483);
#486=DIRECTION('',(-1.E0,0.E0,0.E0));
#487=VECTOR('',#486,6.E0);
#488=CARTESIAN_POINT('',(3.E0,2.5E0,8.75E0));
#489=LINE('',#488,#487);
#490=DIRECTION('',(-1.E0,0.E0,0.E0));
#491=VECTOR('',#490,6.E0);
#492=CARTESIAN_POINT('',(3.E0,2.5E0,6.633249580711E0));
#493=LINE('',#492,#491);
#494=DIRECTION('',(1.E0,0.E0,0.E0));
#495=VECTOR('',#494,6.E0);
#496=CARTESIAN_POINT('',(-3.E0,3.E0,-4.4E1));
#497=LINE('',#496,#495);
#498=DIRECTION('',(1.E0,0.E0,0.E0));
#499=VECTOR('',#498,6.E0);
#500=CARTESIAN_POINT('',(-3.E0,3.E0,-3.E1));
#501=LINE('',#500,#499);
#502=DIRECTION('',(1.E0,0.E0,0.E0));
#503=VECTOR('',#502,6.E0);
#504=CARTESIAN_POINT('',(-3.E0,-3.E0,-3.E1));
#505=LINE('',#504,#503);
#506=DIRECTION('',(1.E0,0.E0,0.E0));
#507=VECTOR('',#506,6.E0);
#508=CARTESIAN_POINT('',(-3.E0,-3.E0,-4.4E1));
#509=LINE('',#508,#507);
#510=DIRECTION('',(1.E0,0.E0,0.E0));
#511=VECTOR('',#510,6.E0);
#512=CARTESIAN_POINT('',(-3.E0,3.E0,-7.4E1));
#513=LINE('',#512,#511);
#514=DIRECTION('',(1.E0,0.E0,0.E0));
#515=VECTOR('',#514,6.E0);
#516=CARTESIAN_POINT('',(-3.E0,3.E0,-6.E1));
#517=LINE('',#516,#515);
#518=DIRECTION('',(1.E0,0.E0,0.E0));
#519=VECTOR('',#518,6.E0);
#520=CARTESIAN_POINT('',(-3.E0,-3.E0,-6.E1));
#521=LINE('',#520,#519);
#522=DIRECTION('',(1.E0,0.E0,0.E0));
#523=VECTOR('',#522,6.E0);
#524=CARTESIAN_POINT('',(-3.E0,-3.E0,-7.4E1));
#525=LINE('',#524,#523);
#526=DIRECTION('',(1.E0,0.E0,0.E0));
#527=VECTOR('',#526,6.E0);
#528=CARTESIAN_POINT('',(-3.E0,3.E0,-1.04E2));
#529=LINE('',#528,#527);
#530=DIRECTION('',(1.E0,0.E0,0.E0));
#531=VECTOR('',#530,6.E0);
#532=CARTESIAN_POINT('',(-3.E0,3.E0,-9.E1));
#533=LINE('',#532,#531);
#534=DIRECTION('',(1.E0,0.E0,0.E0));
#535=VECTOR('',#534,6.E0);
#536=CARTESIAN_POINT('',(-3.E0,-3.E0,-9.E1));
#537=LINE('',#536,#535);
#538=DIRECTION('',(1.E0,0.E0,0.E0));
#539=VECTOR('',#538,6.E0);
#540=CARTESIAN_POINT('',(-3.E0,-3.E0,-1.04E2));
#541=LINE('',#540,#539);
#542=DIRECTION('',(1.E0,0.E0,0.E0));
#543=VECTOR('',#542,6.E0);
#544=CARTESIAN_POINT('',(-3.E0,3.E0,-1.34E2));
#545=LINE('',#544,#543);
#546=DIRECTION('',(1.E0,0.E0,0.E0));
#547=VECTOR('',#546,6.E0);
#548=CARTESIAN_POINT('',(-3.E0,3.E0,-1.2E2));
#549=LINE('',#548,#547);
#550=DIRECTION('',(1.E0,0.E0,0.E0));
#551=VECTOR('',#550,6.E0);
#552=CARTESIAN_POINT('',(-3.E0,-3.E0,-1.2E2));
#553=LINE('',#552,#551);
#554=DIRECTION('',(1.E0,0.E0,0.E0));
#555=VECTOR('',#554,6.E0);
#556=CARTESIAN_POINT('',(-3.E0,-3.E0,-1.34E2));
#557=LINE('',#556,#555);
#558=CARTESIAN_POINT('',(-3.E0,-6.5E0,-1.6E2));
#559=CARTESIAN_POINT('',(-3.E0,6.5E0,-1.6E2));
#560=VERTEX_POINT('',#558);
#561=VERTEX_POINT('',#559);
#562=CARTESIAN_POINT('',(-3.E0,-1.2E1,-1.6E2));
#563=CARTESIAN_POINT('',(-3.E0,1.2E1,-1.6E2));
#564=VERTEX_POINT('',#562);
#565=VERTEX_POINT('',#563);
#566=CARTESIAN_POINT('',(3.E0,-6.5E0,-1.6E2));
#567=CARTESIAN_POINT('',(3.E0,6.5E0,-1.6E2));
#568=VERTEX_POINT('',#566);
#569=VERTEX_POINT('',#567);
#570=CARTESIAN_POINT('',(3.E0,-1.2E1,-1.6E2));
#571=CARTESIAN_POINT('',(3.E0,1.2E1,-1.6E2));
#572=VERTEX_POINT('',#570);
#573=VERTEX_POINT('',#571);
#574=CARTESIAN_POINT('',(-3.E0,1.406896551724E1,-9.542756901162E0));
#575=CARTESIAN_POINT('',(3.E0,1.406896551724E1,-9.542756901162E0));
#576=VERTEX_POINT('',#574);
#577=VERTEX_POINT('',#575);
#578=CARTESIAN_POINT('',(-3.E0,1.2E1,-1.627882059610E1));
#579=CARTESIAN_POINT('',(3.E0,1.2E1,-1.627882059610E1));
#580=VERTEX_POINT('',#578);
#581=VERTEX_POINT('',#579);
#582=CARTESIAN_POINT('',(-3.E0,-1.2E1,-1.627882059610E1));
#583=CARTESIAN_POINT('',(3.E0,-1.2E1,-1.627882059610E1));
#584=VERTEX_POINT('',#582);
#585=VERTEX_POINT('',#583);
#586=CARTESIAN_POINT('',(-3.E0,-1.406896551724E1,-9.542756901162E0));
#587=CARTESIAN_POINT('',(3.E0,-1.406896551724E1,-9.542756901162E0));
#588=VERTEX_POINT('',#586);
#589=VERTEX_POINT('',#587);
#590=CARTESIAN_POINT('',(-3.E0,2.5E0,8.75E0));
#591=CARTESIAN_POINT('',(-3.E0,-2.5E0,8.75E0));
#592=VERTEX_POINT('',#590);
#593=VERTEX_POINT('',#591);
#594=CARTESIAN_POINT('',(3.E0,2.5E0,8.75E0));
#595=CARTESIAN_POINT('',(3.E0,-2.5E0,8.75E0));
#596=VERTEX_POINT('',#594);
#597=VERTEX_POINT('',#595);
#598=CARTESIAN_POINT('',(-3.E0,-8.827722283114E0,-2.209936490539E0));
#599=CARTESIAN_POINT('',(-3.E0,-6.327722283114E0,-6.540063509461E0));
#600=VERTEX_POINT('',#598);
#601=VERTEX_POINT('',#599);
#602=CARTESIAN_POINT('',(3.E0,-8.827722283114E0,-2.209936490539E0));
#603=CARTESIAN_POINT('',(3.E0,-6.327722283114E0,-6.540063509461E0));
#604=VERTEX_POINT('',#602);
#605=VERTEX_POINT('',#603);
#606=CARTESIAN_POINT('',(-3.E0,6.327722283114E0,-6.540063509461E0));
#607=CARTESIAN_POINT('',(-3.E0,8.827722283114E0,-2.209936490539E0));
#608=VERTEX_POINT('',#606);
#609=VERTEX_POINT('',#607);
#610=CARTESIAN_POINT('',(3.E0,6.327722283114E0,-6.540063509461E0));
#611=CARTESIAN_POINT('',(3.E0,8.827722283114E0,-2.209936490539E0));
#612=VERTEX_POINT('',#610);
#613=VERTEX_POINT('',#611);
#614=CARTESIAN_POINT('',(3.E0,-3.033333333333E0,5.748816303283E0));
#615=CARTESIAN_POINT('',(3.E0,-2.5E0,6.633249580711E0));
#616=VERTEX_POINT('',#614);
#617=VERTEX_POINT('',#615);
#618=CARTESIAN_POINT('',(-3.E0,-2.5E0,6.633249580711E0));
#619=VERTEX_POINT('',#618);
#620=CARTESIAN_POINT('',(-3.E0,-3.033333333333E0,5.748816303283E0));
#621=VERTEX_POINT('',#620);
#622=CARTESIAN_POINT('',(-3.E0,3.033333333333E0,5.748816303283E0));
#623=CARTESIAN_POINT('',(-3.E0,2.5E0,6.633249580711E0));
#624=VERTEX_POINT('',#622);
#625=VERTEX_POINT('',#623);
#626=CARTESIAN_POINT('',(3.E0,2.5E0,6.633249580711E0));
#627=VERTEX_POINT('',#626);
#628=CARTESIAN_POINT('',(3.E0,3.033333333333E0,5.748816303283E0));
#629=VERTEX_POINT('',#628);
#630=CARTESIAN_POINT('',(-3.E0,-6.495287627E0,-2.474644268285E-1));
#631=CARTESIAN_POINT('',(-3.E0,-6.994562646538E0,-1.151561280894E0));
#632=VERTEX_POINT('',#630);
#633=VERTEX_POINT('',#631);
#634=CARTESIAN_POINT('',(3.E0,-6.994562646538E0,-1.151561280894E0));
#635=VERTEX_POINT('',#634);
#636=CARTESIAN_POINT('',(3.E0,-6.495287627E0,-2.474644268285E-1));
#637=VERTEX_POINT('',#636);
#638=CARTESIAN_POINT('',(3.E0,-3.461954293666E0,-5.501351876454E0));
#639=CARTESIAN_POINT('',(3.E0,-4.494562646538E0,-5.481688299816E0));
#640=VERTEX_POINT('',#638);
#641=VERTEX_POINT('',#639);
#642=CARTESIAN_POINT('',(-3.E0,-4.494562646538E0,-5.481688299816E0));
#643=VERTEX_POINT('',#642);
#644=CARTESIAN_POINT('',(-3.E0,-3.461954293666E0,-5.501351876454E0));
#645=VERTEX_POINT('',#644);
#646=CARTESIAN_POINT('',(-3.E0,3.461954293666E0,-5.501351876454E0));
#647=CARTESIAN_POINT('',(-3.E0,4.494562646538E0,-5.481688299816E0));
#648=VERTEX_POINT('',#646);
#649=VERTEX_POINT('',#647);
#650=CARTESIAN_POINT('',(3.E0,4.494562646538E0,-5.481688299816E0));
#651=VERTEX_POINT('',#650);
#652=CARTESIAN_POINT('',(3.E0,3.461954293666E0,-5.501351876454E0));
#653=VERTEX_POINT('',#652);
#654=CARTESIAN_POINT('',(3.E0,6.495287627E0,-2.474644268286E-1));
#655=CARTESIAN_POINT('',(3.E0,6.994562646538E0,-1.151561280894E0));
#656=VERTEX_POINT('',#654);
#657=VERTEX_POINT('',#655);
#658=CARTESIAN_POINT('',(-3.E0,6.994562646538E0,-1.151561280894E0));
#659=VERTEX_POINT('',#658);
#660=CARTESIAN_POINT('',(-3.E0,6.495287627E0,-2.474644268286E-1));
#661=VERTEX_POINT('',#660);
#662=CARTESIAN_POINT('',(-3.E0,3.E0,-4.4E1));
#663=CARTESIAN_POINT('',(-3.E0,-3.E0,-4.4E1));
#664=VERTEX_POINT('',#662);
#665=VERTEX_POINT('',#663);
#666=CARTESIAN_POINT('',(-3.E0,-3.E0,-3.E1));
#667=VERTEX_POINT('',#666);
#668=CARTESIAN_POINT('',(-3.E0,3.E0,-3.E1));
#669=VERTEX_POINT('',#668);
#670=CARTESIAN_POINT('',(3.E0,3.E0,-4.4E1));
#671=CARTESIAN_POINT('',(3.E0,-3.E0,-4.4E1));
#672=VERTEX_POINT('',#670);
#673=VERTEX_POINT('',#671);
#674=CARTESIAN_POINT('',(3.E0,-3.E0,-3.E1));
#675=VERTEX_POINT('',#674);
#676=CARTESIAN_POINT('',(3.E0,3.E0,-3.E1));
#677=VERTEX_POINT('',#676);
#678=CARTESIAN_POINT('',(-3.E0,3.E0,-7.4E1));
#679=CARTESIAN_POINT('',(-3.E0,-3.E0,-7.4E1));
#680=VERTEX_POINT('',#678);
#681=VERTEX_POINT('',#679);
#682=CARTESIAN_POINT('',(-3.E0,-3.E0,-6.E1));
#683=VERTEX_POINT('',#682);
#684=CARTESIAN_POINT('',(-3.E0,3.E0,-6.E1));
#685=VERTEX_POINT('',#684);
#686=CARTESIAN_POINT('',(3.E0,3.E0,-7.4E1));
#687=CARTESIAN_POINT('',(3.E0,-3.E0,-7.4E1));
#688=VERTEX_POINT('',#686);
#689=VERTEX_POINT('',#687);
#690=CARTESIAN_POINT('',(3.E0,-3.E0,-6.E1));
#691=VERTEX_POINT('',#690);
#692=CARTESIAN_POINT('',(3.E0,3.E0,-6.E1));
#693=VERTEX_POINT('',#692);
#694=CARTESIAN_POINT('',(-3.E0,3.E0,-1.04E2));
#695=CARTESIAN_POINT('',(-3.E0,-3.E0,-1.04E2));
#696=VERTEX_POINT('',#694);
#697=VERTEX_POINT('',#695);
#698=CARTESIAN_POINT('',(-3.E0,-3.E0,-9.E1));
#699=VERTEX_POINT('',#698);
#700=CARTESIAN_POINT('',(-3.E0,3.E0,-9.E1));
#701=VERTEX_POINT('',#700);
#702=CARTESIAN_POINT('',(3.E0,3.E0,-1.04E2));
#703=CARTESIAN_POINT('',(3.E0,-3.E0,-1.04E2));
#704=VERTEX_POINT('',#702);
#705=VERTEX_POINT('',#703);
#706=CARTESIAN_POINT('',(3.E0,-3.E0,-9.E1));
#707=VERTEX_POINT('',#706);
#708=CARTESIAN_POINT('',(3.E0,3.E0,-9.E1));
#709=VERTEX_POINT('',#708);
#710=CARTESIAN_POINT('',(-3.E0,3.E0,-1.34E2));
#711=CARTESIAN_POINT('',(-3.E0,-3.E0,-1.34E2));
#712=VERTEX_POINT('',#710);
#713=VERTEX_POINT('',#711);
#714=CARTESIAN_POINT('',(-3.E0,-3.E0,-1.2E2));
#715=VERTEX_POINT('',#714);
#716=CARTESIAN_POINT('',(-3.E0,3.E0,-1.2E2));
#717=VERTEX_POINT('',#716);
#718=CARTESIAN_POINT('',(3.E0,3.E0,-1.34E2));
#719=CARTESIAN_POINT('',(3.E0,-3.E0,-1.34E2));
#720=VERTEX_POINT('',#718);
#721=VERTEX_POINT('',#719);
#722=CARTESIAN_POINT('',(3.E0,-3.E0,-1.2E2));
#723=VERTEX_POINT('',#722);
#724=CARTESIAN_POINT('',(3.E0,3.E0,-1.2E2));
#725=VERTEX_POINT('',#724);
#726=CARTESIAN_POINT('',(-3.E0,0.E0,0.E0));
#727=DIRECTION('',(1.E0,0.E0,0.E0));
#728=DIRECTION('',(0.E0,-1.E0,0.E0));
#729=AXIS2_PLACEMENT_3D('',#726,#727,#728);
#730=PLANE('',#729);
#732=ORIENTED_EDGE('',*,*,#731,.T.);
#734=ORIENTED_EDGE('',*,*,#733,.F.);
#736=ORIENTED_EDGE('',*,*,#735,.T.);
#738=ORIENTED_EDGE('',*,*,#737,.T.);
#740=ORIENTED_EDGE('',*,*,#739,.T.);
#742=ORIENTED_EDGE('',*,*,#741,.F.);
#743=EDGE_LOOP('',(#732,#734,#736,#738,#740,#742));
#744=FACE_OUTER_BOUND('',#743,.F.);
#746=ORIENTED_EDGE('',*,*,#745,.T.);
#748=ORIENTED_EDGE('',*,*,#747,.T.);
#749=EDGE_LOOP('',(#746,#748));
#750=FACE_BOUND('',#749,.F.);
#752=ORIENTED_EDGE('',*,*,#751,.F.);
#754=ORIENTED_EDGE('',*,*,#753,.F.);
#756=ORIENTED_EDGE('',*,*,#755,.F.);
#758=ORIENTED_EDGE('',*,*,#757,.F.);
#760=ORIENTED_EDGE('',*,*,#759,.F.);
#762=ORIENTED_EDGE('',*,*,#761,.F.);
#764=ORIENTED_EDGE('',*,*,#763,.F.);
#766=ORIENTED_EDGE('',*,*,#765,.F.);
#768=ORIENTED_EDGE('',*,*,#767,.F.);
#770=ORIENTED_EDGE('',*,*,#769,.F.);
#772=ORIENTED_EDGE('',*,*,#771,.F.);
#774=ORIENTED_EDGE('',*,*,#773,.F.);
#776=ORIENTED_EDGE('',*,*,#775,.F.);
#778=ORIENTED_EDGE('',*,*,#777,.F.);
#780=ORIENTED_EDGE('',*,*,#779,.F.);
#782=ORIENTED_EDGE('',*,*,#781,.F.);
#784=ORIENTED_EDGE('',*,*,#783,.F.);
#786=ORIENTED_EDGE('',*,*,#785,.F.);
#787=EDGE_LOOP('',(#752,#754,#756,#758,#760,#762,#764,#766,#768,#770,#772,#774,
#776,#778,#780,#782,#784,#786));
#788=FACE_BOUND('',#787,.F.);
#790=ORIENTED_EDGE('',*,*,#789,.T.);
#792=ORIENTED_EDGE('',*,*,#791,.T.);
#794=ORIENTED_EDGE('',*,*,#793,.T.);
#796=ORIENTED_EDGE('',*,*,#795,.T.);
#797=EDGE_LOOP('',(#790,#792,#794,#796));
#798=FACE_BOUND('',#797,.F.);
#800=ORIENTED_EDGE('',*,*,#799,.T.);
#802=ORIENTED_EDGE('',*,*,#801,.T.);
#804=ORIENTED_EDGE('',*,*,#803,.T.);
#806=ORIENTED_EDGE('',*,*,#805,.T.);
#807=EDGE_LOOP('',(#800,#802,#804,#806));
#808=FACE_BOUND('',#807,.F.);
#810=ORIENTED_EDGE('',*,*,#809,.T.);
#812=ORIENTED_EDGE('',*,*,#811,.T.);
#814=ORIENTED_EDGE('',*,*,#813,.T.);
#816=ORIENTED_EDGE('',*,*,#815,.T.);
#817=EDGE_LOOP('',(#810,#812,#814,#816));
#818=FACE_BOUND('',#817,.F.);
#820=ORIENTED_EDGE('',*,*,#819,.T.);
#822=ORIENTED_EDGE('',*,*,#821,.T.);
#824=ORIENTED_EDGE('',*,*,#823,.T.);
#826=ORIENTED_EDGE('',*,*,#825,.T.);
#827=EDGE_LOOP('',(#820,#822,#824,#826));
#828=FACE_BOUND('',#827,.F.);
#829=ADVANCED_FACE('',(#744,#750,#788,#798,#808,#818,#828),#730,.F.);
#830=CARTESIAN_POINT('',(-3.E0,0.E0,0.E0));
#831=DIRECTION('',(1.E0,0.E0,0.E0));
#832=DIRECTION('',(0.E0,-1.E0,0.E0));
#833=AXIS2_PLACEMENT_3D('',#830,#831,#832);
#834=CYLINDRICAL_SURFACE('',#833,1.7E1);
#836=ORIENTED_EDGE('',*,*,#835,.T.);
#838=ORIENTED_EDGE('',*,*,#837,.T.);
#840=ORIENTED_EDGE('',*,*,#839,.F.);
#841=ORIENTED_EDGE('',*,*,#731,.F.);
#842=EDGE_LOOP('',(#836,#838,#840,#841));
#843=FACE_OUTER_BOUND('',#842,.F.);
#844=ADVANCED_FACE('',(#843),#834,.T.);
#845=CARTESIAN_POINT('',(-1.8036E1,2.4E1,-1.627882059610E1));
#846=DIRECTION('',(1.E0,0.E0,0.E0));
#847=DIRECTION('',(0.E0,-8.275862068966E-1,5.613386412448E-1));
#848=AXIS2_PLACEMENT_3D('',#845,#846,#847);
#849=CYLINDRICAL_SURFACE('',#848,1.2E1);
#850=ORIENTED_EDGE('',*,*,#835,.F.);
#851=ORIENTED_EDGE('',*,*,#741,.T.);
#853=ORIENTED_EDGE('',*,*,#852,.T.);
#855=ORIENTED_EDGE('',*,*,#854,.T.);
#856=EDGE_LOOP('',(#850,#851,#853,#855));
#857=FACE_OUTER_BOUND('',#856,.F.);
#858=ADVANCED_FACE('',(#857),#849,.F.);
#859=CARTESIAN_POINT('',(-3.E0,1.2E1,-1.6E2));
#860=DIRECTION('',(0.E0,1.E0,0.E0));
#861=DIRECTION('',(0.E0,0.E0,1.E0));
#862=AXIS2_PLACEMENT_3D('',#859,#860,#861);
#863=PLANE('',#862);
#864=ORIENTED_EDGE('',*,*,#852,.F.);
#865=ORIENTED_EDGE('',*,*,#739,.F.);
#867=ORIENTED_EDGE('',*,*,#866,.T.);
#869=ORIENTED_EDGE('',*,*,#868,.T.);
#870=EDGE_LOOP('',(#864,#865,#867,#869));
#871=FACE_OUTER_BOUND('',#870,.F.);
#872=ADVANCED_FACE('',(#871),#863,.T.);
#873=CARTESIAN_POINT('',(-3.E0,0.E0,-1.6E2));
#874=DIRECTION('',(1.E0,0.E0,0.E0));
#875=DIRECTION('',(0.E0,-1.E0,0.E0));
#876=AXIS2_PLACEMENT_3D('',#873,#874,#875);
#877=CYLINDRICAL_SURFACE('',#876,1.2E1);
#878=ORIENTED_EDGE('',*,*,#737,.F.);
#880=ORIENTED_EDGE('',*,*,#879,.T.);
#882=ORIENTED_EDGE('',*,*,#881,.T.);
#883=ORIENTED_EDGE('',*,*,#866,.F.);
#884=EDGE_LOOP('',(#878,#880,#882,#883));
#885=FACE_OUTER_BOUND('',#884,.F.);
#886=ADVANCED_FACE('',(#885),#877,.T.);
#887=CARTESIAN_POINT('',(-3.E0,-1.2E1,-1.204159457879E1));
#888=DIRECTION('',(0.E0,-1.E0,0.E0));
#889=DIRECTION('',(0.E0,0.E0,-1.E0));
#890=AXIS2_PLACEMENT_3D('',#887,#888,#889);
#891=PLANE('',#890);
#893=ORIENTED_EDGE('',*,*,#892,.T.);
#895=ORIENTED_EDGE('',*,*,#894,.T.);
#896=ORIENTED_EDGE('',*,*,#879,.F.);
#897=ORIENTED_EDGE('',*,*,#735,.F.);
#898=EDGE_LOOP('',(#893,#895,#896,#897));
#899=FACE_OUTER_BOUND('',#898,.F.);
#900=ADVANCED_FACE('',(#899),#891,.T.);
#901=CARTESIAN_POINT('',(-1.8036E1,-2.4E1,-1.627882059610E1));
#902=DIRECTION('',(1.E0,0.E0,0.E0));
#903=DIRECTION('',(0.E0,1.E0,0.E0));
#904=AXIS2_PLACEMENT_3D('',#901,#902,#903);
#905=CYLINDRICAL_SURFACE('',#904,1.2E1);
#906=ORIENTED_EDGE('',*,*,#892,.F.);
#907=ORIENTED_EDGE('',*,*,#733,.T.);
#908=ORIENTED_EDGE('',*,*,#839,.T.);
#910=ORIENTED_EDGE('',*,*,#909,.T.);
#911=EDGE_LOOP('',(#906,#907,#908,#910));
#912=FACE_OUTER_BOUND('',#911,.F.);
#913=ADVANCED_FACE('',(#912),#905,.F.);
#914=CARTESIAN_POINT('',(3.E0,0.E0,0.E0));
#915=DIRECTION('',(1.E0,0.E0,0.E0));
#916=DIRECTION('',(0.E0,-1.E0,0.E0));
#917=AXIS2_PLACEMENT_3D('',#914,#915,#916);
#918=PLANE('',#917);
#919=ORIENTED_EDGE('',*,*,#894,.F.);
#920=ORIENTED_EDGE('',*,*,#909,.F.);
#921=ORIENTED_EDGE('',*,*,#837,.F.);
#922=ORIENTED_EDGE('',*,*,#854,.F.);
#923=ORIENTED_EDGE('',*,*,#868,.F.);
#924=ORIENTED_EDGE('',*,*,#881,.F.);
#925=EDGE_LOOP('',(#919,#920,#921,#922,#923,#924));
#926=FACE_OUTER_BOUND('',#925,.F.);
#928=ORIENTED_EDGE('',*,*,#927,.F.);
#930=ORIENTED_EDGE('',*,*,#929,.F.);
#931=EDGE_LOOP('',(#928,#930));
#932=FACE_BOUND('',#931,.F.);
#934=ORIENTED_EDGE('',*,*,#933,.F.);
#936=ORIENTED_EDGE('',*,*,#935,.T.);
#938=ORIENTED_EDGE('',*,*,#937,.T.);
#940=ORIENTED_EDGE('',*,*,#939,.T.);
#942=ORIENTED_EDGE('',*,*,#941,.F.);
#944=ORIENTED_EDGE('',*,*,#943,.F.);
#946=ORIENTED_EDGE('',*,*,#945,.F.);
#948=ORIENTED_EDGE('',*,*,#947,.T.);
#950=ORIENTED_EDGE('',*,*,#949,.T.);
#952=ORIENTED_EDGE('',*,*,#951,.T.);
#954=ORIENTED_EDGE('',*,*,#953,.F.);
#956=ORIENTED_EDGE('',*,*,#955,.F.);
#958=ORIENTED_EDGE('',*,*,#957,.F.);
#960=ORIENTED_EDGE('',*,*,#959,.T.);
#962=ORIENTED_EDGE('',*,*,#961,.T.);
#964=ORIENTED_EDGE('',*,*,#963,.T.);
#966=ORIENTED_EDGE('',*,*,#965,.F.);
#968=ORIENTED_EDGE('',*,*,#967,.F.);
#969=EDGE_LOOP('',(#934,#936,#938,#940,#942,#944,#946,#948,#950,#952,#954,#956,
#958,#960,#962,#964,#966,#968));
#970=FACE_BOUND('',#969,.F.);
#972=ORIENTED_EDGE('',*,*,#971,.F.);
#974=ORIENTED_EDGE('',*,*,#973,.F.);
#976=ORIENTED_EDGE('',*,*,#975,.F.);
#978=ORIENTED_EDGE('',*,*,#977,.F.);
#979=EDGE_LOOP('',(#972,#974,#976,#978));
#980=FACE_BOUND('',#979,.F.);
#982=ORIENTED_EDGE('',*,*,#981,.F.);
#984=ORIENTED_EDGE('',*,*,#983,.F.);
#986=ORIENTED_EDGE('',*,*,#985,.F.);
#988=ORIENTED_EDGE('',*,*,#987,.F.);
#989=EDGE_LOOP('',(#982,#984,#986,#988));
#990=FACE_BOUND('',#989,.F.);
#992=ORIENTED_EDGE('',*,*,#991,.F.);
#994=ORIENTED_EDGE('',*,*,#993,.F.);
#996=ORIENTED_EDGE('',*,*,#995,.F.);
#998=ORIENTED_EDGE('',*,*,#997,.F.);
#999=EDGE_LOOP('',(#992,#994,#996,#998));
#1000=FACE_BOUND('',#999,.F.);
#1002=ORIENTED_EDGE('',*,*,#1001,.F.);
#1004=ORIENTED_EDGE('',*,*,#1003,.F.);
#1006=ORIENTED_EDGE('',*,*,#1005,.F.);
#1008=ORIENTED_EDGE('',*,*,#1007,.F.);
#1009=EDGE_LOOP('',(#1002,#1004,#1006,#1008));
#1010=FACE_BOUND('',#1009,.F.);
#1011=ADVANCED_FACE('',(#926,#932,#970,#980,#990,#1000,#1010),#918,.T.);
#1012=CARTESIAN_POINT('',(-3.E0,0.E0,-1.6E2));
#1013=DIRECTION('',(1.E0,0.E0,0.E0));
#1014=DIRECTION('',(0.E0,-1.E0,0.E0));
#1015=AXIS2_PLACEMENT_3D('',#1012,#1013,#1014);
#1016=CYLINDRICAL_SURFACE('',#1015,6.5E0);
#1017=ORIENTED_EDGE('',*,*,#745,.F.);
#1019=ORIENTED_EDGE('',*,*,#1018,.T.);
#1020=ORIENTED_EDGE('',*,*,#927,.T.);
#1022=ORIENTED_EDGE('',*,*,#1021,.F.);
#1023=EDGE_LOOP('',(#1017,#1019,#1020,#1022));
#1024=FACE_OUTER_BOUND('',#1023,.F.);
#1025=ADVANCED_FACE('',(#1024),#1016,.F.);
#1026=CARTESIAN_POINT('',(-3.E0,0.E0,-1.6E2));
#1027=DIRECTION('',(1.E0,0.E0,0.E0));
#1028=DIRECTION('',(0.E0,-1.E0,0.E0));
#1029=AXIS2_PLACEMENT_3D('',#1026,#1027,#1028);
#1030=CYLINDRICAL_SURFACE('',#1029,6.5E0);
#1031=ORIENTED_EDGE('',*,*,#747,.F.);
#1032=ORIENTED_EDGE('',*,*,#1021,.T.);
#1033=ORIENTED_EDGE('',*,*,#929,.T.);
#1034=ORIENTED_EDGE('',*,*,#1018,.F.);
#1035=EDGE_LOOP('',(#1031,#1032,#1033,#1034));
#1036=FACE_OUTER_BOUND('',#1035,.F.);
#1037=ADVANCED_FACE('',(#1036),#1030,.F.);
#1038=CARTESIAN_POINT('',(1.08216E1,3.994562646538E0,-6.347713703601E0));
#1039=DIRECTION('',(-1.E0,0.E0,0.E0));
#1040=DIRECTION('',(0.E0,-5.326083528717E-1,8.463618271468E-1));
#1041=AXIS2_PLACEMENT_3D('',#1038,#1039,#1040);
#1042=CYLINDRICAL_SURFACE('',#1041,1.E0);
#1043=ORIENTED_EDGE('',*,*,#751,.T.);
#1045=ORIENTED_EDGE('',*,*,#1044,.F.);
#1046=ORIENTED_EDGE('',*,*,#933,.T.);
#1048=ORIENTED_EDGE('',*,*,#1047,.T.);
#1049=EDGE_LOOP('',(#1043,#1045,#1046,#1048));
#1050=FACE_OUTER_BOUND('',#1049,.F.);
#1051=ADVANCED_FACE('',(#1050),#1042,.T.);
#1052=CARTESIAN_POINT('',(3.E0,3.946152422707E0,-5.165063509461E0));
#1053=DIRECTION('',(0.E0,-5.E-1,-8.660254037844E-1));
#1054=DIRECTION('',(0.E0,8.660254037844E-1,-5.E-1));
#1055=AXIS2_PLACEMENT_3D('',#1052,#1053,#1054);
#1056=PLANE('',#1055);
#1057=ORIENTED_EDGE('',*,*,#1044,.T.);
#1058=ORIENTED_EDGE('',*,*,#785,.T.);
#1060=ORIENTED_EDGE('',*,*,#1059,.F.);
#1061=ORIENTED_EDGE('',*,*,#935,.F.);
#1062=EDGE_LOOP('',(#1057,#1058,#1060,#1061));
#1063=FACE_OUTER_BOUND('',#1062,.F.);
#1064=ADVANCED_FACE('',(#1063),#1056,.F.);
#1065=CARTESIAN_POINT('',(3.E0,7.577722283114E0,-4.375E0));
#1066=DIRECTION('',(1.E0,0.E0,0.E0));
#1067=DIRECTION('',(0.E0,8.660254037844E-1,-5.E-1));
#1068=AXIS2_PLACEMENT_3D('',#1065,#1066,#1067);
#1069=CYLINDRICAL_SURFACE('',#1068,2.5E0);
#1070=ORIENTED_EDGE('',*,*,#783,.T.);
#1072=ORIENTED_EDGE('',*,*,#1071,.F.);
#1073=ORIENTED_EDGE('',*,*,#937,.F.);
#1074=ORIENTED_EDGE('',*,*,#1059,.T.);
#1075=EDGE_LOOP('',(#1070,#1072,#1073,#1074));
#1076=FACE_OUTER_BOUND('',#1075,.F.);
#1077=ADVANCED_FACE('',(#1076),#1069,.F.);
#1078=CARTESIAN_POINT('',(3.E0,8.827722283114E0,-2.209936490539E0));
#1079=DIRECTION('',(0.E0,5.E-1,8.660254037844E-1));
#1080=DIRECTION('',(0.E0,-8.660254037844E-1,5.E-1));
#1081=AXIS2_PLACEMENT_3D('',#1078,#1079,#1080);
#1082=PLANE('',#1081);
#1084=ORIENTED_EDGE('',*,*,#1083,.T.);
#1085=ORIENTED_EDGE('',*,*,#939,.F.);
#1086=ORIENTED_EDGE('',*,*,#1071,.T.);
#1087=ORIENTED_EDGE('',*,*,#781,.T.);
#1088=EDGE_LOOP('',(#1084,#1085,#1086,#1087));
#1089=FACE_OUTER_BOUND('',#1088,.F.);
#1090=ADVANCED_FACE('',(#1089),#1082,.F.);
#1091=CARTESIAN_POINT('',(-1.08216E1,7.494562646538E0,-2.855358771099E-1));
#1092=DIRECTION('',(1.E0,0.E0,0.E0));
#1093=DIRECTION('',(0.E0,-9.992750195384E-1,3.807145028132E-2));
#1094=AXIS2_PLACEMENT_3D('',#1091,#1092,#1093);
#1095=CYLINDRICAL_SURFACE('',#1094,1.E0);
#1096=ORIENTED_EDGE('',*,*,#941,.T.);
#1097=ORIENTED_EDGE('',*,*,#1083,.F.);
#1098=ORIENTED_EDGE('',*,*,#779,.T.);
#1100=ORIENTED_EDGE('',*,*,#1099,.T.);
#1101=EDGE_LOOP('',(#1096,#1097,#1098,#1100));
#1102=FACE_OUTER_BOUND('',#1101,.F.);
#1103=ADVANCED_FACE('',(#1102),#1095,.T.);
#1104=CARTESIAN_POINT('',(-3.E0,0.E0,0.E0));
#1105=DIRECTION('',(-1.E0,0.E0,0.E0));
#1106=DIRECTION('',(0.E0,0.E0,-1.E0));
#1107=AXIS2_PLACEMENT_3D('',#1104,#1105,#1106);
#1108=CYLINDRICAL_SURFACE('',#1107,6.5E0);
#1110=ORIENTED_EDGE('',*,*,#1109,.F.);
#1111=ORIENTED_EDGE('',*,*,#955,.T.);
#1113=ORIENTED_EDGE('',*,*,#1112,.F.);
#1114=ORIENTED_EDGE('',*,*,#765,.T.);
#1115=EDGE_LOOP('',(#1110,#1111,#1113,#1114));
#1116=FACE_OUTER_BOUND('',#1115,.F.);
#1117=ADVANCED_FACE('',(#1116),#1108,.F.);
#1118=CARTESIAN_POINT('',(-3.E0,0.E0,0.E0));
#1119=DIRECTION('',(-1.E0,0.E0,0.E0));
#1120=DIRECTION('',(0.E0,0.E0,-1.E0));
#1121=AXIS2_PLACEMENT_3D('',#1118,#1119,#1120);
#1122=CYLINDRICAL_SURFACE('',#1121,6.5E0);
#1123=ORIENTED_EDGE('',*,*,#1047,.F.);
#1124=ORIENTED_EDGE('',*,*,#967,.T.);
#1126=ORIENTED_EDGE('',*,*,#1125,.F.);
#1127=ORIENTED_EDGE('',*,*,#753,.T.);
#1128=EDGE_LOOP('',(#1123,#1124,#1126,#1127));
#1129=FACE_OUTER_BOUND('',#1128,.F.);
#1130=ADVANCED_FACE('',(#1129),#1122,.F.);
#1131=CARTESIAN_POINT('',(-3.E0,0.E0,0.E0));
#1132=DIRECTION('',(-1.E0,0.E0,0.E0));
#1133=DIRECTION('',(0.E0,0.E0,-1.E0));
#1134=AXIS2_PLACEMENT_3D('',#1131,#1132,#1133);
#1135=CYLINDRICAL_SURFACE('',#1134,6.5E0);
#1136=ORIENTED_EDGE('',*,*,#1099,.F.);
#1137=ORIENTED_EDGE('',*,*,#777,.T.);
#1139=ORIENTED_EDGE('',*,*,#1138,.F.);
#1140=ORIENTED_EDGE('',*,*,#943,.T.);
#1141=EDGE_LOOP('',(#1136,#1137,#1139,#1140));
#1142=FACE_OUTER_BOUND('',#1141,.F.);
#1143=ADVANCED_FACE('',(#1142),#1135,.F.);
#1144=CARTESIAN_POINT('',(1.08216E1,-7.494562646538E0,-2.855358771099E-1));
#1145=DIRECTION('',(-1.E0,0.E0,0.E0));
#1146=DIRECTION('',(0.E0,9.992750195384E-1,3.807145028131E-2));
#1147=AXIS2_PLACEMENT_3D('',#1144,#1145,#1146);
#1148=CYLINDRICAL_SURFACE('',#1147,1.E0);
#1149=ORIENTED_EDGE('',*,*,#763,.T.);
#1151=ORIENTED_EDGE('',*,*,#1150,.F.);
#1152=ORIENTED_EDGE('',*,*,#957,.T.);
#1153=ORIENTED_EDGE('',*,*,#1109,.T.);
#1154=EDGE_LOOP('',(#1149,#1151,#1152,#1153));
#1155=FACE_OUTER_BOUND('',#1154,.F.);
#1156=ADVANCED_FACE('',(#1155),#1148,.T.);
#1157=CARTESIAN_POINT('',(3.E0,-6.446152422707E0,-8.349364905389E-1));
#1158=DIRECTION('',(0.E0,-5.E-1,8.660254037844E-1));
#1159=DIRECTION('',(0.E0,-8.660254037844E-1,-5.E-1));
#1160=AXIS2_PLACEMENT_3D('',#1157,#1158,#1159);
#1161=PLANE('',#1160);
#1162=ORIENTED_EDGE('',*,*,#1150,.T.);
#1163=ORIENTED_EDGE('',*,*,#761,.T.);
#1165=ORIENTED_EDGE('',*,*,#1164,.F.);
#1166=ORIENTED_EDGE('',*,*,#959,.F.);
#1167=EDGE_LOOP('',(#1162,#1163,#1165,#1166));
#1168=FACE_OUTER_BOUND('',#1167,.F.);
#1169=ADVANCED_FACE('',(#1168),#1161,.F.);
#1170=CARTESIAN_POINT('',(3.E0,-7.577722283114E0,-4.375E0));
#1171=DIRECTION('',(1.E0,0.E0,0.E0));
#1172=DIRECTION('',(0.E0,-8.660254037844E-1,-5.E-1));
#1173=AXIS2_PLACEMENT_3D('',#1170,#1171,#1172);
#1174=CYLINDRICAL_SURFACE('',#1173,2.5E0);
#1175=ORIENTED_EDGE('',*,*,#759,.T.);
#1177=ORIENTED_EDGE('',*,*,#1176,.F.);
#1178=ORIENTED_EDGE('',*,*,#961,.F.);
#1179=ORIENTED_EDGE('',*,*,#1164,.T.);
#1180=EDGE_LOOP('',(#1175,#1177,#1178,#1179));
#1181=FACE_OUTER_BOUND('',#1180,.F.);
#1182=ADVANCED_FACE('',(#1181),#1174,.F.);
#1183=CARTESIAN_POINT('',(3.E0,-6.327722283114E0,-6.540063509461E0));
#1184=DIRECTION('',(0.E0,5.E-1,-8.660254037844E-1));
#1185=DIRECTION('',(0.E0,8.660254037844E-1,5.E-1));
#1186=AXIS2_PLACEMENT_3D('',#1183,#1184,#1185);
#1187=PLANE('',#1186);
#1189=ORIENTED_EDGE('',*,*,#1188,.T.);
#1190=ORIENTED_EDGE('',*,*,#963,.F.);
#1191=ORIENTED_EDGE('',*,*,#1176,.T.);
#1192=ORIENTED_EDGE('',*,*,#757,.T.);
#1193=EDGE_LOOP('',(#1189,#1190,#1191,#1192));
#1194=FACE_OUTER_BOUND('',#1193,.F.);
#1195=ADVANCED_FACE('',(#1194),#1187,.F.);
#1196=CARTESIAN_POINT('',(-1.08216E1,-3.994562646538E0,-6.347713703601E0));
#1197=DIRECTION('',(1.E0,0.E0,0.E0));
#1198=DIRECTION('',(0.E0,5.326083528717E-1,8.463618271468E-1));
#1199=AXIS2_PLACEMENT_3D('',#1196,#1197,#1198);
#1200=CYLINDRICAL_SURFACE('',#1199,1.E0);
#1201=ORIENTED_EDGE('',*,*,#965,.T.);
#1202=ORIENTED_EDGE('',*,*,#1188,.F.);
#1203=ORIENTED_EDGE('',*,*,#755,.T.);
#1204=ORIENTED_EDGE('',*,*,#1125,.T.);
#1205=EDGE_LOOP('',(#1201,#1202,#1203,#1204));
#1206=FACE_OUTER_BOUND('',#1205,.F.);
#1207=ADVANCED_FACE('',(#1206),#1200,.T.);
#1208=CARTESIAN_POINT('',(-1.08216E1,-3.5E0,6.633249580711E0));
#1209=DIRECTION('',(1.E0,0.E0,0.E0));
#1210=DIRECTION('',(0.E0,4.666666666667E-1,-8.844332774281E-1));
#1211=AXIS2_PLACEMENT_3D('',#1208,#1209,#1210);
#1212=CYLINDRICAL_SURFACE('',#1211,1.E0);
#1213=ORIENTED_EDGE('',*,*,#953,.T.);
#1215=ORIENTED_EDGE('',*,*,#1214,.F.);
#1216=ORIENTED_EDGE('',*,*,#767,.T.);
#1217=ORIENTED_EDGE('',*,*,#1112,.T.);
#1218=EDGE_LOOP('',(#1213,#1215,#1216,#1217));
#1219=FACE_OUTER_BOUND('',#1218,.F.);
#1220=ADVANCED_FACE('',(#1219),#1212,.T.);
#1221=CARTESIAN_POINT('',(3.E0,-2.5E0,8.75E0));
#1222=DIRECTION('',(0.E0,-1.E0,0.E0));
#1223=DIRECTION('',(0.E0,0.E0,-1.E0));
#1224=AXIS2_PLACEMENT_3D('',#1221,#1222,#1223);
#1225=PLANE('',#1224);
#1226=ORIENTED_EDGE('',*,*,#1214,.T.);
#1227=ORIENTED_EDGE('',*,*,#951,.F.);
#1229=ORIENTED_EDGE('',*,*,#1228,.T.);
#1230=ORIENTED_EDGE('',*,*,#769,.T.);
#1231=EDGE_LOOP('',(#1226,#1227,#1229,#1230));
#1232=FACE_OUTER_BOUND('',#1231,.F.);
#1233=ADVANCED_FACE('',(#1232),#1225,.F.);
#1234=CARTESIAN_POINT('',(3.E0,0.E0,8.75E0));
#1235=DIRECTION('',(1.E0,0.E0,0.E0));
#1236=DIRECTION('',(0.E0,0.E0,1.E0));
#1237=AXIS2_PLACEMENT_3D('',#1234,#1235,#1236);
#1238=CYLINDRICAL_SURFACE('',#1237,2.5E0);
#1239=ORIENTED_EDGE('',*,*,#771,.T.);
#1240=ORIENTED_EDGE('',*,*,#1228,.F.);
#1241=ORIENTED_EDGE('',*,*,#949,.F.);
#1243=ORIENTED_EDGE('',*,*,#1242,.T.);
#1244=EDGE_LOOP('',(#1239,#1240,#1241,#1243));
#1245=FACE_OUTER_BOUND('',#1244,.F.);
#1246=ADVANCED_FACE('',(#1245),#1238,.F.);
#1247=CARTESIAN_POINT('',(3.E0,2.5E0,6.E0));
#1248=DIRECTION('',(0.E0,1.E0,0.E0));
#1249=DIRECTION('',(0.E0,0.E0,1.E0));
#1250=AXIS2_PLACEMENT_3D('',#1247,#1248,#1249);
#1251=PLANE('',#1250);
#1253=ORIENTED_EDGE('',*,*,#1252,.T.);
#1254=ORIENTED_EDGE('',*,*,#773,.T.);
#1255=ORIENTED_EDGE('',*,*,#1242,.F.);
#1256=ORIENTED_EDGE('',*,*,#947,.F.);
#1257=EDGE_LOOP('',(#1253,#1254,#1255,#1256));
#1258=FACE_OUTER_BOUND('',#1257,.F.);
#1259=ADVANCED_FACE('',(#1258),#1251,.F.);
#1260=CARTESIAN_POINT('',(1.08216E1,3.5E0,6.633249580711E0));
#1261=DIRECTION('',(-1.E0,0.E0,0.E0));
#1262=DIRECTION('',(0.E0,-4.666666666667E-1,-8.844332774281E-1));
#1263=AXIS2_PLACEMENT_3D('',#1260,#1261,#1262);
#1264=CYLINDRICAL_SURFACE('',#1263,1.E0);
#1265=ORIENTED_EDGE('',*,*,#775,.T.);
#1266=ORIENTED_EDGE('',*,*,#1252,.F.);
#1267=ORIENTED_EDGE('',*,*,#945,.T.);
#1268=ORIENTED_EDGE('',*,*,#1138,.T.);
#1269=EDGE_LOOP('',(#1265,#1266,#1267,#1268));
#1270=FACE_OUTER_BOUND('',#1269,.F.);
#1271=ADVANCED_FACE('',(#1270),#1264,.T.);
#1272=CARTESIAN_POINT('',(-3.E0,0.E0,-4.4E1));
#1273=DIRECTION('',(-1.E0,0.E0,0.E0));
#1274=DIRECTION('',(0.E0,0.E0,1.E0));
#1275=AXIS2_PLACEMENT_3D('',#1272,#1273,#1274);
#1276=CYLINDRICAL_SURFACE('',#1275,3.E0);
#1277=ORIENTED_EDGE('',*,*,#789,.F.);
#1279=ORIENTED_EDGE('',*,*,#1278,.T.);
#1280=ORIENTED_EDGE('',*,*,#971,.T.);
#1282=ORIENTED_EDGE('',*,*,#1281,.F.);
#1283=EDGE_LOOP('',(#1277,#1279,#1280,#1282));
#1284=FACE_OUTER_BOUND('',#1283,.F.);
#1285=ADVANCED_FACE('',(#1284),#1276,.F.);
#1286=CARTESIAN_POINT('',(-3.E0,3.E0,-3.E1));
#1287=DIRECTION('',(0.E0,1.E0,0.E0));
#1288=DIRECTION('',(0.E0,0.E0,-1.E0));
#1289=AXIS2_PLACEMENT_3D('',#1286,#1287,#1288);
#1290=PLANE('',#1289);
#1291=ORIENTED_EDGE('',*,*,#795,.F.);
#1293=ORIENTED_EDGE('',*,*,#1292,.T.);
#1294=ORIENTED_EDGE('',*,*,#973,.T.);
#1295=ORIENTED_EDGE('',*,*,#1278,.F.);
#1296=EDGE_LOOP('',(#1291,#1293,#1294,#1295));
#1297=FACE_OUTER_BOUND('',#1296,.F.);
#1298=ADVANCED_FACE('',(#1297),#1290,.F.);
#1299=CARTESIAN_POINT('',(-3.E0,0.E0,-3.E1));
#1300=DIRECTION('',(-1.E0,0.E0,0.E0));
#1301=DIRECTION('',(0.E0,0.E0,1.E0));
#1302=AXIS2_PLACEMENT_3D('',#1299,#1300,#1301);
#1303=CYLINDRICAL_SURFACE('',#1302,3.E0);
#1304=ORIENTED_EDGE('',*,*,#793,.F.);
#1306=ORIENTED_EDGE('',*,*,#1305,.T.);
#1307=ORIENTED_EDGE('',*,*,#975,.T.);
#1308=ORIENTED_EDGE('',*,*,#1292,.F.);
#1309=EDGE_LOOP('',(#1304,#1306,#1307,#1308));
#1310=FACE_OUTER_BOUND('',#1309,.F.);
#1311=ADVANCED_FACE('',(#1310),#1303,.F.);
#1312=CARTESIAN_POINT('',(-3.E0,-3.E0,-4.4E1));
#1313=DIRECTION('',(0.E0,-1.E0,0.E0));
#1314=DIRECTION('',(0.E0,0.E0,1.E0));
#1315=AXIS2_PLACEMENT_3D('',#1312,#1313,#1314);
#1316=PLANE('',#1315);
#1317=ORIENTED_EDGE('',*,*,#791,.F.);
#1318=ORIENTED_EDGE('',*,*,#1281,.T.);
#1319=ORIENTED_EDGE('',*,*,#977,.T.);
#1320=ORIENTED_EDGE('',*,*,#1305,.F.);
#1321=EDGE_LOOP('',(#1317,#1318,#1319,#1320));
#1322=FACE_OUTER_BOUND('',#1321,.F.);
#1323=ADVANCED_FACE('',(#1322),#1316,.F.);
#1324=CARTESIAN_POINT('',(-3.E0,0.E0,-7.4E1));
#1325=DIRECTION('',(-1.E0,0.E0,0.E0));
#1326=DIRECTION('',(0.E0,0.E0,1.E0));
#1327=AXIS2_PLACEMENT_3D('',#1324,#1325,#1326);
#1328=CYLINDRICAL_SURFACE('',#1327,3.E0);
#1329=ORIENTED_EDGE('',*,*,#799,.F.);
#1331=ORIENTED_EDGE('',*,*,#1330,.T.);
#1332=ORIENTED_EDGE('',*,*,#981,.T.);
#1334=ORIENTED_EDGE('',*,*,#1333,.F.);
#1335=EDGE_LOOP('',(#1329,#1331,#1332,#1334));
#1336=FACE_OUTER_BOUND('',#1335,.F.);
#1337=ADVANCED_FACE('',(#1336),#1328,.F.);
#1338=CARTESIAN_POINT('',(-3.E0,3.E0,-6.E1));
#1339=DIRECTION('',(0.E0,1.E0,0.E0));
#1340=DIRECTION('',(0.E0,0.E0,-1.E0));
#1341=AXIS2_PLACEMENT_3D('',#1338,#1339,#1340);
#1342=PLANE('',#1341);
#1343=ORIENTED_EDGE('',*,*,#805,.F.);
#1345=ORIENTED_EDGE('',*,*,#1344,.T.);
#1346=ORIENTED_EDGE('',*,*,#983,.T.);
#1347=ORIENTED_EDGE('',*,*,#1330,.F.);
#1348=EDGE_LOOP('',(#1343,#1345,#1346,#1347));
#1349=FACE_OUTER_BOUND('',#1348,.F.);
#1350=ADVANCED_FACE('',(#1349),#1342,.F.);
#1351=CARTESIAN_POINT('',(-3.E0,0.E0,-6.E1));
#1352=DIRECTION('',(-1.E0,0.E0,0.E0));
#1353=DIRECTION('',(0.E0,0.E0,1.E0));
#1354=AXIS2_PLACEMENT_3D('',#1351,#1352,#1353);
#1355=CYLINDRICAL_SURFACE('',#1354,3.E0);
#1356=ORIENTED_EDGE('',*,*,#803,.F.);
#1358=ORIENTED_EDGE('',*,*,#1357,.T.);
#1359=ORIENTED_EDGE('',*,*,#985,.T.);
#1360=ORIENTED_EDGE('',*,*,#1344,.F.);
#1361=EDGE_LOOP('',(#1356,#1358,#1359,#1360));
#1362=FACE_OUTER_BOUND('',#1361,.F.);
#1363=ADVANCED_FACE('',(#1362),#1355,.F.);
#1364=CARTESIAN_POINT('',(-3.E0,-3.E0,-7.4E1));
#1365=DIRECTION('',(0.E0,-1.E0,0.E0));
#1366=DIRECTION('',(0.E0,0.E0,1.E0));
#1367=AXIS2_PLACEMENT_3D('',#1364,#1365,#1366);
#1368=PLANE('',#1367);
#1369=ORIENTED_EDGE('',*,*,#801,.F.);
#1370=ORIENTED_EDGE('',*,*,#1333,.T.);
#1371=ORIENTED_EDGE('',*,*,#987,.T.);
#1372=ORIENTED_EDGE('',*,*,#1357,.F.);
#1373=EDGE_LOOP('',(#1369,#1370,#1371,#1372));
#1374=FACE_OUTER_BOUND('',#1373,.F.);
#1375=ADVANCED_FACE('',(#1374),#1368,.F.);
#1376=CARTESIAN_POINT('',(-3.E0,0.E0,-1.04E2));
#1377=DIRECTION('',(-1.E0,0.E0,0.E0));
#1378=DIRECTION('',(0.E0,0.E0,1.E0));
#1379=AXIS2_PLACEMENT_3D('',#1376,#1377,#1378);
#1380=CYLINDRICAL_SURFACE('',#1379,3.E0);
#1381=ORIENTED_EDGE('',*,*,#809,.F.);
#1383=ORIENTED_EDGE('',*,*,#1382,.T.);
#1384=ORIENTED_EDGE('',*,*,#991,.T.);
#1386=ORIENTED_EDGE('',*,*,#1385,.F.);
#1387=EDGE_LOOP('',(#1381,#1383,#1384,#1386));
#1388=FACE_OUTER_BOUND('',#1387,.F.);
#1389=ADVANCED_FACE('',(#1388),#1380,.F.);
#1390=CARTESIAN_POINT('',(-3.E0,3.E0,-9.E1));
#1391=DIRECTION('',(0.E0,1.E0,0.E0));
#1392=DIRECTION('',(0.E0,0.E0,-1.E0));
#1393=AXIS2_PLACEMENT_3D('',#1390,#1391,#1392);
#1394=PLANE('',#1393);
#1395=ORIENTED_EDGE('',*,*,#815,.F.);
#1397=ORIENTED_EDGE('',*,*,#1396,.T.);
#1398=ORIENTED_EDGE('',*,*,#993,.T.);
#1399=ORIENTED_EDGE('',*,*,#1382,.F.);
#1400=EDGE_LOOP('',(#1395,#1397,#1398,#1399));
#1401=FACE_OUTER_BOUND('',#1400,.F.);
#1402=ADVANCED_FACE('',(#1401),#1394,.F.);
#1403=CARTESIAN_POINT('',(-3.E0,0.E0,-9.E1));
#1404=DIRECTION('',(-1.E0,0.E0,0.E0));
#1405=DIRECTION('',(0.E0,0.E0,1.E0));
#1406=AXIS2_PLACEMENT_3D('',#1403,#1404,#1405);
#1407=CYLINDRICAL_SURFACE('',#1406,3.E0);
#1408=ORIENTED_EDGE('',*,*,#813,.F.);
#1410=ORIENTED_EDGE('',*,*,#1409,.T.);
#1411=ORIENTED_EDGE('',*,*,#995,.T.);
#1412=ORIENTED_EDGE('',*,*,#1396,.F.);
#1413=EDGE_LOOP('',(#1408,#1410,#1411,#1412));
#1414=FACE_OUTER_BOUND('',#1413,.F.);
#1415=ADVANCED_FACE('',(#1414),#1407,.F.);
#1416=CARTESIAN_POINT('',(-3.E0,-3.E0,-1.04E2));
#1417=DIRECTION('',(0.E0,-1.E0,0.E0));
#1418=DIRECTION('',(0.E0,0.E0,1.E0));
#1419=AXIS2_PLACEMENT_3D('',#1416,#1417,#1418);
#1420=PLANE('',#1419);
#1421=ORIENTED_EDGE('',*,*,#811,.F.);
#1422=ORIENTED_EDGE('',*,*,#1385,.T.);
#1423=ORIENTED_EDGE('',*,*,#997,.T.);
#1424=ORIENTED_EDGE('',*,*,#1409,.F.);
#1425=EDGE_LOOP('',(#1421,#1422,#1423,#1424));
#1426=FACE_OUTER_BOUND('',#1425,.F.);
#1427=ADVANCED_FACE('',(#1426),#1420,.F.);
#1428=CARTESIAN_POINT('',(-3.E0,0.E0,-1.34E2));
#1429=DIRECTION('',(-1.E0,0.E0,0.E0));
#1430=DIRECTION('',(0.E0,0.E0,1.E0));
#1431=AXIS2_PLACEMENT_3D('',#1428,#1429,#1430);
#1432=CYLINDRICAL_SURFACE('',#1431,3.E0);
#1433=ORIENTED_EDGE('',*,*,#819,.F.);
#1435=ORIENTED_EDGE('',*,*,#1434,.T.);
#1436=ORIENTED_EDGE('',*,*,#1001,.T.);
#1438=ORIENTED_EDGE('',*,*,#1437,.F.);
#1439=EDGE_LOOP('',(#1433,#1435,#1436,#1438));
#1440=FACE_OUTER_BOUND('',#1439,.F.);
#1441=ADVANCED_FACE('',(#1440),#1432,.F.);
#1442=CARTESIAN_POINT('',(-3.E0,3.E0,-1.2E2));
#1443=DIRECTION('',(0.E0,1.E0,0.E0));
#1444=DIRECTION('',(0.E0,0.E0,-1.E0));
#1445=AXIS2_PLACEMENT_3D('',#1442,#1443,#1444);
#1446=PLANE('',#1445);
#1447=ORIENTED_EDGE('',*,*,#825,.F.);
#1449=ORIENTED_EDGE('',*,*,#1448,.T.);
#1450=ORIENTED_EDGE('',*,*,#1003,.T.);
#1451=ORIENTED_EDGE('',*,*,#1434,.F.);
#1452=EDGE_LOOP('',(#1447,#1449,#1450,#1451));
#1453=FACE_OUTER_BOUND('',#1452,.F.);
#1454=ADVANCED_FACE('',(#1453),#1446,.F.);
#1455=CARTESIAN_POINT('',(-3.E0,0.E0,-1.2E2));
#1456=DIRECTION('',(-1.E0,0.E0,0.E0));
#1457=DIRECTION('',(0.E0,0.E0,1.E0));
#1458=AXIS2_PLACEMENT_3D('',#1455,#1456,#1457);
#1459=CYLINDRICAL_SURFACE('',#1458,3.E0);
#1460=ORIENTED_EDGE('',*,*,#823,.F.);
#1462=ORIENTED_EDGE('',*,*,#1461,.T.);
#1463=ORIENTED_EDGE('',*,*,#1005,.T.);
#1464=ORIENTED_EDGE('',*,*,#1448,.F.);
#1465=EDGE_LOOP('',(#1460,#1462,#1463,#1464));
#1466=FACE_OUTER_BOUND('',#1465,.F.);
#1467=ADVANCED_FACE('',(#1466),#1459,.F.);
#1468=CARTESIAN_POINT('',(-3.E0,-3.E0,-1.34E2));
#1469=DIRECTION('',(0.E0,-1.E0,0.E0));
#1470=DIRECTION('',(0.E0,0.E0,1.E0));
#1471=AXIS2_PLACEMENT_3D('',#1468,#1469,#1470);
#1472=PLANE('',#1471);
#1473=ORIENTED_EDGE('',*,*,#821,.F.);
#1474=ORIENTED_EDGE('',*,*,#1437,.T.);
#1475=ORIENTED_EDGE('',*,*,#1007,.T.);
#1476=ORIENTED_EDGE('',*,*,#1461,.F.);
#1477=EDGE_LOOP('',(#1473,#1474,#1475,#1476));
#1478=FACE_OUTER_BOUND('',#1477,.F.);
#1479=ADVANCED_FACE('',(#1478),#1472,.F.);
#1483=DIMENSIONAL_EXPONENTS(0.E0,0.E0,0.E0,0.E0,0.E0,0.E0,0.E0);
#1485=PLANE_ANGLE_MEASURE_WITH_UNIT(PLANE_ANGLE_MEASURE(1.745329251994E-2),
#1484);
#1486=(CONVERSION_BASED_UNIT('DEGREE',#1485)NAMED_UNIT(*)PLANE_ANGLE_UNIT());
#1488=UNCERTAINTY_MEASURE_WITH_UNIT(LENGTH_MEASURE(1.921422590997E-2),#1482,
'closure',
'Maximum model space distance between geometric entities at asserted connectivities');
#1489=(GEOMETRIC_REPRESENTATION_CONTEXT(3)GLOBAL_UNCERTAINTY_ASSIGNED_CONTEXT((
#1488))GLOBAL_UNIT_ASSIGNED_CONTEXT((#1482,#1486,#1487))REPRESENTATION_CONTEXT(
'ID1','3'));
#1491=APPLICATION_CONTEXT(
'CONFIGURATION CONTROLLED 3D DESIGNS OF MECHANICAL PARTS AND ASSEMBLIES');
#1492=APPLICATION_PROTOCOL_DEFINITION('international standard',
'config_control_design',1994,#1491);
#1493=DESIGN_CONTEXT('',#1491,'design');
#1494=MECHANICAL_CONTEXT('',#1491,'mechanical');
#1495=PRODUCT('LIANGAN2','LIANGAN2','NOT SPECIFIED',(#1494));
#1496=PRODUCT_DEFINITION_FORMATION_WITH_SPECIFIED_SOURCE('7','LAST_VERSION',
#1495,.MADE.);
#1500=PRODUCT_CATEGORY('part','');
#1501=PRODUCT_RELATED_PRODUCT_CATEGORY('detail','',(#1495));
#1502=PRODUCT_CATEGORY_RELATIONSHIP('','',#1500,#1501);
#1503=SECURITY_CLASSIFICATION_LEVEL('unclassified');
#1504=SECURITY_CLASSIFICATION('','',#1503);
#1505=CC_DESIGN_SECURITY_CLASSIFICATION(#1504,(#1496));
#1506=APPROVAL_STATUS('approved');
#1507=APPROVAL(#1506,'');
#1508=CC_DESIGN_APPROVAL(#1507,(#1504,#1496,#1497));
#1509=CALENDAR_DATE(124,8,4);
#1510=COORDINATED_UNIVERSAL_TIME_OFFSET(8,0,.AHEAD.);
#1511=LOCAL_TIME(9,44,3.5E1,#1510);
#1512=DATE_AND_TIME(#1509,#1511);
#1513=APPROVAL_DATE_TIME(#1512,#1507);
#1514=DATE_TIME_ROLE('creation_date');
#1515=CC_DESIGN_DATE_AND_TIME_ASSIGNMENT(#1512,#1514,(#1497));
#1516=DATE_TIME_ROLE('classification_date');
#1517=CC_DESIGN_DATE_AND_TIME_ASSIGNMENT(#1512,#1516,(#1504));
#1518=PERSON('UNSPECIFIED','UNSPECIFIED',$,$,$,$);
#1519=ORGANIZATION('UNSPECIFIED','UNSPECIFIED','UNSPECIFIED');
#1520=PERSON_AND_ORGANIZATION(#1518,#1519);
#1521=APPROVAL_ROLE('approver');
#1522=APPROVAL_PERSON_ORGANIZATION(#1520,#1507,#1521);
#1523=PERSON_AND_ORGANIZATION_ROLE('creator');
#1524=CC_DESIGN_PERSON_AND_ORGANIZATION_ASSIGNMENT(#1520,#1523,(#1496,#1497));
#1525=PERSON_AND_ORGANIZATION_ROLE('design_supplier');
#1526=CC_DESIGN_PERSON_AND_ORGANIZATION_ASSIGNMENT(#1520,#1525,(#1496));
#1527=PERSON_AND_ORGANIZATION_ROLE('classification_officer');
#1528=CC_DESIGN_PERSON_AND_ORGANIZATION_ASSIGNMENT(#1520,#1527,(#1504));
#1529=PERSON_AND_ORGANIZATION_ROLE('design_owner');
#1530=CC_DESIGN_PERSON_AND_ORGANIZATION_ASSIGNMENT(#1520,#1529,(#1495));
#6=CIRCLE('',#5,1.7E1);
#15=CIRCLE('',#14,1.2E1);
#24=CIRCLE('',#23,6.5E0);
#29=CIRCLE('',#28,6.5E0);
#34=CIRCLE('',#33,1.E0);
#39=CIRCLE('',#38,1.E0);
#48=CIRCLE('',#47,2.5E0);
#57=CIRCLE('',#56,1.E0);
#62=CIRCLE('',#61,1.E0);
#71=CIRCLE('',#70,2.5E0);
#80=CIRCLE('',#79,1.E0);
#85=CIRCLE('',#84,1.E0);
#94=CIRCLE('',#93,2.5E0);
#103=CIRCLE('',#102,3.E0);
#112=CIRCLE('',#111,3.E0);
#121=CIRCLE('',#120,3.E0);
#130=CIRCLE('',#129,3.E0);
#139=CIRCLE('',#138,3.E0);
#148=CIRCLE('',#147,3.E0);
#157=CIRCLE('',#156,3.E0);
#166=CIRCLE('',#165,3.E0);
#183=CIRCLE('',#182,1.2E1);
#188=CIRCLE('',#187,1.2E1);
#209=CIRCLE('',#208,1.2E1);
#214=CIRCLE('',#213,1.2E1);
#223=CIRCLE('',#222,1.7E1);
#232=CIRCLE('',#231,1.2E1);
#237=CIRCLE('',#236,6.5E0);
#242=CIRCLE('',#241,6.5E0);
#247=CIRCLE('',#246,1.E0);
#256=CIRCLE('',#255,2.5E0);
#265=CIRCLE('',#264,1.E0);
#270=CIRCLE('',#269,1.E0);
#279=CIRCLE('',#278,2.5E0);
#288=CIRCLE('',#287,1.E0);
#293=CIRCLE('',#292,1.E0);
#302=CIRCLE('',#301,2.5E0);
#311=CIRCLE('',#310,1.E0);
#316=CIRCLE('',#315,3.E0);
#325=CIRCLE('',#324,3.E0);
#334=CIRCLE('',#333,3.E0);
#343=CIRCLE('',#342,3.E0);
#352=CIRCLE('',#351,3.E0);
#361=CIRCLE('',#360,3.E0);
#370=CIRCLE('',#369,3.E0);
#379=CIRCLE('',#378,3.E0);
#416=CIRCLE('',#415,6.5E0);
#425=CIRCLE('',#424,6.5E0);
#434=CIRCLE('',#433,6.5E0);
#443=CIRCLE('',#442,6.5E0);
#452=CIRCLE('',#451,6.5E0);
#461=CIRCLE('',#460,6.5E0);
#731=EDGE_CURVE('',#576,#588,#6,.T.);
#733=EDGE_CURVE('',#584,#588,#209,.T.);
#735=EDGE_CURVE('',#584,#564,#10,.T.);
#737=EDGE_CURVE('',#564,#565,#15,.T.);
#739=EDGE_CURVE('',#565,#580,#19,.T.);
#741=EDGE_CURVE('',#576,#580,#183,.T.);
#745=EDGE_CURVE('',#560,#561,#24,.T.);
#747=EDGE_CURVE('',#561,#560,#29,.T.);
#751=EDGE_CURVE('',#648,#649,#34,.T.);
#753=EDGE_CURVE('',#645,#648,#443,.T.);
#755=EDGE_CURVE('',#643,#645,#39,.T.);
#757=EDGE_CURVE('',#601,#643,#43,.T.);
#759=EDGE_CURVE('',#600,#601,#48,.T.);
#761=EDGE_CURVE('',#633,#600,#52,.T.);
#763=EDGE_CURVE('',#632,#633,#57,.T.);
#765=EDGE_CURVE('',#621,#632,#425,.T.);
#767=EDGE_CURVE('',#619,#621,#62,.T.);
#769=EDGE_CURVE('',#593,#619,#66,.T.);
#771=EDGE_CURVE('',#592,#593,#71,.T.);
#773=EDGE_CURVE('',#625,#592,#75,.T.);
#775=EDGE_CURVE('',#624,#625,#80,.T.);
#777=EDGE_CURVE('',#661,#624,#452,.T.);
#779=EDGE_CURVE('',#659,#661,#85,.T.);
#781=EDGE_CURVE('',#609,#659,#89,.T.);
#783=EDGE_CURVE('',#608,#609,#94,.T.);
#785=EDGE_CURVE('',#649,#608,#98,.T.);
#789=EDGE_CURVE('',#664,#665,#103,.T.);
#791=EDGE_CURVE('',#665,#667,#107,.T.);
#793=EDGE_CURVE('',#667,#669,#112,.T.);
#795=EDGE_CURVE('',#669,#664,#116,.T.);
#799=EDGE_CURVE('',#680,#681,#121,.T.);
#801=EDGE_CURVE('',#681,#683,#125,.T.);
#803=EDGE_CURVE('',#683,#685,#130,.T.);
#805=EDGE_CURVE('',#685,#680,#134,.T.);
#809=EDGE_CURVE('',#696,#697,#139,.T.);
#811=EDGE_CURVE('',#697,#699,#143,.T.);
#813=EDGE_CURVE('',#699,#701,#148,.T.);
#815=EDGE_CURVE('',#701,#696,#152,.T.);
#819=EDGE_CURVE('',#712,#713,#157,.T.);
#821=EDGE_CURVE('',#713,#715,#161,.T.);
#823=EDGE_CURVE('',#715,#717,#166,.T.);
#825=EDGE_CURVE('',#717,#712,#170,.T.);
#835=EDGE_CURVE('',#576,#577,#174,.T.);
#837=EDGE_CURVE('',#577,#589,#223,.T.);
#839=EDGE_CURVE('',#588,#589,#178,.T.);
#852=EDGE_CURVE('',#580,#581,#192,.T.);
#854=EDGE_CURVE('',#581,#577,#188,.T.);
#866=EDGE_CURVE('',#565,#573,#196,.T.);
#868=EDGE_CURVE('',#573,#581,#227,.T.);
#879=EDGE_CURVE('',#564,#572,#200,.T.);
#881=EDGE_CURVE('',#572,#573,#232,.T.);
#892=EDGE_CURVE('',#584,#585,#204,.T.);
#894=EDGE_CURVE('',#585,#572,#218,.T.);
#909=EDGE_CURVE('',#589,#585,#214,.T.);
#927=EDGE_CURVE('',#568,#569,#237,.T.);
#929=EDGE_CURVE('',#569,#568,#242,.T.);
#933=EDGE_CURVE('',#651,#653,#247,.T.);
#935=EDGE_CURVE('',#651,#612,#251,.T.);
#937=EDGE_CURVE('',#612,#613,#256,.T.);
#939=EDGE_CURVE('',#613,#657,#260,.T.);
#941=EDGE_CURVE('',#656,#657,#265,.T.);
#943=EDGE_CURVE('',#629,#656,#461,.T.);
#945=EDGE_CURVE('',#627,#629,#270,.T.);
#947=EDGE_CURVE('',#627,#596,#274,.T.);
#949=EDGE_CURVE('',#596,#597,#279,.T.);
#951=EDGE_CURVE('',#597,#617,#283,.T.);
#953=EDGE_CURVE('',#616,#617,#288,.T.);
#955=EDGE_CURVE('',#637,#616,#416,.T.);
#957=EDGE_CURVE('',#635,#637,#293,.T.);
#959=EDGE_CURVE('',#635,#604,#297,.T.);
#961=EDGE_CURVE('',#604,#605,#302,.T.);
#963=EDGE_CURVE('',#605,#641,#306,.T.);
#965=EDGE_CURVE('',#640,#641,#311,.T.);
#967=EDGE_CURVE('',#653,#640,#434,.T.);
#971=EDGE_CURVE('',#672,#673,#316,.T.);
#973=EDGE_CURVE('',#677,#672,#320,.T.);
#975=EDGE_CURVE('',#675,#677,#325,.T.);
#977=EDGE_CURVE('',#673,#675,#329,.T.);
#981=EDGE_CURVE('',#688,#689,#334,.T.);
#983=EDGE_CURVE('',#693,#688,#338,.T.);
#985=EDGE_CURVE('',#691,#693,#343,.T.);
#987=EDGE_CURVE('',#689,#691,#347,.T.);
#991=EDGE_CURVE('',#704,#705,#352,.T.);
#993=EDGE_CURVE('',#709,#704,#356,.T.);
#995=EDGE_CURVE('',#707,#709,#361,.T.);
#997=EDGE_CURVE('',#705,#707,#365,.T.);
#1001=EDGE_CURVE('',#720,#721,#370,.T.);
#1003=EDGE_CURVE('',#725,#720,#374,.T.);
#1005=EDGE_CURVE('',#723,#725,#379,.T.);
#1007=EDGE_CURVE('',#721,#723,#383,.T.);
#1018=EDGE_CURVE('',#560,#568,#387,.T.);
#1021=EDGE_CURVE('',#561,#569,#391,.T.);
#1044=EDGE_CURVE('',#651,#649,#395,.T.);
#1047=EDGE_CURVE('',#653,#648,#429,.T.);
#1059=EDGE_CURVE('',#612,#608,#399,.T.);
#1071=EDGE_CURVE('',#613,#609,#407,.T.);
#1083=EDGE_CURVE('',#659,#657,#403,.T.);
#1099=EDGE_CURVE('',#661,#656,#447,.T.);
#1109=EDGE_CURVE('',#637,#632,#411,.T.);
#1112=EDGE_CURVE('',#621,#616,#420,.T.);
#1125=EDGE_CURVE('',#645,#640,#438,.T.);
#1138=EDGE_CURVE('',#629,#624,#456,.T.);
#1150=EDGE_CURVE('',#635,#633,#465,.T.);
#1164=EDGE_CURVE('',#604,#600,#469,.T.);
#1176=EDGE_CURVE('',#605,#601,#477,.T.);
#1188=EDGE_CURVE('',#643,#641,#473,.T.);
#1214=EDGE_CURVE('',#619,#617,#481,.T.);
#1228=EDGE_CURVE('',#597,#593,#485,.T.);
#1242=EDGE_CURVE('',#596,#592,#489,.T.);
#1252=EDGE_CURVE('',#627,#625,#493,.T.);
#1278=EDGE_CURVE('',#664,#672,#497,.T.);
#1281=EDGE_CURVE('',#665,#673,#509,.T.);
#1292=EDGE_CURVE('',#669,#677,#501,.T.);
#1305=EDGE_CURVE('',#667,#675,#505,.T.);
#1330=EDGE_CURVE('',#680,#688,#513,.T.);
#1333=EDGE_CURVE('',#681,#689,#525,.T.);
#1344=EDGE_CURVE('',#685,#693,#517,.T.);
#1357=EDGE_CURVE('',#683,#691,#521,.T.);
#1382=EDGE_CURVE('',#696,#704,#529,.T.);
#1385=EDGE_CURVE('',#697,#705,#541,.T.);
#1396=EDGE_CURVE('',#701,#709,#533,.T.);
#1409=EDGE_CURVE('',#699,#707,#537,.T.);
#1434=EDGE_CURVE('',#712,#720,#545,.T.);
#1437=EDGE_CURVE('',#713,#721,#557,.T.);
#1448=EDGE_CURVE('',#717,#725,#549,.T.);
#1461=EDGE_CURVE('',#715,#723,#553,.T.);
#1480=CLOSED_SHELL('',(#829,#844,#858,#872,#886,#900,#913,#1011,#1025,#1037,
#1051,#1064,#1077,#1090,#1103,#1117,#1130,#1143,#1156,#1169,#1182,#1195,#1207,
#1220,#1233,#1246,#1259,#1271,#1285,#1298,#1311,#1323,#1337,#1350,#1363,#1375,
#1389,#1402,#1415,#1427,#1441,#1454,#1467,#1479));
#1481=MANIFOLD_SOLID_BREP('',#1480);
#1482=(LENGTH_UNIT()NAMED_UNIT(*)SI_UNIT(.MILLI.,.METRE.));
#1484=(NAMED_UNIT(*)PLANE_ANGLE_UNIT()SI_UNIT($,.RADIAN.));
#1487=(NAMED_UNIT(*)SI_UNIT($,.STERADIAN.)SOLID_ANGLE_UNIT());
#1490=ADVANCED_BREP_SHAPE_REPRESENTATION('',(#1481),#1489);
#1497=PRODUCT_DEFINITION('design','',#1496,#1493);
#1498=PRODUCT_DEFINITION_SHAPE('','SHAPE FOR LIANGAN2.',#1497);
#1499=SHAPE_DEFINITION_REPRESENTATION(#1498,#1490);
ENDSEC;
END-ISO-10303-21;
