ISO-10303-21;
HEADER;
FILE_DESCRIPTION((''),'2;1');
FILE_NAME('LIANGAN4','2024-04-08T09:49:12',('005'),(''),
'CREO PARAMETRIC BY PTC INC, 2020053','CREO PARAMETRIC BY PTC INC, 2020053','');
FILE_SCHEMA(('CONFIG_CONTROL_DESIGN'));
ENDSEC;
DATA;
#2=CARTESIAN_POINT('',(0.E0,-3.E0,0.E0));
#3=DIRECTION('',(0.E0,-1.E0,0.E0));
#4=DIRECTION('',(-1.E0,0.E0,0.E0));
#5=AXIS2_PLACEMENT_3D('',#2,#3,#4);
#7=CARTESIAN_POINT('',(0.E0,-3.E0,0.E0));
#8=DIRECTION('',(0.E0,-1.E0,0.E0));
#9=DIRECTION('',(1.E0,0.E0,0.E0));
#10=AXIS2_PLACEMENT_3D('',#7,#8,#9);
#12=CARTESIAN_POINT('',(0.E0,-3.E0,0.E0));
#13=DIRECTION('',(0.E0,1.E0,0.E0));
#14=DIRECTION('',(9.978541318653E-1,0.E0,6.547619047619E-2));
#15=AXIS2_PLACEMENT_3D('',#12,#13,#14);
#17=DIRECTION('',(6.547619047619E-2,0.E0,9.978541318653E-1));
#18=VECTOR('',#17,8.381974707669E1);
#19=CARTESIAN_POINT('',(-1.746244730764E1,-3.E0,1.145833333333E0));
#20=LINE('',#19,#18);
#21=CARTESIAN_POINT('',(0.E0,-3.E0,8.4E1));
#22=DIRECTION('',(0.E0,1.E0,0.E0));
#23=DIRECTION('',(-9.978541318653E-1,0.E0,6.547619047619E-2));
#24=AXIS2_PLACEMENT_3D('',#21,#22,#23);
#26=DIRECTION('',(6.547619047619E-2,0.E0,-9.978541318653E-1));
#27=VECTOR('',#26,8.381974707669E1);
#28=CARTESIAN_POINT('',(1.197424958238E1,-3.E0,8.478571428571E1));
#29=LINE('',#28,#27);
#30=CARTESIAN_POINT('',(0.E0,-3.E0,8.4E1));
#31=DIRECTION('',(0.E0,1.E0,0.E0));
#32=DIRECTION('',(-1.E0,0.E0,0.E0));
#33=AXIS2_PLACEMENT_3D('',#30,#31,#32);
#35=CARTESIAN_POINT('',(0.E0,-3.E0,8.4E1));
#36=DIRECTION('',(0.E0,1.E0,0.E0));
#37=DIRECTION('',(1.E0,0.E0,0.E0));
#38=AXIS2_PLACEMENT_3D('',#35,#36,#37);
#40=CARTESIAN_POINT('',(0.E0,-3.E0,1.35E1));
#41=DIRECTION('',(0.E0,-1.E0,0.E0));
#42=DIRECTION('',(1.E0,0.E0,0.E0));
#43=AXIS2_PLACEMENT_3D('',#40,#41,#42);
#45=CARTESIAN_POINT('',(0.E0,-3.E0,1.35E1));
#46=DIRECTION('',(0.E0,-1.E0,0.E0));
#47=DIRECTION('',(-1.E0,0.E0,0.E0));
#48=AXIS2_PLACEMENT_3D('',#45,#46,#47);
#50=CARTESIAN_POINT('',(1.169134295109E1,-3.E0,6.75E0));
#51=DIRECTION('',(0.E0,-1.E0,0.E0));
#52=DIRECTION('',(5.E-1,0.E0,-8.660254037844E-1));
#53=AXIS2_PLACEMENT_3D('',#50,#51,#52);
#55=CARTESIAN_POINT('',(1.169134295109E1,-3.E0,6.75E0));
#56=DIRECTION('',(0.E0,-1.E0,0.E0));
#57=DIRECTION('',(-5.E-1,0.E0,8.660254037844E-1));
#58=AXIS2_PLACEMENT_3D('',#55,#56,#57);
#60=CARTESIAN_POINT('',(1.169134295109E1,-3.E0,-6.75E0));
#61=DIRECTION('',(0.E0,-1.E0,0.E0));
#62=DIRECTION('',(-5.E-1,0.E0,-8.660254037844E-1));
#63=AXIS2_PLACEMENT_3D('',#60,#61,#62);
#65=CARTESIAN_POINT('',(1.169134295109E1,-3.E0,-6.75E0));
#66=DIRECTION('',(0.E0,-1.E0,0.E0));
#67=DIRECTION('',(5.E-1,0.E0,8.660254037844E-1));
#68=AXIS2_PLACEMENT_3D('',#65,#66,#67);
#70=CARTESIAN_POINT('',(0.E0,-3.E0,-1.35E1));
#71=DIRECTION('',(0.E0,-1.E0,0.E0));
#72=DIRECTION('',(-1.E0,0.E0,0.E0));
#73=AXIS2_PLACEMENT_3D('',#70,#71,#72);
#75=CARTESIAN_POINT('',(0.E0,-3.E0,-1.35E1));
#76=DIRECTION('',(0.E0,-1.E0,0.E0));
#77=DIRECTION('',(1.E0,0.E0,0.E0));
#78=AXIS2_PLACEMENT_3D('',#75,#76,#77);
#80=CARTESIAN_POINT('',(-1.169134295109E1,-3.E0,-6.75E0));
#81=DIRECTION('',(0.E0,-1.E0,0.E0));
#82=DIRECTION('',(-5.E-1,0.E0,8.660254037844E-1));
#83=AXIS2_PLACEMENT_3D('',#80,#81,#82);
#85=CARTESIAN_POINT('',(-1.169134295109E1,-3.E0,-6.75E0));
#86=DIRECTION('',(0.E0,-1.E0,0.E0));
#87=DIRECTION('',(5.E-1,0.E0,-8.660254037844E-1));
#88=AXIS2_PLACEMENT_3D('',#85,#86,#87);
#90=CARTESIAN_POINT('',(-1.169134295109E1,-3.E0,6.75E0));
#91=DIRECTION('',(0.E0,-1.E0,0.E0));
#92=DIRECTION('',(5.E-1,0.E0,8.660254037844E-1));
#93=AXIS2_PLACEMENT_3D('',#90,#91,#92);
#95=CARTESIAN_POINT('',(-1.169134295109E1,-3.E0,6.75E0));
#96=DIRECTION('',(0.E0,-1.E0,0.E0));
#97=DIRECTION('',(-5.E-1,0.E0,-8.660254037844E-1));
#98=AXIS2_PLACEMENT_3D('',#95,#96,#97);
#100=CARTESIAN_POINT('',(0.E0,-3.E0,6.7E1));
#101=DIRECTION('',(0.E0,1.E0,0.E0));
#102=DIRECTION('',(-1.E0,0.E0,0.E0));
#103=AXIS2_PLACEMENT_3D('',#100,#101,#102);
#105=DIRECTION('',(0.E0,0.E0,1.E0));
#106=VECTOR('',#105,1.4E1);
#107=CARTESIAN_POINT('',(-3.E0,-3.E0,5.3E1));
#108=LINE('',#107,#106);
#109=CARTESIAN_POINT('',(0.E0,-3.E0,5.3E1));
#110=DIRECTION('',(0.E0,1.E0,0.E0));
#111=DIRECTION('',(1.E0,0.E0,0.E0));
#112=AXIS2_PLACEMENT_3D('',#109,#110,#111);
#114=DIRECTION('',(0.E0,0.E0,-1.E0));
#115=VECTOR('',#114,1.4E1);
#116=CARTESIAN_POINT('',(3.E0,-3.E0,6.7E1));
#117=LINE('',#116,#115);
#118=CARTESIAN_POINT('',(0.E0,-3.E0,3.7E1));
#119=DIRECTION('',(0.E0,1.E0,0.E0));
#120=DIRECTION('',(-1.E0,0.E0,0.E0));
#121=AXIS2_PLACEMENT_3D('',#118,#119,#120);
#123=DIRECTION('',(0.E0,0.E0,1.E0));
#124=VECTOR('',#123,1.4E1);
#125=CARTESIAN_POINT('',(-3.E0,-3.E0,2.3E1));
#126=LINE('',#125,#124);
#127=CARTESIAN_POINT('',(0.E0,-3.E0,2.3E1));
#128=DIRECTION('',(0.E0,1.E0,0.E0));
#129=DIRECTION('',(1.E0,0.E0,0.E0));
#130=AXIS2_PLACEMENT_3D('',#127,#128,#129);
#132=DIRECTION('',(0.E0,0.E0,-1.E0));
#133=VECTOR('',#132,1.4E1);
#134=CARTESIAN_POINT('',(3.E0,-3.E0,3.7E1));
#135=LINE('',#134,#133);
#136=DIRECTION('',(0.E0,1.E0,0.E0));
#137=VECTOR('',#136,6.E0);
#138=CARTESIAN_POINT('',(-8.E0,-3.E0,0.E0));
#139=LINE('',#138,#137);
#140=DIRECTION('',(0.E0,1.E0,0.E0));
#141=VECTOR('',#140,6.E0);
#142=CARTESIAN_POINT('',(8.E0,-3.E0,0.E0));
#143=LINE('',#142,#141);
#144=CARTESIAN_POINT('',(0.E0,3.E0,0.E0));
#145=DIRECTION('',(0.E0,-1.E0,0.E0));
#146=DIRECTION('',(-1.E0,0.E0,0.E0));
#147=AXIS2_PLACEMENT_3D('',#144,#145,#146);
#149=CARTESIAN_POINT('',(0.E0,3.E0,0.E0));
#150=DIRECTION('',(0.E0,-1.E0,0.E0));
#151=DIRECTION('',(1.E0,0.E0,0.E0));
#152=AXIS2_PLACEMENT_3D('',#149,#150,#151);
#154=CARTESIAN_POINT('',(0.E0,3.E0,8.4E1));
#155=DIRECTION('',(0.E0,1.E0,0.E0));
#156=DIRECTION('',(-1.E0,0.E0,0.E0));
#157=AXIS2_PLACEMENT_3D('',#154,#155,#156);
#159=CARTESIAN_POINT('',(0.E0,3.E0,8.4E1));
#160=DIRECTION('',(0.E0,1.E0,0.E0));
#161=DIRECTION('',(1.E0,0.E0,0.E0));
#162=AXIS2_PLACEMENT_3D('',#159,#160,#161);
#164=CARTESIAN_POINT('',(0.E0,3.E0,1.35E1));
#165=DIRECTION('',(0.E0,1.E0,0.E0));
#166=DIRECTION('',(-1.E0,0.E0,0.E0));
#167=AXIS2_PLACEMENT_3D('',#164,#165,#166);
#169=CARTESIAN_POINT('',(0.E0,3.E0,1.35E1));
#170=DIRECTION('',(0.E0,1.E0,0.E0));
#171=DIRECTION('',(1.E0,0.E0,0.E0));
#172=AXIS2_PLACEMENT_3D('',#169,#170,#171);
#174=CARTESIAN_POINT('',(1.169134295109E1,3.E0,6.75E0));
#175=DIRECTION('',(0.E0,1.E0,0.E0));
#176=DIRECTION('',(-5.E-1,0.E0,8.660254037844E-1));
#177=AXIS2_PLACEMENT_3D('',#174,#175,#176);
#179=CARTESIAN_POINT('',(1.169134295109E1,3.E0,6.75E0));
#180=DIRECTION('',(0.E0,1.E0,0.E0));
#181=DIRECTION('',(5.E-1,0.E0,-8.660254037844E-1));
#182=AXIS2_PLACEMENT_3D('',#179,#180,#181);
#184=CARTESIAN_POINT('',(1.169134295109E1,3.E0,-6.75E0));
#185=DIRECTION('',(0.E0,1.E0,0.E0));
#186=DIRECTION('',(5.E-1,0.E0,8.660254037844E-1));
#187=AXIS2_PLACEMENT_3D('',#184,#185,#186);
#189=CARTESIAN_POINT('',(1.169134295109E1,3.E0,-6.75E0));
#190=DIRECTION('',(0.E0,1.E0,0.E0));
#191=DIRECTION('',(-5.E-1,0.E0,-8.660254037844E-1));
#192=AXIS2_PLACEMENT_3D('',#189,#190,#191);
#194=CARTESIAN_POINT('',(0.E0,3.E0,-1.35E1));
#195=DIRECTION('',(0.E0,1.E0,0.E0));
#196=DIRECTION('',(1.E0,0.E0,0.E0));
#197=AXIS2_PLACEMENT_3D('',#194,#195,#196);
#199=CARTESIAN_POINT('',(0.E0,3.E0,-1.35E1));
#200=DIRECTION('',(0.E0,1.E0,0.E0));
#201=DIRECTION('',(-1.E0,0.E0,0.E0));
#202=AXIS2_PLACEMENT_3D('',#199,#200,#201);
#204=CARTESIAN_POINT('',(-1.169134295109E1,3.E0,-6.75E0));
#205=DIRECTION('',(0.E0,1.E0,0.E0));
#206=DIRECTION('',(5.E-1,0.E0,-8.660254037844E-1));
#207=AXIS2_PLACEMENT_3D('',#204,#205,#206);
#209=CARTESIAN_POINT('',(-1.169134295109E1,3.E0,-6.75E0));
#210=DIRECTION('',(0.E0,1.E0,0.E0));
#211=DIRECTION('',(-5.E-1,0.E0,8.660254037844E-1));
#212=AXIS2_PLACEMENT_3D('',#209,#210,#211);
#214=CARTESIAN_POINT('',(-1.169134295109E1,3.E0,6.75E0));
#215=DIRECTION('',(0.E0,1.E0,0.E0));
#216=DIRECTION('',(-5.E-1,0.E0,-8.660254037844E-1));
#217=AXIS2_PLACEMENT_3D('',#214,#215,#216);
#219=CARTESIAN_POINT('',(-1.169134295109E1,3.E0,6.75E0));
#220=DIRECTION('',(0.E0,1.E0,0.E0));
#221=DIRECTION('',(5.E-1,0.E0,8.660254037844E-1));
#222=AXIS2_PLACEMENT_3D('',#219,#220,#221);
#224=CARTESIAN_POINT('',(0.E0,3.E0,8.4E1));
#225=DIRECTION('',(0.E0,1.E0,0.E0));
#226=DIRECTION('',(0.E0,0.E0,-1.E0));
#227=AXIS2_PLACEMENT_3D('',#224,#225,#226);
#229=CARTESIAN_POINT('',(0.E0,3.E0,0.E0));
#230=DIRECTION('',(0.E0,1.E0,0.E0));
#231=DIRECTION('',(-9.978541318653E-1,0.E0,6.547619047619E-2));
#232=AXIS2_PLACEMENT_3D('',#229,#230,#231);
#234=DIRECTION('',(0.E0,-1.E0,0.E0));
#235=VECTOR('',#234,6.E0);
#236=CARTESIAN_POINT('',(-6.5E0,3.E0,8.4E1));
#237=LINE('',#236,#235);
#238=DIRECTION('',(0.E0,-1.E0,0.E0));
#239=VECTOR('',#238,6.E0);
#240=CARTESIAN_POINT('',(6.5E0,3.E0,8.4E1));
#241=LINE('',#240,#239);
#242=DIRECTION('',(0.E0,-1.E0,0.E0));
#243=VECTOR('',#242,3.E0);
#244=CARTESIAN_POINT('',(-2.75E0,3.E0,1.35E1));
#245=LINE('',#244,#243);
#246=DIRECTION('',(0.E0,-1.E0,0.E0));
#247=VECTOR('',#246,3.E0);
#248=CARTESIAN_POINT('',(2.75E0,3.E0,1.35E1));
#249=LINE('',#248,#247);
#250=CARTESIAN_POINT('',(0.E0,0.E0,1.35E1));
#251=DIRECTION('',(0.E0,1.E0,0.E0));
#252=DIRECTION('',(-1.E0,0.E0,0.E0));
#253=AXIS2_PLACEMENT_3D('',#250,#251,#252);
#255=CARTESIAN_POINT('',(0.E0,0.E0,1.35E1));
#256=DIRECTION('',(0.E0,1.E0,0.E0));
#257=DIRECTION('',(1.E0,0.E0,0.E0));
#258=AXIS2_PLACEMENT_3D('',#255,#256,#257);
#260=CARTESIAN_POINT('',(0.E0,0.E0,1.35E1));
#261=DIRECTION('',(0.E0,-1.E0,0.E0));
#262=DIRECTION('',(1.E0,0.E0,0.E0));
#263=AXIS2_PLACEMENT_3D('',#260,#261,#262);
#265=DIRECTION('',(0.E0,1.E0,0.E0));
#266=VECTOR('',#265,3.E0);
#267=CARTESIAN_POINT('',(1.5E0,-3.E0,1.35E1));
#268=LINE('',#267,#266);
#269=CARTESIAN_POINT('',(0.E0,0.E0,1.35E1));
#270=DIRECTION('',(0.E0,-1.E0,0.E0));
#271=DIRECTION('',(-1.E0,0.E0,0.E0));
#272=AXIS2_PLACEMENT_3D('',#269,#270,#271);
#274=DIRECTION('',(0.E0,1.E0,0.E0));
#275=VECTOR('',#274,3.E0);
#276=CARTESIAN_POINT('',(-1.5E0,-3.E0,1.35E1));
#277=LINE('',#276,#275);
#278=DIRECTION('',(0.E0,-1.E0,0.E0));
#279=VECTOR('',#278,3.E0);
#280=CARTESIAN_POINT('',(1.031634295109E1,3.E0,9.131569860407E0));
#281=LINE('',#280,#279);
#282=DIRECTION('',(0.E0,-1.E0,0.E0));
#283=VECTOR('',#282,3.E0);
#284=CARTESIAN_POINT('',(1.306634295109E1,3.E0,4.368430139593E0));
#285=LINE('',#284,#283);
#286=CARTESIAN_POINT('',(1.169134295109E1,0.E0,6.75E0));
#287=DIRECTION('',(0.E0,1.E0,0.E0));
#288=DIRECTION('',(-5.E-1,0.E0,8.660254037844E-1));
#289=AXIS2_PLACEMENT_3D('',#286,#287,#288);
#291=CARTESIAN_POINT('',(1.169134295109E1,0.E0,6.75E0));
#292=DIRECTION('',(0.E0,1.E0,0.E0));
#293=DIRECTION('',(5.E-1,0.E0,-8.660254037844E-1));
#294=AXIS2_PLACEMENT_3D('',#291,#292,#293);
#296=CARTESIAN_POINT('',(1.169134295109E1,0.E0,6.75E0));
#297=DIRECTION('',(0.E0,-1.E0,0.E0));
#298=DIRECTION('',(5.E-1,0.E0,-8.660254037844E-1));
#299=AXIS2_PLACEMENT_3D('',#296,#297,#298);
#301=DIRECTION('',(0.E0,1.E0,0.E0));
#302=VECTOR('',#301,3.E0);
#303=CARTESIAN_POINT('',(1.244134295109E1,-3.E0,5.450961894323E0));
#304=LINE('',#303,#302);
#305=CARTESIAN_POINT('',(1.169134295109E1,0.E0,6.75E0));
#306=DIRECTION('',(0.E0,-1.E0,0.E0));
#307=DIRECTION('',(-5.E-1,0.E0,8.660254037844E-1));
#308=AXIS2_PLACEMENT_3D('',#305,#306,#307);
#310=DIRECTION('',(0.E0,1.E0,0.E0));
#311=VECTOR('',#310,3.E0);
#312=CARTESIAN_POINT('',(1.094134295109E1,-3.E0,8.049038105677E0));
#313=LINE('',#312,#311);
#314=DIRECTION('',(0.E0,-1.E0,0.E0));
#315=VECTOR('',#314,3.E0);
#316=CARTESIAN_POINT('',(1.306634295109E1,3.E0,-4.368430139593E0));
#317=LINE('',#316,#315);
#318=DIRECTION('',(0.E0,-1.E0,0.E0));
#319=VECTOR('',#318,3.E0);
#320=CARTESIAN_POINT('',(1.031634295109E1,3.E0,-9.131569860407E0));
#321=LINE('',#320,#319);
#322=CARTESIAN_POINT('',(1.169134295109E1,0.E0,-6.75E0));
#323=DIRECTION('',(0.E0,1.E0,0.E0));
#324=DIRECTION('',(5.E-1,0.E0,8.660254037844E-1));
#325=AXIS2_PLACEMENT_3D('',#322,#323,#324);
#327=CARTESIAN_POINT('',(1.169134295109E1,0.E0,-6.75E0));
#328=DIRECTION('',(0.E0,1.E0,0.E0));
#329=DIRECTION('',(-5.E-1,0.E0,-8.660254037844E-1));
#330=AXIS2_PLACEMENT_3D('',#327,#328,#329);
#332=CARTESIAN_POINT('',(1.169134295109E1,0.E0,-6.75E0));
#333=DIRECTION('',(0.E0,-1.E0,0.E0));
#334=DIRECTION('',(-5.E-1,0.E0,-8.660254037844E-1));
#335=AXIS2_PLACEMENT_3D('',#332,#333,#334);
#337=DIRECTION('',(0.E0,1.E0,0.E0));
#338=VECTOR('',#337,3.E0);
#339=CARTESIAN_POINT('',(1.094134295109E1,-3.E0,-8.049038105677E0));
#340=LINE('',#339,#338);
#341=CARTESIAN_POINT('',(1.169134295109E1,0.E0,-6.75E0));
#342=DIRECTION('',(0.E0,-1.E0,0.E0));
#343=DIRECTION('',(5.E-1,0.E0,8.660254037844E-1));
#344=AXIS2_PLACEMENT_3D('',#341,#342,#343);
#346=DIRECTION('',(0.E0,1.E0,0.E0));
#347=VECTOR('',#346,3.E0);
#348=CARTESIAN_POINT('',(1.244134295109E1,-3.E0,-5.450961894323E0));
#349=LINE('',#348,#347);
#350=DIRECTION('',(0.E0,-1.E0,0.E0));
#351=VECTOR('',#350,3.E0);
#352=CARTESIAN_POINT('',(2.75E0,3.E0,-1.35E1));
#353=LINE('',#352,#351);
#354=DIRECTION('',(0.E0,-1.E0,0.E0));
#355=VECTOR('',#354,3.E0);
#356=CARTESIAN_POINT('',(-2.75E0,3.E0,-1.35E1));
#357=LINE('',#356,#355);
#358=CARTESIAN_POINT('',(0.E0,0.E0,-1.35E1));
#359=DIRECTION('',(0.E0,1.E0,0.E0));
#360=DIRECTION('',(1.E0,0.E0,0.E0));
#361=AXIS2_PLACEMENT_3D('',#358,#359,#360);
#363=CARTESIAN_POINT('',(0.E0,0.E0,-1.35E1));
#364=DIRECTION('',(0.E0,1.E0,0.E0));
#365=DIRECTION('',(-1.E0,0.E0,0.E0));
#366=AXIS2_PLACEMENT_3D('',#363,#364,#365);
#368=CARTESIAN_POINT('',(0.E0,0.E0,-1.35E1));
#369=DIRECTION('',(0.E0,-1.E0,0.E0));
#370=DIRECTION('',(-1.E0,0.E0,0.E0));
#371=AXIS2_PLACEMENT_3D('',#368,#369,#370);
#373=DIRECTION('',(0.E0,1.E0,0.E0));
#374=VECTOR('',#373,3.E0);
#375=CARTESIAN_POINT('',(-1.5E0,-3.E0,-1.35E1));
#376=LINE('',#375,#374);
#377=CARTESIAN_POINT('',(0.E0,0.E0,-1.35E1));
#378=DIRECTION('',(0.E0,-1.E0,0.E0));
#379=DIRECTION('',(1.E0,0.E0,0.E0));
#380=AXIS2_PLACEMENT_3D('',#377,#378,#379);
#382=DIRECTION('',(0.E0,1.E0,0.E0));
#383=VECTOR('',#382,3.E0);
#384=CARTESIAN_POINT('',(1.5E0,-3.E0,-1.35E1));
#385=LINE('',#384,#383);
#386=DIRECTION('',(0.E0,-1.E0,0.E0));
#387=VECTOR('',#386,3.E0);
#388=CARTESIAN_POINT('',(-1.031634295109E1,3.E0,-9.131569860407E0));
#389=LINE('',#388,#387);
#390=DIRECTION('',(0.E0,-1.E0,0.E0));
#391=VECTOR('',#390,3.E0);
#392=CARTESIAN_POINT('',(-1.306634295109E1,3.E0,-4.368430139593E0));
#393=LINE('',#392,#391);
#394=CARTESIAN_POINT('',(-1.169134295109E1,0.E0,-6.75E0));
#395=DIRECTION('',(0.E0,1.E0,0.E0));
#396=DIRECTION('',(5.E-1,0.E0,-8.660254037844E-1));
#397=AXIS2_PLACEMENT_3D('',#394,#395,#396);
#399=CARTESIAN_POINT('',(-1.169134295109E1,0.E0,-6.75E0));
#400=DIRECTION('',(0.E0,1.E0,0.E0));
#401=DIRECTION('',(-5.E-1,0.E0,8.660254037844E-1));
#402=AXIS2_PLACEMENT_3D('',#399,#400,#401);
#404=CARTESIAN_POINT('',(-1.169134295109E1,0.E0,-6.75E0));
#405=DIRECTION('',(0.E0,-1.E0,0.E0));
#406=DIRECTION('',(-5.E-1,0.E0,8.660254037844E-1));
#407=AXIS2_PLACEMENT_3D('',#404,#405,#406);
#409=DIRECTION('',(0.E0,1.E0,0.E0));
#410=VECTOR('',#409,3.E0);
#411=CARTESIAN_POINT('',(-1.244134295109E1,-3.E0,-5.450961894323E0));
#412=LINE('',#411,#410);
#413=CARTESIAN_POINT('',(-1.169134295109E1,0.E0,-6.75E0));
#414=DIRECTION('',(0.E0,-1.E0,0.E0));
#415=DIRECTION('',(5.E-1,0.E0,-8.660254037844E-1));
#416=AXIS2_PLACEMENT_3D('',#413,#414,#415);
#418=DIRECTION('',(0.E0,1.E0,0.E0));
#419=VECTOR('',#418,3.E0);
#420=CARTESIAN_POINT('',(-1.094134295109E1,-3.E0,-8.049038105677E0));
#421=LINE('',#420,#419);
#422=DIRECTION('',(0.E0,-1.E0,0.E0));
#423=VECTOR('',#422,3.E0);
#424=CARTESIAN_POINT('',(-1.306634295109E1,3.E0,4.368430139593E0));
#425=LINE('',#424,#423);
#426=DIRECTION('',(0.E0,-1.E0,0.E0));
#427=VECTOR('',#426,3.E0);
#428=CARTESIAN_POINT('',(-1.031634295109E1,3.E0,9.131569860407E0));
#429=LINE('',#428,#427);
#430=CARTESIAN_POINT('',(-1.169134295109E1,0.E0,6.75E0));
#431=DIRECTION('',(0.E0,1.E0,0.E0));
#432=DIRECTION('',(-5.E-1,0.E0,-8.660254037844E-1));
#433=AXIS2_PLACEMENT_3D('',#430,#431,#432);
#435=CARTESIAN_POINT('',(-1.169134295109E1,0.E0,6.75E0));
#436=DIRECTION('',(0.E0,1.E0,0.E0));
#437=DIRECTION('',(5.E-1,0.E0,8.660254037844E-1));
#438=AXIS2_PLACEMENT_3D('',#435,#436,#437);
#440=CARTESIAN_POINT('',(-1.169134295109E1,0.E0,6.75E0));
#441=DIRECTION('',(0.E0,-1.E0,0.E0));
#442=DIRECTION('',(5.E-1,0.E0,8.660254037844E-1));
#443=AXIS2_PLACEMENT_3D('',#440,#441,#442);
#445=DIRECTION('',(0.E0,1.E0,0.E0));
#446=VECTOR('',#445,3.E0);
#447=CARTESIAN_POINT('',(-1.094134295109E1,-3.E0,8.049038105677E0));
#448=LINE('',#447,#446);
#449=CARTESIAN_POINT('',(-1.169134295109E1,0.E0,6.75E0));
#450=DIRECTION('',(0.E0,-1.E0,0.E0));
#451=DIRECTION('',(-5.E-1,0.E0,-8.660254037844E-1));
#452=AXIS2_PLACEMENT_3D('',#449,#450,#451);
#454=DIRECTION('',(0.E0,1.E0,0.E0));
#455=VECTOR('',#454,3.E0);
#456=CARTESIAN_POINT('',(-1.244134295109E1,-3.E0,5.450961894323E0));
#457=LINE('',#456,#455);
#458=CARTESIAN_POINT('',(0.E0,3.E0,8.4E1));
#459=DIRECTION('',(0.E0,1.E0,0.E0));
#460=DIRECTION('',(-9.978541318653E-1,0.E0,6.547619047619E-2));
#461=AXIS2_PLACEMENT_3D('',#458,#459,#460);
#463=DIRECTION('',(0.E0,-1.E0,0.E0));
#464=VECTOR('',#463,1.E0);
#465=CARTESIAN_POINT('',(0.E0,3.E0,7.2E1));
#466=LINE('',#465,#464);
#467=DIRECTION('',(0.E0,1.E0,0.E0));
#468=VECTOR('',#467,5.E0);
#469=CARTESIAN_POINT('',(-1.197424958238E1,-3.E0,8.478571428571E1));
#470=LINE('',#469,#468);
#471=DIRECTION('',(0.E0,1.E0,0.E0));
#472=VECTOR('',#471,1.E0);
#473=CARTESIAN_POINT('',(-1.197424958238E1,2.E0,8.478571428571E1));
#474=LINE('',#473,#472);
#475=CARTESIAN_POINT('',(0.E0,2.E0,0.E0));
#476=DIRECTION('',(0.E0,-1.E0,0.E0));
#477=DIRECTION('',(0.E0,0.E0,1.E0));
#478=AXIS2_PLACEMENT_3D('',#475,#476,#477);
#480=CARTESIAN_POINT('',(0.E0,2.E0,0.E0));
#481=DIRECTION('',(0.E0,-1.E0,0.E0));
#482=DIRECTION('',(9.978541318653E-1,0.E0,6.547619047619E-2));
#483=AXIS2_PLACEMENT_3D('',#480,#481,#482);
#485=CARTESIAN_POINT('',(0.E0,2.E0,8.4E1));
#486=DIRECTION('',(0.E0,-1.E0,0.E0));
#487=DIRECTION('',(0.E0,0.E0,-1.E0));
#488=AXIS2_PLACEMENT_3D('',#485,#486,#487);
#490=CARTESIAN_POINT('',(0.E0,2.E0,8.4E1));
#491=DIRECTION('',(0.E0,-1.E0,0.E0));
#492=DIRECTION('',(-9.978541318653E-1,0.E0,6.547619047619E-2));
#493=AXIS2_PLACEMENT_3D('',#490,#491,#492);
#495=CARTESIAN_POINT('',(0.E0,2.E0,6.7E1));
#496=DIRECTION('',(0.E0,1.E0,0.E0));
#497=DIRECTION('',(-1.E0,0.E0,0.E0));
#498=AXIS2_PLACEMENT_3D('',#495,#496,#497);
#500=DIRECTION('',(0.E0,0.E0,-1.E0));
#501=VECTOR('',#500,1.4E1);
#502=CARTESIAN_POINT('',(3.E0,2.E0,6.7E1));
#503=LINE('',#502,#501);
#504=CARTESIAN_POINT('',(0.E0,2.E0,5.3E1));
#505=DIRECTION('',(0.E0,1.E0,0.E0));
#506=DIRECTION('',(1.E0,0.E0,0.E0));
#507=AXIS2_PLACEMENT_3D('',#504,#505,#506);
#509=DIRECTION('',(0.E0,0.E0,1.E0));
#510=VECTOR('',#509,1.4E1);
#511=CARTESIAN_POINT('',(-3.E0,2.E0,5.3E1));
#512=LINE('',#511,#510);
#513=CARTESIAN_POINT('',(0.E0,2.E0,3.7E1));
#514=DIRECTION('',(0.E0,1.E0,0.E0));
#515=DIRECTION('',(-1.E0,0.E0,0.E0));
#516=AXIS2_PLACEMENT_3D('',#513,#514,#515);
#518=DIRECTION('',(0.E0,0.E0,-1.E0));
#519=VECTOR('',#518,1.4E1);
#520=CARTESIAN_POINT('',(3.E0,2.E0,3.7E1));
#521=LINE('',#520,#519);
#522=CARTESIAN_POINT('',(0.E0,2.E0,2.3E1));
#523=DIRECTION('',(0.E0,1.E0,0.E0));
#524=DIRECTION('',(1.E0,0.E0,0.E0));
#525=AXIS2_PLACEMENT_3D('',#522,#523,#524);
#527=DIRECTION('',(0.E0,0.E0,1.E0));
#528=VECTOR('',#527,1.4E1);
#529=CARTESIAN_POINT('',(-3.E0,2.E0,2.3E1));
#530=LINE('',#529,#528);
#531=DIRECTION('',(6.547619047619E-2,0.E0,9.978541318653E-1));
#532=VECTOR('',#531,8.381974707669E1);
#533=CARTESIAN_POINT('',(-1.746244730764E1,2.E0,1.145833333333E0));
#534=LINE('',#533,#532);
#535=DIRECTION('',(0.E0,1.E0,0.E0));
#536=VECTOR('',#535,5.E0);
#537=CARTESIAN_POINT('',(-1.746244730764E1,-3.E0,1.145833333333E0));
#538=LINE('',#537,#536);
#539=DIRECTION('',(0.E0,1.E0,0.E0));
#540=VECTOR('',#539,5.E0);
#541=CARTESIAN_POINT('',(1.746244730764E1,-3.E0,1.145833333333E0));
#542=LINE('',#541,#540);
#543=CARTESIAN_POINT('',(0.E0,3.E0,0.E0));
#544=DIRECTION('',(0.E0,1.E0,0.E0));
#545=DIRECTION('',(0.E0,0.E0,1.E0));
#546=AXIS2_PLACEMENT_3D('',#543,#544,#545);
#548=DIRECTION('',(0.E0,1.E0,0.E0));
#549=VECTOR('',#548,1.E0);
#550=CARTESIAN_POINT('',(-1.746244730764E1,2.E0,1.145833333333E0));
#551=LINE('',#550,#549);
#552=DIRECTION('',(6.547619047619E-2,0.E0,-9.978541318653E-1));
#553=VECTOR('',#552,8.381974707669E1);
#554=CARTESIAN_POINT('',(1.197424958238E1,2.E0,8.478571428571E1));
#555=LINE('',#554,#553);
#556=DIRECTION('',(0.E0,1.E0,0.E0));
#557=VECTOR('',#556,5.E0);
#558=CARTESIAN_POINT('',(1.197424958238E1,-3.E0,8.478571428571E1));
#559=LINE('',#558,#557);
#560=DIRECTION('',(0.E0,-1.E0,0.E0));
#561=VECTOR('',#560,1.E0);
#562=CARTESIAN_POINT('',(0.E0,3.E0,1.75E1));
#563=LINE('',#562,#561);
#564=DIRECTION('',(0.E0,-1.E0,0.E0));
#565=VECTOR('',#564,5.E0);
#566=CARTESIAN_POINT('',(-3.E0,2.E0,6.7E1));
#567=LINE('',#566,#565);
#568=DIRECTION('',(0.E0,-1.E0,0.E0));
#569=VECTOR('',#568,5.E0);
#570=CARTESIAN_POINT('',(3.E0,2.E0,6.7E1));
#571=LINE('',#570,#569);
#572=DIRECTION('',(0.E0,-1.E0,0.E0));
#573=VECTOR('',#572,5.E0);
#574=CARTESIAN_POINT('',(3.E0,2.E0,5.3E1));
#575=LINE('',#574,#573);
#576=DIRECTION('',(0.E0,-1.E0,0.E0));
#577=VECTOR('',#576,5.E0);
#578=CARTESIAN_POINT('',(-3.E0,2.E0,5.3E1));
#579=LINE('',#578,#577);
#580=DIRECTION('',(0.E0,-1.E0,0.E0));
#581=VECTOR('',#580,5.E0);
#582=CARTESIAN_POINT('',(-3.E0,2.E0,3.7E1));
#583=LINE('',#582,#581);
#584=DIRECTION('',(0.E0,-1.E0,0.E0));
#585=VECTOR('',#584,5.E0);
#586=CARTESIAN_POINT('',(3.E0,2.E0,3.7E1));
#587=LINE('',#586,#585);
#588=DIRECTION('',(0.E0,-1.E0,0.E0));
#589=VECTOR('',#588,5.E0);
#590=CARTESIAN_POINT('',(3.E0,2.E0,2.3E1));
#591=LINE('',#590,#589);
#592=DIRECTION('',(0.E0,-1.E0,0.E0));
#593=VECTOR('',#592,5.E0);
#594=CARTESIAN_POINT('',(-3.E0,2.E0,2.3E1));
#595=LINE('',#594,#593);
#596=CARTESIAN_POINT('',(-8.E0,-3.E0,0.E0));
#597=CARTESIAN_POINT('',(8.E0,-3.E0,0.E0));
#598=VERTEX_POINT('',#596);
#599=VERTEX_POINT('',#597);
#600=CARTESIAN_POINT('',(1.746244730764E1,-3.E0,1.145833333333E0));
#601=CARTESIAN_POINT('',(-1.746244730764E1,-3.E0,1.145833333333E0));
#602=VERTEX_POINT('',#600);
#603=VERTEX_POINT('',#601);
#604=CARTESIAN_POINT('',(-8.E0,3.E0,0.E0));
#605=CARTESIAN_POINT('',(8.E0,3.E0,0.E0));
#606=VERTEX_POINT('',#604);
#607=VERTEX_POINT('',#605);
#608=CARTESIAN_POINT('',(-1.197424958238E1,-3.E0,8.478571428571E1));
#609=CARTESIAN_POINT('',(1.197424958238E1,-3.E0,8.478571428571E1));
#610=VERTEX_POINT('',#608);
#611=VERTEX_POINT('',#609);
#612=CARTESIAN_POINT('',(-6.5E0,3.E0,8.4E1));
#613=CARTESIAN_POINT('',(-6.5E0,-3.E0,8.4E1));
#614=VERTEX_POINT('',#612);
#615=VERTEX_POINT('',#613);
#616=CARTESIAN_POINT('',(6.5E0,3.E0,8.4E1));
#617=CARTESIAN_POINT('',(6.5E0,-3.E0,8.4E1));
#618=VERTEX_POINT('',#616);
#619=VERTEX_POINT('',#617);
#620=CARTESIAN_POINT('',(1.5E0,-3.E0,1.35E1));
#621=CARTESIAN_POINT('',(-1.5E0,-3.E0,1.35E1));
#622=VERTEX_POINT('',#620);
#623=VERTEX_POINT('',#621);
#624=CARTESIAN_POINT('',(1.244134295109E1,-3.E0,5.450961894323E0));
#625=CARTESIAN_POINT('',(1.094134295109E1,-3.E0,8.049038105677E0));
#626=VERTEX_POINT('',#624);
#627=VERTEX_POINT('',#625);
#628=CARTESIAN_POINT('',(1.094134295109E1,-3.E0,-8.049038105677E0));
#629=CARTESIAN_POINT('',(1.244134295109E1,-3.E0,-5.450961894323E0));
#630=VERTEX_POINT('',#628);
#631=VERTEX_POINT('',#629);
#632=CARTESIAN_POINT('',(-1.5E0,-3.E0,-1.35E1));
#633=CARTESIAN_POINT('',(1.5E0,-3.E0,-1.35E1));
#634=VERTEX_POINT('',#632);
#635=VERTEX_POINT('',#633);
#636=CARTESIAN_POINT('',(-1.244134295109E1,-3.E0,-5.450961894323E0));
#637=CARTESIAN_POINT('',(-1.094134295109E1,-3.E0,-8.049038105677E0));
#638=VERTEX_POINT('',#636);
#639=VERTEX_POINT('',#637);
#640=CARTESIAN_POINT('',(-1.094134295109E1,-3.E0,8.049038105677E0));
#641=CARTESIAN_POINT('',(-1.244134295109E1,-3.E0,5.450961894323E0));
#642=VERTEX_POINT('',#640);
#643=VERTEX_POINT('',#641);
#644=CARTESIAN_POINT('',(-2.75E0,0.E0,1.35E1));
#645=CARTESIAN_POINT('',(2.75E0,0.E0,1.35E1));
#646=VERTEX_POINT('',#644);
#647=VERTEX_POINT('',#645);
#648=CARTESIAN_POINT('',(-2.75E0,3.E0,1.35E1));
#649=CARTESIAN_POINT('',(2.75E0,3.E0,1.35E1));
#650=VERTEX_POINT('',#648);
#651=VERTEX_POINT('',#649);
#652=CARTESIAN_POINT('',(1.5E0,0.E0,1.35E1));
#653=CARTESIAN_POINT('',(-1.5E0,0.E0,1.35E1));
#654=VERTEX_POINT('',#652);
#655=VERTEX_POINT('',#653);
#656=CARTESIAN_POINT('',(1.031634295109E1,0.E0,9.131569860407E0));
#657=CARTESIAN_POINT('',(1.306634295109E1,0.E0,4.368430139593E0));
#658=VERTEX_POINT('',#656);
#659=VERTEX_POINT('',#657);
#660=CARTESIAN_POINT('',(1.031634295109E1,3.E0,9.131569860407E0));
#661=CARTESIAN_POINT('',(1.306634295109E1,3.E0,4.368430139593E0));
#662=VERTEX_POINT('',#660);
#663=VERTEX_POINT('',#661);
#664=CARTESIAN_POINT('',(1.244134295109E1,0.E0,5.450961894323E0));
#665=CARTESIAN_POINT('',(1.094134295109E1,0.E0,8.049038105677E0));
#666=VERTEX_POINT('',#664);
#667=VERTEX_POINT('',#665);
#668=CARTESIAN_POINT('',(1.306634295109E1,0.E0,-4.368430139593E0));
#669=CARTESIAN_POINT('',(1.031634295109E1,0.E0,-9.131569860407E0));
#670=VERTEX_POINT('',#668);
#671=VERTEX_POINT('',#669);
#672=CARTESIAN_POINT('',(1.306634295109E1,3.E0,-4.368430139593E0));
#673=CARTESIAN_POINT('',(1.031634295109E1,3.E0,-9.131569860407E0));
#674=VERTEX_POINT('',#672);
#675=VERTEX_POINT('',#673);
#676=CARTESIAN_POINT('',(1.094134295109E1,0.E0,-8.049038105677E0));
#677=CARTESIAN_POINT('',(1.244134295109E1,0.E0,-5.450961894323E0));
#678=VERTEX_POINT('',#676);
#679=VERTEX_POINT('',#677);
#680=CARTESIAN_POINT('',(2.75E0,0.E0,-1.35E1));
#681=CARTESIAN_POINT('',(-2.75E0,0.E0,-1.35E1));
#682=VERTEX_POINT('',#680);
#683=VERTEX_POINT('',#681);
#684=CARTESIAN_POINT('',(2.75E0,3.E0,-1.35E1));
#685=CARTESIAN_POINT('',(-2.75E0,3.E0,-1.35E1));
#686=VERTEX_POINT('',#684);
#687=VERTEX_POINT('',#685);
#688=CARTESIAN_POINT('',(-1.5E0,0.E0,-1.35E1));
#689=CARTESIAN_POINT('',(1.5E0,0.E0,-1.35E1));
#690=VERTEX_POINT('',#688);
#691=VERTEX_POINT('',#689);
#692=CARTESIAN_POINT('',(-1.031634295109E1,0.E0,-9.131569860407E0));
#693=CARTESIAN_POINT('',(-1.306634295109E1,0.E0,-4.368430139593E0));
#694=VERTEX_POINT('',#692);
#695=VERTEX_POINT('',#693);
#696=CARTESIAN_POINT('',(-1.031634295109E1,3.E0,-9.131569860407E0));
#697=CARTESIAN_POINT('',(-1.306634295109E1,3.E0,-4.368430139593E0));
#698=VERTEX_POINT('',#696);
#699=VERTEX_POINT('',#697);
#700=CARTESIAN_POINT('',(-1.244134295109E1,0.E0,-5.450961894323E0));
#701=CARTESIAN_POINT('',(-1.094134295109E1,0.E0,-8.049038105677E0));
#702=VERTEX_POINT('',#700);
#703=VERTEX_POINT('',#701);
#704=CARTESIAN_POINT('',(-1.306634295109E1,0.E0,4.368430139593E0));
#705=CARTESIAN_POINT('',(-1.031634295109E1,0.E0,9.131569860407E0));
#706=VERTEX_POINT('',#704);
#707=VERTEX_POINT('',#705);
#708=CARTESIAN_POINT('',(-1.306634295109E1,3.E0,4.368430139593E0));
#709=CARTESIAN_POINT('',(-1.031634295109E1,3.E0,9.131569860407E0));
#710=VERTEX_POINT('',#708);
#711=VERTEX_POINT('',#709);
#712=CARTESIAN_POINT('',(-1.094134295109E1,0.E0,8.049038105677E0));
#713=CARTESIAN_POINT('',(-1.244134295109E1,0.E0,5.450961894323E0));
#714=VERTEX_POINT('',#712);
#715=VERTEX_POINT('',#713);
#716=CARTESIAN_POINT('',(0.E0,3.E0,7.2E1));
#717=CARTESIAN_POINT('',(-1.197424958238E1,3.E0,8.478571428571E1));
#718=VERTEX_POINT('',#716);
#719=VERTEX_POINT('',#717);
#720=CARTESIAN_POINT('',(-1.746244730764E1,3.E0,1.145833333333E0));
#721=CARTESIAN_POINT('',(0.E0,3.E0,1.75E1));
#722=VERTEX_POINT('',#720);
#723=VERTEX_POINT('',#721);
#724=CARTESIAN_POINT('',(-1.746244730764E1,2.E0,1.145833333333E0));
#725=CARTESIAN_POINT('',(-1.197424958238E1,2.E0,8.478571428571E1));
#726=VERTEX_POINT('',#724);
#727=VERTEX_POINT('',#725);
#728=CARTESIAN_POINT('',(1.197424958238E1,2.E0,8.478571428571E1));
#729=CARTESIAN_POINT('',(1.746244730764E1,2.E0,1.145833333333E0));
#730=VERTEX_POINT('',#728);
#731=VERTEX_POINT('',#729);
#732=CARTESIAN_POINT('',(0.E0,2.E0,7.2E1));
#733=VERTEX_POINT('',#732);
#734=CARTESIAN_POINT('',(0.E0,2.E0,1.75E1));
#735=VERTEX_POINT('',#734);
#736=CARTESIAN_POINT('',(-3.E0,-3.E0,6.7E1));
#737=CARTESIAN_POINT('',(3.E0,-3.E0,6.7E1));
#738=VERTEX_POINT('',#736);
#739=VERTEX_POINT('',#737);
#740=CARTESIAN_POINT('',(3.E0,-3.E0,5.3E1));
#741=VERTEX_POINT('',#740);
#742=CARTESIAN_POINT('',(-3.E0,-3.E0,5.3E1));
#743=VERTEX_POINT('',#742);
#744=CARTESIAN_POINT('',(-3.E0,2.E0,6.7E1));
#745=CARTESIAN_POINT('',(3.E0,2.E0,6.7E1));
#746=VERTEX_POINT('',#744);
#747=VERTEX_POINT('',#745);
#748=CARTESIAN_POINT('',(3.E0,2.E0,5.3E1));
#749=VERTEX_POINT('',#748);
#750=CARTESIAN_POINT('',(-3.E0,2.E0,5.3E1));
#751=VERTEX_POINT('',#750);
#752=CARTESIAN_POINT('',(-3.E0,-3.E0,3.7E1));
#753=CARTESIAN_POINT('',(3.E0,-3.E0,3.7E1));
#754=VERTEX_POINT('',#752);
#755=VERTEX_POINT('',#753);
#756=CARTESIAN_POINT('',(3.E0,-3.E0,2.3E1));
#757=VERTEX_POINT('',#756);
#758=CARTESIAN_POINT('',(-3.E0,-3.E0,2.3E1));
#759=VERTEX_POINT('',#758);
#760=CARTESIAN_POINT('',(-3.E0,2.E0,3.7E1));
#761=CARTESIAN_POINT('',(3.E0,2.E0,3.7E1));
#762=VERTEX_POINT('',#760);
#763=VERTEX_POINT('',#761);
#764=CARTESIAN_POINT('',(3.E0,2.E0,2.3E1));
#765=VERTEX_POINT('',#764);
#766=CARTESIAN_POINT('',(-3.E0,2.E0,2.3E1));
#767=VERTEX_POINT('',#766);
#768=CARTESIAN_POINT('',(0.E0,-3.E0,0.E0));
#769=DIRECTION('',(0.E0,1.E0,0.E0));
#770=DIRECTION('',(-1.E0,0.E0,0.E0));
#771=AXIS2_PLACEMENT_3D('',#768,#769,#770);
#772=PLANE('',#771);
#774=ORIENTED_EDGE('',*,*,#773,.T.);
#776=ORIENTED_EDGE('',*,*,#775,.T.);
#778=ORIENTED_EDGE('',*,*,#777,.T.);
#780=ORIENTED_EDGE('',*,*,#779,.T.);
#781=EDGE_LOOP('',(#774,#776,#778,#780));
#782=FACE_OUTER_BOUND('',#781,.F.);
#784=ORIENTED_EDGE('',*,*,#783,.T.);
#786=ORIENTED_EDGE('',*,*,#785,.T.);
#787=EDGE_LOOP('',(#784,#786));
#788=FACE_BOUND('',#787,.F.);
#790=ORIENTED_EDGE('',*,*,#789,.F.);
#792=ORIENTED_EDGE('',*,*,#791,.F.);
#793=EDGE_LOOP('',(#790,#792));
#794=FACE_BOUND('',#793,.F.);
#796=ORIENTED_EDGE('',*,*,#795,.T.);
#798=ORIENTED_EDGE('',*,*,#797,.T.);
#799=EDGE_LOOP('',(#796,#798));
#800=FACE_BOUND('',#799,.F.);
#802=ORIENTED_EDGE('',*,*,#801,.T.);
#804=ORIENTED_EDGE('',*,*,#803,.T.);
#805=EDGE_LOOP('',(#802,#804));
#806=FACE_BOUND('',#805,.F.);
#808=ORIENTED_EDGE('',*,*,#807,.T.);
#810=ORIENTED_EDGE('',*,*,#809,.T.);
#811=EDGE_LOOP('',(#808,#810));
#812=FACE_BOUND('',#811,.F.);
#814=ORIENTED_EDGE('',*,*,#813,.T.);
#816=ORIENTED_EDGE('',*,*,#815,.T.);
#817=EDGE_LOOP('',(#814,#816));
#818=FACE_BOUND('',#817,.F.);
#820=ORIENTED_EDGE('',*,*,#819,.T.);
#822=ORIENTED_EDGE('',*,*,#821,.T.);
#823=EDGE_LOOP('',(#820,#822));
#824=FACE_BOUND('',#823,.F.);
#826=ORIENTED_EDGE('',*,*,#825,.T.);
#828=ORIENTED_EDGE('',*,*,#827,.T.);
#829=EDGE_LOOP('',(#826,#828));
#830=FACE_BOUND('',#829,.F.);
#832=ORIENTED_EDGE('',*,*,#831,.F.);
#834=ORIENTED_EDGE('',*,*,#833,.F.);
#836=ORIENTED_EDGE('',*,*,#835,.F.);
#838=ORIENTED_EDGE('',*,*,#837,.F.);
#839=EDGE_LOOP('',(#832,#834,#836,#838));
#840=FACE_BOUND('',#839,.F.);
#842=ORIENTED_EDGE('',*,*,#841,.F.);
#844=ORIENTED_EDGE('',*,*,#843,.F.);
#846=ORIENTED_EDGE('',*,*,#845,.F.);
#848=ORIENTED_EDGE('',*,*,#847,.F.);
#849=EDGE_LOOP('',(#842,#844,#846,#848));
#850=FACE_BOUND('',#849,.F.);
#851=ADVANCED_FACE('',(#782,#788,#794,#800,#806,#812,#818,#824,#830,#840,#850),
#772,.F.);
#852=CARTESIAN_POINT('',(0.E0,-3.E0,0.E0));
#853=DIRECTION('',(0.E0,1.E0,0.E0));
#854=DIRECTION('',(-1.E0,0.E0,0.E0));
#855=AXIS2_PLACEMENT_3D('',#852,#853,#854);
#856=CYLINDRICAL_SURFACE('',#855,8.E0);
#857=ORIENTED_EDGE('',*,*,#783,.F.);
#859=ORIENTED_EDGE('',*,*,#858,.T.);
#861=ORIENTED_EDGE('',*,*,#860,.T.);
#863=ORIENTED_EDGE('',*,*,#862,.F.);
#864=EDGE_LOOP('',(#857,#859,#861,#863));
#865=FACE_OUTER_BOUND('',#864,.F.);
#866=ADVANCED_FACE('',(#865),#856,.F.);
#867=CARTESIAN_POINT('',(0.E0,-3.E0,0.E0));
#868=DIRECTION('',(0.E0,1.E0,0.E0));
#869=DIRECTION('',(-1.E0,0.E0,0.E0));
#870=AXIS2_PLACEMENT_3D('',#867,#868,#869);
#871=CYLINDRICAL_SURFACE('',#870,8.E0);
#872=ORIENTED_EDGE('',*,*,#785,.F.);
#873=ORIENTED_EDGE('',*,*,#862,.T.);
#875=ORIENTED_EDGE('',*,*,#874,.T.);
#876=ORIENTED_EDGE('',*,*,#858,.F.);
#877=EDGE_LOOP('',(#872,#873,#875,#876));
#878=FACE_OUTER_BOUND('',#877,.F.);
#879=ADVANCED_FACE('',(#878),#871,.F.);
#880=CARTESIAN_POINT('',(0.E0,3.E0,0.E0));
#881=DIRECTION('',(0.E0,1.E0,0.E0));
#882=DIRECTION('',(-1.E0,0.E0,0.E0));
#883=AXIS2_PLACEMENT_3D('',#880,#881,#882);
#884=PLANE('',#883);
#886=ORIENTED_EDGE('',*,*,#885,.F.);
#888=ORIENTED_EDGE('',*,*,#887,.F.);
#889=EDGE_LOOP('',(#886,#888));
#890=FACE_OUTER_BOUND('',#889,.F.);
#892=ORIENTED_EDGE('',*,*,#891,.T.);
#894=ORIENTED_EDGE('',*,*,#893,.T.);
#895=EDGE_LOOP('',(#892,#894));
#896=FACE_BOUND('',#895,.F.);
#897=ADVANCED_FACE('',(#890,#896),#884,.T.);
#898=CARTESIAN_POINT('',(0.E0,3.E0,0.E0));
#899=DIRECTION('',(0.E0,1.E0,0.E0));
#900=DIRECTION('',(-1.E0,0.E0,0.E0));
#901=AXIS2_PLACEMENT_3D('',#898,#899,#900);
#902=PLANE('',#901);
#904=ORIENTED_EDGE('',*,*,#903,.F.);
#906=ORIENTED_EDGE('',*,*,#905,.F.);
#907=EDGE_LOOP('',(#904,#906));
#908=FACE_OUTER_BOUND('',#907,.F.);
#909=ORIENTED_EDGE('',*,*,#860,.F.);
#910=ORIENTED_EDGE('',*,*,#874,.F.);
#911=EDGE_LOOP('',(#909,#910));
#912=FACE_BOUND('',#911,.F.);
#914=ORIENTED_EDGE('',*,*,#913,.T.);
#916=ORIENTED_EDGE('',*,*,#915,.T.);
#917=EDGE_LOOP('',(#914,#916));
#918=FACE_BOUND('',#917,.F.);
#920=ORIENTED_EDGE('',*,*,#919,.T.);
#922=ORIENTED_EDGE('',*,*,#921,.T.);
#923=EDGE_LOOP('',(#920,#922));
#924=FACE_BOUND('',#923,.F.);
#926=ORIENTED_EDGE('',*,*,#925,.T.);
#928=ORIENTED_EDGE('',*,*,#927,.T.);
#929=EDGE_LOOP('',(#926,#928));
#930=FACE_BOUND('',#929,.F.);
#932=ORIENTED_EDGE('',*,*,#931,.T.);
#934=ORIENTED_EDGE('',*,*,#933,.T.);
#935=EDGE_LOOP('',(#932,#934));
#936=FACE_BOUND('',#935,.F.);
#938=ORIENTED_EDGE('',*,*,#937,.T.);
#940=ORIENTED_EDGE('',*,*,#939,.T.);
#941=EDGE_LOOP('',(#938,#940));
#942=FACE_BOUND('',#941,.F.);
#944=ORIENTED_EDGE('',*,*,#943,.T.);
#946=ORIENTED_EDGE('',*,*,#945,.T.);
#947=EDGE_LOOP('',(#944,#946));
#948=FACE_BOUND('',#947,.F.);
#949=ADVANCED_FACE('',(#908,#912,#918,#924,#930,#936,#942,#948),#902,.T.);
#950=CARTESIAN_POINT('',(0.E0,3.E0,8.4E1));
#951=DIRECTION('',(0.E0,1.E0,0.E0));
#952=DIRECTION('',(-1.E0,0.E0,0.E0));
#953=AXIS2_PLACEMENT_3D('',#950,#951,#952);
#954=CYLINDRICAL_SURFACE('',#953,6.5E0);
#956=ORIENTED_EDGE('',*,*,#955,.T.);
#957=ORIENTED_EDGE('',*,*,#789,.T.);
#959=ORIENTED_EDGE('',*,*,#958,.F.);
#960=ORIENTED_EDGE('',*,*,#891,.F.);
#961=EDGE_LOOP('',(#956,#957,#959,#960));
#962=FACE_OUTER_BOUND('',#961,.F.);
#963=ADVANCED_FACE('',(#962),#954,.F.);
#964=CARTESIAN_POINT('',(0.E0,3.E0,8.4E1));
#965=DIRECTION('',(0.E0,1.E0,0.E0));
#966=DIRECTION('',(-1.E0,0.E0,0.E0));
#967=AXIS2_PLACEMENT_3D('',#964,#965,#966);
#968=CYLINDRICAL_SURFACE('',#967,6.5E0);
#969=ORIENTED_EDGE('',*,*,#955,.F.);
#970=ORIENTED_EDGE('',*,*,#893,.F.);
#971=ORIENTED_EDGE('',*,*,#958,.T.);
#972=ORIENTED_EDGE('',*,*,#791,.T.);
#973=EDGE_LOOP('',(#969,#970,#971,#972));
#974=FACE_OUTER_BOUND('',#973,.F.);
#975=ADVANCED_FACE('',(#974),#968,.F.);
#976=CARTESIAN_POINT('',(0.E0,3.E0,1.35E1));
#977=DIRECTION('',(0.E0,1.E0,0.E0));
#978=DIRECTION('',(-1.E0,0.E0,0.E0));
#979=AXIS2_PLACEMENT_3D('',#976,#977,#978);
#980=CYLINDRICAL_SURFACE('',#979,2.75E0);
#981=ORIENTED_EDGE('',*,*,#913,.F.);
#983=ORIENTED_EDGE('',*,*,#982,.T.);
#985=ORIENTED_EDGE('',*,*,#984,.T.);
#987=ORIENTED_EDGE('',*,*,#986,.F.);
#988=EDGE_LOOP('',(#981,#983,#985,#987));
#989=FACE_OUTER_BOUND('',#988,.F.);
#990=ADVANCED_FACE('',(#989),#980,.F.);
#991=CARTESIAN_POINT('',(0.E0,3.E0,1.35E1));
#992=DIRECTION('',(0.E0,1.E0,0.E0));
#993=DIRECTION('',(-1.E0,0.E0,0.E0));
#994=AXIS2_PLACEMENT_3D('',#991,#992,#993);
#995=CYLINDRICAL_SURFACE('',#994,2.75E0);
#996=ORIENTED_EDGE('',*,*,#915,.F.);
#997=ORIENTED_EDGE('',*,*,#986,.T.);
#999=ORIENTED_EDGE('',*,*,#998,.T.);
#1000=ORIENTED_EDGE('',*,*,#982,.F.);
#1001=EDGE_LOOP('',(#996,#997,#999,#1000));
#1002=FACE_OUTER_BOUND('',#1001,.F.);
#1003=ADVANCED_FACE('',(#1002),#995,.F.);
#1004=CARTESIAN_POINT('',(0.E0,0.E0,0.E0));
#1005=DIRECTION('',(0.E0,1.E0,0.E0));
#1006=DIRECTION('',(-1.E0,0.E0,0.E0));
#1007=AXIS2_PLACEMENT_3D('',#1004,#1005,#1006);
#1008=PLANE('',#1007);
#1009=ORIENTED_EDGE('',*,*,#984,.F.);
#1010=ORIENTED_EDGE('',*,*,#998,.F.);
#1011=EDGE_LOOP('',(#1009,#1010));
#1012=FACE_OUTER_BOUND('',#1011,.F.);
#1014=ORIENTED_EDGE('',*,*,#1013,.F.);
#1016=ORIENTED_EDGE('',*,*,#1015,.F.);
#1017=EDGE_LOOP('',(#1014,#1016));
#1018=FACE_BOUND('',#1017,.F.);
#1019=ADVANCED_FACE('',(#1012,#1018),#1008,.T.);
#1020=CARTESIAN_POINT('',(0.E0,-3.E0,1.35E1));
#1021=DIRECTION('',(0.E0,-1.E0,0.E0));
#1022=DIRECTION('',(1.E0,0.E0,0.E0));
#1023=AXIS2_PLACEMENT_3D('',#1020,#1021,#1022);
#1024=CYLINDRICAL_SURFACE('',#1023,1.5E0);
#1025=ORIENTED_EDGE('',*,*,#1013,.T.);
#1027=ORIENTED_EDGE('',*,*,#1026,.F.);
#1028=ORIENTED_EDGE('',*,*,#795,.F.);
#1030=ORIENTED_EDGE('',*,*,#1029,.T.);
#1031=EDGE_LOOP('',(#1025,#1027,#1028,#1030));
#1032=FACE_OUTER_BOUND('',#1031,.F.);
#1033=ADVANCED_FACE('',(#1032),#1024,.F.);
#1034=CARTESIAN_POINT('',(0.E0,-3.E0,1.35E1));
#1035=DIRECTION('',(0.E0,-1.E0,0.E0));
#1036=DIRECTION('',(1.E0,0.E0,0.E0));
#1037=AXIS2_PLACEMENT_3D('',#1034,#1035,#1036);
#1038=CYLINDRICAL_SURFACE('',#1037,1.5E0);
#1039=ORIENTED_EDGE('',*,*,#1015,.T.);
#1040=ORIENTED_EDGE('',*,*,#1029,.F.);
#1041=ORIENTED_EDGE('',*,*,#797,.F.);
#1042=ORIENTED_EDGE('',*,*,#1026,.T.);
#1043=EDGE_LOOP('',(#1039,#1040,#1041,#1042));
#1044=FACE_OUTER_BOUND('',#1043,.F.);
#1045=ADVANCED_FACE('',(#1044),#1038,.F.);
#1046=CARTESIAN_POINT('',(1.169134295109E1,3.E0,6.75E0));
#1047=DIRECTION('',(0.E0,1.E0,0.E0));
#1048=DIRECTION('',(-5.E-1,0.E0,8.660254037844E-1));
#1049=AXIS2_PLACEMENT_3D('',#1046,#1047,#1048);
#1050=CYLINDRICAL_SURFACE('',#1049,2.75E0);
#1051=ORIENTED_EDGE('',*,*,#919,.F.);
#1053=ORIENTED_EDGE('',*,*,#1052,.T.);
#1055=ORIENTED_EDGE('',*,*,#1054,.T.);
#1057=ORIENTED_EDGE('',*,*,#1056,.F.);
#1058=EDGE_LOOP('',(#1051,#1053,#1055,#1057));
#1059=FACE_OUTER_BOUND('',#1058,.F.);
#1060=ADVANCED_FACE('',(#1059),#1050,.F.);
#1061=CARTESIAN_POINT('',(1.169134295109E1,3.E0,6.75E0));
#1062=DIRECTION('',(0.E0,1.E0,0.E0));
#1063=DIRECTION('',(-5.E-1,0.E0,8.660254037844E-1));
#1064=AXIS2_PLACEMENT_3D('',#1061,#1062,#1063);
#1065=CYLINDRICAL_SURFACE('',#1064,2.75E0);
#1066=ORIENTED_EDGE('',*,*,#921,.F.);
#1067=ORIENTED_EDGE('',*,*,#1056,.T.);
#1069=ORIENTED_EDGE('',*,*,#1068,.T.);
#1070=ORIENTED_EDGE('',*,*,#1052,.F.);
#1071=EDGE_LOOP('',(#1066,#1067,#1069,#1070));
#1072=FACE_OUTER_BOUND('',#1071,.F.);
#1073=ADVANCED_FACE('',(#1072),#1065,.F.);
#1074=CARTESIAN_POINT('',(0.E0,0.E0,0.E0));
#1075=DIRECTION('',(0.E0,1.E0,0.E0));
#1076=DIRECTION('',(-5.E-1,0.E0,8.660254037844E-1));
#1077=AXIS2_PLACEMENT_3D('',#1074,#1075,#1076);
#1078=PLANE('',#1077);
#1079=ORIENTED_EDGE('',*,*,#1054,.F.);
#1080=ORIENTED_EDGE('',*,*,#1068,.F.);
#1081=EDGE_LOOP('',(#1079,#1080));
#1082=FACE_OUTER_BOUND('',#1081,.F.);
#1084=ORIENTED_EDGE('',*,*,#1083,.F.);
#1086=ORIENTED_EDGE('',*,*,#1085,.F.);
#1087=EDGE_LOOP('',(#1084,#1086));
#1088=FACE_BOUND('',#1087,.F.);
#1089=ADVANCED_FACE('',(#1082,#1088),#1078,.T.);
#1090=CARTESIAN_POINT('',(1.169134295109E1,-3.E0,6.75E0));
#1091=DIRECTION('',(0.E0,-1.E0,0.E0));
#1092=DIRECTION('',(5.E-1,0.E0,-8.660254037844E-1));
#1093=AXIS2_PLACEMENT_3D('',#1090,#1091,#1092);
#1094=CYLINDRICAL_SURFACE('',#1093,1.5E0);
#1095=ORIENTED_EDGE('',*,*,#1083,.T.);
#1097=ORIENTED_EDGE('',*,*,#1096,.F.);
#1098=ORIENTED_EDGE('',*,*,#801,.F.);
#1100=ORIENTED_EDGE('',*,*,#1099,.T.);
#1101=EDGE_LOOP('',(#1095,#1097,#1098,#1100));
#1102=FACE_OUTER_BOUND('',#1101,.F.);
#1103=ADVANCED_FACE('',(#1102),#1094,.F.);
#1104=CARTESIAN_POINT('',(1.169134295109E1,-3.E0,6.75E0));
#1105=DIRECTION('',(0.E0,-1.E0,0.E0));
#1106=DIRECTION('',(5.E-1,0.E0,-8.660254037844E-1));
#1107=AXIS2_PLACEMENT_3D('',#1104,#1105,#1106);
#1108=CYLINDRICAL_SURFACE('',#1107,1.5E0);
#1109=ORIENTED_EDGE('',*,*,#1085,.T.);
#1110=ORIENTED_EDGE('',*,*,#1099,.F.);
#1111=ORIENTED_EDGE('',*,*,#803,.F.);
#1112=ORIENTED_EDGE('',*,*,#1096,.T.);
#1113=EDGE_LOOP('',(#1109,#1110,#1111,#1112));
#1114=FACE_OUTER_BOUND('',#1113,.F.);
#1115=ADVANCED_FACE('',(#1114),#1108,.F.);
#1116=CARTESIAN_POINT('',(1.169134295109E1,3.E0,-6.75E0));
#1117=DIRECTION('',(0.E0,1.E0,0.E0));
#1118=DIRECTION('',(5.E-1,0.E0,8.660254037844E-1));
#1119=AXIS2_PLACEMENT_3D('',#1116,#1117,#1118);
#1120=CYLINDRICAL_SURFACE('',#1119,2.75E0);
#1121=ORIENTED_EDGE('',*,*,#925,.F.);
#1123=ORIENTED_EDGE('',*,*,#1122,.T.);
#1125=ORIENTED_EDGE('',*,*,#1124,.T.);
#1127=ORIENTED_EDGE('',*,*,#1126,.F.);
#1128=EDGE_LOOP('',(#1121,#1123,#1125,#1127));
#1129=FACE_OUTER_BOUND('',#1128,.F.);
#1130=ADVANCED_FACE('',(#1129),#1120,.F.);
#1131=CARTESIAN_POINT('',(1.169134295109E1,3.E0,-6.75E0));
#1132=DIRECTION('',(0.E0,1.E0,0.E0));
#1133=DIRECTION('',(5.E-1,0.E0,8.660254037844E-1));
#1134=AXIS2_PLACEMENT_3D('',#1131,#1132,#1133);
#1135=CYLINDRICAL_SURFACE('',#1134,2.75E0);
#1136=ORIENTED_EDGE('',*,*,#927,.F.);
#1137=ORIENTED_EDGE('',*,*,#1126,.T.);
#1139=ORIENTED_EDGE('',*,*,#1138,.T.);
#1140=ORIENTED_EDGE('',*,*,#1122,.F.);
#1141=EDGE_LOOP('',(#1136,#1137,#1139,#1140));
#1142=FACE_OUTER_BOUND('',#1141,.F.);
#1143=ADVANCED_FACE('',(#1142),#1135,.F.);
#1144=CARTESIAN_POINT('',(0.E0,0.E0,0.E0));
#1145=DIRECTION('',(0.E0,1.E0,0.E0));
#1146=DIRECTION('',(5.E-1,0.E0,8.660254037844E-1));
#1147=AXIS2_PLACEMENT_3D('',#1144,#1145,#1146);
#1148=PLANE('',#1147);
#1149=ORIENTED_EDGE('',*,*,#1124,.F.);
#1150=ORIENTED_EDGE('',*,*,#1138,.F.);
#1151=EDGE_LOOP('',(#1149,#1150));
#1152=FACE_OUTER_BOUND('',#1151,.F.);
#1154=ORIENTED_EDGE('',*,*,#1153,.F.);
#1156=ORIENTED_EDGE('',*,*,#1155,.F.);
#1157=EDGE_LOOP('',(#1154,#1156));
#1158=FACE_BOUND('',#1157,.F.);
#1159=ADVANCED_FACE('',(#1152,#1158),#1148,.T.);
#1160=CARTESIAN_POINT('',(1.169134295109E1,-3.E0,-6.75E0));
#1161=DIRECTION('',(0.E0,-1.E0,0.E0));
#1162=DIRECTION('',(-5.E-1,0.E0,-8.660254037844E-1));
#1163=AXIS2_PLACEMENT_3D('',#1160,#1161,#1162);
#1164=CYLINDRICAL_SURFACE('',#1163,1.5E0);
#1165=ORIENTED_EDGE('',*,*,#1153,.T.);
#1167=ORIENTED_EDGE('',*,*,#1166,.F.);
#1168=ORIENTED_EDGE('',*,*,#807,.F.);
#1170=ORIENTED_EDGE('',*,*,#1169,.T.);
#1171=EDGE_LOOP('',(#1165,#1167,#1168,#1170));
#1172=FACE_OUTER_BOUND('',#1171,.F.);
#1173=ADVANCED_FACE('',(#1172),#1164,.F.);
#1174=CARTESIAN_POINT('',(1.169134295109E1,-3.E0,-6.75E0));
#1175=DIRECTION('',(0.E0,-1.E0,0.E0));
#1176=DIRECTION('',(-5.E-1,0.E0,-8.660254037844E-1));
#1177=AXIS2_PLACEMENT_3D('',#1174,#1175,#1176);
#1178=CYLINDRICAL_SURFACE('',#1177,1.5E0);
#1179=ORIENTED_EDGE('',*,*,#1155,.T.);
#1180=ORIENTED_EDGE('',*,*,#1169,.F.);
#1181=ORIENTED_EDGE('',*,*,#809,.F.);
#1182=ORIENTED_EDGE('',*,*,#1166,.T.);
#1183=EDGE_LOOP('',(#1179,#1180,#1181,#1182));
#1184=FACE_OUTER_BOUND('',#1183,.F.);
#1185=ADVANCED_FACE('',(#1184),#1178,.F.);
#1186=CARTESIAN_POINT('',(0.E0,3.E0,-1.35E1));
#1187=DIRECTION('',(0.E0,1.E0,0.E0));
#1188=DIRECTION('',(1.E0,0.E0,0.E0));
#1189=AXIS2_PLACEMENT_3D('',#1186,#1187,#1188);
#1190=CYLINDRICAL_SURFACE('',#1189,2.75E0);
#1191=ORIENTED_EDGE('',*,*,#931,.F.);
#1193=ORIENTED_EDGE('',*,*,#1192,.T.);
#1195=ORIENTED_EDGE('',*,*,#1194,.T.);
#1197=ORIENTED_EDGE('',*,*,#1196,.F.);
#1198=EDGE_LOOP('',(#1191,#1193,#1195,#1197));
#1199=FACE_OUTER_BOUND('',#1198,.F.);
#1200=ADVANCED_FACE('',(#1199),#1190,.F.);
#1201=CARTESIAN_POINT('',(0.E0,3.E0,-1.35E1));
#1202=DIRECTION('',(0.E0,1.E0,0.E0));
#1203=DIRECTION('',(1.E0,0.E0,0.E0));
#1204=AXIS2_PLACEMENT_3D('',#1201,#1202,#1203);
#1205=CYLINDRICAL_SURFACE('',#1204,2.75E0);
#1206=ORIENTED_EDGE('',*,*,#933,.F.);
#1207=ORIENTED_EDGE('',*,*,#1196,.T.);
#1209=ORIENTED_EDGE('',*,*,#1208,.T.);
#1210=ORIENTED_EDGE('',*,*,#1192,.F.);
#1211=EDGE_LOOP('',(#1206,#1207,#1209,#1210));
#1212=FACE_OUTER_BOUND('',#1211,.F.);
#1213=ADVANCED_FACE('',(#1212),#1205,.F.);
#1214=CARTESIAN_POINT('',(0.E0,0.E0,0.E0));
#1215=DIRECTION('',(0.E0,1.E0,0.E0));
#1216=DIRECTION('',(1.E0,0.E0,0.E0));
#1217=AXIS2_PLACEMENT_3D('',#1214,#1215,#1216);
#1218=PLANE('',#1217);
#1219=ORIENTED_EDGE('',*,*,#1194,.F.);
#1220=ORIENTED_EDGE('',*,*,#1208,.F.);
#1221=EDGE_LOOP('',(#1219,#1220));
#1222=FACE_OUTER_BOUND('',#1221,.F.);
#1224=ORIENTED_EDGE('',*,*,#1223,.F.);
#1226=ORIENTED_EDGE('',*,*,#1225,.F.);
#1227=EDGE_LOOP('',(#1224,#1226));
#1228=FACE_BOUND('',#1227,.F.);
#1229=ADVANCED_FACE('',(#1222,#1228),#1218,.T.);
#1230=CARTESIAN_POINT('',(0.E0,-3.E0,-1.35E1));
#1231=DIRECTION('',(0.E0,-1.E0,0.E0));
#1232=DIRECTION('',(-1.E0,0.E0,0.E0));
#1233=AXIS2_PLACEMENT_3D('',#1230,#1231,#1232);
#1234=CYLINDRICAL_SURFACE('',#1233,1.5E0);
#1235=ORIENTED_EDGE('',*,*,#1223,.T.);
#1237=ORIENTED_EDGE('',*,*,#1236,.F.);
#1238=ORIENTED_EDGE('',*,*,#813,.F.);
#1240=ORIENTED_EDGE('',*,*,#1239,.T.);
#1241=EDGE_LOOP('',(#1235,#1237,#1238,#1240));
#1242=FACE_OUTER_BOUND('',#1241,.F.);
#1243=ADVANCED_FACE('',(#1242),#1234,.F.);
#1244=CARTESIAN_POINT('',(0.E0,-3.E0,-1.35E1));
#1245=DIRECTION('',(0.E0,-1.E0,0.E0));
#1246=DIRECTION('',(-1.E0,0.E0,0.E0));
#1247=AXIS2_PLACEMENT_3D('',#1244,#1245,#1246);
#1248=CYLINDRICAL_SURFACE('',#1247,1.5E0);
#1249=ORIENTED_EDGE('',*,*,#1225,.T.);
#1250=ORIENTED_EDGE('',*,*,#1239,.F.);
#1251=ORIENTED_EDGE('',*,*,#815,.F.);
#1252=ORIENTED_EDGE('',*,*,#1236,.T.);
#1253=EDGE_LOOP('',(#1249,#1250,#1251,#1252));
#1254=FACE_OUTER_BOUND('',#1253,.F.);
#1255=ADVANCED_FACE('',(#1254),#1248,.F.);
#1256=CARTESIAN_POINT('',(-1.169134295109E1,3.E0,-6.75E0));
#1257=DIRECTION('',(0.E0,1.E0,0.E0));
#1258=DIRECTION('',(5.E-1,0.E0,-8.660254037844E-1));
#1259=AXIS2_PLACEMENT_3D('',#1256,#1257,#1258);
#1260=CYLINDRICAL_SURFACE('',#1259,2.75E0);
#1261=ORIENTED_EDGE('',*,*,#937,.F.);
#1263=ORIENTED_EDGE('',*,*,#1262,.T.);
#1265=ORIENTED_EDGE('',*,*,#1264,.T.);
#1267=ORIENTED_EDGE('',*,*,#1266,.F.);
#1268=EDGE_LOOP('',(#1261,#1263,#1265,#1267));
#1269=FACE_OUTER_BOUND('',#1268,.F.);
#1270=ADVANCED_FACE('',(#1269),#1260,.F.);
#1271=CARTESIAN_POINT('',(-1.169134295109E1,3.E0,-6.75E0));
#1272=DIRECTION('',(0.E0,1.E0,0.E0));
#1273=DIRECTION('',(5.E-1,0.E0,-8.660254037844E-1));
#1274=AXIS2_PLACEMENT_3D('',#1271,#1272,#1273);
#1275=CYLINDRICAL_SURFACE('',#1274,2.75E0);
#1276=ORIENTED_EDGE('',*,*,#939,.F.);
#1277=ORIENTED_EDGE('',*,*,#1266,.T.);
#1279=ORIENTED_EDGE('',*,*,#1278,.T.);
#1280=ORIENTED_EDGE('',*,*,#1262,.F.);
#1281=EDGE_LOOP('',(#1276,#1277,#1279,#1280));
#1282=FACE_OUTER_BOUND('',#1281,.F.);
#1283=ADVANCED_FACE('',(#1282),#1275,.F.);
#1284=CARTESIAN_POINT('',(0.E0,0.E0,0.E0));
#1285=DIRECTION('',(0.E0,1.E0,0.E0));
#1286=DIRECTION('',(5.E-1,0.E0,-8.660254037844E-1));
#1287=AXIS2_PLACEMENT_3D('',#1284,#1285,#1286);
#1288=PLANE('',#1287);
#1289=ORIENTED_EDGE('',*,*,#1264,.F.);
#1290=ORIENTED_EDGE('',*,*,#1278,.F.);
#1291=EDGE_LOOP('',(#1289,#1290));
#1292=FACE_OUTER_BOUND('',#1291,.F.);
#1294=ORIENTED_EDGE('',*,*,#1293,.F.);
#1296=ORIENTED_EDGE('',*,*,#1295,.F.);
#1297=EDGE_LOOP('',(#1294,#1296));
#1298=FACE_BOUND('',#1297,.F.);
#1299=ADVANCED_FACE('',(#1292,#1298),#1288,.T.);
#1300=CARTESIAN_POINT('',(-1.169134295109E1,-3.E0,-6.75E0));
#1301=DIRECTION('',(0.E0,-1.E0,0.E0));
#1302=DIRECTION('',(-5.E-1,0.E0,8.660254037844E-1));
#1303=AXIS2_PLACEMENT_3D('',#1300,#1301,#1302);
#1304=CYLINDRICAL_SURFACE('',#1303,1.5E0);
#1305=ORIENTED_EDGE('',*,*,#1293,.T.);
#1307=ORIENTED_EDGE('',*,*,#1306,.F.);
#1308=ORIENTED_EDGE('',*,*,#819,.F.);
#1310=ORIENTED_EDGE('',*,*,#1309,.T.);
#1311=EDGE_LOOP('',(#1305,#1307,#1308,#1310));
#1312=FACE_OUTER_BOUND('',#1311,.F.);
#1313=ADVANCED_FACE('',(#1312),#1304,.F.);
#1314=CARTESIAN_POINT('',(-1.169134295109E1,-3.E0,-6.75E0));
#1315=DIRECTION('',(0.E0,-1.E0,0.E0));
#1316=DIRECTION('',(-5.E-1,0.E0,8.660254037844E-1));
#1317=AXIS2_PLACEMENT_3D('',#1314,#1315,#1316);
#1318=CYLINDRICAL_SURFACE('',#1317,1.5E0);
#1319=ORIENTED_EDGE('',*,*,#1295,.T.);
#1320=ORIENTED_EDGE('',*,*,#1309,.F.);
#1321=ORIENTED_EDGE('',*,*,#821,.F.);
#1322=ORIENTED_EDGE('',*,*,#1306,.T.);
#1323=EDGE_LOOP('',(#1319,#1320,#1321,#1322));
#1324=FACE_OUTER_BOUND('',#1323,.F.);
#1325=ADVANCED_FACE('',(#1324),#1318,.F.);
#1326=CARTESIAN_POINT('',(-1.169134295109E1,3.E0,6.75E0));
#1327=DIRECTION('',(0.E0,1.E0,0.E0));
#1328=DIRECTION('',(-5.E-1,0.E0,-8.660254037844E-1));
#1329=AXIS2_PLACEMENT_3D('',#1326,#1327,#1328);
#1330=CYLINDRICAL_SURFACE('',#1329,2.75E0);
#1331=ORIENTED_EDGE('',*,*,#943,.F.);
#1333=ORIENTED_EDGE('',*,*,#1332,.T.);
#1335=ORIENTED_EDGE('',*,*,#1334,.T.);
#1337=ORIENTED_EDGE('',*,*,#1336,.F.);
#1338=EDGE_LOOP('',(#1331,#1333,#1335,#1337));
#1339=FACE_OUTER_BOUND('',#1338,.F.);
#1340=ADVANCED_FACE('',(#1339),#1330,.F.);
#1341=CARTESIAN_POINT('',(-1.169134295109E1,3.E0,6.75E0));
#1342=DIRECTION('',(0.E0,1.E0,0.E0));
#1343=DIRECTION('',(-5.E-1,0.E0,-8.660254037844E-1));
#1344=AXIS2_PLACEMENT_3D('',#1341,#1342,#1343);
#1345=CYLINDRICAL_SURFACE('',#1344,2.75E0);
#1346=ORIENTED_EDGE('',*,*,#945,.F.);
#1347=ORIENTED_EDGE('',*,*,#1336,.T.);
#1349=ORIENTED_EDGE('',*,*,#1348,.T.);
#1350=ORIENTED_EDGE('',*,*,#1332,.F.);
#1351=EDGE_LOOP('',(#1346,#1347,#1349,#1350));
#1352=FACE_OUTER_BOUND('',#1351,.F.);
#1353=ADVANCED_FACE('',(#1352),#1345,.F.);
#1354=CARTESIAN_POINT('',(0.E0,0.E0,0.E0));
#1355=DIRECTION('',(0.E0,1.E0,0.E0));
#1356=DIRECTION('',(-5.E-1,0.E0,-8.660254037844E-1));
#1357=AXIS2_PLACEMENT_3D('',#1354,#1355,#1356);
#1358=PLANE('',#1357);
#1359=ORIENTED_EDGE('',*,*,#1334,.F.);
#1360=ORIENTED_EDGE('',*,*,#1348,.F.);
#1361=EDGE_LOOP('',(#1359,#1360));
#1362=FACE_OUTER_BOUND('',#1361,.F.);
#1364=ORIENTED_EDGE('',*,*,#1363,.F.);
#1366=ORIENTED_EDGE('',*,*,#1365,.F.);
#1367=EDGE_LOOP('',(#1364,#1366));
#1368=FACE_BOUND('',#1367,.F.);
#1369=ADVANCED_FACE('',(#1362,#1368),#1358,.T.);
#1370=CARTESIAN_POINT('',(-1.169134295109E1,-3.E0,6.75E0));
#1371=DIRECTION('',(0.E0,-1.E0,0.E0));
#1372=DIRECTION('',(5.E-1,0.E0,8.660254037844E-1));
#1373=AXIS2_PLACEMENT_3D('',#1370,#1371,#1372);
#1374=CYLINDRICAL_SURFACE('',#1373,1.5E0);
#1375=ORIENTED_EDGE('',*,*,#1363,.T.);
#1377=ORIENTED_EDGE('',*,*,#1376,.F.);
#1378=ORIENTED_EDGE('',*,*,#825,.F.);
#1380=ORIENTED_EDGE('',*,*,#1379,.T.);
#1381=EDGE_LOOP('',(#1375,#1377,#1378,#1380));
#1382=FACE_OUTER_BOUND('',#1381,.F.);
#1383=ADVANCED_FACE('',(#1382),#1374,.F.);
#1384=CARTESIAN_POINT('',(-1.169134295109E1,-3.E0,6.75E0));
#1385=DIRECTION('',(0.E0,-1.E0,0.E0));
#1386=DIRECTION('',(5.E-1,0.E0,8.660254037844E-1));
#1387=AXIS2_PLACEMENT_3D('',#1384,#1385,#1386);
#1388=CYLINDRICAL_SURFACE('',#1387,1.5E0);
#1389=ORIENTED_EDGE('',*,*,#1365,.T.);
#1390=ORIENTED_EDGE('',*,*,#1379,.F.);
#1391=ORIENTED_EDGE('',*,*,#827,.F.);
#1392=ORIENTED_EDGE('',*,*,#1376,.T.);
#1393=EDGE_LOOP('',(#1389,#1390,#1391,#1392));
#1394=FACE_OUTER_BOUND('',#1393,.F.);
#1395=ADVANCED_FACE('',(#1394),#1388,.F.);
#1396=CARTESIAN_POINT('',(0.E0,-3.E0,8.4E1));
#1397=DIRECTION('',(0.E0,1.E0,0.E0));
#1398=DIRECTION('',(-1.E0,0.E0,0.E0));
#1399=AXIS2_PLACEMENT_3D('',#1396,#1397,#1398);
#1400=CYLINDRICAL_SURFACE('',#1399,1.2E1);
#1401=ORIENTED_EDGE('',*,*,#885,.T.);
#1403=ORIENTED_EDGE('',*,*,#1402,.T.);
#1405=ORIENTED_EDGE('',*,*,#1404,.T.);
#1407=ORIENTED_EDGE('',*,*,#1406,.F.);
#1408=ORIENTED_EDGE('',*,*,#777,.F.);
#1410=ORIENTED_EDGE('',*,*,#1409,.T.);
#1412=ORIENTED_EDGE('',*,*,#1411,.T.);
#1413=EDGE_LOOP('',(#1401,#1403,#1405,#1407,#1408,#1410,#1412));
#1414=FACE_OUTER_BOUND('',#1413,.F.);
#1415=ADVANCED_FACE('',(#1414),#1400,.T.);
#1416=CARTESIAN_POINT('',(0.E0,3.E0,8.4E1));
#1417=DIRECTION('',(0.E0,1.E0,0.E0));
#1418=DIRECTION('',(0.E0,0.E0,-1.E0));
#1419=AXIS2_PLACEMENT_3D('',#1416,#1417,#1418);
#1420=CYLINDRICAL_SURFACE('',#1419,1.2E1);
#1421=ORIENTED_EDGE('',*,*,#887,.T.);
#1422=ORIENTED_EDGE('',*,*,#1411,.F.);
#1424=ORIENTED_EDGE('',*,*,#1423,.T.);
#1425=ORIENTED_EDGE('',*,*,#1402,.F.);
#1426=EDGE_LOOP('',(#1421,#1422,#1424,#1425));
#1427=FACE_OUTER_BOUND('',#1426,.F.);
#1428=ADVANCED_FACE('',(#1427),#1420,.T.);
#1429=CARTESIAN_POINT('',(0.E0,2.E0,0.E0));
#1430=DIRECTION('',(0.E0,1.E0,0.E0));
#1431=DIRECTION('',(0.E0,0.E0,-1.E0));
#1432=AXIS2_PLACEMENT_3D('',#1429,#1430,#1431);
#1433=PLANE('',#1432);
#1435=ORIENTED_EDGE('',*,*,#1434,.F.);
#1437=ORIENTED_EDGE('',*,*,#1436,.F.);
#1439=ORIENTED_EDGE('',*,*,#1438,.F.);
#1441=ORIENTED_EDGE('',*,*,#1440,.F.);
#1442=ORIENTED_EDGE('',*,*,#1404,.F.);
#1443=ORIENTED_EDGE('',*,*,#1423,.F.);
#1444=EDGE_LOOP('',(#1435,#1437,#1439,#1441,#1442,#1443));
#1445=FACE_OUTER_BOUND('',#1444,.F.);
#1447=ORIENTED_EDGE('',*,*,#1446,.T.);
#1449=ORIENTED_EDGE('',*,*,#1448,.T.);
#1451=ORIENTED_EDGE('',*,*,#1450,.T.);
#1453=ORIENTED_EDGE('',*,*,#1452,.T.);
#1454=EDGE_LOOP('',(#1447,#1449,#1451,#1453));
#1455=FACE_BOUND('',#1454,.F.);
#1457=ORIENTED_EDGE('',*,*,#1456,.T.);
#1459=ORIENTED_EDGE('',*,*,#1458,.T.);
#1461=ORIENTED_EDGE('',*,*,#1460,.T.);
#1463=ORIENTED_EDGE('',*,*,#1462,.T.);
#1464=EDGE_LOOP('',(#1457,#1459,#1461,#1463));
#1465=FACE_BOUND('',#1464,.F.);
#1466=ADVANCED_FACE('',(#1445,#1455,#1465),#1433,.T.);
#1467=CARTESIAN_POINT('',(-1.746244730764E1,-3.E0,1.145833333333E0));
#1468=DIRECTION('',(-9.978541318653E-1,0.E0,6.547619047619E-2));
#1469=DIRECTION('',(6.547619047619E-2,0.E0,9.978541318653E-1));
#1470=AXIS2_PLACEMENT_3D('',#1467,#1468,#1469);
#1471=PLANE('',#1470);
#1472=ORIENTED_EDGE('',*,*,#1434,.T.);
#1473=ORIENTED_EDGE('',*,*,#1409,.F.);
#1474=ORIENTED_EDGE('',*,*,#775,.F.);
#1476=ORIENTED_EDGE('',*,*,#1475,.T.);
#1477=EDGE_LOOP('',(#1472,#1473,#1474,#1476));
#1478=FACE_OUTER_BOUND('',#1477,.F.);
#1479=ADVANCED_FACE('',(#1478),#1471,.T.);
#1480=CARTESIAN_POINT('',(0.E0,-3.E0,0.E0));
#1481=DIRECTION('',(0.E0,1.E0,0.E0));
#1482=DIRECTION('',(-1.E0,0.E0,0.E0));
#1483=AXIS2_PLACEMENT_3D('',#1480,#1481,#1482);
#1484=CYLINDRICAL_SURFACE('',#1483,1.75E1);
#1486=ORIENTED_EDGE('',*,*,#1485,.T.);
#1487=ORIENTED_EDGE('',*,*,#1438,.T.);
#1489=ORIENTED_EDGE('',*,*,#1488,.F.);
#1490=ORIENTED_EDGE('',*,*,#903,.T.);
#1492=ORIENTED_EDGE('',*,*,#1491,.F.);
#1493=ORIENTED_EDGE('',*,*,#1475,.F.);
#1494=ORIENTED_EDGE('',*,*,#773,.F.);
#1495=EDGE_LOOP('',(#1486,#1487,#1489,#1490,#1492,#1493,#1494));
#1496=FACE_OUTER_BOUND('',#1495,.F.);
#1497=ADVANCED_FACE('',(#1496),#1484,.T.);
#1498=CARTESIAN_POINT('',(1.197424958238E1,-3.E0,8.478571428571E1));
#1499=DIRECTION('',(9.978541318653E-1,0.E0,6.547619047619E-2));
#1500=DIRECTION('',(6.547619047619E-2,0.E0,-9.978541318653E-1));
#1501=AXIS2_PLACEMENT_3D('',#1498,#1499,#1500);
#1502=PLANE('',#1501);
#1503=ORIENTED_EDGE('',*,*,#1440,.T.);
#1504=ORIENTED_EDGE('',*,*,#1485,.F.);
#1505=ORIENTED_EDGE('',*,*,#779,.F.);
#1506=ORIENTED_EDGE('',*,*,#1406,.T.);
#1507=EDGE_LOOP('',(#1503,#1504,#1505,#1506));
#1508=FACE_OUTER_BOUND('',#1507,.F.);
#1509=ADVANCED_FACE('',(#1508),#1502,.T.);
#1510=CARTESIAN_POINT('',(0.E0,3.E0,0.E0));
#1511=DIRECTION('',(0.E0,1.E0,0.E0));
#1512=DIRECTION('',(0.E0,0.E0,-1.E0));
#1513=AXIS2_PLACEMENT_3D('',#1510,#1511,#1512);
#1514=CYLINDRICAL_SURFACE('',#1513,1.75E1);
#1515=ORIENTED_EDGE('',*,*,#905,.T.);
#1516=ORIENTED_EDGE('',*,*,#1488,.T.);
#1517=ORIENTED_EDGE('',*,*,#1436,.T.);
#1518=ORIENTED_EDGE('',*,*,#1491,.T.);
#1519=EDGE_LOOP('',(#1515,#1516,#1517,#1518));
#1520=FACE_OUTER_BOUND('',#1519,.F.);
#1521=ADVANCED_FACE('',(#1520),#1514,.T.);
#1522=CARTESIAN_POINT('',(0.E0,2.E0,6.7E1));
#1523=DIRECTION('',(0.E0,1.E0,0.E0));
#1524=DIRECTION('',(0.E0,0.E0,-1.E0));
#1525=AXIS2_PLACEMENT_3D('',#1522,#1523,#1524);
#1526=CYLINDRICAL_SURFACE('',#1525,3.E0);
#1527=ORIENTED_EDGE('',*,*,#831,.T.);
#1529=ORIENTED_EDGE('',*,*,#1528,.F.);
#1530=ORIENTED_EDGE('',*,*,#1446,.F.);
#1532=ORIENTED_EDGE('',*,*,#1531,.T.);
#1533=EDGE_LOOP('',(#1527,#1529,#1530,#1532));
#1534=FACE_OUTER_BOUND('',#1533,.F.);
#1535=ADVANCED_FACE('',(#1534),#1526,.F.);
#1536=CARTESIAN_POINT('',(3.E0,2.E0,6.7E1));
#1537=DIRECTION('',(1.E0,0.E0,0.E0));
#1538=DIRECTION('',(0.E0,0.E0,-1.E0));
#1539=AXIS2_PLACEMENT_3D('',#1536,#1537,#1538);
#1540=PLANE('',#1539);
#1541=ORIENTED_EDGE('',*,*,#837,.T.);
#1543=ORIENTED_EDGE('',*,*,#1542,.F.);
#1544=ORIENTED_EDGE('',*,*,#1448,.F.);
#1545=ORIENTED_EDGE('',*,*,#1528,.T.);
#1546=EDGE_LOOP('',(#1541,#1543,#1544,#1545));
#1547=FACE_OUTER_BOUND('',#1546,.F.);
#1548=ADVANCED_FACE('',(#1547),#1540,.F.);
#1549=CARTESIAN_POINT('',(0.E0,2.E0,5.3E1));
#1550=DIRECTION('',(0.E0,1.E0,0.E0));
#1551=DIRECTION('',(0.E0,0.E0,-1.E0));
#1552=AXIS2_PLACEMENT_3D('',#1549,#1550,#1551);
#1553=CYLINDRICAL_SURFACE('',#1552,3.E0);
#1554=ORIENTED_EDGE('',*,*,#835,.T.);
#1556=ORIENTED_EDGE('',*,*,#1555,.F.);
#1557=ORIENTED_EDGE('',*,*,#1450,.F.);
#1558=ORIENTED_EDGE('',*,*,#1542,.T.);
#1559=EDGE_LOOP('',(#1554,#1556,#1557,#1558));
#1560=FACE_OUTER_BOUND('',#1559,.F.);
#1561=ADVANCED_FACE('',(#1560),#1553,.F.);
#1562=CARTESIAN_POINT('',(-3.E0,2.E0,5.3E1));
#1563=DIRECTION('',(-1.E0,0.E0,0.E0));
#1564=DIRECTION('',(0.E0,0.E0,1.E0));
#1565=AXIS2_PLACEMENT_3D('',#1562,#1563,#1564);
#1566=PLANE('',#1565);
#1567=ORIENTED_EDGE('',*,*,#833,.T.);
#1568=ORIENTED_EDGE('',*,*,#1531,.F.);
#1569=ORIENTED_EDGE('',*,*,#1452,.F.);
#1570=ORIENTED_EDGE('',*,*,#1555,.T.);
#1571=EDGE_LOOP('',(#1567,#1568,#1569,#1570));
#1572=FACE_OUTER_BOUND('',#1571,.F.);
#1573=ADVANCED_FACE('',(#1572),#1566,.F.);
#1574=CARTESIAN_POINT('',(0.E0,2.E0,3.7E1));
#1575=DIRECTION('',(0.E0,1.E0,0.E0));
#1576=DIRECTION('',(0.E0,0.E0,-1.E0));
#1577=AXIS2_PLACEMENT_3D('',#1574,#1575,#1576);
#1578=CYLINDRICAL_SURFACE('',#1577,3.E0);
#1579=ORIENTED_EDGE('',*,*,#841,.T.);
#1581=ORIENTED_EDGE('',*,*,#1580,.F.);
#1582=ORIENTED_EDGE('',*,*,#1456,.F.);
#1584=ORIENTED_EDGE('',*,*,#1583,.T.);
#1585=EDGE_LOOP('',(#1579,#1581,#1582,#1584));
#1586=FACE_OUTER_BOUND('',#1585,.F.);
#1587=ADVANCED_FACE('',(#1586),#1578,.F.);
#1588=CARTESIAN_POINT('',(3.E0,2.E0,3.7E1));
#1589=DIRECTION('',(1.E0,0.E0,0.E0));
#1590=DIRECTION('',(0.E0,0.E0,-1.E0));
#1591=AXIS2_PLACEMENT_3D('',#1588,#1589,#1590);
#1592=PLANE('',#1591);
#1593=ORIENTED_EDGE('',*,*,#847,.T.);
#1595=ORIENTED_EDGE('',*,*,#1594,.F.);
#1596=ORIENTED_EDGE('',*,*,#1458,.F.);
#1597=ORIENTED_EDGE('',*,*,#1580,.T.);
#1598=EDGE_LOOP('',(#1593,#1595,#1596,#1597));
#1599=FACE_OUTER_BOUND('',#1598,.F.);
#1600=ADVANCED_FACE('',(#1599),#1592,.F.);
#1601=CARTESIAN_POINT('',(0.E0,2.E0,2.3E1));
#1602=DIRECTION('',(0.E0,1.E0,0.E0));
#1603=DIRECTION('',(0.E0,0.E0,-1.E0));
#1604=AXIS2_PLACEMENT_3D('',#1601,#1602,#1603);
#1605=CYLINDRICAL_SURFACE('',#1604,3.E0);
#1606=ORIENTED_EDGE('',*,*,#845,.T.);
#1608=ORIENTED_EDGE('',*,*,#1607,.F.);
#1609=ORIENTED_EDGE('',*,*,#1460,.F.);
#1610=ORIENTED_EDGE('',*,*,#1594,.T.);
#1611=EDGE_LOOP('',(#1606,#1608,#1609,#1610));
#1612=FACE_OUTER_BOUND('',#1611,.F.);
#1613=ADVANCED_FACE('',(#1612),#1605,.F.);
#1614=CARTESIAN_POINT('',(-3.E0,2.E0,2.3E1));
#1615=DIRECTION('',(-1.E0,0.E0,0.E0));
#1616=DIRECTION('',(0.E0,0.E0,1.E0));
#1617=AXIS2_PLACEMENT_3D('',#1614,#1615,#1616);
#1618=PLANE('',#1617);
#1619=ORIENTED_EDGE('',*,*,#843,.T.);
#1620=ORIENTED_EDGE('',*,*,#1583,.F.);
#1621=ORIENTED_EDGE('',*,*,#1462,.F.);
#1622=ORIENTED_EDGE('',*,*,#1607,.T.);
#1623=EDGE_LOOP('',(#1619,#1620,#1621,#1622));
#1624=FACE_OUTER_BOUND('',#1623,.F.);
#1625=ADVANCED_FACE('',(#1624),#1618,.F.);
#1629=DIMENSIONAL_EXPONENTS(0.E0,0.E0,0.E0,0.E0,0.E0,0.E0,0.E0);
#1631=PLANE_ANGLE_MEASURE_WITH_UNIT(PLANE_ANGLE_MEASURE(1.745329251994E-2),
#1630);
#1632=(CONVERSION_BASED_UNIT('DEGREE',#1631)NAMED_UNIT(*)PLANE_ANGLE_UNIT());
#1634=UNCERTAINTY_MEASURE_WITH_UNIT(LENGTH_MEASURE(1.306461133961E-2),#1628,
'closure',
'Maximum model space distance between geometric entities at asserted connectivities');
#1635=(GEOMETRIC_REPRESENTATION_CONTEXT(3)GLOBAL_UNCERTAINTY_ASSIGNED_CONTEXT((
#1634))GLOBAL_UNIT_ASSIGNED_CONTEXT((#1628,#1632,#1633))REPRESENTATION_CONTEXT(
'ID1','3'));
#1637=APPLICATION_CONTEXT(
'CONFIGURATION CONTROLLED 3D DESIGNS OF MECHANICAL PARTS AND ASSEMBLIES');
#1638=APPLICATION_PROTOCOL_DEFINITION('international standard',
'config_control_design',1994,#1637);
#1639=DESIGN_CONTEXT('',#1637,'design');
#1640=MECHANICAL_CONTEXT('',#1637,'mechanical');
#1641=PRODUCT('LIANGAN4','LIANGAN4','NOT SPECIFIED',(#1640));
#1642=PRODUCT_DEFINITION_FORMATION_WITH_SPECIFIED_SOURCE('7','LAST_VERSION',
#1641,.MADE.);
#1646=PRODUCT_CATEGORY('part','');
#1647=PRODUCT_RELATED_PRODUCT_CATEGORY('detail','',(#1641));
#1648=PRODUCT_CATEGORY_RELATIONSHIP('','',#1646,#1647);
#1649=SECURITY_CLASSIFICATION_LEVEL('unclassified');
#1650=SECURITY_CLASSIFICATION('','',#1649);
#1651=CC_DESIGN_SECURITY_CLASSIFICATION(#1650,(#1642));
#1652=APPROVAL_STATUS('approved');
#1653=APPROVAL(#1652,'');
#1654=CC_DESIGN_APPROVAL(#1653,(#1650,#1642,#1643));
#1655=CALENDAR_DATE(124,8,4);
#1656=COORDINATED_UNIVERSAL_TIME_OFFSET(8,0,.AHEAD.);
#1657=LOCAL_TIME(9,49,1.2E1,#1656);
#1658=DATE_AND_TIME(#1655,#1657);
#1659=APPROVAL_DATE_TIME(#1658,#1653);
#1660=DATE_TIME_ROLE('creation_date');
#1661=CC_DESIGN_DATE_AND_TIME_ASSIGNMENT(#1658,#1660,(#1643));
#1662=DATE_TIME_ROLE('classification_date');
#1663=CC_DESIGN_DATE_AND_TIME_ASSIGNMENT(#1658,#1662,(#1650));
#1664=PERSON('UNSPECIFIED','UNSPECIFIED',$,$,$,$);
#1665=ORGANIZATION('UNSPECIFIED','UNSPECIFIED','UNSPECIFIED');
#1666=PERSON_AND_ORGANIZATION(#1664,#1665);
#1667=APPROVAL_ROLE('approver');
#1668=APPROVAL_PERSON_ORGANIZATION(#1666,#1653,#1667);
#1669=PERSON_AND_ORGANIZATION_ROLE('creator');
#1670=CC_DESIGN_PERSON_AND_ORGANIZATION_ASSIGNMENT(#1666,#1669,(#1642,#1643));
#1671=PERSON_AND_ORGANIZATION_ROLE('design_supplier');
#1672=CC_DESIGN_PERSON_AND_ORGANIZATION_ASSIGNMENT(#1666,#1671,(#1642));
#1673=PERSON_AND_ORGANIZATION_ROLE('classification_officer');
#1674=CC_DESIGN_PERSON_AND_ORGANIZATION_ASSIGNMENT(#1666,#1673,(#1650));
#1675=PERSON_AND_ORGANIZATION_ROLE('design_owner');
#1676=CC_DESIGN_PERSON_AND_ORGANIZATION_ASSIGNMENT(#1666,#1675,(#1641));
#6=CIRCLE('',#5,8.E0);
#11=CIRCLE('',#10,8.E0);
#16=CIRCLE('',#15,1.75E1);
#25=CIRCLE('',#24,1.2E1);
#34=CIRCLE('',#33,6.5E0);
#39=CIRCLE('',#38,6.5E0);
#44=CIRCLE('',#43,1.5E0);
#49=CIRCLE('',#48,1.5E0);
#54=CIRCLE('',#53,1.5E0);
#59=CIRCLE('',#58,1.5E0);
#64=CIRCLE('',#63,1.5E0);
#69=CIRCLE('',#68,1.5E0);
#74=CIRCLE('',#73,1.5E0);
#79=CIRCLE('',#78,1.5E0);
#84=CIRCLE('',#83,1.5E0);
#89=CIRCLE('',#88,1.5E0);
#94=CIRCLE('',#93,1.5E0);
#99=CIRCLE('',#98,1.5E0);
#104=CIRCLE('',#103,3.E0);
#113=CIRCLE('',#112,3.E0);
#122=CIRCLE('',#121,3.E0);
#131=CIRCLE('',#130,3.E0);
#148=CIRCLE('',#147,8.E0);
#153=CIRCLE('',#152,8.E0);
#158=CIRCLE('',#157,6.5E0);
#163=CIRCLE('',#162,6.5E0);
#168=CIRCLE('',#167,2.75E0);
#173=CIRCLE('',#172,2.75E0);
#178=CIRCLE('',#177,2.75E0);
#183=CIRCLE('',#182,2.75E0);
#188=CIRCLE('',#187,2.75E0);
#193=CIRCLE('',#192,2.75E0);
#198=CIRCLE('',#197,2.75E0);
#203=CIRCLE('',#202,2.75E0);
#208=CIRCLE('',#207,2.75E0);
#213=CIRCLE('',#212,2.75E0);
#218=CIRCLE('',#217,2.75E0);
#223=CIRCLE('',#222,2.75E0);
#228=CIRCLE('',#227,1.2E1);
#233=CIRCLE('',#232,1.75E1);
#254=CIRCLE('',#253,2.75E0);
#259=CIRCLE('',#258,2.75E0);
#264=CIRCLE('',#263,1.5E0);
#273=CIRCLE('',#272,1.5E0);
#290=CIRCLE('',#289,2.75E0);
#295=CIRCLE('',#294,2.75E0);
#300=CIRCLE('',#299,1.5E0);
#309=CIRCLE('',#308,1.5E0);
#326=CIRCLE('',#325,2.75E0);
#331=CIRCLE('',#330,2.75E0);
#336=CIRCLE('',#335,1.5E0);
#345=CIRCLE('',#344,1.5E0);
#362=CIRCLE('',#361,2.75E0);
#367=CIRCLE('',#366,2.75E0);
#372=CIRCLE('',#371,1.5E0);
#381=CIRCLE('',#380,1.5E0);
#398=CIRCLE('',#397,2.75E0);
#403=CIRCLE('',#402,2.75E0);
#408=CIRCLE('',#407,1.5E0);
#417=CIRCLE('',#416,1.5E0);
#434=CIRCLE('',#433,2.75E0);
#439=CIRCLE('',#438,2.75E0);
#444=CIRCLE('',#443,1.5E0);
#453=CIRCLE('',#452,1.5E0);
#462=CIRCLE('',#461,1.2E1);
#479=CIRCLE('',#478,1.75E1);
#484=CIRCLE('',#483,1.75E1);
#489=CIRCLE('',#488,1.2E1);
#494=CIRCLE('',#493,1.2E1);
#499=CIRCLE('',#498,3.E0);
#508=CIRCLE('',#507,3.E0);
#517=CIRCLE('',#516,3.E0);
#526=CIRCLE('',#525,3.E0);
#547=CIRCLE('',#546,1.75E1);
#773=EDGE_CURVE('',#602,#603,#16,.T.);
#775=EDGE_CURVE('',#603,#610,#20,.T.);
#777=EDGE_CURVE('',#610,#611,#25,.T.);
#779=EDGE_CURVE('',#611,#602,#29,.T.);
#783=EDGE_CURVE('',#598,#599,#6,.T.);
#785=EDGE_CURVE('',#599,#598,#11,.T.);
#789=EDGE_CURVE('',#615,#619,#34,.T.);
#791=EDGE_CURVE('',#619,#615,#39,.T.);
#795=EDGE_CURVE('',#622,#623,#44,.T.);
#797=EDGE_CURVE('',#623,#622,#49,.T.);
#801=EDGE_CURVE('',#626,#627,#54,.T.);
#803=EDGE_CURVE('',#627,#626,#59,.T.);
#807=EDGE_CURVE('',#630,#631,#64,.T.);
#809=EDGE_CURVE('',#631,#630,#69,.T.);
#813=EDGE_CURVE('',#634,#635,#74,.T.);
#815=EDGE_CURVE('',#635,#634,#79,.T.);
#819=EDGE_CURVE('',#638,#639,#84,.T.);
#821=EDGE_CURVE('',#639,#638,#89,.T.);
#825=EDGE_CURVE('',#642,#643,#94,.T.);
#827=EDGE_CURVE('',#643,#642,#99,.T.);
#831=EDGE_CURVE('',#738,#739,#104,.T.);
#833=EDGE_CURVE('',#743,#738,#108,.T.);
#835=EDGE_CURVE('',#741,#743,#113,.T.);
#837=EDGE_CURVE('',#739,#741,#117,.T.);
#841=EDGE_CURVE('',#754,#755,#122,.T.);
#843=EDGE_CURVE('',#759,#754,#126,.T.);
#845=EDGE_CURVE('',#757,#759,#131,.T.);
#847=EDGE_CURVE('',#755,#757,#135,.T.);
#858=EDGE_CURVE('',#598,#606,#139,.T.);
#860=EDGE_CURVE('',#606,#607,#148,.T.);
#862=EDGE_CURVE('',#599,#607,#143,.T.);
#874=EDGE_CURVE('',#607,#606,#153,.T.);
#885=EDGE_CURVE('',#719,#718,#462,.T.);
#887=EDGE_CURVE('',#718,#719,#228,.T.);
#891=EDGE_CURVE('',#614,#618,#158,.T.);
#893=EDGE_CURVE('',#618,#614,#163,.T.);
#903=EDGE_CURVE('',#723,#722,#547,.T.);
#905=EDGE_CURVE('',#722,#723,#233,.T.);
#913=EDGE_CURVE('',#650,#651,#168,.T.);
#915=EDGE_CURVE('',#651,#650,#173,.T.);
#919=EDGE_CURVE('',#662,#663,#178,.T.);
#921=EDGE_CURVE('',#663,#662,#183,.T.);
#925=EDGE_CURVE('',#674,#675,#188,.T.);
#927=EDGE_CURVE('',#675,#674,#193,.T.);
#931=EDGE_CURVE('',#686,#687,#198,.T.);
#933=EDGE_CURVE('',#687,#686,#203,.T.);
#937=EDGE_CURVE('',#698,#699,#208,.T.);
#939=EDGE_CURVE('',#699,#698,#213,.T.);
#943=EDGE_CURVE('',#710,#711,#218,.T.);
#945=EDGE_CURVE('',#711,#710,#223,.T.);
#955=EDGE_CURVE('',#614,#615,#237,.T.);
#958=EDGE_CURVE('',#618,#619,#241,.T.);
#982=EDGE_CURVE('',#650,#646,#245,.T.);
#984=EDGE_CURVE('',#646,#647,#254,.T.);
#986=EDGE_CURVE('',#651,#647,#249,.T.);
#998=EDGE_CURVE('',#647,#646,#259,.T.);
#1013=EDGE_CURVE('',#654,#655,#264,.T.);
#1015=EDGE_CURVE('',#655,#654,#273,.T.);
#1026=EDGE_CURVE('',#623,#655,#277,.T.);
#1029=EDGE_CURVE('',#622,#654,#268,.T.);
#1052=EDGE_CURVE('',#662,#658,#281,.T.);
#1054=EDGE_CURVE('',#658,#659,#290,.T.);
#1056=EDGE_CURVE('',#663,#659,#285,.T.);
#1068=EDGE_CURVE('',#659,#658,#295,.T.);
#1083=EDGE_CURVE('',#666,#667,#300,.T.);
#1085=EDGE_CURVE('',#667,#666,#309,.T.);
#1096=EDGE_CURVE('',#627,#667,#313,.T.);
#1099=EDGE_CURVE('',#626,#666,#304,.T.);
#1122=EDGE_CURVE('',#674,#670,#317,.T.);
#1124=EDGE_CURVE('',#670,#671,#326,.T.);
#1126=EDGE_CURVE('',#675,#671,#321,.T.);
#1138=EDGE_CURVE('',#671,#670,#331,.T.);
#1153=EDGE_CURVE('',#678,#679,#336,.T.);
#1155=EDGE_CURVE('',#679,#678,#345,.T.);
#1166=EDGE_CURVE('',#631,#679,#349,.T.);
#1169=EDGE_CURVE('',#630,#678,#340,.T.);
#1192=EDGE_CURVE('',#686,#682,#353,.T.);
#1194=EDGE_CURVE('',#682,#683,#362,.T.);
#1196=EDGE_CURVE('',#687,#683,#357,.T.);
#1208=EDGE_CURVE('',#683,#682,#367,.T.);
#1223=EDGE_CURVE('',#690,#691,#372,.T.);
#1225=EDGE_CURVE('',#691,#690,#381,.T.);
#1236=EDGE_CURVE('',#635,#691,#385,.T.);
#1239=EDGE_CURVE('',#634,#690,#376,.T.);
#1262=EDGE_CURVE('',#698,#694,#389,.T.);
#1264=EDGE_CURVE('',#694,#695,#398,.T.);
#1266=EDGE_CURVE('',#699,#695,#393,.T.);
#1278=EDGE_CURVE('',#695,#694,#403,.T.);
#1293=EDGE_CURVE('',#702,#703,#408,.T.);
#1295=EDGE_CURVE('',#703,#702,#417,.T.);
#1306=EDGE_CURVE('',#639,#703,#421,.T.);
#1309=EDGE_CURVE('',#638,#702,#412,.T.);
#1332=EDGE_CURVE('',#710,#706,#425,.T.);
#1334=EDGE_CURVE('',#706,#707,#434,.T.);
#1336=EDGE_CURVE('',#711,#707,#429,.T.);
#1348=EDGE_CURVE('',#707,#706,#439,.T.);
#1363=EDGE_CURVE('',#714,#715,#444,.T.);
#1365=EDGE_CURVE('',#715,#714,#453,.T.);
#1376=EDGE_CURVE('',#643,#715,#457,.T.);
#1379=EDGE_CURVE('',#642,#714,#448,.T.);
#1402=EDGE_CURVE('',#718,#733,#466,.T.);
#1404=EDGE_CURVE('',#733,#730,#489,.T.);
#1406=EDGE_CURVE('',#611,#730,#559,.T.);
#1409=EDGE_CURVE('',#610,#727,#470,.T.);
#1411=EDGE_CURVE('',#727,#719,#474,.T.);
#1423=EDGE_CURVE('',#727,#733,#494,.T.);
#1434=EDGE_CURVE('',#726,#727,#534,.T.);
#1436=EDGE_CURVE('',#735,#726,#479,.T.);
#1438=EDGE_CURVE('',#731,#735,#484,.T.);
#1440=EDGE_CURVE('',#730,#731,#555,.T.);
#1446=EDGE_CURVE('',#746,#747,#499,.T.);
#1448=EDGE_CURVE('',#747,#749,#503,.T.);
#1450=EDGE_CURVE('',#749,#751,#508,.T.);
#1452=EDGE_CURVE('',#751,#746,#512,.T.);
#1456=EDGE_CURVE('',#762,#763,#517,.T.);
#1458=EDGE_CURVE('',#763,#765,#521,.T.);
#1460=EDGE_CURVE('',#765,#767,#526,.T.);
#1462=EDGE_CURVE('',#767,#762,#530,.T.);
#1475=EDGE_CURVE('',#603,#726,#538,.T.);
#1485=EDGE_CURVE('',#602,#731,#542,.T.);
#1488=EDGE_CURVE('',#723,#735,#563,.T.);
#1491=EDGE_CURVE('',#726,#722,#551,.T.);
#1528=EDGE_CURVE('',#747,#739,#571,.T.);
#1531=EDGE_CURVE('',#746,#738,#567,.T.);
#1542=EDGE_CURVE('',#749,#741,#575,.T.);
#1555=EDGE_CURVE('',#751,#743,#579,.T.);
#1580=EDGE_CURVE('',#763,#755,#587,.T.);
#1583=EDGE_CURVE('',#762,#754,#583,.T.);
#1594=EDGE_CURVE('',#765,#757,#591,.T.);
#1607=EDGE_CURVE('',#767,#759,#595,.T.);
#1626=CLOSED_SHELL('',(#851,#866,#879,#897,#949,#963,#975,#990,#1003,#1019,
#1033,#1045,#1060,#1073,#1089,#1103,#1115,#1130,#1143,#1159,#1173,#1185,#1200,
#1213,#1229,#1243,#1255,#1270,#1283,#1299,#1313,#1325,#1340,#1353,#1369,#1383,
#1395,#1415,#1428,#1466,#1479,#1497,#1509,#1521,#1535,#1548,#1561,#1573,#1587,
#1600,#1613,#1625));
#1627=MANIFOLD_SOLID_BREP('',#1626);
#1628=(LENGTH_UNIT()NAMED_UNIT(*)SI_UNIT(.MILLI.,.METRE.));
#1630=(NAMED_UNIT(*)PLANE_ANGLE_UNIT()SI_UNIT($,.RADIAN.));
#1633=(NAMED_UNIT(*)SI_UNIT($,.STERADIAN.)SOLID_ANGLE_UNIT());
#1636=ADVANCED_BREP_SHAPE_REPRESENTATION('',(#1627),#1635);
#1643=PRODUCT_DEFINITION('design','',#1642,#1639);
#1644=PRODUCT_DEFINITION_SHAPE('','SHAPE FOR LIANGAN4.',#1643);
#1645=SHAPE_DEFINITION_REPRESENTATION(#1644,#1636);
ENDSEC;
END-ISO-10303-21;
