ISO-10303-21;
HEADER;
FILE_DESCRIPTION((''),'2;1');
FILE_NAME('LIANGAN3','2024-04-08T09:45:14',('005'),(''),
'CREO PARAMETRIC BY PTC INC, 2020053','CREO PARAMETRIC BY PTC INC, 2020053','');
FILE_SCHEMA(('CONFIG_CONTROL_DESIGN'));
ENDSEC;
DATA;
#2=CARTESIAN_POINT('',(0.E0,-3.E0,0.E0));
#3=DIRECTION('',(0.E0,-1.E0,0.E0));
#4=DIRECTION('',(-1.E0,0.E0,0.E0));
#5=AXIS2_PLACEMENT_3D('',#2,#3,#4);
#7=CARTESIAN_POINT('',(0.E0,-3.E0,0.E0));
#8=DIRECTION('',(0.E0,-1.E0,0.E0));
#9=DIRECTION('',(1.E0,0.E0,0.E0));
#10=AXIS2_PLACEMENT_3D('',#7,#8,#9);
#12=CARTESIAN_POINT('',(0.E0,-3.E0,8.4E1));
#13=DIRECTION('',(0.E0,-1.E0,0.E0));
#14=DIRECTION('',(1.E0,0.E0,0.E0));
#15=AXIS2_PLACEMENT_3D('',#12,#13,#14);
#17=CARTESIAN_POINT('',(0.E0,-3.E0,8.4E1));
#18=DIRECTION('',(0.E0,-1.E0,0.E0));
#19=DIRECTION('',(-1.E0,0.E0,0.E0));
#20=AXIS2_PLACEMENT_3D('',#17,#18,#19);
#22=CARTESIAN_POINT('',(0.E0,-3.E0,1.35E1));
#23=DIRECTION('',(0.E0,-1.E0,0.E0));
#24=DIRECTION('',(1.E0,0.E0,0.E0));
#25=AXIS2_PLACEMENT_3D('',#22,#23,#24);
#27=CARTESIAN_POINT('',(0.E0,-3.E0,1.35E1));
#28=DIRECTION('',(0.E0,-1.E0,0.E0));
#29=DIRECTION('',(-1.E0,0.E0,0.E0));
#30=AXIS2_PLACEMENT_3D('',#27,#28,#29);
#32=CARTESIAN_POINT('',(1.169134295109E1,-3.E0,6.75E0));
#33=DIRECTION('',(0.E0,-1.E0,0.E0));
#34=DIRECTION('',(5.E-1,0.E0,-8.660254037844E-1));
#35=AXIS2_PLACEMENT_3D('',#32,#33,#34);
#37=CARTESIAN_POINT('',(1.169134295109E1,-3.E0,6.75E0));
#38=DIRECTION('',(0.E0,-1.E0,0.E0));
#39=DIRECTION('',(-5.E-1,0.E0,8.660254037844E-1));
#40=AXIS2_PLACEMENT_3D('',#37,#38,#39);
#42=CARTESIAN_POINT('',(1.169134295109E1,-3.E0,-6.75E0));
#43=DIRECTION('',(0.E0,-1.E0,0.E0));
#44=DIRECTION('',(-5.E-1,0.E0,-8.660254037844E-1));
#45=AXIS2_PLACEMENT_3D('',#42,#43,#44);
#47=CARTESIAN_POINT('',(1.169134295109E1,-3.E0,-6.75E0));
#48=DIRECTION('',(0.E0,-1.E0,0.E0));
#49=DIRECTION('',(5.E-1,0.E0,8.660254037844E-1));
#50=AXIS2_PLACEMENT_3D('',#47,#48,#49);
#52=CARTESIAN_POINT('',(0.E0,-3.E0,-1.35E1));
#53=DIRECTION('',(0.E0,-1.E0,0.E0));
#54=DIRECTION('',(-1.E0,0.E0,0.E0));
#55=AXIS2_PLACEMENT_3D('',#52,#53,#54);
#57=CARTESIAN_POINT('',(0.E0,-3.E0,-1.35E1));
#58=DIRECTION('',(0.E0,-1.E0,0.E0));
#59=DIRECTION('',(1.E0,0.E0,0.E0));
#60=AXIS2_PLACEMENT_3D('',#57,#58,#59);
#62=CARTESIAN_POINT('',(-1.169134295109E1,-3.E0,-6.75E0));
#63=DIRECTION('',(0.E0,-1.E0,0.E0));
#64=DIRECTION('',(-5.E-1,0.E0,8.660254037844E-1));
#65=AXIS2_PLACEMENT_3D('',#62,#63,#64);
#67=CARTESIAN_POINT('',(-1.169134295109E1,-3.E0,-6.75E0));
#68=DIRECTION('',(0.E0,-1.E0,0.E0));
#69=DIRECTION('',(5.E-1,0.E0,-8.660254037844E-1));
#70=AXIS2_PLACEMENT_3D('',#67,#68,#69);
#72=CARTESIAN_POINT('',(-1.169134295109E1,-3.E0,6.75E0));
#73=DIRECTION('',(0.E0,-1.E0,0.E0));
#74=DIRECTION('',(5.E-1,0.E0,8.660254037844E-1));
#75=AXIS2_PLACEMENT_3D('',#72,#73,#74);
#77=CARTESIAN_POINT('',(-1.169134295109E1,-3.E0,6.75E0));
#78=DIRECTION('',(0.E0,-1.E0,0.E0));
#79=DIRECTION('',(-5.E-1,0.E0,-8.660254037844E-1));
#80=AXIS2_PLACEMENT_3D('',#77,#78,#79);
#82=CARTESIAN_POINT('',(0.E0,-3.E0,8.4E1));
#83=DIRECTION('',(0.E0,-1.E0,0.E0));
#84=DIRECTION('',(0.E0,0.E0,-1.E0));
#85=AXIS2_PLACEMENT_3D('',#82,#83,#84);
#87=CARTESIAN_POINT('',(0.E0,-3.E0,0.E0));
#88=DIRECTION('',(0.E0,-1.E0,0.E0));
#89=DIRECTION('',(9.978541318653E-1,0.E0,6.547619047619E-2));
#90=AXIS2_PLACEMENT_3D('',#87,#88,#89);
#92=DIRECTION('',(0.E0,1.E0,0.E0));
#93=VECTOR('',#92,6.E0);
#94=CARTESIAN_POINT('',(-8.E0,-3.E0,0.E0));
#95=LINE('',#94,#93);
#96=DIRECTION('',(0.E0,1.E0,0.E0));
#97=VECTOR('',#96,6.E0);
#98=CARTESIAN_POINT('',(8.E0,-3.E0,0.E0));
#99=LINE('',#98,#97);
#100=CARTESIAN_POINT('',(0.E0,3.E0,0.E0));
#101=DIRECTION('',(0.E0,1.E0,0.E0));
#102=DIRECTION('',(9.978541318653E-1,0.E0,6.547619047619E-2));
#103=AXIS2_PLACEMENT_3D('',#100,#101,#102);
#105=DIRECTION('',(6.547619047619E-2,0.E0,-9.978541318653E-1));
#106=VECTOR('',#105,8.381974707669E1);
#107=CARTESIAN_POINT('',(1.197424958238E1,3.E0,8.478571428571E1));
#108=LINE('',#107,#106);
#109=CARTESIAN_POINT('',(0.E0,3.E0,8.4E1));
#110=DIRECTION('',(0.E0,1.E0,0.E0));
#111=DIRECTION('',(-9.978541318653E-1,0.E0,6.547619047619E-2));
#112=AXIS2_PLACEMENT_3D('',#109,#110,#111);
#114=DIRECTION('',(6.547619047619E-2,0.E0,9.978541318653E-1));
#115=VECTOR('',#114,8.381974707669E1);
#116=CARTESIAN_POINT('',(-1.746244730764E1,3.E0,1.145833333333E0));
#117=LINE('',#116,#115);
#118=CARTESIAN_POINT('',(0.E0,3.E0,0.E0));
#119=DIRECTION('',(0.E0,-1.E0,0.E0));
#120=DIRECTION('',(-1.E0,0.E0,0.E0));
#121=AXIS2_PLACEMENT_3D('',#118,#119,#120);
#123=CARTESIAN_POINT('',(0.E0,3.E0,0.E0));
#124=DIRECTION('',(0.E0,-1.E0,0.E0));
#125=DIRECTION('',(1.E0,0.E0,0.E0));
#126=AXIS2_PLACEMENT_3D('',#123,#124,#125);
#128=CARTESIAN_POINT('',(0.E0,3.E0,8.4E1));
#129=DIRECTION('',(0.E0,1.E0,0.E0));
#130=DIRECTION('',(-1.E0,0.E0,0.E0));
#131=AXIS2_PLACEMENT_3D('',#128,#129,#130);
#133=CARTESIAN_POINT('',(0.E0,3.E0,8.4E1));
#134=DIRECTION('',(0.E0,1.E0,0.E0));
#135=DIRECTION('',(1.E0,0.E0,0.E0));
#136=AXIS2_PLACEMENT_3D('',#133,#134,#135);
#138=CARTESIAN_POINT('',(0.E0,3.E0,1.35E1));
#139=DIRECTION('',(0.E0,1.E0,0.E0));
#140=DIRECTION('',(-1.E0,0.E0,0.E0));
#141=AXIS2_PLACEMENT_3D('',#138,#139,#140);
#143=CARTESIAN_POINT('',(0.E0,3.E0,1.35E1));
#144=DIRECTION('',(0.E0,1.E0,0.E0));
#145=DIRECTION('',(1.E0,0.E0,0.E0));
#146=AXIS2_PLACEMENT_3D('',#143,#144,#145);
#148=CARTESIAN_POINT('',(1.169134295109E1,3.E0,6.75E0));
#149=DIRECTION('',(0.E0,1.E0,0.E0));
#150=DIRECTION('',(-5.E-1,0.E0,8.660254037844E-1));
#151=AXIS2_PLACEMENT_3D('',#148,#149,#150);
#153=CARTESIAN_POINT('',(1.169134295109E1,3.E0,6.75E0));
#154=DIRECTION('',(0.E0,1.E0,0.E0));
#155=DIRECTION('',(5.E-1,0.E0,-8.660254037844E-1));
#156=AXIS2_PLACEMENT_3D('',#153,#154,#155);
#158=CARTESIAN_POINT('',(1.169134295109E1,3.E0,-6.75E0));
#159=DIRECTION('',(0.E0,1.E0,0.E0));
#160=DIRECTION('',(5.E-1,0.E0,8.660254037844E-1));
#161=AXIS2_PLACEMENT_3D('',#158,#159,#160);
#163=CARTESIAN_POINT('',(1.169134295109E1,3.E0,-6.75E0));
#164=DIRECTION('',(0.E0,1.E0,0.E0));
#165=DIRECTION('',(-5.E-1,0.E0,-8.660254037844E-1));
#166=AXIS2_PLACEMENT_3D('',#163,#164,#165);
#168=CARTESIAN_POINT('',(0.E0,3.E0,-1.35E1));
#169=DIRECTION('',(0.E0,1.E0,0.E0));
#170=DIRECTION('',(1.E0,0.E0,0.E0));
#171=AXIS2_PLACEMENT_3D('',#168,#169,#170);
#173=CARTESIAN_POINT('',(0.E0,3.E0,-1.35E1));
#174=DIRECTION('',(0.E0,1.E0,0.E0));
#175=DIRECTION('',(-1.E0,0.E0,0.E0));
#176=AXIS2_PLACEMENT_3D('',#173,#174,#175);
#178=CARTESIAN_POINT('',(-1.169134295109E1,3.E0,-6.75E0));
#179=DIRECTION('',(0.E0,1.E0,0.E0));
#180=DIRECTION('',(5.E-1,0.E0,-8.660254037844E-1));
#181=AXIS2_PLACEMENT_3D('',#178,#179,#180);
#183=CARTESIAN_POINT('',(-1.169134295109E1,3.E0,-6.75E0));
#184=DIRECTION('',(0.E0,1.E0,0.E0));
#185=DIRECTION('',(-5.E-1,0.E0,8.660254037844E-1));
#186=AXIS2_PLACEMENT_3D('',#183,#184,#185);
#188=CARTESIAN_POINT('',(-1.169134295109E1,3.E0,6.75E0));
#189=DIRECTION('',(0.E0,1.E0,0.E0));
#190=DIRECTION('',(-5.E-1,0.E0,-8.660254037844E-1));
#191=AXIS2_PLACEMENT_3D('',#188,#189,#190);
#193=CARTESIAN_POINT('',(-1.169134295109E1,3.E0,6.75E0));
#194=DIRECTION('',(0.E0,1.E0,0.E0));
#195=DIRECTION('',(5.E-1,0.E0,8.660254037844E-1));
#196=AXIS2_PLACEMENT_3D('',#193,#194,#195);
#198=CARTESIAN_POINT('',(0.E0,3.E0,6.7E1));
#199=DIRECTION('',(0.E0,-1.E0,0.E0));
#200=DIRECTION('',(1.E0,0.E0,0.E0));
#201=AXIS2_PLACEMENT_3D('',#198,#199,#200);
#203=DIRECTION('',(0.E0,0.E0,1.E0));
#204=VECTOR('',#203,1.4E1);
#205=CARTESIAN_POINT('',(3.E0,3.E0,5.3E1));
#206=LINE('',#205,#204);
#207=CARTESIAN_POINT('',(0.E0,3.E0,5.3E1));
#208=DIRECTION('',(0.E0,-1.E0,0.E0));
#209=DIRECTION('',(-1.E0,0.E0,0.E0));
#210=AXIS2_PLACEMENT_3D('',#207,#208,#209);
#212=DIRECTION('',(0.E0,0.E0,-1.E0));
#213=VECTOR('',#212,1.4E1);
#214=CARTESIAN_POINT('',(-3.E0,3.E0,6.7E1));
#215=LINE('',#214,#213);
#216=CARTESIAN_POINT('',(0.E0,3.E0,3.7E1));
#217=DIRECTION('',(0.E0,-1.E0,0.E0));
#218=DIRECTION('',(1.E0,0.E0,0.E0));
#219=AXIS2_PLACEMENT_3D('',#216,#217,#218);
#221=DIRECTION('',(0.E0,0.E0,1.E0));
#222=VECTOR('',#221,1.4E1);
#223=CARTESIAN_POINT('',(3.E0,3.E0,2.3E1));
#224=LINE('',#223,#222);
#225=CARTESIAN_POINT('',(0.E0,3.E0,2.3E1));
#226=DIRECTION('',(0.E0,-1.E0,0.E0));
#227=DIRECTION('',(-1.E0,0.E0,0.E0));
#228=AXIS2_PLACEMENT_3D('',#225,#226,#227);
#230=DIRECTION('',(0.E0,0.E0,-1.E0));
#231=VECTOR('',#230,1.4E1);
#232=CARTESIAN_POINT('',(-3.E0,3.E0,3.7E1));
#233=LINE('',#232,#231);
#234=CARTESIAN_POINT('',(0.E0,-3.E0,0.E0));
#235=DIRECTION('',(0.E0,-1.E0,0.E0));
#236=DIRECTION('',(0.E0,0.E0,1.E0));
#237=AXIS2_PLACEMENT_3D('',#234,#235,#236);
#239=DIRECTION('',(0.E0,-1.E0,0.E0));
#240=VECTOR('',#239,1.E0);
#241=CARTESIAN_POINT('',(1.746244730764E1,-2.E0,1.145833333333E0));
#242=LINE('',#241,#240);
#243=DIRECTION('',(0.E0,1.E0,0.E0));
#244=VECTOR('',#243,5.E0);
#245=CARTESIAN_POINT('',(1.746244730764E1,-2.E0,1.145833333333E0));
#246=LINE('',#245,#244);
#247=DIRECTION('',(6.547619047619E-2,0.E0,9.978541318653E-1));
#248=VECTOR('',#247,8.381974707669E1);
#249=CARTESIAN_POINT('',(-1.746244730764E1,-2.E0,1.145833333333E0));
#250=LINE('',#249,#248);
#251=DIRECTION('',(0.E0,1.E0,0.E0));
#252=VECTOR('',#251,5.E0);
#253=CARTESIAN_POINT('',(-1.746244730764E1,-2.E0,1.145833333333E0));
#254=LINE('',#253,#252);
#255=CARTESIAN_POINT('',(0.E0,-2.E0,8.4E1));
#256=DIRECTION('',(0.E0,1.E0,0.E0));
#257=DIRECTION('',(0.E0,0.E0,-1.E0));
#258=AXIS2_PLACEMENT_3D('',#255,#256,#257);
#260=CARTESIAN_POINT('',(0.E0,-2.E0,8.4E1));
#261=DIRECTION('',(0.E0,1.E0,0.E0));
#262=DIRECTION('',(9.978541318653E-1,0.E0,6.547619047619E-2));
#263=AXIS2_PLACEMENT_3D('',#260,#261,#262);
#265=CARTESIAN_POINT('',(0.E0,-2.E0,0.E0));
#266=DIRECTION('',(0.E0,1.E0,0.E0));
#267=DIRECTION('',(0.E0,0.E0,1.E0));
#268=AXIS2_PLACEMENT_3D('',#265,#266,#267);
#270=CARTESIAN_POINT('',(0.E0,-2.E0,0.E0));
#271=DIRECTION('',(0.E0,1.E0,0.E0));
#272=DIRECTION('',(-9.978541318653E-1,0.E0,6.547619047619E-2));
#273=AXIS2_PLACEMENT_3D('',#270,#271,#272);
#275=CARTESIAN_POINT('',(0.E0,-2.E0,6.7E1));
#276=DIRECTION('',(0.E0,-1.E0,0.E0));
#277=DIRECTION('',(1.E0,0.E0,0.E0));
#278=AXIS2_PLACEMENT_3D('',#275,#276,#277);
#280=DIRECTION('',(0.E0,0.E0,-1.E0));
#281=VECTOR('',#280,1.4E1);
#282=CARTESIAN_POINT('',(-3.E0,-2.E0,6.7E1));
#283=LINE('',#282,#281);
#284=CARTESIAN_POINT('',(0.E0,-2.E0,5.3E1));
#285=DIRECTION('',(0.E0,-1.E0,0.E0));
#286=DIRECTION('',(-1.E0,0.E0,0.E0));
#287=AXIS2_PLACEMENT_3D('',#284,#285,#286);
#289=DIRECTION('',(0.E0,0.E0,1.E0));
#290=VECTOR('',#289,1.4E1);
#291=CARTESIAN_POINT('',(3.E0,-2.E0,5.3E1));
#292=LINE('',#291,#290);
#293=CARTESIAN_POINT('',(0.E0,-2.E0,3.7E1));
#294=DIRECTION('',(0.E0,-1.E0,0.E0));
#295=DIRECTION('',(1.E0,0.E0,0.E0));
#296=AXIS2_PLACEMENT_3D('',#293,#294,#295);
#298=DIRECTION('',(0.E0,0.E0,-1.E0));
#299=VECTOR('',#298,1.4E1);
#300=CARTESIAN_POINT('',(-3.E0,-2.E0,3.7E1));
#301=LINE('',#300,#299);
#302=CARTESIAN_POINT('',(0.E0,-2.E0,2.3E1));
#303=DIRECTION('',(0.E0,-1.E0,0.E0));
#304=DIRECTION('',(-1.E0,0.E0,0.E0));
#305=AXIS2_PLACEMENT_3D('',#302,#303,#304);
#307=DIRECTION('',(0.E0,0.E0,1.E0));
#308=VECTOR('',#307,1.4E1);
#309=CARTESIAN_POINT('',(3.E0,-2.E0,2.3E1));
#310=LINE('',#309,#308);
#311=CARTESIAN_POINT('',(0.E0,-3.E0,8.4E1));
#312=DIRECTION('',(0.E0,-1.E0,0.E0));
#313=DIRECTION('',(9.978541318653E-1,0.E0,6.547619047619E-2));
#314=AXIS2_PLACEMENT_3D('',#311,#312,#313);
#316=DIRECTION('',(0.E0,1.E0,0.E0));
#317=VECTOR('',#316,1.E0);
#318=CARTESIAN_POINT('',(0.E0,-3.E0,7.2E1));
#319=LINE('',#318,#317);
#320=DIRECTION('',(0.E0,1.E0,0.E0));
#321=VECTOR('',#320,5.E0);
#322=CARTESIAN_POINT('',(-1.197424958238E1,-2.E0,8.478571428571E1));
#323=LINE('',#322,#321);
#324=DIRECTION('',(0.E0,-1.E0,0.E0));
#325=VECTOR('',#324,1.E0);
#326=CARTESIAN_POINT('',(1.197424958238E1,-2.E0,8.478571428571E1));
#327=LINE('',#326,#325);
#328=DIRECTION('',(6.547619047619E-2,0.E0,-9.978541318653E-1));
#329=VECTOR('',#328,8.381974707669E1);
#330=CARTESIAN_POINT('',(1.197424958238E1,-2.E0,8.478571428571E1));
#331=LINE('',#330,#329);
#332=DIRECTION('',(0.E0,1.E0,0.E0));
#333=VECTOR('',#332,5.E0);
#334=CARTESIAN_POINT('',(1.197424958238E1,-2.E0,8.478571428571E1));
#335=LINE('',#334,#333);
#336=DIRECTION('',(0.E0,1.E0,0.E0));
#337=VECTOR('',#336,1.E0);
#338=CARTESIAN_POINT('',(0.E0,-3.E0,1.75E1));
#339=LINE('',#338,#337);
#340=DIRECTION('',(0.E0,1.E0,0.E0));
#341=VECTOR('',#340,5.E0);
#342=CARTESIAN_POINT('',(3.E0,-2.E0,6.7E1));
#343=LINE('',#342,#341);
#344=DIRECTION('',(0.E0,1.E0,0.E0));
#345=VECTOR('',#344,5.E0);
#346=CARTESIAN_POINT('',(-3.E0,-2.E0,6.7E1));
#347=LINE('',#346,#345);
#348=DIRECTION('',(0.E0,1.E0,0.E0));
#349=VECTOR('',#348,5.E0);
#350=CARTESIAN_POINT('',(-3.E0,-2.E0,5.3E1));
#351=LINE('',#350,#349);
#352=DIRECTION('',(0.E0,1.E0,0.E0));
#353=VECTOR('',#352,5.E0);
#354=CARTESIAN_POINT('',(3.E0,-2.E0,5.3E1));
#355=LINE('',#354,#353);
#356=DIRECTION('',(0.E0,1.E0,0.E0));
#357=VECTOR('',#356,5.E0);
#358=CARTESIAN_POINT('',(3.E0,-2.E0,3.7E1));
#359=LINE('',#358,#357);
#360=DIRECTION('',(0.E0,1.E0,0.E0));
#361=VECTOR('',#360,5.E0);
#362=CARTESIAN_POINT('',(-3.E0,-2.E0,3.7E1));
#363=LINE('',#362,#361);
#364=DIRECTION('',(0.E0,1.E0,0.E0));
#365=VECTOR('',#364,5.E0);
#366=CARTESIAN_POINT('',(-3.E0,-2.E0,2.3E1));
#367=LINE('',#366,#365);
#368=DIRECTION('',(0.E0,1.E0,0.E0));
#369=VECTOR('',#368,5.E0);
#370=CARTESIAN_POINT('',(3.E0,-2.E0,2.3E1));
#371=LINE('',#370,#369);
#372=DIRECTION('',(0.E0,-1.E0,0.E0));
#373=VECTOR('',#372,6.E0);
#374=CARTESIAN_POINT('',(-6.5E0,3.E0,8.4E1));
#375=LINE('',#374,#373);
#376=DIRECTION('',(0.E0,-1.E0,0.E0));
#377=VECTOR('',#376,6.E0);
#378=CARTESIAN_POINT('',(6.5E0,3.E0,8.4E1));
#379=LINE('',#378,#377);
#380=CARTESIAN_POINT('',(0.E0,0.E0,1.35E1));
#381=DIRECTION('',(0.E0,1.E0,0.E0));
#382=DIRECTION('',(-1.E0,0.E0,0.E0));
#383=AXIS2_PLACEMENT_3D('',#380,#381,#382);
#385=DIRECTION('',(0.E0,-1.E0,0.E0));
#386=VECTOR('',#385,3.E0);
#387=CARTESIAN_POINT('',(-1.5E0,3.E0,1.35E1));
#388=LINE('',#387,#386);
#389=CARTESIAN_POINT('',(0.E0,0.E0,1.35E1));
#390=DIRECTION('',(0.E0,-1.E0,0.E0));
#391=DIRECTION('',(1.E0,0.E0,0.E0));
#392=AXIS2_PLACEMENT_3D('',#389,#390,#391);
#394=CARTESIAN_POINT('',(0.E0,0.E0,1.35E1));
#395=DIRECTION('',(0.E0,-1.E0,0.E0));
#396=DIRECTION('',(-1.E0,0.E0,0.E0));
#397=AXIS2_PLACEMENT_3D('',#394,#395,#396);
#399=DIRECTION('',(0.E0,1.E0,0.E0));
#400=VECTOR('',#399,3.E0);
#401=CARTESIAN_POINT('',(2.75E0,-3.E0,1.35E1));
#402=LINE('',#401,#400);
#403=DIRECTION('',(0.E0,1.E0,0.E0));
#404=VECTOR('',#403,3.E0);
#405=CARTESIAN_POINT('',(-2.75E0,-3.E0,1.35E1));
#406=LINE('',#405,#404);
#407=CARTESIAN_POINT('',(0.E0,0.E0,1.35E1));
#408=DIRECTION('',(0.E0,1.E0,0.E0));
#409=DIRECTION('',(1.E0,0.E0,0.E0));
#410=AXIS2_PLACEMENT_3D('',#407,#408,#409);
#412=DIRECTION('',(0.E0,-1.E0,0.E0));
#413=VECTOR('',#412,3.E0);
#414=CARTESIAN_POINT('',(1.5E0,3.E0,1.35E1));
#415=LINE('',#414,#413);
#416=CARTESIAN_POINT('',(1.169134295109E1,0.E0,6.75E0));
#417=DIRECTION('',(0.E0,1.E0,0.E0));
#418=DIRECTION('',(-5.E-1,0.E0,8.660254037844E-1));
#419=AXIS2_PLACEMENT_3D('',#416,#417,#418);
#421=DIRECTION('',(0.E0,-1.E0,0.E0));
#422=VECTOR('',#421,3.E0);
#423=CARTESIAN_POINT('',(1.094134295109E1,3.E0,8.049038105677E0));
#424=LINE('',#423,#422);
#425=CARTESIAN_POINT('',(1.169134295109E1,0.E0,6.75E0));
#426=DIRECTION('',(0.E0,-1.E0,0.E0));
#427=DIRECTION('',(5.E-1,0.E0,-8.660254037844E-1));
#428=AXIS2_PLACEMENT_3D('',#425,#426,#427);
#430=CARTESIAN_POINT('',(1.169134295109E1,0.E0,6.75E0));
#431=DIRECTION('',(0.E0,-1.E0,0.E0));
#432=DIRECTION('',(-5.E-1,0.E0,8.660254037844E-1));
#433=AXIS2_PLACEMENT_3D('',#430,#431,#432);
#435=DIRECTION('',(0.E0,1.E0,0.E0));
#436=VECTOR('',#435,3.E0);
#437=CARTESIAN_POINT('',(1.306634295109E1,-3.E0,4.368430139593E0));
#438=LINE('',#437,#436);
#439=DIRECTION('',(0.E0,1.E0,0.E0));
#440=VECTOR('',#439,3.E0);
#441=CARTESIAN_POINT('',(1.031634295109E1,-3.E0,9.131569860407E0));
#442=LINE('',#441,#440);
#443=CARTESIAN_POINT('',(1.169134295109E1,0.E0,6.75E0));
#444=DIRECTION('',(0.E0,1.E0,0.E0));
#445=DIRECTION('',(5.E-1,0.E0,-8.660254037844E-1));
#446=AXIS2_PLACEMENT_3D('',#443,#444,#445);
#448=DIRECTION('',(0.E0,-1.E0,0.E0));
#449=VECTOR('',#448,3.E0);
#450=CARTESIAN_POINT('',(1.244134295109E1,3.E0,5.450961894323E0));
#451=LINE('',#450,#449);
#452=CARTESIAN_POINT('',(1.169134295109E1,0.E0,-6.75E0));
#453=DIRECTION('',(0.E0,1.E0,0.E0));
#454=DIRECTION('',(5.E-1,0.E0,8.660254037844E-1));
#455=AXIS2_PLACEMENT_3D('',#452,#453,#454);
#457=DIRECTION('',(0.E0,-1.E0,0.E0));
#458=VECTOR('',#457,3.E0);
#459=CARTESIAN_POINT('',(1.244134295109E1,3.E0,-5.450961894323E0));
#460=LINE('',#459,#458);
#461=CARTESIAN_POINT('',(1.169134295109E1,0.E0,-6.75E0));
#462=DIRECTION('',(0.E0,-1.E0,0.E0));
#463=DIRECTION('',(-5.E-1,0.E0,-8.660254037844E-1));
#464=AXIS2_PLACEMENT_3D('',#461,#462,#463);
#466=CARTESIAN_POINT('',(1.169134295109E1,0.E0,-6.75E0));
#467=DIRECTION('',(0.E0,-1.E0,0.E0));
#468=DIRECTION('',(5.E-1,0.E0,8.660254037844E-1));
#469=AXIS2_PLACEMENT_3D('',#466,#467,#468);
#471=DIRECTION('',(0.E0,1.E0,0.E0));
#472=VECTOR('',#471,3.E0);
#473=CARTESIAN_POINT('',(1.031634295109E1,-3.E0,-9.131569860407E0));
#474=LINE('',#473,#472);
#475=DIRECTION('',(0.E0,1.E0,0.E0));
#476=VECTOR('',#475,3.E0);
#477=CARTESIAN_POINT('',(1.306634295109E1,-3.E0,-4.368430139593E0));
#478=LINE('',#477,#476);
#479=CARTESIAN_POINT('',(1.169134295109E1,0.E0,-6.75E0));
#480=DIRECTION('',(0.E0,1.E0,0.E0));
#481=DIRECTION('',(-5.E-1,0.E0,-8.660254037844E-1));
#482=AXIS2_PLACEMENT_3D('',#479,#480,#481);
#484=DIRECTION('',(0.E0,-1.E0,0.E0));
#485=VECTOR('',#484,3.E0);
#486=CARTESIAN_POINT('',(1.094134295109E1,3.E0,-8.049038105677E0));
#487=LINE('',#486,#485);
#488=CARTESIAN_POINT('',(0.E0,0.E0,-1.35E1));
#489=DIRECTION('',(0.E0,1.E0,0.E0));
#490=DIRECTION('',(1.E0,0.E0,0.E0));
#491=AXIS2_PLACEMENT_3D('',#488,#489,#490);
#493=DIRECTION('',(0.E0,-1.E0,0.E0));
#494=VECTOR('',#493,3.E0);
#495=CARTESIAN_POINT('',(1.5E0,3.E0,-1.35E1));
#496=LINE('',#495,#494);
#497=CARTESIAN_POINT('',(0.E0,0.E0,-1.35E1));
#498=DIRECTION('',(0.E0,-1.E0,0.E0));
#499=DIRECTION('',(-1.E0,0.E0,0.E0));
#500=AXIS2_PLACEMENT_3D('',#497,#498,#499);
#502=CARTESIAN_POINT('',(0.E0,0.E0,-1.35E1));
#503=DIRECTION('',(0.E0,-1.E0,0.E0));
#504=DIRECTION('',(1.E0,0.E0,0.E0));
#505=AXIS2_PLACEMENT_3D('',#502,#503,#504);
#507=DIRECTION('',(0.E0,1.E0,0.E0));
#508=VECTOR('',#507,3.E0);
#509=CARTESIAN_POINT('',(-2.75E0,-3.E0,-1.35E1));
#510=LINE('',#509,#508);
#511=DIRECTION('',(0.E0,1.E0,0.E0));
#512=VECTOR('',#511,3.E0);
#513=CARTESIAN_POINT('',(2.75E0,-3.E0,-1.35E1));
#514=LINE('',#513,#512);
#515=CARTESIAN_POINT('',(0.E0,0.E0,-1.35E1));
#516=DIRECTION('',(0.E0,1.E0,0.E0));
#517=DIRECTION('',(-1.E0,0.E0,0.E0));
#518=AXIS2_PLACEMENT_3D('',#515,#516,#517);
#520=DIRECTION('',(0.E0,-1.E0,0.E0));
#521=VECTOR('',#520,3.E0);
#522=CARTESIAN_POINT('',(-1.5E0,3.E0,-1.35E1));
#523=LINE('',#522,#521);
#524=CARTESIAN_POINT('',(-1.169134295109E1,0.E0,-6.75E0));
#525=DIRECTION('',(0.E0,1.E0,0.E0));
#526=DIRECTION('',(5.E-1,0.E0,-8.660254037844E-1));
#527=AXIS2_PLACEMENT_3D('',#524,#525,#526);
#529=DIRECTION('',(0.E0,-1.E0,0.E0));
#530=VECTOR('',#529,3.E0);
#531=CARTESIAN_POINT('',(-1.094134295109E1,3.E0,-8.049038105677E0));
#532=LINE('',#531,#530);
#533=CARTESIAN_POINT('',(-1.169134295109E1,0.E0,-6.75E0));
#534=DIRECTION('',(0.E0,-1.E0,0.E0));
#535=DIRECTION('',(-5.E-1,0.E0,8.660254037844E-1));
#536=AXIS2_PLACEMENT_3D('',#533,#534,#535);
#538=CARTESIAN_POINT('',(-1.169134295109E1,0.E0,-6.75E0));
#539=DIRECTION('',(0.E0,-1.E0,0.E0));
#540=DIRECTION('',(5.E-1,0.E0,-8.660254037844E-1));
#541=AXIS2_PLACEMENT_3D('',#538,#539,#540);
#543=DIRECTION('',(0.E0,1.E0,0.E0));
#544=VECTOR('',#543,3.E0);
#545=CARTESIAN_POINT('',(-1.306634295109E1,-3.E0,-4.368430139593E0));
#546=LINE('',#545,#544);
#547=DIRECTION('',(0.E0,1.E0,0.E0));
#548=VECTOR('',#547,3.E0);
#549=CARTESIAN_POINT('',(-1.031634295109E1,-3.E0,-9.131569860407E0));
#550=LINE('',#549,#548);
#551=CARTESIAN_POINT('',(-1.169134295109E1,0.E0,-6.75E0));
#552=DIRECTION('',(0.E0,1.E0,0.E0));
#553=DIRECTION('',(-5.E-1,0.E0,8.660254037844E-1));
#554=AXIS2_PLACEMENT_3D('',#551,#552,#553);
#556=DIRECTION('',(0.E0,-1.E0,0.E0));
#557=VECTOR('',#556,3.E0);
#558=CARTESIAN_POINT('',(-1.244134295109E1,3.E0,-5.450961894323E0));
#559=LINE('',#558,#557);
#560=CARTESIAN_POINT('',(-1.169134295109E1,0.E0,6.75E0));
#561=DIRECTION('',(0.E0,1.E0,0.E0));
#562=DIRECTION('',(-5.E-1,0.E0,-8.660254037844E-1));
#563=AXIS2_PLACEMENT_3D('',#560,#561,#562);
#565=DIRECTION('',(0.E0,-1.E0,0.E0));
#566=VECTOR('',#565,3.E0);
#567=CARTESIAN_POINT('',(-1.244134295109E1,3.E0,5.450961894323E0));
#568=LINE('',#567,#566);
#569=CARTESIAN_POINT('',(-1.169134295109E1,0.E0,6.75E0));
#570=DIRECTION('',(0.E0,-1.E0,0.E0));
#571=DIRECTION('',(5.E-1,0.E0,8.660254037844E-1));
#572=AXIS2_PLACEMENT_3D('',#569,#570,#571);
#574=CARTESIAN_POINT('',(-1.169134295109E1,0.E0,6.75E0));
#575=DIRECTION('',(0.E0,-1.E0,0.E0));
#576=DIRECTION('',(-5.E-1,0.E0,-8.660254037844E-1));
#577=AXIS2_PLACEMENT_3D('',#574,#575,#576);
#579=DIRECTION('',(0.E0,1.E0,0.E0));
#580=VECTOR('',#579,3.E0);
#581=CARTESIAN_POINT('',(-1.031634295109E1,-3.E0,9.131569860407E0));
#582=LINE('',#581,#580);
#583=DIRECTION('',(0.E0,1.E0,0.E0));
#584=VECTOR('',#583,3.E0);
#585=CARTESIAN_POINT('',(-1.306634295109E1,-3.E0,4.368430139593E0));
#586=LINE('',#585,#584);
#587=CARTESIAN_POINT('',(-1.169134295109E1,0.E0,6.75E0));
#588=DIRECTION('',(0.E0,1.E0,0.E0));
#589=DIRECTION('',(5.E-1,0.E0,8.660254037844E-1));
#590=AXIS2_PLACEMENT_3D('',#587,#588,#589);
#592=DIRECTION('',(0.E0,-1.E0,0.E0));
#593=VECTOR('',#592,3.E0);
#594=CARTESIAN_POINT('',(-1.094134295109E1,3.E0,8.049038105677E0));
#595=LINE('',#594,#593);
#596=CARTESIAN_POINT('',(-8.E0,-3.E0,0.E0));
#597=CARTESIAN_POINT('',(8.E0,-3.E0,0.E0));
#598=VERTEX_POINT('',#596);
#599=VERTEX_POINT('',#597);
#600=CARTESIAN_POINT('',(-8.E0,3.E0,0.E0));
#601=CARTESIAN_POINT('',(8.E0,3.E0,0.E0));
#602=VERTEX_POINT('',#600);
#603=VERTEX_POINT('',#601);
#604=CARTESIAN_POINT('',(1.746244730764E1,3.E0,1.145833333333E0));
#605=CARTESIAN_POINT('',(-1.746244730764E1,3.E0,1.145833333333E0));
#606=VERTEX_POINT('',#604);
#607=VERTEX_POINT('',#605);
#608=CARTESIAN_POINT('',(6.5E0,-3.E0,8.4E1));
#609=CARTESIAN_POINT('',(-6.5E0,-3.E0,8.4E1));
#610=VERTEX_POINT('',#608);
#611=VERTEX_POINT('',#609);
#612=CARTESIAN_POINT('',(-6.5E0,3.E0,8.4E1));
#613=VERTEX_POINT('',#612);
#614=CARTESIAN_POINT('',(6.5E0,3.E0,8.4E1));
#615=VERTEX_POINT('',#614);
#616=CARTESIAN_POINT('',(-1.197424958238E1,3.E0,8.478571428571E1));
#617=CARTESIAN_POINT('',(1.197424958238E1,3.E0,8.478571428571E1));
#618=VERTEX_POINT('',#616);
#619=VERTEX_POINT('',#617);
#620=CARTESIAN_POINT('',(-1.5E0,3.E0,1.35E1));
#621=CARTESIAN_POINT('',(1.5E0,3.E0,1.35E1));
#622=VERTEX_POINT('',#620);
#623=VERTEX_POINT('',#621);
#624=CARTESIAN_POINT('',(1.094134295109E1,3.E0,8.049038105677E0));
#625=CARTESIAN_POINT('',(1.244134295109E1,3.E0,5.450961894323E0));
#626=VERTEX_POINT('',#624);
#627=VERTEX_POINT('',#625);
#628=CARTESIAN_POINT('',(1.244134295109E1,3.E0,-5.450961894323E0));
#629=CARTESIAN_POINT('',(1.094134295109E1,3.E0,-8.049038105677E0));
#630=VERTEX_POINT('',#628);
#631=VERTEX_POINT('',#629);
#632=CARTESIAN_POINT('',(1.5E0,3.E0,-1.35E1));
#633=CARTESIAN_POINT('',(-1.5E0,3.E0,-1.35E1));
#634=VERTEX_POINT('',#632);
#635=VERTEX_POINT('',#633);
#636=CARTESIAN_POINT('',(-1.094134295109E1,3.E0,-8.049038105677E0));
#637=CARTESIAN_POINT('',(-1.244134295109E1,3.E0,-5.450961894323E0));
#638=VERTEX_POINT('',#636);
#639=VERTEX_POINT('',#637);
#640=CARTESIAN_POINT('',(-1.244134295109E1,3.E0,5.450961894323E0));
#641=CARTESIAN_POINT('',(-1.094134295109E1,3.E0,8.049038105677E0));
#642=VERTEX_POINT('',#640);
#643=VERTEX_POINT('',#641);
#644=CARTESIAN_POINT('',(2.75E0,0.E0,1.35E1));
#645=CARTESIAN_POINT('',(-2.75E0,0.E0,1.35E1));
#646=VERTEX_POINT('',#644);
#647=VERTEX_POINT('',#645);
#648=CARTESIAN_POINT('',(2.75E0,-3.E0,1.35E1));
#649=CARTESIAN_POINT('',(-2.75E0,-3.E0,1.35E1));
#650=VERTEX_POINT('',#648);
#651=VERTEX_POINT('',#649);
#652=CARTESIAN_POINT('',(-1.5E0,0.E0,1.35E1));
#653=CARTESIAN_POINT('',(1.5E0,0.E0,1.35E1));
#654=VERTEX_POINT('',#652);
#655=VERTEX_POINT('',#653);
#656=CARTESIAN_POINT('',(1.306634295109E1,0.E0,4.368430139593E0));
#657=CARTESIAN_POINT('',(1.031634295109E1,0.E0,9.131569860407E0));
#658=VERTEX_POINT('',#656);
#659=VERTEX_POINT('',#657);
#660=CARTESIAN_POINT('',(1.306634295109E1,-3.E0,4.368430139593E0));
#661=CARTESIAN_POINT('',(1.031634295109E1,-3.E0,9.131569860407E0));
#662=VERTEX_POINT('',#660);
#663=VERTEX_POINT('',#661);
#664=CARTESIAN_POINT('',(1.094134295109E1,0.E0,8.049038105677E0));
#665=CARTESIAN_POINT('',(1.244134295109E1,0.E0,5.450961894323E0));
#666=VERTEX_POINT('',#664);
#667=VERTEX_POINT('',#665);
#668=CARTESIAN_POINT('',(1.031634295109E1,0.E0,-9.131569860407E0));
#669=CARTESIAN_POINT('',(1.306634295109E1,0.E0,-4.368430139593E0));
#670=VERTEX_POINT('',#668);
#671=VERTEX_POINT('',#669);
#672=CARTESIAN_POINT('',(1.031634295109E1,-3.E0,-9.131569860407E0));
#673=CARTESIAN_POINT('',(1.306634295109E1,-3.E0,-4.368430139593E0));
#674=VERTEX_POINT('',#672);
#675=VERTEX_POINT('',#673);
#676=CARTESIAN_POINT('',(1.244134295109E1,0.E0,-5.450961894323E0));
#677=CARTESIAN_POINT('',(1.094134295109E1,0.E0,-8.049038105677E0));
#678=VERTEX_POINT('',#676);
#679=VERTEX_POINT('',#677);
#680=CARTESIAN_POINT('',(-2.75E0,0.E0,-1.35E1));
#681=CARTESIAN_POINT('',(2.75E0,0.E0,-1.35E1));
#682=VERTEX_POINT('',#680);
#683=VERTEX_POINT('',#681);
#684=CARTESIAN_POINT('',(-2.75E0,-3.E0,-1.35E1));
#685=CARTESIAN_POINT('',(2.75E0,-3.E0,-1.35E1));
#686=VERTEX_POINT('',#684);
#687=VERTEX_POINT('',#685);
#688=CARTESIAN_POINT('',(1.5E0,0.E0,-1.35E1));
#689=CARTESIAN_POINT('',(-1.5E0,0.E0,-1.35E1));
#690=VERTEX_POINT('',#688);
#691=VERTEX_POINT('',#689);
#692=CARTESIAN_POINT('',(-1.306634295109E1,0.E0,-4.368430139593E0));
#693=CARTESIAN_POINT('',(-1.031634295109E1,0.E0,-9.131569860407E0));
#694=VERTEX_POINT('',#692);
#695=VERTEX_POINT('',#693);
#696=CARTESIAN_POINT('',(-1.306634295109E1,-3.E0,-4.368430139593E0));
#697=CARTESIAN_POINT('',(-1.031634295109E1,-3.E0,-9.131569860407E0));
#698=VERTEX_POINT('',#696);
#699=VERTEX_POINT('',#697);
#700=CARTESIAN_POINT('',(-1.094134295109E1,0.E0,-8.049038105677E0));
#701=CARTESIAN_POINT('',(-1.244134295109E1,0.E0,-5.450961894323E0));
#702=VERTEX_POINT('',#700);
#703=VERTEX_POINT('',#701);
#704=CARTESIAN_POINT('',(-1.031634295109E1,0.E0,9.131569860407E0));
#705=CARTESIAN_POINT('',(-1.306634295109E1,0.E0,4.368430139593E0));
#706=VERTEX_POINT('',#704);
#707=VERTEX_POINT('',#705);
#708=CARTESIAN_POINT('',(-1.031634295109E1,-3.E0,9.131569860407E0));
#709=CARTESIAN_POINT('',(-1.306634295109E1,-3.E0,4.368430139593E0));
#710=VERTEX_POINT('',#708);
#711=VERTEX_POINT('',#709);
#712=CARTESIAN_POINT('',(-1.244134295109E1,0.E0,5.450961894323E0));
#713=CARTESIAN_POINT('',(-1.094134295109E1,0.E0,8.049038105677E0));
#714=VERTEX_POINT('',#712);
#715=VERTEX_POINT('',#713);
#716=CARTESIAN_POINT('',(0.E0,-3.E0,7.2E1));
#717=CARTESIAN_POINT('',(1.197424958238E1,-3.E0,8.478571428571E1));
#718=VERTEX_POINT('',#716);
#719=VERTEX_POINT('',#717);
#720=CARTESIAN_POINT('',(1.746244730764E1,-3.E0,1.145833333333E0));
#721=CARTESIAN_POINT('',(0.E0,-3.E0,1.75E1));
#722=VERTEX_POINT('',#720);
#723=VERTEX_POINT('',#721);
#724=CARTESIAN_POINT('',(-1.746244730764E1,-2.E0,1.145833333333E0));
#725=CARTESIAN_POINT('',(-1.197424958238E1,-2.E0,8.478571428571E1));
#726=VERTEX_POINT('',#724);
#727=VERTEX_POINT('',#725);
#728=CARTESIAN_POINT('',(1.197424958238E1,-2.E0,8.478571428571E1));
#729=CARTESIAN_POINT('',(1.746244730764E1,-2.E0,1.145833333333E0));
#730=VERTEX_POINT('',#728);
#731=VERTEX_POINT('',#729);
#732=CARTESIAN_POINT('',(0.E0,-2.E0,7.2E1));
#733=VERTEX_POINT('',#732);
#734=CARTESIAN_POINT('',(0.E0,-2.E0,1.75E1));
#735=VERTEX_POINT('',#734);
#736=CARTESIAN_POINT('',(3.E0,3.E0,6.7E1));
#737=CARTESIAN_POINT('',(-3.E0,3.E0,6.7E1));
#738=VERTEX_POINT('',#736);
#739=VERTEX_POINT('',#737);
#740=CARTESIAN_POINT('',(-3.E0,3.E0,5.3E1));
#741=VERTEX_POINT('',#740);
#742=CARTESIAN_POINT('',(3.E0,3.E0,5.3E1));
#743=VERTEX_POINT('',#742);
#744=CARTESIAN_POINT('',(3.E0,-2.E0,6.7E1));
#745=CARTESIAN_POINT('',(-3.E0,-2.E0,6.7E1));
#746=VERTEX_POINT('',#744);
#747=VERTEX_POINT('',#745);
#748=CARTESIAN_POINT('',(-3.E0,-2.E0,5.3E1));
#749=VERTEX_POINT('',#748);
#750=CARTESIAN_POINT('',(3.E0,-2.E0,5.3E1));
#751=VERTEX_POINT('',#750);
#752=CARTESIAN_POINT('',(3.E0,3.E0,3.7E1));
#753=CARTESIAN_POINT('',(-3.E0,3.E0,3.7E1));
#754=VERTEX_POINT('',#752);
#755=VERTEX_POINT('',#753);
#756=CARTESIAN_POINT('',(-3.E0,3.E0,2.3E1));
#757=VERTEX_POINT('',#756);
#758=CARTESIAN_POINT('',(3.E0,3.E0,2.3E1));
#759=VERTEX_POINT('',#758);
#760=CARTESIAN_POINT('',(3.E0,-2.E0,3.7E1));
#761=CARTESIAN_POINT('',(-3.E0,-2.E0,3.7E1));
#762=VERTEX_POINT('',#760);
#763=VERTEX_POINT('',#761);
#764=CARTESIAN_POINT('',(-3.E0,-2.E0,2.3E1));
#765=VERTEX_POINT('',#764);
#766=CARTESIAN_POINT('',(3.E0,-2.E0,2.3E1));
#767=VERTEX_POINT('',#766);
#768=CARTESIAN_POINT('',(0.E0,-3.E0,0.E0));
#769=DIRECTION('',(0.E0,1.E0,0.E0));
#770=DIRECTION('',(-1.E0,0.E0,0.E0));
#771=AXIS2_PLACEMENT_3D('',#768,#769,#770);
#772=PLANE('',#771);
#774=ORIENTED_EDGE('',*,*,#773,.F.);
#776=ORIENTED_EDGE('',*,*,#775,.F.);
#777=EDGE_LOOP('',(#774,#776));
#778=FACE_OUTER_BOUND('',#777,.F.);
#780=ORIENTED_EDGE('',*,*,#779,.T.);
#782=ORIENTED_EDGE('',*,*,#781,.T.);
#783=EDGE_LOOP('',(#780,#782));
#784=FACE_BOUND('',#783,.F.);
#785=ADVANCED_FACE('',(#778,#784),#772,.F.);
#786=CARTESIAN_POINT('',(0.E0,-3.E0,0.E0));
#787=DIRECTION('',(0.E0,1.E0,0.E0));
#788=DIRECTION('',(-1.E0,0.E0,0.E0));
#789=AXIS2_PLACEMENT_3D('',#786,#787,#788);
#790=PLANE('',#789);
#792=ORIENTED_EDGE('',*,*,#791,.F.);
#794=ORIENTED_EDGE('',*,*,#793,.F.);
#795=EDGE_LOOP('',(#792,#794));
#796=FACE_OUTER_BOUND('',#795,.F.);
#798=ORIENTED_EDGE('',*,*,#797,.T.);
#800=ORIENTED_EDGE('',*,*,#799,.T.);
#801=EDGE_LOOP('',(#798,#800));
#802=FACE_BOUND('',#801,.F.);
#804=ORIENTED_EDGE('',*,*,#803,.T.);
#806=ORIENTED_EDGE('',*,*,#805,.T.);
#807=EDGE_LOOP('',(#804,#806));
#808=FACE_BOUND('',#807,.F.);
#810=ORIENTED_EDGE('',*,*,#809,.T.);
#812=ORIENTED_EDGE('',*,*,#811,.T.);
#813=EDGE_LOOP('',(#810,#812));
#814=FACE_BOUND('',#813,.F.);
#816=ORIENTED_EDGE('',*,*,#815,.T.);
#818=ORIENTED_EDGE('',*,*,#817,.T.);
#819=EDGE_LOOP('',(#816,#818));
#820=FACE_BOUND('',#819,.F.);
#822=ORIENTED_EDGE('',*,*,#821,.T.);
#824=ORIENTED_EDGE('',*,*,#823,.T.);
#825=EDGE_LOOP('',(#822,#824));
#826=FACE_BOUND('',#825,.F.);
#828=ORIENTED_EDGE('',*,*,#827,.T.);
#830=ORIENTED_EDGE('',*,*,#829,.T.);
#831=EDGE_LOOP('',(#828,#830));
#832=FACE_BOUND('',#831,.F.);
#834=ORIENTED_EDGE('',*,*,#833,.T.);
#836=ORIENTED_EDGE('',*,*,#835,.T.);
#837=EDGE_LOOP('',(#834,#836));
#838=FACE_BOUND('',#837,.F.);
#839=ADVANCED_FACE('',(#796,#802,#808,#814,#820,#826,#832,#838),#790,.F.);
#840=CARTESIAN_POINT('',(0.E0,-3.E0,0.E0));
#841=DIRECTION('',(0.E0,1.E0,0.E0));
#842=DIRECTION('',(-1.E0,0.E0,0.E0));
#843=AXIS2_PLACEMENT_3D('',#840,#841,#842);
#844=CYLINDRICAL_SURFACE('',#843,8.E0);
#845=ORIENTED_EDGE('',*,*,#797,.F.);
#847=ORIENTED_EDGE('',*,*,#846,.T.);
#849=ORIENTED_EDGE('',*,*,#848,.T.);
#851=ORIENTED_EDGE('',*,*,#850,.F.);
#852=EDGE_LOOP('',(#845,#847,#849,#851));
#853=FACE_OUTER_BOUND('',#852,.F.);
#854=ADVANCED_FACE('',(#853),#844,.F.);
#855=CARTESIAN_POINT('',(0.E0,-3.E0,0.E0));
#856=DIRECTION('',(0.E0,1.E0,0.E0));
#857=DIRECTION('',(-1.E0,0.E0,0.E0));
#858=AXIS2_PLACEMENT_3D('',#855,#856,#857);
#859=CYLINDRICAL_SURFACE('',#858,8.E0);
#860=ORIENTED_EDGE('',*,*,#799,.F.);
#861=ORIENTED_EDGE('',*,*,#850,.T.);
#863=ORIENTED_EDGE('',*,*,#862,.T.);
#864=ORIENTED_EDGE('',*,*,#846,.F.);
#865=EDGE_LOOP('',(#860,#861,#863,#864));
#866=FACE_OUTER_BOUND('',#865,.F.);
#867=ADVANCED_FACE('',(#866),#859,.F.);
#868=CARTESIAN_POINT('',(0.E0,3.E0,0.E0));
#869=DIRECTION('',(0.E0,1.E0,0.E0));
#870=DIRECTION('',(-1.E0,0.E0,0.E0));
#871=AXIS2_PLACEMENT_3D('',#868,#869,#870);
#872=PLANE('',#871);
#874=ORIENTED_EDGE('',*,*,#873,.F.);
#876=ORIENTED_EDGE('',*,*,#875,.F.);
#878=ORIENTED_EDGE('',*,*,#877,.F.);
#880=ORIENTED_EDGE('',*,*,#879,.F.);
#881=EDGE_LOOP('',(#874,#876,#878,#880));
#882=FACE_OUTER_BOUND('',#881,.F.);
#883=ORIENTED_EDGE('',*,*,#848,.F.);
#884=ORIENTED_EDGE('',*,*,#862,.F.);
#885=EDGE_LOOP('',(#883,#884));
#886=FACE_BOUND('',#885,.F.);
#888=ORIENTED_EDGE('',*,*,#887,.T.);
#890=ORIENTED_EDGE('',*,*,#889,.T.);
#891=EDGE_LOOP('',(#888,#890));
#892=FACE_BOUND('',#891,.F.);
#894=ORIENTED_EDGE('',*,*,#893,.T.);
#896=ORIENTED_EDGE('',*,*,#895,.T.);
#897=EDGE_LOOP('',(#894,#896));
#898=FACE_BOUND('',#897,.F.);
#900=ORIENTED_EDGE('',*,*,#899,.T.);
#902=ORIENTED_EDGE('',*,*,#901,.T.);
#903=EDGE_LOOP('',(#900,#902));
#904=FACE_BOUND('',#903,.F.);
#906=ORIENTED_EDGE('',*,*,#905,.T.);
#908=ORIENTED_EDGE('',*,*,#907,.T.);
#909=EDGE_LOOP('',(#906,#908));
#910=FACE_BOUND('',#909,.F.);
#912=ORIENTED_EDGE('',*,*,#911,.T.);
#914=ORIENTED_EDGE('',*,*,#913,.T.);
#915=EDGE_LOOP('',(#912,#914));
#916=FACE_BOUND('',#915,.F.);
#918=ORIENTED_EDGE('',*,*,#917,.T.);
#920=ORIENTED_EDGE('',*,*,#919,.T.);
#921=EDGE_LOOP('',(#918,#920));
#922=FACE_BOUND('',#921,.F.);
#924=ORIENTED_EDGE('',*,*,#923,.T.);
#926=ORIENTED_EDGE('',*,*,#925,.T.);
#927=EDGE_LOOP('',(#924,#926));
#928=FACE_BOUND('',#927,.F.);
#930=ORIENTED_EDGE('',*,*,#929,.F.);
#932=ORIENTED_EDGE('',*,*,#931,.F.);
#934=ORIENTED_EDGE('',*,*,#933,.F.);
#936=ORIENTED_EDGE('',*,*,#935,.F.);
#937=EDGE_LOOP('',(#930,#932,#934,#936));
#938=FACE_BOUND('',#937,.F.);
#940=ORIENTED_EDGE('',*,*,#939,.F.);
#942=ORIENTED_EDGE('',*,*,#941,.F.);
#944=ORIENTED_EDGE('',*,*,#943,.F.);
#946=ORIENTED_EDGE('',*,*,#945,.F.);
#947=EDGE_LOOP('',(#940,#942,#944,#946));
#948=FACE_BOUND('',#947,.F.);
#949=ADVANCED_FACE('',(#882,#886,#892,#898,#904,#910,#916,#922,#928,#938,#948),
#872,.T.);
#950=CARTESIAN_POINT('',(0.E0,-3.E0,0.E0));
#951=DIRECTION('',(0.E0,1.E0,0.E0));
#952=DIRECTION('',(-1.E0,0.E0,0.E0));
#953=AXIS2_PLACEMENT_3D('',#950,#951,#952);
#954=CYLINDRICAL_SURFACE('',#953,1.75E1);
#956=ORIENTED_EDGE('',*,*,#955,.F.);
#958=ORIENTED_EDGE('',*,*,#957,.T.);
#960=ORIENTED_EDGE('',*,*,#959,.F.);
#961=ORIENTED_EDGE('',*,*,#791,.T.);
#963=ORIENTED_EDGE('',*,*,#962,.F.);
#965=ORIENTED_EDGE('',*,*,#964,.T.);
#966=ORIENTED_EDGE('',*,*,#873,.T.);
#967=EDGE_LOOP('',(#956,#958,#960,#961,#963,#965,#966));
#968=FACE_OUTER_BOUND('',#967,.F.);
#969=ADVANCED_FACE('',(#968),#954,.T.);
#970=CARTESIAN_POINT('',(-1.746244730764E1,-3.E0,1.145833333333E0));
#971=DIRECTION('',(-9.978541318653E-1,0.E0,6.547619047619E-2));
#972=DIRECTION('',(6.547619047619E-2,0.E0,9.978541318653E-1));
#973=AXIS2_PLACEMENT_3D('',#970,#971,#972);
#974=PLANE('',#973);
#976=ORIENTED_EDGE('',*,*,#975,.F.);
#977=ORIENTED_EDGE('',*,*,#955,.T.);
#978=ORIENTED_EDGE('',*,*,#879,.T.);
#980=ORIENTED_EDGE('',*,*,#979,.F.);
#981=EDGE_LOOP('',(#976,#977,#978,#980));
#982=FACE_OUTER_BOUND('',#981,.F.);
#983=ADVANCED_FACE('',(#982),#974,.T.);
#984=CARTESIAN_POINT('',(0.E0,-2.E0,0.E0));
#985=DIRECTION('',(0.E0,-1.E0,0.E0));
#986=DIRECTION('',(0.E0,0.E0,-1.E0));
#987=AXIS2_PLACEMENT_3D('',#984,#985,#986);
#988=PLANE('',#987);
#989=ORIENTED_EDGE('',*,*,#975,.T.);
#991=ORIENTED_EDGE('',*,*,#990,.F.);
#993=ORIENTED_EDGE('',*,*,#992,.F.);
#995=ORIENTED_EDGE('',*,*,#994,.T.);
#997=ORIENTED_EDGE('',*,*,#996,.F.);
#998=ORIENTED_EDGE('',*,*,#957,.F.);
#999=EDGE_LOOP('',(#989,#991,#993,#995,#997,#998));
#1000=FACE_OUTER_BOUND('',#999,.F.);
#1002=ORIENTED_EDGE('',*,*,#1001,.T.);
#1004=ORIENTED_EDGE('',*,*,#1003,.T.);
#1006=ORIENTED_EDGE('',*,*,#1005,.T.);
#1008=ORIENTED_EDGE('',*,*,#1007,.T.);
#1009=EDGE_LOOP('',(#1002,#1004,#1006,#1008));
#1010=FACE_BOUND('',#1009,.F.);
#1012=ORIENTED_EDGE('',*,*,#1011,.T.);
#1014=ORIENTED_EDGE('',*,*,#1013,.T.);
#1016=ORIENTED_EDGE('',*,*,#1015,.T.);
#1018=ORIENTED_EDGE('',*,*,#1017,.T.);
#1019=EDGE_LOOP('',(#1012,#1014,#1016,#1018));
#1020=FACE_BOUND('',#1019,.F.);
#1021=ADVANCED_FACE('',(#1000,#1010,#1020),#988,.T.);
#1022=CARTESIAN_POINT('',(0.E0,-3.E0,8.4E1));
#1023=DIRECTION('',(0.E0,1.E0,0.E0));
#1024=DIRECTION('',(-1.E0,0.E0,0.E0));
#1025=AXIS2_PLACEMENT_3D('',#1022,#1023,#1024);
#1026=CYLINDRICAL_SURFACE('',#1025,1.2E1);
#1027=ORIENTED_EDGE('',*,*,#773,.T.);
#1029=ORIENTED_EDGE('',*,*,#1028,.T.);
#1030=ORIENTED_EDGE('',*,*,#990,.T.);
#1031=ORIENTED_EDGE('',*,*,#979,.T.);
#1032=ORIENTED_EDGE('',*,*,#877,.T.);
#1034=ORIENTED_EDGE('',*,*,#1033,.F.);
#1036=ORIENTED_EDGE('',*,*,#1035,.T.);
#1037=EDGE_LOOP('',(#1027,#1029,#1030,#1031,#1032,#1034,#1036));
#1038=FACE_OUTER_BOUND('',#1037,.F.);
#1039=ADVANCED_FACE('',(#1038),#1026,.T.);
#1040=CARTESIAN_POINT('',(0.E0,-3.E0,8.4E1));
#1041=DIRECTION('',(0.E0,-1.E0,0.E0));
#1042=DIRECTION('',(0.E0,0.E0,-1.E0));
#1043=AXIS2_PLACEMENT_3D('',#1040,#1041,#1042);
#1044=CYLINDRICAL_SURFACE('',#1043,1.2E1);
#1045=ORIENTED_EDGE('',*,*,#775,.T.);
#1046=ORIENTED_EDGE('',*,*,#1035,.F.);
#1047=ORIENTED_EDGE('',*,*,#992,.T.);
#1048=ORIENTED_EDGE('',*,*,#1028,.F.);
#1049=EDGE_LOOP('',(#1045,#1046,#1047,#1048));
#1050=FACE_OUTER_BOUND('',#1049,.F.);
#1051=ADVANCED_FACE('',(#1050),#1044,.T.);
#1052=CARTESIAN_POINT('',(1.197424958238E1,-3.E0,8.478571428571E1));
#1053=DIRECTION('',(9.978541318653E-1,0.E0,6.547619047619E-2));
#1054=DIRECTION('',(6.547619047619E-2,0.E0,-9.978541318653E-1));
#1055=AXIS2_PLACEMENT_3D('',#1052,#1053,#1054);
#1056=PLANE('',#1055);
#1057=ORIENTED_EDGE('',*,*,#994,.F.);
#1058=ORIENTED_EDGE('',*,*,#1033,.T.);
#1059=ORIENTED_EDGE('',*,*,#875,.T.);
#1060=ORIENTED_EDGE('',*,*,#964,.F.);
#1061=EDGE_LOOP('',(#1057,#1058,#1059,#1060));
#1062=FACE_OUTER_BOUND('',#1061,.F.);
#1063=ADVANCED_FACE('',(#1062),#1056,.T.);
#1064=CARTESIAN_POINT('',(0.E0,-3.E0,0.E0));
#1065=DIRECTION('',(0.E0,-1.E0,0.E0));
#1066=DIRECTION('',(0.E0,0.E0,-1.E0));
#1067=AXIS2_PLACEMENT_3D('',#1064,#1065,#1066);
#1068=CYLINDRICAL_SURFACE('',#1067,1.75E1);
#1069=ORIENTED_EDGE('',*,*,#793,.T.);
#1070=ORIENTED_EDGE('',*,*,#959,.T.);
#1071=ORIENTED_EDGE('',*,*,#996,.T.);
#1072=ORIENTED_EDGE('',*,*,#962,.T.);
#1073=EDGE_LOOP('',(#1069,#1070,#1071,#1072));
#1074=FACE_OUTER_BOUND('',#1073,.F.);
#1075=ADVANCED_FACE('',(#1074),#1068,.T.);
#1076=CARTESIAN_POINT('',(0.E0,-2.E0,6.7E1));
#1077=DIRECTION('',(0.E0,-1.E0,0.E0));
#1078=DIRECTION('',(0.E0,0.E0,-1.E0));
#1079=AXIS2_PLACEMENT_3D('',#1076,#1077,#1078);
#1080=CYLINDRICAL_SURFACE('',#1079,3.E0);
#1081=ORIENTED_EDGE('',*,*,#929,.T.);
#1083=ORIENTED_EDGE('',*,*,#1082,.F.);
#1084=ORIENTED_EDGE('',*,*,#1001,.F.);
#1086=ORIENTED_EDGE('',*,*,#1085,.T.);
#1087=EDGE_LOOP('',(#1081,#1083,#1084,#1086));
#1088=FACE_OUTER_BOUND('',#1087,.F.);
#1089=ADVANCED_FACE('',(#1088),#1080,.F.);
#1090=CARTESIAN_POINT('',(-3.E0,-2.E0,6.7E1));
#1091=DIRECTION('',(-1.E0,0.E0,0.E0));
#1092=DIRECTION('',(0.E0,0.E0,-1.E0));
#1093=AXIS2_PLACEMENT_3D('',#1090,#1091,#1092);
#1094=PLANE('',#1093);
#1095=ORIENTED_EDGE('',*,*,#935,.T.);
#1097=ORIENTED_EDGE('',*,*,#1096,.F.);
#1098=ORIENTED_EDGE('',*,*,#1003,.F.);
#1099=ORIENTED_EDGE('',*,*,#1082,.T.);
#1100=EDGE_LOOP('',(#1095,#1097,#1098,#1099));
#1101=FACE_OUTER_BOUND('',#1100,.F.);
#1102=ADVANCED_FACE('',(#1101),#1094,.F.);
#1103=CARTESIAN_POINT('',(0.E0,-2.E0,5.3E1));
#1104=DIRECTION('',(0.E0,-1.E0,0.E0));
#1105=DIRECTION('',(0.E0,0.E0,-1.E0));
#1106=AXIS2_PLACEMENT_3D('',#1103,#1104,#1105);
#1107=CYLINDRICAL_SURFACE('',#1106,3.E0);
#1108=ORIENTED_EDGE('',*,*,#933,.T.);
#1110=ORIENTED_EDGE('',*,*,#1109,.F.);
#1111=ORIENTED_EDGE('',*,*,#1005,.F.);
#1112=ORIENTED_EDGE('',*,*,#1096,.T.);
#1113=EDGE_LOOP('',(#1108,#1110,#1111,#1112));
#1114=FACE_OUTER_BOUND('',#1113,.F.);
#1115=ADVANCED_FACE('',(#1114),#1107,.F.);
#1116=CARTESIAN_POINT('',(3.E0,-2.E0,5.3E1));
#1117=DIRECTION('',(1.E0,0.E0,0.E0));
#1118=DIRECTION('',(0.E0,0.E0,1.E0));
#1119=AXIS2_PLACEMENT_3D('',#1116,#1117,#1118);
#1120=PLANE('',#1119);
#1121=ORIENTED_EDGE('',*,*,#931,.T.);
#1122=ORIENTED_EDGE('',*,*,#1085,.F.);
#1123=ORIENTED_EDGE('',*,*,#1007,.F.);
#1124=ORIENTED_EDGE('',*,*,#1109,.T.);
#1125=EDGE_LOOP('',(#1121,#1122,#1123,#1124));
#1126=FACE_OUTER_BOUND('',#1125,.F.);
#1127=ADVANCED_FACE('',(#1126),#1120,.F.);
#1128=CARTESIAN_POINT('',(0.E0,-2.E0,3.7E1));
#1129=DIRECTION('',(0.E0,-1.E0,0.E0));
#1130=DIRECTION('',(0.E0,0.E0,-1.E0));
#1131=AXIS2_PLACEMENT_3D('',#1128,#1129,#1130);
#1132=CYLINDRICAL_SURFACE('',#1131,3.E0);
#1133=ORIENTED_EDGE('',*,*,#939,.T.);
#1135=ORIENTED_EDGE('',*,*,#1134,.F.);
#1136=ORIENTED_EDGE('',*,*,#1011,.F.);
#1138=ORIENTED_EDGE('',*,*,#1137,.T.);
#1139=EDGE_LOOP('',(#1133,#1135,#1136,#1138));
#1140=FACE_OUTER_BOUND('',#1139,.F.);
#1141=ADVANCED_FACE('',(#1140),#1132,.F.);
#1142=CARTESIAN_POINT('',(-3.E0,-2.E0,3.7E1));
#1143=DIRECTION('',(-1.E0,0.E0,0.E0));
#1144=DIRECTION('',(0.E0,0.E0,-1.E0));
#1145=AXIS2_PLACEMENT_3D('',#1142,#1143,#1144);
#1146=PLANE('',#1145);
#1147=ORIENTED_EDGE('',*,*,#945,.T.);
#1149=ORIENTED_EDGE('',*,*,#1148,.F.);
#1150=ORIENTED_EDGE('',*,*,#1013,.F.);
#1151=ORIENTED_EDGE('',*,*,#1134,.T.);
#1152=EDGE_LOOP('',(#1147,#1149,#1150,#1151));
#1153=FACE_OUTER_BOUND('',#1152,.F.);
#1154=ADVANCED_FACE('',(#1153),#1146,.F.);
#1155=CARTESIAN_POINT('',(0.E0,-2.E0,2.3E1));
#1156=DIRECTION('',(0.E0,-1.E0,0.E0));
#1157=DIRECTION('',(0.E0,0.E0,-1.E0));
#1158=AXIS2_PLACEMENT_3D('',#1155,#1156,#1157);
#1159=CYLINDRICAL_SURFACE('',#1158,3.E0);
#1160=ORIENTED_EDGE('',*,*,#943,.T.);
#1162=ORIENTED_EDGE('',*,*,#1161,.F.);
#1163=ORIENTED_EDGE('',*,*,#1015,.F.);
#1164=ORIENTED_EDGE('',*,*,#1148,.T.);
#1165=EDGE_LOOP('',(#1160,#1162,#1163,#1164));
#1166=FACE_OUTER_BOUND('',#1165,.F.);
#1167=ADVANCED_FACE('',(#1166),#1159,.F.);
#1168=CARTESIAN_POINT('',(3.E0,-2.E0,2.3E1));
#1169=DIRECTION('',(1.E0,0.E0,0.E0));
#1170=DIRECTION('',(0.E0,0.E0,1.E0));
#1171=AXIS2_PLACEMENT_3D('',#1168,#1169,#1170);
#1172=PLANE('',#1171);
#1173=ORIENTED_EDGE('',*,*,#941,.T.);
#1174=ORIENTED_EDGE('',*,*,#1137,.F.);
#1175=ORIENTED_EDGE('',*,*,#1017,.F.);
#1176=ORIENTED_EDGE('',*,*,#1161,.T.);
#1177=EDGE_LOOP('',(#1173,#1174,#1175,#1176));
#1178=FACE_OUTER_BOUND('',#1177,.F.);
#1179=ADVANCED_FACE('',(#1178),#1172,.F.);
#1180=CARTESIAN_POINT('',(0.E0,3.E0,8.4E1));
#1181=DIRECTION('',(0.E0,1.E0,0.E0));
#1182=DIRECTION('',(-1.E0,0.E0,0.E0));
#1183=AXIS2_PLACEMENT_3D('',#1180,#1181,#1182);
#1184=CYLINDRICAL_SURFACE('',#1183,6.5E0);
#1185=ORIENTED_EDGE('',*,*,#779,.F.);
#1187=ORIENTED_EDGE('',*,*,#1186,.F.);
#1188=ORIENTED_EDGE('',*,*,#887,.F.);
#1190=ORIENTED_EDGE('',*,*,#1189,.T.);
#1191=EDGE_LOOP('',(#1185,#1187,#1188,#1190));
#1192=FACE_OUTER_BOUND('',#1191,.F.);
#1193=ADVANCED_FACE('',(#1192),#1184,.F.);
#1194=CARTESIAN_POINT('',(0.E0,3.E0,8.4E1));
#1195=DIRECTION('',(0.E0,1.E0,0.E0));
#1196=DIRECTION('',(-1.E0,0.E0,0.E0));
#1197=AXIS2_PLACEMENT_3D('',#1194,#1195,#1196);
#1198=CYLINDRICAL_SURFACE('',#1197,6.5E0);
#1199=ORIENTED_EDGE('',*,*,#781,.F.);
#1200=ORIENTED_EDGE('',*,*,#1189,.F.);
#1201=ORIENTED_EDGE('',*,*,#889,.F.);
#1202=ORIENTED_EDGE('',*,*,#1186,.T.);
#1203=EDGE_LOOP('',(#1199,#1200,#1201,#1202));
#1204=FACE_OUTER_BOUND('',#1203,.F.);
#1205=ADVANCED_FACE('',(#1204),#1198,.F.);
#1206=CARTESIAN_POINT('',(0.E0,3.E0,1.35E1));
#1207=DIRECTION('',(0.E0,1.E0,0.E0));
#1208=DIRECTION('',(-1.E0,0.E0,0.E0));
#1209=AXIS2_PLACEMENT_3D('',#1206,#1207,#1208);
#1210=CYLINDRICAL_SURFACE('',#1209,1.5E0);
#1212=ORIENTED_EDGE('',*,*,#1211,.T.);
#1214=ORIENTED_EDGE('',*,*,#1213,.F.);
#1215=ORIENTED_EDGE('',*,*,#893,.F.);
#1217=ORIENTED_EDGE('',*,*,#1216,.T.);
#1218=EDGE_LOOP('',(#1212,#1214,#1215,#1217));
#1219=FACE_OUTER_BOUND('',#1218,.F.);
#1220=ADVANCED_FACE('',(#1219),#1210,.F.);
#1221=CARTESIAN_POINT('',(0.E0,0.E0,0.E0));
#1222=DIRECTION('',(0.E0,-1.E0,0.E0));
#1223=DIRECTION('',(1.E0,0.E0,0.E0));
#1224=AXIS2_PLACEMENT_3D('',#1221,#1222,#1223);
#1225=PLANE('',#1224);
#1227=ORIENTED_EDGE('',*,*,#1226,.F.);
#1229=ORIENTED_EDGE('',*,*,#1228,.F.);
#1230=EDGE_LOOP('',(#1227,#1229));
#1231=FACE_OUTER_BOUND('',#1230,.F.);
#1232=ORIENTED_EDGE('',*,*,#1211,.F.);
#1234=ORIENTED_EDGE('',*,*,#1233,.F.);
#1235=EDGE_LOOP('',(#1232,#1234));
#1236=FACE_BOUND('',#1235,.F.);
#1237=ADVANCED_FACE('',(#1231,#1236),#1225,.T.);
#1238=CARTESIAN_POINT('',(0.E0,-3.E0,1.35E1));
#1239=DIRECTION('',(0.E0,-1.E0,0.E0));
#1240=DIRECTION('',(1.E0,0.E0,0.E0));
#1241=AXIS2_PLACEMENT_3D('',#1238,#1239,#1240);
#1242=CYLINDRICAL_SURFACE('',#1241,2.75E0);
#1243=ORIENTED_EDGE('',*,*,#803,.F.);
#1245=ORIENTED_EDGE('',*,*,#1244,.T.);
#1246=ORIENTED_EDGE('',*,*,#1226,.T.);
#1248=ORIENTED_EDGE('',*,*,#1247,.F.);
#1249=EDGE_LOOP('',(#1243,#1245,#1246,#1248));
#1250=FACE_OUTER_BOUND('',#1249,.F.);
#1251=ADVANCED_FACE('',(#1250),#1242,.F.);
#1252=CARTESIAN_POINT('',(0.E0,-3.E0,1.35E1));
#1253=DIRECTION('',(0.E0,-1.E0,0.E0));
#1254=DIRECTION('',(1.E0,0.E0,0.E0));
#1255=AXIS2_PLACEMENT_3D('',#1252,#1253,#1254);
#1256=CYLINDRICAL_SURFACE('',#1255,2.75E0);
#1257=ORIENTED_EDGE('',*,*,#805,.F.);
#1258=ORIENTED_EDGE('',*,*,#1247,.T.);
#1259=ORIENTED_EDGE('',*,*,#1228,.T.);
#1260=ORIENTED_EDGE('',*,*,#1244,.F.);
#1261=EDGE_LOOP('',(#1257,#1258,#1259,#1260));
#1262=FACE_OUTER_BOUND('',#1261,.F.);
#1263=ADVANCED_FACE('',(#1262),#1256,.F.);
#1264=CARTESIAN_POINT('',(0.E0,3.E0,1.35E1));
#1265=DIRECTION('',(0.E0,1.E0,0.E0));
#1266=DIRECTION('',(-1.E0,0.E0,0.E0));
#1267=AXIS2_PLACEMENT_3D('',#1264,#1265,#1266);
#1268=CYLINDRICAL_SURFACE('',#1267,1.5E0);
#1269=ORIENTED_EDGE('',*,*,#1233,.T.);
#1270=ORIENTED_EDGE('',*,*,#1216,.F.);
#1271=ORIENTED_EDGE('',*,*,#895,.F.);
#1272=ORIENTED_EDGE('',*,*,#1213,.T.);
#1273=EDGE_LOOP('',(#1269,#1270,#1271,#1272));
#1274=FACE_OUTER_BOUND('',#1273,.F.);
#1275=ADVANCED_FACE('',(#1274),#1268,.F.);
#1276=CARTESIAN_POINT('',(1.169134295109E1,3.E0,6.75E0));
#1277=DIRECTION('',(0.E0,1.E0,0.E0));
#1278=DIRECTION('',(-5.E-1,0.E0,8.660254037844E-1));
#1279=AXIS2_PLACEMENT_3D('',#1276,#1277,#1278);
#1280=CYLINDRICAL_SURFACE('',#1279,1.5E0);
#1282=ORIENTED_EDGE('',*,*,#1281,.T.);
#1284=ORIENTED_EDGE('',*,*,#1283,.F.);
#1285=ORIENTED_EDGE('',*,*,#899,.F.);
#1287=ORIENTED_EDGE('',*,*,#1286,.T.);
#1288=EDGE_LOOP('',(#1282,#1284,#1285,#1287));
#1289=FACE_OUTER_BOUND('',#1288,.F.);
#1290=ADVANCED_FACE('',(#1289),#1280,.F.);
#1291=CARTESIAN_POINT('',(0.E0,0.E0,0.E0));
#1292=DIRECTION('',(0.E0,-1.E0,0.E0));
#1293=DIRECTION('',(5.E-1,0.E0,-8.660254037844E-1));
#1294=AXIS2_PLACEMENT_3D('',#1291,#1292,#1293);
#1295=PLANE('',#1294);
#1297=ORIENTED_EDGE('',*,*,#1296,.F.);
#1299=ORIENTED_EDGE('',*,*,#1298,.F.);
#1300=EDGE_LOOP('',(#1297,#1299));
#1301=FACE_OUTER_BOUND('',#1300,.F.);
#1302=ORIENTED_EDGE('',*,*,#1281,.F.);
#1304=ORIENTED_EDGE('',*,*,#1303,.F.);
#1305=EDGE_LOOP('',(#1302,#1304));
#1306=FACE_BOUND('',#1305,.F.);
#1307=ADVANCED_FACE('',(#1301,#1306),#1295,.T.);
#1308=CARTESIAN_POINT('',(1.169134295109E1,-3.E0,6.75E0));
#1309=DIRECTION('',(0.E0,-1.E0,0.E0));
#1310=DIRECTION('',(5.E-1,0.E0,-8.660254037844E-1));
#1311=AXIS2_PLACEMENT_3D('',#1308,#1309,#1310);
#1312=CYLINDRICAL_SURFACE('',#1311,2.75E0);
#1313=ORIENTED_EDGE('',*,*,#809,.F.);
#1315=ORIENTED_EDGE('',*,*,#1314,.T.);
#1316=ORIENTED_EDGE('',*,*,#1296,.T.);
#1318=ORIENTED_EDGE('',*,*,#1317,.F.);
#1319=EDGE_LOOP('',(#1313,#1315,#1316,#1318));
#1320=FACE_OUTER_BOUND('',#1319,.F.);
#1321=ADVANCED_FACE('',(#1320),#1312,.F.);
#1322=CARTESIAN_POINT('',(1.169134295109E1,-3.E0,6.75E0));
#1323=DIRECTION('',(0.E0,-1.E0,0.E0));
#1324=DIRECTION('',(5.E-1,0.E0,-8.660254037844E-1));
#1325=AXIS2_PLACEMENT_3D('',#1322,#1323,#1324);
#1326=CYLINDRICAL_SURFACE('',#1325,2.75E0);
#1327=ORIENTED_EDGE('',*,*,#811,.F.);
#1328=ORIENTED_EDGE('',*,*,#1317,.T.);
#1329=ORIENTED_EDGE('',*,*,#1298,.T.);
#1330=ORIENTED_EDGE('',*,*,#1314,.F.);
#1331=EDGE_LOOP('',(#1327,#1328,#1329,#1330));
#1332=FACE_OUTER_BOUND('',#1331,.F.);
#1333=ADVANCED_FACE('',(#1332),#1326,.F.);
#1334=CARTESIAN_POINT('',(1.169134295109E1,3.E0,6.75E0));
#1335=DIRECTION('',(0.E0,1.E0,0.E0));
#1336=DIRECTION('',(-5.E-1,0.E0,8.660254037844E-1));
#1337=AXIS2_PLACEMENT_3D('',#1334,#1335,#1336);
#1338=CYLINDRICAL_SURFACE('',#1337,1.5E0);
#1339=ORIENTED_EDGE('',*,*,#1303,.T.);
#1340=ORIENTED_EDGE('',*,*,#1286,.F.);
#1341=ORIENTED_EDGE('',*,*,#901,.F.);
#1342=ORIENTED_EDGE('',*,*,#1283,.T.);
#1343=EDGE_LOOP('',(#1339,#1340,#1341,#1342));
#1344=FACE_OUTER_BOUND('',#1343,.F.);
#1345=ADVANCED_FACE('',(#1344),#1338,.F.);
#1346=CARTESIAN_POINT('',(1.169134295109E1,3.E0,-6.75E0));
#1347=DIRECTION('',(0.E0,1.E0,0.E0));
#1348=DIRECTION('',(5.E-1,0.E0,8.660254037844E-1));
#1349=AXIS2_PLACEMENT_3D('',#1346,#1347,#1348);
#1350=CYLINDRICAL_SURFACE('',#1349,1.5E0);
#1352=ORIENTED_EDGE('',*,*,#1351,.T.);
#1354=ORIENTED_EDGE('',*,*,#1353,.F.);
#1355=ORIENTED_EDGE('',*,*,#905,.F.);
#1357=ORIENTED_EDGE('',*,*,#1356,.T.);
#1358=EDGE_LOOP('',(#1352,#1354,#1355,#1357));
#1359=FACE_OUTER_BOUND('',#1358,.F.);
#1360=ADVANCED_FACE('',(#1359),#1350,.F.);
#1361=CARTESIAN_POINT('',(0.E0,0.E0,0.E0));
#1362=DIRECTION('',(0.E0,-1.E0,0.E0));
#1363=DIRECTION('',(-5.E-1,0.E0,-8.660254037844E-1));
#1364=AXIS2_PLACEMENT_3D('',#1361,#1362,#1363);
#1365=PLANE('',#1364);
#1367=ORIENTED_EDGE('',*,*,#1366,.F.);
#1369=ORIENTED_EDGE('',*,*,#1368,.F.);
#1370=EDGE_LOOP('',(#1367,#1369));
#1371=FACE_OUTER_BOUND('',#1370,.F.);
#1372=ORIENTED_EDGE('',*,*,#1351,.F.);
#1374=ORIENTED_EDGE('',*,*,#1373,.F.);
#1375=EDGE_LOOP('',(#1372,#1374));
#1376=FACE_BOUND('',#1375,.F.);
#1377=ADVANCED_FACE('',(#1371,#1376),#1365,.T.);
#1378=CARTESIAN_POINT('',(1.169134295109E1,-3.E0,-6.75E0));
#1379=DIRECTION('',(0.E0,-1.E0,0.E0));
#1380=DIRECTION('',(-5.E-1,0.E0,-8.660254037844E-1));
#1381=AXIS2_PLACEMENT_3D('',#1378,#1379,#1380);
#1382=CYLINDRICAL_SURFACE('',#1381,2.75E0);
#1383=ORIENTED_EDGE('',*,*,#815,.F.);
#1385=ORIENTED_EDGE('',*,*,#1384,.T.);
#1386=ORIENTED_EDGE('',*,*,#1366,.T.);
#1388=ORIENTED_EDGE('',*,*,#1387,.F.);
#1389=EDGE_LOOP('',(#1383,#1385,#1386,#1388));
#1390=FACE_OUTER_BOUND('',#1389,.F.);
#1391=ADVANCED_FACE('',(#1390),#1382,.F.);
#1392=CARTESIAN_POINT('',(1.169134295109E1,-3.E0,-6.75E0));
#1393=DIRECTION('',(0.E0,-1.E0,0.E0));
#1394=DIRECTION('',(-5.E-1,0.E0,-8.660254037844E-1));
#1395=AXIS2_PLACEMENT_3D('',#1392,#1393,#1394);
#1396=CYLINDRICAL_SURFACE('',#1395,2.75E0);
#1397=ORIENTED_EDGE('',*,*,#817,.F.);
#1398=ORIENTED_EDGE('',*,*,#1387,.T.);
#1399=ORIENTED_EDGE('',*,*,#1368,.T.);
#1400=ORIENTED_EDGE('',*,*,#1384,.F.);
#1401=EDGE_LOOP('',(#1397,#1398,#1399,#1400));
#1402=FACE_OUTER_BOUND('',#1401,.F.);
#1403=ADVANCED_FACE('',(#1402),#1396,.F.);
#1404=CARTESIAN_POINT('',(1.169134295109E1,3.E0,-6.75E0));
#1405=DIRECTION('',(0.E0,1.E0,0.E0));
#1406=DIRECTION('',(5.E-1,0.E0,8.660254037844E-1));
#1407=AXIS2_PLACEMENT_3D('',#1404,#1405,#1406);
#1408=CYLINDRICAL_SURFACE('',#1407,1.5E0);
#1409=ORIENTED_EDGE('',*,*,#1373,.T.);
#1410=ORIENTED_EDGE('',*,*,#1356,.F.);
#1411=ORIENTED_EDGE('',*,*,#907,.F.);
#1412=ORIENTED_EDGE('',*,*,#1353,.T.);
#1413=EDGE_LOOP('',(#1409,#1410,#1411,#1412));
#1414=FACE_OUTER_BOUND('',#1413,.F.);
#1415=ADVANCED_FACE('',(#1414),#1408,.F.);
#1416=CARTESIAN_POINT('',(0.E0,3.E0,-1.35E1));
#1417=DIRECTION('',(0.E0,1.E0,0.E0));
#1418=DIRECTION('',(1.E0,0.E0,0.E0));
#1419=AXIS2_PLACEMENT_3D('',#1416,#1417,#1418);
#1420=CYLINDRICAL_SURFACE('',#1419,1.5E0);
#1422=ORIENTED_EDGE('',*,*,#1421,.T.);
#1424=ORIENTED_EDGE('',*,*,#1423,.F.);
#1425=ORIENTED_EDGE('',*,*,#911,.F.);
#1427=ORIENTED_EDGE('',*,*,#1426,.T.);
#1428=EDGE_LOOP('',(#1422,#1424,#1425,#1427));
#1429=FACE_OUTER_BOUND('',#1428,.F.);
#1430=ADVANCED_FACE('',(#1429),#1420,.F.);
#1431=CARTESIAN_POINT('',(0.E0,0.E0,0.E0));
#1432=DIRECTION('',(0.E0,-1.E0,0.E0));
#1433=DIRECTION('',(-1.E0,0.E0,0.E0));
#1434=AXIS2_PLACEMENT_3D('',#1431,#1432,#1433);
#1435=PLANE('',#1434);
#1437=ORIENTED_EDGE('',*,*,#1436,.F.);
#1439=ORIENTED_EDGE('',*,*,#1438,.F.);
#1440=EDGE_LOOP('',(#1437,#1439));
#1441=FACE_OUTER_BOUND('',#1440,.F.);
#1442=ORIENTED_EDGE('',*,*,#1421,.F.);
#1444=ORIENTED_EDGE('',*,*,#1443,.F.);
#1445=EDGE_LOOP('',(#1442,#1444));
#1446=FACE_BOUND('',#1445,.F.);
#1447=ADVANCED_FACE('',(#1441,#1446),#1435,.T.);
#1448=CARTESIAN_POINT('',(0.E0,-3.E0,-1.35E1));
#1449=DIRECTION('',(0.E0,-1.E0,0.E0));
#1450=DIRECTION('',(-1.E0,0.E0,0.E0));
#1451=AXIS2_PLACEMENT_3D('',#1448,#1449,#1450);
#1452=CYLINDRICAL_SURFACE('',#1451,2.75E0);
#1453=ORIENTED_EDGE('',*,*,#821,.F.);
#1455=ORIENTED_EDGE('',*,*,#1454,.T.);
#1456=ORIENTED_EDGE('',*,*,#1436,.T.);
#1458=ORIENTED_EDGE('',*,*,#1457,.F.);
#1459=EDGE_LOOP('',(#1453,#1455,#1456,#1458));
#1460=FACE_OUTER_BOUND('',#1459,.F.);
#1461=ADVANCED_FACE('',(#1460),#1452,.F.);
#1462=CARTESIAN_POINT('',(0.E0,-3.E0,-1.35E1));
#1463=DIRECTION('',(0.E0,-1.E0,0.E0));
#1464=DIRECTION('',(-1.E0,0.E0,0.E0));
#1465=AXIS2_PLACEMENT_3D('',#1462,#1463,#1464);
#1466=CYLINDRICAL_SURFACE('',#1465,2.75E0);
#1467=ORIENTED_EDGE('',*,*,#823,.F.);
#1468=ORIENTED_EDGE('',*,*,#1457,.T.);
#1469=ORIENTED_EDGE('',*,*,#1438,.T.);
#1470=ORIENTED_EDGE('',*,*,#1454,.F.);
#1471=EDGE_LOOP('',(#1467,#1468,#1469,#1470));
#1472=FACE_OUTER_BOUND('',#1471,.F.);
#1473=ADVANCED_FACE('',(#1472),#1466,.F.);
#1474=CARTESIAN_POINT('',(0.E0,3.E0,-1.35E1));
#1475=DIRECTION('',(0.E0,1.E0,0.E0));
#1476=DIRECTION('',(1.E0,0.E0,0.E0));
#1477=AXIS2_PLACEMENT_3D('',#1474,#1475,#1476);
#1478=CYLINDRICAL_SURFACE('',#1477,1.5E0);
#1479=ORIENTED_EDGE('',*,*,#1443,.T.);
#1480=ORIENTED_EDGE('',*,*,#1426,.F.);
#1481=ORIENTED_EDGE('',*,*,#913,.F.);
#1482=ORIENTED_EDGE('',*,*,#1423,.T.);
#1483=EDGE_LOOP('',(#1479,#1480,#1481,#1482));
#1484=FACE_OUTER_BOUND('',#1483,.F.);
#1485=ADVANCED_FACE('',(#1484),#1478,.F.);
#1486=CARTESIAN_POINT('',(-1.169134295109E1,3.E0,-6.75E0));
#1487=DIRECTION('',(0.E0,1.E0,0.E0));
#1488=DIRECTION('',(5.E-1,0.E0,-8.660254037844E-1));
#1489=AXIS2_PLACEMENT_3D('',#1486,#1487,#1488);
#1490=CYLINDRICAL_SURFACE('',#1489,1.5E0);
#1492=ORIENTED_EDGE('',*,*,#1491,.T.);
#1494=ORIENTED_EDGE('',*,*,#1493,.F.);
#1495=ORIENTED_EDGE('',*,*,#917,.F.);
#1497=ORIENTED_EDGE('',*,*,#1496,.T.);
#1498=EDGE_LOOP('',(#1492,#1494,#1495,#1497));
#1499=FACE_OUTER_BOUND('',#1498,.F.);
#1500=ADVANCED_FACE('',(#1499),#1490,.F.);
#1501=CARTESIAN_POINT('',(0.E0,0.E0,0.E0));
#1502=DIRECTION('',(0.E0,-1.E0,0.E0));
#1503=DIRECTION('',(-5.E-1,0.E0,8.660254037844E-1));
#1504=AXIS2_PLACEMENT_3D('',#1501,#1502,#1503);
#1505=PLANE('',#1504);
#1507=ORIENTED_EDGE('',*,*,#1506,.F.);
#1509=ORIENTED_EDGE('',*,*,#1508,.F.);
#1510=EDGE_LOOP('',(#1507,#1509));
#1511=FACE_OUTER_BOUND('',#1510,.F.);
#1512=ORIENTED_EDGE('',*,*,#1491,.F.);
#1514=ORIENTED_EDGE('',*,*,#1513,.F.);
#1515=EDGE_LOOP('',(#1512,#1514));
#1516=FACE_BOUND('',#1515,.F.);
#1517=ADVANCED_FACE('',(#1511,#1516),#1505,.T.);
#1518=CARTESIAN_POINT('',(-1.169134295109E1,-3.E0,-6.75E0));
#1519=DIRECTION('',(0.E0,-1.E0,0.E0));
#1520=DIRECTION('',(-5.E-1,0.E0,8.660254037844E-1));
#1521=AXIS2_PLACEMENT_3D('',#1518,#1519,#1520);
#1522=CYLINDRICAL_SURFACE('',#1521,2.75E0);
#1523=ORIENTED_EDGE('',*,*,#827,.F.);
#1525=ORIENTED_EDGE('',*,*,#1524,.T.);
#1526=ORIENTED_EDGE('',*,*,#1506,.T.);
#1528=ORIENTED_EDGE('',*,*,#1527,.F.);
#1529=EDGE_LOOP('',(#1523,#1525,#1526,#1528));
#1530=FACE_OUTER_BOUND('',#1529,.F.);
#1531=ADVANCED_FACE('',(#1530),#1522,.F.);
#1532=CARTESIAN_POINT('',(-1.169134295109E1,-3.E0,-6.75E0));
#1533=DIRECTION('',(0.E0,-1.E0,0.E0));
#1534=DIRECTION('',(-5.E-1,0.E0,8.660254037844E-1));
#1535=AXIS2_PLACEMENT_3D('',#1532,#1533,#1534);
#1536=CYLINDRICAL_SURFACE('',#1535,2.75E0);
#1537=ORIENTED_EDGE('',*,*,#829,.F.);
#1538=ORIENTED_EDGE('',*,*,#1527,.T.);
#1539=ORIENTED_EDGE('',*,*,#1508,.T.);
#1540=ORIENTED_EDGE('',*,*,#1524,.F.);
#1541=EDGE_LOOP('',(#1537,#1538,#1539,#1540));
#1542=FACE_OUTER_BOUND('',#1541,.F.);
#1543=ADVANCED_FACE('',(#1542),#1536,.F.);
#1544=CARTESIAN_POINT('',(-1.169134295109E1,3.E0,-6.75E0));
#1545=DIRECTION('',(0.E0,1.E0,0.E0));
#1546=DIRECTION('',(5.E-1,0.E0,-8.660254037844E-1));
#1547=AXIS2_PLACEMENT_3D('',#1544,#1545,#1546);
#1548=CYLINDRICAL_SURFACE('',#1547,1.5E0);
#1549=ORIENTED_EDGE('',*,*,#1513,.T.);
#1550=ORIENTED_EDGE('',*,*,#1496,.F.);
#1551=ORIENTED_EDGE('',*,*,#919,.F.);
#1552=ORIENTED_EDGE('',*,*,#1493,.T.);
#1553=EDGE_LOOP('',(#1549,#1550,#1551,#1552));
#1554=FACE_OUTER_BOUND('',#1553,.F.);
#1555=ADVANCED_FACE('',(#1554),#1548,.F.);
#1556=CARTESIAN_POINT('',(-1.169134295109E1,3.E0,6.75E0));
#1557=DIRECTION('',(0.E0,1.E0,0.E0));
#1558=DIRECTION('',(-5.E-1,0.E0,-8.660254037844E-1));
#1559=AXIS2_PLACEMENT_3D('',#1556,#1557,#1558);
#1560=CYLINDRICAL_SURFACE('',#1559,1.5E0);
#1562=ORIENTED_EDGE('',*,*,#1561,.T.);
#1564=ORIENTED_EDGE('',*,*,#1563,.F.);
#1565=ORIENTED_EDGE('',*,*,#923,.F.);
#1567=ORIENTED_EDGE('',*,*,#1566,.T.);
#1568=EDGE_LOOP('',(#1562,#1564,#1565,#1567));
#1569=FACE_OUTER_BOUND('',#1568,.F.);
#1570=ADVANCED_FACE('',(#1569),#1560,.F.);
#1571=CARTESIAN_POINT('',(0.E0,0.E0,0.E0));
#1572=DIRECTION('',(0.E0,-1.E0,0.E0));
#1573=DIRECTION('',(5.E-1,0.E0,8.660254037844E-1));
#1574=AXIS2_PLACEMENT_3D('',#1571,#1572,#1573);
#1575=PLANE('',#1574);
#1577=ORIENTED_EDGE('',*,*,#1576,.F.);
#1579=ORIENTED_EDGE('',*,*,#1578,.F.);
#1580=EDGE_LOOP('',(#1577,#1579));
#1581=FACE_OUTER_BOUND('',#1580,.F.);
#1582=ORIENTED_EDGE('',*,*,#1561,.F.);
#1584=ORIENTED_EDGE('',*,*,#1583,.F.);
#1585=EDGE_LOOP('',(#1582,#1584));
#1586=FACE_BOUND('',#1585,.F.);
#1587=ADVANCED_FACE('',(#1581,#1586),#1575,.T.);
#1588=CARTESIAN_POINT('',(-1.169134295109E1,-3.E0,6.75E0));
#1589=DIRECTION('',(0.E0,-1.E0,0.E0));
#1590=DIRECTION('',(5.E-1,0.E0,8.660254037844E-1));
#1591=AXIS2_PLACEMENT_3D('',#1588,#1589,#1590);
#1592=CYLINDRICAL_SURFACE('',#1591,2.75E0);
#1593=ORIENTED_EDGE('',*,*,#833,.F.);
#1595=ORIENTED_EDGE('',*,*,#1594,.T.);
#1596=ORIENTED_EDGE('',*,*,#1576,.T.);
#1598=ORIENTED_EDGE('',*,*,#1597,.F.);
#1599=EDGE_LOOP('',(#1593,#1595,#1596,#1598));
#1600=FACE_OUTER_BOUND('',#1599,.F.);
#1601=ADVANCED_FACE('',(#1600),#1592,.F.);
#1602=CARTESIAN_POINT('',(-1.169134295109E1,-3.E0,6.75E0));
#1603=DIRECTION('',(0.E0,-1.E0,0.E0));
#1604=DIRECTION('',(5.E-1,0.E0,8.660254037844E-1));
#1605=AXIS2_PLACEMENT_3D('',#1602,#1603,#1604);
#1606=CYLINDRICAL_SURFACE('',#1605,2.75E0);
#1607=ORIENTED_EDGE('',*,*,#835,.F.);
#1608=ORIENTED_EDGE('',*,*,#1597,.T.);
#1609=ORIENTED_EDGE('',*,*,#1578,.T.);
#1610=ORIENTED_EDGE('',*,*,#1594,.F.);
#1611=EDGE_LOOP('',(#1607,#1608,#1609,#1610));
#1612=FACE_OUTER_BOUND('',#1611,.F.);
#1613=ADVANCED_FACE('',(#1612),#1606,.F.);
#1614=CARTESIAN_POINT('',(-1.169134295109E1,3.E0,6.75E0));
#1615=DIRECTION('',(0.E0,1.E0,0.E0));
#1616=DIRECTION('',(-5.E-1,0.E0,-8.660254037844E-1));
#1617=AXIS2_PLACEMENT_3D('',#1614,#1615,#1616);
#1618=CYLINDRICAL_SURFACE('',#1617,1.5E0);
#1619=ORIENTED_EDGE('',*,*,#1583,.T.);
#1620=ORIENTED_EDGE('',*,*,#1566,.F.);
#1621=ORIENTED_EDGE('',*,*,#925,.F.);
#1622=ORIENTED_EDGE('',*,*,#1563,.T.);
#1623=EDGE_LOOP('',(#1619,#1620,#1621,#1622));
#1624=FACE_OUTER_BOUND('',#1623,.F.);
#1625=ADVANCED_FACE('',(#1624),#1618,.F.);
#1629=DIMENSIONAL_EXPONENTS(0.E0,0.E0,0.E0,0.E0,0.E0,0.E0,0.E0);
#1631=PLANE_ANGLE_MEASURE_WITH_UNIT(PLANE_ANGLE_MEASURE(1.745329251994E-2),
#1630);
#1632=(CONVERSION_BASED_UNIT('DEGREE',#1631)NAMED_UNIT(*)PLANE_ANGLE_UNIT());
#1634=UNCERTAINTY_MEASURE_WITH_UNIT(LENGTH_MEASURE(1.306461133961E-2),#1628,
'closure',
'Maximum model space distance between geometric entities at asserted connectivities');
#1635=(GEOMETRIC_REPRESENTATION_CONTEXT(3)GLOBAL_UNCERTAINTY_ASSIGNED_CONTEXT((
#1634))GLOBAL_UNIT_ASSIGNED_CONTEXT((#1628,#1632,#1633))REPRESENTATION_CONTEXT(
'ID1','3'));
#1637=APPLICATION_CONTEXT(
'CONFIGURATION CONTROLLED 3D DESIGNS OF MECHANICAL PARTS AND ASSEMBLIES');
#1638=APPLICATION_PROTOCOL_DEFINITION('international standard',
'config_control_design',1994,#1637);
#1639=DESIGN_CONTEXT('',#1637,'design');
#1640=MECHANICAL_CONTEXT('',#1637,'mechanical');
#1641=PRODUCT('LIANGAN3','LIANGAN3','NOT SPECIFIED',(#1640));
#1642=PRODUCT_DEFINITION_FORMATION_WITH_SPECIFIED_SOURCE('7','LAST_VERSION',
#1641,.MADE.);
#1646=PRODUCT_CATEGORY('part','');
#1647=PRODUCT_RELATED_PRODUCT_CATEGORY('detail','',(#1641));
#1648=PRODUCT_CATEGORY_RELATIONSHIP('','',#1646,#1647);
#1649=SECURITY_CLASSIFICATION_LEVEL('unclassified');
#1650=SECURITY_CLASSIFICATION('','',#1649);
#1651=CC_DESIGN_SECURITY_CLASSIFICATION(#1650,(#1642));
#1652=APPROVAL_STATUS('approved');
#1653=APPROVAL(#1652,'');
#1654=CC_DESIGN_APPROVAL(#1653,(#1650,#1642,#1643));
#1655=CALENDAR_DATE(124,8,4);
#1656=COORDINATED_UNIVERSAL_TIME_OFFSET(8,0,.AHEAD.);
#1657=LOCAL_TIME(9,45,1.4E1,#1656);
#1658=DATE_AND_TIME(#1655,#1657);
#1659=APPROVAL_DATE_TIME(#1658,#1653);
#1660=DATE_TIME_ROLE('creation_date');
#1661=CC_DESIGN_DATE_AND_TIME_ASSIGNMENT(#1658,#1660,(#1643));
#1662=DATE_TIME_ROLE('classification_date');
#1663=CC_DESIGN_DATE_AND_TIME_ASSIGNMENT(#1658,#1662,(#1650));
#1664=PERSON('UNSPECIFIED','UNSPECIFIED',$,$,$,$);
#1665=ORGANIZATION('UNSPECIFIED','UNSPECIFIED','UNSPECIFIED');
#1666=PERSON_AND_ORGANIZATION(#1664,#1665);
#1667=APPROVAL_ROLE('approver');
#1668=APPROVAL_PERSON_ORGANIZATION(#1666,#1653,#1667);
#1669=PERSON_AND_ORGANIZATION_ROLE('creator');
#1670=CC_DESIGN_PERSON_AND_ORGANIZATION_ASSIGNMENT(#1666,#1669,(#1642,#1643));
#1671=PERSON_AND_ORGANIZATION_ROLE('design_supplier');
#1672=CC_DESIGN_PERSON_AND_ORGANIZATION_ASSIGNMENT(#1666,#1671,(#1642));
#1673=PERSON_AND_ORGANIZATION_ROLE('classification_officer');
#1674=CC_DESIGN_PERSON_AND_ORGANIZATION_ASSIGNMENT(#1666,#1673,(#1650));
#1675=PERSON_AND_ORGANIZATION_ROLE('design_owner');
#1676=CC_DESIGN_PERSON_AND_ORGANIZATION_ASSIGNMENT(#1666,#1675,(#1641));
#6=CIRCLE('',#5,8.E0);
#11=CIRCLE('',#10,8.E0);
#16=CIRCLE('',#15,6.5E0);
#21=CIRCLE('',#20,6.5E0);
#26=CIRCLE('',#25,2.75E0);
#31=CIRCLE('',#30,2.75E0);
#36=CIRCLE('',#35,2.75E0);
#41=CIRCLE('',#40,2.75E0);
#46=CIRCLE('',#45,2.75E0);
#51=CIRCLE('',#50,2.75E0);
#56=CIRCLE('',#55,2.75E0);
#61=CIRCLE('',#60,2.75E0);
#66=CIRCLE('',#65,2.75E0);
#71=CIRCLE('',#70,2.75E0);
#76=CIRCLE('',#75,2.75E0);
#81=CIRCLE('',#80,2.75E0);
#86=CIRCLE('',#85,1.2E1);
#91=CIRCLE('',#90,1.75E1);
#104=CIRCLE('',#103,1.75E1);
#113=CIRCLE('',#112,1.2E1);
#122=CIRCLE('',#121,8.E0);
#127=CIRCLE('',#126,8.E0);
#132=CIRCLE('',#131,6.5E0);
#137=CIRCLE('',#136,6.5E0);
#142=CIRCLE('',#141,1.5E0);
#147=CIRCLE('',#146,1.5E0);
#152=CIRCLE('',#151,1.5E0);
#157=CIRCLE('',#156,1.5E0);
#162=CIRCLE('',#161,1.5E0);
#167=CIRCLE('',#166,1.5E0);
#172=CIRCLE('',#171,1.5E0);
#177=CIRCLE('',#176,1.5E0);
#182=CIRCLE('',#181,1.5E0);
#187=CIRCLE('',#186,1.5E0);
#192=CIRCLE('',#191,1.5E0);
#197=CIRCLE('',#196,1.5E0);
#202=CIRCLE('',#201,3.E0);
#211=CIRCLE('',#210,3.E0);
#220=CIRCLE('',#219,3.E0);
#229=CIRCLE('',#228,3.E0);
#238=CIRCLE('',#237,1.75E1);
#259=CIRCLE('',#258,1.2E1);
#264=CIRCLE('',#263,1.2E1);
#269=CIRCLE('',#268,1.75E1);
#274=CIRCLE('',#273,1.75E1);
#279=CIRCLE('',#278,3.E0);
#288=CIRCLE('',#287,3.E0);
#297=CIRCLE('',#296,3.E0);
#306=CIRCLE('',#305,3.E0);
#315=CIRCLE('',#314,1.2E1);
#384=CIRCLE('',#383,1.5E0);
#393=CIRCLE('',#392,2.75E0);
#398=CIRCLE('',#397,2.75E0);
#411=CIRCLE('',#410,1.5E0);
#420=CIRCLE('',#419,1.5E0);
#429=CIRCLE('',#428,2.75E0);
#434=CIRCLE('',#433,2.75E0);
#447=CIRCLE('',#446,1.5E0);
#456=CIRCLE('',#455,1.5E0);
#465=CIRCLE('',#464,2.75E0);
#470=CIRCLE('',#469,2.75E0);
#483=CIRCLE('',#482,1.5E0);
#492=CIRCLE('',#491,1.5E0);
#501=CIRCLE('',#500,2.75E0);
#506=CIRCLE('',#505,2.75E0);
#519=CIRCLE('',#518,1.5E0);
#528=CIRCLE('',#527,1.5E0);
#537=CIRCLE('',#536,2.75E0);
#542=CIRCLE('',#541,2.75E0);
#555=CIRCLE('',#554,1.5E0);
#564=CIRCLE('',#563,1.5E0);
#573=CIRCLE('',#572,2.75E0);
#578=CIRCLE('',#577,2.75E0);
#591=CIRCLE('',#590,1.5E0);
#773=EDGE_CURVE('',#719,#718,#315,.T.);
#775=EDGE_CURVE('',#718,#719,#86,.T.);
#779=EDGE_CURVE('',#610,#611,#16,.T.);
#781=EDGE_CURVE('',#611,#610,#21,.T.);
#791=EDGE_CURVE('',#723,#722,#238,.T.);
#793=EDGE_CURVE('',#722,#723,#91,.T.);
#797=EDGE_CURVE('',#598,#599,#6,.T.);
#799=EDGE_CURVE('',#599,#598,#11,.T.);
#803=EDGE_CURVE('',#650,#651,#26,.T.);
#805=EDGE_CURVE('',#651,#650,#31,.T.);
#809=EDGE_CURVE('',#662,#663,#36,.T.);
#811=EDGE_CURVE('',#663,#662,#41,.T.);
#815=EDGE_CURVE('',#674,#675,#46,.T.);
#817=EDGE_CURVE('',#675,#674,#51,.T.);
#821=EDGE_CURVE('',#686,#687,#56,.T.);
#823=EDGE_CURVE('',#687,#686,#61,.T.);
#827=EDGE_CURVE('',#698,#699,#66,.T.);
#829=EDGE_CURVE('',#699,#698,#71,.T.);
#833=EDGE_CURVE('',#710,#711,#76,.T.);
#835=EDGE_CURVE('',#711,#710,#81,.T.);
#846=EDGE_CURVE('',#598,#602,#95,.T.);
#848=EDGE_CURVE('',#602,#603,#122,.T.);
#850=EDGE_CURVE('',#599,#603,#99,.T.);
#862=EDGE_CURVE('',#603,#602,#127,.T.);
#873=EDGE_CURVE('',#606,#607,#104,.T.);
#875=EDGE_CURVE('',#619,#606,#108,.T.);
#877=EDGE_CURVE('',#618,#619,#113,.T.);
#879=EDGE_CURVE('',#607,#618,#117,.T.);
#887=EDGE_CURVE('',#613,#615,#132,.T.);
#889=EDGE_CURVE('',#615,#613,#137,.T.);
#893=EDGE_CURVE('',#622,#623,#142,.T.);
#895=EDGE_CURVE('',#623,#622,#147,.T.);
#899=EDGE_CURVE('',#626,#627,#152,.T.);
#901=EDGE_CURVE('',#627,#626,#157,.T.);
#905=EDGE_CURVE('',#630,#631,#162,.T.);
#907=EDGE_CURVE('',#631,#630,#167,.T.);
#911=EDGE_CURVE('',#634,#635,#172,.T.);
#913=EDGE_CURVE('',#635,#634,#177,.T.);
#917=EDGE_CURVE('',#638,#639,#182,.T.);
#919=EDGE_CURVE('',#639,#638,#187,.T.);
#923=EDGE_CURVE('',#642,#643,#192,.T.);
#925=EDGE_CURVE('',#643,#642,#197,.T.);
#929=EDGE_CURVE('',#738,#739,#202,.T.);
#931=EDGE_CURVE('',#743,#738,#206,.T.);
#933=EDGE_CURVE('',#741,#743,#211,.T.);
#935=EDGE_CURVE('',#739,#741,#215,.T.);
#939=EDGE_CURVE('',#754,#755,#220,.T.);
#941=EDGE_CURVE('',#759,#754,#224,.T.);
#943=EDGE_CURVE('',#757,#759,#229,.T.);
#945=EDGE_CURVE('',#755,#757,#233,.T.);
#955=EDGE_CURVE('',#726,#607,#254,.T.);
#957=EDGE_CURVE('',#726,#735,#274,.T.);
#959=EDGE_CURVE('',#723,#735,#339,.T.);
#962=EDGE_CURVE('',#731,#722,#242,.T.);
#964=EDGE_CURVE('',#731,#606,#246,.T.);
#975=EDGE_CURVE('',#726,#727,#250,.T.);
#979=EDGE_CURVE('',#727,#618,#323,.T.);
#990=EDGE_CURVE('',#733,#727,#259,.T.);
#992=EDGE_CURVE('',#730,#733,#264,.T.);
#994=EDGE_CURVE('',#730,#731,#331,.T.);
#996=EDGE_CURVE('',#735,#731,#269,.T.);
#1001=EDGE_CURVE('',#746,#747,#279,.T.);
#1003=EDGE_CURVE('',#747,#749,#283,.T.);
#1005=EDGE_CURVE('',#749,#751,#288,.T.);
#1007=EDGE_CURVE('',#751,#746,#292,.T.);
#1011=EDGE_CURVE('',#762,#763,#297,.T.);
#1013=EDGE_CURVE('',#763,#765,#301,.T.);
#1015=EDGE_CURVE('',#765,#767,#306,.T.);
#1017=EDGE_CURVE('',#767,#762,#310,.T.);
#1028=EDGE_CURVE('',#718,#733,#319,.T.);
#1033=EDGE_CURVE('',#730,#619,#335,.T.);
#1035=EDGE_CURVE('',#730,#719,#327,.T.);
#1082=EDGE_CURVE('',#747,#739,#347,.T.);
#1085=EDGE_CURVE('',#746,#738,#343,.T.);
#1096=EDGE_CURVE('',#749,#741,#351,.T.);
#1109=EDGE_CURVE('',#751,#743,#355,.T.);
#1134=EDGE_CURVE('',#763,#755,#363,.T.);
#1137=EDGE_CURVE('',#762,#754,#359,.T.);
#1148=EDGE_CURVE('',#765,#757,#367,.T.);
#1161=EDGE_CURVE('',#767,#759,#371,.T.);
#1186=EDGE_CURVE('',#615,#610,#379,.T.);
#1189=EDGE_CURVE('',#613,#611,#375,.T.);
#1211=EDGE_CURVE('',#654,#655,#384,.T.);
#1213=EDGE_CURVE('',#623,#655,#415,.T.);
#1216=EDGE_CURVE('',#622,#654,#388,.T.);
#1226=EDGE_CURVE('',#646,#647,#393,.T.);
#1228=EDGE_CURVE('',#647,#646,#398,.T.);
#1233=EDGE_CURVE('',#655,#654,#411,.T.);
#1244=EDGE_CURVE('',#650,#646,#402,.T.);
#1247=EDGE_CURVE('',#651,#647,#406,.T.);
#1281=EDGE_CURVE('',#666,#667,#420,.T.);
#1283=EDGE_CURVE('',#627,#667,#451,.T.);
#1286=EDGE_CURVE('',#626,#666,#424,.T.);
#1296=EDGE_CURVE('',#658,#659,#429,.T.);
#1298=EDGE_CURVE('',#659,#658,#434,.T.);
#1303=EDGE_CURVE('',#667,#666,#447,.T.);
#1314=EDGE_CURVE('',#662,#658,#438,.T.);
#1317=EDGE_CURVE('',#663,#659,#442,.T.);
#1351=EDGE_CURVE('',#678,#679,#456,.T.);
#1353=EDGE_CURVE('',#631,#679,#487,.T.);
#1356=EDGE_CURVE('',#630,#678,#460,.T.);
#1366=EDGE_CURVE('',#670,#671,#465,.T.);
#1368=EDGE_CURVE('',#671,#670,#470,.T.);
#1373=EDGE_CURVE('',#679,#678,#483,.T.);
#1384=EDGE_CURVE('',#674,#670,#474,.T.);
#1387=EDGE_CURVE('',#675,#671,#478,.T.);
#1421=EDGE_CURVE('',#690,#691,#492,.T.);
#1423=EDGE_CURVE('',#635,#691,#523,.T.);
#1426=EDGE_CURVE('',#634,#690,#496,.T.);
#1436=EDGE_CURVE('',#682,#683,#501,.T.);
#1438=EDGE_CURVE('',#683,#682,#506,.T.);
#1443=EDGE_CURVE('',#691,#690,#519,.T.);
#1454=EDGE_CURVE('',#686,#682,#510,.T.);
#1457=EDGE_CURVE('',#687,#683,#514,.T.);
#1491=EDGE_CURVE('',#702,#703,#528,.T.);
#1493=EDGE_CURVE('',#639,#703,#559,.T.);
#1496=EDGE_CURVE('',#638,#702,#532,.T.);
#1506=EDGE_CURVE('',#694,#695,#537,.T.);
#1508=EDGE_CURVE('',#695,#694,#542,.T.);
#1513=EDGE_CURVE('',#703,#702,#555,.T.);
#1524=EDGE_CURVE('',#698,#694,#546,.T.);
#1527=EDGE_CURVE('',#699,#695,#550,.T.);
#1561=EDGE_CURVE('',#714,#715,#564,.T.);
#1563=EDGE_CURVE('',#643,#715,#595,.T.);
#1566=EDGE_CURVE('',#642,#714,#568,.T.);
#1576=EDGE_CURVE('',#706,#707,#573,.T.);
#1578=EDGE_CURVE('',#707,#706,#578,.T.);
#1583=EDGE_CURVE('',#715,#714,#591,.T.);
#1594=EDGE_CURVE('',#710,#706,#582,.T.);
#1597=EDGE_CURVE('',#711,#707,#586,.T.);
#1626=CLOSED_SHELL('',(#785,#839,#854,#867,#949,#969,#983,#1021,#1039,#1051,
#1063,#1075,#1089,#1102,#1115,#1127,#1141,#1154,#1167,#1179,#1193,#1205,#1220,
#1237,#1251,#1263,#1275,#1290,#1307,#1321,#1333,#1345,#1360,#1377,#1391,#1403,
#1415,#1430,#1447,#1461,#1473,#1485,#1500,#1517,#1531,#1543,#1555,#1570,#1587,
#1601,#1613,#1625));
#1627=MANIFOLD_SOLID_BREP('',#1626);
#1628=(LENGTH_UNIT()NAMED_UNIT(*)SI_UNIT(.MILLI.,.METRE.));
#1630=(NAMED_UNIT(*)PLANE_ANGLE_UNIT()SI_UNIT($,.RADIAN.));
#1633=(NAMED_UNIT(*)SI_UNIT($,.STERADIAN.)SOLID_ANGLE_UNIT());
#1636=ADVANCED_BREP_SHAPE_REPRESENTATION('',(#1627),#1635);
#1643=PRODUCT_DEFINITION('design','',#1642,#1639);
#1644=PRODUCT_DEFINITION_SHAPE('','SHAPE FOR LIANGAN3.',#1643);
#1645=SHAPE_DEFINITION_REPRESENTATION(#1644,#1636);
ENDSEC;
END-ISO-10303-21;
