ISO-10303-21;
HEADER;
FILE_DESCRIPTION((''),'2;1');
FILE_NAME('LVGUAN-3','2024-04-09T11:07:26',('005'),(''),
'CREO PARAMETRIC BY PTC INC, 2020053','CREO PARAMETRIC BY PTC INC, 2020053','');
FILE_SCHEMA(('CONFIG_CONTROL_DESIGN'));
ENDSEC;
DATA;
#1=DIRECTION('',(0.E0,0.E0,-1.E0));
#2=VECTOR('',#1,2.E1);
#3=CARTESIAN_POINT('',(-6.25E1,-1.E1,1.E1));
#4=LINE('',#3,#2);
#5=DIRECTION('',(0.E0,1.E0,0.E0));
#6=VECTOR('',#5,2.E1);
#7=CARTESIAN_POINT('',(-6.25E1,-1.E1,-1.E1));
#8=LINE('',#7,#6);
#9=DIRECTION('',(0.E0,0.E0,1.E0));
#10=VECTOR('',#9,2.E1);
#11=CARTESIAN_POINT('',(-6.25E1,1.E1,-1.E1));
#12=LINE('',#11,#10);
#13=DIRECTION('',(0.E0,-1.E0,0.E0));
#14=VECTOR('',#13,2.E1);
#15=CARTESIAN_POINT('',(-6.25E1,1.E1,1.E1));
#16=LINE('',#15,#14);
#17=DIRECTION('',(0.E0,1.E0,0.E0));
#18=VECTOR('',#17,1.8E1);
#19=CARTESIAN_POINT('',(-6.25E1,-9.E0,9.E0));
#20=LINE('',#19,#18);
#21=DIRECTION('',(0.E0,0.E0,-1.E0));
#22=VECTOR('',#21,1.8E1);
#23=CARTESIAN_POINT('',(-6.25E1,9.E0,9.E0));
#24=LINE('',#23,#22);
#25=DIRECTION('',(0.E0,-1.E0,0.E0));
#26=VECTOR('',#25,1.8E1);
#27=CARTESIAN_POINT('',(-6.25E1,9.E0,-9.E0));
#28=LINE('',#27,#26);
#29=DIRECTION('',(0.E0,0.E0,1.E0));
#30=VECTOR('',#29,1.8E1);
#31=CARTESIAN_POINT('',(-6.25E1,-9.E0,-9.E0));
#32=LINE('',#31,#30);
#33=DIRECTION('',(1.E0,0.E0,0.E0));
#34=VECTOR('',#33,1.25E2);
#35=CARTESIAN_POINT('',(-6.25E1,-1.E1,1.E1));
#36=LINE('',#35,#34);
#37=CARTESIAN_POINT('',(0.E0,-1.E1,0.E0));
#38=DIRECTION('',(0.E0,1.E0,0.E0));
#39=DIRECTION('',(-1.E0,0.E0,0.E0));
#40=AXIS2_PLACEMENT_3D('',#37,#38,#39);
#42=CARTESIAN_POINT('',(0.E0,-1.E1,0.E0));
#43=DIRECTION('',(0.E0,1.E0,0.E0));
#44=DIRECTION('',(1.E0,0.E0,0.E0));
#45=AXIS2_PLACEMENT_3D('',#42,#43,#44);
#47=CARTESIAN_POINT('',(5.25E1,-1.E1,0.E0));
#48=DIRECTION('',(0.E0,1.E0,0.E0));
#49=DIRECTION('',(-1.E0,0.E0,0.E0));
#50=AXIS2_PLACEMENT_3D('',#47,#48,#49);
#52=CARTESIAN_POINT('',(5.25E1,-1.E1,0.E0));
#53=DIRECTION('',(0.E0,1.E0,0.E0));
#54=DIRECTION('',(1.E0,0.E0,0.E0));
#55=AXIS2_PLACEMENT_3D('',#52,#53,#54);
#57=CARTESIAN_POINT('',(-5.25E1,-1.E1,0.E0));
#58=DIRECTION('',(0.E0,1.E0,0.E0));
#59=DIRECTION('',(-1.E0,0.E0,0.E0));
#60=AXIS2_PLACEMENT_3D('',#57,#58,#59);
#62=CARTESIAN_POINT('',(-5.25E1,-1.E1,0.E0));
#63=DIRECTION('',(0.E0,1.E0,0.E0));
#64=DIRECTION('',(1.E0,0.E0,0.E0));
#65=AXIS2_PLACEMENT_3D('',#62,#63,#64);
#67=DIRECTION('',(1.E0,0.E0,0.E0));
#68=VECTOR('',#67,1.25E2);
#69=CARTESIAN_POINT('',(-6.25E1,1.E1,1.E1));
#70=LINE('',#69,#68);
#71=DIRECTION('',(1.E0,0.E0,0.E0));
#72=VECTOR('',#71,1.25E2);
#73=CARTESIAN_POINT('',(-6.25E1,1.E1,-1.E1));
#74=LINE('',#73,#72);
#75=CARTESIAN_POINT('',(0.E0,1.E1,0.E0));
#76=DIRECTION('',(0.E0,1.E0,0.E0));
#77=DIRECTION('',(-1.E0,0.E0,0.E0));
#78=AXIS2_PLACEMENT_3D('',#75,#76,#77);
#80=CARTESIAN_POINT('',(0.E0,1.E1,0.E0));
#81=DIRECTION('',(0.E0,1.E0,0.E0));
#82=DIRECTION('',(1.E0,0.E0,0.E0));
#83=AXIS2_PLACEMENT_3D('',#80,#81,#82);
#85=CARTESIAN_POINT('',(5.25E1,1.E1,0.E0));
#86=DIRECTION('',(0.E0,1.E0,0.E0));
#87=DIRECTION('',(-1.E0,0.E0,0.E0));
#88=AXIS2_PLACEMENT_3D('',#85,#86,#87);
#90=CARTESIAN_POINT('',(5.25E1,1.E1,0.E0));
#91=DIRECTION('',(0.E0,1.E0,0.E0));
#92=DIRECTION('',(1.E0,0.E0,0.E0));
#93=AXIS2_PLACEMENT_3D('',#90,#91,#92);
#95=CARTESIAN_POINT('',(-5.25E1,1.E1,0.E0));
#96=DIRECTION('',(0.E0,1.E0,0.E0));
#97=DIRECTION('',(-1.E0,0.E0,0.E0));
#98=AXIS2_PLACEMENT_3D('',#95,#96,#97);
#100=CARTESIAN_POINT('',(-5.25E1,1.E1,0.E0));
#101=DIRECTION('',(0.E0,1.E0,0.E0));
#102=DIRECTION('',(1.E0,0.E0,0.E0));
#103=AXIS2_PLACEMENT_3D('',#100,#101,#102);
#105=DIRECTION('',(1.E0,0.E0,0.E0));
#106=VECTOR('',#105,1.25E2);
#107=CARTESIAN_POINT('',(-6.25E1,-1.E1,-1.E1));
#108=LINE('',#107,#106);
#109=DIRECTION('',(0.E0,0.E0,-1.E0));
#110=VECTOR('',#109,2.E1);
#111=CARTESIAN_POINT('',(6.25E1,-1.E1,1.E1));
#112=LINE('',#111,#110);
#113=DIRECTION('',(0.E0,-1.E0,0.E0));
#114=VECTOR('',#113,2.E1);
#115=CARTESIAN_POINT('',(6.25E1,1.E1,1.E1));
#116=LINE('',#115,#114);
#117=DIRECTION('',(0.E0,0.E0,1.E0));
#118=VECTOR('',#117,2.E1);
#119=CARTESIAN_POINT('',(6.25E1,1.E1,-1.E1));
#120=LINE('',#119,#118);
#121=DIRECTION('',(0.E0,1.E0,0.E0));
#122=VECTOR('',#121,2.E1);
#123=CARTESIAN_POINT('',(6.25E1,-1.E1,-1.E1));
#124=LINE('',#123,#122);
#125=DIRECTION('',(0.E0,1.E0,0.E0));
#126=VECTOR('',#125,1.8E1);
#127=CARTESIAN_POINT('',(6.25E1,-9.E0,9.E0));
#128=LINE('',#127,#126);
#129=DIRECTION('',(0.E0,0.E0,1.E0));
#130=VECTOR('',#129,1.8E1);
#131=CARTESIAN_POINT('',(6.25E1,-9.E0,-9.E0));
#132=LINE('',#131,#130);
#133=DIRECTION('',(0.E0,-1.E0,0.E0));
#134=VECTOR('',#133,1.8E1);
#135=CARTESIAN_POINT('',(6.25E1,9.E0,-9.E0));
#136=LINE('',#135,#134);
#137=DIRECTION('',(0.E0,0.E0,-1.E0));
#138=VECTOR('',#137,1.8E1);
#139=CARTESIAN_POINT('',(6.25E1,9.E0,9.E0));
#140=LINE('',#139,#138);
#141=DIRECTION('',(1.E0,0.E0,0.E0));
#142=VECTOR('',#141,1.25E2);
#143=CARTESIAN_POINT('',(-6.25E1,-9.E0,9.E0));
#144=LINE('',#143,#142);
#145=DIRECTION('',(1.E0,0.E0,0.E0));
#146=VECTOR('',#145,1.25E2);
#147=CARTESIAN_POINT('',(-6.25E1,-9.E0,-9.E0));
#148=LINE('',#147,#146);
#149=CARTESIAN_POINT('',(0.E0,-9.E0,0.E0));
#150=DIRECTION('',(0.E0,1.E0,0.E0));
#151=DIRECTION('',(-1.E0,0.E0,0.E0));
#152=AXIS2_PLACEMENT_3D('',#149,#150,#151);
#154=CARTESIAN_POINT('',(0.E0,-9.E0,0.E0));
#155=DIRECTION('',(0.E0,1.E0,0.E0));
#156=DIRECTION('',(1.E0,0.E0,0.E0));
#157=AXIS2_PLACEMENT_3D('',#154,#155,#156);
#159=CARTESIAN_POINT('',(5.25E1,-9.E0,0.E0));
#160=DIRECTION('',(0.E0,1.E0,0.E0));
#161=DIRECTION('',(-1.E0,0.E0,0.E0));
#162=AXIS2_PLACEMENT_3D('',#159,#160,#161);
#164=CARTESIAN_POINT('',(5.25E1,-9.E0,0.E0));
#165=DIRECTION('',(0.E0,1.E0,0.E0));
#166=DIRECTION('',(1.E0,0.E0,0.E0));
#167=AXIS2_PLACEMENT_3D('',#164,#165,#166);
#169=CARTESIAN_POINT('',(-5.25E1,-9.E0,0.E0));
#170=DIRECTION('',(0.E0,1.E0,0.E0));
#171=DIRECTION('',(-1.E0,0.E0,0.E0));
#172=AXIS2_PLACEMENT_3D('',#169,#170,#171);
#174=CARTESIAN_POINT('',(-5.25E1,-9.E0,0.E0));
#175=DIRECTION('',(0.E0,1.E0,0.E0));
#176=DIRECTION('',(1.E0,0.E0,0.E0));
#177=AXIS2_PLACEMENT_3D('',#174,#175,#176);
#179=DIRECTION('',(1.E0,0.E0,0.E0));
#180=VECTOR('',#179,1.25E2);
#181=CARTESIAN_POINT('',(-6.25E1,9.E0,-9.E0));
#182=LINE('',#181,#180);
#183=DIRECTION('',(1.E0,0.E0,0.E0));
#184=VECTOR('',#183,1.25E2);
#185=CARTESIAN_POINT('',(-6.25E1,9.E0,9.E0));
#186=LINE('',#185,#184);
#187=CARTESIAN_POINT('',(0.E0,9.E0,0.E0));
#188=DIRECTION('',(0.E0,1.E0,0.E0));
#189=DIRECTION('',(-1.E0,0.E0,0.E0));
#190=AXIS2_PLACEMENT_3D('',#187,#188,#189);
#192=CARTESIAN_POINT('',(0.E0,9.E0,0.E0));
#193=DIRECTION('',(0.E0,1.E0,0.E0));
#194=DIRECTION('',(1.E0,0.E0,0.E0));
#195=AXIS2_PLACEMENT_3D('',#192,#193,#194);
#197=CARTESIAN_POINT('',(5.25E1,9.E0,0.E0));
#198=DIRECTION('',(0.E0,1.E0,0.E0));
#199=DIRECTION('',(-1.E0,0.E0,0.E0));
#200=AXIS2_PLACEMENT_3D('',#197,#198,#199);
#202=CARTESIAN_POINT('',(5.25E1,9.E0,0.E0));
#203=DIRECTION('',(0.E0,1.E0,0.E0));
#204=DIRECTION('',(1.E0,0.E0,0.E0));
#205=AXIS2_PLACEMENT_3D('',#202,#203,#204);
#207=CARTESIAN_POINT('',(-5.25E1,9.E0,0.E0));
#208=DIRECTION('',(0.E0,1.E0,0.E0));
#209=DIRECTION('',(-1.E0,0.E0,0.E0));
#210=AXIS2_PLACEMENT_3D('',#207,#208,#209);
#212=CARTESIAN_POINT('',(-5.25E1,9.E0,0.E0));
#213=DIRECTION('',(0.E0,1.E0,0.E0));
#214=DIRECTION('',(1.E0,0.E0,0.E0));
#215=AXIS2_PLACEMENT_3D('',#212,#213,#214);
#217=DIRECTION('',(0.E0,-1.E0,0.E0));
#218=VECTOR('',#217,1.E0);
#219=CARTESIAN_POINT('',(-1.5E0,1.E1,0.E0));
#220=LINE('',#219,#218);
#221=DIRECTION('',(0.E0,-1.E0,0.E0));
#222=VECTOR('',#221,1.E0);
#223=CARTESIAN_POINT('',(-1.5E0,-9.E0,0.E0));
#224=LINE('',#223,#222);
#225=DIRECTION('',(0.E0,-1.E0,0.E0));
#226=VECTOR('',#225,1.E0);
#227=CARTESIAN_POINT('',(1.5E0,1.E1,0.E0));
#228=LINE('',#227,#226);
#229=DIRECTION('',(0.E0,-1.E0,0.E0));
#230=VECTOR('',#229,1.E0);
#231=CARTESIAN_POINT('',(1.5E0,-9.E0,0.E0));
#232=LINE('',#231,#230);
#233=DIRECTION('',(0.E0,-1.E0,0.E0));
#234=VECTOR('',#233,1.E0);
#235=CARTESIAN_POINT('',(5.1E1,1.E1,0.E0));
#236=LINE('',#235,#234);
#237=DIRECTION('',(0.E0,-1.E0,0.E0));
#238=VECTOR('',#237,1.E0);
#239=CARTESIAN_POINT('',(5.1E1,-9.E0,0.E0));
#240=LINE('',#239,#238);
#241=DIRECTION('',(0.E0,-1.E0,0.E0));
#242=VECTOR('',#241,1.E0);
#243=CARTESIAN_POINT('',(5.4E1,1.E1,0.E0));
#244=LINE('',#243,#242);
#245=DIRECTION('',(0.E0,-1.E0,0.E0));
#246=VECTOR('',#245,1.E0);
#247=CARTESIAN_POINT('',(5.4E1,-9.E0,0.E0));
#248=LINE('',#247,#246);
#249=DIRECTION('',(0.E0,-1.E0,0.E0));
#250=VECTOR('',#249,1.E0);
#251=CARTESIAN_POINT('',(-5.4E1,1.E1,0.E0));
#252=LINE('',#251,#250);
#253=DIRECTION('',(0.E0,-1.E0,0.E0));
#254=VECTOR('',#253,1.E0);
#255=CARTESIAN_POINT('',(-5.4E1,-9.E0,0.E0));
#256=LINE('',#255,#254);
#257=DIRECTION('',(0.E0,-1.E0,0.E0));
#258=VECTOR('',#257,1.E0);
#259=CARTESIAN_POINT('',(-5.1E1,1.E1,0.E0));
#260=LINE('',#259,#258);
#261=DIRECTION('',(0.E0,-1.E0,0.E0));
#262=VECTOR('',#261,1.E0);
#263=CARTESIAN_POINT('',(-5.1E1,-9.E0,0.E0));
#264=LINE('',#263,#262);
#265=CARTESIAN_POINT('',(-6.25E1,-1.E1,1.E1));
#266=CARTESIAN_POINT('',(-6.25E1,-1.E1,-1.E1));
#267=VERTEX_POINT('',#265);
#268=VERTEX_POINT('',#266);
#269=CARTESIAN_POINT('',(-6.25E1,1.E1,-1.E1));
#270=VERTEX_POINT('',#269);
#271=CARTESIAN_POINT('',(-6.25E1,1.E1,1.E1));
#272=VERTEX_POINT('',#271);
#273=CARTESIAN_POINT('',(-6.25E1,-9.E0,9.E0));
#274=CARTESIAN_POINT('',(-6.25E1,9.E0,9.E0));
#275=VERTEX_POINT('',#273);
#276=VERTEX_POINT('',#274);
#277=CARTESIAN_POINT('',(-6.25E1,9.E0,-9.E0));
#278=VERTEX_POINT('',#277);
#279=CARTESIAN_POINT('',(-6.25E1,-9.E0,-9.E0));
#280=VERTEX_POINT('',#279);
#281=CARTESIAN_POINT('',(6.25E1,-1.E1,1.E1));
#282=CARTESIAN_POINT('',(6.25E1,-1.E1,-1.E1));
#283=VERTEX_POINT('',#281);
#284=VERTEX_POINT('',#282);
#285=CARTESIAN_POINT('',(6.25E1,1.E1,-1.E1));
#286=VERTEX_POINT('',#285);
#287=CARTESIAN_POINT('',(6.25E1,1.E1,1.E1));
#288=VERTEX_POINT('',#287);
#289=CARTESIAN_POINT('',(6.25E1,-9.E0,9.E0));
#290=CARTESIAN_POINT('',(6.25E1,9.E0,9.E0));
#291=VERTEX_POINT('',#289);
#292=VERTEX_POINT('',#290);
#293=CARTESIAN_POINT('',(6.25E1,9.E0,-9.E0));
#294=VERTEX_POINT('',#293);
#295=CARTESIAN_POINT('',(6.25E1,-9.E0,-9.E0));
#296=VERTEX_POINT('',#295);
#297=CARTESIAN_POINT('',(-1.5E0,1.E1,0.E0));
#298=CARTESIAN_POINT('',(-1.5E0,9.E0,0.E0));
#299=VERTEX_POINT('',#297);
#300=VERTEX_POINT('',#298);
#301=CARTESIAN_POINT('',(-1.5E0,-9.E0,0.E0));
#302=CARTESIAN_POINT('',(-1.5E0,-1.E1,0.E0));
#303=VERTEX_POINT('',#301);
#304=VERTEX_POINT('',#302);
#305=CARTESIAN_POINT('',(1.5E0,1.E1,0.E0));
#306=CARTESIAN_POINT('',(1.5E0,9.E0,0.E0));
#307=VERTEX_POINT('',#305);
#308=VERTEX_POINT('',#306);
#309=CARTESIAN_POINT('',(1.5E0,-9.E0,0.E0));
#310=CARTESIAN_POINT('',(1.5E0,-1.E1,0.E0));
#311=VERTEX_POINT('',#309);
#312=VERTEX_POINT('',#310);
#313=CARTESIAN_POINT('',(5.1E1,1.E1,0.E0));
#314=CARTESIAN_POINT('',(5.1E1,9.E0,0.E0));
#315=VERTEX_POINT('',#313);
#316=VERTEX_POINT('',#314);
#317=CARTESIAN_POINT('',(5.1E1,-9.E0,0.E0));
#318=CARTESIAN_POINT('',(5.1E1,-1.E1,0.E0));
#319=VERTEX_POINT('',#317);
#320=VERTEX_POINT('',#318);
#321=CARTESIAN_POINT('',(5.4E1,1.E1,0.E0));
#322=CARTESIAN_POINT('',(5.4E1,9.E0,0.E0));
#323=VERTEX_POINT('',#321);
#324=VERTEX_POINT('',#322);
#325=CARTESIAN_POINT('',(5.4E1,-9.E0,0.E0));
#326=CARTESIAN_POINT('',(5.4E1,-1.E1,0.E0));
#327=VERTEX_POINT('',#325);
#328=VERTEX_POINT('',#326);
#329=CARTESIAN_POINT('',(-5.4E1,1.E1,0.E0));
#330=CARTESIAN_POINT('',(-5.4E1,9.E0,0.E0));
#331=VERTEX_POINT('',#329);
#332=VERTEX_POINT('',#330);
#333=CARTESIAN_POINT('',(-5.4E1,-9.E0,0.E0));
#334=CARTESIAN_POINT('',(-5.4E1,-1.E1,0.E0));
#335=VERTEX_POINT('',#333);
#336=VERTEX_POINT('',#334);
#337=CARTESIAN_POINT('',(-5.1E1,1.E1,0.E0));
#338=CARTESIAN_POINT('',(-5.1E1,9.E0,0.E0));
#339=VERTEX_POINT('',#337);
#340=VERTEX_POINT('',#338);
#341=CARTESIAN_POINT('',(-5.1E1,-9.E0,0.E0));
#342=CARTESIAN_POINT('',(-5.1E1,-1.E1,0.E0));
#343=VERTEX_POINT('',#341);
#344=VERTEX_POINT('',#342);
#345=CARTESIAN_POINT('',(-6.25E1,0.E0,0.E0));
#346=DIRECTION('',(1.E0,0.E0,0.E0));
#347=DIRECTION('',(0.E0,1.E0,0.E0));
#348=AXIS2_PLACEMENT_3D('',#345,#346,#347);
#349=PLANE('',#348);
#351=ORIENTED_EDGE('',*,*,#350,.T.);
#353=ORIENTED_EDGE('',*,*,#352,.T.);
#355=ORIENTED_EDGE('',*,*,#354,.T.);
#357=ORIENTED_EDGE('',*,*,#356,.T.);
#358=EDGE_LOOP('',(#351,#353,#355,#357));
#359=FACE_OUTER_BOUND('',#358,.F.);
#361=ORIENTED_EDGE('',*,*,#360,.T.);
#363=ORIENTED_EDGE('',*,*,#362,.T.);
#365=ORIENTED_EDGE('',*,*,#364,.T.);
#367=ORIENTED_EDGE('',*,*,#366,.T.);
#368=EDGE_LOOP('',(#361,#363,#365,#367));
#369=FACE_BOUND('',#368,.F.);
#370=ADVANCED_FACE('',(#359,#369),#349,.F.);
#371=CARTESIAN_POINT('',(-6.25E1,-1.E1,1.E1));
#372=DIRECTION('',(0.E0,-1.E0,0.E0));
#373=DIRECTION('',(0.E0,0.E0,-1.E0));
#374=AXIS2_PLACEMENT_3D('',#371,#372,#373);
#375=PLANE('',#374);
#376=ORIENTED_EDGE('',*,*,#350,.F.);
#378=ORIENTED_EDGE('',*,*,#377,.T.);
#380=ORIENTED_EDGE('',*,*,#379,.T.);
#382=ORIENTED_EDGE('',*,*,#381,.F.);
#383=EDGE_LOOP('',(#376,#378,#380,#382));
#384=FACE_OUTER_BOUND('',#383,.F.);
#386=ORIENTED_EDGE('',*,*,#385,.F.);
#388=ORIENTED_EDGE('',*,*,#387,.F.);
#389=EDGE_LOOP('',(#386,#388));
#390=FACE_BOUND('',#389,.F.);
#392=ORIENTED_EDGE('',*,*,#391,.F.);
#394=ORIENTED_EDGE('',*,*,#393,.F.);
#395=EDGE_LOOP('',(#392,#394));
#396=FACE_BOUND('',#395,.F.);
#398=ORIENTED_EDGE('',*,*,#397,.F.);
#400=ORIENTED_EDGE('',*,*,#399,.F.);
#401=EDGE_LOOP('',(#398,#400));
#402=FACE_BOUND('',#401,.F.);
#403=ADVANCED_FACE('',(#384,#390,#396,#402),#375,.T.);
#404=CARTESIAN_POINT('',(-6.25E1,1.E1,1.E1));
#405=DIRECTION('',(0.E0,0.E0,1.E0));
#406=DIRECTION('',(0.E0,-1.E0,0.E0));
#407=AXIS2_PLACEMENT_3D('',#404,#405,#406);
#408=PLANE('',#407);
#409=ORIENTED_EDGE('',*,*,#356,.F.);
#411=ORIENTED_EDGE('',*,*,#410,.T.);
#413=ORIENTED_EDGE('',*,*,#412,.T.);
#414=ORIENTED_EDGE('',*,*,#377,.F.);
#415=EDGE_LOOP('',(#409,#411,#413,#414));
#416=FACE_OUTER_BOUND('',#415,.F.);
#417=ADVANCED_FACE('',(#416),#408,.T.);
#418=CARTESIAN_POINT('',(-6.25E1,1.E1,-1.E1));
#419=DIRECTION('',(0.E0,1.E0,0.E0));
#420=DIRECTION('',(0.E0,0.E0,1.E0));
#421=AXIS2_PLACEMENT_3D('',#418,#419,#420);
#422=PLANE('',#421);
#423=ORIENTED_EDGE('',*,*,#354,.F.);
#425=ORIENTED_EDGE('',*,*,#424,.T.);
#427=ORIENTED_EDGE('',*,*,#426,.T.);
#428=ORIENTED_EDGE('',*,*,#410,.F.);
#429=EDGE_LOOP('',(#423,#425,#427,#428));
#430=FACE_OUTER_BOUND('',#429,.F.);
#432=ORIENTED_EDGE('',*,*,#431,.T.);
#434=ORIENTED_EDGE('',*,*,#433,.T.);
#435=EDGE_LOOP('',(#432,#434));
#436=FACE_BOUND('',#435,.F.);
#438=ORIENTED_EDGE('',*,*,#437,.T.);
#440=ORIENTED_EDGE('',*,*,#439,.T.);
#441=EDGE_LOOP('',(#438,#440));
#442=FACE_BOUND('',#441,.F.);
#444=ORIENTED_EDGE('',*,*,#443,.T.);
#446=ORIENTED_EDGE('',*,*,#445,.T.);
#447=EDGE_LOOP('',(#444,#446));
#448=FACE_BOUND('',#447,.F.);
#449=ADVANCED_FACE('',(#430,#436,#442,#448),#422,.T.);
#450=CARTESIAN_POINT('',(-6.25E1,-1.E1,-1.E1));
#451=DIRECTION('',(0.E0,0.E0,-1.E0));
#452=DIRECTION('',(0.E0,1.E0,0.E0));
#453=AXIS2_PLACEMENT_3D('',#450,#451,#452);
#454=PLANE('',#453);
#455=ORIENTED_EDGE('',*,*,#352,.F.);
#456=ORIENTED_EDGE('',*,*,#381,.T.);
#458=ORIENTED_EDGE('',*,*,#457,.T.);
#459=ORIENTED_EDGE('',*,*,#424,.F.);
#460=EDGE_LOOP('',(#455,#456,#458,#459));
#461=FACE_OUTER_BOUND('',#460,.F.);
#462=ADVANCED_FACE('',(#461),#454,.T.);
#463=CARTESIAN_POINT('',(6.25E1,0.E0,0.E0));
#464=DIRECTION('',(1.E0,0.E0,0.E0));
#465=DIRECTION('',(0.E0,1.E0,0.E0));
#466=AXIS2_PLACEMENT_3D('',#463,#464,#465);
#467=PLANE('',#466);
#468=ORIENTED_EDGE('',*,*,#379,.F.);
#469=ORIENTED_EDGE('',*,*,#412,.F.);
#470=ORIENTED_EDGE('',*,*,#426,.F.);
#471=ORIENTED_EDGE('',*,*,#457,.F.);
#472=EDGE_LOOP('',(#468,#469,#470,#471));
#473=FACE_OUTER_BOUND('',#472,.F.);
#475=ORIENTED_EDGE('',*,*,#474,.F.);
#477=ORIENTED_EDGE('',*,*,#476,.F.);
#479=ORIENTED_EDGE('',*,*,#478,.F.);
#481=ORIENTED_EDGE('',*,*,#480,.F.);
#482=EDGE_LOOP('',(#475,#477,#479,#481));
#483=FACE_BOUND('',#482,.F.);
#484=ADVANCED_FACE('',(#473,#483),#467,.T.);
#485=CARTESIAN_POINT('',(-6.25E1,-9.E0,9.E0));
#486=DIRECTION('',(0.E0,0.E0,-1.E0));
#487=DIRECTION('',(0.E0,1.E0,0.E0));
#488=AXIS2_PLACEMENT_3D('',#485,#486,#487);
#489=PLANE('',#488);
#490=ORIENTED_EDGE('',*,*,#360,.F.);
#492=ORIENTED_EDGE('',*,*,#491,.T.);
#493=ORIENTED_EDGE('',*,*,#474,.T.);
#495=ORIENTED_EDGE('',*,*,#494,.F.);
#496=EDGE_LOOP('',(#490,#492,#493,#495));
#497=FACE_OUTER_BOUND('',#496,.F.);
#498=ADVANCED_FACE('',(#497),#489,.T.);
#499=CARTESIAN_POINT('',(-6.25E1,-9.E0,-9.E0));
#500=DIRECTION('',(0.E0,1.E0,0.E0));
#501=DIRECTION('',(0.E0,0.E0,1.E0));
#502=AXIS2_PLACEMENT_3D('',#499,#500,#501);
#503=PLANE('',#502);
#504=ORIENTED_EDGE('',*,*,#366,.F.);
#506=ORIENTED_EDGE('',*,*,#505,.T.);
#507=ORIENTED_EDGE('',*,*,#476,.T.);
#508=ORIENTED_EDGE('',*,*,#491,.F.);
#509=EDGE_LOOP('',(#504,#506,#507,#508));
#510=FACE_OUTER_BOUND('',#509,.F.);
#512=ORIENTED_EDGE('',*,*,#511,.T.);
#514=ORIENTED_EDGE('',*,*,#513,.T.);
#515=EDGE_LOOP('',(#512,#514));
#516=FACE_BOUND('',#515,.F.);
#518=ORIENTED_EDGE('',*,*,#517,.T.);
#520=ORIENTED_EDGE('',*,*,#519,.T.);
#521=EDGE_LOOP('',(#518,#520));
#522=FACE_BOUND('',#521,.F.);
#524=ORIENTED_EDGE('',*,*,#523,.T.);
#526=ORIENTED_EDGE('',*,*,#525,.T.);
#527=EDGE_LOOP('',(#524,#526));
#528=FACE_BOUND('',#527,.F.);
#529=ADVANCED_FACE('',(#510,#516,#522,#528),#503,.T.);
#530=CARTESIAN_POINT('',(-6.25E1,9.E0,-9.E0));
#531=DIRECTION('',(0.E0,0.E0,1.E0));
#532=DIRECTION('',(0.E0,-1.E0,0.E0));
#533=AXIS2_PLACEMENT_3D('',#530,#531,#532);
#534=PLANE('',#533);
#535=ORIENTED_EDGE('',*,*,#364,.F.);
#537=ORIENTED_EDGE('',*,*,#536,.T.);
#538=ORIENTED_EDGE('',*,*,#478,.T.);
#539=ORIENTED_EDGE('',*,*,#505,.F.);
#540=EDGE_LOOP('',(#535,#537,#538,#539));
#541=FACE_OUTER_BOUND('',#540,.F.);
#542=ADVANCED_FACE('',(#541),#534,.T.);
#543=CARTESIAN_POINT('',(-6.25E1,9.E0,9.E0));
#544=DIRECTION('',(0.E0,-1.E0,0.E0));
#545=DIRECTION('',(0.E0,0.E0,-1.E0));
#546=AXIS2_PLACEMENT_3D('',#543,#544,#545);
#547=PLANE('',#546);
#548=ORIENTED_EDGE('',*,*,#362,.F.);
#549=ORIENTED_EDGE('',*,*,#494,.T.);
#550=ORIENTED_EDGE('',*,*,#480,.T.);
#551=ORIENTED_EDGE('',*,*,#536,.F.);
#552=EDGE_LOOP('',(#548,#549,#550,#551));
#553=FACE_OUTER_BOUND('',#552,.F.);
#555=ORIENTED_EDGE('',*,*,#554,.F.);
#557=ORIENTED_EDGE('',*,*,#556,.F.);
#558=EDGE_LOOP('',(#555,#557));
#559=FACE_BOUND('',#558,.F.);
#561=ORIENTED_EDGE('',*,*,#560,.F.);
#563=ORIENTED_EDGE('',*,*,#562,.F.);
#564=EDGE_LOOP('',(#561,#563));
#565=FACE_BOUND('',#564,.F.);
#567=ORIENTED_EDGE('',*,*,#566,.F.);
#569=ORIENTED_EDGE('',*,*,#568,.F.);
#570=EDGE_LOOP('',(#567,#569));
#571=FACE_BOUND('',#570,.F.);
#572=ADVANCED_FACE('',(#553,#559,#565,#571),#547,.T.);
#573=CARTESIAN_POINT('',(0.E0,1.E1,0.E0));
#574=DIRECTION('',(0.E0,1.E0,0.E0));
#575=DIRECTION('',(-1.E0,0.E0,0.E0));
#576=AXIS2_PLACEMENT_3D('',#573,#574,#575);
#577=CYLINDRICAL_SURFACE('',#576,1.5E0);
#579=ORIENTED_EDGE('',*,*,#578,.T.);
#580=ORIENTED_EDGE('',*,*,#554,.T.);
#582=ORIENTED_EDGE('',*,*,#581,.F.);
#583=ORIENTED_EDGE('',*,*,#431,.F.);
#584=EDGE_LOOP('',(#579,#580,#582,#583));
#585=FACE_OUTER_BOUND('',#584,.F.);
#586=ADVANCED_FACE('',(#585),#577,.F.);
#587=CARTESIAN_POINT('',(0.E0,1.E1,0.E0));
#588=DIRECTION('',(0.E0,1.E0,0.E0));
#589=DIRECTION('',(-1.E0,0.E0,0.E0));
#590=AXIS2_PLACEMENT_3D('',#587,#588,#589);
#591=CYLINDRICAL_SURFACE('',#590,1.5E0);
#593=ORIENTED_EDGE('',*,*,#592,.T.);
#594=ORIENTED_EDGE('',*,*,#385,.T.);
#596=ORIENTED_EDGE('',*,*,#595,.F.);
#597=ORIENTED_EDGE('',*,*,#511,.F.);
#598=EDGE_LOOP('',(#593,#594,#596,#597));
#599=FACE_OUTER_BOUND('',#598,.F.);
#600=ADVANCED_FACE('',(#599),#591,.F.);
#601=CARTESIAN_POINT('',(0.E0,1.E1,0.E0));
#602=DIRECTION('',(0.E0,1.E0,0.E0));
#603=DIRECTION('',(-1.E0,0.E0,0.E0));
#604=AXIS2_PLACEMENT_3D('',#601,#602,#603);
#605=CYLINDRICAL_SURFACE('',#604,1.5E0);
#606=ORIENTED_EDGE('',*,*,#578,.F.);
#607=ORIENTED_EDGE('',*,*,#433,.F.);
#608=ORIENTED_EDGE('',*,*,#581,.T.);
#609=ORIENTED_EDGE('',*,*,#556,.T.);
#610=EDGE_LOOP('',(#606,#607,#608,#609));
#611=FACE_OUTER_BOUND('',#610,.F.);
#612=ADVANCED_FACE('',(#611),#605,.F.);
#613=CARTESIAN_POINT('',(0.E0,1.E1,0.E0));
#614=DIRECTION('',(0.E0,1.E0,0.E0));
#615=DIRECTION('',(-1.E0,0.E0,0.E0));
#616=AXIS2_PLACEMENT_3D('',#613,#614,#615);
#617=CYLINDRICAL_SURFACE('',#616,1.5E0);
#618=ORIENTED_EDGE('',*,*,#592,.F.);
#619=ORIENTED_EDGE('',*,*,#513,.F.);
#620=ORIENTED_EDGE('',*,*,#595,.T.);
#621=ORIENTED_EDGE('',*,*,#387,.T.);
#622=EDGE_LOOP('',(#618,#619,#620,#621));
#623=FACE_OUTER_BOUND('',#622,.F.);
#624=ADVANCED_FACE('',(#623),#617,.F.);
#625=CARTESIAN_POINT('',(5.25E1,1.E1,0.E0));
#626=DIRECTION('',(0.E0,1.E0,0.E0));
#627=DIRECTION('',(-1.E0,0.E0,0.E0));
#628=AXIS2_PLACEMENT_3D('',#625,#626,#627);
#629=CYLINDRICAL_SURFACE('',#628,1.5E0);
#631=ORIENTED_EDGE('',*,*,#630,.T.);
#632=ORIENTED_EDGE('',*,*,#560,.T.);
#634=ORIENTED_EDGE('',*,*,#633,.F.);
#635=ORIENTED_EDGE('',*,*,#437,.F.);
#636=EDGE_LOOP('',(#631,#632,#634,#635));
#637=FACE_OUTER_BOUND('',#636,.F.);
#638=ADVANCED_FACE('',(#637),#629,.F.);
#639=CARTESIAN_POINT('',(5.25E1,1.E1,0.E0));
#640=DIRECTION('',(0.E0,1.E0,0.E0));
#641=DIRECTION('',(-1.E0,0.E0,0.E0));
#642=AXIS2_PLACEMENT_3D('',#639,#640,#641);
#643=CYLINDRICAL_SURFACE('',#642,1.5E0);
#645=ORIENTED_EDGE('',*,*,#644,.T.);
#646=ORIENTED_EDGE('',*,*,#391,.T.);
#648=ORIENTED_EDGE('',*,*,#647,.F.);
#649=ORIENTED_EDGE('',*,*,#517,.F.);
#650=EDGE_LOOP('',(#645,#646,#648,#649));
#651=FACE_OUTER_BOUND('',#650,.F.);
#652=ADVANCED_FACE('',(#651),#643,.F.);
#653=CARTESIAN_POINT('',(5.25E1,1.E1,0.E0));
#654=DIRECTION('',(0.E0,1.E0,0.E0));
#655=DIRECTION('',(-1.E0,0.E0,0.E0));
#656=AXIS2_PLACEMENT_3D('',#653,#654,#655);
#657=CYLINDRICAL_SURFACE('',#656,1.5E0);
#658=ORIENTED_EDGE('',*,*,#630,.F.);
#659=ORIENTED_EDGE('',*,*,#439,.F.);
#660=ORIENTED_EDGE('',*,*,#633,.T.);
#661=ORIENTED_EDGE('',*,*,#562,.T.);
#662=EDGE_LOOP('',(#658,#659,#660,#661));
#663=FACE_OUTER_BOUND('',#662,.F.);
#664=ADVANCED_FACE('',(#663),#657,.F.);
#665=CARTESIAN_POINT('',(5.25E1,1.E1,0.E0));
#666=DIRECTION('',(0.E0,1.E0,0.E0));
#667=DIRECTION('',(-1.E0,0.E0,0.E0));
#668=AXIS2_PLACEMENT_3D('',#665,#666,#667);
#669=CYLINDRICAL_SURFACE('',#668,1.5E0);
#670=ORIENTED_EDGE('',*,*,#644,.F.);
#671=ORIENTED_EDGE('',*,*,#519,.F.);
#672=ORIENTED_EDGE('',*,*,#647,.T.);
#673=ORIENTED_EDGE('',*,*,#393,.T.);
#674=EDGE_LOOP('',(#670,#671,#672,#673));
#675=FACE_OUTER_BOUND('',#674,.F.);
#676=ADVANCED_FACE('',(#675),#669,.F.);
#677=CARTESIAN_POINT('',(-5.25E1,1.E1,0.E0));
#678=DIRECTION('',(0.E0,1.E0,0.E0));
#679=DIRECTION('',(-1.E0,0.E0,0.E0));
#680=AXIS2_PLACEMENT_3D('',#677,#678,#679);
#681=CYLINDRICAL_SURFACE('',#680,1.5E0);
#683=ORIENTED_EDGE('',*,*,#682,.T.);
#684=ORIENTED_EDGE('',*,*,#566,.T.);
#686=ORIENTED_EDGE('',*,*,#685,.F.);
#687=ORIENTED_EDGE('',*,*,#443,.F.);
#688=EDGE_LOOP('',(#683,#684,#686,#687));
#689=FACE_OUTER_BOUND('',#688,.F.);
#690=ADVANCED_FACE('',(#689),#681,.F.);
#691=CARTESIAN_POINT('',(-5.25E1,1.E1,0.E0));
#692=DIRECTION('',(0.E0,1.E0,0.E0));
#693=DIRECTION('',(-1.E0,0.E0,0.E0));
#694=AXIS2_PLACEMENT_3D('',#691,#692,#693);
#695=CYLINDRICAL_SURFACE('',#694,1.5E0);
#697=ORIENTED_EDGE('',*,*,#696,.T.);
#698=ORIENTED_EDGE('',*,*,#397,.T.);
#700=ORIENTED_EDGE('',*,*,#699,.F.);
#701=ORIENTED_EDGE('',*,*,#523,.F.);
#702=EDGE_LOOP('',(#697,#698,#700,#701));
#703=FACE_OUTER_BOUND('',#702,.F.);
#704=ADVANCED_FACE('',(#703),#695,.F.);
#705=CARTESIAN_POINT('',(-5.25E1,1.E1,0.E0));
#706=DIRECTION('',(0.E0,1.E0,0.E0));
#707=DIRECTION('',(-1.E0,0.E0,0.E0));
#708=AXIS2_PLACEMENT_3D('',#705,#706,#707);
#709=CYLINDRICAL_SURFACE('',#708,1.5E0);
#710=ORIENTED_EDGE('',*,*,#682,.F.);
#711=ORIENTED_EDGE('',*,*,#445,.F.);
#712=ORIENTED_EDGE('',*,*,#685,.T.);
#713=ORIENTED_EDGE('',*,*,#568,.T.);
#714=EDGE_LOOP('',(#710,#711,#712,#713));
#715=FACE_OUTER_BOUND('',#714,.F.);
#716=ADVANCED_FACE('',(#715),#709,.F.);
#717=CARTESIAN_POINT('',(-5.25E1,1.E1,0.E0));
#718=DIRECTION('',(0.E0,1.E0,0.E0));
#719=DIRECTION('',(-1.E0,0.E0,0.E0));
#720=AXIS2_PLACEMENT_3D('',#717,#718,#719);
#721=CYLINDRICAL_SURFACE('',#720,1.5E0);
#722=ORIENTED_EDGE('',*,*,#696,.F.);
#723=ORIENTED_EDGE('',*,*,#525,.F.);
#724=ORIENTED_EDGE('',*,*,#699,.T.);
#725=ORIENTED_EDGE('',*,*,#399,.T.);
#726=EDGE_LOOP('',(#722,#723,#724,#725));
#727=FACE_OUTER_BOUND('',#726,.F.);
#728=ADVANCED_FACE('',(#727),#721,.F.);
#732=DIMENSIONAL_EXPONENTS(0.E0,0.E0,0.E0,0.E0,0.E0,0.E0,0.E0);
#734=PLANE_ANGLE_MEASURE_WITH_UNIT(PLANE_ANGLE_MEASURE(1.745329251994E-2),#733);
#735=(CONVERSION_BASED_UNIT('DEGREE',#734)NAMED_UNIT(*)PLANE_ANGLE_UNIT());
#737=UNCERTAINTY_MEASURE_WITH_UNIT(LENGTH_MEASURE(1.281549297775E-2),#731,
'closure',
'Maximum model space distance between geometric entities at asserted connectivities');
#738=(GEOMETRIC_REPRESENTATION_CONTEXT(3)GLOBAL_UNCERTAINTY_ASSIGNED_CONTEXT((
#737))GLOBAL_UNIT_ASSIGNED_CONTEXT((#731,#735,#736))REPRESENTATION_CONTEXT
('ID1','3'));
#740=APPLICATION_CONTEXT(
'CONFIGURATION CONTROLLED 3D DESIGNS OF MECHANICAL PARTS AND ASSEMBLIES');
#741=APPLICATION_PROTOCOL_DEFINITION('international standard',
'config_control_design',1994,#740);
#742=DESIGN_CONTEXT('',#740,'design');
#743=MECHANICAL_CONTEXT('',#740,'mechanical');
#744=PRODUCT('LVGUAN-3','LVGUAN-3','NOT SPECIFIED',(#743));
#745=PRODUCT_DEFINITION_FORMATION_WITH_SPECIFIED_SOURCE('4','LAST_VERSION',#744,
.MADE.);
#749=PRODUCT_CATEGORY('part','');
#750=PRODUCT_RELATED_PRODUCT_CATEGORY('detail','',(#744));
#751=PRODUCT_CATEGORY_RELATIONSHIP('','',#749,#750);
#752=SECURITY_CLASSIFICATION_LEVEL('unclassified');
#753=SECURITY_CLASSIFICATION('','',#752);
#754=CC_DESIGN_SECURITY_CLASSIFICATION(#753,(#745));
#755=APPROVAL_STATUS('approved');
#756=APPROVAL(#755,'');
#757=CC_DESIGN_APPROVAL(#756,(#753,#745,#746));
#758=CALENDAR_DATE(124,9,4);
#759=COORDINATED_UNIVERSAL_TIME_OFFSET(8,0,.AHEAD.);
#760=LOCAL_TIME(11,7,2.6E1,#759);
#761=DATE_AND_TIME(#758,#760);
#762=APPROVAL_DATE_TIME(#761,#756);
#763=DATE_TIME_ROLE('creation_date');
#764=CC_DESIGN_DATE_AND_TIME_ASSIGNMENT(#761,#763,(#746));
#765=DATE_TIME_ROLE('classification_date');
#766=CC_DESIGN_DATE_AND_TIME_ASSIGNMENT(#761,#765,(#753));
#767=PERSON('UNSPECIFIED','UNSPECIFIED',$,$,$,$);
#768=ORGANIZATION('UNSPECIFIED','UNSPECIFIED','UNSPECIFIED');
#769=PERSON_AND_ORGANIZATION(#767,#768);
#770=APPROVAL_ROLE('approver');
#771=APPROVAL_PERSON_ORGANIZATION(#769,#756,#770);
#772=PERSON_AND_ORGANIZATION_ROLE('creator');
#773=CC_DESIGN_PERSON_AND_ORGANIZATION_ASSIGNMENT(#769,#772,(#745,#746));
#774=PERSON_AND_ORGANIZATION_ROLE('design_supplier');
#775=CC_DESIGN_PERSON_AND_ORGANIZATION_ASSIGNMENT(#769,#774,(#745));
#776=PERSON_AND_ORGANIZATION_ROLE('classification_officer');
#777=CC_DESIGN_PERSON_AND_ORGANIZATION_ASSIGNMENT(#769,#776,(#753));
#778=PERSON_AND_ORGANIZATION_ROLE('design_owner');
#779=CC_DESIGN_PERSON_AND_ORGANIZATION_ASSIGNMENT(#769,#778,(#744));
#41=CIRCLE('',#40,1.5E0);
#46=CIRCLE('',#45,1.5E0);
#51=CIRCLE('',#50,1.5E0);
#56=CIRCLE('',#55,1.5E0);
#61=CIRCLE('',#60,1.5E0);
#66=CIRCLE('',#65,1.5E0);
#79=CIRCLE('',#78,1.5E0);
#84=CIRCLE('',#83,1.5E0);
#89=CIRCLE('',#88,1.5E0);
#94=CIRCLE('',#93,1.5E0);
#99=CIRCLE('',#98,1.5E0);
#104=CIRCLE('',#103,1.5E0);
#153=CIRCLE('',#152,1.5E0);
#158=CIRCLE('',#157,1.5E0);
#163=CIRCLE('',#162,1.5E0);
#168=CIRCLE('',#167,1.5E0);
#173=CIRCLE('',#172,1.5E0);
#178=CIRCLE('',#177,1.5E0);
#191=CIRCLE('',#190,1.5E0);
#196=CIRCLE('',#195,1.5E0);
#201=CIRCLE('',#200,1.5E0);
#206=CIRCLE('',#205,1.5E0);
#211=CIRCLE('',#210,1.5E0);
#216=CIRCLE('',#215,1.5E0);
#350=EDGE_CURVE('',#267,#268,#4,.T.);
#352=EDGE_CURVE('',#268,#270,#8,.T.);
#354=EDGE_CURVE('',#270,#272,#12,.T.);
#356=EDGE_CURVE('',#272,#267,#16,.T.);
#360=EDGE_CURVE('',#275,#276,#20,.T.);
#362=EDGE_CURVE('',#276,#278,#24,.T.);
#364=EDGE_CURVE('',#278,#280,#28,.T.);
#366=EDGE_CURVE('',#280,#275,#32,.T.);
#377=EDGE_CURVE('',#267,#283,#36,.T.);
#379=EDGE_CURVE('',#283,#284,#112,.T.);
#381=EDGE_CURVE('',#268,#284,#108,.T.);
#385=EDGE_CURVE('',#304,#312,#41,.T.);
#387=EDGE_CURVE('',#312,#304,#46,.T.);
#391=EDGE_CURVE('',#320,#328,#51,.T.);
#393=EDGE_CURVE('',#328,#320,#56,.T.);
#397=EDGE_CURVE('',#336,#344,#61,.T.);
#399=EDGE_CURVE('',#344,#336,#66,.T.);
#410=EDGE_CURVE('',#272,#288,#70,.T.);
#412=EDGE_CURVE('',#288,#283,#116,.T.);
#424=EDGE_CURVE('',#270,#286,#74,.T.);
#426=EDGE_CURVE('',#286,#288,#120,.T.);
#431=EDGE_CURVE('',#299,#307,#79,.T.);
#433=EDGE_CURVE('',#307,#299,#84,.T.);
#437=EDGE_CURVE('',#315,#323,#89,.T.);
#439=EDGE_CURVE('',#323,#315,#94,.T.);
#443=EDGE_CURVE('',#331,#339,#99,.T.);
#445=EDGE_CURVE('',#339,#331,#104,.T.);
#457=EDGE_CURVE('',#284,#286,#124,.T.);
#474=EDGE_CURVE('',#291,#292,#128,.T.);
#476=EDGE_CURVE('',#296,#291,#132,.T.);
#478=EDGE_CURVE('',#294,#296,#136,.T.);
#480=EDGE_CURVE('',#292,#294,#140,.T.);
#491=EDGE_CURVE('',#275,#291,#144,.T.);
#494=EDGE_CURVE('',#276,#292,#186,.T.);
#505=EDGE_CURVE('',#280,#296,#148,.T.);
#511=EDGE_CURVE('',#303,#311,#153,.T.);
#513=EDGE_CURVE('',#311,#303,#158,.T.);
#517=EDGE_CURVE('',#319,#327,#163,.T.);
#519=EDGE_CURVE('',#327,#319,#168,.T.);
#523=EDGE_CURVE('',#335,#343,#173,.T.);
#525=EDGE_CURVE('',#343,#335,#178,.T.);
#536=EDGE_CURVE('',#278,#294,#182,.T.);
#554=EDGE_CURVE('',#300,#308,#191,.T.);
#556=EDGE_CURVE('',#308,#300,#196,.T.);
#560=EDGE_CURVE('',#316,#324,#201,.T.);
#562=EDGE_CURVE('',#324,#316,#206,.T.);
#566=EDGE_CURVE('',#332,#340,#211,.T.);
#568=EDGE_CURVE('',#340,#332,#216,.T.);
#578=EDGE_CURVE('',#299,#300,#220,.T.);
#581=EDGE_CURVE('',#307,#308,#228,.T.);
#592=EDGE_CURVE('',#303,#304,#224,.T.);
#595=EDGE_CURVE('',#311,#312,#232,.T.);
#630=EDGE_CURVE('',#315,#316,#236,.T.);
#633=EDGE_CURVE('',#323,#324,#244,.T.);
#644=EDGE_CURVE('',#319,#320,#240,.T.);
#647=EDGE_CURVE('',#327,#328,#248,.T.);
#682=EDGE_CURVE('',#331,#332,#252,.T.);
#685=EDGE_CURVE('',#339,#340,#260,.T.);
#696=EDGE_CURVE('',#335,#336,#256,.T.);
#699=EDGE_CURVE('',#343,#344,#264,.T.);
#729=CLOSED_SHELL('',(#370,#403,#417,#449,#462,#484,#498,#529,#542,#572,#586,
#600,#612,#624,#638,#652,#664,#676,#690,#704,#716,#728));
#730=MANIFOLD_SOLID_BREP('',#729);
#731=(LENGTH_UNIT()NAMED_UNIT(*)SI_UNIT(.MILLI.,.METRE.));
#733=(NAMED_UNIT(*)PLANE_ANGLE_UNIT()SI_UNIT($,.RADIAN.));
#736=(NAMED_UNIT(*)SI_UNIT($,.STERADIAN.)SOLID_ANGLE_UNIT());
#739=ADVANCED_BREP_SHAPE_REPRESENTATION('',(#730),#738);
#746=PRODUCT_DEFINITION('design','',#745,#742);
#747=PRODUCT_DEFINITION_SHAPE('','SHAPE FOR LVGUAN-3.',#746);
#748=SHAPE_DEFINITION_REPRESENTATION(#747,#739);
ENDSEC;
END-ISO-10303-21;
