ISO-10303-21;
HEADER;
FILE_DESCRIPTION((''),'2;1');
FILE_NAME('LVGUAN-1','2024-04-08T14:54:06',('005'),(''),
'CREO PARAMETRIC BY PTC INC, 2020053','CREO PARAMETRIC BY PTC INC, 2020053','');
FILE_SCHEMA(('CONFIG_CONTROL_DESIGN'));
ENDSEC;
DATA;
#2=DIRECTION('',(0.E0,0.E0,-1.E0));
#3=VECTOR('',#2,2.E1);
#4=CARTESIAN_POINT('',(1.E1,-7.E1,1.E1));
#5=LINE('',#4,#3);
#6=DIRECTION('',(-1.E0,0.E0,0.E0));
#7=VECTOR('',#6,2.E1);
#8=CARTESIAN_POINT('',(1.E1,-7.E1,-1.E1));
#9=LINE('',#8,#7);
#10=DIRECTION('',(0.E0,0.E0,1.E0));
#11=VECTOR('',#10,2.E1);
#12=CARTESIAN_POINT('',(-1.E1,-7.E1,-1.E1));
#13=LINE('',#12,#11);
#14=DIRECTION('',(1.E0,0.E0,0.E0));
#15=VECTOR('',#14,2.E1);
#16=CARTESIAN_POINT('',(-1.E1,-7.E1,1.E1));
#17=LINE('',#16,#15);
#18=DIRECTION('',(-1.E0,0.E0,0.E0));
#19=VECTOR('',#18,1.8E1);
#20=CARTESIAN_POINT('',(9.E0,-7.E1,9.E0));
#21=LINE('',#20,#19);
#22=DIRECTION('',(0.E0,0.E0,-1.E0));
#23=VECTOR('',#22,1.8E1);
#24=CARTESIAN_POINT('',(-9.E0,-7.E1,9.E0));
#25=LINE('',#24,#23);
#26=DIRECTION('',(1.E0,0.E0,0.E0));
#27=VECTOR('',#26,1.8E1);
#28=CARTESIAN_POINT('',(-9.E0,-7.E1,-9.E0));
#29=LINE('',#28,#27);
#30=DIRECTION('',(0.E0,0.E0,1.E0));
#31=VECTOR('',#30,1.8E1);
#32=CARTESIAN_POINT('',(9.E0,-7.E1,-9.E0));
#33=LINE('',#32,#31);
#34=DIRECTION('',(0.E0,1.E0,0.E0));
#35=VECTOR('',#34,1.4E2);
#36=CARTESIAN_POINT('',(1.E1,-7.E1,1.E1));
#37=LINE('',#36,#35);
#38=CARTESIAN_POINT('',(1.E1,-4.4E1,0.E0));
#39=DIRECTION('',(-1.E0,0.E0,0.E0));
#40=DIRECTION('',(0.E0,-1.E0,0.E0));
#41=AXIS2_PLACEMENT_3D('',#38,#39,#40);
#43=CARTESIAN_POINT('',(1.E1,-4.4E1,0.E0));
#44=DIRECTION('',(-1.E0,0.E0,0.E0));
#45=DIRECTION('',(0.E0,1.E0,0.E0));
#46=AXIS2_PLACEMENT_3D('',#43,#44,#45);
#48=CARTESIAN_POINT('',(1.E1,4.4E1,0.E0));
#49=DIRECTION('',(-1.E0,0.E0,0.E0));
#50=DIRECTION('',(0.E0,-1.E0,0.E0));
#51=AXIS2_PLACEMENT_3D('',#48,#49,#50);
#53=CARTESIAN_POINT('',(1.E1,4.4E1,0.E0));
#54=DIRECTION('',(-1.E0,0.E0,0.E0));
#55=DIRECTION('',(0.E0,1.E0,0.E0));
#56=AXIS2_PLACEMENT_3D('',#53,#54,#55);
#58=CARTESIAN_POINT('',(1.E1,0.E0,0.E0));
#59=DIRECTION('',(-1.E0,0.E0,0.E0));
#60=DIRECTION('',(0.E0,-1.E0,0.E0));
#61=AXIS2_PLACEMENT_3D('',#58,#59,#60);
#63=CARTESIAN_POINT('',(1.E1,0.E0,0.E0));
#64=DIRECTION('',(-1.E0,0.E0,0.E0));
#65=DIRECTION('',(0.E0,1.E0,0.E0));
#66=AXIS2_PLACEMENT_3D('',#63,#64,#65);
#68=DIRECTION('',(0.E0,1.E0,0.E0));
#69=VECTOR('',#68,1.4E2);
#70=CARTESIAN_POINT('',(-1.E1,-7.E1,1.E1));
#71=LINE('',#70,#69);
#72=CARTESIAN_POINT('',(0.E0,-6.45E1,1.E1));
#73=DIRECTION('',(0.E0,0.E0,1.E0));
#74=DIRECTION('',(0.E0,1.E0,0.E0));
#75=AXIS2_PLACEMENT_3D('',#72,#73,#74);
#77=CARTESIAN_POINT('',(0.E0,-6.45E1,1.E1));
#78=DIRECTION('',(0.E0,0.E0,1.E0));
#79=DIRECTION('',(0.E0,-1.E0,0.E0));
#80=AXIS2_PLACEMENT_3D('',#77,#78,#79);
#82=CARTESIAN_POINT('',(2.369691556350E-14,6.45E1,1.E1));
#83=DIRECTION('',(0.E0,0.E0,1.E0));
#84=DIRECTION('',(-1.579794370900E-14,1.E0,0.E0));
#85=AXIS2_PLACEMENT_3D('',#82,#83,#84);
#87=CARTESIAN_POINT('',(2.369691556350E-14,6.45E1,1.E1));
#88=DIRECTION('',(0.E0,0.E0,1.E0));
#89=DIRECTION('',(-1.579794370900E-14,-1.E0,0.E0));
#90=AXIS2_PLACEMENT_3D('',#87,#88,#89);
#92=CARTESIAN_POINT('',(0.E0,-2.15E1,1.E1));
#93=DIRECTION('',(0.E0,0.E0,1.E0));
#94=DIRECTION('',(0.E0,1.E0,0.E0));
#95=AXIS2_PLACEMENT_3D('',#92,#93,#94);
#97=CARTESIAN_POINT('',(0.E0,-2.15E1,1.E1));
#98=DIRECTION('',(0.E0,0.E0,1.E0));
#99=DIRECTION('',(0.E0,-1.E0,0.E0));
#100=AXIS2_PLACEMENT_3D('',#97,#98,#99);
#102=CARTESIAN_POINT('',(0.E0,2.15E1,1.E1));
#103=DIRECTION('',(0.E0,0.E0,1.E0));
#104=DIRECTION('',(0.E0,1.E0,0.E0));
#105=AXIS2_PLACEMENT_3D('',#102,#103,#104);
#107=CARTESIAN_POINT('',(0.E0,2.15E1,1.E1));
#108=DIRECTION('',(0.E0,0.E0,1.E0));
#109=DIRECTION('',(0.E0,-1.E0,0.E0));
#110=AXIS2_PLACEMENT_3D('',#107,#108,#109);
#112=DIRECTION('',(0.E0,1.E0,0.E0));
#113=VECTOR('',#112,1.4E2);
#114=CARTESIAN_POINT('',(-1.E1,-7.E1,-1.E1));
#115=LINE('',#114,#113);
#116=CARTESIAN_POINT('',(-1.E1,-4.4E1,0.E0));
#117=DIRECTION('',(-1.E0,0.E0,0.E0));
#118=DIRECTION('',(0.E0,-1.E0,0.E0));
#119=AXIS2_PLACEMENT_3D('',#116,#117,#118);
#121=CARTESIAN_POINT('',(-1.E1,-4.4E1,0.E0));
#122=DIRECTION('',(-1.E0,0.E0,0.E0));
#123=DIRECTION('',(0.E0,1.E0,0.E0));
#124=AXIS2_PLACEMENT_3D('',#121,#122,#123);
#126=CARTESIAN_POINT('',(-1.E1,4.4E1,0.E0));
#127=DIRECTION('',(-1.E0,0.E0,0.E0));
#128=DIRECTION('',(0.E0,-1.E0,0.E0));
#129=AXIS2_PLACEMENT_3D('',#126,#127,#128);
#131=CARTESIAN_POINT('',(-1.E1,4.4E1,0.E0));
#132=DIRECTION('',(-1.E0,0.E0,0.E0));
#133=DIRECTION('',(0.E0,1.E0,0.E0));
#134=AXIS2_PLACEMENT_3D('',#131,#132,#133);
#136=CARTESIAN_POINT('',(-1.E1,0.E0,0.E0));
#137=DIRECTION('',(-1.E0,0.E0,0.E0));
#138=DIRECTION('',(0.E0,-1.E0,0.E0));
#139=AXIS2_PLACEMENT_3D('',#136,#137,#138);
#141=CARTESIAN_POINT('',(-1.E1,0.E0,0.E0));
#142=DIRECTION('',(-1.E0,0.E0,0.E0));
#143=DIRECTION('',(0.E0,1.E0,0.E0));
#144=AXIS2_PLACEMENT_3D('',#141,#142,#143);
#146=DIRECTION('',(0.E0,1.E0,0.E0));
#147=VECTOR('',#146,1.4E2);
#148=CARTESIAN_POINT('',(1.E1,-7.E1,-1.E1));
#149=LINE('',#148,#147);
#150=CARTESIAN_POINT('',(0.E0,-6.45E1,-1.E1));
#151=DIRECTION('',(0.E0,0.E0,1.E0));
#152=DIRECTION('',(0.E0,1.E0,0.E0));
#153=AXIS2_PLACEMENT_3D('',#150,#151,#152);
#155=CARTESIAN_POINT('',(0.E0,-6.45E1,-1.E1));
#156=DIRECTION('',(0.E0,0.E0,1.E0));
#157=DIRECTION('',(0.E0,-1.E0,0.E0));
#158=AXIS2_PLACEMENT_3D('',#155,#156,#157);
#160=CARTESIAN_POINT('',(2.369691556350E-14,6.45E1,-1.E1));
#161=DIRECTION('',(0.E0,0.E0,1.E0));
#162=DIRECTION('',(-1.461370581607E-14,1.E0,0.E0));
#163=AXIS2_PLACEMENT_3D('',#160,#161,#162);
#165=CARTESIAN_POINT('',(2.369691556350E-14,6.45E1,-1.E1));
#166=DIRECTION('',(0.E0,0.E0,1.E0));
#167=DIRECTION('',(-1.461370581607E-14,-1.E0,0.E0));
#168=AXIS2_PLACEMENT_3D('',#165,#166,#167);
#170=CARTESIAN_POINT('',(0.E0,-2.15E1,-1.E1));
#171=DIRECTION('',(0.E0,0.E0,1.E0));
#172=DIRECTION('',(0.E0,1.E0,0.E0));
#173=AXIS2_PLACEMENT_3D('',#170,#171,#172);
#175=CARTESIAN_POINT('',(0.E0,-2.15E1,-1.E1));
#176=DIRECTION('',(0.E0,0.E0,1.E0));
#177=DIRECTION('',(0.E0,-1.E0,0.E0));
#178=AXIS2_PLACEMENT_3D('',#175,#176,#177);
#180=CARTESIAN_POINT('',(0.E0,2.15E1,-1.E1));
#181=DIRECTION('',(0.E0,0.E0,1.E0));
#182=DIRECTION('',(0.E0,1.E0,0.E0));
#183=AXIS2_PLACEMENT_3D('',#180,#181,#182);
#185=CARTESIAN_POINT('',(0.E0,2.15E1,-1.E1));
#186=DIRECTION('',(0.E0,0.E0,1.E0));
#187=DIRECTION('',(0.E0,-1.E0,0.E0));
#188=AXIS2_PLACEMENT_3D('',#185,#186,#187);
#190=DIRECTION('',(0.E0,0.E0,-1.E0));
#191=VECTOR('',#190,2.E1);
#192=CARTESIAN_POINT('',(1.E1,7.E1,1.E1));
#193=LINE('',#192,#191);
#194=DIRECTION('',(1.E0,0.E0,0.E0));
#195=VECTOR('',#194,2.E1);
#196=CARTESIAN_POINT('',(-1.E1,7.E1,1.E1));
#197=LINE('',#196,#195);
#198=DIRECTION('',(0.E0,0.E0,1.E0));
#199=VECTOR('',#198,2.E1);
#200=CARTESIAN_POINT('',(-1.E1,7.E1,-1.E1));
#201=LINE('',#200,#199);
#202=DIRECTION('',(-1.E0,0.E0,0.E0));
#203=VECTOR('',#202,2.E1);
#204=CARTESIAN_POINT('',(1.E1,7.E1,-1.E1));
#205=LINE('',#204,#203);
#206=DIRECTION('',(-1.E0,0.E0,0.E0));
#207=VECTOR('',#206,1.8E1);
#208=CARTESIAN_POINT('',(9.E0,7.E1,9.E0));
#209=LINE('',#208,#207);
#210=DIRECTION('',(0.E0,0.E0,1.E0));
#211=VECTOR('',#210,1.8E1);
#212=CARTESIAN_POINT('',(9.E0,7.E1,-9.E0));
#213=LINE('',#212,#211);
#214=DIRECTION('',(1.E0,0.E0,0.E0));
#215=VECTOR('',#214,1.8E1);
#216=CARTESIAN_POINT('',(-9.E0,7.E1,-9.E0));
#217=LINE('',#216,#215);
#218=DIRECTION('',(0.E0,0.E0,-1.E0));
#219=VECTOR('',#218,1.8E1);
#220=CARTESIAN_POINT('',(-9.E0,7.E1,9.E0));
#221=LINE('',#220,#219);
#222=DIRECTION('',(0.E0,1.E0,0.E0));
#223=VECTOR('',#222,1.4E2);
#224=CARTESIAN_POINT('',(9.E0,-7.E1,9.E0));
#225=LINE('',#224,#223);
#226=CARTESIAN_POINT('',(0.E0,-6.45E1,9.E0));
#227=DIRECTION('',(0.E0,0.E0,1.E0));
#228=DIRECTION('',(0.E0,1.E0,0.E0));
#229=AXIS2_PLACEMENT_3D('',#226,#227,#228);
#231=CARTESIAN_POINT('',(0.E0,-6.45E1,9.E0));
#232=DIRECTION('',(0.E0,0.E0,1.E0));
#233=DIRECTION('',(0.E0,-1.E0,0.E0));
#234=AXIS2_PLACEMENT_3D('',#231,#232,#233);
#236=CARTESIAN_POINT('',(2.369691556350E-14,6.45E1,9.E0));
#237=DIRECTION('',(0.E0,0.E0,1.E0));
#238=DIRECTION('',(-1.579794370900E-14,1.E0,0.E0));
#239=AXIS2_PLACEMENT_3D('',#236,#237,#238);
#241=CARTESIAN_POINT('',(2.369691556350E-14,6.45E1,9.E0));
#242=DIRECTION('',(0.E0,0.E0,1.E0));
#243=DIRECTION('',(-1.579794370900E-14,-1.E0,0.E0));
#244=AXIS2_PLACEMENT_3D('',#241,#242,#243);
#246=CARTESIAN_POINT('',(0.E0,-2.15E1,9.E0));
#247=DIRECTION('',(0.E0,0.E0,1.E0));
#248=DIRECTION('',(0.E0,1.E0,0.E0));
#249=AXIS2_PLACEMENT_3D('',#246,#247,#248);
#251=CARTESIAN_POINT('',(0.E0,-2.15E1,9.E0));
#252=DIRECTION('',(0.E0,0.E0,1.E0));
#253=DIRECTION('',(0.E0,-1.E0,0.E0));
#254=AXIS2_PLACEMENT_3D('',#251,#252,#253);
#256=CARTESIAN_POINT('',(0.E0,2.15E1,9.E0));
#257=DIRECTION('',(0.E0,0.E0,1.E0));
#258=DIRECTION('',(0.E0,1.E0,0.E0));
#259=AXIS2_PLACEMENT_3D('',#256,#257,#258);
#261=CARTESIAN_POINT('',(0.E0,2.15E1,9.E0));
#262=DIRECTION('',(0.E0,0.E0,1.E0));
#263=DIRECTION('',(0.E0,-1.E0,0.E0));
#264=AXIS2_PLACEMENT_3D('',#261,#262,#263);
#266=DIRECTION('',(0.E0,1.E0,0.E0));
#267=VECTOR('',#266,1.4E2);
#268=CARTESIAN_POINT('',(9.E0,-7.E1,-9.E0));
#269=LINE('',#268,#267);
#270=CARTESIAN_POINT('',(9.E0,-4.4E1,0.E0));
#271=DIRECTION('',(-1.E0,0.E0,0.E0));
#272=DIRECTION('',(0.E0,-1.E0,0.E0));
#273=AXIS2_PLACEMENT_3D('',#270,#271,#272);
#275=CARTESIAN_POINT('',(9.E0,-4.4E1,0.E0));
#276=DIRECTION('',(-1.E0,0.E0,0.E0));
#277=DIRECTION('',(0.E0,1.E0,0.E0));
#278=AXIS2_PLACEMENT_3D('',#275,#276,#277);
#280=CARTESIAN_POINT('',(9.E0,4.4E1,0.E0));
#281=DIRECTION('',(-1.E0,0.E0,0.E0));
#282=DIRECTION('',(0.E0,-1.E0,0.E0));
#283=AXIS2_PLACEMENT_3D('',#280,#281,#282);
#285=CARTESIAN_POINT('',(9.E0,4.4E1,0.E0));
#286=DIRECTION('',(-1.E0,0.E0,0.E0));
#287=DIRECTION('',(0.E0,1.E0,0.E0));
#288=AXIS2_PLACEMENT_3D('',#285,#286,#287);
#290=CARTESIAN_POINT('',(9.E0,0.E0,0.E0));
#291=DIRECTION('',(-1.E0,0.E0,0.E0));
#292=DIRECTION('',(0.E0,-1.E0,0.E0));
#293=AXIS2_PLACEMENT_3D('',#290,#291,#292);
#295=CARTESIAN_POINT('',(9.E0,0.E0,0.E0));
#296=DIRECTION('',(-1.E0,0.E0,0.E0));
#297=DIRECTION('',(0.E0,1.E0,0.E0));
#298=AXIS2_PLACEMENT_3D('',#295,#296,#297);
#300=DIRECTION('',(0.E0,1.E0,0.E0));
#301=VECTOR('',#300,1.4E2);
#302=CARTESIAN_POINT('',(-9.E0,-7.E1,-9.E0));
#303=LINE('',#302,#301);
#304=CARTESIAN_POINT('',(0.E0,-6.45E1,-9.E0));
#305=DIRECTION('',(0.E0,0.E0,1.E0));
#306=DIRECTION('',(0.E0,1.E0,0.E0));
#307=AXIS2_PLACEMENT_3D('',#304,#305,#306);
#309=CARTESIAN_POINT('',(0.E0,-6.45E1,-9.E0));
#310=DIRECTION('',(0.E0,0.E0,1.E0));
#311=DIRECTION('',(0.E0,-1.E0,0.E0));
#312=AXIS2_PLACEMENT_3D('',#309,#310,#311);
#314=CARTESIAN_POINT('',(2.369691556350E-14,6.45E1,-9.E0));
#315=DIRECTION('',(0.E0,0.E0,1.E0));
#316=DIRECTION('',(-1.579794370900E-14,1.E0,0.E0));
#317=AXIS2_PLACEMENT_3D('',#314,#315,#316);
#319=CARTESIAN_POINT('',(2.369691556350E-14,6.45E1,-9.E0));
#320=DIRECTION('',(0.E0,0.E0,1.E0));
#321=DIRECTION('',(-1.579794370900E-14,-1.E0,0.E0));
#322=AXIS2_PLACEMENT_3D('',#319,#320,#321);
#324=CARTESIAN_POINT('',(0.E0,-2.15E1,-9.E0));
#325=DIRECTION('',(0.E0,0.E0,1.E0));
#326=DIRECTION('',(0.E0,1.E0,0.E0));
#327=AXIS2_PLACEMENT_3D('',#324,#325,#326);
#329=CARTESIAN_POINT('',(0.E0,-2.15E1,-9.E0));
#330=DIRECTION('',(0.E0,0.E0,1.E0));
#331=DIRECTION('',(0.E0,-1.E0,0.E0));
#332=AXIS2_PLACEMENT_3D('',#329,#330,#331);
#334=CARTESIAN_POINT('',(0.E0,2.15E1,-9.E0));
#335=DIRECTION('',(0.E0,0.E0,1.E0));
#336=DIRECTION('',(0.E0,1.E0,0.E0));
#337=AXIS2_PLACEMENT_3D('',#334,#335,#336);
#339=CARTESIAN_POINT('',(0.E0,2.15E1,-9.E0));
#340=DIRECTION('',(0.E0,0.E0,1.E0));
#341=DIRECTION('',(0.E0,-1.E0,0.E0));
#342=AXIS2_PLACEMENT_3D('',#339,#340,#341);
#344=DIRECTION('',(0.E0,1.E0,0.E0));
#345=VECTOR('',#344,1.4E2);
#346=CARTESIAN_POINT('',(-9.E0,-7.E1,9.E0));
#347=LINE('',#346,#345);
#348=CARTESIAN_POINT('',(-9.E0,-4.4E1,0.E0));
#349=DIRECTION('',(-1.E0,0.E0,0.E0));
#350=DIRECTION('',(0.E0,-1.E0,0.E0));
#351=AXIS2_PLACEMENT_3D('',#348,#349,#350);
#353=CARTESIAN_POINT('',(-9.E0,-4.4E1,0.E0));
#354=DIRECTION('',(-1.E0,0.E0,0.E0));
#355=DIRECTION('',(0.E0,1.E0,0.E0));
#356=AXIS2_PLACEMENT_3D('',#353,#354,#355);
#358=CARTESIAN_POINT('',(-9.E0,4.4E1,0.E0));
#359=DIRECTION('',(-1.E0,0.E0,0.E0));
#360=DIRECTION('',(0.E0,-1.E0,0.E0));
#361=AXIS2_PLACEMENT_3D('',#358,#359,#360);
#363=CARTESIAN_POINT('',(-9.E0,4.4E1,0.E0));
#364=DIRECTION('',(-1.E0,0.E0,0.E0));
#365=DIRECTION('',(0.E0,1.E0,0.E0));
#366=AXIS2_PLACEMENT_3D('',#363,#364,#365);
#368=CARTESIAN_POINT('',(-9.E0,0.E0,0.E0));
#369=DIRECTION('',(-1.E0,0.E0,0.E0));
#370=DIRECTION('',(0.E0,-1.E0,0.E0));
#371=AXIS2_PLACEMENT_3D('',#368,#369,#370);
#373=CARTESIAN_POINT('',(-9.E0,0.E0,0.E0));
#374=DIRECTION('',(-1.E0,0.E0,0.E0));
#375=DIRECTION('',(0.E0,1.E0,0.E0));
#376=AXIS2_PLACEMENT_3D('',#373,#374,#375);
#378=DIRECTION('',(1.E0,0.E0,0.E0));
#379=VECTOR('',#378,1.E0);
#380=CARTESIAN_POINT('',(9.E0,-4.55E1,0.E0));
#381=LINE('',#380,#379);
#382=DIRECTION('',(1.E0,0.E0,0.E0));
#383=VECTOR('',#382,1.E0);
#384=CARTESIAN_POINT('',(-1.E1,-4.55E1,0.E0));
#385=LINE('',#384,#383);
#386=DIRECTION('',(1.E0,0.E0,0.E0));
#387=VECTOR('',#386,1.E0);
#388=CARTESIAN_POINT('',(9.E0,-4.25E1,0.E0));
#389=LINE('',#388,#387);
#390=DIRECTION('',(1.E0,0.E0,0.E0));
#391=VECTOR('',#390,1.E0);
#392=CARTESIAN_POINT('',(-1.E1,-4.25E1,0.E0));
#393=LINE('',#392,#391);
#394=DIRECTION('',(1.E0,0.E0,0.E0));
#395=VECTOR('',#394,1.E0);
#396=CARTESIAN_POINT('',(9.E0,4.25E1,0.E0));
#397=LINE('',#396,#395);
#398=DIRECTION('',(1.E0,0.E0,0.E0));
#399=VECTOR('',#398,1.E0);
#400=CARTESIAN_POINT('',(-1.E1,4.25E1,0.E0));
#401=LINE('',#400,#399);
#402=DIRECTION('',(1.E0,0.E0,0.E0));
#403=VECTOR('',#402,1.E0);
#404=CARTESIAN_POINT('',(9.E0,4.55E1,0.E0));
#405=LINE('',#404,#403);
#406=DIRECTION('',(1.E0,0.E0,0.E0));
#407=VECTOR('',#406,1.E0);
#408=CARTESIAN_POINT('',(-1.E1,4.55E1,0.E0));
#409=LINE('',#408,#407);
#410=DIRECTION('',(1.E0,0.E0,0.E0));
#411=VECTOR('',#410,1.E0);
#412=CARTESIAN_POINT('',(9.E0,-1.5E0,0.E0));
#413=LINE('',#412,#411);
#414=DIRECTION('',(1.E0,0.E0,0.E0));
#415=VECTOR('',#414,1.E0);
#416=CARTESIAN_POINT('',(-1.E1,-1.5E0,0.E0));
#417=LINE('',#416,#415);
#418=DIRECTION('',(1.E0,0.E0,0.E0));
#419=VECTOR('',#418,1.E0);
#420=CARTESIAN_POINT('',(9.E0,1.5E0,0.E0));
#421=LINE('',#420,#419);
#422=DIRECTION('',(1.E0,0.E0,0.E0));
#423=VECTOR('',#422,1.E0);
#424=CARTESIAN_POINT('',(-1.E1,1.5E0,0.E0));
#425=LINE('',#424,#423);
#426=DIRECTION('',(0.E0,0.E0,-1.E0));
#427=VECTOR('',#426,1.E0);
#428=CARTESIAN_POINT('',(0.E0,-6.3E1,-9.E0));
#429=LINE('',#428,#427);
#430=DIRECTION('',(0.E0,0.E0,-1.E0));
#431=VECTOR('',#430,1.E0);
#432=CARTESIAN_POINT('',(0.E0,-6.3E1,1.E1));
#433=LINE('',#432,#431);
#434=DIRECTION('',(0.E0,0.E0,-1.E0));
#435=VECTOR('',#434,1.E0);
#436=CARTESIAN_POINT('',(0.E0,-6.6E1,-9.E0));
#437=LINE('',#436,#435);
#438=DIRECTION('',(0.E0,0.E0,-1.E0));
#439=VECTOR('',#438,1.E0);
#440=CARTESIAN_POINT('',(0.E0,-6.6E1,1.E1));
#441=LINE('',#440,#439);
#442=DIRECTION('',(0.E0,0.E0,-1.E0));
#443=VECTOR('',#442,1.E0);
#444=CARTESIAN_POINT('',(1.598164072887E-14,6.6E1,-9.E0));
#445=LINE('',#444,#443);
#446=DIRECTION('',(0.E0,0.E0,-1.E0));
#447=VECTOR('',#446,1.E0);
#448=CARTESIAN_POINT('',(1.592040838892E-14,6.6E1,1.E1));
#449=LINE('',#448,#447);
#450=DIRECTION('',(0.E0,0.E0,-1.E0));
#451=VECTOR('',#450,1.E0);
#452=CARTESIAN_POINT('',(1.567547902909E-14,6.3E1,-9.E0));
#453=LINE('',#452,#451);
#454=DIRECTION('',(0.E0,0.E0,-1.E0));
#455=VECTOR('',#454,1.E0);
#456=CARTESIAN_POINT('',(1.567547902909E-14,6.3E1,1.E1));
#457=LINE('',#456,#455);
#458=DIRECTION('',(0.E0,0.E0,-1.E0));
#459=VECTOR('',#458,1.E0);
#460=CARTESIAN_POINT('',(0.E0,-2.E1,-9.E0));
#461=LINE('',#460,#459);
#462=DIRECTION('',(0.E0,0.E0,-1.E0));
#463=VECTOR('',#462,1.E0);
#464=CARTESIAN_POINT('',(0.E0,-2.E1,1.E1));
#465=LINE('',#464,#463);
#466=DIRECTION('',(0.E0,0.E0,-1.E0));
#467=VECTOR('',#466,1.E0);
#468=CARTESIAN_POINT('',(0.E0,-2.3E1,-9.E0));
#469=LINE('',#468,#467);
#470=DIRECTION('',(0.E0,0.E0,-1.E0));
#471=VECTOR('',#470,1.E0);
#472=CARTESIAN_POINT('',(0.E0,-2.3E1,1.E1));
#473=LINE('',#472,#471);
#474=DIRECTION('',(0.E0,0.E0,-1.E0));
#475=VECTOR('',#474,1.E0);
#476=CARTESIAN_POINT('',(0.E0,2.3E1,-9.E0));
#477=LINE('',#476,#475);
#478=DIRECTION('',(0.E0,0.E0,-1.E0));
#479=VECTOR('',#478,1.E0);
#480=CARTESIAN_POINT('',(0.E0,2.3E1,1.E1));
#481=LINE('',#480,#479);
#482=DIRECTION('',(0.E0,0.E0,-1.E0));
#483=VECTOR('',#482,1.E0);
#484=CARTESIAN_POINT('',(0.E0,2.E1,-9.E0));
#485=LINE('',#484,#483);
#486=DIRECTION('',(0.E0,0.E0,-1.E0));
#487=VECTOR('',#486,1.E0);
#488=CARTESIAN_POINT('',(0.E0,2.E1,1.E1));
#489=LINE('',#488,#487);
#490=CARTESIAN_POINT('',(1.E1,-7.E1,1.E1));
#491=CARTESIAN_POINT('',(1.E1,-7.E1,-1.E1));
#492=VERTEX_POINT('',#490);
#493=VERTEX_POINT('',#491);
#494=CARTESIAN_POINT('',(-1.E1,-7.E1,-1.E1));
#495=VERTEX_POINT('',#494);
#496=CARTESIAN_POINT('',(-1.E1,-7.E1,1.E1));
#497=VERTEX_POINT('',#496);
#498=CARTESIAN_POINT('',(9.E0,-7.E1,9.E0));
#499=CARTESIAN_POINT('',(-9.E0,-7.E1,9.E0));
#500=VERTEX_POINT('',#498);
#501=VERTEX_POINT('',#499);
#502=CARTESIAN_POINT('',(-9.E0,-7.E1,-9.E0));
#503=VERTEX_POINT('',#502);
#504=CARTESIAN_POINT('',(9.E0,-7.E1,-9.E0));
#505=VERTEX_POINT('',#504);
#506=CARTESIAN_POINT('',(1.E1,7.E1,1.E1));
#507=CARTESIAN_POINT('',(1.E1,7.E1,-1.E1));
#508=VERTEX_POINT('',#506);
#509=VERTEX_POINT('',#507);
#510=CARTESIAN_POINT('',(-1.E1,7.E1,-1.E1));
#511=VERTEX_POINT('',#510);
#512=CARTESIAN_POINT('',(-1.E1,7.E1,1.E1));
#513=VERTEX_POINT('',#512);
#514=CARTESIAN_POINT('',(9.E0,7.E1,9.E0));
#515=CARTESIAN_POINT('',(-9.E0,7.E1,9.E0));
#516=VERTEX_POINT('',#514);
#517=VERTEX_POINT('',#515);
#518=CARTESIAN_POINT('',(-9.E0,7.E1,-9.E0));
#519=VERTEX_POINT('',#518);
#520=CARTESIAN_POINT('',(9.E0,7.E1,-9.E0));
#521=VERTEX_POINT('',#520);
#522=CARTESIAN_POINT('',(1.E1,-4.55E1,0.E0));
#523=CARTESIAN_POINT('',(1.E1,-4.25E1,0.E0));
#524=VERTEX_POINT('',#522);
#525=VERTEX_POINT('',#523);
#526=CARTESIAN_POINT('',(1.E1,4.25E1,0.E0));
#527=CARTESIAN_POINT('',(1.E1,4.55E1,0.E0));
#528=VERTEX_POINT('',#526);
#529=VERTEX_POINT('',#527);
#530=CARTESIAN_POINT('',(-1.E1,-4.55E1,0.E0));
#531=CARTESIAN_POINT('',(-1.E1,-4.25E1,0.E0));
#532=VERTEX_POINT('',#530);
#533=VERTEX_POINT('',#531);
#534=CARTESIAN_POINT('',(-1.E1,4.25E1,0.E0));
#535=CARTESIAN_POINT('',(-1.E1,4.55E1,0.E0));
#536=VERTEX_POINT('',#534);
#537=VERTEX_POINT('',#535);
#538=CARTESIAN_POINT('',(-9.E0,-4.55E1,0.E0));
#539=CARTESIAN_POINT('',(-9.E0,-4.25E1,0.E0));
#540=VERTEX_POINT('',#538);
#541=VERTEX_POINT('',#539);
#542=CARTESIAN_POINT('',(-9.E0,4.25E1,0.E0));
#543=CARTESIAN_POINT('',(-9.E0,4.55E1,0.E0));
#544=VERTEX_POINT('',#542);
#545=VERTEX_POINT('',#543);
#546=CARTESIAN_POINT('',(9.E0,-4.55E1,0.E0));
#547=CARTESIAN_POINT('',(9.E0,-4.25E1,0.E0));
#548=VERTEX_POINT('',#546);
#549=VERTEX_POINT('',#547);
#550=CARTESIAN_POINT('',(9.E0,4.25E1,0.E0));
#551=CARTESIAN_POINT('',(9.E0,4.55E1,0.E0));
#552=VERTEX_POINT('',#550);
#553=VERTEX_POINT('',#551);
#554=CARTESIAN_POINT('',(0.E0,-6.3E1,-1.E1));
#555=CARTESIAN_POINT('',(0.E0,-6.6E1,-1.E1));
#556=VERTEX_POINT('',#554);
#557=VERTEX_POINT('',#555);
#558=CARTESIAN_POINT('',(0.E0,6.6E1,-1.E1));
#559=CARTESIAN_POINT('',(0.E0,6.3E1,-1.E1));
#560=VERTEX_POINT('',#558);
#561=VERTEX_POINT('',#559);
#562=CARTESIAN_POINT('',(0.E0,-6.3E1,1.E1));
#563=CARTESIAN_POINT('',(0.E0,-6.6E1,1.E1));
#564=VERTEX_POINT('',#562);
#565=VERTEX_POINT('',#563);
#566=CARTESIAN_POINT('',(0.E0,6.6E1,1.E1));
#567=CARTESIAN_POINT('',(0.E0,6.3E1,1.E1));
#568=VERTEX_POINT('',#566);
#569=VERTEX_POINT('',#567);
#570=CARTESIAN_POINT('',(0.E0,-6.3E1,9.E0));
#571=CARTESIAN_POINT('',(0.E0,-6.6E1,9.E0));
#572=VERTEX_POINT('',#570);
#573=VERTEX_POINT('',#571);
#574=CARTESIAN_POINT('',(0.E0,6.6E1,9.E0));
#575=CARTESIAN_POINT('',(0.E0,6.3E1,9.E0));
#576=VERTEX_POINT('',#574);
#577=VERTEX_POINT('',#575);
#578=CARTESIAN_POINT('',(0.E0,-6.3E1,-9.E0));
#579=CARTESIAN_POINT('',(0.E0,-6.6E1,-9.E0));
#580=VERTEX_POINT('',#578);
#581=VERTEX_POINT('',#579);
#582=CARTESIAN_POINT('',(0.E0,6.6E1,-9.E0));
#583=CARTESIAN_POINT('',(0.E0,6.3E1,-9.E0));
#584=VERTEX_POINT('',#582);
#585=VERTEX_POINT('',#583);
#586=CARTESIAN_POINT('',(0.E0,-2.E1,-1.E1));
#587=CARTESIAN_POINT('',(0.E0,-2.3E1,-1.E1));
#588=VERTEX_POINT('',#586);
#589=VERTEX_POINT('',#587);
#590=CARTESIAN_POINT('',(0.E0,2.3E1,-1.E1));
#591=CARTESIAN_POINT('',(0.E0,2.E1,-1.E1));
#592=VERTEX_POINT('',#590);
#593=VERTEX_POINT('',#591);
#594=CARTESIAN_POINT('',(0.E0,-2.E1,1.E1));
#595=CARTESIAN_POINT('',(0.E0,-2.3E1,1.E1));
#596=VERTEX_POINT('',#594);
#597=VERTEX_POINT('',#595);
#598=CARTESIAN_POINT('',(0.E0,2.3E1,1.E1));
#599=CARTESIAN_POINT('',(0.E0,2.E1,1.E1));
#600=VERTEX_POINT('',#598);
#601=VERTEX_POINT('',#599);
#602=CARTESIAN_POINT('',(0.E0,-2.E1,9.E0));
#603=CARTESIAN_POINT('',(0.E0,-2.3E1,9.E0));
#604=VERTEX_POINT('',#602);
#605=VERTEX_POINT('',#603);
#606=CARTESIAN_POINT('',(0.E0,2.3E1,9.E0));
#607=CARTESIAN_POINT('',(0.E0,2.E1,9.E0));
#608=VERTEX_POINT('',#606);
#609=VERTEX_POINT('',#607);
#610=CARTESIAN_POINT('',(0.E0,-2.E1,-9.E0));
#611=CARTESIAN_POINT('',(0.E0,-2.3E1,-9.E0));
#612=VERTEX_POINT('',#610);
#613=VERTEX_POINT('',#611);
#614=CARTESIAN_POINT('',(0.E0,2.3E1,-9.E0));
#615=CARTESIAN_POINT('',(0.E0,2.E1,-9.E0));
#616=VERTEX_POINT('',#614);
#617=VERTEX_POINT('',#615);
#618=CARTESIAN_POINT('',(1.E1,-1.5E0,0.E0));
#619=CARTESIAN_POINT('',(1.E1,1.5E0,0.E0));
#620=VERTEX_POINT('',#618);
#621=VERTEX_POINT('',#619);
#622=CARTESIAN_POINT('',(-1.E1,-1.5E0,0.E0));
#623=CARTESIAN_POINT('',(-1.E1,1.5E0,0.E0));
#624=VERTEX_POINT('',#622);
#625=VERTEX_POINT('',#623);
#626=CARTESIAN_POINT('',(-9.E0,-1.5E0,0.E0));
#627=CARTESIAN_POINT('',(-9.E0,1.5E0,0.E0));
#628=VERTEX_POINT('',#626);
#629=VERTEX_POINT('',#627);
#630=CARTESIAN_POINT('',(9.E0,-1.5E0,0.E0));
#631=CARTESIAN_POINT('',(9.E0,1.5E0,0.E0));
#632=VERTEX_POINT('',#630);
#633=VERTEX_POINT('',#631);
#634=CARTESIAN_POINT('',(0.E0,-7.E1,0.E0));
#635=DIRECTION('',(0.E0,1.E0,0.E0));
#636=DIRECTION('',(-1.E0,0.E0,0.E0));
#637=AXIS2_PLACEMENT_3D('',#634,#635,#636);
#638=PLANE('',#637);
#640=ORIENTED_EDGE('',*,*,#639,.T.);
#642=ORIENTED_EDGE('',*,*,#641,.T.);
#644=ORIENTED_EDGE('',*,*,#643,.T.);
#646=ORIENTED_EDGE('',*,*,#645,.T.);
#647=EDGE_LOOP('',(#640,#642,#644,#646));
#648=FACE_OUTER_BOUND('',#647,.F.);
#650=ORIENTED_EDGE('',*,*,#649,.T.);
#652=ORIENTED_EDGE('',*,*,#651,.T.);
#654=ORIENTED_EDGE('',*,*,#653,.T.);
#656=ORIENTED_EDGE('',*,*,#655,.T.);
#657=EDGE_LOOP('',(#650,#652,#654,#656));
#658=FACE_BOUND('',#657,.F.);
#659=ADVANCED_FACE('',(#648,#658),#638,.F.);
#660=CARTESIAN_POINT('',(1.E1,-7.E1,1.E1));
#661=DIRECTION('',(1.E0,0.E0,0.E0));
#662=DIRECTION('',(0.E0,0.E0,-1.E0));
#663=AXIS2_PLACEMENT_3D('',#660,#661,#662);
#664=PLANE('',#663);
#665=ORIENTED_EDGE('',*,*,#639,.F.);
#667=ORIENTED_EDGE('',*,*,#666,.T.);
#669=ORIENTED_EDGE('',*,*,#668,.T.);
#671=ORIENTED_EDGE('',*,*,#670,.F.);
#672=EDGE_LOOP('',(#665,#667,#669,#671));
#673=FACE_OUTER_BOUND('',#672,.F.);
#675=ORIENTED_EDGE('',*,*,#674,.F.);
#677=ORIENTED_EDGE('',*,*,#676,.F.);
#678=EDGE_LOOP('',(#675,#677));
#679=FACE_BOUND('',#678,.F.);
#681=ORIENTED_EDGE('',*,*,#680,.F.);
#683=ORIENTED_EDGE('',*,*,#682,.F.);
#684=EDGE_LOOP('',(#681,#683));
#685=FACE_BOUND('',#684,.F.);
#687=ORIENTED_EDGE('',*,*,#686,.F.);
#689=ORIENTED_EDGE('',*,*,#688,.F.);
#690=EDGE_LOOP('',(#687,#689));
#691=FACE_BOUND('',#690,.F.);
#692=ADVANCED_FACE('',(#673,#679,#685,#691),#664,.T.);
#693=CARTESIAN_POINT('',(-1.E1,-7.E1,1.E1));
#694=DIRECTION('',(0.E0,0.E0,1.E0));
#695=DIRECTION('',(1.E0,0.E0,0.E0));
#696=AXIS2_PLACEMENT_3D('',#693,#694,#695);
#697=PLANE('',#696);
#698=ORIENTED_EDGE('',*,*,#645,.F.);
#700=ORIENTED_EDGE('',*,*,#699,.T.);
#702=ORIENTED_EDGE('',*,*,#701,.T.);
#703=ORIENTED_EDGE('',*,*,#666,.F.);
#704=EDGE_LOOP('',(#698,#700,#702,#703));
#705=FACE_OUTER_BOUND('',#704,.F.);
#707=ORIENTED_EDGE('',*,*,#706,.T.);
#709=ORIENTED_EDGE('',*,*,#708,.T.);
#710=EDGE_LOOP('',(#707,#709));
#711=FACE_BOUND('',#710,.F.);
#713=ORIENTED_EDGE('',*,*,#712,.T.);
#715=ORIENTED_EDGE('',*,*,#714,.T.);
#716=EDGE_LOOP('',(#713,#715));
#717=FACE_BOUND('',#716,.F.);
#719=ORIENTED_EDGE('',*,*,#718,.T.);
#721=ORIENTED_EDGE('',*,*,#720,.T.);
#722=EDGE_LOOP('',(#719,#721));
#723=FACE_BOUND('',#722,.F.);
#725=ORIENTED_EDGE('',*,*,#724,.T.);
#727=ORIENTED_EDGE('',*,*,#726,.T.);
#728=EDGE_LOOP('',(#725,#727));
#729=FACE_BOUND('',#728,.F.);
#730=ADVANCED_FACE('',(#705,#711,#717,#723,#729),#697,.T.);
#731=CARTESIAN_POINT('',(-1.E1,-7.E1,-1.E1));
#732=DIRECTION('',(-1.E0,0.E0,0.E0));
#733=DIRECTION('',(0.E0,0.E0,1.E0));
#734=AXIS2_PLACEMENT_3D('',#731,#732,#733);
#735=PLANE('',#734);
#736=ORIENTED_EDGE('',*,*,#643,.F.);
#738=ORIENTED_EDGE('',*,*,#737,.T.);
#740=ORIENTED_EDGE('',*,*,#739,.T.);
#741=ORIENTED_EDGE('',*,*,#699,.F.);
#742=EDGE_LOOP('',(#736,#738,#740,#741));
#743=FACE_OUTER_BOUND('',#742,.F.);
#745=ORIENTED_EDGE('',*,*,#744,.T.);
#747=ORIENTED_EDGE('',*,*,#746,.T.);
#748=EDGE_LOOP('',(#745,#747));
#749=FACE_BOUND('',#748,.F.);
#751=ORIENTED_EDGE('',*,*,#750,.T.);
#753=ORIENTED_EDGE('',*,*,#752,.T.);
#754=EDGE_LOOP('',(#751,#753));
#755=FACE_BOUND('',#754,.F.);
#757=ORIENTED_EDGE('',*,*,#756,.T.);
#759=ORIENTED_EDGE('',*,*,#758,.T.);
#760=EDGE_LOOP('',(#757,#759));
#761=FACE_BOUND('',#760,.F.);
#762=ADVANCED_FACE('',(#743,#749,#755,#761),#735,.T.);
#763=CARTESIAN_POINT('',(1.E1,-7.E1,-1.E1));
#764=DIRECTION('',(0.E0,0.E0,-1.E0));
#765=DIRECTION('',(-1.E0,0.E0,0.E0));
#766=AXIS2_PLACEMENT_3D('',#763,#764,#765);
#767=PLANE('',#766);
#768=ORIENTED_EDGE('',*,*,#641,.F.);
#769=ORIENTED_EDGE('',*,*,#670,.T.);
#771=ORIENTED_EDGE('',*,*,#770,.T.);
#772=ORIENTED_EDGE('',*,*,#737,.F.);
#773=EDGE_LOOP('',(#768,#769,#771,#772));
#774=FACE_OUTER_BOUND('',#773,.F.);
#776=ORIENTED_EDGE('',*,*,#775,.F.);
#778=ORIENTED_EDGE('',*,*,#777,.F.);
#779=EDGE_LOOP('',(#776,#778));
#780=FACE_BOUND('',#779,.F.);
#782=ORIENTED_EDGE('',*,*,#781,.F.);
#784=ORIENTED_EDGE('',*,*,#783,.F.);
#785=EDGE_LOOP('',(#782,#784));
#786=FACE_BOUND('',#785,.F.);
#788=ORIENTED_EDGE('',*,*,#787,.F.);
#790=ORIENTED_EDGE('',*,*,#789,.F.);
#791=EDGE_LOOP('',(#788,#790));
#792=FACE_BOUND('',#791,.F.);
#794=ORIENTED_EDGE('',*,*,#793,.F.);
#796=ORIENTED_EDGE('',*,*,#795,.F.);
#797=EDGE_LOOP('',(#794,#796));
#798=FACE_BOUND('',#797,.F.);
#799=ADVANCED_FACE('',(#774,#780,#786,#792,#798),#767,.T.);
#800=CARTESIAN_POINT('',(0.E0,7.E1,0.E0));
#801=DIRECTION('',(0.E0,1.E0,0.E0));
#802=DIRECTION('',(-1.E0,0.E0,0.E0));
#803=AXIS2_PLACEMENT_3D('',#800,#801,#802);
#804=PLANE('',#803);
#805=ORIENTED_EDGE('',*,*,#668,.F.);
#806=ORIENTED_EDGE('',*,*,#701,.F.);
#807=ORIENTED_EDGE('',*,*,#739,.F.);
#808=ORIENTED_EDGE('',*,*,#770,.F.);
#809=EDGE_LOOP('',(#805,#806,#807,#808));
#810=FACE_OUTER_BOUND('',#809,.F.);
#812=ORIENTED_EDGE('',*,*,#811,.F.);
#814=ORIENTED_EDGE('',*,*,#813,.F.);
#816=ORIENTED_EDGE('',*,*,#815,.F.);
#818=ORIENTED_EDGE('',*,*,#817,.F.);
#819=EDGE_LOOP('',(#812,#814,#816,#818));
#820=FACE_BOUND('',#819,.F.);
#821=ADVANCED_FACE('',(#810,#820),#804,.T.);
#822=CARTESIAN_POINT('',(9.E0,-7.E1,9.E0));
#823=DIRECTION('',(0.E0,0.E0,-1.E0));
#824=DIRECTION('',(-1.E0,0.E0,0.E0));
#825=AXIS2_PLACEMENT_3D('',#822,#823,#824);
#826=PLANE('',#825);
#827=ORIENTED_EDGE('',*,*,#649,.F.);
#829=ORIENTED_EDGE('',*,*,#828,.T.);
#830=ORIENTED_EDGE('',*,*,#811,.T.);
#832=ORIENTED_EDGE('',*,*,#831,.F.);
#833=EDGE_LOOP('',(#827,#829,#830,#832));
#834=FACE_OUTER_BOUND('',#833,.F.);
#836=ORIENTED_EDGE('',*,*,#835,.F.);
#838=ORIENTED_EDGE('',*,*,#837,.F.);
#839=EDGE_LOOP('',(#836,#838));
#840=FACE_BOUND('',#839,.F.);
#842=ORIENTED_EDGE('',*,*,#841,.F.);
#844=ORIENTED_EDGE('',*,*,#843,.F.);
#845=EDGE_LOOP('',(#842,#844));
#846=FACE_BOUND('',#845,.F.);
#848=ORIENTED_EDGE('',*,*,#847,.F.);
#850=ORIENTED_EDGE('',*,*,#849,.F.);
#851=EDGE_LOOP('',(#848,#850));
#852=FACE_BOUND('',#851,.F.);
#854=ORIENTED_EDGE('',*,*,#853,.F.);
#856=ORIENTED_EDGE('',*,*,#855,.F.);
#857=EDGE_LOOP('',(#854,#856));
#858=FACE_BOUND('',#857,.F.);
#859=ADVANCED_FACE('',(#834,#840,#846,#852,#858),#826,.T.);
#860=CARTESIAN_POINT('',(9.E0,-7.E1,-9.E0));
#861=DIRECTION('',(-1.E0,0.E0,0.E0));
#862=DIRECTION('',(0.E0,0.E0,1.E0));
#863=AXIS2_PLACEMENT_3D('',#860,#861,#862);
#864=PLANE('',#863);
#865=ORIENTED_EDGE('',*,*,#655,.F.);
#867=ORIENTED_EDGE('',*,*,#866,.T.);
#868=ORIENTED_EDGE('',*,*,#813,.T.);
#869=ORIENTED_EDGE('',*,*,#828,.F.);
#870=EDGE_LOOP('',(#865,#867,#868,#869));
#871=FACE_OUTER_BOUND('',#870,.F.);
#873=ORIENTED_EDGE('',*,*,#872,.T.);
#875=ORIENTED_EDGE('',*,*,#874,.T.);
#876=EDGE_LOOP('',(#873,#875));
#877=FACE_BOUND('',#876,.F.);
#879=ORIENTED_EDGE('',*,*,#878,.T.);
#881=ORIENTED_EDGE('',*,*,#880,.T.);
#882=EDGE_LOOP('',(#879,#881));
#883=FACE_BOUND('',#882,.F.);
#885=ORIENTED_EDGE('',*,*,#884,.T.);
#887=ORIENTED_EDGE('',*,*,#886,.T.);
#888=EDGE_LOOP('',(#885,#887));
#889=FACE_BOUND('',#888,.F.);
#890=ADVANCED_FACE('',(#871,#877,#883,#889),#864,.T.);
#891=CARTESIAN_POINT('',(-9.E0,-7.E1,-9.E0));
#892=DIRECTION('',(0.E0,0.E0,1.E0));
#893=DIRECTION('',(1.E0,0.E0,0.E0));
#894=AXIS2_PLACEMENT_3D('',#891,#892,#893);
#895=PLANE('',#894);
#896=ORIENTED_EDGE('',*,*,#653,.F.);
#898=ORIENTED_EDGE('',*,*,#897,.T.);
#899=ORIENTED_EDGE('',*,*,#815,.T.);
#900=ORIENTED_EDGE('',*,*,#866,.F.);
#901=EDGE_LOOP('',(#896,#898,#899,#900));
#902=FACE_OUTER_BOUND('',#901,.F.);
#904=ORIENTED_EDGE('',*,*,#903,.T.);
#906=ORIENTED_EDGE('',*,*,#905,.T.);
#907=EDGE_LOOP('',(#904,#906));
#908=FACE_BOUND('',#907,.F.);
#910=ORIENTED_EDGE('',*,*,#909,.T.);
#912=ORIENTED_EDGE('',*,*,#911,.T.);
#913=EDGE_LOOP('',(#910,#912));
#914=FACE_BOUND('',#913,.F.);
#916=ORIENTED_EDGE('',*,*,#915,.T.);
#918=ORIENTED_EDGE('',*,*,#917,.T.);
#919=EDGE_LOOP('',(#916,#918));
#920=FACE_BOUND('',#919,.F.);
#922=ORIENTED_EDGE('',*,*,#921,.T.);
#924=ORIENTED_EDGE('',*,*,#923,.T.);
#925=EDGE_LOOP('',(#922,#924));
#926=FACE_BOUND('',#925,.F.);
#927=ADVANCED_FACE('',(#902,#908,#914,#920,#926),#895,.T.);
#928=CARTESIAN_POINT('',(-9.E0,-7.E1,9.E0));
#929=DIRECTION('',(1.E0,0.E0,0.E0));
#930=DIRECTION('',(0.E0,0.E0,-1.E0));
#931=AXIS2_PLACEMENT_3D('',#928,#929,#930);
#932=PLANE('',#931);
#933=ORIENTED_EDGE('',*,*,#651,.F.);
#934=ORIENTED_EDGE('',*,*,#831,.T.);
#935=ORIENTED_EDGE('',*,*,#817,.T.);
#936=ORIENTED_EDGE('',*,*,#897,.F.);
#937=EDGE_LOOP('',(#933,#934,#935,#936));
#938=FACE_OUTER_BOUND('',#937,.F.);
#940=ORIENTED_EDGE('',*,*,#939,.F.);
#942=ORIENTED_EDGE('',*,*,#941,.F.);
#943=EDGE_LOOP('',(#940,#942));
#944=FACE_BOUND('',#943,.F.);
#946=ORIENTED_EDGE('',*,*,#945,.F.);
#948=ORIENTED_EDGE('',*,*,#947,.F.);
#949=EDGE_LOOP('',(#946,#948));
#950=FACE_BOUND('',#949,.F.);
#952=ORIENTED_EDGE('',*,*,#951,.F.);
#954=ORIENTED_EDGE('',*,*,#953,.F.);
#955=EDGE_LOOP('',(#952,#954));
#956=FACE_BOUND('',#955,.F.);
#957=ADVANCED_FACE('',(#938,#944,#950,#956),#932,.T.);
#958=CARTESIAN_POINT('',(-1.E1,-4.4E1,0.E0));
#959=DIRECTION('',(-1.E0,0.E0,0.E0));
#960=DIRECTION('',(0.E0,-1.E0,0.E0));
#961=AXIS2_PLACEMENT_3D('',#958,#959,#960);
#962=CYLINDRICAL_SURFACE('',#961,1.5E0);
#963=ORIENTED_EDGE('',*,*,#674,.T.);
#965=ORIENTED_EDGE('',*,*,#964,.F.);
#966=ORIENTED_EDGE('',*,*,#872,.F.);
#968=ORIENTED_EDGE('',*,*,#967,.T.);
#969=EDGE_LOOP('',(#963,#965,#966,#968));
#970=FACE_OUTER_BOUND('',#969,.F.);
#971=ADVANCED_FACE('',(#970),#962,.F.);
#972=CARTESIAN_POINT('',(-1.E1,-4.4E1,0.E0));
#973=DIRECTION('',(-1.E0,0.E0,0.E0));
#974=DIRECTION('',(0.E0,-1.E0,0.E0));
#975=AXIS2_PLACEMENT_3D('',#972,#973,#974);
#976=CYLINDRICAL_SURFACE('',#975,1.5E0);
#977=ORIENTED_EDGE('',*,*,#744,.F.);
#979=ORIENTED_EDGE('',*,*,#978,.T.);
#980=ORIENTED_EDGE('',*,*,#939,.T.);
#982=ORIENTED_EDGE('',*,*,#981,.F.);
#983=EDGE_LOOP('',(#977,#979,#980,#982));
#984=FACE_OUTER_BOUND('',#983,.F.);
#985=ADVANCED_FACE('',(#984),#976,.F.);
#986=CARTESIAN_POINT('',(-1.E1,-4.4E1,0.E0));
#987=DIRECTION('',(-1.E0,0.E0,0.E0));
#988=DIRECTION('',(0.E0,-1.E0,0.E0));
#989=AXIS2_PLACEMENT_3D('',#986,#987,#988);
#990=CYLINDRICAL_SURFACE('',#989,1.5E0);
#991=ORIENTED_EDGE('',*,*,#676,.T.);
#992=ORIENTED_EDGE('',*,*,#967,.F.);
#993=ORIENTED_EDGE('',*,*,#874,.F.);
#994=ORIENTED_EDGE('',*,*,#964,.T.);
#995=EDGE_LOOP('',(#991,#992,#993,#994));
#996=FACE_OUTER_BOUND('',#995,.F.);
#997=ADVANCED_FACE('',(#996),#990,.F.);
#998=CARTESIAN_POINT('',(-1.E1,-4.4E1,0.E0));
#999=DIRECTION('',(-1.E0,0.E0,0.E0));
#1000=DIRECTION('',(0.E0,-1.E0,0.E0));
#1001=AXIS2_PLACEMENT_3D('',#998,#999,#1000);
#1002=CYLINDRICAL_SURFACE('',#1001,1.5E0);
#1003=ORIENTED_EDGE('',*,*,#746,.F.);
#1004=ORIENTED_EDGE('',*,*,#981,.T.);
#1005=ORIENTED_EDGE('',*,*,#941,.T.);
#1006=ORIENTED_EDGE('',*,*,#978,.F.);
#1007=EDGE_LOOP('',(#1003,#1004,#1005,#1006));
#1008=FACE_OUTER_BOUND('',#1007,.F.);
#1009=ADVANCED_FACE('',(#1008),#1002,.F.);
#1010=CARTESIAN_POINT('',(-1.E1,4.4E1,0.E0));
#1011=DIRECTION('',(-1.E0,0.E0,0.E0));
#1012=DIRECTION('',(0.E0,-1.E0,0.E0));
#1013=AXIS2_PLACEMENT_3D('',#1010,#1011,#1012);
#1014=CYLINDRICAL_SURFACE('',#1013,1.5E0);
#1015=ORIENTED_EDGE('',*,*,#680,.T.);
#1017=ORIENTED_EDGE('',*,*,#1016,.F.);
#1018=ORIENTED_EDGE('',*,*,#878,.F.);
#1020=ORIENTED_EDGE('',*,*,#1019,.T.);
#1021=EDGE_LOOP('',(#1015,#1017,#1018,#1020));
#1022=FACE_OUTER_BOUND('',#1021,.F.);
#1023=ADVANCED_FACE('',(#1022),#1014,.F.);
#1024=CARTESIAN_POINT('',(-1.E1,4.4E1,0.E0));
#1025=DIRECTION('',(-1.E0,0.E0,0.E0));
#1026=DIRECTION('',(0.E0,-1.E0,0.E0));
#1027=AXIS2_PLACEMENT_3D('',#1024,#1025,#1026);
#1028=CYLINDRICAL_SURFACE('',#1027,1.5E0);
#1029=ORIENTED_EDGE('',*,*,#750,.F.);
#1031=ORIENTED_EDGE('',*,*,#1030,.T.);
#1032=ORIENTED_EDGE('',*,*,#945,.T.);
#1034=ORIENTED_EDGE('',*,*,#1033,.F.);
#1035=EDGE_LOOP('',(#1029,#1031,#1032,#1034));
#1036=FACE_OUTER_BOUND('',#1035,.F.);
#1037=ADVANCED_FACE('',(#1036),#1028,.F.);
#1038=CARTESIAN_POINT('',(-1.E1,4.4E1,0.E0));
#1039=DIRECTION('',(-1.E0,0.E0,0.E0));
#1040=DIRECTION('',(0.E0,-1.E0,0.E0));
#1041=AXIS2_PLACEMENT_3D('',#1038,#1039,#1040);
#1042=CYLINDRICAL_SURFACE('',#1041,1.5E0);
#1043=ORIENTED_EDGE('',*,*,#682,.T.);
#1044=ORIENTED_EDGE('',*,*,#1019,.F.);
#1045=ORIENTED_EDGE('',*,*,#880,.F.);
#1046=ORIENTED_EDGE('',*,*,#1016,.T.);
#1047=EDGE_LOOP('',(#1043,#1044,#1045,#1046));
#1048=FACE_OUTER_BOUND('',#1047,.F.);
#1049=ADVANCED_FACE('',(#1048),#1042,.F.);
#1050=CARTESIAN_POINT('',(-1.E1,4.4E1,0.E0));
#1051=DIRECTION('',(-1.E0,0.E0,0.E0));
#1052=DIRECTION('',(0.E0,-1.E0,0.E0));
#1053=AXIS2_PLACEMENT_3D('',#1050,#1051,#1052);
#1054=CYLINDRICAL_SURFACE('',#1053,1.5E0);
#1055=ORIENTED_EDGE('',*,*,#752,.F.);
#1056=ORIENTED_EDGE('',*,*,#1033,.T.);
#1057=ORIENTED_EDGE('',*,*,#947,.T.);
#1058=ORIENTED_EDGE('',*,*,#1030,.F.);
#1059=EDGE_LOOP('',(#1055,#1056,#1057,#1058));
#1060=FACE_OUTER_BOUND('',#1059,.F.);
#1061=ADVANCED_FACE('',(#1060),#1054,.F.);
#1062=CARTESIAN_POINT('',(-1.E1,0.E0,0.E0));
#1063=DIRECTION('',(-1.E0,0.E0,0.E0));
#1064=DIRECTION('',(0.E0,-1.E0,0.E0));
#1065=AXIS2_PLACEMENT_3D('',#1062,#1063,#1064);
#1066=CYLINDRICAL_SURFACE('',#1065,1.5E0);
#1067=ORIENTED_EDGE('',*,*,#686,.T.);
#1069=ORIENTED_EDGE('',*,*,#1068,.F.);
#1070=ORIENTED_EDGE('',*,*,#884,.F.);
#1072=ORIENTED_EDGE('',*,*,#1071,.T.);
#1073=EDGE_LOOP('',(#1067,#1069,#1070,#1072));
#1074=FACE_OUTER_BOUND('',#1073,.F.);
#1075=ADVANCED_FACE('',(#1074),#1066,.F.);
#1076=CARTESIAN_POINT('',(-1.E1,0.E0,0.E0));
#1077=DIRECTION('',(-1.E0,0.E0,0.E0));
#1078=DIRECTION('',(0.E0,-1.E0,0.E0));
#1079=AXIS2_PLACEMENT_3D('',#1076,#1077,#1078);
#1080=CYLINDRICAL_SURFACE('',#1079,1.5E0);
#1081=ORIENTED_EDGE('',*,*,#756,.F.);
#1083=ORIENTED_EDGE('',*,*,#1082,.T.);
#1084=ORIENTED_EDGE('',*,*,#951,.T.);
#1086=ORIENTED_EDGE('',*,*,#1085,.F.);
#1087=EDGE_LOOP('',(#1081,#1083,#1084,#1086));
#1088=FACE_OUTER_BOUND('',#1087,.F.);
#1089=ADVANCED_FACE('',(#1088),#1080,.F.);
#1090=CARTESIAN_POINT('',(-1.E1,0.E0,0.E0));
#1091=DIRECTION('',(-1.E0,0.E0,0.E0));
#1092=DIRECTION('',(0.E0,-1.E0,0.E0));
#1093=AXIS2_PLACEMENT_3D('',#1090,#1091,#1092);
#1094=CYLINDRICAL_SURFACE('',#1093,1.5E0);
#1095=ORIENTED_EDGE('',*,*,#688,.T.);
#1096=ORIENTED_EDGE('',*,*,#1071,.F.);
#1097=ORIENTED_EDGE('',*,*,#886,.F.);
#1098=ORIENTED_EDGE('',*,*,#1068,.T.);
#1099=EDGE_LOOP('',(#1095,#1096,#1097,#1098));
#1100=FACE_OUTER_BOUND('',#1099,.F.);
#1101=ADVANCED_FACE('',(#1100),#1094,.F.);
#1102=CARTESIAN_POINT('',(-1.E1,0.E0,0.E0));
#1103=DIRECTION('',(-1.E0,0.E0,0.E0));
#1104=DIRECTION('',(0.E0,-1.E0,0.E0));
#1105=AXIS2_PLACEMENT_3D('',#1102,#1103,#1104);
#1106=CYLINDRICAL_SURFACE('',#1105,1.5E0);
#1107=ORIENTED_EDGE('',*,*,#758,.F.);
#1108=ORIENTED_EDGE('',*,*,#1085,.T.);
#1109=ORIENTED_EDGE('',*,*,#953,.T.);
#1110=ORIENTED_EDGE('',*,*,#1082,.F.);
#1111=EDGE_LOOP('',(#1107,#1108,#1109,#1110));
#1112=FACE_OUTER_BOUND('',#1111,.F.);
#1113=ADVANCED_FACE('',(#1112),#1106,.F.);
#1114=CARTESIAN_POINT('',(0.E0,-6.45E1,1.E1));
#1115=DIRECTION('',(0.E0,0.E0,1.E0));
#1116=DIRECTION('',(0.E0,1.E0,0.E0));
#1117=AXIS2_PLACEMENT_3D('',#1114,#1115,#1116);
#1118=CYLINDRICAL_SURFACE('',#1117,1.5E0);
#1119=ORIENTED_EDGE('',*,*,#775,.T.);
#1121=ORIENTED_EDGE('',*,*,#1120,.F.);
#1122=ORIENTED_EDGE('',*,*,#903,.F.);
#1124=ORIENTED_EDGE('',*,*,#1123,.T.);
#1125=EDGE_LOOP('',(#1119,#1121,#1122,#1124));
#1126=FACE_OUTER_BOUND('',#1125,.F.);
#1127=ADVANCED_FACE('',(#1126),#1118,.F.);
#1128=CARTESIAN_POINT('',(0.E0,-6.45E1,1.E1));
#1129=DIRECTION('',(0.E0,0.E0,1.E0));
#1130=DIRECTION('',(0.E0,1.E0,0.E0));
#1131=AXIS2_PLACEMENT_3D('',#1128,#1129,#1130);
#1132=CYLINDRICAL_SURFACE('',#1131,1.5E0);
#1133=ORIENTED_EDGE('',*,*,#706,.F.);
#1135=ORIENTED_EDGE('',*,*,#1134,.T.);
#1136=ORIENTED_EDGE('',*,*,#835,.T.);
#1138=ORIENTED_EDGE('',*,*,#1137,.F.);
#1139=EDGE_LOOP('',(#1133,#1135,#1136,#1138));
#1140=FACE_OUTER_BOUND('',#1139,.F.);
#1141=ADVANCED_FACE('',(#1140),#1132,.F.);
#1142=CARTESIAN_POINT('',(0.E0,-6.45E1,1.E1));
#1143=DIRECTION('',(0.E0,0.E0,1.E0));
#1144=DIRECTION('',(0.E0,1.E0,0.E0));
#1145=AXIS2_PLACEMENT_3D('',#1142,#1143,#1144);
#1146=CYLINDRICAL_SURFACE('',#1145,1.5E0);
#1147=ORIENTED_EDGE('',*,*,#777,.T.);
#1148=ORIENTED_EDGE('',*,*,#1123,.F.);
#1149=ORIENTED_EDGE('',*,*,#905,.F.);
#1150=ORIENTED_EDGE('',*,*,#1120,.T.);
#1151=EDGE_LOOP('',(#1147,#1148,#1149,#1150));
#1152=FACE_OUTER_BOUND('',#1151,.F.);
#1153=ADVANCED_FACE('',(#1152),#1146,.F.);
#1154=CARTESIAN_POINT('',(0.E0,-6.45E1,1.E1));
#1155=DIRECTION('',(0.E0,0.E0,1.E0));
#1156=DIRECTION('',(0.E0,1.E0,0.E0));
#1157=AXIS2_PLACEMENT_3D('',#1154,#1155,#1156);
#1158=CYLINDRICAL_SURFACE('',#1157,1.5E0);
#1159=ORIENTED_EDGE('',*,*,#708,.F.);
#1160=ORIENTED_EDGE('',*,*,#1137,.T.);
#1161=ORIENTED_EDGE('',*,*,#837,.T.);
#1162=ORIENTED_EDGE('',*,*,#1134,.F.);
#1163=EDGE_LOOP('',(#1159,#1160,#1161,#1162));
#1164=FACE_OUTER_BOUND('',#1163,.F.);
#1165=ADVANCED_FACE('',(#1164),#1158,.F.);
#1166=CARTESIAN_POINT('',(2.369691556350E-14,6.45E1,1.E1));
#1167=DIRECTION('',(0.E0,0.E0,1.E0));
#1168=DIRECTION('',(0.E0,1.E0,0.E0));
#1169=AXIS2_PLACEMENT_3D('',#1166,#1167,#1168);
#1170=CYLINDRICAL_SURFACE('',#1169,1.5E0);
#1171=ORIENTED_EDGE('',*,*,#781,.T.);
#1173=ORIENTED_EDGE('',*,*,#1172,.F.);
#1174=ORIENTED_EDGE('',*,*,#909,.F.);
#1176=ORIENTED_EDGE('',*,*,#1175,.T.);
#1177=EDGE_LOOP('',(#1171,#1173,#1174,#1176));
#1178=FACE_OUTER_BOUND('',#1177,.F.);
#1179=ADVANCED_FACE('',(#1178),#1170,.F.);
#1180=CARTESIAN_POINT('',(2.369691556350E-14,6.45E1,1.E1));
#1181=DIRECTION('',(0.E0,0.E0,1.E0));
#1182=DIRECTION('',(0.E0,1.E0,0.E0));
#1183=AXIS2_PLACEMENT_3D('',#1180,#1181,#1182);
#1184=CYLINDRICAL_SURFACE('',#1183,1.5E0);
#1185=ORIENTED_EDGE('',*,*,#712,.F.);
#1187=ORIENTED_EDGE('',*,*,#1186,.T.);
#1188=ORIENTED_EDGE('',*,*,#841,.T.);
#1190=ORIENTED_EDGE('',*,*,#1189,.F.);
#1191=EDGE_LOOP('',(#1185,#1187,#1188,#1190));
#1192=FACE_OUTER_BOUND('',#1191,.F.);
#1193=ADVANCED_FACE('',(#1192),#1184,.F.);
#1194=CARTESIAN_POINT('',(2.369691556350E-14,6.45E1,1.E1));
#1195=DIRECTION('',(0.E0,0.E0,1.E0));
#1196=DIRECTION('',(0.E0,1.E0,0.E0));
#1197=AXIS2_PLACEMENT_3D('',#1194,#1195,#1196);
#1198=CYLINDRICAL_SURFACE('',#1197,1.5E0);
#1199=ORIENTED_EDGE('',*,*,#783,.T.);
#1200=ORIENTED_EDGE('',*,*,#1175,.F.);
#1201=ORIENTED_EDGE('',*,*,#911,.F.);
#1202=ORIENTED_EDGE('',*,*,#1172,.T.);
#1203=EDGE_LOOP('',(#1199,#1200,#1201,#1202));
#1204=FACE_OUTER_BOUND('',#1203,.F.);
#1205=ADVANCED_FACE('',(#1204),#1198,.F.);
#1206=CARTESIAN_POINT('',(2.369691556350E-14,6.45E1,1.E1));
#1207=DIRECTION('',(0.E0,0.E0,1.E0));
#1208=DIRECTION('',(0.E0,1.E0,0.E0));
#1209=AXIS2_PLACEMENT_3D('',#1206,#1207,#1208);
#1210=CYLINDRICAL_SURFACE('',#1209,1.5E0);
#1211=ORIENTED_EDGE('',*,*,#714,.F.);
#1212=ORIENTED_EDGE('',*,*,#1189,.T.);
#1213=ORIENTED_EDGE('',*,*,#843,.T.);
#1214=ORIENTED_EDGE('',*,*,#1186,.F.);
#1215=EDGE_LOOP('',(#1211,#1212,#1213,#1214));
#1216=FACE_OUTER_BOUND('',#1215,.F.);
#1217=ADVANCED_FACE('',(#1216),#1210,.F.);
#1218=CARTESIAN_POINT('',(0.E0,-2.15E1,1.E1));
#1219=DIRECTION('',(0.E0,0.E0,1.E0));
#1220=DIRECTION('',(0.E0,1.E0,0.E0));
#1221=AXIS2_PLACEMENT_3D('',#1218,#1219,#1220);
#1222=CYLINDRICAL_SURFACE('',#1221,1.5E0);
#1223=ORIENTED_EDGE('',*,*,#787,.T.);
#1225=ORIENTED_EDGE('',*,*,#1224,.F.);
#1226=ORIENTED_EDGE('',*,*,#915,.F.);
#1228=ORIENTED_EDGE('',*,*,#1227,.T.);
#1229=EDGE_LOOP('',(#1223,#1225,#1226,#1228));
#1230=FACE_OUTER_BOUND('',#1229,.F.);
#1231=ADVANCED_FACE('',(#1230),#1222,.F.);
#1232=CARTESIAN_POINT('',(0.E0,-2.15E1,1.E1));
#1233=DIRECTION('',(0.E0,0.E0,1.E0));
#1234=DIRECTION('',(0.E0,1.E0,0.E0));
#1235=AXIS2_PLACEMENT_3D('',#1232,#1233,#1234);
#1236=CYLINDRICAL_SURFACE('',#1235,1.5E0);
#1237=ORIENTED_EDGE('',*,*,#718,.F.);
#1239=ORIENTED_EDGE('',*,*,#1238,.T.);
#1240=ORIENTED_EDGE('',*,*,#847,.T.);
#1242=ORIENTED_EDGE('',*,*,#1241,.F.);
#1243=EDGE_LOOP('',(#1237,#1239,#1240,#1242));
#1244=FACE_OUTER_BOUND('',#1243,.F.);
#1245=ADVANCED_FACE('',(#1244),#1236,.F.);
#1246=CARTESIAN_POINT('',(0.E0,-2.15E1,1.E1));
#1247=DIRECTION('',(0.E0,0.E0,1.E0));
#1248=DIRECTION('',(0.E0,1.E0,0.E0));
#1249=AXIS2_PLACEMENT_3D('',#1246,#1247,#1248);
#1250=CYLINDRICAL_SURFACE('',#1249,1.5E0);
#1251=ORIENTED_EDGE('',*,*,#789,.T.);
#1252=ORIENTED_EDGE('',*,*,#1227,.F.);
#1253=ORIENTED_EDGE('',*,*,#917,.F.);
#1254=ORIENTED_EDGE('',*,*,#1224,.T.);
#1255=EDGE_LOOP('',(#1251,#1252,#1253,#1254));
#1256=FACE_OUTER_BOUND('',#1255,.F.);
#1257=ADVANCED_FACE('',(#1256),#1250,.F.);
#1258=CARTESIAN_POINT('',(0.E0,-2.15E1,1.E1));
#1259=DIRECTION('',(0.E0,0.E0,1.E0));
#1260=DIRECTION('',(0.E0,1.E0,0.E0));
#1261=AXIS2_PLACEMENT_3D('',#1258,#1259,#1260);
#1262=CYLINDRICAL_SURFACE('',#1261,1.5E0);
#1263=ORIENTED_EDGE('',*,*,#720,.F.);
#1264=ORIENTED_EDGE('',*,*,#1241,.T.);
#1265=ORIENTED_EDGE('',*,*,#849,.T.);
#1266=ORIENTED_EDGE('',*,*,#1238,.F.);
#1267=EDGE_LOOP('',(#1263,#1264,#1265,#1266));
#1268=FACE_OUTER_BOUND('',#1267,.F.);
#1269=ADVANCED_FACE('',(#1268),#1262,.F.);
#1270=CARTESIAN_POINT('',(0.E0,2.15E1,1.E1));
#1271=DIRECTION('',(0.E0,0.E0,1.E0));
#1272=DIRECTION('',(0.E0,1.E0,0.E0));
#1273=AXIS2_PLACEMENT_3D('',#1270,#1271,#1272);
#1274=CYLINDRICAL_SURFACE('',#1273,1.5E0);
#1275=ORIENTED_EDGE('',*,*,#793,.T.);
#1277=ORIENTED_EDGE('',*,*,#1276,.F.);
#1278=ORIENTED_EDGE('',*,*,#921,.F.);
#1280=ORIENTED_EDGE('',*,*,#1279,.T.);
#1281=EDGE_LOOP('',(#1275,#1277,#1278,#1280));
#1282=FACE_OUTER_BOUND('',#1281,.F.);
#1283=ADVANCED_FACE('',(#1282),#1274,.F.);
#1284=CARTESIAN_POINT('',(0.E0,2.15E1,1.E1));
#1285=DIRECTION('',(0.E0,0.E0,1.E0));
#1286=DIRECTION('',(0.E0,1.E0,0.E0));
#1287=AXIS2_PLACEMENT_3D('',#1284,#1285,#1286);
#1288=CYLINDRICAL_SURFACE('',#1287,1.5E0);
#1289=ORIENTED_EDGE('',*,*,#724,.F.);
#1291=ORIENTED_EDGE('',*,*,#1290,.T.);
#1292=ORIENTED_EDGE('',*,*,#853,.T.);
#1294=ORIENTED_EDGE('',*,*,#1293,.F.);
#1295=EDGE_LOOP('',(#1289,#1291,#1292,#1294));
#1296=FACE_OUTER_BOUND('',#1295,.F.);
#1297=ADVANCED_FACE('',(#1296),#1288,.F.);
#1298=CARTESIAN_POINT('',(0.E0,2.15E1,1.E1));
#1299=DIRECTION('',(0.E0,0.E0,1.E0));
#1300=DIRECTION('',(0.E0,1.E0,0.E0));
#1301=AXIS2_PLACEMENT_3D('',#1298,#1299,#1300);
#1302=CYLINDRICAL_SURFACE('',#1301,1.5E0);
#1303=ORIENTED_EDGE('',*,*,#795,.T.);
#1304=ORIENTED_EDGE('',*,*,#1279,.F.);
#1305=ORIENTED_EDGE('',*,*,#923,.F.);
#1306=ORIENTED_EDGE('',*,*,#1276,.T.);
#1307=EDGE_LOOP('',(#1303,#1304,#1305,#1306));
#1308=FACE_OUTER_BOUND('',#1307,.F.);
#1309=ADVANCED_FACE('',(#1308),#1302,.F.);
#1310=CARTESIAN_POINT('',(0.E0,2.15E1,1.E1));
#1311=DIRECTION('',(0.E0,0.E0,1.E0));
#1312=DIRECTION('',(0.E0,1.E0,0.E0));
#1313=AXIS2_PLACEMENT_3D('',#1310,#1311,#1312);
#1314=CYLINDRICAL_SURFACE('',#1313,1.5E0);
#1315=ORIENTED_EDGE('',*,*,#726,.F.);
#1316=ORIENTED_EDGE('',*,*,#1293,.T.);
#1317=ORIENTED_EDGE('',*,*,#855,.T.);
#1318=ORIENTED_EDGE('',*,*,#1290,.F.);
#1319=EDGE_LOOP('',(#1315,#1316,#1317,#1318));
#1320=FACE_OUTER_BOUND('',#1319,.F.);
#1321=ADVANCED_FACE('',(#1320),#1314,.F.);
#1325=DIMENSIONAL_EXPONENTS(0.E0,0.E0,0.E0,0.E0,0.E0,0.E0,0.E0);
#1327=PLANE_ANGLE_MEASURE_WITH_UNIT(PLANE_ANGLE_MEASURE(1.745329251994E-2),
#1326);
#1328=(CONVERSION_BASED_UNIT('DEGREE',#1327)NAMED_UNIT(*)PLANE_ANGLE_UNIT());
#1330=UNCERTAINTY_MEASURE_WITH_UNIT(LENGTH_MEASURE(1.428228554281E-2),#1324,
'closure',
'Maximum model space distance between geometric entities at asserted connectivities');
#1331=(GEOMETRIC_REPRESENTATION_CONTEXT(3)GLOBAL_UNCERTAINTY_ASSIGNED_CONTEXT((
#1330))GLOBAL_UNIT_ASSIGNED_CONTEXT((#1324,#1328,#1329))REPRESENTATION_CONTEXT(
'ID1','3'));
#1333=APPLICATION_CONTEXT(
'CONFIGURATION CONTROLLED 3D DESIGNS OF MECHANICAL PARTS AND ASSEMBLIES');
#1334=APPLICATION_PROTOCOL_DEFINITION('international standard',
'config_control_design',1994,#1333);
#1335=DESIGN_CONTEXT('',#1333,'design');
#1336=MECHANICAL_CONTEXT('',#1333,'mechanical');
#1337=PRODUCT('LVGUAN-1','LVGUAN-1','NOT SPECIFIED',(#1336));
#1338=PRODUCT_DEFINITION_FORMATION_WITH_SPECIFIED_SOURCE('10','LAST_VERSION',
#1337,.MADE.);
#1342=PRODUCT_CATEGORY('part','');
#1343=PRODUCT_RELATED_PRODUCT_CATEGORY('detail','',(#1337));
#1344=PRODUCT_CATEGORY_RELATIONSHIP('','',#1342,#1343);
#1345=SECURITY_CLASSIFICATION_LEVEL('unclassified');
#1346=SECURITY_CLASSIFICATION('','',#1345);
#1347=CC_DESIGN_SECURITY_CLASSIFICATION(#1346,(#1338));
#1348=APPROVAL_STATUS('approved');
#1349=APPROVAL(#1348,'');
#1350=CC_DESIGN_APPROVAL(#1349,(#1346,#1338,#1339));
#1351=CALENDAR_DATE(124,8,4);
#1352=COORDINATED_UNIVERSAL_TIME_OFFSET(8,0,.AHEAD.);
#1353=LOCAL_TIME(14,54,6.E0,#1352);
#1354=DATE_AND_TIME(#1351,#1353);
#1355=APPROVAL_DATE_TIME(#1354,#1349);
#1356=DATE_TIME_ROLE('creation_date');
#1357=CC_DESIGN_DATE_AND_TIME_ASSIGNMENT(#1354,#1356,(#1339));
#1358=DATE_TIME_ROLE('classification_date');
#1359=CC_DESIGN_DATE_AND_TIME_ASSIGNMENT(#1354,#1358,(#1346));
#1360=PERSON('UNSPECIFIED','UNSPECIFIED',$,$,$,$);
#1361=ORGANIZATION('UNSPECIFIED','UNSPECIFIED','UNSPECIFIED');
#1362=PERSON_AND_ORGANIZATION(#1360,#1361);
#1363=APPROVAL_ROLE('approver');
#1364=APPROVAL_PERSON_ORGANIZATION(#1362,#1349,#1363);
#1365=PERSON_AND_ORGANIZATION_ROLE('creator');
#1366=CC_DESIGN_PERSON_AND_ORGANIZATION_ASSIGNMENT(#1362,#1365,(#1338,#1339));
#1367=PERSON_AND_ORGANIZATION_ROLE('design_supplier');
#1368=CC_DESIGN_PERSON_AND_ORGANIZATION_ASSIGNMENT(#1362,#1367,(#1338));
#1369=PERSON_AND_ORGANIZATION_ROLE('classification_officer');
#1370=CC_DESIGN_PERSON_AND_ORGANIZATION_ASSIGNMENT(#1362,#1369,(#1346));
#1371=PERSON_AND_ORGANIZATION_ROLE('design_owner');
#1372=CC_DESIGN_PERSON_AND_ORGANIZATION_ASSIGNMENT(#1362,#1371,(#1337));
#42=CIRCLE('',#41,1.5E0);
#47=CIRCLE('',#46,1.5E0);
#52=CIRCLE('',#51,1.5E0);
#57=CIRCLE('',#56,1.5E0);
#62=CIRCLE('',#61,1.5E0);
#67=CIRCLE('',#66,1.5E0);
#76=CIRCLE('',#75,1.5E0);
#81=CIRCLE('',#80,1.5E0);
#86=CIRCLE('',#85,1.5E0);
#91=CIRCLE('',#90,1.5E0);
#96=CIRCLE('',#95,1.5E0);
#101=CIRCLE('',#100,1.5E0);
#106=CIRCLE('',#105,1.5E0);
#111=CIRCLE('',#110,1.5E0);
#120=CIRCLE('',#119,1.5E0);
#125=CIRCLE('',#124,1.5E0);
#130=CIRCLE('',#129,1.5E0);
#135=CIRCLE('',#134,1.5E0);
#140=CIRCLE('',#139,1.5E0);
#145=CIRCLE('',#144,1.5E0);
#154=CIRCLE('',#153,1.5E0);
#159=CIRCLE('',#158,1.5E0);
#164=CIRCLE('',#163,1.5E0);
#169=CIRCLE('',#168,1.5E0);
#174=CIRCLE('',#173,1.5E0);
#179=CIRCLE('',#178,1.5E0);
#184=CIRCLE('',#183,1.5E0);
#189=CIRCLE('',#188,1.5E0);
#230=CIRCLE('',#229,1.5E0);
#235=CIRCLE('',#234,1.5E0);
#240=CIRCLE('',#239,1.5E0);
#245=CIRCLE('',#244,1.5E0);
#250=CIRCLE('',#249,1.5E0);
#255=CIRCLE('',#254,1.5E0);
#260=CIRCLE('',#259,1.5E0);
#265=CIRCLE('',#264,1.5E0);
#274=CIRCLE('',#273,1.5E0);
#279=CIRCLE('',#278,1.5E0);
#284=CIRCLE('',#283,1.5E0);
#289=CIRCLE('',#288,1.5E0);
#294=CIRCLE('',#293,1.5E0);
#299=CIRCLE('',#298,1.5E0);
#308=CIRCLE('',#307,1.5E0);
#313=CIRCLE('',#312,1.5E0);
#318=CIRCLE('',#317,1.5E0);
#323=CIRCLE('',#322,1.5E0);
#328=CIRCLE('',#327,1.5E0);
#333=CIRCLE('',#332,1.5E0);
#338=CIRCLE('',#337,1.5E0);
#343=CIRCLE('',#342,1.5E0);
#352=CIRCLE('',#351,1.5E0);
#357=CIRCLE('',#356,1.5E0);
#362=CIRCLE('',#361,1.5E0);
#367=CIRCLE('',#366,1.5E0);
#372=CIRCLE('',#371,1.5E0);
#377=CIRCLE('',#376,1.5E0);
#639=EDGE_CURVE('',#492,#493,#5,.T.);
#641=EDGE_CURVE('',#493,#495,#9,.T.);
#643=EDGE_CURVE('',#495,#497,#13,.T.);
#645=EDGE_CURVE('',#497,#492,#17,.T.);
#649=EDGE_CURVE('',#500,#501,#21,.T.);
#651=EDGE_CURVE('',#501,#503,#25,.T.);
#653=EDGE_CURVE('',#503,#505,#29,.T.);
#655=EDGE_CURVE('',#505,#500,#33,.T.);
#666=EDGE_CURVE('',#492,#508,#37,.T.);
#668=EDGE_CURVE('',#508,#509,#193,.T.);
#670=EDGE_CURVE('',#493,#509,#149,.T.);
#674=EDGE_CURVE('',#524,#525,#42,.T.);
#676=EDGE_CURVE('',#525,#524,#47,.T.);
#680=EDGE_CURVE('',#528,#529,#52,.T.);
#682=EDGE_CURVE('',#529,#528,#57,.T.);
#686=EDGE_CURVE('',#620,#621,#62,.T.);
#688=EDGE_CURVE('',#621,#620,#67,.T.);
#699=EDGE_CURVE('',#497,#513,#71,.T.);
#701=EDGE_CURVE('',#513,#508,#197,.T.);
#706=EDGE_CURVE('',#564,#565,#76,.T.);
#708=EDGE_CURVE('',#565,#564,#81,.T.);
#712=EDGE_CURVE('',#568,#569,#86,.T.);
#714=EDGE_CURVE('',#569,#568,#91,.T.);
#718=EDGE_CURVE('',#596,#597,#96,.T.);
#720=EDGE_CURVE('',#597,#596,#101,.T.);
#724=EDGE_CURVE('',#600,#601,#106,.T.);
#726=EDGE_CURVE('',#601,#600,#111,.T.);
#737=EDGE_CURVE('',#495,#511,#115,.T.);
#739=EDGE_CURVE('',#511,#513,#201,.T.);
#744=EDGE_CURVE('',#532,#533,#120,.T.);
#746=EDGE_CURVE('',#533,#532,#125,.T.);
#750=EDGE_CURVE('',#536,#537,#130,.T.);
#752=EDGE_CURVE('',#537,#536,#135,.T.);
#756=EDGE_CURVE('',#624,#625,#140,.T.);
#758=EDGE_CURVE('',#625,#624,#145,.T.);
#770=EDGE_CURVE('',#509,#511,#205,.T.);
#775=EDGE_CURVE('',#556,#557,#154,.T.);
#777=EDGE_CURVE('',#557,#556,#159,.T.);
#781=EDGE_CURVE('',#560,#561,#164,.T.);
#783=EDGE_CURVE('',#561,#560,#169,.T.);
#787=EDGE_CURVE('',#588,#589,#174,.T.);
#789=EDGE_CURVE('',#589,#588,#179,.T.);
#793=EDGE_CURVE('',#592,#593,#184,.T.);
#795=EDGE_CURVE('',#593,#592,#189,.T.);
#811=EDGE_CURVE('',#516,#517,#209,.T.);
#813=EDGE_CURVE('',#521,#516,#213,.T.);
#815=EDGE_CURVE('',#519,#521,#217,.T.);
#817=EDGE_CURVE('',#517,#519,#221,.T.);
#828=EDGE_CURVE('',#500,#516,#225,.T.);
#831=EDGE_CURVE('',#501,#517,#347,.T.);
#835=EDGE_CURVE('',#572,#573,#230,.T.);
#837=EDGE_CURVE('',#573,#572,#235,.T.);
#841=EDGE_CURVE('',#576,#577,#240,.T.);
#843=EDGE_CURVE('',#577,#576,#245,.T.);
#847=EDGE_CURVE('',#604,#605,#250,.T.);
#849=EDGE_CURVE('',#605,#604,#255,.T.);
#853=EDGE_CURVE('',#608,#609,#260,.T.);
#855=EDGE_CURVE('',#609,#608,#265,.T.);
#866=EDGE_CURVE('',#505,#521,#269,.T.);
#872=EDGE_CURVE('',#548,#549,#274,.T.);
#874=EDGE_CURVE('',#549,#548,#279,.T.);
#878=EDGE_CURVE('',#552,#553,#284,.T.);
#880=EDGE_CURVE('',#553,#552,#289,.T.);
#884=EDGE_CURVE('',#632,#633,#294,.T.);
#886=EDGE_CURVE('',#633,#632,#299,.T.);
#897=EDGE_CURVE('',#503,#519,#303,.T.);
#903=EDGE_CURVE('',#580,#581,#308,.T.);
#905=EDGE_CURVE('',#581,#580,#313,.T.);
#909=EDGE_CURVE('',#584,#585,#318,.T.);
#911=EDGE_CURVE('',#585,#584,#323,.T.);
#915=EDGE_CURVE('',#612,#613,#328,.T.);
#917=EDGE_CURVE('',#613,#612,#333,.T.);
#921=EDGE_CURVE('',#616,#617,#338,.T.);
#923=EDGE_CURVE('',#617,#616,#343,.T.);
#939=EDGE_CURVE('',#540,#541,#352,.T.);
#941=EDGE_CURVE('',#541,#540,#357,.T.);
#945=EDGE_CURVE('',#544,#545,#362,.T.);
#947=EDGE_CURVE('',#545,#544,#367,.T.);
#951=EDGE_CURVE('',#628,#629,#372,.T.);
#953=EDGE_CURVE('',#629,#628,#377,.T.);
#964=EDGE_CURVE('',#549,#525,#389,.T.);
#967=EDGE_CURVE('',#548,#524,#381,.T.);
#978=EDGE_CURVE('',#532,#540,#385,.T.);
#981=EDGE_CURVE('',#533,#541,#393,.T.);
#1016=EDGE_CURVE('',#553,#529,#405,.T.);
#1019=EDGE_CURVE('',#552,#528,#397,.T.);
#1030=EDGE_CURVE('',#536,#544,#401,.T.);
#1033=EDGE_CURVE('',#537,#545,#409,.T.);
#1068=EDGE_CURVE('',#633,#621,#421,.T.);
#1071=EDGE_CURVE('',#632,#620,#413,.T.);
#1082=EDGE_CURVE('',#624,#628,#417,.T.);
#1085=EDGE_CURVE('',#625,#629,#425,.T.);
#1120=EDGE_CURVE('',#581,#557,#437,.T.);
#1123=EDGE_CURVE('',#580,#556,#429,.T.);
#1134=EDGE_CURVE('',#564,#572,#433,.T.);
#1137=EDGE_CURVE('',#565,#573,#441,.T.);
#1172=EDGE_CURVE('',#585,#561,#453,.T.);
#1175=EDGE_CURVE('',#584,#560,#445,.T.);
#1186=EDGE_CURVE('',#568,#576,#449,.T.);
#1189=EDGE_CURVE('',#569,#577,#457,.T.);
#1224=EDGE_CURVE('',#613,#589,#469,.T.);
#1227=EDGE_CURVE('',#612,#588,#461,.T.);
#1238=EDGE_CURVE('',#596,#604,#465,.T.);
#1241=EDGE_CURVE('',#597,#605,#473,.T.);
#1276=EDGE_CURVE('',#617,#593,#485,.T.);
#1279=EDGE_CURVE('',#616,#592,#477,.T.);
#1290=EDGE_CURVE('',#600,#608,#481,.T.);
#1293=EDGE_CURVE('',#601,#609,#489,.T.);
#1322=CLOSED_SHELL('',(#659,#692,#730,#762,#799,#821,#859,#890,#927,#957,#971,
#985,#997,#1009,#1023,#1037,#1049,#1061,#1075,#1089,#1101,#1113,#1127,#1141,
#1153,#1165,#1179,#1193,#1205,#1217,#1231,#1245,#1257,#1269,#1283,#1297,#1309,
#1321));
#1323=MANIFOLD_SOLID_BREP('',#1322);
#1324=(LENGTH_UNIT()NAMED_UNIT(*)SI_UNIT(.MILLI.,.METRE.));
#1326=(NAMED_UNIT(*)PLANE_ANGLE_UNIT()SI_UNIT($,.RADIAN.));
#1329=(NAMED_UNIT(*)SI_UNIT($,.STERADIAN.)SOLID_ANGLE_UNIT());
#1332=ADVANCED_BREP_SHAPE_REPRESENTATION('',(#1323),#1331);
#1339=PRODUCT_DEFINITION('design','',#1338,#1335);
#1340=PRODUCT_DEFINITION_SHAPE('','SHAPE FOR LVGUAN-1.',#1339);
#1341=SHAPE_DEFINITION_REPRESENTATION(#1340,#1332);
ENDSEC;
END-ISO-10303-21;
