ISO-10303-21;
HEADER;
FILE_DESCRIPTION((''),'2;1');
FILE_NAME('LVGUAN-2','2024-04-08T20:18:45',('005'),(''),
'CREO PARAMETRIC BY PTC INC, 2020053','CREO PARAMETRIC BY PTC INC, 2020053','');
FILE_SCHEMA(('CONFIG_CONTROL_DESIGN'));
ENDSEC;
DATA;
#2=DIRECTION('',(0.E0,0.E0,-1.E0));
#3=VECTOR('',#2,2.E1);
#4=CARTESIAN_POINT('',(-6.55E1,-1.E1,1.E1));
#5=LINE('',#4,#3);
#6=DIRECTION('',(0.E0,1.E0,0.E0));
#7=VECTOR('',#6,2.E1);
#8=CARTESIAN_POINT('',(-6.55E1,-1.E1,-1.E1));
#9=LINE('',#8,#7);
#10=DIRECTION('',(0.E0,0.E0,1.E0));
#11=VECTOR('',#10,2.E1);
#12=CARTESIAN_POINT('',(-6.55E1,1.E1,-1.E1));
#13=LINE('',#12,#11);
#14=DIRECTION('',(0.E0,-1.E0,0.E0));
#15=VECTOR('',#14,2.E1);
#16=CARTESIAN_POINT('',(-6.55E1,1.E1,1.E1));
#17=LINE('',#16,#15);
#18=DIRECTION('',(0.E0,1.E0,0.E0));
#19=VECTOR('',#18,1.8E1);
#20=CARTESIAN_POINT('',(-6.55E1,-9.E0,9.E0));
#21=LINE('',#20,#19);
#22=DIRECTION('',(0.E0,0.E0,-1.E0));
#23=VECTOR('',#22,1.8E1);
#24=CARTESIAN_POINT('',(-6.55E1,9.E0,9.E0));
#25=LINE('',#24,#23);
#26=DIRECTION('',(0.E0,-1.E0,0.E0));
#27=VECTOR('',#26,1.8E1);
#28=CARTESIAN_POINT('',(-6.55E1,9.E0,-9.E0));
#29=LINE('',#28,#27);
#30=DIRECTION('',(0.E0,0.E0,1.E0));
#31=VECTOR('',#30,1.8E1);
#32=CARTESIAN_POINT('',(-6.55E1,-9.E0,-9.E0));
#33=LINE('',#32,#31);
#34=DIRECTION('',(1.E0,0.E0,0.E0));
#35=VECTOR('',#34,1.31E2);
#36=CARTESIAN_POINT('',(-6.55E1,-1.E1,1.E1));
#37=LINE('',#36,#35);
#38=CARTESIAN_POINT('',(0.E0,-1.E1,0.E0));
#39=DIRECTION('',(0.E0,1.E0,0.E0));
#40=DIRECTION('',(-1.E0,0.E0,0.E0));
#41=AXIS2_PLACEMENT_3D('',#38,#39,#40);
#43=CARTESIAN_POINT('',(0.E0,-1.E1,0.E0));
#44=DIRECTION('',(0.E0,1.E0,0.E0));
#45=DIRECTION('',(1.E0,0.E0,0.E0));
#46=AXIS2_PLACEMENT_3D('',#43,#44,#45);
#48=CARTESIAN_POINT('',(5.25E1,-1.E1,0.E0));
#49=DIRECTION('',(0.E0,1.E0,0.E0));
#50=DIRECTION('',(-1.E0,0.E0,0.E0));
#51=AXIS2_PLACEMENT_3D('',#48,#49,#50);
#53=CARTESIAN_POINT('',(5.25E1,-1.E1,0.E0));
#54=DIRECTION('',(0.E0,1.E0,0.E0));
#55=DIRECTION('',(1.E0,0.E0,0.E0));
#56=AXIS2_PLACEMENT_3D('',#53,#54,#55);
#58=CARTESIAN_POINT('',(-5.25E1,-1.E1,0.E0));
#59=DIRECTION('',(0.E0,1.E0,0.E0));
#60=DIRECTION('',(-1.E0,0.E0,0.E0));
#61=AXIS2_PLACEMENT_3D('',#58,#59,#60);
#63=CARTESIAN_POINT('',(-5.25E1,-1.E1,0.E0));
#64=DIRECTION('',(0.E0,1.E0,0.E0));
#65=DIRECTION('',(1.E0,0.E0,0.E0));
#66=AXIS2_PLACEMENT_3D('',#63,#64,#65);
#68=DIRECTION('',(1.E0,0.E0,0.E0));
#69=VECTOR('',#68,1.31E2);
#70=CARTESIAN_POINT('',(-6.55E1,1.E1,1.E1));
#71=LINE('',#70,#69);
#72=DIRECTION('',(1.E0,0.E0,0.E0));
#73=VECTOR('',#72,1.31E2);
#74=CARTESIAN_POINT('',(-6.55E1,1.E1,-1.E1));
#75=LINE('',#74,#73);
#76=CARTESIAN_POINT('',(0.E0,1.E1,0.E0));
#77=DIRECTION('',(0.E0,1.E0,0.E0));
#78=DIRECTION('',(-1.E0,0.E0,0.E0));
#79=AXIS2_PLACEMENT_3D('',#76,#77,#78);
#81=CARTESIAN_POINT('',(0.E0,1.E1,0.E0));
#82=DIRECTION('',(0.E0,1.E0,0.E0));
#83=DIRECTION('',(1.E0,0.E0,0.E0));
#84=AXIS2_PLACEMENT_3D('',#81,#82,#83);
#86=CARTESIAN_POINT('',(5.25E1,1.E1,0.E0));
#87=DIRECTION('',(0.E0,1.E0,0.E0));
#88=DIRECTION('',(-1.E0,0.E0,0.E0));
#89=AXIS2_PLACEMENT_3D('',#86,#87,#88);
#91=CARTESIAN_POINT('',(5.25E1,1.E1,0.E0));
#92=DIRECTION('',(0.E0,1.E0,0.E0));
#93=DIRECTION('',(1.E0,0.E0,0.E0));
#94=AXIS2_PLACEMENT_3D('',#91,#92,#93);
#96=CARTESIAN_POINT('',(-5.25E1,1.E1,0.E0));
#97=DIRECTION('',(0.E0,1.E0,0.E0));
#98=DIRECTION('',(-1.E0,0.E0,0.E0));
#99=AXIS2_PLACEMENT_3D('',#96,#97,#98);
#101=CARTESIAN_POINT('',(-5.25E1,1.E1,0.E0));
#102=DIRECTION('',(0.E0,1.E0,0.E0));
#103=DIRECTION('',(1.E0,0.E0,0.E0));
#104=AXIS2_PLACEMENT_3D('',#101,#102,#103);
#106=DIRECTION('',(1.E0,0.E0,0.E0));
#107=VECTOR('',#106,1.31E2);
#108=CARTESIAN_POINT('',(-6.55E1,-1.E1,-1.E1));
#109=LINE('',#108,#107);
#110=DIRECTION('',(0.E0,0.E0,-1.E0));
#111=VECTOR('',#110,2.E1);
#112=CARTESIAN_POINT('',(6.55E1,-1.E1,1.E1));
#113=LINE('',#112,#111);
#114=DIRECTION('',(0.E0,-1.E0,0.E0));
#115=VECTOR('',#114,2.E1);
#116=CARTESIAN_POINT('',(6.55E1,1.E1,1.E1));
#117=LINE('',#116,#115);
#118=DIRECTION('',(0.E0,0.E0,1.E0));
#119=VECTOR('',#118,2.E1);
#120=CARTESIAN_POINT('',(6.55E1,1.E1,-1.E1));
#121=LINE('',#120,#119);
#122=DIRECTION('',(0.E0,1.E0,0.E0));
#123=VECTOR('',#122,2.E1);
#124=CARTESIAN_POINT('',(6.55E1,-1.E1,-1.E1));
#125=LINE('',#124,#123);
#126=DIRECTION('',(0.E0,1.E0,0.E0));
#127=VECTOR('',#126,1.8E1);
#128=CARTESIAN_POINT('',(6.55E1,-9.E0,9.E0));
#129=LINE('',#128,#127);
#130=DIRECTION('',(0.E0,0.E0,1.E0));
#131=VECTOR('',#130,1.8E1);
#132=CARTESIAN_POINT('',(6.55E1,-9.E0,-9.E0));
#133=LINE('',#132,#131);
#134=DIRECTION('',(0.E0,-1.E0,0.E0));
#135=VECTOR('',#134,1.8E1);
#136=CARTESIAN_POINT('',(6.55E1,9.E0,-9.E0));
#137=LINE('',#136,#135);
#138=DIRECTION('',(0.E0,0.E0,-1.E0));
#139=VECTOR('',#138,1.8E1);
#140=CARTESIAN_POINT('',(6.55E1,9.E0,9.E0));
#141=LINE('',#140,#139);
#142=DIRECTION('',(1.E0,0.E0,0.E0));
#143=VECTOR('',#142,1.31E2);
#144=CARTESIAN_POINT('',(-6.55E1,-9.E0,9.E0));
#145=LINE('',#144,#143);
#146=DIRECTION('',(1.E0,0.E0,0.E0));
#147=VECTOR('',#146,1.31E2);
#148=CARTESIAN_POINT('',(-6.55E1,-9.E0,-9.E0));
#149=LINE('',#148,#147);
#150=CARTESIAN_POINT('',(0.E0,-9.E0,0.E0));
#151=DIRECTION('',(0.E0,1.E0,0.E0));
#152=DIRECTION('',(-1.E0,0.E0,0.E0));
#153=AXIS2_PLACEMENT_3D('',#150,#151,#152);
#155=CARTESIAN_POINT('',(0.E0,-9.E0,0.E0));
#156=DIRECTION('',(0.E0,1.E0,0.E0));
#157=DIRECTION('',(1.E0,0.E0,0.E0));
#158=AXIS2_PLACEMENT_3D('',#155,#156,#157);
#160=CARTESIAN_POINT('',(5.25E1,-9.E0,0.E0));
#161=DIRECTION('',(0.E0,1.E0,0.E0));
#162=DIRECTION('',(-1.E0,0.E0,0.E0));
#163=AXIS2_PLACEMENT_3D('',#160,#161,#162);
#165=CARTESIAN_POINT('',(5.25E1,-9.E0,0.E0));
#166=DIRECTION('',(0.E0,1.E0,0.E0));
#167=DIRECTION('',(1.E0,0.E0,0.E0));
#168=AXIS2_PLACEMENT_3D('',#165,#166,#167);
#170=CARTESIAN_POINT('',(-5.25E1,-9.E0,0.E0));
#171=DIRECTION('',(0.E0,1.E0,0.E0));
#172=DIRECTION('',(-1.E0,0.E0,0.E0));
#173=AXIS2_PLACEMENT_3D('',#170,#171,#172);
#175=CARTESIAN_POINT('',(-5.25E1,-9.E0,0.E0));
#176=DIRECTION('',(0.E0,1.E0,0.E0));
#177=DIRECTION('',(1.E0,0.E0,0.E0));
#178=AXIS2_PLACEMENT_3D('',#175,#176,#177);
#180=DIRECTION('',(1.E0,0.E0,0.E0));
#181=VECTOR('',#180,1.31E2);
#182=CARTESIAN_POINT('',(-6.55E1,9.E0,-9.E0));
#183=LINE('',#182,#181);
#184=DIRECTION('',(1.E0,0.E0,0.E0));
#185=VECTOR('',#184,1.31E2);
#186=CARTESIAN_POINT('',(-6.55E1,9.E0,9.E0));
#187=LINE('',#186,#185);
#188=CARTESIAN_POINT('',(0.E0,9.E0,0.E0));
#189=DIRECTION('',(0.E0,1.E0,0.E0));
#190=DIRECTION('',(-1.E0,0.E0,0.E0));
#191=AXIS2_PLACEMENT_3D('',#188,#189,#190);
#193=CARTESIAN_POINT('',(0.E0,9.E0,0.E0));
#194=DIRECTION('',(0.E0,1.E0,0.E0));
#195=DIRECTION('',(1.E0,0.E0,0.E0));
#196=AXIS2_PLACEMENT_3D('',#193,#194,#195);
#198=CARTESIAN_POINT('',(5.25E1,9.E0,0.E0));
#199=DIRECTION('',(0.E0,1.E0,0.E0));
#200=DIRECTION('',(-1.E0,0.E0,0.E0));
#201=AXIS2_PLACEMENT_3D('',#198,#199,#200);
#203=CARTESIAN_POINT('',(5.25E1,9.E0,0.E0));
#204=DIRECTION('',(0.E0,1.E0,0.E0));
#205=DIRECTION('',(1.E0,0.E0,0.E0));
#206=AXIS2_PLACEMENT_3D('',#203,#204,#205);
#208=CARTESIAN_POINT('',(-5.25E1,9.E0,0.E0));
#209=DIRECTION('',(0.E0,1.E0,0.E0));
#210=DIRECTION('',(-1.E0,0.E0,0.E0));
#211=AXIS2_PLACEMENT_3D('',#208,#209,#210);
#213=CARTESIAN_POINT('',(-5.25E1,9.E0,0.E0));
#214=DIRECTION('',(0.E0,1.E0,0.E0));
#215=DIRECTION('',(1.E0,0.E0,0.E0));
#216=AXIS2_PLACEMENT_3D('',#213,#214,#215);
#218=DIRECTION('',(0.E0,-1.E0,0.E0));
#219=VECTOR('',#218,1.E0);
#220=CARTESIAN_POINT('',(-1.5E0,-9.E0,0.E0));
#221=LINE('',#220,#219);
#222=DIRECTION('',(0.E0,-1.E0,0.E0));
#223=VECTOR('',#222,1.E0);
#224=CARTESIAN_POINT('',(-1.5E0,1.E1,0.E0));
#225=LINE('',#224,#223);
#226=DIRECTION('',(0.E0,-1.E0,0.E0));
#227=VECTOR('',#226,1.E0);
#228=CARTESIAN_POINT('',(1.5E0,-9.E0,0.E0));
#229=LINE('',#228,#227);
#230=DIRECTION('',(0.E0,-1.E0,0.E0));
#231=VECTOR('',#230,1.E0);
#232=CARTESIAN_POINT('',(1.5E0,1.E1,0.E0));
#233=LINE('',#232,#231);
#234=DIRECTION('',(0.E0,-1.E0,0.E0));
#235=VECTOR('',#234,1.E0);
#236=CARTESIAN_POINT('',(5.1E1,-9.E0,0.E0));
#237=LINE('',#236,#235);
#238=DIRECTION('',(0.E0,-1.E0,0.E0));
#239=VECTOR('',#238,1.E0);
#240=CARTESIAN_POINT('',(5.1E1,1.E1,0.E0));
#241=LINE('',#240,#239);
#242=DIRECTION('',(0.E0,-1.E0,0.E0));
#243=VECTOR('',#242,1.E0);
#244=CARTESIAN_POINT('',(5.4E1,-9.E0,0.E0));
#245=LINE('',#244,#243);
#246=DIRECTION('',(0.E0,-1.E0,0.E0));
#247=VECTOR('',#246,1.E0);
#248=CARTESIAN_POINT('',(5.4E1,1.E1,0.E0));
#249=LINE('',#248,#247);
#250=DIRECTION('',(0.E0,-1.E0,0.E0));
#251=VECTOR('',#250,1.E0);
#252=CARTESIAN_POINT('',(-5.4E1,-9.E0,0.E0));
#253=LINE('',#252,#251);
#254=DIRECTION('',(0.E0,-1.E0,0.E0));
#255=VECTOR('',#254,1.E0);
#256=CARTESIAN_POINT('',(-5.4E1,1.E1,0.E0));
#257=LINE('',#256,#255);
#258=DIRECTION('',(0.E0,-1.E0,0.E0));
#259=VECTOR('',#258,1.E0);
#260=CARTESIAN_POINT('',(-5.1E1,-9.E0,0.E0));
#261=LINE('',#260,#259);
#262=DIRECTION('',(0.E0,-1.E0,0.E0));
#263=VECTOR('',#262,1.E0);
#264=CARTESIAN_POINT('',(-5.1E1,1.E1,0.E0));
#265=LINE('',#264,#263);
#266=CARTESIAN_POINT('',(-6.55E1,-1.E1,1.E1));
#267=CARTESIAN_POINT('',(-6.55E1,-1.E1,-1.E1));
#268=VERTEX_POINT('',#266);
#269=VERTEX_POINT('',#267);
#270=CARTESIAN_POINT('',(-6.55E1,1.E1,-1.E1));
#271=VERTEX_POINT('',#270);
#272=CARTESIAN_POINT('',(-6.55E1,1.E1,1.E1));
#273=VERTEX_POINT('',#272);
#274=CARTESIAN_POINT('',(-6.55E1,-9.E0,9.E0));
#275=CARTESIAN_POINT('',(-6.55E1,9.E0,9.E0));
#276=VERTEX_POINT('',#274);
#277=VERTEX_POINT('',#275);
#278=CARTESIAN_POINT('',(-6.55E1,9.E0,-9.E0));
#279=VERTEX_POINT('',#278);
#280=CARTESIAN_POINT('',(-6.55E1,-9.E0,-9.E0));
#281=VERTEX_POINT('',#280);
#282=CARTESIAN_POINT('',(6.55E1,-1.E1,1.E1));
#283=CARTESIAN_POINT('',(6.55E1,-1.E1,-1.E1));
#284=VERTEX_POINT('',#282);
#285=VERTEX_POINT('',#283);
#286=CARTESIAN_POINT('',(6.55E1,1.E1,-1.E1));
#287=VERTEX_POINT('',#286);
#288=CARTESIAN_POINT('',(6.55E1,1.E1,1.E1));
#289=VERTEX_POINT('',#288);
#290=CARTESIAN_POINT('',(6.55E1,-9.E0,9.E0));
#291=CARTESIAN_POINT('',(6.55E1,9.E0,9.E0));
#292=VERTEX_POINT('',#290);
#293=VERTEX_POINT('',#291);
#294=CARTESIAN_POINT('',(6.55E1,9.E0,-9.E0));
#295=VERTEX_POINT('',#294);
#296=CARTESIAN_POINT('',(6.55E1,-9.E0,-9.E0));
#297=VERTEX_POINT('',#296);
#298=CARTESIAN_POINT('',(-1.5E0,-1.E1,0.E0));
#299=CARTESIAN_POINT('',(1.5E0,-1.E1,0.E0));
#300=VERTEX_POINT('',#298);
#301=VERTEX_POINT('',#299);
#302=CARTESIAN_POINT('',(5.1E1,-1.E1,0.E0));
#303=CARTESIAN_POINT('',(5.4E1,-1.E1,0.E0));
#304=VERTEX_POINT('',#302);
#305=VERTEX_POINT('',#303);
#306=CARTESIAN_POINT('',(-5.4E1,-1.E1,0.E0));
#307=CARTESIAN_POINT('',(-5.1E1,-1.E1,0.E0));
#308=VERTEX_POINT('',#306);
#309=VERTEX_POINT('',#307);
#310=CARTESIAN_POINT('',(-1.5E0,1.E1,0.E0));
#311=CARTESIAN_POINT('',(1.5E0,1.E1,0.E0));
#312=VERTEX_POINT('',#310);
#313=VERTEX_POINT('',#311);
#314=CARTESIAN_POINT('',(5.1E1,1.E1,0.E0));
#315=CARTESIAN_POINT('',(5.4E1,1.E1,0.E0));
#316=VERTEX_POINT('',#314);
#317=VERTEX_POINT('',#315);
#318=CARTESIAN_POINT('',(-5.4E1,1.E1,0.E0));
#319=CARTESIAN_POINT('',(-5.1E1,1.E1,0.E0));
#320=VERTEX_POINT('',#318);
#321=VERTEX_POINT('',#319);
#322=CARTESIAN_POINT('',(-1.5E0,9.E0,0.E0));
#323=CARTESIAN_POINT('',(1.5E0,9.E0,0.E0));
#324=VERTEX_POINT('',#322);
#325=VERTEX_POINT('',#323);
#326=CARTESIAN_POINT('',(5.1E1,9.E0,0.E0));
#327=CARTESIAN_POINT('',(5.4E1,9.E0,0.E0));
#328=VERTEX_POINT('',#326);
#329=VERTEX_POINT('',#327);
#330=CARTESIAN_POINT('',(-5.4E1,9.E0,0.E0));
#331=CARTESIAN_POINT('',(-5.1E1,9.E0,0.E0));
#332=VERTEX_POINT('',#330);
#333=VERTEX_POINT('',#331);
#334=CARTESIAN_POINT('',(-1.5E0,-9.E0,0.E0));
#335=CARTESIAN_POINT('',(1.5E0,-9.E0,0.E0));
#336=VERTEX_POINT('',#334);
#337=VERTEX_POINT('',#335);
#338=CARTESIAN_POINT('',(5.1E1,-9.E0,0.E0));
#339=CARTESIAN_POINT('',(5.4E1,-9.E0,0.E0));
#340=VERTEX_POINT('',#338);
#341=VERTEX_POINT('',#339);
#342=CARTESIAN_POINT('',(-5.4E1,-9.E0,0.E0));
#343=CARTESIAN_POINT('',(-5.1E1,-9.E0,0.E0));
#344=VERTEX_POINT('',#342);
#345=VERTEX_POINT('',#343);
#346=CARTESIAN_POINT('',(-6.55E1,0.E0,0.E0));
#347=DIRECTION('',(1.E0,0.E0,0.E0));
#348=DIRECTION('',(0.E0,1.E0,0.E0));
#349=AXIS2_PLACEMENT_3D('',#346,#347,#348);
#350=PLANE('',#349);
#352=ORIENTED_EDGE('',*,*,#351,.T.);
#354=ORIENTED_EDGE('',*,*,#353,.T.);
#356=ORIENTED_EDGE('',*,*,#355,.T.);
#358=ORIENTED_EDGE('',*,*,#357,.T.);
#359=EDGE_LOOP('',(#352,#354,#356,#358));
#360=FACE_OUTER_BOUND('',#359,.F.);
#362=ORIENTED_EDGE('',*,*,#361,.T.);
#364=ORIENTED_EDGE('',*,*,#363,.T.);
#366=ORIENTED_EDGE('',*,*,#365,.T.);
#368=ORIENTED_EDGE('',*,*,#367,.T.);
#369=EDGE_LOOP('',(#362,#364,#366,#368));
#370=FACE_BOUND('',#369,.F.);
#371=ADVANCED_FACE('',(#360,#370),#350,.F.);
#372=CARTESIAN_POINT('',(-6.55E1,-1.E1,1.E1));
#373=DIRECTION('',(0.E0,-1.E0,0.E0));
#374=DIRECTION('',(0.E0,0.E0,-1.E0));
#375=AXIS2_PLACEMENT_3D('',#372,#373,#374);
#376=PLANE('',#375);
#377=ORIENTED_EDGE('',*,*,#351,.F.);
#379=ORIENTED_EDGE('',*,*,#378,.T.);
#381=ORIENTED_EDGE('',*,*,#380,.T.);
#383=ORIENTED_EDGE('',*,*,#382,.F.);
#384=EDGE_LOOP('',(#377,#379,#381,#383));
#385=FACE_OUTER_BOUND('',#384,.F.);
#387=ORIENTED_EDGE('',*,*,#386,.F.);
#389=ORIENTED_EDGE('',*,*,#388,.F.);
#390=EDGE_LOOP('',(#387,#389));
#391=FACE_BOUND('',#390,.F.);
#393=ORIENTED_EDGE('',*,*,#392,.F.);
#395=ORIENTED_EDGE('',*,*,#394,.F.);
#396=EDGE_LOOP('',(#393,#395));
#397=FACE_BOUND('',#396,.F.);
#399=ORIENTED_EDGE('',*,*,#398,.F.);
#401=ORIENTED_EDGE('',*,*,#400,.F.);
#402=EDGE_LOOP('',(#399,#401));
#403=FACE_BOUND('',#402,.F.);
#404=ADVANCED_FACE('',(#385,#391,#397,#403),#376,.T.);
#405=CARTESIAN_POINT('',(-6.55E1,1.E1,1.E1));
#406=DIRECTION('',(0.E0,0.E0,1.E0));
#407=DIRECTION('',(0.E0,-1.E0,0.E0));
#408=AXIS2_PLACEMENT_3D('',#405,#406,#407);
#409=PLANE('',#408);
#410=ORIENTED_EDGE('',*,*,#357,.F.);
#412=ORIENTED_EDGE('',*,*,#411,.T.);
#414=ORIENTED_EDGE('',*,*,#413,.T.);
#415=ORIENTED_EDGE('',*,*,#378,.F.);
#416=EDGE_LOOP('',(#410,#412,#414,#415));
#417=FACE_OUTER_BOUND('',#416,.F.);
#418=ADVANCED_FACE('',(#417),#409,.T.);
#419=CARTESIAN_POINT('',(-6.55E1,1.E1,-1.E1));
#420=DIRECTION('',(0.E0,1.E0,0.E0));
#421=DIRECTION('',(0.E0,0.E0,1.E0));
#422=AXIS2_PLACEMENT_3D('',#419,#420,#421);
#423=PLANE('',#422);
#424=ORIENTED_EDGE('',*,*,#355,.F.);
#426=ORIENTED_EDGE('',*,*,#425,.T.);
#428=ORIENTED_EDGE('',*,*,#427,.T.);
#429=ORIENTED_EDGE('',*,*,#411,.F.);
#430=EDGE_LOOP('',(#424,#426,#428,#429));
#431=FACE_OUTER_BOUND('',#430,.F.);
#433=ORIENTED_EDGE('',*,*,#432,.T.);
#435=ORIENTED_EDGE('',*,*,#434,.T.);
#436=EDGE_LOOP('',(#433,#435));
#437=FACE_BOUND('',#436,.F.);
#439=ORIENTED_EDGE('',*,*,#438,.T.);
#441=ORIENTED_EDGE('',*,*,#440,.T.);
#442=EDGE_LOOP('',(#439,#441));
#443=FACE_BOUND('',#442,.F.);
#445=ORIENTED_EDGE('',*,*,#444,.T.);
#447=ORIENTED_EDGE('',*,*,#446,.T.);
#448=EDGE_LOOP('',(#445,#447));
#449=FACE_BOUND('',#448,.F.);
#450=ADVANCED_FACE('',(#431,#437,#443,#449),#423,.T.);
#451=CARTESIAN_POINT('',(-6.55E1,-1.E1,-1.E1));
#452=DIRECTION('',(0.E0,0.E0,-1.E0));
#453=DIRECTION('',(0.E0,1.E0,0.E0));
#454=AXIS2_PLACEMENT_3D('',#451,#452,#453);
#455=PLANE('',#454);
#456=ORIENTED_EDGE('',*,*,#353,.F.);
#457=ORIENTED_EDGE('',*,*,#382,.T.);
#459=ORIENTED_EDGE('',*,*,#458,.T.);
#460=ORIENTED_EDGE('',*,*,#425,.F.);
#461=EDGE_LOOP('',(#456,#457,#459,#460));
#462=FACE_OUTER_BOUND('',#461,.F.);
#463=ADVANCED_FACE('',(#462),#455,.T.);
#464=CARTESIAN_POINT('',(6.55E1,0.E0,0.E0));
#465=DIRECTION('',(1.E0,0.E0,0.E0));
#466=DIRECTION('',(0.E0,1.E0,0.E0));
#467=AXIS2_PLACEMENT_3D('',#464,#465,#466);
#468=PLANE('',#467);
#469=ORIENTED_EDGE('',*,*,#380,.F.);
#470=ORIENTED_EDGE('',*,*,#413,.F.);
#471=ORIENTED_EDGE('',*,*,#427,.F.);
#472=ORIENTED_EDGE('',*,*,#458,.F.);
#473=EDGE_LOOP('',(#469,#470,#471,#472));
#474=FACE_OUTER_BOUND('',#473,.F.);
#476=ORIENTED_EDGE('',*,*,#475,.F.);
#478=ORIENTED_EDGE('',*,*,#477,.F.);
#480=ORIENTED_EDGE('',*,*,#479,.F.);
#482=ORIENTED_EDGE('',*,*,#481,.F.);
#483=EDGE_LOOP('',(#476,#478,#480,#482));
#484=FACE_BOUND('',#483,.F.);
#485=ADVANCED_FACE('',(#474,#484),#468,.T.);
#486=CARTESIAN_POINT('',(-6.55E1,-9.E0,9.E0));
#487=DIRECTION('',(0.E0,0.E0,-1.E0));
#488=DIRECTION('',(0.E0,1.E0,0.E0));
#489=AXIS2_PLACEMENT_3D('',#486,#487,#488);
#490=PLANE('',#489);
#491=ORIENTED_EDGE('',*,*,#361,.F.);
#493=ORIENTED_EDGE('',*,*,#492,.T.);
#494=ORIENTED_EDGE('',*,*,#475,.T.);
#496=ORIENTED_EDGE('',*,*,#495,.F.);
#497=EDGE_LOOP('',(#491,#493,#494,#496));
#498=FACE_OUTER_BOUND('',#497,.F.);
#499=ADVANCED_FACE('',(#498),#490,.T.);
#500=CARTESIAN_POINT('',(-6.55E1,-9.E0,-9.E0));
#501=DIRECTION('',(0.E0,1.E0,0.E0));
#502=DIRECTION('',(0.E0,0.E0,1.E0));
#503=AXIS2_PLACEMENT_3D('',#500,#501,#502);
#504=PLANE('',#503);
#505=ORIENTED_EDGE('',*,*,#367,.F.);
#507=ORIENTED_EDGE('',*,*,#506,.T.);
#508=ORIENTED_EDGE('',*,*,#477,.T.);
#509=ORIENTED_EDGE('',*,*,#492,.F.);
#510=EDGE_LOOP('',(#505,#507,#508,#509));
#511=FACE_OUTER_BOUND('',#510,.F.);
#513=ORIENTED_EDGE('',*,*,#512,.T.);
#515=ORIENTED_EDGE('',*,*,#514,.T.);
#516=EDGE_LOOP('',(#513,#515));
#517=FACE_BOUND('',#516,.F.);
#519=ORIENTED_EDGE('',*,*,#518,.T.);
#521=ORIENTED_EDGE('',*,*,#520,.T.);
#522=EDGE_LOOP('',(#519,#521));
#523=FACE_BOUND('',#522,.F.);
#525=ORIENTED_EDGE('',*,*,#524,.T.);
#527=ORIENTED_EDGE('',*,*,#526,.T.);
#528=EDGE_LOOP('',(#525,#527));
#529=FACE_BOUND('',#528,.F.);
#530=ADVANCED_FACE('',(#511,#517,#523,#529),#504,.T.);
#531=CARTESIAN_POINT('',(-6.55E1,9.E0,-9.E0));
#532=DIRECTION('',(0.E0,0.E0,1.E0));
#533=DIRECTION('',(0.E0,-1.E0,0.E0));
#534=AXIS2_PLACEMENT_3D('',#531,#532,#533);
#535=PLANE('',#534);
#536=ORIENTED_EDGE('',*,*,#365,.F.);
#538=ORIENTED_EDGE('',*,*,#537,.T.);
#539=ORIENTED_EDGE('',*,*,#479,.T.);
#540=ORIENTED_EDGE('',*,*,#506,.F.);
#541=EDGE_LOOP('',(#536,#538,#539,#540));
#542=FACE_OUTER_BOUND('',#541,.F.);
#543=ADVANCED_FACE('',(#542),#535,.T.);
#544=CARTESIAN_POINT('',(-6.55E1,9.E0,9.E0));
#545=DIRECTION('',(0.E0,-1.E0,0.E0));
#546=DIRECTION('',(0.E0,0.E0,-1.E0));
#547=AXIS2_PLACEMENT_3D('',#544,#545,#546);
#548=PLANE('',#547);
#549=ORIENTED_EDGE('',*,*,#363,.F.);
#550=ORIENTED_EDGE('',*,*,#495,.T.);
#551=ORIENTED_EDGE('',*,*,#481,.T.);
#552=ORIENTED_EDGE('',*,*,#537,.F.);
#553=EDGE_LOOP('',(#549,#550,#551,#552));
#554=FACE_OUTER_BOUND('',#553,.F.);
#556=ORIENTED_EDGE('',*,*,#555,.F.);
#558=ORIENTED_EDGE('',*,*,#557,.F.);
#559=EDGE_LOOP('',(#556,#558));
#560=FACE_BOUND('',#559,.F.);
#562=ORIENTED_EDGE('',*,*,#561,.F.);
#564=ORIENTED_EDGE('',*,*,#563,.F.);
#565=EDGE_LOOP('',(#562,#564));
#566=FACE_BOUND('',#565,.F.);
#568=ORIENTED_EDGE('',*,*,#567,.F.);
#570=ORIENTED_EDGE('',*,*,#569,.F.);
#571=EDGE_LOOP('',(#568,#570));
#572=FACE_BOUND('',#571,.F.);
#573=ADVANCED_FACE('',(#554,#560,#566,#572),#548,.T.);
#574=CARTESIAN_POINT('',(0.E0,1.E1,0.E0));
#575=DIRECTION('',(0.E0,1.E0,0.E0));
#576=DIRECTION('',(-1.E0,0.E0,0.E0));
#577=AXIS2_PLACEMENT_3D('',#574,#575,#576);
#578=CYLINDRICAL_SURFACE('',#577,1.5E0);
#579=ORIENTED_EDGE('',*,*,#386,.T.);
#581=ORIENTED_EDGE('',*,*,#580,.F.);
#582=ORIENTED_EDGE('',*,*,#512,.F.);
#584=ORIENTED_EDGE('',*,*,#583,.T.);
#585=EDGE_LOOP('',(#579,#581,#582,#584));
#586=FACE_OUTER_BOUND('',#585,.F.);
#587=ADVANCED_FACE('',(#586),#578,.F.);
#588=CARTESIAN_POINT('',(0.E0,1.E1,0.E0));
#589=DIRECTION('',(0.E0,1.E0,0.E0));
#590=DIRECTION('',(-1.E0,0.E0,0.E0));
#591=AXIS2_PLACEMENT_3D('',#588,#589,#590);
#592=CYLINDRICAL_SURFACE('',#591,1.5E0);
#593=ORIENTED_EDGE('',*,*,#432,.F.);
#595=ORIENTED_EDGE('',*,*,#594,.T.);
#596=ORIENTED_EDGE('',*,*,#555,.T.);
#598=ORIENTED_EDGE('',*,*,#597,.F.);
#599=EDGE_LOOP('',(#593,#595,#596,#598));
#600=FACE_OUTER_BOUND('',#599,.F.);
#601=ADVANCED_FACE('',(#600),#592,.F.);
#602=CARTESIAN_POINT('',(0.E0,1.E1,0.E0));
#603=DIRECTION('',(0.E0,1.E0,0.E0));
#604=DIRECTION('',(-1.E0,0.E0,0.E0));
#605=AXIS2_PLACEMENT_3D('',#602,#603,#604);
#606=CYLINDRICAL_SURFACE('',#605,1.5E0);
#607=ORIENTED_EDGE('',*,*,#388,.T.);
#608=ORIENTED_EDGE('',*,*,#583,.F.);
#609=ORIENTED_EDGE('',*,*,#514,.F.);
#610=ORIENTED_EDGE('',*,*,#580,.T.);
#611=EDGE_LOOP('',(#607,#608,#609,#610));
#612=FACE_OUTER_BOUND('',#611,.F.);
#613=ADVANCED_FACE('',(#612),#606,.F.);
#614=CARTESIAN_POINT('',(0.E0,1.E1,0.E0));
#615=DIRECTION('',(0.E0,1.E0,0.E0));
#616=DIRECTION('',(-1.E0,0.E0,0.E0));
#617=AXIS2_PLACEMENT_3D('',#614,#615,#616);
#618=CYLINDRICAL_SURFACE('',#617,1.5E0);
#619=ORIENTED_EDGE('',*,*,#434,.F.);
#620=ORIENTED_EDGE('',*,*,#597,.T.);
#621=ORIENTED_EDGE('',*,*,#557,.T.);
#622=ORIENTED_EDGE('',*,*,#594,.F.);
#623=EDGE_LOOP('',(#619,#620,#621,#622));
#624=FACE_OUTER_BOUND('',#623,.F.);
#625=ADVANCED_FACE('',(#624),#618,.F.);
#626=CARTESIAN_POINT('',(5.25E1,1.E1,0.E0));
#627=DIRECTION('',(0.E0,1.E0,0.E0));
#628=DIRECTION('',(-1.E0,0.E0,0.E0));
#629=AXIS2_PLACEMENT_3D('',#626,#627,#628);
#630=CYLINDRICAL_SURFACE('',#629,1.5E0);
#631=ORIENTED_EDGE('',*,*,#392,.T.);
#633=ORIENTED_EDGE('',*,*,#632,.F.);
#634=ORIENTED_EDGE('',*,*,#518,.F.);
#636=ORIENTED_EDGE('',*,*,#635,.T.);
#637=EDGE_LOOP('',(#631,#633,#634,#636));
#638=FACE_OUTER_BOUND('',#637,.F.);
#639=ADVANCED_FACE('',(#638),#630,.F.);
#640=CARTESIAN_POINT('',(5.25E1,1.E1,0.E0));
#641=DIRECTION('',(0.E0,1.E0,0.E0));
#642=DIRECTION('',(-1.E0,0.E0,0.E0));
#643=AXIS2_PLACEMENT_3D('',#640,#641,#642);
#644=CYLINDRICAL_SURFACE('',#643,1.5E0);
#645=ORIENTED_EDGE('',*,*,#438,.F.);
#647=ORIENTED_EDGE('',*,*,#646,.T.);
#648=ORIENTED_EDGE('',*,*,#561,.T.);
#650=ORIENTED_EDGE('',*,*,#649,.F.);
#651=EDGE_LOOP('',(#645,#647,#648,#650));
#652=FACE_OUTER_BOUND('',#651,.F.);
#653=ADVANCED_FACE('',(#652),#644,.F.);
#654=CARTESIAN_POINT('',(5.25E1,1.E1,0.E0));
#655=DIRECTION('',(0.E0,1.E0,0.E0));
#656=DIRECTION('',(-1.E0,0.E0,0.E0));
#657=AXIS2_PLACEMENT_3D('',#654,#655,#656);
#658=CYLINDRICAL_SURFACE('',#657,1.5E0);
#659=ORIENTED_EDGE('',*,*,#394,.T.);
#660=ORIENTED_EDGE('',*,*,#635,.F.);
#661=ORIENTED_EDGE('',*,*,#520,.F.);
#662=ORIENTED_EDGE('',*,*,#632,.T.);
#663=EDGE_LOOP('',(#659,#660,#661,#662));
#664=FACE_OUTER_BOUND('',#663,.F.);
#665=ADVANCED_FACE('',(#664),#658,.F.);
#666=CARTESIAN_POINT('',(5.25E1,1.E1,0.E0));
#667=DIRECTION('',(0.E0,1.E0,0.E0));
#668=DIRECTION('',(-1.E0,0.E0,0.E0));
#669=AXIS2_PLACEMENT_3D('',#666,#667,#668);
#670=CYLINDRICAL_SURFACE('',#669,1.5E0);
#671=ORIENTED_EDGE('',*,*,#440,.F.);
#672=ORIENTED_EDGE('',*,*,#649,.T.);
#673=ORIENTED_EDGE('',*,*,#563,.T.);
#674=ORIENTED_EDGE('',*,*,#646,.F.);
#675=EDGE_LOOP('',(#671,#672,#673,#674));
#676=FACE_OUTER_BOUND('',#675,.F.);
#677=ADVANCED_FACE('',(#676),#670,.F.);
#678=CARTESIAN_POINT('',(-5.25E1,1.E1,0.E0));
#679=DIRECTION('',(0.E0,1.E0,0.E0));
#680=DIRECTION('',(-1.E0,0.E0,0.E0));
#681=AXIS2_PLACEMENT_3D('',#678,#679,#680);
#682=CYLINDRICAL_SURFACE('',#681,1.5E0);
#683=ORIENTED_EDGE('',*,*,#398,.T.);
#685=ORIENTED_EDGE('',*,*,#684,.F.);
#686=ORIENTED_EDGE('',*,*,#524,.F.);
#688=ORIENTED_EDGE('',*,*,#687,.T.);
#689=EDGE_LOOP('',(#683,#685,#686,#688));
#690=FACE_OUTER_BOUND('',#689,.F.);
#691=ADVANCED_FACE('',(#690),#682,.F.);
#692=CARTESIAN_POINT('',(-5.25E1,1.E1,0.E0));
#693=DIRECTION('',(0.E0,1.E0,0.E0));
#694=DIRECTION('',(-1.E0,0.E0,0.E0));
#695=AXIS2_PLACEMENT_3D('',#692,#693,#694);
#696=CYLINDRICAL_SURFACE('',#695,1.5E0);
#697=ORIENTED_EDGE('',*,*,#444,.F.);
#699=ORIENTED_EDGE('',*,*,#698,.T.);
#700=ORIENTED_EDGE('',*,*,#567,.T.);
#702=ORIENTED_EDGE('',*,*,#701,.F.);
#703=EDGE_LOOP('',(#697,#699,#700,#702));
#704=FACE_OUTER_BOUND('',#703,.F.);
#705=ADVANCED_FACE('',(#704),#696,.F.);
#706=CARTESIAN_POINT('',(-5.25E1,1.E1,0.E0));
#707=DIRECTION('',(0.E0,1.E0,0.E0));
#708=DIRECTION('',(-1.E0,0.E0,0.E0));
#709=AXIS2_PLACEMENT_3D('',#706,#707,#708);
#710=CYLINDRICAL_SURFACE('',#709,1.5E0);
#711=ORIENTED_EDGE('',*,*,#400,.T.);
#712=ORIENTED_EDGE('',*,*,#687,.F.);
#713=ORIENTED_EDGE('',*,*,#526,.F.);
#714=ORIENTED_EDGE('',*,*,#684,.T.);
#715=EDGE_LOOP('',(#711,#712,#713,#714));
#716=FACE_OUTER_BOUND('',#715,.F.);
#717=ADVANCED_FACE('',(#716),#710,.F.);
#718=CARTESIAN_POINT('',(-5.25E1,1.E1,0.E0));
#719=DIRECTION('',(0.E0,1.E0,0.E0));
#720=DIRECTION('',(-1.E0,0.E0,0.E0));
#721=AXIS2_PLACEMENT_3D('',#718,#719,#720);
#722=CYLINDRICAL_SURFACE('',#721,1.5E0);
#723=ORIENTED_EDGE('',*,*,#446,.F.);
#724=ORIENTED_EDGE('',*,*,#701,.T.);
#725=ORIENTED_EDGE('',*,*,#569,.T.);
#726=ORIENTED_EDGE('',*,*,#698,.F.);
#727=EDGE_LOOP('',(#723,#724,#725,#726));
#728=FACE_OUTER_BOUND('',#727,.F.);
#729=ADVANCED_FACE('',(#728),#722,.F.);
#733=DIMENSIONAL_EXPONENTS(0.E0,0.E0,0.E0,0.E0,0.E0,0.E0,0.E0);
#735=PLANE_ANGLE_MEASURE_WITH_UNIT(PLANE_ANGLE_MEASURE(1.745329251994E-2),#734);
#736=(CONVERSION_BASED_UNIT('DEGREE',#735)NAMED_UNIT(*)PLANE_ANGLE_UNIT());
#738=UNCERTAINTY_MEASURE_WITH_UNIT(LENGTH_MEASURE(1.340132946716E-2),#732,
'closure',
'Maximum model space distance between geometric entities at asserted connectivities');
#739=(GEOMETRIC_REPRESENTATION_CONTEXT(3)GLOBAL_UNCERTAINTY_ASSIGNED_CONTEXT((
#738))GLOBAL_UNIT_ASSIGNED_CONTEXT((#732,#736,#737))REPRESENTATION_CONTEXT
('ID1','3'));
#741=APPLICATION_CONTEXT(
'CONFIGURATION CONTROLLED 3D DESIGNS OF MECHANICAL PARTS AND ASSEMBLIES');
#742=APPLICATION_PROTOCOL_DEFINITION('international standard',
'config_control_design',1994,#741);
#743=DESIGN_CONTEXT('',#741,'design');
#744=MECHANICAL_CONTEXT('',#741,'mechanical');
#745=PRODUCT('LVGUAN-2','LVGUAN-2','NOT SPECIFIED',(#744));
#746=PRODUCT_DEFINITION_FORMATION_WITH_SPECIFIED_SOURCE('9','LAST_VERSION',#745,
.MADE.);
#750=PRODUCT_CATEGORY('part','');
#751=PRODUCT_RELATED_PRODUCT_CATEGORY('detail','',(#745));
#752=PRODUCT_CATEGORY_RELATIONSHIP('','',#750,#751);
#753=SECURITY_CLASSIFICATION_LEVEL('unclassified');
#754=SECURITY_CLASSIFICATION('','',#753);
#755=CC_DESIGN_SECURITY_CLASSIFICATION(#754,(#746));
#756=APPROVAL_STATUS('approved');
#757=APPROVAL(#756,'');
#758=CC_DESIGN_APPROVAL(#757,(#754,#746,#747));
#759=CALENDAR_DATE(124,8,4);
#760=COORDINATED_UNIVERSAL_TIME_OFFSET(8,0,.AHEAD.);
#761=LOCAL_TIME(20,18,4.5E1,#760);
#762=DATE_AND_TIME(#759,#761);
#763=APPROVAL_DATE_TIME(#762,#757);
#764=DATE_TIME_ROLE('creation_date');
#765=CC_DESIGN_DATE_AND_TIME_ASSIGNMENT(#762,#764,(#747));
#766=DATE_TIME_ROLE('classification_date');
#767=CC_DESIGN_DATE_AND_TIME_ASSIGNMENT(#762,#766,(#754));
#768=PERSON('UNSPECIFIED','UNSPECIFIED',$,$,$,$);
#769=ORGANIZATION('UNSPECIFIED','UNSPECIFIED','UNSPECIFIED');
#770=PERSON_AND_ORGANIZATION(#768,#769);
#771=APPROVAL_ROLE('approver');
#772=APPROVAL_PERSON_ORGANIZATION(#770,#757,#771);
#773=PERSON_AND_ORGANIZATION_ROLE('creator');
#774=CC_DESIGN_PERSON_AND_ORGANIZATION_ASSIGNMENT(#770,#773,(#746,#747));
#775=PERSON_AND_ORGANIZATION_ROLE('design_supplier');
#776=CC_DESIGN_PERSON_AND_ORGANIZATION_ASSIGNMENT(#770,#775,(#746));
#777=PERSON_AND_ORGANIZATION_ROLE('classification_officer');
#778=CC_DESIGN_PERSON_AND_ORGANIZATION_ASSIGNMENT(#770,#777,(#754));
#779=PERSON_AND_ORGANIZATION_ROLE('design_owner');
#780=CC_DESIGN_PERSON_AND_ORGANIZATION_ASSIGNMENT(#770,#779,(#745));
#42=CIRCLE('',#41,1.5E0);
#47=CIRCLE('',#46,1.5E0);
#52=CIRCLE('',#51,1.5E0);
#57=CIRCLE('',#56,1.5E0);
#62=CIRCLE('',#61,1.5E0);
#67=CIRCLE('',#66,1.5E0);
#80=CIRCLE('',#79,1.5E0);
#85=CIRCLE('',#84,1.5E0);
#90=CIRCLE('',#89,1.5E0);
#95=CIRCLE('',#94,1.5E0);
#100=CIRCLE('',#99,1.5E0);
#105=CIRCLE('',#104,1.5E0);
#154=CIRCLE('',#153,1.5E0);
#159=CIRCLE('',#158,1.5E0);
#164=CIRCLE('',#163,1.5E0);
#169=CIRCLE('',#168,1.5E0);
#174=CIRCLE('',#173,1.5E0);
#179=CIRCLE('',#178,1.5E0);
#192=CIRCLE('',#191,1.5E0);
#197=CIRCLE('',#196,1.5E0);
#202=CIRCLE('',#201,1.5E0);
#207=CIRCLE('',#206,1.5E0);
#212=CIRCLE('',#211,1.5E0);
#217=CIRCLE('',#216,1.5E0);
#351=EDGE_CURVE('',#268,#269,#5,.T.);
#353=EDGE_CURVE('',#269,#271,#9,.T.);
#355=EDGE_CURVE('',#271,#273,#13,.T.);
#357=EDGE_CURVE('',#273,#268,#17,.T.);
#361=EDGE_CURVE('',#276,#277,#21,.T.);
#363=EDGE_CURVE('',#277,#279,#25,.T.);
#365=EDGE_CURVE('',#279,#281,#29,.T.);
#367=EDGE_CURVE('',#281,#276,#33,.T.);
#378=EDGE_CURVE('',#268,#284,#37,.T.);
#380=EDGE_CURVE('',#284,#285,#113,.T.);
#382=EDGE_CURVE('',#269,#285,#109,.T.);
#386=EDGE_CURVE('',#300,#301,#42,.T.);
#388=EDGE_CURVE('',#301,#300,#47,.T.);
#392=EDGE_CURVE('',#304,#305,#52,.T.);
#394=EDGE_CURVE('',#305,#304,#57,.T.);
#398=EDGE_CURVE('',#308,#309,#62,.T.);
#400=EDGE_CURVE('',#309,#308,#67,.T.);
#411=EDGE_CURVE('',#273,#289,#71,.T.);
#413=EDGE_CURVE('',#289,#284,#117,.T.);
#425=EDGE_CURVE('',#271,#287,#75,.T.);
#427=EDGE_CURVE('',#287,#289,#121,.T.);
#432=EDGE_CURVE('',#312,#313,#80,.T.);
#434=EDGE_CURVE('',#313,#312,#85,.T.);
#438=EDGE_CURVE('',#316,#317,#90,.T.);
#440=EDGE_CURVE('',#317,#316,#95,.T.);
#444=EDGE_CURVE('',#320,#321,#100,.T.);
#446=EDGE_CURVE('',#321,#320,#105,.T.);
#458=EDGE_CURVE('',#285,#287,#125,.T.);
#475=EDGE_CURVE('',#292,#293,#129,.T.);
#477=EDGE_CURVE('',#297,#292,#133,.T.);
#479=EDGE_CURVE('',#295,#297,#137,.T.);
#481=EDGE_CURVE('',#293,#295,#141,.T.);
#492=EDGE_CURVE('',#276,#292,#145,.T.);
#495=EDGE_CURVE('',#277,#293,#187,.T.);
#506=EDGE_CURVE('',#281,#297,#149,.T.);
#512=EDGE_CURVE('',#336,#337,#154,.T.);
#514=EDGE_CURVE('',#337,#336,#159,.T.);
#518=EDGE_CURVE('',#340,#341,#164,.T.);
#520=EDGE_CURVE('',#341,#340,#169,.T.);
#524=EDGE_CURVE('',#344,#345,#174,.T.);
#526=EDGE_CURVE('',#345,#344,#179,.T.);
#537=EDGE_CURVE('',#279,#295,#183,.T.);
#555=EDGE_CURVE('',#324,#325,#192,.T.);
#557=EDGE_CURVE('',#325,#324,#197,.T.);
#561=EDGE_CURVE('',#328,#329,#202,.T.);
#563=EDGE_CURVE('',#329,#328,#207,.T.);
#567=EDGE_CURVE('',#332,#333,#212,.T.);
#569=EDGE_CURVE('',#333,#332,#217,.T.);
#580=EDGE_CURVE('',#337,#301,#229,.T.);
#583=EDGE_CURVE('',#336,#300,#221,.T.);
#594=EDGE_CURVE('',#312,#324,#225,.T.);
#597=EDGE_CURVE('',#313,#325,#233,.T.);
#632=EDGE_CURVE('',#341,#305,#245,.T.);
#635=EDGE_CURVE('',#340,#304,#237,.T.);
#646=EDGE_CURVE('',#316,#328,#241,.T.);
#649=EDGE_CURVE('',#317,#329,#249,.T.);
#684=EDGE_CURVE('',#345,#309,#261,.T.);
#687=EDGE_CURVE('',#344,#308,#253,.T.);
#698=EDGE_CURVE('',#320,#332,#257,.T.);
#701=EDGE_CURVE('',#321,#333,#265,.T.);
#730=CLOSED_SHELL('',(#371,#404,#418,#450,#463,#485,#499,#530,#543,#573,#587,
#601,#613,#625,#639,#653,#665,#677,#691,#705,#717,#729));
#731=MANIFOLD_SOLID_BREP('',#730);
#732=(LENGTH_UNIT()NAMED_UNIT(*)SI_UNIT(.MILLI.,.METRE.));
#734=(NAMED_UNIT(*)PLANE_ANGLE_UNIT()SI_UNIT($,.RADIAN.));
#737=(NAMED_UNIT(*)SI_UNIT($,.STERADIAN.)SOLID_ANGLE_UNIT());
#740=ADVANCED_BREP_SHAPE_REPRESENTATION('',(#731),#739);
#747=PRODUCT_DEFINITION('design','',#746,#743);
#748=PRODUCT_DEFINITION_SHAPE('','SHAPE FOR LVGUAN-2.',#747);
#749=SHAPE_DEFINITION_REPRESENTATION(#748,#740);
ENDSEC;
END-ISO-10303-21;
